<?xml version="1.0" encoding="utf-8" standalone="no"?>
<!DOCTYPE svg PUBLIC "-//W3C//DTD SVG 1.1//EN"
  "http://www.w3.org/Graphics/SVG/1.1/DTD/svg11.dtd">
<svg xmlns:xlink="http://www.w3.org/1999/xlink" width="505.44pt" height="247.986088pt" viewBox="0 0 505.44 247.986088" xmlns="http://www.w3.org/2000/svg" version="1.1">
 <metadata>
  <rdf:RDF xmlns:dc="http://purl.org/dc/elements/1.1/" xmlns:cc="http://creativecommons.org/ns#" xmlns:rdf="http://www.w3.org/1999/02/22-rdf-syntax-ns#">
   <cc:Work>
    <dc:type rdf:resource="http://purl.org/dc/dcmitype/StillImage"/>
    <dc:date>2026-06-24T13:43:55.317284</dc:date>
    <dc:format>image/svg+xml</dc:format>
    <dc:creator>
     <cc:Agent>
      <dc:title>Matplotlib v3.11.0, https://matplotlib.org/</dc:title>
     </cc:Agent>
    </dc:creator>
   </cc:Work>
  </rdf:RDF>
 </metadata>
 <defs>
  <style type="text/css">*{stroke-linejoin: round; stroke-linecap: butt}</style>
 </defs>
 <g id="figure_1">
  <g id="patch_1">
   <path d="M 0 247.986088 
L 505.44 247.986088 
L 505.44 -0 
L 0 -0 
z
" style="fill: #ffffff"/>
  </g>
  <g id="axes_1">
   <g id="patch_2">
    <path d="M 83.557895 99.304215 
L 107.052632 99.304215 
L 107.052632 48.655326 
L 83.557895 48.655326 
z
" clip-path="url(#pbed8eb93b7)" style="fill: #f2f2f2; stroke: #cccccc; stroke-width: 0.8; stroke-linejoin: miter"/>
   </g>
   <g id="patch_3">
    <path d="M 107.052632 99.304215 
L 130.547368 99.304215 
L 130.547368 48.655326 
L 107.052632 48.655326 
z
" clip-path="url(#pbed8eb93b7)" style="fill: #f2f2f2; stroke: #cccccc; stroke-width: 0.8; stroke-linejoin: miter"/>
   </g>
   <g id="patch_4">
    <path d="M 130.547368 99.304215 
L 154.042105 99.304215 
L 154.042105 48.655326 
L 130.547368 48.655326 
z
" clip-path="url(#pbed8eb93b7)" style="fill: #f2f2f2; stroke: #cccccc; stroke-width: 0.8; stroke-linejoin: miter"/>
   </g>
   <g id="patch_5">
    <path d="M 83.557895 127.161104 
L 107.052632 127.161104 
L 107.052632 101.83666 
L 83.557895 101.83666 
z
" clip-path="url(#pbed8eb93b7)" style="fill: #1f77b4; opacity: 0.45; stroke: #808080; stroke-linejoin: miter"/>
   </g>
   <g id="patch_6">
    <path d="M 83.557895 157.550437 
L 107.052632 157.550437 
L 107.052632 132.225993 
L 83.557895 132.225993 
L 83.557895 157.550437 
z
" clip-path="url(#pbed8eb93b7)" style="fill: none; stroke: #808080; stroke-linejoin: miter"/>
   </g>
   <g id="patch_7">
    <path d="M 83.557895 187.939771 
L 107.052632 187.939771 
L 107.052632 162.615326 
L 83.557895 162.615326 
L 83.557895 187.939771 
z
" clip-path="url(#pbed8eb93b7)" style="fill: none; stroke: #808080; stroke-linejoin: miter"/>
   </g>
   <g id="patch_8">
    <path d="M 107.052632 127.161104 
L 130.547368 127.161104 
L 130.547368 101.83666 
L 107.052632 101.83666 
L 107.052632 127.161104 
z
" clip-path="url(#pbed8eb93b7)" style="fill: none; stroke: #808080; stroke-linejoin: miter"/>
   </g>
   <g id="patch_9">
    <path d="M 107.052632 157.550437 
L 130.547368 157.550437 
L 130.547368 132.225993 
L 107.052632 132.225993 
z
" clip-path="url(#pbed8eb93b7)" style="fill: #2ca02c; opacity: 0.45; stroke: #808080; stroke-linejoin: miter"/>
   </g>
   <g id="patch_10">
    <path d="M 107.052632 187.939771 
L 130.547368 187.939771 
L 130.547368 162.615326 
L 107.052632 162.615326 
L 107.052632 187.939771 
z
" clip-path="url(#pbed8eb93b7)" style="fill: none; stroke: #808080; stroke-linejoin: miter"/>
   </g>
   <g id="patch_11">
    <path d="M 130.547368 127.161104 
L 154.042105 127.161104 
L 154.042105 101.83666 
L 130.547368 101.83666 
L 130.547368 127.161104 
z
" clip-path="url(#pbed8eb93b7)" style="fill: none; stroke: #808080; stroke-linejoin: miter"/>
   </g>
   <g id="patch_12">
    <path d="M 130.547368 157.550437 
L 154.042105 157.550437 
L 154.042105 132.225993 
L 130.547368 132.225993 
L 130.547368 157.550437 
z
" clip-path="url(#pbed8eb93b7)" style="fill: none; stroke: #808080; stroke-linejoin: miter"/>
   </g>
   <g id="patch_13">
    <path d="M 130.547368 187.939771 
L 154.042105 187.939771 
L 154.042105 162.615326 
L 130.547368 162.615326 
z
" clip-path="url(#pbed8eb93b7)" style="fill: #e08a00; opacity: 0.45; stroke: #808080; stroke-linejoin: miter"/>
   </g>
   <g id="LineCollection_1">
    <path d="M 95.305263 99.304215 
L 95.305263 59.798082 
" clip-path="url(#pbed8eb93b7)" style="fill: none; stroke: #1f77b4; stroke-width: 2.2"/>
   </g>
   <g id="LineCollection_2">
    <path d="M 118.8 99.304215 
L 118.8 59.798082 
" clip-path="url(#pbed8eb93b7)" style="fill: none; stroke: #2ca02c; stroke-width: 2.2"/>
   </g>
   <g id="LineCollection_3">
    <path d="M 142.294737 99.304215 
L 142.294737 59.798082 
" clip-path="url(#pbed8eb93b7)" style="fill: none; stroke: #e08a00; stroke-width: 2.2"/>
   </g>
   <g id="patch_14">
    <path d="M 139.1777 40.551504 
Q 118.801416 40.551504 98.425131 40.551504 
" style="fill: none; stroke: #737373; stroke-linecap: round"/>
    <path d="M 135.1777 38.551504 
L 139.1777 40.551504 
L 135.1777 42.551504 
" style="fill: none; stroke: #737373; stroke-linecap: round"/>
    <path d="M 102.425131 42.551504 
L 98.425131 40.551504 
L 102.425131 38.551504 
" style="fill: none; stroke: #737373; stroke-linecap: round"/>
   </g>
   <g id="text_1">
    <!-- the same m/z, recorded by -->
    <g style="fill: #737373" transform="translate(68.323242 25.95803) scale(0.075 -0.075)">
     <defs>
      <path id="DejaVuSans-57" d="M 1172 4494 
L 1172 3500 
L 2356 3500 
L 2356 3053 
L 1172 3053 
L 1172 1153 
Q 1172 725 1289 603 
Q 1406 481 1766 481 
L 2356 481 
L 2356 0 
L 1766 0 
Q 1100 0 847 248 
Q 594 497 594 1153 
L 594 3053 
L 172 3053 
L 172 3500 
L 594 3500 
L 594 4494 
L 1172 4494 
z
" transform="scale(0.015625)"/>
      <path id="DejaVuSans-4b" d="M 3513 2113 
L 3513 0 
L 2938 0 
L 2938 2094 
Q 2938 2591 2744 2837 
Q 2550 3084 2163 3084 
Q 1697 3084 1428 2787 
Q 1159 2491 1159 1978 
L 1159 0 
L 581 0 
L 581 4863 
L 1159 4863 
L 1159 2956 
Q 1366 3272 1645 3428 
Q 1925 3584 2291 3584 
Q 2894 3584 3203 3211 
Q 3513 2838 3513 2113 
z
" transform="scale(0.015625)"/>
      <path id="DejaVuSans-48" d="M 3597 1894 
L 3597 1613 
L 953 1613 
Q 991 1019 1311 708 
Q 1631 397 2203 397 
Q 2534 397 2845 478 
Q 3156 559 3463 722 
L 3463 178 
Q 3153 47 2828 -22 
Q 2503 -91 2169 -91 
Q 1331 -91 842 396 
Q 353 884 353 1716 
Q 353 2575 817 3079 
Q 1281 3584 2069 3584 
Q 2775 3584 3186 3129 
Q 3597 2675 3597 1894 
z
M 3022 2063 
Q 3016 2534 2758 2815 
Q 2500 3097 2075 3097 
Q 1594 3097 1305 2825 
Q 1016 2553 972 2059 
L 3022 2063 
z
" transform="scale(0.015625)"/>
      <path id="DejaVuSans-3" transform="scale(0.015625)"/>
      <path id="DejaVuSans-56" d="M 2834 3397 
L 2834 2853 
Q 2591 2978 2328 3040 
Q 2066 3103 1784 3103 
Q 1356 3103 1142 2972 
Q 928 2841 928 2578 
Q 928 2378 1081 2264 
Q 1234 2150 1697 2047 
L 1894 2003 
Q 2506 1872 2764 1633 
Q 3022 1394 3022 966 
Q 3022 478 2636 193 
Q 2250 -91 1575 -91 
Q 1294 -91 989 -36 
Q 684 19 347 128 
L 347 722 
Q 666 556 975 473 
Q 1284 391 1588 391 
Q 1994 391 2212 530 
Q 2431 669 2431 922 
Q 2431 1156 2273 1281 
Q 2116 1406 1581 1522 
L 1381 1569 
Q 847 1681 609 1914 
Q 372 2147 372 2553 
Q 372 3047 722 3315 
Q 1072 3584 1716 3584 
Q 2034 3584 2315 3537 
Q 2597 3491 2834 3397 
z
" transform="scale(0.015625)"/>
      <path id="DejaVuSans-44" d="M 2194 1759 
Q 1497 1759 1228 1600 
Q 959 1441 959 1056 
Q 959 750 1161 570 
Q 1363 391 1709 391 
Q 2188 391 2477 730 
Q 2766 1069 2766 1631 
L 2766 1759 
L 2194 1759 
z
M 3341 1997 
L 3341 0 
L 2766 0 
L 2766 531 
Q 2569 213 2275 61 
Q 1981 -91 1556 -91 
Q 1019 -91 701 211 
Q 384 513 384 1019 
Q 384 1609 779 1909 
Q 1175 2209 1959 2209 
L 2766 2209 
L 2766 2266 
Q 2766 2663 2505 2880 
Q 2244 3097 1772 3097 
Q 1472 3097 1187 3025 
Q 903 2953 641 2809 
L 641 3341 
Q 956 3463 1253 3523 
Q 1550 3584 1831 3584 
Q 2591 3584 2966 3190 
Q 3341 2797 3341 1997 
z
" transform="scale(0.015625)"/>
      <path id="DejaVuSans-50" d="M 3328 2828 
Q 3544 3216 3844 3400 
Q 4144 3584 4550 3584 
Q 5097 3584 5394 3201 
Q 5691 2819 5691 2113 
L 5691 0 
L 5113 0 
L 5113 2094 
Q 5113 2597 4934 2840 
Q 4756 3084 4391 3084 
Q 3944 3084 3684 2787 
Q 3425 2491 3425 1978 
L 3425 0 
L 2847 0 
L 2847 2094 
Q 2847 2600 2669 2842 
Q 2491 3084 2119 3084 
Q 1678 3084 1418 2786 
Q 1159 2488 1159 1978 
L 1159 0 
L 581 0 
L 581 3500 
L 1159 3500 
L 1159 2956 
Q 1356 3278 1631 3431 
Q 1906 3584 2284 3584 
Q 2666 3584 2933 3390 
Q 3200 3197 3328 2828 
z
" transform="scale(0.015625)"/>
      <path id="DejaVuSans-12" d="M 1625 4666 
L 2156 4666 
L 531 -594 
L 0 -594 
L 1625 4666 
z
" transform="scale(0.015625)"/>
      <path id="DejaVuSans-5d" d="M 353 3500 
L 3084 3500 
L 3084 2975 
L 922 459 
L 3084 459 
L 3084 0 
L 275 0 
L 275 525 
L 2438 3041 
L 353 3041 
L 353 3500 
z
" transform="scale(0.015625)"/>
      <path id="DejaVuSans-f" d="M 750 794 
L 1409 794 
L 1409 256 
L 897 -744 
L 494 -744 
L 750 256 
L 750 794 
z
" transform="scale(0.015625)"/>
      <path id="DejaVuSans-55" d="M 2631 2963 
Q 2534 3019 2420 3045 
Q 2306 3072 2169 3072 
Q 1681 3072 1420 2755 
Q 1159 2438 1159 1844 
L 1159 0 
L 581 0 
L 581 3500 
L 1159 3500 
L 1159 2956 
Q 1341 3275 1631 3429 
Q 1922 3584 2338 3584 
Q 2397 3584 2469 3576 
Q 2541 3569 2628 3553 
L 2631 2963 
z
" transform="scale(0.015625)"/>
      <path id="DejaVuSans-46" d="M 3122 3366 
L 3122 2828 
Q 2878 2963 2633 3030 
Q 2388 3097 2138 3097 
Q 1578 3097 1268 2742 
Q 959 2388 959 1747 
Q 959 1106 1268 751 
Q 1578 397 2138 397 
Q 2388 397 2633 464 
Q 2878 531 3122 666 
L 3122 134 
Q 2881 22 2623 -34 
Q 2366 -91 2075 -91 
Q 1284 -91 818 406 
Q 353 903 353 1747 
Q 353 2603 823 3093 
Q 1294 3584 2113 3584 
Q 2378 3584 2631 3529 
Q 2884 3475 3122 3366 
z
" transform="scale(0.015625)"/>
      <path id="DejaVuSans-52" d="M 1959 3097 
Q 1497 3097 1228 2736 
Q 959 2375 959 1747 
Q 959 1119 1226 758 
Q 1494 397 1959 397 
Q 2419 397 2687 759 
Q 2956 1122 2956 1747 
Q 2956 2369 2687 2733 
Q 2419 3097 1959 3097 
z
M 1959 3584 
Q 2709 3584 3137 3096 
Q 3566 2609 3566 1747 
Q 3566 888 3137 398 
Q 2709 -91 1959 -91 
Q 1206 -91 779 398 
Q 353 888 353 1747 
Q 353 2609 779 3096 
Q 1206 3584 1959 3584 
z
" transform="scale(0.015625)"/>
      <path id="DejaVuSans-47" d="M 2906 2969 
L 2906 4863 
L 3481 4863 
L 3481 0 
L 2906 0 
L 2906 525 
Q 2725 213 2448 61 
Q 2172 -91 1784 -91 
Q 1150 -91 751 415 
Q 353 922 353 1747 
Q 353 2572 751 3078 
Q 1150 3584 1784 3584 
Q 2172 3584 2448 3432 
Q 2725 3281 2906 2969 
z
M 947 1747 
Q 947 1113 1208 752 
Q 1469 391 1925 391 
Q 2381 391 2643 752 
Q 2906 1113 2906 1747 
Q 2906 2381 2643 2742 
Q 2381 3103 1925 3103 
Q 1469 3103 1208 2742 
Q 947 2381 947 1747 
z
" transform="scale(0.015625)"/>
      <path id="DejaVuSans-45" d="M 3116 1747 
Q 3116 2381 2855 2742 
Q 2594 3103 2138 3103 
Q 1681 3103 1420 2742 
Q 1159 2381 1159 1747 
Q 1159 1113 1420 752 
Q 1681 391 2138 391 
Q 2594 391 2855 752 
Q 3116 1113 3116 1747 
z
M 1159 2969 
Q 1341 3281 1617 3432 
Q 1894 3584 2278 3584 
Q 2916 3584 3314 3078 
Q 3713 2572 3713 1747 
Q 3713 922 3314 415 
Q 2916 -91 2278 -91 
Q 1894 -91 1617 61 
Q 1341 213 1159 525 
L 1159 0 
L 581 0 
L 581 4863 
L 1159 4863 
L 1159 2969 
z
" transform="scale(0.015625)"/>
      <path id="DejaVuSans-5c" d="M 2059 -325 
Q 1816 -950 1584 -1140 
Q 1353 -1331 966 -1331 
L 506 -1331 
L 506 -850 
L 844 -850 
Q 1081 -850 1212 -737 
Q 1344 -625 1503 -206 
L 1606 56 
L 191 3500 
L 800 3500 
L 1894 763 
L 2988 3500 
L 3597 3500 
L 2059 -325 
z
" transform="scale(0.015625)"/>
     </defs>
     <use xlink:href="#DejaVuSans-57"/>
     <use xlink:href="#DejaVuSans-4b" transform="translate(39.203125 0)"/>
     <use xlink:href="#DejaVuSans-48" transform="translate(102.578125 0)"/>
     <use xlink:href="#DejaVuSans-3" transform="translate(164.109375 0)"/>
     <use xlink:href="#DejaVuSans-56" transform="translate(195.890625 0)"/>
     <use xlink:href="#DejaVuSans-44" transform="translate(247.984375 0)"/>
     <use xlink:href="#DejaVuSans-50" transform="translate(309.265625 0)"/>
     <use xlink:href="#DejaVuSans-48" transform="translate(406.671875 0)"/>
     <use xlink:href="#DejaVuSans-3" transform="translate(468.203125 0)"/>
     <use xlink:href="#DejaVuSans-50" transform="translate(499.984375 0)"/>
     <use xlink:href="#DejaVuSans-12" transform="translate(597.390625 0)"/>
     <use xlink:href="#DejaVuSans-5d" transform="translate(631.078125 0)"/>
     <use xlink:href="#DejaVuSans-f" transform="translate(683.5625 0)"/>
     <use xlink:href="#DejaVuSans-3" transform="translate(715.34375 0)"/>
     <use xlink:href="#DejaVuSans-55" transform="translate(747.125 0)"/>
     <use xlink:href="#DejaVuSans-48" transform="translate(786.03125 0)"/>
     <use xlink:href="#DejaVuSans-46" transform="translate(847.5625 0)"/>
     <use xlink:href="#DejaVuSans-52" transform="translate(902.546875 0)"/>
     <use xlink:href="#DejaVuSans-55" transform="translate(963.734375 0)"/>
     <use xlink:href="#DejaVuSans-47" transform="translate(1003.09375 0)"/>
     <use xlink:href="#DejaVuSans-48" transform="translate(1066.578125 0)"/>
     <use xlink:href="#DejaVuSans-47" transform="translate(1128.109375 0)"/>
     <use xlink:href="#DejaVuSans-3" transform="translate(1191.59375 0)"/>
     <use xlink:href="#DejaVuSans-45" transform="translate(1223.375 0)"/>
     <use xlink:href="#DejaVuSans-5c" transform="translate(1286.859375 0)"/>
    </g>
    <!-- three drifting scans -->
    <g style="fill: #737373" transform="translate(82.364648 34.960081) scale(0.075 -0.075)">
     <defs>
      <path id="DejaVuSans-4c" d="M 603 3500 
L 1178 3500 
L 1178 0 
L 603 0 
L 603 3500 
z
M 603 4863 
L 1178 4863 
L 1178 4134 
L 603 4134 
L 603 4863 
z
" transform="scale(0.015625)"/>
      <path id="DejaVuSans-49" d="M 2375 4863 
L 2375 4384 
L 1825 4384 
Q 1516 4384 1395 4259 
Q 1275 4134 1275 3809 
L 1275 3500 
L 2222 3500 
L 2222 3053 
L 1275 3053 
L 1275 0 
L 697 0 
L 697 3053 
L 147 3053 
L 147 3500 
L 697 3500 
L 697 3744 
Q 697 4328 969 4595 
Q 1241 4863 1831 4863 
L 2375 4863 
z
" transform="scale(0.015625)"/>
      <path id="DejaVuSans-51" d="M 3513 2113 
L 3513 0 
L 2938 0 
L 2938 2094 
Q 2938 2591 2744 2837 
Q 2550 3084 2163 3084 
Q 1697 3084 1428 2787 
Q 1159 2491 1159 1978 
L 1159 0 
L 581 0 
L 581 3500 
L 1159 3500 
L 1159 2956 
Q 1366 3272 1645 3428 
Q 1925 3584 2291 3584 
Q 2894 3584 3203 3211 
Q 3513 2838 3513 2113 
z
" transform="scale(0.015625)"/>
      <path id="DejaVuSans-4a" d="M 2906 1791 
Q 2906 2416 2648 2759 
Q 2391 3103 1925 3103 
Q 1463 3103 1205 2759 
Q 947 2416 947 1791 
Q 947 1169 1205 825 
Q 1463 481 1925 481 
Q 2391 481 2648 825 
Q 2906 1169 2906 1791 
z
M 3481 434 
Q 3481 -459 3084 -895 
Q 2688 -1331 1869 -1331 
Q 1566 -1331 1297 -1286 
Q 1028 -1241 775 -1147 
L 775 -588 
Q 1028 -725 1275 -790 
Q 1522 -856 1778 -856 
Q 2344 -856 2625 -561 
Q 2906 -266 2906 331 
L 2906 616 
Q 2728 306 2450 153 
Q 2172 0 1784 0 
Q 1141 0 747 490 
Q 353 981 353 1791 
Q 353 2603 747 3093 
Q 1141 3584 1784 3584 
Q 2172 3584 2450 3431 
Q 2728 3278 2906 2969 
L 2906 3500 
L 3481 3500 
L 3481 434 
z
" transform="scale(0.015625)"/>
     </defs>
     <use xlink:href="#DejaVuSans-57"/>
     <use xlink:href="#DejaVuSans-4b" transform="translate(39.203125 0)"/>
     <use xlink:href="#DejaVuSans-55" transform="translate(102.578125 0)"/>
     <use xlink:href="#DejaVuSans-48" transform="translate(141.484375 0)"/>
     <use xlink:href="#DejaVuSans-48" transform="translate(203.015625 0)"/>
     <use xlink:href="#DejaVuSans-3" transform="translate(264.546875 0)"/>
     <use xlink:href="#DejaVuSans-47" transform="translate(296.328125 0)"/>
     <use xlink:href="#DejaVuSans-55" transform="translate(359.8125 0)"/>
     <use xlink:href="#DejaVuSans-4c" transform="translate(400.921875 0)"/>
     <use xlink:href="#DejaVuSans-49" transform="translate(428.703125 0)"/>
     <use xlink:href="#DejaVuSans-57" transform="translate(462.15625 0)"/>
     <use xlink:href="#DejaVuSans-4c" transform="translate(501.359375 0)"/>
     <use xlink:href="#DejaVuSans-51" transform="translate(529.140625 0)"/>
     <use xlink:href="#DejaVuSans-4a" transform="translate(592.515625 0)"/>
     <use xlink:href="#DejaVuSans-3" transform="translate(656 0)"/>
     <use xlink:href="#DejaVuSans-56" transform="translate(687.78125 0)"/>
     <use xlink:href="#DejaVuSans-46" transform="translate(739.875 0)"/>
     <use xlink:href="#DejaVuSans-44" transform="translate(794.859375 0)"/>
     <use xlink:href="#DejaVuSans-51" transform="translate(856.140625 0)"/>
     <use xlink:href="#DejaVuSans-56" transform="translate(919.515625 0)"/>
    </g>
   </g>
   <g id="text_2">
    <!-- 0 -->
    <g style="fill: #d62728" transform="translate(92.174248 147.226106) scale(0.09 -0.09)">
     <defs>
      <path id="DejaVuSans-Bold-13" d="M 2944 2338 
Q 2944 3213 2780 3570 
Q 2616 3928 2228 3928 
Q 1841 3928 1675 3570 
Q 1509 3213 1509 2338 
Q 1509 1453 1675 1090 
Q 1841 728 2228 728 
Q 2613 728 2778 1090 
Q 2944 1453 2944 2338 
z
M 4147 2328 
Q 4147 1169 3647 539 
Q 3147 -91 2228 -91 
Q 1306 -91 806 539 
Q 306 1169 306 2328 
Q 306 3491 806 4120 
Q 1306 4750 2228 4750 
Q 3147 4750 3647 4120 
Q 4147 3491 4147 2328 
z
" transform="scale(0.015625)"/>
     </defs>
     <use xlink:href="#DejaVuSans-Bold-13"/>
    </g>
   </g>
   <g id="text_3">
    <!-- 0 -->
    <g style="fill: #d62728" transform="translate(92.174248 177.615439) scale(0.09 -0.09)">
     <use xlink:href="#DejaVuSans-Bold-13"/>
    </g>
   </g>
   <g id="text_4">
    <!-- 0 -->
    <g style="fill: #d62728" transform="translate(115.668984 116.836773) scale(0.09 -0.09)">
     <use xlink:href="#DejaVuSans-Bold-13"/>
    </g>
   </g>
   <g id="text_5">
    <!-- 0 -->
    <g style="fill: #d62728" transform="translate(115.668984 177.615439) scale(0.09 -0.09)">
     <use xlink:href="#DejaVuSans-Bold-13"/>
    </g>
   </g>
   <g id="text_6">
    <!-- 0 -->
    <g style="fill: #d62728" transform="translate(139.163721 116.836773) scale(0.09 -0.09)">
     <use xlink:href="#DejaVuSans-Bold-13"/>
    </g>
   </g>
   <g id="text_7">
    <!-- 0 -->
    <g style="fill: #d62728" transform="translate(139.163721 147.226106) scale(0.09 -0.09)">
     <use xlink:href="#DejaVuSans-Bold-13"/>
    </g>
   </g>
   <g id="text_8">
    <!-- scan 0 -->
    <g style="fill: #1f77b4" transform="translate(49.624453 116.447124) scale(0.075 -0.075)">
     <defs>
      <path id="DejaVuSans-13" d="M 2034 4250 
Q 1547 4250 1301 3770 
Q 1056 3291 1056 2328 
Q 1056 1369 1301 889 
Q 1547 409 2034 409 
Q 2525 409 2770 889 
Q 3016 1369 3016 2328 
Q 3016 3291 2770 3770 
Q 2525 4250 2034 4250 
z
M 2034 4750 
Q 2819 4750 3233 4129 
Q 3647 3509 3647 2328 
Q 3647 1150 3233 529 
Q 2819 -91 2034 -91 
Q 1250 -91 836 529 
Q 422 1150 422 2328 
Q 422 3509 836 4129 
Q 1250 4750 2034 4750 
z
" transform="scale(0.015625)"/>
     </defs>
     <use xlink:href="#DejaVuSans-56"/>
     <use xlink:href="#DejaVuSans-46" transform="translate(52.09375 0)"/>
     <use xlink:href="#DejaVuSans-44" transform="translate(107.078125 0)"/>
     <use xlink:href="#DejaVuSans-51" transform="translate(168.359375 0)"/>
     <use xlink:href="#DejaVuSans-3" transform="translate(231.734375 0)"/>
     <use xlink:href="#DejaVuSans-13" transform="translate(263.515625 0)"/>
    </g>
   </g>
   <g id="text_9">
    <!-- scan 1 -->
    <g style="fill: #2ca02c" transform="translate(49.624453 146.836457) scale(0.075 -0.075)">
     <defs>
      <path id="DejaVuSans-14" d="M 794 531 
L 1825 531 
L 1825 4091 
L 703 3866 
L 703 4441 
L 1819 4666 
L 2450 4666 
L 2450 531 
L 3481 531 
L 3481 0 
L 794 0 
L 794 531 
z
" transform="scale(0.015625)"/>
     </defs>
     <use xlink:href="#DejaVuSans-56"/>
     <use xlink:href="#DejaVuSans-46" transform="translate(52.09375 0)"/>
     <use xlink:href="#DejaVuSans-44" transform="translate(107.078125 0)"/>
     <use xlink:href="#DejaVuSans-51" transform="translate(168.359375 0)"/>
     <use xlink:href="#DejaVuSans-3" transform="translate(231.734375 0)"/>
     <use xlink:href="#DejaVuSans-14" transform="translate(263.515625 0)"/>
    </g>
   </g>
   <g id="text_10">
    <!-- scan 2 -->
    <g style="fill: #e08a00" transform="translate(49.624453 177.225791) scale(0.075 -0.075)">
     <defs>
      <path id="DejaVuSans-15" d="M 1228 531 
L 3431 531 
L 3431 0 
L 469 0 
L 469 531 
Q 828 903 1448 1529 
Q 2069 2156 2228 2338 
Q 2531 2678 2651 2914 
Q 2772 3150 2772 3378 
Q 2772 3750 2511 3984 
Q 2250 4219 1831 4219 
Q 1534 4219 1204 4116 
Q 875 4013 500 3803 
L 500 4441 
Q 881 4594 1212 4672 
Q 1544 4750 1819 4750 
Q 2544 4750 2975 4387 
Q 3406 4025 3406 3419 
Q 3406 3131 3298 2873 
Q 3191 2616 2906 2266 
Q 2828 2175 2409 1742 
Q 1991 1309 1228 531 
z
" transform="scale(0.015625)"/>
     </defs>
     <use xlink:href="#DejaVuSans-56"/>
     <use xlink:href="#DejaVuSans-46" transform="translate(52.09375 0)"/>
     <use xlink:href="#DejaVuSans-44" transform="translate(107.078125 0)"/>
     <use xlink:href="#DejaVuSans-51" transform="translate(168.359375 0)"/>
     <use xlink:href="#DejaVuSans-3" transform="translate(231.734375 0)"/>
     <use xlink:href="#DejaVuSans-15" transform="translate(263.515625 0)"/>
    </g>
   </g>
   <g id="text_11">
    <!-- three scans land in three bins: -->
    <g style="fill: #4c4c4c" transform="translate(55.747883 227.999062) scale(0.083 -0.083)">
     <defs>
      <path id="DejaVuSans-4f" d="M 603 4863 
L 1178 4863 
L 1178 0 
L 603 0 
L 603 4863 
z
" transform="scale(0.015625)"/>
      <path id="DejaVuSans-1d" d="M 750 794 
L 1409 794 
L 1409 0 
L 750 0 
L 750 794 
z
M 750 3309 
L 1409 3309 
L 1409 2516 
L 750 2516 
L 750 3309 
z
" transform="scale(0.015625)"/>
     </defs>
     <use xlink:href="#DejaVuSans-57"/>
     <use xlink:href="#DejaVuSans-4b" transform="translate(39.203125 0)"/>
     <use xlink:href="#DejaVuSans-55" transform="translate(102.578125 0)"/>
     <use xlink:href="#DejaVuSans-48" transform="translate(141.484375 0)"/>
     <use xlink:href="#DejaVuSans-48" transform="translate(203.015625 0)"/>
     <use xlink:href="#DejaVuSans-3" transform="translate(264.546875 0)"/>
     <use xlink:href="#DejaVuSans-56" transform="translate(296.328125 0)"/>
     <use xlink:href="#DejaVuSans-46" transform="translate(348.421875 0)"/>
     <use xlink:href="#DejaVuSans-44" transform="translate(403.40625 0)"/>
     <use xlink:href="#DejaVuSans-51" transform="translate(464.6875 0)"/>
     <use xlink:href="#DejaVuSans-56" transform="translate(528.0625 0)"/>
     <use xlink:href="#DejaVuSans-3" transform="translate(580.15625 0)"/>
     <use xlink:href="#DejaVuSans-4f" transform="translate(611.9375 0)"/>
     <use xlink:href="#DejaVuSans-44" transform="translate(639.71875 0)"/>
     <use xlink:href="#DejaVuSans-51" transform="translate(701 0)"/>
     <use xlink:href="#DejaVuSans-47" transform="translate(764.375 0)"/>
     <use xlink:href="#DejaVuSans-3" transform="translate(827.859375 0)"/>
     <use xlink:href="#DejaVuSans-4c" transform="translate(859.640625 0)"/>
     <use xlink:href="#DejaVuSans-51" transform="translate(887.421875 0)"/>
     <use xlink:href="#DejaVuSans-3" transform="translate(950.796875 0)"/>
     <use xlink:href="#DejaVuSans-57" transform="translate(982.578125 0)"/>
     <use xlink:href="#DejaVuSans-4b" transform="translate(1021.78125 0)"/>
     <use xlink:href="#DejaVuSans-55" transform="translate(1085.15625 0)"/>
     <use xlink:href="#DejaVuSans-48" transform="translate(1124.0625 0)"/>
     <use xlink:href="#DejaVuSans-48" transform="translate(1185.59375 0)"/>
     <use xlink:href="#DejaVuSans-3" transform="translate(1247.125 0)"/>
     <use xlink:href="#DejaVuSans-45" transform="translate(1278.90625 0)"/>
     <use xlink:href="#DejaVuSans-4c" transform="translate(1342.390625 0)"/>
     <use xlink:href="#DejaVuSans-51" transform="translate(1370.171875 0)"/>
     <use xlink:href="#DejaVuSans-56" transform="translate(1433.546875 0)"/>
     <use xlink:href="#DejaVuSans-1d" transform="translate(1485.640625 0)"/>
    </g>
    <!-- three columns, two thirds zeros -->
    <g style="fill: #4c4c4c" transform="translate(53.340883 237.961332) scale(0.083 -0.083)">
     <defs>
      <path id="DejaVuSans-58" d="M 544 1381 
L 544 3500 
L 1119 3500 
L 1119 1403 
Q 1119 906 1312 657 
Q 1506 409 1894 409 
Q 2359 409 2629 706 
Q 2900 1003 2900 1516 
L 2900 3500 
L 3475 3500 
L 3475 0 
L 2900 0 
L 2900 538 
Q 2691 219 2414 64 
Q 2138 -91 1772 -91 
Q 1169 -91 856 284 
Q 544 659 544 1381 
z
M 1991 3584 
L 1991 3584 
z
" transform="scale(0.015625)"/>
      <path id="DejaVuSans-5a" d="M 269 3500 
L 844 3500 
L 1563 769 
L 2278 3500 
L 2956 3500 
L 3675 769 
L 4391 3500 
L 4966 3500 
L 4050 0 
L 3372 0 
L 2619 2869 
L 1863 0 
L 1184 0 
L 269 3500 
z
" transform="scale(0.015625)"/>
     </defs>
     <use xlink:href="#DejaVuSans-57"/>
     <use xlink:href="#DejaVuSans-4b" transform="translate(39.203125 0)"/>
     <use xlink:href="#DejaVuSans-55" transform="translate(102.578125 0)"/>
     <use xlink:href="#DejaVuSans-48" transform="translate(141.484375 0)"/>
     <use xlink:href="#DejaVuSans-48" transform="translate(203.015625 0)"/>
     <use xlink:href="#DejaVuSans-3" transform="translate(264.546875 0)"/>
     <use xlink:href="#DejaVuSans-46" transform="translate(296.328125 0)"/>
     <use xlink:href="#DejaVuSans-52" transform="translate(351.3125 0)"/>
     <use xlink:href="#DejaVuSans-4f" transform="translate(412.5 0)"/>
     <use xlink:href="#DejaVuSans-58" transform="translate(440.28125 0)"/>
     <use xlink:href="#DejaVuSans-50" transform="translate(503.65625 0)"/>
     <use xlink:href="#DejaVuSans-51" transform="translate(601.0625 0)"/>
     <use xlink:href="#DejaVuSans-56" transform="translate(664.4375 0)"/>
     <use xlink:href="#DejaVuSans-f" transform="translate(716.53125 0)"/>
     <use xlink:href="#DejaVuSans-3" transform="translate(748.3125 0)"/>
     <use xlink:href="#DejaVuSans-57" transform="translate(780.09375 0)"/>
     <use xlink:href="#DejaVuSans-5a" transform="translate(819.296875 0)"/>
     <use xlink:href="#DejaVuSans-52" transform="translate(901.078125 0)"/>
     <use xlink:href="#DejaVuSans-3" transform="translate(962.265625 0)"/>
     <use xlink:href="#DejaVuSans-57" transform="translate(994.046875 0)"/>
     <use xlink:href="#DejaVuSans-4b" transform="translate(1033.25 0)"/>
     <use xlink:href="#DejaVuSans-4c" transform="translate(1096.625 0)"/>
     <use xlink:href="#DejaVuSans-55" transform="translate(1124.40625 0)"/>
     <use xlink:href="#DejaVuSans-47" transform="translate(1163.765625 0)"/>
     <use xlink:href="#DejaVuSans-56" transform="translate(1227.25 0)"/>
     <use xlink:href="#DejaVuSans-3" transform="translate(1279.34375 0)"/>
     <use xlink:href="#DejaVuSans-5d" transform="translate(1311.125 0)"/>
     <use xlink:href="#DejaVuSans-48" transform="translate(1363.609375 0)"/>
     <use xlink:href="#DejaVuSans-55" transform="translate(1425.140625 0)"/>
     <use xlink:href="#DejaVuSans-52" transform="translate(1464.046875 0)"/>
     <use xlink:href="#DejaVuSans-56" transform="translate(1525.234375 0)"/>
    </g>
   </g>
   <g id="text_12">
    <!-- (a) bin narrower than the drift -->
    <g transform="translate(43.911719 14.798437) scale(0.1 -0.1)">
     <defs>
      <path id="DejaVuSans-b" d="M 1984 4856 
Q 1566 4138 1362 3434 
Q 1159 2731 1159 2009 
Q 1159 1288 1364 580 
Q 1569 -128 1984 -844 
L 1484 -844 
Q 1016 -109 783 600 
Q 550 1309 550 2009 
Q 550 2706 781 3412 
Q 1013 4119 1484 4856 
L 1984 4856 
z
" transform="scale(0.015625)"/>
      <path id="DejaVuSans-c" d="M 513 4856 
L 1013 4856 
Q 1481 4119 1714 3412 
Q 1947 2706 1947 2009 
Q 1947 1309 1714 600 
Q 1481 -109 1013 -844 
L 513 -844 
Q 928 -128 1133 580 
Q 1338 1288 1338 2009 
Q 1338 2731 1133 3434 
Q 928 4138 513 4856 
z
" transform="scale(0.015625)"/>
     </defs>
     <use xlink:href="#DejaVuSans-b"/>
     <use xlink:href="#DejaVuSans-44" transform="translate(39.015625 0)"/>
     <use xlink:href="#DejaVuSans-c" transform="translate(100.296875 0)"/>
     <use xlink:href="#DejaVuSans-3" transform="translate(139.3125 0)"/>
     <use xlink:href="#DejaVuSans-45" transform="translate(171.09375 0)"/>
     <use xlink:href="#DejaVuSans-4c" transform="translate(234.578125 0)"/>
     <use xlink:href="#DejaVuSans-51" transform="translate(262.359375 0)"/>
     <use xlink:href="#DejaVuSans-3" transform="translate(325.734375 0)"/>
     <use xlink:href="#DejaVuSans-51" transform="translate(357.515625 0)"/>
     <use xlink:href="#DejaVuSans-44" transform="translate(420.890625 0)"/>
     <use xlink:href="#DejaVuSans-55" transform="translate(482.171875 0)"/>
     <use xlink:href="#DejaVuSans-55" transform="translate(521.53125 0)"/>
     <use xlink:href="#DejaVuSans-52" transform="translate(560.4375 0)"/>
     <use xlink:href="#DejaVuSans-5a" transform="translate(621.625 0)"/>
     <use xlink:href="#DejaVuSans-48" transform="translate(703.40625 0)"/>
     <use xlink:href="#DejaVuSans-55" transform="translate(764.9375 0)"/>
     <use xlink:href="#DejaVuSans-3" transform="translate(806.046875 0)"/>
     <use xlink:href="#DejaVuSans-57" transform="translate(837.828125 0)"/>
     <use xlink:href="#DejaVuSans-4b" transform="translate(877.03125 0)"/>
     <use xlink:href="#DejaVuSans-44" transform="translate(940.40625 0)"/>
     <use xlink:href="#DejaVuSans-51" transform="translate(1001.6875 0)"/>
     <use xlink:href="#DejaVuSans-3" transform="translate(1065.0625 0)"/>
     <use xlink:href="#DejaVuSans-57" transform="translate(1096.84375 0)"/>
     <use xlink:href="#DejaVuSans-4b" transform="translate(1136.046875 0)"/>
     <use xlink:href="#DejaVuSans-48" transform="translate(1199.421875 0)"/>
     <use xlink:href="#DejaVuSans-3" transform="translate(1260.953125 0)"/>
     <use xlink:href="#DejaVuSans-47" transform="translate(1292.734375 0)"/>
     <use xlink:href="#DejaVuSans-55" transform="translate(1356.21875 0)"/>
     <use xlink:href="#DejaVuSans-4c" transform="translate(1397.328125 0)"/>
     <use xlink:href="#DejaVuSans-49" transform="translate(1425.109375 0)"/>
     <use xlink:href="#DejaVuSans-57" transform="translate(1458.5625 0)"/>
    </g>
   </g>
   <g id="PathCollection_1">
    <defs>
     <path id="m8a5359ef94" d="M 0 2.738613 
C 0.726289 2.738613 1.422928 2.450055 1.936492 1.936492 
C 2.450055 1.422928 2.738613 0.726289 2.738613 0 
C 2.738613 -0.726289 2.450055 -1.422928 1.936492 -1.936492 
C 1.422928 -2.450055 0.726289 -2.738613 0 -2.738613 
C -0.726289 -2.738613 -1.422928 -2.450055 -1.936492 -1.936492 
C -2.450055 -1.422928 -2.738613 -0.726289 -2.738613 0 
C -2.738613 0.726289 -2.450055 1.422928 -1.936492 1.936492 
C -1.422928 2.450055 -0.726289 2.738613 0 2.738613 
z
" style="stroke: #1f77b4"/>
    </defs>
    <g clip-path="url(#pbed8eb93b7)">
     <use xlink:href="#m8a5359ef94" x="95.305263" y="59.798082" style="fill: #1f77b4; stroke: #1f77b4"/>
    </g>
   </g>
   <g id="PathCollection_2">
    <defs>
     <path id="m81bc5a765e" d="M 0 2.738613 
C 0.726289 2.738613 1.422928 2.450055 1.936492 1.936492 
C 2.450055 1.422928 2.738613 0.726289 2.738613 0 
C 2.738613 -0.726289 2.450055 -1.422928 1.936492 -1.936492 
C 1.422928 -2.450055 0.726289 -2.738613 0 -2.738613 
C -0.726289 -2.738613 -1.422928 -2.450055 -1.936492 -1.936492 
C -2.450055 -1.422928 -2.738613 -0.726289 -2.738613 0 
C -2.738613 0.726289 -2.450055 1.422928 -1.936492 1.936492 
C -1.422928 2.450055 -0.726289 2.738613 0 2.738613 
z
" style="stroke: #2ca02c"/>
    </defs>
    <g clip-path="url(#pbed8eb93b7)">
     <use xlink:href="#m81bc5a765e" x="118.8" y="59.798082" style="fill: #2ca02c; stroke: #2ca02c"/>
    </g>
   </g>
   <g id="PathCollection_3">
    <defs>
     <path id="m8b3020e9e7" d="M 0 2.738613 
C 0.726289 2.738613 1.422928 2.450055 1.936492 1.936492 
C 2.450055 1.422928 2.738613 0.726289 2.738613 0 
C 2.738613 -0.726289 2.450055 -1.422928 1.936492 -1.936492 
C 1.422928 -2.450055 0.726289 -2.738613 0 -2.738613 
C -0.726289 -2.738613 -1.422928 -2.450055 -1.936492 -1.936492 
C -2.450055 -1.422928 -2.738613 -0.726289 -2.738613 0 
C -2.738613 0.726289 -2.450055 1.422928 -1.936492 1.936492 
C -1.422928 2.450055 -0.726289 2.738613 0 2.738613 
z
" style="stroke: #e08a00"/>
    </defs>
    <g clip-path="url(#pbed8eb93b7)">
     <use xlink:href="#m8b3020e9e7" x="142.294737" y="59.798082" style="fill: #e08a00; stroke: #e08a00"/>
    </g>
   </g>
  </g>
  <g id="axes_2">
   <g id="patch_15">
    <path d="M 327.903158 99.304215 
L 445.376842 99.304215 
L 445.376842 48.655326 
L 327.903158 48.655326 
z
" clip-path="url(#pb9f36115d9)" style="fill: #f2f2f2; stroke: #cccccc; stroke-width: 0.8; stroke-linejoin: miter"/>
   </g>
   <g id="patch_16">
    <path d="M 327.903158 127.161104 
L 445.376842 127.161104 
L 445.376842 101.83666 
L 327.903158 101.83666 
z
" clip-path="url(#pb9f36115d9)" style="fill: #1f77b4; opacity: 0.45; stroke: #808080; stroke-linejoin: miter"/>
   </g>
   <g id="patch_17">
    <path d="M 327.903158 157.550437 
L 445.376842 157.550437 
L 445.376842 132.225993 
L 327.903158 132.225993 
z
" clip-path="url(#pb9f36115d9)" style="fill: #2ca02c; opacity: 0.45; stroke: #808080; stroke-linejoin: miter"/>
   </g>
   <g id="patch_18">
    <path d="M 327.903158 187.939771 
L 445.376842 187.939771 
L 445.376842 162.615326 
L 327.903158 162.615326 
z
" clip-path="url(#pb9f36115d9)" style="fill: #e08a00; opacity: 0.45; stroke: #808080; stroke-linejoin: miter"/>
   </g>
   <g id="LineCollection_4">
    <path d="M 363.145263 99.304215 
L 363.145263 59.798082 
" clip-path="url(#pb9f36115d9)" style="fill: none; stroke: #1f77b4; stroke-width: 2.2"/>
   </g>
   <g id="LineCollection_5">
    <path d="M 386.64 99.304215 
L 386.64 59.798082 
" clip-path="url(#pb9f36115d9)" style="fill: none; stroke: #2ca02c; stroke-width: 2.2"/>
   </g>
   <g id="LineCollection_6">
    <path d="M 410.134737 99.304215 
L 410.134737 59.798082 
" clip-path="url(#pb9f36115d9)" style="fill: none; stroke: #e08a00; stroke-width: 2.2"/>
   </g>
   <g id="patch_19">
    <path d="M 407.0177 40.551504 
Q 386.641416 40.551504 366.265131 40.551504 
" style="fill: none; stroke: #737373; stroke-linecap: round"/>
    <path d="M 403.0177 38.551504 
L 407.0177 40.551504 
L 403.0177 42.551504 
" style="fill: none; stroke: #737373; stroke-linecap: round"/>
    <path d="M 370.265131 42.551504 
L 366.265131 40.551504 
L 370.265131 38.551504 
" style="fill: none; stroke: #737373; stroke-linecap: round"/>
   </g>
   <g id="text_13">
    <!-- the same m/z, recorded by -->
    <g style="fill: #737373" transform="translate(336.163242 25.95803) scale(0.075 -0.075)">
     <use xlink:href="#DejaVuSans-57"/>
     <use xlink:href="#DejaVuSans-4b" transform="translate(39.203125 0)"/>
     <use xlink:href="#DejaVuSans-48" transform="translate(102.578125 0)"/>
     <use xlink:href="#DejaVuSans-3" transform="translate(164.109375 0)"/>
     <use xlink:href="#DejaVuSans-56" transform="translate(195.890625 0)"/>
     <use xlink:href="#DejaVuSans-44" transform="translate(247.984375 0)"/>
     <use xlink:href="#DejaVuSans-50" transform="translate(309.265625 0)"/>
     <use xlink:href="#DejaVuSans-48" transform="translate(406.671875 0)"/>
     <use xlink:href="#DejaVuSans-3" transform="translate(468.203125 0)"/>
     <use xlink:href="#DejaVuSans-50" transform="translate(499.984375 0)"/>
     <use xlink:href="#DejaVuSans-12" transform="translate(597.390625 0)"/>
     <use xlink:href="#DejaVuSans-5d" transform="translate(631.078125 0)"/>
     <use xlink:href="#DejaVuSans-f" transform="translate(683.5625 0)"/>
     <use xlink:href="#DejaVuSans-3" transform="translate(715.34375 0)"/>
     <use xlink:href="#DejaVuSans-55" transform="translate(747.125 0)"/>
     <use xlink:href="#DejaVuSans-48" transform="translate(786.03125 0)"/>
     <use xlink:href="#DejaVuSans-46" transform="translate(847.5625 0)"/>
     <use xlink:href="#DejaVuSans-52" transform="translate(902.546875 0)"/>
     <use xlink:href="#DejaVuSans-55" transform="translate(963.734375 0)"/>
     <use xlink:href="#DejaVuSans-47" transform="translate(1003.09375 0)"/>
     <use xlink:href="#DejaVuSans-48" transform="translate(1066.578125 0)"/>
     <use xlink:href="#DejaVuSans-47" transform="translate(1128.109375 0)"/>
     <use xlink:href="#DejaVuSans-3" transform="translate(1191.59375 0)"/>
     <use xlink:href="#DejaVuSans-45" transform="translate(1223.375 0)"/>
     <use xlink:href="#DejaVuSans-5c" transform="translate(1286.859375 0)"/>
    </g>
    <!-- three drifting scans -->
    <g style="fill: #737373" transform="translate(350.204648 34.960081) scale(0.075 -0.075)">
     <use xlink:href="#DejaVuSans-57"/>
     <use xlink:href="#DejaVuSans-4b" transform="translate(39.203125 0)"/>
     <use xlink:href="#DejaVuSans-55" transform="translate(102.578125 0)"/>
     <use xlink:href="#DejaVuSans-48" transform="translate(141.484375 0)"/>
     <use xlink:href="#DejaVuSans-48" transform="translate(203.015625 0)"/>
     <use xlink:href="#DejaVuSans-3" transform="translate(264.546875 0)"/>
     <use xlink:href="#DejaVuSans-47" transform="translate(296.328125 0)"/>
     <use xlink:href="#DejaVuSans-55" transform="translate(359.8125 0)"/>
     <use xlink:href="#DejaVuSans-4c" transform="translate(400.921875 0)"/>
     <use xlink:href="#DejaVuSans-49" transform="translate(428.703125 0)"/>
     <use xlink:href="#DejaVuSans-57" transform="translate(462.15625 0)"/>
     <use xlink:href="#DejaVuSans-4c" transform="translate(501.359375 0)"/>
     <use xlink:href="#DejaVuSans-51" transform="translate(529.140625 0)"/>
     <use xlink:href="#DejaVuSans-4a" transform="translate(592.515625 0)"/>
     <use xlink:href="#DejaVuSans-3" transform="translate(656 0)"/>
     <use xlink:href="#DejaVuSans-56" transform="translate(687.78125 0)"/>
     <use xlink:href="#DejaVuSans-46" transform="translate(739.875 0)"/>
     <use xlink:href="#DejaVuSans-44" transform="translate(794.859375 0)"/>
     <use xlink:href="#DejaVuSans-51" transform="translate(856.140625 0)"/>
     <use xlink:href="#DejaVuSans-56" transform="translate(919.515625 0)"/>
    </g>
   </g>
   <g id="text_14">
    <!-- scan 0 -->
    <g style="fill: #1f77b4" transform="translate(293.969716 116.447124) scale(0.075 -0.075)">
     <use xlink:href="#DejaVuSans-56"/>
     <use xlink:href="#DejaVuSans-46" transform="translate(52.09375 0)"/>
     <use xlink:href="#DejaVuSans-44" transform="translate(107.078125 0)"/>
     <use xlink:href="#DejaVuSans-51" transform="translate(168.359375 0)"/>
     <use xlink:href="#DejaVuSans-3" transform="translate(231.734375 0)"/>
     <use xlink:href="#DejaVuSans-13" transform="translate(263.515625 0)"/>
    </g>
   </g>
   <g id="text_15">
    <!-- scan 1 -->
    <g style="fill: #2ca02c" transform="translate(293.969716 146.836457) scale(0.075 -0.075)">
     <use xlink:href="#DejaVuSans-56"/>
     <use xlink:href="#DejaVuSans-46" transform="translate(52.09375 0)"/>
     <use xlink:href="#DejaVuSans-44" transform="translate(107.078125 0)"/>
     <use xlink:href="#DejaVuSans-51" transform="translate(168.359375 0)"/>
     <use xlink:href="#DejaVuSans-3" transform="translate(231.734375 0)"/>
     <use xlink:href="#DejaVuSans-14" transform="translate(263.515625 0)"/>
    </g>
   </g>
   <g id="text_16">
    <!-- scan 2 -->
    <g style="fill: #e08a00" transform="translate(293.969716 177.225791) scale(0.075 -0.075)">
     <use xlink:href="#DejaVuSans-56"/>
     <use xlink:href="#DejaVuSans-46" transform="translate(52.09375 0)"/>
     <use xlink:href="#DejaVuSans-44" transform="translate(107.078125 0)"/>
     <use xlink:href="#DejaVuSans-51" transform="translate(168.359375 0)"/>
     <use xlink:href="#DejaVuSans-3" transform="translate(231.734375 0)"/>
     <use xlink:href="#DejaVuSans-15" transform="translate(263.515625 0)"/>
    </g>
   </g>
   <g id="text_17">
    <!-- three scans land in one bin: -->
    <g style="fill: #4c4c4c" transform="translate(329.005578 227.999062) scale(0.083 -0.083)">
     <use xlink:href="#DejaVuSans-57"/>
     <use xlink:href="#DejaVuSans-4b" transform="translate(39.203125 0)"/>
     <use xlink:href="#DejaVuSans-55" transform="translate(102.578125 0)"/>
     <use xlink:href="#DejaVuSans-48" transform="translate(141.484375 0)"/>
     <use xlink:href="#DejaVuSans-48" transform="translate(203.015625 0)"/>
     <use xlink:href="#DejaVuSans-3" transform="translate(264.546875 0)"/>
     <use xlink:href="#DejaVuSans-56" transform="translate(296.328125 0)"/>
     <use xlink:href="#DejaVuSans-46" transform="translate(348.421875 0)"/>
     <use xlink:href="#DejaVuSans-44" transform="translate(403.40625 0)"/>
     <use xlink:href="#DejaVuSans-51" transform="translate(464.6875 0)"/>
     <use xlink:href="#DejaVuSans-56" transform="translate(528.0625 0)"/>
     <use xlink:href="#DejaVuSans-3" transform="translate(580.15625 0)"/>
     <use xlink:href="#DejaVuSans-4f" transform="translate(611.9375 0)"/>
     <use xlink:href="#DejaVuSans-44" transform="translate(639.71875 0)"/>
     <use xlink:href="#DejaVuSans-51" transform="translate(701 0)"/>
     <use xlink:href="#DejaVuSans-47" transform="translate(764.375 0)"/>
     <use xlink:href="#DejaVuSans-3" transform="translate(827.859375 0)"/>
     <use xlink:href="#DejaVuSans-4c" transform="translate(859.640625 0)"/>
     <use xlink:href="#DejaVuSans-51" transform="translate(887.421875 0)"/>
     <use xlink:href="#DejaVuSans-3" transform="translate(950.796875 0)"/>
     <use xlink:href="#DejaVuSans-52" transform="translate(982.578125 0)"/>
     <use xlink:href="#DejaVuSans-51" transform="translate(1043.765625 0)"/>
     <use xlink:href="#DejaVuSans-48" transform="translate(1107.140625 0)"/>
     <use xlink:href="#DejaVuSans-3" transform="translate(1168.671875 0)"/>
     <use xlink:href="#DejaVuSans-45" transform="translate(1200.453125 0)"/>
     <use xlink:href="#DejaVuSans-4c" transform="translate(1263.9375 0)"/>
     <use xlink:href="#DejaVuSans-51" transform="translate(1291.71875 0)"/>
     <use xlink:href="#DejaVuSans-1d" transform="translate(1355.09375 0)"/>
    </g>
    <!-- one column, no zeros -->
    <g style="fill: #4c4c4c" transform="translate(342.148109 237.961332) scale(0.083 -0.083)">
     <use xlink:href="#DejaVuSans-52"/>
     <use xlink:href="#DejaVuSans-51" transform="translate(61.1875 0)"/>
     <use xlink:href="#DejaVuSans-48" transform="translate(124.5625 0)"/>
     <use xlink:href="#DejaVuSans-3" transform="translate(186.09375 0)"/>
     <use xlink:href="#DejaVuSans-46" transform="translate(217.875 0)"/>
     <use xlink:href="#DejaVuSans-52" transform="translate(272.859375 0)"/>
     <use xlink:href="#DejaVuSans-4f" transform="translate(334.046875 0)"/>
     <use xlink:href="#DejaVuSans-58" transform="translate(361.828125 0)"/>
     <use xlink:href="#DejaVuSans-50" transform="translate(425.203125 0)"/>
     <use xlink:href="#DejaVuSans-51" transform="translate(522.609375 0)"/>
     <use xlink:href="#DejaVuSans-f" transform="translate(585.984375 0)"/>
     <use xlink:href="#DejaVuSans-3" transform="translate(617.765625 0)"/>
     <use xlink:href="#DejaVuSans-51" transform="translate(649.546875 0)"/>
     <use xlink:href="#DejaVuSans-52" transform="translate(712.921875 0)"/>
     <use xlink:href="#DejaVuSans-3" transform="translate(774.109375 0)"/>
     <use xlink:href="#DejaVuSans-5d" transform="translate(805.890625 0)"/>
     <use xlink:href="#DejaVuSans-48" transform="translate(858.375 0)"/>
     <use xlink:href="#DejaVuSans-55" transform="translate(919.90625 0)"/>
     <use xlink:href="#DejaVuSans-52" transform="translate(958.8125 0)"/>
     <use xlink:href="#DejaVuSans-56" transform="translate(1020 0)"/>
    </g>
   </g>
   <g id="text_18">
    <!-- (b) bin wider than the drift -->
    <g transform="translate(320.28375 14.798437) scale(0.1 -0.1)">
     <use xlink:href="#DejaVuSans-b"/>
     <use xlink:href="#DejaVuSans-45" transform="translate(39.015625 0)"/>
     <use xlink:href="#DejaVuSans-c" transform="translate(102.5 0)"/>
     <use xlink:href="#DejaVuSans-3" transform="translate(141.515625 0)"/>
     <use xlink:href="#DejaVuSans-45" transform="translate(173.296875 0)"/>
     <use xlink:href="#DejaVuSans-4c" transform="translate(236.78125 0)"/>
     <use xlink:href="#DejaVuSans-51" transform="translate(264.5625 0)"/>
     <use xlink:href="#DejaVuSans-3" transform="translate(327.9375 0)"/>
     <use xlink:href="#DejaVuSans-5a" transform="translate(359.71875 0)"/>
     <use xlink:href="#DejaVuSans-4c" transform="translate(441.5 0)"/>
     <use xlink:href="#DejaVuSans-47" transform="translate(469.28125 0)"/>
     <use xlink:href="#DejaVuSans-48" transform="translate(532.765625 0)"/>
     <use xlink:href="#DejaVuSans-55" transform="translate(594.296875 0)"/>
     <use xlink:href="#DejaVuSans-3" transform="translate(635.40625 0)"/>
     <use xlink:href="#DejaVuSans-57" transform="translate(667.1875 0)"/>
     <use xlink:href="#DejaVuSans-4b" transform="translate(706.390625 0)"/>
     <use xlink:href="#DejaVuSans-44" transform="translate(769.765625 0)"/>
     <use xlink:href="#DejaVuSans-51" transform="translate(831.046875 0)"/>
     <use xlink:href="#DejaVuSans-3" transform="translate(894.421875 0)"/>
     <use xlink:href="#DejaVuSans-57" transform="translate(926.203125 0)"/>
     <use xlink:href="#DejaVuSans-4b" transform="translate(965.40625 0)"/>
     <use xlink:href="#DejaVuSans-48" transform="translate(1028.78125 0)"/>
     <use xlink:href="#DejaVuSans-3" transform="translate(1090.3125 0)"/>
     <use xlink:href="#DejaVuSans-47" transform="translate(1122.09375 0)"/>
     <use xlink:href="#DejaVuSans-55" transform="translate(1185.578125 0)"/>
     <use xlink:href="#DejaVuSans-4c" transform="translate(1226.6875 0)"/>
     <use xlink:href="#DejaVuSans-49" transform="translate(1254.46875 0)"/>
     <use xlink:href="#DejaVuSans-57" transform="translate(1287.921875 0)"/>
    </g>
   </g>
   <g id="PathCollection_4">
    <g clip-path="url(#pb9f36115d9)">
     <use xlink:href="#m8a5359ef94" x="363.145263" y="59.798082" style="fill: #1f77b4; stroke: #1f77b4"/>
    </g>
   </g>
   <g id="PathCollection_5">
    <g clip-path="url(#pb9f36115d9)">
     <use xlink:href="#m81bc5a765e" x="386.64" y="59.798082" style="fill: #2ca02c; stroke: #2ca02c"/>
    </g>
   </g>
   <g id="PathCollection_6">
    <g clip-path="url(#pb9f36115d9)">
     <use xlink:href="#m8b3020e9e7" x="410.134737" y="59.798082" style="fill: #e08a00; stroke: #e08a00"/>
    </g>
   </g>
  </g>
 </g>
 <defs>
  <clipPath id="pbed8eb93b7">
   <rect x="7.2" y="20.798437" width="223.2" height="205.128"/>
  </clipPath>
  <clipPath id="pb9f36115d9">
   <rect x="275.04" y="20.798437" width="223.2" height="205.128"/>
  </clipPath>
 </defs>
</svg>
