<?xml version="1.0" encoding="utf-8" standalone="no"?>
<!DOCTYPE svg PUBLIC "-//W3C//DTD SVG 1.1//EN"
  "http://www.w3.org/Graphics/SVG/1.1/DTD/svg11.dtd">
<svg xmlns:xlink="http://www.w3.org/1999/xlink" width="530.18917pt" height="301.762238pt" viewBox="0 0 530.18917 301.762238" xmlns="http://www.w3.org/2000/svg" version="1.1">
 <metadata>
  <rdf:RDF xmlns:dc="http://purl.org/dc/elements/1.1/" xmlns:cc="http://creativecommons.org/ns#" xmlns:rdf="http://www.w3.org/1999/02/22-rdf-syntax-ns#">
   <cc:Work>
    <dc:type rdf:resource="http://purl.org/dc/dcmitype/StillImage"/>
    <dc:date>2026-06-24T13:43:55.367349</dc:date>
    <dc:format>image/svg+xml</dc:format>
    <dc:creator>
     <cc:Agent>
      <dc:title>Matplotlib v3.11.0, https://matplotlib.org/</dc:title>
     </cc:Agent>
    </dc:creator>
   </cc:Work>
  </rdf:RDF>
 </metadata>
 <defs>
  <style type="text/css">*{stroke-linejoin: round; stroke-linecap: butt}</style>
 </defs>
 <g id="figure_1">
  <g id="patch_1">
   <path d="M 0 301.762238 
L 530.18917 301.762238 
L 530.18917 0 
L 0 0 
z
" style="fill: #ffffff"/>
  </g>
  <g id="axes_1">
   <g id="patch_2">
    <path d="M 78.768564 56.562602 
L 96.053413 56.562602 
L 96.053413 39.277753 
L 78.768564 39.277753 
z
" clip-path="url(#pb7c5c1c602)" style="fill: #1f77b4; opacity: 0.4; stroke: #999999; stroke-linejoin: miter"/>
   </g>
   <g id="patch_3">
    <path d="M 96.053413 56.562602 
L 113.338261 56.562602 
L 113.338261 39.277753 
L 96.053413 39.277753 
L 96.053413 56.562602 
z
" clip-path="url(#pb7c5c1c602)" style="fill: none; stroke: #999999; stroke-linejoin: miter"/>
   </g>
   <g id="patch_4">
    <path d="M 113.338261 56.562602 
L 130.62311 56.562602 
L 130.62311 39.277753 
L 113.338261 39.277753 
L 113.338261 56.562602 
z
" clip-path="url(#pb7c5c1c602)" style="fill: none; stroke: #999999; stroke-linejoin: miter"/>
   </g>
   <g id="patch_5">
    <path d="M 78.768564 73.84745 
L 96.053413 73.84745 
L 96.053413 56.562602 
L 78.768564 56.562602 
L 78.768564 73.84745 
z
" clip-path="url(#pb7c5c1c602)" style="fill: none; stroke: #999999; stroke-linejoin: miter"/>
   </g>
   <g id="patch_6">
    <path d="M 96.053413 73.84745 
L 113.338261 73.84745 
L 113.338261 56.562602 
L 96.053413 56.562602 
z
" clip-path="url(#pb7c5c1c602)" style="fill: #1f77b4; opacity: 0.4; stroke: #999999; stroke-linejoin: miter"/>
   </g>
   <g id="patch_7">
    <path d="M 113.338261 73.84745 
L 130.62311 73.84745 
L 130.62311 56.562602 
L 113.338261 56.562602 
L 113.338261 73.84745 
z
" clip-path="url(#pb7c5c1c602)" style="fill: none; stroke: #999999; stroke-linejoin: miter"/>
   </g>
   <g id="patch_8">
    <path d="M 78.768564 91.132299 
L 96.053413 91.132299 
L 96.053413 73.84745 
L 78.768564 73.84745 
L 78.768564 91.132299 
z
" clip-path="url(#pb7c5c1c602)" style="fill: none; stroke: #999999; stroke-linejoin: miter"/>
   </g>
   <g id="patch_9">
    <path d="M 96.053413 91.132299 
L 113.338261 91.132299 
L 113.338261 73.84745 
L 96.053413 73.84745 
L 96.053413 91.132299 
z
" clip-path="url(#pb7c5c1c602)" style="fill: none; stroke: #999999; stroke-linejoin: miter"/>
   </g>
   <g id="patch_10">
    <path d="M 113.338261 91.132299 
L 130.62311 91.132299 
L 130.62311 73.84745 
L 113.338261 73.84745 
z
" clip-path="url(#pb7c5c1c602)" style="fill: #1f77b4; opacity: 0.4; stroke: #999999; stroke-linejoin: miter"/>
   </g>
   <g id="patch_11">
    <path d="M 147.907958 56.562602 
L 165.192807 56.562602 
L 165.192807 39.277753 
L 147.907958 39.277753 
z
" clip-path="url(#pb7c5c1c602)" style="fill: #1f77b4; opacity: 0.4; stroke: #999999; stroke-linejoin: miter"/>
   </g>
   <g id="patch_12">
    <path d="M 165.192807 56.562602 
L 182.477655 56.562602 
L 182.477655 39.277753 
L 165.192807 39.277753 
L 165.192807 56.562602 
z
" clip-path="url(#pb7c5c1c602)" style="fill: none; stroke: #999999; stroke-linejoin: miter"/>
   </g>
   <g id="patch_13">
    <path d="M 182.477655 56.562602 
L 199.762504 56.562602 
L 199.762504 39.277753 
L 182.477655 39.277753 
L 182.477655 56.562602 
z
" clip-path="url(#pb7c5c1c602)" style="fill: none; stroke: #999999; stroke-linejoin: miter"/>
   </g>
   <g id="patch_14">
    <path d="M 147.907958 73.84745 
L 165.192807 73.84745 
L 165.192807 56.562602 
L 147.907958 56.562602 
L 147.907958 73.84745 
z
" clip-path="url(#pb7c5c1c602)" style="fill: none; stroke: #999999; stroke-linejoin: miter"/>
   </g>
   <g id="patch_15">
    <path d="M 165.192807 73.84745 
L 182.477655 73.84745 
L 182.477655 56.562602 
L 165.192807 56.562602 
z
" clip-path="url(#pb7c5c1c602)" style="fill: #1f77b4; opacity: 0.4; stroke: #999999; stroke-linejoin: miter"/>
   </g>
   <g id="patch_16">
    <path d="M 182.477655 73.84745 
L 199.762504 73.84745 
L 199.762504 56.562602 
L 182.477655 56.562602 
L 182.477655 73.84745 
z
" clip-path="url(#pb7c5c1c602)" style="fill: none; stroke: #999999; stroke-linejoin: miter"/>
   </g>
   <g id="patch_17">
    <path d="M 147.907958 91.132299 
L 165.192807 91.132299 
L 165.192807 73.84745 
L 147.907958 73.84745 
L 147.907958 91.132299 
z
" clip-path="url(#pb7c5c1c602)" style="fill: none; stroke: #999999; stroke-linejoin: miter"/>
   </g>
   <g id="patch_18">
    <path d="M 165.192807 91.132299 
L 182.477655 91.132299 
L 182.477655 73.84745 
L 165.192807 73.84745 
L 165.192807 91.132299 
z
" clip-path="url(#pb7c5c1c602)" style="fill: none; stroke: #999999; stroke-linejoin: miter"/>
   </g>
   <g id="patch_19">
    <path d="M 182.477655 91.132299 
L 199.762504 91.132299 
L 199.762504 73.84745 
L 182.477655 73.84745 
z
" clip-path="url(#pb7c5c1c602)" style="fill: #1f77b4; opacity: 0.4; stroke: #999999; stroke-linejoin: miter"/>
   </g>
   <g id="patch_20">
    <path d="M 217.047352 56.562602 
L 234.332201 56.562602 
L 234.332201 39.277753 
L 217.047352 39.277753 
z
" clip-path="url(#pb7c5c1c602)" style="fill: #1f77b4; opacity: 0.4; stroke: #999999; stroke-linejoin: miter"/>
   </g>
   <g id="patch_21">
    <path d="M 234.332201 56.562602 
L 251.617049 56.562602 
L 251.617049 39.277753 
L 234.332201 39.277753 
L 234.332201 56.562602 
z
" clip-path="url(#pb7c5c1c602)" style="fill: none; stroke: #999999; stroke-linejoin: miter"/>
   </g>
   <g id="patch_22">
    <path d="M 251.617049 56.562602 
L 268.901897 56.562602 
L 268.901897 39.277753 
L 251.617049 39.277753 
L 251.617049 56.562602 
z
" clip-path="url(#pb7c5c1c602)" style="fill: none; stroke: #999999; stroke-linejoin: miter"/>
   </g>
   <g id="patch_23">
    <path d="M 217.047352 73.84745 
L 234.332201 73.84745 
L 234.332201 56.562602 
L 217.047352 56.562602 
L 217.047352 73.84745 
z
" clip-path="url(#pb7c5c1c602)" style="fill: none; stroke: #999999; stroke-linejoin: miter"/>
   </g>
   <g id="patch_24">
    <path d="M 234.332201 73.84745 
L 251.617049 73.84745 
L 251.617049 56.562602 
L 234.332201 56.562602 
z
" clip-path="url(#pb7c5c1c602)" style="fill: #1f77b4; opacity: 0.4; stroke: #999999; stroke-linejoin: miter"/>
   </g>
   <g id="patch_25">
    <path d="M 251.617049 73.84745 
L 268.901897 73.84745 
L 268.901897 56.562602 
L 251.617049 56.562602 
L 251.617049 73.84745 
z
" clip-path="url(#pb7c5c1c602)" style="fill: none; stroke: #999999; stroke-linejoin: miter"/>
   </g>
   <g id="patch_26">
    <path d="M 217.047352 91.132299 
L 234.332201 91.132299 
L 234.332201 73.84745 
L 217.047352 73.84745 
L 217.047352 91.132299 
z
" clip-path="url(#pb7c5c1c602)" style="fill: none; stroke: #999999; stroke-linejoin: miter"/>
   </g>
   <g id="patch_27">
    <path d="M 234.332201 91.132299 
L 251.617049 91.132299 
L 251.617049 73.84745 
L 234.332201 73.84745 
L 234.332201 91.132299 
z
" clip-path="url(#pb7c5c1c602)" style="fill: none; stroke: #999999; stroke-linejoin: miter"/>
   </g>
   <g id="patch_28">
    <path d="M 251.617049 91.132299 
L 268.901897 91.132299 
L 268.901897 73.84745 
L 251.617049 73.84745 
z
" clip-path="url(#pb7c5c1c602)" style="fill: #1f77b4; opacity: 0.4; stroke: #999999; stroke-linejoin: miter"/>
   </g>
   <g id="patch_29">
    <path d="M 324.213413 56.562602 
L 341.498261 56.562602 
L 341.498261 39.277753 
L 324.213413 39.277753 
z
" clip-path="url(#pb7c5c1c602)" style="fill: #1f77b4; opacity: 0.4; stroke: #999999; stroke-linejoin: miter"/>
   </g>
   <g id="patch_30">
    <path d="M 341.498261 56.562602 
L 358.78311 56.562602 
L 358.78311 39.277753 
L 341.498261 39.277753 
L 341.498261 56.562602 
z
" clip-path="url(#pb7c5c1c602)" style="fill: none; stroke: #999999; stroke-linejoin: miter"/>
   </g>
   <g id="patch_31">
    <path d="M 358.78311 56.562602 
L 376.067958 56.562602 
L 376.067958 39.277753 
L 358.78311 39.277753 
L 358.78311 56.562602 
z
" clip-path="url(#pb7c5c1c602)" style="fill: none; stroke: #999999; stroke-linejoin: miter"/>
   </g>
   <g id="patch_32">
    <path d="M 324.213413 73.84745 
L 341.498261 73.84745 
L 341.498261 56.562602 
L 324.213413 56.562602 
L 324.213413 73.84745 
z
" clip-path="url(#pb7c5c1c602)" style="fill: none; stroke: #999999; stroke-linejoin: miter"/>
   </g>
   <g id="patch_33">
    <path d="M 341.498261 73.84745 
L 358.78311 73.84745 
L 358.78311 56.562602 
L 341.498261 56.562602 
z
" clip-path="url(#pb7c5c1c602)" style="fill: #1f77b4; opacity: 0.4; stroke: #999999; stroke-linejoin: miter"/>
   </g>
   <g id="patch_34">
    <path d="M 358.78311 73.84745 
L 376.067958 73.84745 
L 376.067958 56.562602 
L 358.78311 56.562602 
L 358.78311 73.84745 
z
" clip-path="url(#pb7c5c1c602)" style="fill: none; stroke: #999999; stroke-linejoin: miter"/>
   </g>
   <g id="patch_35">
    <path d="M 324.213413 91.132299 
L 341.498261 91.132299 
L 341.498261 73.84745 
L 324.213413 73.84745 
L 324.213413 91.132299 
z
" clip-path="url(#pb7c5c1c602)" style="fill: none; stroke: #999999; stroke-linejoin: miter"/>
   </g>
   <g id="patch_36">
    <path d="M 341.498261 91.132299 
L 358.78311 91.132299 
L 358.78311 73.84745 
L 341.498261 73.84745 
L 341.498261 91.132299 
z
" clip-path="url(#pb7c5c1c602)" style="fill: none; stroke: #999999; stroke-linejoin: miter"/>
   </g>
   <g id="patch_37">
    <path d="M 358.78311 91.132299 
L 376.067958 91.132299 
L 376.067958 73.84745 
L 358.78311 73.84745 
z
" clip-path="url(#pb7c5c1c602)" style="fill: #1f77b4; opacity: 0.4; stroke: #999999; stroke-linejoin: miter"/>
   </g>
   <g id="patch_38">
    <path d="M 393.352807 56.562602 
L 410.637655 56.562602 
L 410.637655 39.277753 
L 393.352807 39.277753 
z
" clip-path="url(#pb7c5c1c602)" style="fill: #1f77b4; opacity: 0.4; stroke: #999999; stroke-linejoin: miter"/>
   </g>
   <g id="patch_39">
    <path d="M 410.637655 56.562602 
L 427.922504 56.562602 
L 427.922504 39.277753 
L 410.637655 39.277753 
L 410.637655 56.562602 
z
" clip-path="url(#pb7c5c1c602)" style="fill: none; stroke: #999999; stroke-linejoin: miter"/>
   </g>
   <g id="patch_40">
    <path d="M 427.922504 56.562602 
L 445.207352 56.562602 
L 445.207352 39.277753 
L 427.922504 39.277753 
L 427.922504 56.562602 
z
" clip-path="url(#pb7c5c1c602)" style="fill: none; stroke: #999999; stroke-linejoin: miter"/>
   </g>
   <g id="patch_41">
    <path d="M 393.352807 73.84745 
L 410.637655 73.84745 
L 410.637655 56.562602 
L 393.352807 56.562602 
L 393.352807 73.84745 
z
" clip-path="url(#pb7c5c1c602)" style="fill: none; stroke: #999999; stroke-linejoin: miter"/>
   </g>
   <g id="patch_42">
    <path d="M 410.637655 73.84745 
L 427.922504 73.84745 
L 427.922504 56.562602 
L 410.637655 56.562602 
z
" clip-path="url(#pb7c5c1c602)" style="fill: #1f77b4; opacity: 0.4; stroke: #999999; stroke-linejoin: miter"/>
   </g>
   <g id="patch_43">
    <path d="M 427.922504 73.84745 
L 445.207352 73.84745 
L 445.207352 56.562602 
L 427.922504 56.562602 
L 427.922504 73.84745 
z
" clip-path="url(#pb7c5c1c602)" style="fill: none; stroke: #999999; stroke-linejoin: miter"/>
   </g>
   <g id="patch_44">
    <path d="M 393.352807 91.132299 
L 410.637655 91.132299 
L 410.637655 73.84745 
L 393.352807 73.84745 
L 393.352807 91.132299 
z
" clip-path="url(#pb7c5c1c602)" style="fill: none; stroke: #999999; stroke-linejoin: miter"/>
   </g>
   <g id="patch_45">
    <path d="M 410.637655 91.132299 
L 427.922504 91.132299 
L 427.922504 73.84745 
L 410.637655 73.84745 
L 410.637655 91.132299 
z
" clip-path="url(#pb7c5c1c602)" style="fill: none; stroke: #999999; stroke-linejoin: miter"/>
   </g>
   <g id="patch_46">
    <path d="M 427.922504 91.132299 
L 445.207352 91.132299 
L 445.207352 73.84745 
L 427.922504 73.84745 
z
" clip-path="url(#pb7c5c1c602)" style="fill: #1f77b4; opacity: 0.4; stroke: #999999; stroke-linejoin: miter"/>
   </g>
   <g id="patch_47">
    <path d="M 462.492201 56.562602 
L 479.777049 56.562602 
L 479.777049 39.277753 
L 462.492201 39.277753 
z
" clip-path="url(#pb7c5c1c602)" style="fill: #1f77b4; opacity: 0.4; stroke: #999999; stroke-linejoin: miter"/>
   </g>
   <g id="patch_48">
    <path d="M 479.777049 56.562602 
L 497.061897 56.562602 
L 497.061897 39.277753 
L 479.777049 39.277753 
L 479.777049 56.562602 
z
" clip-path="url(#pb7c5c1c602)" style="fill: none; stroke: #999999; stroke-linejoin: miter"/>
   </g>
   <g id="patch_49">
    <path d="M 497.061897 56.562602 
L 514.346746 56.562602 
L 514.346746 39.277753 
L 497.061897 39.277753 
L 497.061897 56.562602 
z
" clip-path="url(#pb7c5c1c602)" style="fill: none; stroke: #999999; stroke-linejoin: miter"/>
   </g>
   <g id="patch_50">
    <path d="M 462.492201 73.84745 
L 479.777049 73.84745 
L 479.777049 56.562602 
L 462.492201 56.562602 
L 462.492201 73.84745 
z
" clip-path="url(#pb7c5c1c602)" style="fill: none; stroke: #999999; stroke-linejoin: miter"/>
   </g>
   <g id="patch_51">
    <path d="M 479.777049 73.84745 
L 497.061897 73.84745 
L 497.061897 56.562602 
L 479.777049 56.562602 
z
" clip-path="url(#pb7c5c1c602)" style="fill: #1f77b4; opacity: 0.4; stroke: #999999; stroke-linejoin: miter"/>
   </g>
   <g id="patch_52">
    <path d="M 497.061897 73.84745 
L 514.346746 73.84745 
L 514.346746 56.562602 
L 497.061897 56.562602 
L 497.061897 73.84745 
z
" clip-path="url(#pb7c5c1c602)" style="fill: none; stroke: #999999; stroke-linejoin: miter"/>
   </g>
   <g id="patch_53">
    <path d="M 462.492201 91.132299 
L 479.777049 91.132299 
L 479.777049 73.84745 
L 462.492201 73.84745 
L 462.492201 91.132299 
z
" clip-path="url(#pb7c5c1c602)" style="fill: none; stroke: #999999; stroke-linejoin: miter"/>
   </g>
   <g id="patch_54">
    <path d="M 479.777049 91.132299 
L 497.061897 91.132299 
L 497.061897 73.84745 
L 479.777049 73.84745 
L 479.777049 91.132299 
z
" clip-path="url(#pb7c5c1c602)" style="fill: none; stroke: #999999; stroke-linejoin: miter"/>
   </g>
   <g id="patch_55">
    <path d="M 497.061897 91.132299 
L 514.346746 91.132299 
L 514.346746 73.84745 
L 497.061897 73.84745 
z
" clip-path="url(#pb7c5c1c602)" style="fill: #1f77b4; opacity: 0.4; stroke: #999999; stroke-linejoin: miter"/>
   </g>
   <g id="text_1">
    <!-- 0 -->
    <g style="fill: #d62728" transform="translate(101.912712 49.998303) scale(0.08 -0.08)">
     <defs>
      <path id="DejaVuSans-Bold-13" d="M 2944 2338 
Q 2944 3213 2780 3570 
Q 2616 3928 2228 3928 
Q 1841 3928 1675 3570 
Q 1509 3213 1509 2338 
Q 1509 1453 1675 1090 
Q 1841 728 2228 728 
Q 2613 728 2778 1090 
Q 2944 1453 2944 2338 
z
M 4147 2328 
Q 4147 1169 3647 539 
Q 3147 -91 2228 -91 
Q 1306 -91 806 539 
Q 306 1169 306 2328 
Q 306 3491 806 4120 
Q 1306 4750 2228 4750 
Q 3147 4750 3647 4120 
Q 4147 3491 4147 2328 
z
" transform="scale(0.015625)"/>
     </defs>
     <use xlink:href="#DejaVuSans-Bold-13"/>
    </g>
   </g>
   <g id="text_2">
    <!-- 0 -->
    <g style="fill: #d62728" transform="translate(119.19756 49.998303) scale(0.08 -0.08)">
     <use xlink:href="#DejaVuSans-Bold-13"/>
    </g>
   </g>
   <g id="text_3">
    <!-- 0 -->
    <g style="fill: #d62728" transform="translate(84.627863 67.283151) scale(0.08 -0.08)">
     <use xlink:href="#DejaVuSans-Bold-13"/>
    </g>
   </g>
   <g id="text_4">
    <!-- 0 -->
    <g style="fill: #d62728" transform="translate(119.19756 67.283151) scale(0.08 -0.08)">
     <use xlink:href="#DejaVuSans-Bold-13"/>
    </g>
   </g>
   <g id="text_5">
    <!-- 0 -->
    <g style="fill: #d62728" transform="translate(84.627863 84.568) scale(0.08 -0.08)">
     <use xlink:href="#DejaVuSans-Bold-13"/>
    </g>
   </g>
   <g id="text_6">
    <!-- 0 -->
    <g style="fill: #d62728" transform="translate(101.912712 84.568) scale(0.08 -0.08)">
     <use xlink:href="#DejaVuSans-Bold-13"/>
    </g>
   </g>
   <g id="text_7">
    <!-- // -->
    <g style="fill: #999999" transform="translate(135.896784 85.087531) scale(0.1 -0.1)">
     <defs>
      <path id="DejaVuSans-12" d="M 1625 4666 
L 2156 4666 
L 531 -594 
L 0 -594 
L 1625 4666 
z
" transform="scale(0.015625)"/>
     </defs>
     <use xlink:href="#DejaVuSans-12"/>
     <use xlink:href="#DejaVuSans-12" transform="translate(33.6875 0)"/>
    </g>
   </g>
   <g id="text_8">
    <!-- 0 -->
    <g style="fill: #d62728" transform="translate(171.052106 49.998303) scale(0.08 -0.08)">
     <use xlink:href="#DejaVuSans-Bold-13"/>
    </g>
   </g>
   <g id="text_9">
    <!-- 0 -->
    <g style="fill: #d62728" transform="translate(188.336954 49.998303) scale(0.08 -0.08)">
     <use xlink:href="#DejaVuSans-Bold-13"/>
    </g>
   </g>
   <g id="text_10">
    <!-- 0 -->
    <g style="fill: #d62728" transform="translate(153.767257 67.283151) scale(0.08 -0.08)">
     <use xlink:href="#DejaVuSans-Bold-13"/>
    </g>
   </g>
   <g id="text_11">
    <!-- 0 -->
    <g style="fill: #d62728" transform="translate(188.336954 67.283151) scale(0.08 -0.08)">
     <use xlink:href="#DejaVuSans-Bold-13"/>
    </g>
   </g>
   <g id="text_12">
    <!-- 0 -->
    <g style="fill: #d62728" transform="translate(153.767257 84.568) scale(0.08 -0.08)">
     <use xlink:href="#DejaVuSans-Bold-13"/>
    </g>
   </g>
   <g id="text_13">
    <!-- 0 -->
    <g style="fill: #d62728" transform="translate(171.052106 84.568) scale(0.08 -0.08)">
     <use xlink:href="#DejaVuSans-Bold-13"/>
    </g>
   </g>
   <g id="text_14">
    <!-- // -->
    <g style="fill: #999999" transform="translate(205.036178 85.087531) scale(0.1 -0.1)">
     <use xlink:href="#DejaVuSans-12"/>
     <use xlink:href="#DejaVuSans-12" transform="translate(33.6875 0)"/>
    </g>
   </g>
   <g id="text_15">
    <!-- 0 -->
    <g style="fill: #d62728" transform="translate(240.1915 49.998303) scale(0.08 -0.08)">
     <use xlink:href="#DejaVuSans-Bold-13"/>
    </g>
   </g>
   <g id="text_16">
    <!-- 0 -->
    <g style="fill: #d62728" transform="translate(257.476348 49.998303) scale(0.08 -0.08)">
     <use xlink:href="#DejaVuSans-Bold-13"/>
    </g>
   </g>
   <g id="text_17">
    <!-- 0 -->
    <g style="fill: #d62728" transform="translate(222.906651 67.283151) scale(0.08 -0.08)">
     <use xlink:href="#DejaVuSans-Bold-13"/>
    </g>
   </g>
   <g id="text_18">
    <!-- 0 -->
    <g style="fill: #d62728" transform="translate(257.476348 67.283151) scale(0.08 -0.08)">
     <use xlink:href="#DejaVuSans-Bold-13"/>
    </g>
   </g>
   <g id="text_19">
    <!-- 0 -->
    <g style="fill: #d62728" transform="translate(222.906651 84.568) scale(0.08 -0.08)">
     <use xlink:href="#DejaVuSans-Bold-13"/>
    </g>
   </g>
   <g id="text_20">
    <!-- 0 -->
    <g style="fill: #d62728" transform="translate(240.1915 84.568) scale(0.08 -0.08)">
     <use xlink:href="#DejaVuSans-Bold-13"/>
    </g>
   </g>
   <g id="patch_56">
    <path d="M 266.902968 34.956541 
Q 173.836206 34.956541 80.769444 34.956541 
" style="fill: none; stroke: #8c8c8c; stroke-linecap: round"/>
   </g>
   <g id="text_21">
    <!-- peak 1 -->
    <g style="fill: #595959" transform="translate(159.401832 30.321822) scale(0.085 -0.085)">
     <defs>
      <path id="DejaVuSans-53" d="M 1159 525 
L 1159 -1331 
L 581 -1331 
L 581 3500 
L 1159 3500 
L 1159 2969 
Q 1341 3281 1617 3432 
Q 1894 3584 2278 3584 
Q 2916 3584 3314 3078 
Q 3713 2572 3713 1747 
Q 3713 922 3314 415 
Q 2916 -91 2278 -91 
Q 1894 -91 1617 61 
Q 1341 213 1159 525 
z
M 3116 1747 
Q 3116 2381 2855 2742 
Q 2594 3103 2138 3103 
Q 1681 3103 1420 2742 
Q 1159 2381 1159 1747 
Q 1159 1113 1420 752 
Q 1681 391 2138 391 
Q 2594 391 2855 752 
Q 3116 1113 3116 1747 
z
" transform="scale(0.015625)"/>
      <path id="DejaVuSans-48" d="M 3597 1894 
L 3597 1613 
L 953 1613 
Q 991 1019 1311 708 
Q 1631 397 2203 397 
Q 2534 397 2845 478 
Q 3156 559 3463 722 
L 3463 178 
Q 3153 47 2828 -22 
Q 2503 -91 2169 -91 
Q 1331 -91 842 396 
Q 353 884 353 1716 
Q 353 2575 817 3079 
Q 1281 3584 2069 3584 
Q 2775 3584 3186 3129 
Q 3597 2675 3597 1894 
z
M 3022 2063 
Q 3016 2534 2758 2815 
Q 2500 3097 2075 3097 
Q 1594 3097 1305 2825 
Q 1016 2553 972 2059 
L 3022 2063 
z
" transform="scale(0.015625)"/>
      <path id="DejaVuSans-44" d="M 2194 1759 
Q 1497 1759 1228 1600 
Q 959 1441 959 1056 
Q 959 750 1161 570 
Q 1363 391 1709 391 
Q 2188 391 2477 730 
Q 2766 1069 2766 1631 
L 2766 1759 
L 2194 1759 
z
M 3341 1997 
L 3341 0 
L 2766 0 
L 2766 531 
Q 2569 213 2275 61 
Q 1981 -91 1556 -91 
Q 1019 -91 701 211 
Q 384 513 384 1019 
Q 384 1609 779 1909 
Q 1175 2209 1959 2209 
L 2766 2209 
L 2766 2266 
Q 2766 2663 2505 2880 
Q 2244 3097 1772 3097 
Q 1472 3097 1187 3025 
Q 903 2953 641 2809 
L 641 3341 
Q 956 3463 1253 3523 
Q 1550 3584 1831 3584 
Q 2591 3584 2966 3190 
Q 3341 2797 3341 1997 
z
" transform="scale(0.015625)"/>
      <path id="DejaVuSans-4e" d="M 581 4863 
L 1159 4863 
L 1159 1991 
L 2875 3500 
L 3609 3500 
L 1753 1863 
L 3688 0 
L 2938 0 
L 1159 1709 
L 1159 0 
L 581 0 
L 581 4863 
z
" transform="scale(0.015625)"/>
      <path id="DejaVuSans-3" transform="scale(0.015625)"/>
      <path id="DejaVuSans-14" d="M 794 531 
L 1825 531 
L 1825 4091 
L 703 3866 
L 703 4441 
L 1819 4666 
L 2450 4666 
L 2450 531 
L 3481 531 
L 3481 0 
L 794 0 
L 794 531 
z
" transform="scale(0.015625)"/>
     </defs>
     <use xlink:href="#DejaVuSans-53"/>
     <use xlink:href="#DejaVuSans-48" transform="translate(63.484375 0)"/>
     <use xlink:href="#DejaVuSans-44" transform="translate(125.015625 0)"/>
     <use xlink:href="#DejaVuSans-4e" transform="translate(186.296875 0)"/>
     <use xlink:href="#DejaVuSans-3" transform="translate(244.203125 0)"/>
     <use xlink:href="#DejaVuSans-14" transform="translate(275.984375 0)"/>
    </g>
   </g>
   <g id="text_22">
    <!-- //  ⋯  // -->
    <g style="fill: #999999" transform="translate(278.463905 85.087531) scale(0.1 -0.1)">
     <defs>
      <path id="DejaVuSans-d79" d="M 737 2388 
L 1397 2388 
L 1397 1594 
L 737 1594 
L 737 2388 
z
M 2868 2388 
L 3528 2388 
L 3528 1594 
L 2868 1594 
L 2868 2388 
z
M 5000 2388 
L 5660 2388 
L 5660 1594 
L 5000 1594 
L 5000 2388 
z
" transform="scale(0.015625)"/>
     </defs>
     <use xlink:href="#DejaVuSans-12"/>
     <use xlink:href="#DejaVuSans-12" transform="translate(33.6875 0)"/>
     <use xlink:href="#DejaVuSans-3" transform="translate(67.375 0)"/>
     <use xlink:href="#DejaVuSans-3" transform="translate(99.15625 0)"/>
     <use xlink:href="#DejaVuSans-d79" transform="translate(130.9375 0)"/>
     <use xlink:href="#DejaVuSans-3" transform="translate(230.9375 0)"/>
     <use xlink:href="#DejaVuSans-3" transform="translate(262.71875 0)"/>
     <use xlink:href="#DejaVuSans-12" transform="translate(294.5 0)"/>
     <use xlink:href="#DejaVuSans-12" transform="translate(328.1875 0)"/>
    </g>
   </g>
   <g id="text_23">
    <!-- 0 -->
    <g style="fill: #d62728" transform="translate(347.35756 49.998303) scale(0.08 -0.08)">
     <use xlink:href="#DejaVuSans-Bold-13"/>
    </g>
   </g>
   <g id="text_24">
    <!-- 0 -->
    <g style="fill: #d62728" transform="translate(364.642409 49.998303) scale(0.08 -0.08)">
     <use xlink:href="#DejaVuSans-Bold-13"/>
    </g>
   </g>
   <g id="text_25">
    <!-- 0 -->
    <g style="fill: #d62728" transform="translate(330.072712 67.283151) scale(0.08 -0.08)">
     <use xlink:href="#DejaVuSans-Bold-13"/>
    </g>
   </g>
   <g id="text_26">
    <!-- 0 -->
    <g style="fill: #d62728" transform="translate(364.642409 67.283151) scale(0.08 -0.08)">
     <use xlink:href="#DejaVuSans-Bold-13"/>
    </g>
   </g>
   <g id="text_27">
    <!-- 0 -->
    <g style="fill: #d62728" transform="translate(330.072712 84.568) scale(0.08 -0.08)">
     <use xlink:href="#DejaVuSans-Bold-13"/>
    </g>
   </g>
   <g id="text_28">
    <!-- 0 -->
    <g style="fill: #d62728" transform="translate(347.35756 84.568) scale(0.08 -0.08)">
     <use xlink:href="#DejaVuSans-Bold-13"/>
    </g>
   </g>
   <g id="text_29">
    <!-- // -->
    <g style="fill: #999999" transform="translate(381.341632 85.087531) scale(0.1 -0.1)">
     <use xlink:href="#DejaVuSans-12"/>
     <use xlink:href="#DejaVuSans-12" transform="translate(33.6875 0)"/>
    </g>
   </g>
   <g id="text_30">
    <!-- 0 -->
    <g style="fill: #d62728" transform="translate(416.496954 49.998303) scale(0.08 -0.08)">
     <use xlink:href="#DejaVuSans-Bold-13"/>
    </g>
   </g>
   <g id="text_31">
    <!-- 0 -->
    <g style="fill: #d62728" transform="translate(433.781803 49.998303) scale(0.08 -0.08)">
     <use xlink:href="#DejaVuSans-Bold-13"/>
    </g>
   </g>
   <g id="text_32">
    <!-- 0 -->
    <g style="fill: #d62728" transform="translate(399.212106 67.283151) scale(0.08 -0.08)">
     <use xlink:href="#DejaVuSans-Bold-13"/>
    </g>
   </g>
   <g id="text_33">
    <!-- 0 -->
    <g style="fill: #d62728" transform="translate(433.781803 67.283151) scale(0.08 -0.08)">
     <use xlink:href="#DejaVuSans-Bold-13"/>
    </g>
   </g>
   <g id="text_34">
    <!-- 0 -->
    <g style="fill: #d62728" transform="translate(399.212106 84.568) scale(0.08 -0.08)">
     <use xlink:href="#DejaVuSans-Bold-13"/>
    </g>
   </g>
   <g id="text_35">
    <!-- 0 -->
    <g style="fill: #d62728" transform="translate(416.496954 84.568) scale(0.08 -0.08)">
     <use xlink:href="#DejaVuSans-Bold-13"/>
    </g>
   </g>
   <g id="text_36">
    <!-- // -->
    <g style="fill: #999999" transform="translate(450.481026 85.087531) scale(0.1 -0.1)">
     <use xlink:href="#DejaVuSans-12"/>
     <use xlink:href="#DejaVuSans-12" transform="translate(33.6875 0)"/>
    </g>
   </g>
   <g id="text_37">
    <!-- 0 -->
    <g style="fill: #d62728" transform="translate(485.636348 49.998303) scale(0.08 -0.08)">
     <use xlink:href="#DejaVuSans-Bold-13"/>
    </g>
   </g>
   <g id="text_38">
    <!-- 0 -->
    <g style="fill: #d62728" transform="translate(502.921197 49.998303) scale(0.08 -0.08)">
     <use xlink:href="#DejaVuSans-Bold-13"/>
    </g>
   </g>
   <g id="text_39">
    <!-- 0 -->
    <g style="fill: #d62728" transform="translate(468.3515 67.283151) scale(0.08 -0.08)">
     <use xlink:href="#DejaVuSans-Bold-13"/>
    </g>
   </g>
   <g id="text_40">
    <!-- 0 -->
    <g style="fill: #d62728" transform="translate(502.921197 67.283151) scale(0.08 -0.08)">
     <use xlink:href="#DejaVuSans-Bold-13"/>
    </g>
   </g>
   <g id="text_41">
    <!-- 0 -->
    <g style="fill: #d62728" transform="translate(468.3515 84.568) scale(0.08 -0.08)">
     <use xlink:href="#DejaVuSans-Bold-13"/>
    </g>
   </g>
   <g id="text_42">
    <!-- 0 -->
    <g style="fill: #d62728" transform="translate(485.636348 84.568) scale(0.08 -0.08)">
     <use xlink:href="#DejaVuSans-Bold-13"/>
    </g>
   </g>
   <g id="patch_57">
    <path d="M 512.347816 34.956541 
Q 419.281054 34.956541 326.214293 34.956541 
" style="fill: none; stroke: #8c8c8c; stroke-linecap: round"/>
   </g>
   <g id="text_43">
    <!-- peak 2 -->
    <g style="fill: #595959" transform="translate(404.846681 30.321822) scale(0.085 -0.085)">
     <defs>
      <path id="DejaVuSans-15" d="M 1228 531 
L 3431 531 
L 3431 0 
L 469 0 
L 469 531 
Q 828 903 1448 1529 
Q 2069 2156 2228 2338 
Q 2531 2678 2651 2914 
Q 2772 3150 2772 3378 
Q 2772 3750 2511 3984 
Q 2250 4219 1831 4219 
Q 1534 4219 1204 4116 
Q 875 4013 500 3803 
L 500 4441 
Q 881 4594 1212 4672 
Q 1544 4750 1819 4750 
Q 2544 4750 2975 4387 
Q 3406 4025 3406 3419 
Q 3406 3131 3298 2873 
Q 3191 2616 2906 2266 
Q 2828 2175 2409 1742 
Q 1991 1309 1228 531 
z
" transform="scale(0.015625)"/>
     </defs>
     <use xlink:href="#DejaVuSans-53"/>
     <use xlink:href="#DejaVuSans-48" transform="translate(63.484375 0)"/>
     <use xlink:href="#DejaVuSans-44" transform="translate(125.015625 0)"/>
     <use xlink:href="#DejaVuSans-4e" transform="translate(186.296875 0)"/>
     <use xlink:href="#DejaVuSans-3" transform="translate(244.203125 0)"/>
     <use xlink:href="#DejaVuSans-15" transform="translate(275.984375 0)"/>
    </g>
   </g>
   <g id="text_44">
    <!-- scan 0 -->
    <g style="fill: #666666" transform="translate(45.683375 49.998303) scale(0.08 -0.08)">
     <defs>
      <path id="DejaVuSans-56" d="M 2834 3397 
L 2834 2853 
Q 2591 2978 2328 3040 
Q 2066 3103 1784 3103 
Q 1356 3103 1142 2972 
Q 928 2841 928 2578 
Q 928 2378 1081 2264 
Q 1234 2150 1697 2047 
L 1894 2003 
Q 2506 1872 2764 1633 
Q 3022 1394 3022 966 
Q 3022 478 2636 193 
Q 2250 -91 1575 -91 
Q 1294 -91 989 -36 
Q 684 19 347 128 
L 347 722 
Q 666 556 975 473 
Q 1284 391 1588 391 
Q 1994 391 2212 530 
Q 2431 669 2431 922 
Q 2431 1156 2273 1281 
Q 2116 1406 1581 1522 
L 1381 1569 
Q 847 1681 609 1914 
Q 372 2147 372 2553 
Q 372 3047 722 3315 
Q 1072 3584 1716 3584 
Q 2034 3584 2315 3537 
Q 2597 3491 2834 3397 
z
" transform="scale(0.015625)"/>
      <path id="DejaVuSans-46" d="M 3122 3366 
L 3122 2828 
Q 2878 2963 2633 3030 
Q 2388 3097 2138 3097 
Q 1578 3097 1268 2742 
Q 959 2388 959 1747 
Q 959 1106 1268 751 
Q 1578 397 2138 397 
Q 2388 397 2633 464 
Q 2878 531 3122 666 
L 3122 134 
Q 2881 22 2623 -34 
Q 2366 -91 2075 -91 
Q 1284 -91 818 406 
Q 353 903 353 1747 
Q 353 2603 823 3093 
Q 1294 3584 2113 3584 
Q 2378 3584 2631 3529 
Q 2884 3475 3122 3366 
z
" transform="scale(0.015625)"/>
      <path id="DejaVuSans-51" d="M 3513 2113 
L 3513 0 
L 2938 0 
L 2938 2094 
Q 2938 2591 2744 2837 
Q 2550 3084 2163 3084 
Q 1697 3084 1428 2787 
Q 1159 2491 1159 1978 
L 1159 0 
L 581 0 
L 581 3500 
L 1159 3500 
L 1159 2956 
Q 1366 3272 1645 3428 
Q 1925 3584 2291 3584 
Q 2894 3584 3203 3211 
Q 3513 2838 3513 2113 
z
" transform="scale(0.015625)"/>
      <path id="DejaVuSans-13" d="M 2034 4250 
Q 1547 4250 1301 3770 
Q 1056 3291 1056 2328 
Q 1056 1369 1301 889 
Q 1547 409 2034 409 
Q 2525 409 2770 889 
Q 3016 1369 3016 2328 
Q 3016 3291 2770 3770 
Q 2525 4250 2034 4250 
z
M 2034 4750 
Q 2819 4750 3233 4129 
Q 3647 3509 3647 2328 
Q 3647 1150 3233 529 
Q 2819 -91 2034 -91 
Q 1250 -91 836 529 
Q 422 1150 422 2328 
Q 422 3509 836 4129 
Q 1250 4750 2034 4750 
z
" transform="scale(0.015625)"/>
     </defs>
     <use xlink:href="#DejaVuSans-56"/>
     <use xlink:href="#DejaVuSans-46" transform="translate(52.09375 0)"/>
     <use xlink:href="#DejaVuSans-44" transform="translate(107.078125 0)"/>
     <use xlink:href="#DejaVuSans-51" transform="translate(168.359375 0)"/>
     <use xlink:href="#DejaVuSans-3" transform="translate(231.734375 0)"/>
     <use xlink:href="#DejaVuSans-13" transform="translate(263.515625 0)"/>
    </g>
   </g>
   <g id="text_45">
    <!-- scan 1 -->
    <g style="fill: #666666" transform="translate(45.683375 67.283151) scale(0.08 -0.08)">
     <use xlink:href="#DejaVuSans-56"/>
     <use xlink:href="#DejaVuSans-46" transform="translate(52.09375 0)"/>
     <use xlink:href="#DejaVuSans-44" transform="translate(107.078125 0)"/>
     <use xlink:href="#DejaVuSans-51" transform="translate(168.359375 0)"/>
     <use xlink:href="#DejaVuSans-3" transform="translate(231.734375 0)"/>
     <use xlink:href="#DejaVuSans-14" transform="translate(263.515625 0)"/>
    </g>
   </g>
   <g id="text_46">
    <!-- scan 2 -->
    <g style="fill: #666666" transform="translate(45.683375 84.568) scale(0.08 -0.08)">
     <use xlink:href="#DejaVuSans-56"/>
     <use xlink:href="#DejaVuSans-46" transform="translate(52.09375 0)"/>
     <use xlink:href="#DejaVuSans-44" transform="translate(107.078125 0)"/>
     <use xlink:href="#DejaVuSans-51" transform="translate(168.359375 0)"/>
     <use xlink:href="#DejaVuSans-3" transform="translate(231.734375 0)"/>
     <use xlink:href="#DejaVuSans-15" transform="translate(263.515625 0)"/>
    </g>
   </g>
   <g id="text_47">
    <!-- each peak = MANY points = a row of staircases (// = dropped bins), ~2/3 zeros -->
    <g style="fill: #4c4c4c" transform="translate(128.155389 113.147334) scale(0.085 -0.085)">
     <defs>
      <path id="DejaVuSans-4b" d="M 3513 2113 
L 3513 0 
L 2938 0 
L 2938 2094 
Q 2938 2591 2744 2837 
Q 2550 3084 2163 3084 
Q 1697 3084 1428 2787 
Q 1159 2491 1159 1978 
L 1159 0 
L 581 0 
L 581 4863 
L 1159 4863 
L 1159 2956 
Q 1366 3272 1645 3428 
Q 1925 3584 2291 3584 
Q 2894 3584 3203 3211 
Q 3513 2838 3513 2113 
z
" transform="scale(0.015625)"/>
      <path id="DejaVuSans-20" d="M 678 2906 
L 4684 2906 
L 4684 2381 
L 678 2381 
L 678 2906 
z
M 678 1631 
L 4684 1631 
L 4684 1100 
L 678 1100 
L 678 1631 
z
" transform="scale(0.015625)"/>
      <path id="DejaVuSans-30" d="M 628 4666 
L 1569 4666 
L 2759 1491 
L 3956 4666 
L 4897 4666 
L 4897 0 
L 4281 0 
L 4281 4097 
L 3078 897 
L 2444 897 
L 1241 4097 
L 1241 0 
L 628 0 
L 628 4666 
z
" transform="scale(0.015625)"/>
      <path id="DejaVuSans-24" d="M 2188 4044 
L 1331 1722 
L 3047 1722 
L 2188 4044 
z
M 1831 4666 
L 2547 4666 
L 4325 0 
L 3669 0 
L 3244 1197 
L 1141 1197 
L 716 0 
L 50 0 
L 1831 4666 
z
" transform="scale(0.015625)"/>
      <path id="DejaVuSans-31" d="M 628 4666 
L 1478 4666 
L 3547 763 
L 3547 4666 
L 4159 4666 
L 4159 0 
L 3309 0 
L 1241 3903 
L 1241 0 
L 628 0 
L 628 4666 
z
" transform="scale(0.015625)"/>
      <path id="DejaVuSans-3c" d="M -13 4666 
L 666 4666 
L 1959 2747 
L 3244 4666 
L 3922 4666 
L 2272 2222 
L 2272 0 
L 1638 0 
L 1638 2222 
L -13 4666 
z
" transform="scale(0.015625)"/>
      <path id="DejaVuSans-52" d="M 1959 3097 
Q 1497 3097 1228 2736 
Q 959 2375 959 1747 
Q 959 1119 1226 758 
Q 1494 397 1959 397 
Q 2419 397 2687 759 
Q 2956 1122 2956 1747 
Q 2956 2369 2687 2733 
Q 2419 3097 1959 3097 
z
M 1959 3584 
Q 2709 3584 3137 3096 
Q 3566 2609 3566 1747 
Q 3566 888 3137 398 
Q 2709 -91 1959 -91 
Q 1206 -91 779 398 
Q 353 888 353 1747 
Q 353 2609 779 3096 
Q 1206 3584 1959 3584 
z
" transform="scale(0.015625)"/>
      <path id="DejaVuSans-4c" d="M 603 3500 
L 1178 3500 
L 1178 0 
L 603 0 
L 603 3500 
z
M 603 4863 
L 1178 4863 
L 1178 4134 
L 603 4134 
L 603 4863 
z
" transform="scale(0.015625)"/>
      <path id="DejaVuSans-57" d="M 1172 4494 
L 1172 3500 
L 2356 3500 
L 2356 3053 
L 1172 3053 
L 1172 1153 
Q 1172 725 1289 603 
Q 1406 481 1766 481 
L 2356 481 
L 2356 0 
L 1766 0 
Q 1100 0 847 248 
Q 594 497 594 1153 
L 594 3053 
L 172 3053 
L 172 3500 
L 594 3500 
L 594 4494 
L 1172 4494 
z
" transform="scale(0.015625)"/>
      <path id="DejaVuSans-55" d="M 2631 2963 
Q 2534 3019 2420 3045 
Q 2306 3072 2169 3072 
Q 1681 3072 1420 2755 
Q 1159 2438 1159 1844 
L 1159 0 
L 581 0 
L 581 3500 
L 1159 3500 
L 1159 2956 
Q 1341 3275 1631 3429 
Q 1922 3584 2338 3584 
Q 2397 3584 2469 3576 
Q 2541 3569 2628 3553 
L 2631 2963 
z
" transform="scale(0.015625)"/>
      <path id="DejaVuSans-5a" d="M 269 3500 
L 844 3500 
L 1563 769 
L 2278 3500 
L 2956 3500 
L 3675 769 
L 4391 3500 
L 4966 3500 
L 4050 0 
L 3372 0 
L 2619 2869 
L 1863 0 
L 1184 0 
L 269 3500 
z
" transform="scale(0.015625)"/>
      <path id="DejaVuSans-49" d="M 2375 4863 
L 2375 4384 
L 1825 4384 
Q 1516 4384 1395 4259 
Q 1275 4134 1275 3809 
L 1275 3500 
L 2222 3500 
L 2222 3053 
L 1275 3053 
L 1275 0 
L 697 0 
L 697 3053 
L 147 3053 
L 147 3500 
L 697 3500 
L 697 3744 
Q 697 4328 969 4595 
Q 1241 4863 1831 4863 
L 2375 4863 
z
" transform="scale(0.015625)"/>
      <path id="DejaVuSans-b" d="M 1984 4856 
Q 1566 4138 1362 3434 
Q 1159 2731 1159 2009 
Q 1159 1288 1364 580 
Q 1569 -128 1984 -844 
L 1484 -844 
Q 1016 -109 783 600 
Q 550 1309 550 2009 
Q 550 2706 781 3412 
Q 1013 4119 1484 4856 
L 1984 4856 
z
" transform="scale(0.015625)"/>
      <path id="DejaVuSans-47" d="M 2906 2969 
L 2906 4863 
L 3481 4863 
L 3481 0 
L 2906 0 
L 2906 525 
Q 2725 213 2448 61 
Q 2172 -91 1784 -91 
Q 1150 -91 751 415 
Q 353 922 353 1747 
Q 353 2572 751 3078 
Q 1150 3584 1784 3584 
Q 2172 3584 2448 3432 
Q 2725 3281 2906 2969 
z
M 947 1747 
Q 947 1113 1208 752 
Q 1469 391 1925 391 
Q 2381 391 2643 752 
Q 2906 1113 2906 1747 
Q 2906 2381 2643 2742 
Q 2381 3103 1925 3103 
Q 1469 3103 1208 2742 
Q 947 2381 947 1747 
z
" transform="scale(0.015625)"/>
      <path id="DejaVuSans-45" d="M 3116 1747 
Q 3116 2381 2855 2742 
Q 2594 3103 2138 3103 
Q 1681 3103 1420 2742 
Q 1159 2381 1159 1747 
Q 1159 1113 1420 752 
Q 1681 391 2138 391 
Q 2594 391 2855 752 
Q 3116 1113 3116 1747 
z
M 1159 2969 
Q 1341 3281 1617 3432 
Q 1894 3584 2278 3584 
Q 2916 3584 3314 3078 
Q 3713 2572 3713 1747 
Q 3713 922 3314 415 
Q 2916 -91 2278 -91 
Q 1894 -91 1617 61 
Q 1341 213 1159 525 
L 1159 0 
L 581 0 
L 581 4863 
L 1159 4863 
L 1159 2969 
z
" transform="scale(0.015625)"/>
      <path id="DejaVuSans-c" d="M 513 4856 
L 1013 4856 
Q 1481 4119 1714 3412 
Q 1947 2706 1947 2009 
Q 1947 1309 1714 600 
Q 1481 -109 1013 -844 
L 513 -844 
Q 928 -128 1133 580 
Q 1338 1288 1338 2009 
Q 1338 2731 1133 3434 
Q 928 4138 513 4856 
z
" transform="scale(0.015625)"/>
      <path id="DejaVuSans-f" d="M 750 794 
L 1409 794 
L 1409 256 
L 897 -744 
L 494 -744 
L 750 256 
L 750 794 
z
" transform="scale(0.015625)"/>
      <path id="DejaVuSans-61" d="M 4684 2553 
L 4684 1997 
Q 4356 1750 4076 1644 
Q 3797 1538 3494 1538 
Q 3150 1538 2694 1722 
Q 2659 1734 2644 1741 
Q 2622 1750 2575 1766 
Q 2091 1959 1797 1959 
Q 1522 1959 1253 1839 
Q 984 1719 678 1459 
L 678 2016 
Q 1006 2263 1286 2370 
Q 1566 2478 1869 2478 
Q 2213 2478 2672 2291 
Q 2703 2278 2719 2272 
Q 2744 2263 2788 2247 
Q 3272 2053 3566 2053 
Q 3834 2053 4098 2172 
Q 4363 2291 4684 2553 
z
" transform="scale(0.015625)"/>
      <path id="DejaVuSans-16" d="M 2597 2516 
Q 3050 2419 3304 2112 
Q 3559 1806 3559 1356 
Q 3559 666 3084 287 
Q 2609 -91 1734 -91 
Q 1441 -91 1130 -33 
Q 819 25 488 141 
L 488 750 
Q 750 597 1062 519 
Q 1375 441 1716 441 
Q 2309 441 2620 675 
Q 2931 909 2931 1356 
Q 2931 1769 2642 2001 
Q 2353 2234 1838 2234 
L 1294 2234 
L 1294 2753 
L 1863 2753 
Q 2328 2753 2575 2939 
Q 2822 3125 2822 3475 
Q 2822 3834 2567 4026 
Q 2313 4219 1838 4219 
Q 1578 4219 1281 4162 
Q 984 4106 628 3988 
L 628 4550 
Q 988 4650 1302 4700 
Q 1616 4750 1894 4750 
Q 2613 4750 3031 4423 
Q 3450 4097 3450 3541 
Q 3450 3153 3228 2886 
Q 3006 2619 2597 2516 
z
" transform="scale(0.015625)"/>
      <path id="DejaVuSans-5d" d="M 353 3500 
L 3084 3500 
L 3084 2975 
L 922 459 
L 3084 459 
L 3084 0 
L 275 0 
L 275 525 
L 2438 3041 
L 353 3041 
L 353 3500 
z
" transform="scale(0.015625)"/>
     </defs>
     <use xlink:href="#DejaVuSans-48"/>
     <use xlink:href="#DejaVuSans-44" transform="translate(61.53125 0)"/>
     <use xlink:href="#DejaVuSans-46" transform="translate(122.8125 0)"/>
     <use xlink:href="#DejaVuSans-4b" transform="translate(177.796875 0)"/>
     <use xlink:href="#DejaVuSans-3" transform="translate(241.171875 0)"/>
     <use xlink:href="#DejaVuSans-53" transform="translate(272.953125 0)"/>
     <use xlink:href="#DejaVuSans-48" transform="translate(336.4375 0)"/>
     <use xlink:href="#DejaVuSans-44" transform="translate(397.96875 0)"/>
     <use xlink:href="#DejaVuSans-4e" transform="translate(459.25 0)"/>
     <use xlink:href="#DejaVuSans-3" transform="translate(517.15625 0)"/>
     <use xlink:href="#DejaVuSans-20" transform="translate(548.9375 0)"/>
     <use xlink:href="#DejaVuSans-3" transform="translate(632.734375 0)"/>
     <use xlink:href="#DejaVuSans-30" transform="translate(664.515625 0)"/>
     <use xlink:href="#DejaVuSans-24" transform="translate(750.796875 0)"/>
     <use xlink:href="#DejaVuSans-31" transform="translate(819.203125 0)"/>
     <use xlink:href="#DejaVuSans-3c" transform="translate(894.015625 0)"/>
     <use xlink:href="#DejaVuSans-3" transform="translate(955.09375 0)"/>
     <use xlink:href="#DejaVuSans-53" transform="translate(986.875 0)"/>
     <use xlink:href="#DejaVuSans-52" transform="translate(1050.359375 0)"/>
     <use xlink:href="#DejaVuSans-4c" transform="translate(1111.546875 0)"/>
     <use xlink:href="#DejaVuSans-51" transform="translate(1139.328125 0)"/>
     <use xlink:href="#DejaVuSans-57" transform="translate(1202.703125 0)"/>
     <use xlink:href="#DejaVuSans-56" transform="translate(1241.90625 0)"/>
     <use xlink:href="#DejaVuSans-3" transform="translate(1294 0)"/>
     <use xlink:href="#DejaVuSans-20" transform="translate(1325.78125 0)"/>
     <use xlink:href="#DejaVuSans-3" transform="translate(1409.578125 0)"/>
     <use xlink:href="#DejaVuSans-44" transform="translate(1441.359375 0)"/>
     <use xlink:href="#DejaVuSans-3" transform="translate(1502.640625 0)"/>
     <use xlink:href="#DejaVuSans-55" transform="translate(1534.421875 0)"/>
     <use xlink:href="#DejaVuSans-52" transform="translate(1573.328125 0)"/>
     <use xlink:href="#DejaVuSans-5a" transform="translate(1634.515625 0)"/>
     <use xlink:href="#DejaVuSans-3" transform="translate(1716.296875 0)"/>
     <use xlink:href="#DejaVuSans-52" transform="translate(1748.078125 0)"/>
     <use xlink:href="#DejaVuSans-49" transform="translate(1809.265625 0)"/>
     <use xlink:href="#DejaVuSans-3" transform="translate(1844.46875 0)"/>
     <use xlink:href="#DejaVuSans-56" transform="translate(1876.25 0)"/>
     <use xlink:href="#DejaVuSans-57" transform="translate(1928.34375 0)"/>
     <use xlink:href="#DejaVuSans-44" transform="translate(1967.546875 0)"/>
     <use xlink:href="#DejaVuSans-4c" transform="translate(2028.828125 0)"/>
     <use xlink:href="#DejaVuSans-55" transform="translate(2056.609375 0)"/>
     <use xlink:href="#DejaVuSans-46" transform="translate(2095.515625 0)"/>
     <use xlink:href="#DejaVuSans-44" transform="translate(2150.5 0)"/>
     <use xlink:href="#DejaVuSans-56" transform="translate(2211.78125 0)"/>
     <use xlink:href="#DejaVuSans-48" transform="translate(2263.875 0)"/>
     <use xlink:href="#DejaVuSans-56" transform="translate(2325.40625 0)"/>
     <use xlink:href="#DejaVuSans-3" transform="translate(2377.5 0)"/>
     <use xlink:href="#DejaVuSans-b" transform="translate(2409.28125 0)"/>
     <use xlink:href="#DejaVuSans-12" transform="translate(2448.296875 0)"/>
     <use xlink:href="#DejaVuSans-12" transform="translate(2481.984375 0)"/>
     <use xlink:href="#DejaVuSans-3" transform="translate(2515.671875 0)"/>
     <use xlink:href="#DejaVuSans-20" transform="translate(2547.453125 0)"/>
     <use xlink:href="#DejaVuSans-3" transform="translate(2631.25 0)"/>
     <use xlink:href="#DejaVuSans-47" transform="translate(2663.03125 0)"/>
     <use xlink:href="#DejaVuSans-55" transform="translate(2726.515625 0)"/>
     <use xlink:href="#DejaVuSans-52" transform="translate(2765.421875 0)"/>
     <use xlink:href="#DejaVuSans-53" transform="translate(2826.609375 0)"/>
     <use xlink:href="#DejaVuSans-53" transform="translate(2890.09375 0)"/>
     <use xlink:href="#DejaVuSans-48" transform="translate(2953.578125 0)"/>
     <use xlink:href="#DejaVuSans-47" transform="translate(3015.109375 0)"/>
     <use xlink:href="#DejaVuSans-3" transform="translate(3078.59375 0)"/>
     <use xlink:href="#DejaVuSans-45" transform="translate(3110.375 0)"/>
     <use xlink:href="#DejaVuSans-4c" transform="translate(3173.859375 0)"/>
     <use xlink:href="#DejaVuSans-51" transform="translate(3201.640625 0)"/>
     <use xlink:href="#DejaVuSans-56" transform="translate(3265.015625 0)"/>
     <use xlink:href="#DejaVuSans-c" transform="translate(3317.109375 0)"/>
     <use xlink:href="#DejaVuSans-f" transform="translate(3356.125 0)"/>
     <use xlink:href="#DejaVuSans-3" transform="translate(3387.90625 0)"/>
     <use xlink:href="#DejaVuSans-61" transform="translate(3419.6875 0)"/>
     <use xlink:href="#DejaVuSans-15" transform="translate(3503.484375 0)"/>
     <use xlink:href="#DejaVuSans-12" transform="translate(3567.109375 0)"/>
     <use xlink:href="#DejaVuSans-16" transform="translate(3600.796875 0)"/>
     <use xlink:href="#DejaVuSans-3" transform="translate(3664.421875 0)"/>
     <use xlink:href="#DejaVuSans-5d" transform="translate(3696.203125 0)"/>
     <use xlink:href="#DejaVuSans-48" transform="translate(3748.6875 0)"/>
     <use xlink:href="#DejaVuSans-55" transform="translate(3810.21875 0)"/>
     <use xlink:href="#DejaVuSans-52" transform="translate(3849.125 0)"/>
     <use xlink:href="#DejaVuSans-56" transform="translate(3910.3125 0)"/>
    </g>
   </g>
   <g id="text_48">
    <!-- (a) Profile, binned -->
    <g transform="translate(219.656358 15.178359) scale(0.105 -0.105)">
     <defs>
      <path id="DejaVuSans-33" d="M 1259 4147 
L 1259 2394 
L 2053 2394 
Q 2494 2394 2734 2622 
Q 2975 2850 2975 3272 
Q 2975 3691 2734 3919 
Q 2494 4147 2053 4147 
L 1259 4147 
z
M 628 4666 
L 2053 4666 
Q 2838 4666 3239 4311 
Q 3641 3956 3641 3272 
Q 3641 2581 3239 2228 
Q 2838 1875 2053 1875 
L 1259 1875 
L 1259 0 
L 628 0 
L 628 4666 
z
" transform="scale(0.015625)"/>
      <path id="DejaVuSans-13af" d="M 3431 3500 
L 3431 0 
L 2853 0 
L 2853 3053 
L 1275 3053 
L 1275 0 
L 697 0 
L 697 3053 
L 147 3053 
L 147 3500 
L 697 3500 
L 697 3744 
Q 697 4316 967 4589 
Q 1238 4863 1797 4863 
L 2375 4863 
L 2375 4384 
L 1825 4384 
Q 1516 4384 1395 4259 
Q 1275 4134 1275 3809 
L 1275 3500 
L 3431 3500 
z
M 2853 4856 
L 3431 4856 
L 3431 4128 
L 2853 4128 
L 2853 4856 
z
" transform="scale(0.015625)"/>
      <path id="DejaVuSans-4f" d="M 603 4863 
L 1178 4863 
L 1178 0 
L 603 0 
L 603 4863 
z
" transform="scale(0.015625)"/>
     </defs>
     <use xlink:href="#DejaVuSans-b"/>
     <use xlink:href="#DejaVuSans-44" transform="translate(39.015625 0)"/>
     <use xlink:href="#DejaVuSans-c" transform="translate(100.296875 0)"/>
     <use xlink:href="#DejaVuSans-3" transform="translate(139.3125 0)"/>
     <use xlink:href="#DejaVuSans-33" transform="translate(171.09375 0)"/>
     <use xlink:href="#DejaVuSans-55" transform="translate(229.640625 0)"/>
     <use xlink:href="#DejaVuSans-52" transform="translate(268.546875 0)"/>
     <use xlink:href="#DejaVuSans-13af" transform="translate(329.734375 0)"/>
     <use xlink:href="#DejaVuSans-4f" transform="translate(392.71875 0)"/>
     <use xlink:href="#DejaVuSans-48" transform="translate(420.5 0)"/>
     <use xlink:href="#DejaVuSans-f" transform="translate(482.03125 0)"/>
     <use xlink:href="#DejaVuSans-3" transform="translate(513.8125 0)"/>
     <use xlink:href="#DejaVuSans-45" transform="translate(545.59375 0)"/>
     <use xlink:href="#DejaVuSans-4c" transform="translate(609.078125 0)"/>
     <use xlink:href="#DejaVuSans-51" transform="translate(636.859375 0)"/>
     <use xlink:href="#DejaVuSans-51" transform="translate(700.234375 0)"/>
     <use xlink:href="#DejaVuSans-48" transform="translate(763.609375 0)"/>
     <use xlink:href="#DejaVuSans-47" transform="translate(825.140625 0)"/>
    </g>
   </g>
  </g>
  <g id="axes_2">
   <g id="patch_58">
    <path d="M 78.768564 198.690602 
L 96.053413 198.690602 
L 96.053413 181.405753 
L 78.768564 181.405753 
z
" clip-path="url(#pbcb72f0803)" style="fill: #1f77b4; opacity: 0.4; stroke: #999999; stroke-linejoin: miter"/>
   </g>
   <g id="patch_59">
    <path d="M 96.053413 198.690602 
L 113.338261 198.690602 
L 113.338261 181.405753 
L 96.053413 181.405753 
L 96.053413 198.690602 
z
" clip-path="url(#pbcb72f0803)" style="fill: none; stroke: #999999; stroke-linejoin: miter"/>
   </g>
   <g id="patch_60">
    <path d="M 113.338261 198.690602 
L 130.62311 198.690602 
L 130.62311 181.405753 
L 113.338261 181.405753 
L 113.338261 198.690602 
z
" clip-path="url(#pbcb72f0803)" style="fill: none; stroke: #999999; stroke-linejoin: miter"/>
   </g>
   <g id="patch_61">
    <path d="M 78.768564 215.97545 
L 96.053413 215.97545 
L 96.053413 198.690602 
L 78.768564 198.690602 
L 78.768564 215.97545 
z
" clip-path="url(#pbcb72f0803)" style="fill: none; stroke: #999999; stroke-linejoin: miter"/>
   </g>
   <g id="patch_62">
    <path d="M 96.053413 215.97545 
L 113.338261 215.97545 
L 113.338261 198.690602 
L 96.053413 198.690602 
z
" clip-path="url(#pbcb72f0803)" style="fill: #1f77b4; opacity: 0.4; stroke: #999999; stroke-linejoin: miter"/>
   </g>
   <g id="patch_63">
    <path d="M 113.338261 215.97545 
L 130.62311 215.97545 
L 130.62311 198.690602 
L 113.338261 198.690602 
L 113.338261 215.97545 
z
" clip-path="url(#pbcb72f0803)" style="fill: none; stroke: #999999; stroke-linejoin: miter"/>
   </g>
   <g id="patch_64">
    <path d="M 78.768564 233.260299 
L 96.053413 233.260299 
L 96.053413 215.97545 
L 78.768564 215.97545 
L 78.768564 233.260299 
z
" clip-path="url(#pbcb72f0803)" style="fill: none; stroke: #999999; stroke-linejoin: miter"/>
   </g>
   <g id="patch_65">
    <path d="M 96.053413 233.260299 
L 113.338261 233.260299 
L 113.338261 215.97545 
L 96.053413 215.97545 
L 96.053413 233.260299 
z
" clip-path="url(#pbcb72f0803)" style="fill: none; stroke: #999999; stroke-linejoin: miter"/>
   </g>
   <g id="patch_66">
    <path d="M 113.338261 233.260299 
L 130.62311 233.260299 
L 130.62311 215.97545 
L 113.338261 215.97545 
z
" clip-path="url(#pbcb72f0803)" style="fill: #1f77b4; opacity: 0.4; stroke: #999999; stroke-linejoin: miter"/>
   </g>
   <g id="patch_67">
    <path d="M 185.934625 198.690602 
L 203.219473 198.690602 
L 203.219473 181.405753 
L 185.934625 181.405753 
z
" clip-path="url(#pbcb72f0803)" style="fill: #1f77b4; opacity: 0.4; stroke: #999999; stroke-linejoin: miter"/>
   </g>
   <g id="patch_68">
    <path d="M 203.219473 198.690602 
L 220.504322 198.690602 
L 220.504322 181.405753 
L 203.219473 181.405753 
L 203.219473 198.690602 
z
" clip-path="url(#pbcb72f0803)" style="fill: none; stroke: #999999; stroke-linejoin: miter"/>
   </g>
   <g id="patch_69">
    <path d="M 220.504322 198.690602 
L 237.78917 198.690602 
L 237.78917 181.405753 
L 220.504322 181.405753 
L 220.504322 198.690602 
z
" clip-path="url(#pbcb72f0803)" style="fill: none; stroke: #999999; stroke-linejoin: miter"/>
   </g>
   <g id="patch_70">
    <path d="M 185.934625 215.97545 
L 203.219473 215.97545 
L 203.219473 198.690602 
L 185.934625 198.690602 
L 185.934625 215.97545 
z
" clip-path="url(#pbcb72f0803)" style="fill: none; stroke: #999999; stroke-linejoin: miter"/>
   </g>
   <g id="patch_71">
    <path d="M 203.219473 215.97545 
L 220.504322 215.97545 
L 220.504322 198.690602 
L 203.219473 198.690602 
z
" clip-path="url(#pbcb72f0803)" style="fill: #1f77b4; opacity: 0.4; stroke: #999999; stroke-linejoin: miter"/>
   </g>
   <g id="patch_72">
    <path d="M 220.504322 215.97545 
L 237.78917 215.97545 
L 237.78917 198.690602 
L 220.504322 198.690602 
L 220.504322 215.97545 
z
" clip-path="url(#pbcb72f0803)" style="fill: none; stroke: #999999; stroke-linejoin: miter"/>
   </g>
   <g id="patch_73">
    <path d="M 185.934625 233.260299 
L 203.219473 233.260299 
L 203.219473 215.97545 
L 185.934625 215.97545 
L 185.934625 233.260299 
z
" clip-path="url(#pbcb72f0803)" style="fill: none; stroke: #999999; stroke-linejoin: miter"/>
   </g>
   <g id="patch_74">
    <path d="M 203.219473 233.260299 
L 220.504322 233.260299 
L 220.504322 215.97545 
L 203.219473 215.97545 
L 203.219473 233.260299 
z
" clip-path="url(#pbcb72f0803)" style="fill: none; stroke: #999999; stroke-linejoin: miter"/>
   </g>
   <g id="patch_75">
    <path d="M 220.504322 233.260299 
L 237.78917 233.260299 
L 237.78917 215.97545 
L 220.504322 215.97545 
z
" clip-path="url(#pbcb72f0803)" style="fill: #1f77b4; opacity: 0.4; stroke: #999999; stroke-linejoin: miter"/>
   </g>
   <g id="text_49">
    <!-- 0 -->
    <g style="fill: #d62728" transform="translate(101.912712 192.126303) scale(0.08 -0.08)">
     <use xlink:href="#DejaVuSans-Bold-13"/>
    </g>
   </g>
   <g id="text_50">
    <!-- 0 -->
    <g style="fill: #d62728" transform="translate(119.19756 192.126303) scale(0.08 -0.08)">
     <use xlink:href="#DejaVuSans-Bold-13"/>
    </g>
   </g>
   <g id="text_51">
    <!-- 0 -->
    <g style="fill: #d62728" transform="translate(84.627863 209.411151) scale(0.08 -0.08)">
     <use xlink:href="#DejaVuSans-Bold-13"/>
    </g>
   </g>
   <g id="text_52">
    <!-- 0 -->
    <g style="fill: #d62728" transform="translate(119.19756 209.411151) scale(0.08 -0.08)">
     <use xlink:href="#DejaVuSans-Bold-13"/>
    </g>
   </g>
   <g id="text_53">
    <!-- 0 -->
    <g style="fill: #d62728" transform="translate(84.627863 226.696) scale(0.08 -0.08)">
     <use xlink:href="#DejaVuSans-Bold-13"/>
    </g>
   </g>
   <g id="text_54">
    <!-- 0 -->
    <g style="fill: #d62728" transform="translate(101.912712 226.696) scale(0.08 -0.08)">
     <use xlink:href="#DejaVuSans-Bold-13"/>
    </g>
   </g>
   <g id="patch_76">
    <path d="M 128.626026 177.084541 
Q 104.69694 177.084541 80.767853 177.084541 
" style="fill: none; stroke: #8c8c8c; stroke-linecap: round"/>
   </g>
   <g id="text_55">
    <!-- peak 1 -->
    <g style="fill: #595959" transform="translate(90.262438 172.449822) scale(0.085 -0.085)">
     <use xlink:href="#DejaVuSans-53"/>
     <use xlink:href="#DejaVuSans-48" transform="translate(63.484375 0)"/>
     <use xlink:href="#DejaVuSans-44" transform="translate(125.015625 0)"/>
     <use xlink:href="#DejaVuSans-4e" transform="translate(186.296875 0)"/>
     <use xlink:href="#DejaVuSans-3" transform="translate(244.203125 0)"/>
     <use xlink:href="#DejaVuSans-14" transform="translate(275.984375 0)"/>
    </g>
   </g>
   <g id="text_56">
    <!-- //  ⋯  // -->
    <g style="fill: #999999" transform="translate(140.185117 227.215531) scale(0.1 -0.1)">
     <use xlink:href="#DejaVuSans-12"/>
     <use xlink:href="#DejaVuSans-12" transform="translate(33.6875 0)"/>
     <use xlink:href="#DejaVuSans-3" transform="translate(67.375 0)"/>
     <use xlink:href="#DejaVuSans-3" transform="translate(99.15625 0)"/>
     <use xlink:href="#DejaVuSans-d79" transform="translate(130.9375 0)"/>
     <use xlink:href="#DejaVuSans-3" transform="translate(230.9375 0)"/>
     <use xlink:href="#DejaVuSans-3" transform="translate(262.71875 0)"/>
     <use xlink:href="#DejaVuSans-12" transform="translate(294.5 0)"/>
     <use xlink:href="#DejaVuSans-12" transform="translate(328.1875 0)"/>
    </g>
   </g>
   <g id="text_57">
    <!-- 0 -->
    <g style="fill: #d62728" transform="translate(209.078772 192.126303) scale(0.08 -0.08)">
     <use xlink:href="#DejaVuSans-Bold-13"/>
    </g>
   </g>
   <g id="text_58">
    <!-- 0 -->
    <g style="fill: #d62728" transform="translate(226.363621 192.126303) scale(0.08 -0.08)">
     <use xlink:href="#DejaVuSans-Bold-13"/>
    </g>
   </g>
   <g id="text_59">
    <!-- 0 -->
    <g style="fill: #d62728" transform="translate(191.793924 209.411151) scale(0.08 -0.08)">
     <use xlink:href="#DejaVuSans-Bold-13"/>
    </g>
   </g>
   <g id="text_60">
    <!-- 0 -->
    <g style="fill: #d62728" transform="translate(226.363621 209.411151) scale(0.08 -0.08)">
     <use xlink:href="#DejaVuSans-Bold-13"/>
    </g>
   </g>
   <g id="text_61">
    <!-- 0 -->
    <g style="fill: #d62728" transform="translate(191.793924 226.696) scale(0.08 -0.08)">
     <use xlink:href="#DejaVuSans-Bold-13"/>
    </g>
   </g>
   <g id="text_62">
    <!-- 0 -->
    <g style="fill: #d62728" transform="translate(209.078772 226.696) scale(0.08 -0.08)">
     <use xlink:href="#DejaVuSans-Bold-13"/>
    </g>
   </g>
   <g id="patch_77">
    <path d="M 235.792087 177.084541 
Q 211.863 177.084541 187.933914 177.084541 
" style="fill: none; stroke: #8c8c8c; stroke-linecap: round"/>
   </g>
   <g id="text_63">
    <!-- peak 2 -->
    <g style="fill: #595959" transform="translate(197.428499 172.449822) scale(0.085 -0.085)">
     <use xlink:href="#DejaVuSans-53"/>
     <use xlink:href="#DejaVuSans-48" transform="translate(63.484375 0)"/>
     <use xlink:href="#DejaVuSans-44" transform="translate(125.015625 0)"/>
     <use xlink:href="#DejaVuSans-4e" transform="translate(186.296875 0)"/>
     <use xlink:href="#DejaVuSans-3" transform="translate(244.203125 0)"/>
     <use xlink:href="#DejaVuSans-15" transform="translate(275.984375 0)"/>
    </g>
   </g>
   <g id="text_64">
    <!-- scan 0 -->
    <g style="fill: #666666" transform="translate(45.683375 192.126303) scale(0.08 -0.08)">
     <use xlink:href="#DejaVuSans-56"/>
     <use xlink:href="#DejaVuSans-46" transform="translate(52.09375 0)"/>
     <use xlink:href="#DejaVuSans-44" transform="translate(107.078125 0)"/>
     <use xlink:href="#DejaVuSans-51" transform="translate(168.359375 0)"/>
     <use xlink:href="#DejaVuSans-3" transform="translate(231.734375 0)"/>
     <use xlink:href="#DejaVuSans-13" transform="translate(263.515625 0)"/>
    </g>
   </g>
   <g id="text_65">
    <!-- scan 1 -->
    <g style="fill: #666666" transform="translate(45.683375 209.411151) scale(0.08 -0.08)">
     <use xlink:href="#DejaVuSans-56"/>
     <use xlink:href="#DejaVuSans-46" transform="translate(52.09375 0)"/>
     <use xlink:href="#DejaVuSans-44" transform="translate(107.078125 0)"/>
     <use xlink:href="#DejaVuSans-51" transform="translate(168.359375 0)"/>
     <use xlink:href="#DejaVuSans-3" transform="translate(231.734375 0)"/>
     <use xlink:href="#DejaVuSans-14" transform="translate(263.515625 0)"/>
    </g>
   </g>
   <g id="text_66">
    <!-- scan 2 -->
    <g style="fill: #666666" transform="translate(45.683375 226.696) scale(0.08 -0.08)">
     <use xlink:href="#DejaVuSans-56"/>
     <use xlink:href="#DejaVuSans-46" transform="translate(52.09375 0)"/>
     <use xlink:href="#DejaVuSans-44" transform="translate(107.078125 0)"/>
     <use xlink:href="#DejaVuSans-51" transform="translate(168.359375 0)"/>
     <use xlink:href="#DejaVuSans-3" transform="translate(231.734375 0)"/>
     <use xlink:href="#DejaVuSans-15" transform="translate(263.515625 0)"/>
    </g>
   </g>
   <g id="text_67">
    <!-- each peak = ONE point = one staircase, far fewer columns, ~2/3 zeros -->
    <g style="fill: #4c4c4c" transform="translate(7.2 255.275334) scale(0.085 -0.085)">
     <defs>
      <path id="DejaVuSans-32" d="M 2522 4238 
Q 1834 4238 1429 3725 
Q 1025 3213 1025 2328 
Q 1025 1447 1429 934 
Q 1834 422 2522 422 
Q 3209 422 3611 934 
Q 4013 1447 4013 2328 
Q 4013 3213 3611 3725 
Q 3209 4238 2522 4238 
z
M 2522 4750 
Q 3503 4750 4090 4092 
Q 4678 3434 4678 2328 
Q 4678 1225 4090 567 
Q 3503 -91 2522 -91 
Q 1538 -91 948 565 
Q 359 1222 359 2328 
Q 359 3434 948 4092 
Q 1538 4750 2522 4750 
z
" transform="scale(0.015625)"/>
      <path id="DejaVuSans-28" d="M 628 4666 
L 3578 4666 
L 3578 4134 
L 1259 4134 
L 1259 2753 
L 3481 2753 
L 3481 2222 
L 1259 2222 
L 1259 531 
L 3634 531 
L 3634 0 
L 628 0 
L 628 4666 
z
" transform="scale(0.015625)"/>
      <path id="DejaVuSans-58" d="M 544 1381 
L 544 3500 
L 1119 3500 
L 1119 1403 
Q 1119 906 1312 657 
Q 1506 409 1894 409 
Q 2359 409 2629 706 
Q 2900 1003 2900 1516 
L 2900 3500 
L 3475 3500 
L 3475 0 
L 2900 0 
L 2900 538 
Q 2691 219 2414 64 
Q 2138 -91 1772 -91 
Q 1169 -91 856 284 
Q 544 659 544 1381 
z
M 1991 3584 
L 1991 3584 
z
" transform="scale(0.015625)"/>
      <path id="DejaVuSans-50" d="M 3328 2828 
Q 3544 3216 3844 3400 
Q 4144 3584 4550 3584 
Q 5097 3584 5394 3201 
Q 5691 2819 5691 2113 
L 5691 0 
L 5113 0 
L 5113 2094 
Q 5113 2597 4934 2840 
Q 4756 3084 4391 3084 
Q 3944 3084 3684 2787 
Q 3425 2491 3425 1978 
L 3425 0 
L 2847 0 
L 2847 2094 
Q 2847 2600 2669 2842 
Q 2491 3084 2119 3084 
Q 1678 3084 1418 2786 
Q 1159 2488 1159 1978 
L 1159 0 
L 581 0 
L 581 3500 
L 1159 3500 
L 1159 2956 
Q 1356 3278 1631 3431 
Q 1906 3584 2284 3584 
Q 2666 3584 2933 3390 
Q 3200 3197 3328 2828 
z
" transform="scale(0.015625)"/>
     </defs>
     <use xlink:href="#DejaVuSans-48"/>
     <use xlink:href="#DejaVuSans-44" transform="translate(61.53125 0)"/>
     <use xlink:href="#DejaVuSans-46" transform="translate(122.8125 0)"/>
     <use xlink:href="#DejaVuSans-4b" transform="translate(177.796875 0)"/>
     <use xlink:href="#DejaVuSans-3" transform="translate(241.171875 0)"/>
     <use xlink:href="#DejaVuSans-53" transform="translate(272.953125 0)"/>
     <use xlink:href="#DejaVuSans-48" transform="translate(336.4375 0)"/>
     <use xlink:href="#DejaVuSans-44" transform="translate(397.96875 0)"/>
     <use xlink:href="#DejaVuSans-4e" transform="translate(459.25 0)"/>
     <use xlink:href="#DejaVuSans-3" transform="translate(517.15625 0)"/>
     <use xlink:href="#DejaVuSans-20" transform="translate(548.9375 0)"/>
     <use xlink:href="#DejaVuSans-3" transform="translate(632.734375 0)"/>
     <use xlink:href="#DejaVuSans-32" transform="translate(664.515625 0)"/>
     <use xlink:href="#DejaVuSans-31" transform="translate(743.234375 0)"/>
     <use xlink:href="#DejaVuSans-28" transform="translate(818.046875 0)"/>
     <use xlink:href="#DejaVuSans-3" transform="translate(881.234375 0)"/>
     <use xlink:href="#DejaVuSans-53" transform="translate(913.015625 0)"/>
     <use xlink:href="#DejaVuSans-52" transform="translate(976.5 0)"/>
     <use xlink:href="#DejaVuSans-4c" transform="translate(1037.6875 0)"/>
     <use xlink:href="#DejaVuSans-51" transform="translate(1065.46875 0)"/>
     <use xlink:href="#DejaVuSans-57" transform="translate(1128.84375 0)"/>
     <use xlink:href="#DejaVuSans-3" transform="translate(1168.046875 0)"/>
     <use xlink:href="#DejaVuSans-20" transform="translate(1199.828125 0)"/>
     <use xlink:href="#DejaVuSans-3" transform="translate(1283.625 0)"/>
     <use xlink:href="#DejaVuSans-52" transform="translate(1315.40625 0)"/>
     <use xlink:href="#DejaVuSans-51" transform="translate(1376.59375 0)"/>
     <use xlink:href="#DejaVuSans-48" transform="translate(1439.96875 0)"/>
     <use xlink:href="#DejaVuSans-3" transform="translate(1501.5 0)"/>
     <use xlink:href="#DejaVuSans-56" transform="translate(1533.28125 0)"/>
     <use xlink:href="#DejaVuSans-57" transform="translate(1585.375 0)"/>
     <use xlink:href="#DejaVuSans-44" transform="translate(1624.578125 0)"/>
     <use xlink:href="#DejaVuSans-4c" transform="translate(1685.859375 0)"/>
     <use xlink:href="#DejaVuSans-55" transform="translate(1713.640625 0)"/>
     <use xlink:href="#DejaVuSans-46" transform="translate(1752.546875 0)"/>
     <use xlink:href="#DejaVuSans-44" transform="translate(1807.53125 0)"/>
     <use xlink:href="#DejaVuSans-56" transform="translate(1868.8125 0)"/>
     <use xlink:href="#DejaVuSans-48" transform="translate(1920.90625 0)"/>
     <use xlink:href="#DejaVuSans-f" transform="translate(1982.4375 0)"/>
     <use xlink:href="#DejaVuSans-3" transform="translate(2014.21875 0)"/>
     <use xlink:href="#DejaVuSans-49" transform="translate(2046 0)"/>
     <use xlink:href="#DejaVuSans-44" transform="translate(2081.203125 0)"/>
     <use xlink:href="#DejaVuSans-55" transform="translate(2142.484375 0)"/>
     <use xlink:href="#DejaVuSans-3" transform="translate(2183.59375 0)"/>
     <use xlink:href="#DejaVuSans-49" transform="translate(2215.375 0)"/>
     <use xlink:href="#DejaVuSans-48" transform="translate(2250.578125 0)"/>
     <use xlink:href="#DejaVuSans-5a" transform="translate(2312.109375 0)"/>
     <use xlink:href="#DejaVuSans-48" transform="translate(2393.890625 0)"/>
     <use xlink:href="#DejaVuSans-55" transform="translate(2455.421875 0)"/>
     <use xlink:href="#DejaVuSans-3" transform="translate(2496.53125 0)"/>
     <use xlink:href="#DejaVuSans-46" transform="translate(2528.3125 0)"/>
     <use xlink:href="#DejaVuSans-52" transform="translate(2583.296875 0)"/>
     <use xlink:href="#DejaVuSans-4f" transform="translate(2644.484375 0)"/>
     <use xlink:href="#DejaVuSans-58" transform="translate(2672.265625 0)"/>
     <use xlink:href="#DejaVuSans-50" transform="translate(2735.640625 0)"/>
     <use xlink:href="#DejaVuSans-51" transform="translate(2833.046875 0)"/>
     <use xlink:href="#DejaVuSans-56" transform="translate(2896.421875 0)"/>
     <use xlink:href="#DejaVuSans-f" transform="translate(2948.515625 0)"/>
     <use xlink:href="#DejaVuSans-3" transform="translate(2980.296875 0)"/>
     <use xlink:href="#DejaVuSans-61" transform="translate(3012.078125 0)"/>
     <use xlink:href="#DejaVuSans-15" transform="translate(3095.875 0)"/>
     <use xlink:href="#DejaVuSans-12" transform="translate(3159.5 0)"/>
     <use xlink:href="#DejaVuSans-16" transform="translate(3193.1875 0)"/>
     <use xlink:href="#DejaVuSans-3" transform="translate(3256.8125 0)"/>
     <use xlink:href="#DejaVuSans-5d" transform="translate(3288.59375 0)"/>
     <use xlink:href="#DejaVuSans-48" transform="translate(3341.078125 0)"/>
     <use xlink:href="#DejaVuSans-55" transform="translate(3402.609375 0)"/>
     <use xlink:href="#DejaVuSans-52" transform="translate(3441.515625 0)"/>
     <use xlink:href="#DejaVuSans-56" transform="translate(3502.703125 0)"/>
    </g>
   </g>
   <g id="text_68">
    <!-- (b) Centroid, binned -->
    <g transform="translate(213.536826 157.306359) scale(0.105 -0.105)">
     <defs>
      <path id="DejaVuSans-26" d="M 4122 4306 
L 4122 3641 
Q 3803 3938 3442 4084 
Q 3081 4231 2675 4231 
Q 1875 4231 1450 3742 
Q 1025 3253 1025 2328 
Q 1025 1406 1450 917 
Q 1875 428 2675 428 
Q 3081 428 3442 575 
Q 3803 722 4122 1019 
L 4122 359 
Q 3791 134 3420 21 
Q 3050 -91 2638 -91 
Q 1578 -91 968 557 
Q 359 1206 359 2328 
Q 359 3453 968 4101 
Q 1578 4750 2638 4750 
Q 3056 4750 3426 4639 
Q 3797 4528 4122 4306 
z
" transform="scale(0.015625)"/>
     </defs>
     <use xlink:href="#DejaVuSans-b"/>
     <use xlink:href="#DejaVuSans-45" transform="translate(39.015625 0)"/>
     <use xlink:href="#DejaVuSans-c" transform="translate(102.5 0)"/>
     <use xlink:href="#DejaVuSans-3" transform="translate(141.515625 0)"/>
     <use xlink:href="#DejaVuSans-26" transform="translate(173.296875 0)"/>
     <use xlink:href="#DejaVuSans-48" transform="translate(243.125 0)"/>
     <use xlink:href="#DejaVuSans-51" transform="translate(304.65625 0)"/>
     <use xlink:href="#DejaVuSans-57" transform="translate(368.03125 0)"/>
     <use xlink:href="#DejaVuSans-55" transform="translate(407.234375 0)"/>
     <use xlink:href="#DejaVuSans-52" transform="translate(446.140625 0)"/>
     <use xlink:href="#DejaVuSans-4c" transform="translate(507.328125 0)"/>
     <use xlink:href="#DejaVuSans-47" transform="translate(535.109375 0)"/>
     <use xlink:href="#DejaVuSans-f" transform="translate(598.59375 0)"/>
     <use xlink:href="#DejaVuSans-3" transform="translate(630.375 0)"/>
     <use xlink:href="#DejaVuSans-45" transform="translate(662.15625 0)"/>
     <use xlink:href="#DejaVuSans-4c" transform="translate(725.640625 0)"/>
     <use xlink:href="#DejaVuSans-51" transform="translate(753.421875 0)"/>
     <use xlink:href="#DejaVuSans-51" transform="translate(816.796875 0)"/>
     <use xlink:href="#DejaVuSans-48" transform="translate(880.171875 0)"/>
     <use xlink:href="#DejaVuSans-47" transform="translate(941.703125 0)"/>
    </g>
   </g>
  </g>
  <g id="text_69">
   <!-- blue = a scan's nonzero value     0 = zero     // = dropped empty bins -->
   <g style="fill: #666666" transform="translate(119.189795 292.640363) scale(0.08 -0.08)">
    <defs>
     <path id="DejaVuSans-a" d="M 1147 4666 
L 1147 2931 
L 616 2931 
L 616 4666 
L 1147 4666 
z
" transform="scale(0.015625)"/>
     <path id="DejaVuSans-59" d="M 191 3500 
L 800 3500 
L 1894 563 
L 2988 3500 
L 3597 3500 
L 2284 0 
L 1503 0 
L 191 3500 
z
" transform="scale(0.015625)"/>
     <path id="DejaVuSans-5c" d="M 2059 -325 
Q 1816 -950 1584 -1140 
Q 1353 -1331 966 -1331 
L 506 -1331 
L 506 -850 
L 844 -850 
Q 1081 -850 1212 -737 
Q 1344 -625 1503 -206 
L 1606 56 
L 191 3500 
L 800 3500 
L 1894 763 
L 2988 3500 
L 3597 3500 
L 2059 -325 
z
" transform="scale(0.015625)"/>
    </defs>
    <use xlink:href="#DejaVuSans-45"/>
    <use xlink:href="#DejaVuSans-4f" transform="translate(63.484375 0)"/>
    <use xlink:href="#DejaVuSans-58" transform="translate(91.265625 0)"/>
    <use xlink:href="#DejaVuSans-48" transform="translate(154.640625 0)"/>
    <use xlink:href="#DejaVuSans-3" transform="translate(216.171875 0)"/>
    <use xlink:href="#DejaVuSans-20" transform="translate(247.953125 0)"/>
    <use xlink:href="#DejaVuSans-3" transform="translate(331.75 0)"/>
    <use xlink:href="#DejaVuSans-44" transform="translate(363.53125 0)"/>
    <use xlink:href="#DejaVuSans-3" transform="translate(424.8125 0)"/>
    <use xlink:href="#DejaVuSans-56" transform="translate(456.59375 0)"/>
    <use xlink:href="#DejaVuSans-46" transform="translate(508.6875 0)"/>
    <use xlink:href="#DejaVuSans-44" transform="translate(563.671875 0)"/>
    <use xlink:href="#DejaVuSans-51" transform="translate(624.953125 0)"/>
    <use xlink:href="#DejaVuSans-a" transform="translate(688.328125 0)"/>
    <use xlink:href="#DejaVuSans-56" transform="translate(715.8125 0)"/>
    <use xlink:href="#DejaVuSans-3" transform="translate(767.90625 0)"/>
    <use xlink:href="#DejaVuSans-51" transform="translate(799.6875 0)"/>
    <use xlink:href="#DejaVuSans-52" transform="translate(863.0625 0)"/>
    <use xlink:href="#DejaVuSans-51" transform="translate(924.25 0)"/>
    <use xlink:href="#DejaVuSans-5d" transform="translate(987.625 0)"/>
    <use xlink:href="#DejaVuSans-48" transform="translate(1040.109375 0)"/>
    <use xlink:href="#DejaVuSans-55" transform="translate(1101.640625 0)"/>
    <use xlink:href="#DejaVuSans-52" transform="translate(1140.546875 0)"/>
    <use xlink:href="#DejaVuSans-3" transform="translate(1201.734375 0)"/>
    <use xlink:href="#DejaVuSans-59" transform="translate(1233.515625 0)"/>
    <use xlink:href="#DejaVuSans-44" transform="translate(1292.703125 0)"/>
    <use xlink:href="#DejaVuSans-4f" transform="translate(1353.984375 0)"/>
    <use xlink:href="#DejaVuSans-58" transform="translate(1381.765625 0)"/>
    <use xlink:href="#DejaVuSans-48" transform="translate(1445.140625 0)"/>
    <use xlink:href="#DejaVuSans-3" transform="translate(1506.671875 0)"/>
    <use xlink:href="#DejaVuSans-3" transform="translate(1538.453125 0)"/>
    <use xlink:href="#DejaVuSans-3" transform="translate(1570.234375 0)"/>
    <use xlink:href="#DejaVuSans-3" transform="translate(1602.015625 0)"/>
    <use xlink:href="#DejaVuSans-3" transform="translate(1633.796875 0)"/>
    <use xlink:href="#DejaVuSans-13" transform="translate(1665.578125 0)"/>
    <use xlink:href="#DejaVuSans-3" transform="translate(1729.203125 0)"/>
    <use xlink:href="#DejaVuSans-20" transform="translate(1760.984375 0)"/>
    <use xlink:href="#DejaVuSans-3" transform="translate(1844.78125 0)"/>
    <use xlink:href="#DejaVuSans-5d" transform="translate(1876.5625 0)"/>
    <use xlink:href="#DejaVuSans-48" transform="translate(1929.046875 0)"/>
    <use xlink:href="#DejaVuSans-55" transform="translate(1990.578125 0)"/>
    <use xlink:href="#DejaVuSans-52" transform="translate(2029.484375 0)"/>
    <use xlink:href="#DejaVuSans-3" transform="translate(2090.671875 0)"/>
    <use xlink:href="#DejaVuSans-3" transform="translate(2122.453125 0)"/>
    <use xlink:href="#DejaVuSans-3" transform="translate(2154.234375 0)"/>
    <use xlink:href="#DejaVuSans-3" transform="translate(2186.015625 0)"/>
    <use xlink:href="#DejaVuSans-3" transform="translate(2217.796875 0)"/>
    <use xlink:href="#DejaVuSans-12" transform="translate(2249.578125 0)"/>
    <use xlink:href="#DejaVuSans-12" transform="translate(2283.265625 0)"/>
    <use xlink:href="#DejaVuSans-3" transform="translate(2316.953125 0)"/>
    <use xlink:href="#DejaVuSans-20" transform="translate(2348.734375 0)"/>
    <use xlink:href="#DejaVuSans-3" transform="translate(2432.53125 0)"/>
    <use xlink:href="#DejaVuSans-47" transform="translate(2464.3125 0)"/>
    <use xlink:href="#DejaVuSans-55" transform="translate(2527.796875 0)"/>
    <use xlink:href="#DejaVuSans-52" transform="translate(2566.703125 0)"/>
    <use xlink:href="#DejaVuSans-53" transform="translate(2627.890625 0)"/>
    <use xlink:href="#DejaVuSans-53" transform="translate(2691.375 0)"/>
    <use xlink:href="#DejaVuSans-48" transform="translate(2754.859375 0)"/>
    <use xlink:href="#DejaVuSans-47" transform="translate(2816.390625 0)"/>
    <use xlink:href="#DejaVuSans-3" transform="translate(2879.875 0)"/>
    <use xlink:href="#DejaVuSans-48" transform="translate(2911.65625 0)"/>
    <use xlink:href="#DejaVuSans-50" transform="translate(2973.1875 0)"/>
    <use xlink:href="#DejaVuSans-53" transform="translate(3070.59375 0)"/>
    <use xlink:href="#DejaVuSans-57" transform="translate(3134.078125 0)"/>
    <use xlink:href="#DejaVuSans-5c" transform="translate(3173.28125 0)"/>
    <use xlink:href="#DejaVuSans-3" transform="translate(3232.46875 0)"/>
    <use xlink:href="#DejaVuSans-45" transform="translate(3264.25 0)"/>
    <use xlink:href="#DejaVuSans-4c" transform="translate(3327.734375 0)"/>
    <use xlink:href="#DejaVuSans-51" transform="translate(3355.515625 0)"/>
    <use xlink:href="#DejaVuSans-56" transform="translate(3418.890625 0)"/>
   </g>
  </g>
 </g>
 <defs>
  <clipPath id="pb7c5c1c602">
   <rect x="9.62917" y="27.178359" width="513.36" height="84.695758"/>
  </clipPath>
  <clipPath id="pbcb72f0803">
   <rect x="9.62917" y="169.306359" width="513.36" height="84.695758"/>
  </clipPath>
 </defs>
</svg>
