<?xml version="1.0" encoding="utf-8" standalone="no"?>
<!DOCTYPE svg PUBLIC "-//W3C//DTD SVG 1.1//EN"
  "http://www.w3.org/Graphics/SVG/1.1/DTD/svg11.dtd">
<svg xmlns:xlink="http://www.w3.org/1999/xlink" width="586.074221pt" height="410.534437pt" viewBox="0 0 586.074221 410.534437" xmlns="http://www.w3.org/2000/svg" version="1.1">
 <metadata>
  <rdf:RDF xmlns:dc="http://purl.org/dc/elements/1.1/" xmlns:cc="http://creativecommons.org/ns#" xmlns:rdf="http://www.w3.org/1999/02/22-rdf-syntax-ns#">
   <cc:Work>
    <dc:type rdf:resource="http://purl.org/dc/dcmitype/StillImage"/>
    <dc:date>2026-06-24T13:43:55.175795</dc:date>
    <dc:format>image/svg+xml</dc:format>
    <dc:creator>
     <cc:Agent>
      <dc:title>Matplotlib v3.11.0, https://matplotlib.org/</dc:title>
     </cc:Agent>
    </dc:creator>
   </cc:Work>
  </rdf:RDF>
 </metadata>
 <defs>
  <style type="text/css">*{stroke-linejoin: round; stroke-linecap: butt}</style>
 </defs>
 <g id="figure_1">
  <g id="patch_1">
   <path d="M 0 410.534437 
L 586.074221 410.534437 
L 586.074221 0 
L 0 0 
z
" style="fill: #ffffff"/>
  </g>
  <g id="axes_1">
   <g id="patch_2">
    <path d="M 225.856275 62.505104 
L 273.63314 62.505104 
L 273.63314 37.971771 
L 225.856275 37.971771 
z
" clip-path="url(#p263b16d21f)" style="fill: #2ca02c; opacity: 0.28; stroke: #808080; stroke-linejoin: miter"/>
   </g>
   <g id="patch_3">
    <path d="M 273.63314 62.505104 
L 321.410005 62.505104 
L 321.410005 37.971771 
L 273.63314 37.971771 
z
" clip-path="url(#p263b16d21f)" style="fill: #2ca02c; opacity: 0.28; stroke: #808080; stroke-linejoin: miter"/>
   </g>
   <g id="patch_4">
    <path d="M 321.410005 62.505104 
L 369.18687 62.505104 
L 369.18687 37.971771 
L 321.410005 37.971771 
z
" clip-path="url(#p263b16d21f)" style="fill: #2ca02c; opacity: 0.28; stroke: #808080; stroke-linejoin: miter"/>
   </g>
   <g id="patch_5">
    <path d="M 369.18687 62.505104 
L 416.963734 62.505104 
L 416.963734 37.971771 
L 369.18687 37.971771 
z
" clip-path="url(#p263b16d21f)" style="fill: #2ca02c; opacity: 0.28; stroke: #808080; stroke-linejoin: miter"/>
   </g>
   <g id="patch_6">
    <path d="M 416.963734 62.505104 
L 464.740599 62.505104 
L 464.740599 37.971771 
L 416.963734 37.971771 
z
" clip-path="url(#p263b16d21f)" style="fill: #2ca02c; opacity: 0.28; stroke: #808080; stroke-linejoin: miter"/>
   </g>
   <g id="patch_7">
    <path d="M 225.856275 87.038437 
L 273.63314 87.038437 
L 273.63314 62.505104 
L 225.856275 62.505104 
L 225.856275 87.038437 
z
" clip-path="url(#p263b16d21f)" style="fill: none; stroke: #808080; stroke-linejoin: miter"/>
   </g>
   <g id="patch_8">
    <path d="M 273.63314 87.038437 
L 321.410005 87.038437 
L 321.410005 62.505104 
L 273.63314 62.505104 
L 273.63314 87.038437 
z
" clip-path="url(#p263b16d21f)" style="fill: none; stroke: #808080; stroke-linejoin: miter"/>
   </g>
   <g id="patch_9">
    <path d="M 321.410005 87.038437 
L 369.18687 87.038437 
L 369.18687 62.505104 
L 321.410005 62.505104 
L 321.410005 87.038437 
z
" clip-path="url(#p263b16d21f)" style="fill: none; stroke: #808080; stroke-linejoin: miter"/>
   </g>
   <g id="patch_10">
    <path d="M 369.18687 87.038437 
L 416.963734 87.038437 
L 416.963734 62.505104 
L 369.18687 62.505104 
L 369.18687 87.038437 
z
" clip-path="url(#p263b16d21f)" style="fill: none; stroke: #808080; stroke-linejoin: miter"/>
   </g>
   <g id="patch_11">
    <path d="M 416.963734 87.038437 
L 464.740599 87.038437 
L 464.740599 62.505104 
L 416.963734 62.505104 
L 416.963734 87.038437 
z
" clip-path="url(#p263b16d21f)" style="fill: none; stroke: #808080; stroke-linejoin: miter"/>
   </g>
   <g id="patch_12">
    <path d="M 225.856275 111.571771 
L 273.63314 111.571771 
L 273.63314 87.038437 
L 225.856275 87.038437 
z
" clip-path="url(#p263b16d21f)" style="fill: #2ca02c; opacity: 0.28; stroke: #808080; stroke-linejoin: miter"/>
   </g>
   <g id="patch_13">
    <path d="M 273.63314 111.571771 
L 321.410005 111.571771 
L 321.410005 87.038437 
L 273.63314 87.038437 
z
" clip-path="url(#p263b16d21f)" style="fill: #2ca02c; opacity: 0.28; stroke: #808080; stroke-linejoin: miter"/>
   </g>
   <g id="patch_14">
    <path d="M 321.410005 111.571771 
L 369.18687 111.571771 
L 369.18687 87.038437 
L 321.410005 87.038437 
z
" clip-path="url(#p263b16d21f)" style="fill: #2ca02c; opacity: 0.28; stroke: #808080; stroke-linejoin: miter"/>
   </g>
   <g id="patch_15">
    <path d="M 369.18687 111.571771 
L 416.963734 111.571771 
L 416.963734 87.038437 
L 369.18687 87.038437 
z
" clip-path="url(#p263b16d21f)" style="fill: #2ca02c; opacity: 0.28; stroke: #808080; stroke-linejoin: miter"/>
   </g>
   <g id="patch_16">
    <path d="M 416.963734 111.571771 
L 464.740599 111.571771 
L 464.740599 87.038437 
L 416.963734 87.038437 
z
" clip-path="url(#p263b16d21f)" style="fill: #2ca02c; opacity: 0.28; stroke: #808080; stroke-linejoin: miter"/>
   </g>
   <g id="text_1">
    <!-- 100.00 -->
    <g style="fill: #2ca02c" transform="translate(234.873692 32.985779) scale(0.085 -0.085)">
     <defs>
      <path id="DejaVuSans-14" d="M 794 531 
L 1825 531 
L 1825 4091 
L 703 3866 
L 703 4441 
L 1819 4666 
L 2450 4666 
L 2450 531 
L 3481 531 
L 3481 0 
L 794 0 
L 794 531 
z
" transform="scale(0.015625)"/>
      <path id="DejaVuSans-13" d="M 2034 4250 
Q 1547 4250 1301 3770 
Q 1056 3291 1056 2328 
Q 1056 1369 1301 889 
Q 1547 409 2034 409 
Q 2525 409 2770 889 
Q 3016 1369 3016 2328 
Q 3016 3291 2770 3770 
Q 2525 4250 2034 4250 
z
M 2034 4750 
Q 2819 4750 3233 4129 
Q 3647 3509 3647 2328 
Q 3647 1150 3233 529 
Q 2819 -91 2034 -91 
Q 1250 -91 836 529 
Q 422 1150 422 2328 
Q 422 3509 836 4129 
Q 1250 4750 2034 4750 
z
" transform="scale(0.015625)"/>
      <path id="DejaVuSans-11" d="M 684 794 
L 1344 794 
L 1344 0 
L 684 0 
L 684 794 
z
" transform="scale(0.015625)"/>
     </defs>
     <use xlink:href="#DejaVuSans-14"/>
     <use xlink:href="#DejaVuSans-13" transform="translate(63.625 0)"/>
     <use xlink:href="#DejaVuSans-13" transform="translate(127.25 0)"/>
     <use xlink:href="#DejaVuSans-11" transform="translate(190.875 0)"/>
     <use xlink:href="#DejaVuSans-13" transform="translate(222.65625 0)"/>
     <use xlink:href="#DejaVuSans-13" transform="translate(286.28125 0)"/>
    </g>
   </g>
   <g id="text_2">
    <!-- 100.00 -->
    <g style="fill: #2ca02c" transform="translate(234.873692 122.445779) scale(0.085 -0.085)">
     <use xlink:href="#DejaVuSans-14"/>
     <use xlink:href="#DejaVuSans-13" transform="translate(63.625 0)"/>
     <use xlink:href="#DejaVuSans-13" transform="translate(127.25 0)"/>
     <use xlink:href="#DejaVuSans-11" transform="translate(190.875 0)"/>
     <use xlink:href="#DejaVuSans-13" transform="translate(222.65625 0)"/>
     <use xlink:href="#DejaVuSans-13" transform="translate(286.28125 0)"/>
    </g>
   </g>
   <g id="text_3">
    <!-- 100.02 -->
    <g style="fill: #2ca02c" transform="translate(282.650557 32.985779) scale(0.085 -0.085)">
     <defs>
      <path id="DejaVuSans-15" d="M 1228 531 
L 3431 531 
L 3431 0 
L 469 0 
L 469 531 
Q 828 903 1448 1529 
Q 2069 2156 2228 2338 
Q 2531 2678 2651 2914 
Q 2772 3150 2772 3378 
Q 2772 3750 2511 3984 
Q 2250 4219 1831 4219 
Q 1534 4219 1204 4116 
Q 875 4013 500 3803 
L 500 4441 
Q 881 4594 1212 4672 
Q 1544 4750 1819 4750 
Q 2544 4750 2975 4387 
Q 3406 4025 3406 3419 
Q 3406 3131 3298 2873 
Q 3191 2616 2906 2266 
Q 2828 2175 2409 1742 
Q 1991 1309 1228 531 
z
" transform="scale(0.015625)"/>
     </defs>
     <use xlink:href="#DejaVuSans-14"/>
     <use xlink:href="#DejaVuSans-13" transform="translate(63.625 0)"/>
     <use xlink:href="#DejaVuSans-13" transform="translate(127.25 0)"/>
     <use xlink:href="#DejaVuSans-11" transform="translate(190.875 0)"/>
     <use xlink:href="#DejaVuSans-13" transform="translate(222.65625 0)"/>
     <use xlink:href="#DejaVuSans-15" transform="translate(286.28125 0)"/>
    </g>
   </g>
   <g id="text_4">
    <!-- 100.02 -->
    <g style="fill: #2ca02c" transform="translate(282.650557 122.445779) scale(0.085 -0.085)">
     <use xlink:href="#DejaVuSans-14"/>
     <use xlink:href="#DejaVuSans-13" transform="translate(63.625 0)"/>
     <use xlink:href="#DejaVuSans-13" transform="translate(127.25 0)"/>
     <use xlink:href="#DejaVuSans-11" transform="translate(190.875 0)"/>
     <use xlink:href="#DejaVuSans-13" transform="translate(222.65625 0)"/>
     <use xlink:href="#DejaVuSans-15" transform="translate(286.28125 0)"/>
    </g>
   </g>
   <g id="text_5">
    <!-- 100.03 -->
    <g style="fill: #2ca02c" transform="translate(330.427421 32.985779) scale(0.085 -0.085)">
     <defs>
      <path id="DejaVuSans-16" d="M 2597 2516 
Q 3050 2419 3304 2112 
Q 3559 1806 3559 1356 
Q 3559 666 3084 287 
Q 2609 -91 1734 -91 
Q 1441 -91 1130 -33 
Q 819 25 488 141 
L 488 750 
Q 750 597 1062 519 
Q 1375 441 1716 441 
Q 2309 441 2620 675 
Q 2931 909 2931 1356 
Q 2931 1769 2642 2001 
Q 2353 2234 1838 2234 
L 1294 2234 
L 1294 2753 
L 1863 2753 
Q 2328 2753 2575 2939 
Q 2822 3125 2822 3475 
Q 2822 3834 2567 4026 
Q 2313 4219 1838 4219 
Q 1578 4219 1281 4162 
Q 984 4106 628 3988 
L 628 4550 
Q 988 4650 1302 4700 
Q 1616 4750 1894 4750 
Q 2613 4750 3031 4423 
Q 3450 4097 3450 3541 
Q 3450 3153 3228 2886 
Q 3006 2619 2597 2516 
z
" transform="scale(0.015625)"/>
     </defs>
     <use xlink:href="#DejaVuSans-14"/>
     <use xlink:href="#DejaVuSans-13" transform="translate(63.625 0)"/>
     <use xlink:href="#DejaVuSans-13" transform="translate(127.25 0)"/>
     <use xlink:href="#DejaVuSans-11" transform="translate(190.875 0)"/>
     <use xlink:href="#DejaVuSans-13" transform="translate(222.65625 0)"/>
     <use xlink:href="#DejaVuSans-16" transform="translate(286.28125 0)"/>
    </g>
   </g>
   <g id="text_6">
    <!-- 100.03 -->
    <g style="fill: #2ca02c" transform="translate(330.427421 122.445779) scale(0.085 -0.085)">
     <use xlink:href="#DejaVuSans-14"/>
     <use xlink:href="#DejaVuSans-13" transform="translate(63.625 0)"/>
     <use xlink:href="#DejaVuSans-13" transform="translate(127.25 0)"/>
     <use xlink:href="#DejaVuSans-11" transform="translate(190.875 0)"/>
     <use xlink:href="#DejaVuSans-13" transform="translate(222.65625 0)"/>
     <use xlink:href="#DejaVuSans-16" transform="translate(286.28125 0)"/>
    </g>
   </g>
   <g id="text_7">
    <!-- 100.05 -->
    <g style="fill: #2ca02c" transform="translate(378.204286 32.985779) scale(0.085 -0.085)">
     <defs>
      <path id="DejaVuSans-18" d="M 691 4666 
L 3169 4666 
L 3169 4134 
L 1269 4134 
L 1269 2991 
Q 1406 3038 1543 3061 
Q 1681 3084 1819 3084 
Q 2600 3084 3056 2656 
Q 3513 2228 3513 1497 
Q 3513 744 3044 326 
Q 2575 -91 1722 -91 
Q 1428 -91 1123 -41 
Q 819 9 494 109 
L 494 744 
Q 775 591 1075 516 
Q 1375 441 1709 441 
Q 2250 441 2565 725 
Q 2881 1009 2881 1497 
Q 2881 1984 2565 2268 
Q 2250 2553 1709 2553 
Q 1456 2553 1204 2497 
Q 953 2441 691 2322 
L 691 4666 
z
" transform="scale(0.015625)"/>
     </defs>
     <use xlink:href="#DejaVuSans-14"/>
     <use xlink:href="#DejaVuSans-13" transform="translate(63.625 0)"/>
     <use xlink:href="#DejaVuSans-13" transform="translate(127.25 0)"/>
     <use xlink:href="#DejaVuSans-11" transform="translate(190.875 0)"/>
     <use xlink:href="#DejaVuSans-13" transform="translate(222.65625 0)"/>
     <use xlink:href="#DejaVuSans-18" transform="translate(286.28125 0)"/>
    </g>
   </g>
   <g id="text_8">
    <!-- 100.05 -->
    <g style="fill: #2ca02c" transform="translate(378.204286 122.445779) scale(0.085 -0.085)">
     <use xlink:href="#DejaVuSans-14"/>
     <use xlink:href="#DejaVuSans-13" transform="translate(63.625 0)"/>
     <use xlink:href="#DejaVuSans-13" transform="translate(127.25 0)"/>
     <use xlink:href="#DejaVuSans-11" transform="translate(190.875 0)"/>
     <use xlink:href="#DejaVuSans-13" transform="translate(222.65625 0)"/>
     <use xlink:href="#DejaVuSans-18" transform="translate(286.28125 0)"/>
    </g>
   </g>
   <g id="text_9">
    <!-- $\cdots$ -->
    <g style="fill: #2ca02c" transform="translate(436.602167 32.985779) scale(0.085 -0.085)">
     <defs>
      <path id="DejaVuSans-d79" d="M 737 2388 
L 1397 2388 
L 1397 1594 
L 737 1594 
L 737 2388 
z
M 2868 2388 
L 3528 2388 
L 3528 1594 
L 2868 1594 
L 2868 2388 
z
M 5000 2388 
L 5660 2388 
L 5660 1594 
L 5000 1594 
L 5000 2388 
z
" transform="scale(0.015625)"/>
     </defs>
     <use xlink:href="#DejaVuSans-d79" transform="translate(0 0.6875)"/>
    </g>
   </g>
   <g id="text_10">
    <!-- $\cdots$ -->
    <g style="fill: #2ca02c" transform="translate(436.602167 122.445779) scale(0.085 -0.085)">
     <use xlink:href="#DejaVuSans-d79" transform="translate(0 0.6875)"/>
    </g>
   </g>
   <g id="text_11">
    <!-- m/z = PER-ARRAY mass labels (ylabels): -->
    <g style="fill: #2ca02c" transform="translate(7.2 32.745544) scale(0.095 -0.095)">
     <defs>
      <path id="DejaVuSans-Bold-50" d="M 3781 2919 
Q 3994 3244 4286 3414 
Q 4578 3584 4928 3584 
Q 5531 3584 5847 3212 
Q 6163 2841 6163 2131 
L 6163 0 
L 5038 0 
L 5038 1825 
Q 5041 1866 5042 1909 
Q 5044 1953 5044 2034 
Q 5044 2406 4934 2573 
Q 4825 2741 4581 2741 
Q 4263 2741 4089 2478 
Q 3916 2216 3909 1719 
L 3909 0 
L 2784 0 
L 2784 1825 
Q 2784 2406 2684 2573 
Q 2584 2741 2328 2741 
Q 2006 2741 1831 2477 
Q 1656 2213 1656 1722 
L 1656 0 
L 531 0 
L 531 3500 
L 1656 3500 
L 1656 2988 
Q 1863 3284 2130 3434 
Q 2397 3584 2719 3584 
Q 3081 3584 3359 3409 
Q 3638 3234 3781 2919 
z
" transform="scale(0.015625)"/>
      <path id="DejaVuSans-Bold-12" d="M 1644 4666 
L 2338 4666 
L 691 -594 
L 0 -594 
L 1644 4666 
z
" transform="scale(0.015625)"/>
      <path id="DejaVuSans-Bold-5d" d="M 366 3500 
L 3419 3500 
L 3419 2719 
L 1575 800 
L 3419 800 
L 3419 0 
L 288 0 
L 288 781 
L 2131 2700 
L 366 2700 
L 366 3500 
z
" transform="scale(0.015625)"/>
      <path id="DejaVuSans-Bold-3" transform="scale(0.015625)"/>
      <path id="DejaVuSans-Bold-20" d="M 678 3084 
L 4684 3084 
L 4684 2350 
L 678 2350 
L 678 3084 
z
M 678 1663 
L 4684 1663 
L 4684 922 
L 678 922 
L 678 1663 
z
" transform="scale(0.015625)"/>
      <path id="DejaVuSans-Bold-33" d="M 588 4666 
L 2584 4666 
Q 3475 4666 3951 4270 
Q 4428 3875 4428 3144 
Q 4428 2409 3951 2014 
Q 3475 1619 2584 1619 
L 1791 1619 
L 1791 0 
L 588 0 
L 588 4666 
z
M 1791 3794 
L 1791 2491 
L 2456 2491 
Q 2806 2491 2997 2661 
Q 3188 2831 3188 3144 
Q 3188 3456 2997 3625 
Q 2806 3794 2456 3794 
L 1791 3794 
z
" transform="scale(0.015625)"/>
      <path id="DejaVuSans-Bold-28" d="M 588 4666 
L 3834 4666 
L 3834 3756 
L 1791 3756 
L 1791 2888 
L 3713 2888 
L 3713 1978 
L 1791 1978 
L 1791 909 
L 3903 909 
L 3903 0 
L 588 0 
L 588 4666 
z
" transform="scale(0.015625)"/>
      <path id="DejaVuSans-Bold-35" d="M 2297 2597 
Q 2675 2597 2839 2737 
Q 3003 2878 3003 3200 
Q 3003 3519 2839 3656 
Q 2675 3794 2297 3794 
L 1791 3794 
L 1791 2597 
L 2297 2597 
z
M 1791 1766 
L 1791 0 
L 588 0 
L 588 4666 
L 2425 4666 
Q 3347 4666 3776 4356 
Q 4206 4047 4206 3378 
Q 4206 2916 3982 2619 
Q 3759 2322 3309 2181 
Q 3556 2125 3751 1926 
Q 3947 1728 4147 1325 
L 4800 0 
L 3519 0 
L 2950 1159 
Q 2778 1509 2601 1637 
Q 2425 1766 2131 1766 
L 1791 1766 
z
" transform="scale(0.015625)"/>
      <path id="DejaVuSans-Bold-10" d="M 347 2297 
L 2309 2297 
L 2309 1388 
L 347 1388 
L 347 2297 
z
" transform="scale(0.015625)"/>
      <path id="DejaVuSans-Bold-24" d="M 3419 850 
L 1538 850 
L 1241 0 
L 31 0 
L 1759 4666 
L 3194 4666 
L 4922 0 
L 3713 0 
L 3419 850 
z
M 1838 1716 
L 3116 1716 
L 2478 3572 
L 1838 1716 
z
" transform="scale(0.015625)"/>
      <path id="DejaVuSans-Bold-3c" d="M -63 4666 
L 1253 4666 
L 2316 3003 
L 3378 4666 
L 4697 4666 
L 2919 1966 
L 2919 0 
L 1716 0 
L 1716 1966 
L -63 4666 
z
" transform="scale(0.015625)"/>
      <path id="DejaVuSans-Bold-44" d="M 2106 1575 
Q 1756 1575 1579 1456 
Q 1403 1338 1403 1106 
Q 1403 894 1545 773 
Q 1688 653 1941 653 
Q 2256 653 2472 879 
Q 2688 1106 2688 1447 
L 2688 1575 
L 2106 1575 
z
M 3816 1997 
L 3816 0 
L 2688 0 
L 2688 519 
Q 2463 200 2181 54 
Q 1900 -91 1497 -91 
Q 953 -91 614 226 
Q 275 544 275 1050 
Q 275 1666 698 1953 
Q 1122 2241 2028 2241 
L 2688 2241 
L 2688 2328 
Q 2688 2594 2478 2717 
Q 2269 2841 1825 2841 
Q 1466 2841 1156 2769 
Q 847 2697 581 2553 
L 581 3406 
Q 941 3494 1303 3539 
Q 1666 3584 2028 3584 
Q 2975 3584 3395 3211 
Q 3816 2838 3816 1997 
z
" transform="scale(0.015625)"/>
      <path id="DejaVuSans-Bold-56" d="M 3272 3391 
L 3272 2541 
Q 2913 2691 2578 2766 
Q 2244 2841 1947 2841 
Q 1628 2841 1473 2761 
Q 1319 2681 1319 2516 
Q 1319 2381 1436 2309 
Q 1553 2238 1856 2203 
L 2053 2175 
Q 2913 2066 3209 1816 
Q 3506 1566 3506 1031 
Q 3506 472 3093 190 
Q 2681 -91 1863 -91 
Q 1516 -91 1145 -36 
Q 775 19 384 128 
L 384 978 
Q 719 816 1070 734 
Q 1422 653 1784 653 
Q 2113 653 2278 743 
Q 2444 834 2444 1013 
Q 2444 1163 2330 1236 
Q 2216 1309 1875 1350 
L 1678 1375 
Q 931 1469 631 1722 
Q 331 1975 331 2491 
Q 331 3047 712 3315 
Q 1094 3584 1881 3584 
Q 2191 3584 2531 3537 
Q 2872 3491 3272 3391 
z
" transform="scale(0.015625)"/>
      <path id="DejaVuSans-Bold-4f" d="M 538 4863 
L 1656 4863 
L 1656 0 
L 538 0 
L 538 4863 
z
" transform="scale(0.015625)"/>
      <path id="DejaVuSans-Bold-45" d="M 2400 722 
Q 2759 722 2948 984 
Q 3138 1247 3138 1747 
Q 3138 2247 2948 2509 
Q 2759 2772 2400 2772 
Q 2041 2772 1848 2508 
Q 1656 2244 1656 1747 
Q 1656 1250 1848 986 
Q 2041 722 2400 722 
z
M 1656 2988 
Q 1888 3294 2169 3439 
Q 2450 3584 2816 3584 
Q 3463 3584 3878 3070 
Q 4294 2556 4294 1747 
Q 4294 938 3878 423 
Q 3463 -91 2816 -91 
Q 2450 -91 2169 54 
Q 1888 200 1656 506 
L 1656 0 
L 538 0 
L 538 4863 
L 1656 4863 
L 1656 2988 
z
" transform="scale(0.015625)"/>
      <path id="DejaVuSans-Bold-48" d="M 4031 1759 
L 4031 1441 
L 1416 1441 
Q 1456 1047 1700 850 
Q 1944 653 2381 653 
Q 2734 653 3104 758 
Q 3475 863 3866 1075 
L 3866 213 
Q 3469 63 3072 -14 
Q 2675 -91 2278 -91 
Q 1328 -91 801 392 
Q 275 875 275 1747 
Q 275 2603 792 3093 
Q 1309 3584 2216 3584 
Q 3041 3584 3536 3087 
Q 4031 2591 4031 1759 
z
M 2881 2131 
Q 2881 2450 2695 2645 
Q 2509 2841 2209 2841 
Q 1884 2841 1681 2658 
Q 1478 2475 1428 2131 
L 2881 2131 
z
" transform="scale(0.015625)"/>
      <path id="DejaVuSans-Bold-b" d="M 2413 -844 
L 1484 -844 
Q 1006 -72 778 623 
Q 550 1319 550 2003 
Q 550 2688 779 3389 
Q 1009 4091 1484 4856 
L 2413 4856 
Q 2013 4116 1813 3408 
Q 1613 2700 1613 2009 
Q 1613 1319 1811 609 
Q 2009 -100 2413 -844 
z
" transform="scale(0.015625)"/>
      <path id="DejaVuSans-Bold-5c" d="M 78 3500 
L 1197 3500 
L 2138 1125 
L 2938 3500 
L 4056 3500 
L 2584 -331 
Q 2363 -916 2067 -1148 
Q 1772 -1381 1288 -1381 
L 641 -1381 
L 641 -647 
L 991 -647 
Q 1275 -647 1404 -556 
Q 1534 -466 1606 -231 
L 1638 -134 
L 78 3500 
z
" transform="scale(0.015625)"/>
      <path id="DejaVuSans-Bold-c" d="M 513 -844 
Q 913 -100 1113 609 
Q 1313 1319 1313 2009 
Q 1313 2700 1113 3408 
Q 913 4116 513 4856 
L 1441 4856 
Q 1916 4091 2145 3389 
Q 2375 2688 2375 2003 
Q 2375 1319 2147 623 
Q 1919 -72 1441 -844 
L 513 -844 
z
" transform="scale(0.015625)"/>
      <path id="DejaVuSans-Bold-1d" d="M 716 3500 
L 1844 3500 
L 1844 2291 
L 716 2291 
L 716 3500 
z
M 716 1209 
L 1844 1209 
L 1844 0 
L 716 0 
L 716 1209 
z
" transform="scale(0.015625)"/>
     </defs>
     <use xlink:href="#DejaVuSans-Bold-50"/>
     <use xlink:href="#DejaVuSans-Bold-12" transform="translate(104.203125 0)"/>
     <use xlink:href="#DejaVuSans-Bold-5d" transform="translate(140.734375 0)"/>
     <use xlink:href="#DejaVuSans-Bold-3" transform="translate(198.9375 0)"/>
     <use xlink:href="#DejaVuSans-Bold-20" transform="translate(233.75 0)"/>
     <use xlink:href="#DejaVuSans-Bold-3" transform="translate(317.546875 0)"/>
     <use xlink:href="#DejaVuSans-Bold-33" transform="translate(352.359375 0)"/>
     <use xlink:href="#DejaVuSans-Bold-28" transform="translate(425.65625 0)"/>
     <use xlink:href="#DejaVuSans-Bold-35" transform="translate(493.96875 0)"/>
     <use xlink:href="#DejaVuSans-Bold-10" transform="translate(570.96875 0)"/>
     <use xlink:href="#DejaVuSans-Bold-24" transform="translate(612.46875 0)"/>
     <use xlink:href="#DejaVuSans-Bold-35" transform="translate(689.859375 0)"/>
     <use xlink:href="#DejaVuSans-Bold-35" transform="translate(766.859375 0)"/>
     <use xlink:href="#DejaVuSans-Bold-24" transform="translate(843.859375 0)"/>
     <use xlink:href="#DejaVuSans-Bold-3c" transform="translate(911.6875 0)"/>
     <use xlink:href="#DejaVuSans-Bold-3" transform="translate(984.09375 0)"/>
     <use xlink:href="#DejaVuSans-Bold-50" transform="translate(1018.90625 0)"/>
     <use xlink:href="#DejaVuSans-Bold-44" transform="translate(1123.109375 0)"/>
     <use xlink:href="#DejaVuSans-Bold-56" transform="translate(1190.59375 0)"/>
     <use xlink:href="#DejaVuSans-Bold-56" transform="translate(1250.109375 0)"/>
     <use xlink:href="#DejaVuSans-Bold-3" transform="translate(1309.625 0)"/>
     <use xlink:href="#DejaVuSans-Bold-4f" transform="translate(1344.4375 0)"/>
     <use xlink:href="#DejaVuSans-Bold-44" transform="translate(1378.71875 0)"/>
     <use xlink:href="#DejaVuSans-Bold-45" transform="translate(1446.203125 0)"/>
     <use xlink:href="#DejaVuSans-Bold-48" transform="translate(1517.78125 0)"/>
     <use xlink:href="#DejaVuSans-Bold-4f" transform="translate(1585.609375 0)"/>
     <use xlink:href="#DejaVuSans-Bold-56" transform="translate(1619.890625 0)"/>
     <use xlink:href="#DejaVuSans-Bold-3" transform="translate(1679.40625 0)"/>
     <use xlink:href="#DejaVuSans-Bold-b" transform="translate(1714.21875 0)"/>
     <use xlink:href="#DejaVuSans-Bold-5c" transform="translate(1759.921875 0)"/>
     <use xlink:href="#DejaVuSans-Bold-4f" transform="translate(1825.109375 0)"/>
     <use xlink:href="#DejaVuSans-Bold-44" transform="translate(1859.390625 0)"/>
     <use xlink:href="#DejaVuSans-Bold-45" transform="translate(1926.875 0)"/>
     <use xlink:href="#DejaVuSans-Bold-48" transform="translate(1998.453125 0)"/>
     <use xlink:href="#DejaVuSans-Bold-4f" transform="translate(2066.28125 0)"/>
     <use xlink:href="#DejaVuSans-Bold-56" transform="translate(2100.5625 0)"/>
     <use xlink:href="#DejaVuSans-Bold-c" transform="translate(2160.078125 0)"/>
     <use xlink:href="#DejaVuSans-Bold-1d" transform="translate(2205.78125 0)"/>
    </g>
   </g>
   <g id="text_12">
    <!-- m/z = PER-ARRAY mass labels (ylabels): -->
    <g style="fill: #2ca02c" transform="translate(7.2 123.206286) scale(0.095 -0.095)">
     <use xlink:href="#DejaVuSans-Bold-50"/>
     <use xlink:href="#DejaVuSans-Bold-12" transform="translate(104.203125 0)"/>
     <use xlink:href="#DejaVuSans-Bold-5d" transform="translate(140.734375 0)"/>
     <use xlink:href="#DejaVuSans-Bold-3" transform="translate(198.9375 0)"/>
     <use xlink:href="#DejaVuSans-Bold-20" transform="translate(233.75 0)"/>
     <use xlink:href="#DejaVuSans-Bold-3" transform="translate(317.546875 0)"/>
     <use xlink:href="#DejaVuSans-Bold-33" transform="translate(352.359375 0)"/>
     <use xlink:href="#DejaVuSans-Bold-28" transform="translate(425.65625 0)"/>
     <use xlink:href="#DejaVuSans-Bold-35" transform="translate(493.96875 0)"/>
     <use xlink:href="#DejaVuSans-Bold-10" transform="translate(570.96875 0)"/>
     <use xlink:href="#DejaVuSans-Bold-24" transform="translate(612.46875 0)"/>
     <use xlink:href="#DejaVuSans-Bold-35" transform="translate(689.859375 0)"/>
     <use xlink:href="#DejaVuSans-Bold-35" transform="translate(766.859375 0)"/>
     <use xlink:href="#DejaVuSans-Bold-24" transform="translate(843.859375 0)"/>
     <use xlink:href="#DejaVuSans-Bold-3c" transform="translate(911.6875 0)"/>
     <use xlink:href="#DejaVuSans-Bold-3" transform="translate(984.09375 0)"/>
     <use xlink:href="#DejaVuSans-Bold-50" transform="translate(1018.90625 0)"/>
     <use xlink:href="#DejaVuSans-Bold-44" transform="translate(1123.109375 0)"/>
     <use xlink:href="#DejaVuSans-Bold-56" transform="translate(1190.59375 0)"/>
     <use xlink:href="#DejaVuSans-Bold-56" transform="translate(1250.109375 0)"/>
     <use xlink:href="#DejaVuSans-Bold-3" transform="translate(1309.625 0)"/>
     <use xlink:href="#DejaVuSans-Bold-4f" transform="translate(1344.4375 0)"/>
     <use xlink:href="#DejaVuSans-Bold-44" transform="translate(1378.71875 0)"/>
     <use xlink:href="#DejaVuSans-Bold-45" transform="translate(1446.203125 0)"/>
     <use xlink:href="#DejaVuSans-Bold-48" transform="translate(1517.78125 0)"/>
     <use xlink:href="#DejaVuSans-Bold-4f" transform="translate(1585.609375 0)"/>
     <use xlink:href="#DejaVuSans-Bold-56" transform="translate(1619.890625 0)"/>
     <use xlink:href="#DejaVuSans-Bold-3" transform="translate(1679.40625 0)"/>
     <use xlink:href="#DejaVuSans-Bold-b" transform="translate(1714.21875 0)"/>
     <use xlink:href="#DejaVuSans-Bold-5c" transform="translate(1759.921875 0)"/>
     <use xlink:href="#DejaVuSans-Bold-4f" transform="translate(1825.109375 0)"/>
     <use xlink:href="#DejaVuSans-Bold-44" transform="translate(1859.390625 0)"/>
     <use xlink:href="#DejaVuSans-Bold-45" transform="translate(1926.875 0)"/>
     <use xlink:href="#DejaVuSans-Bold-48" transform="translate(1998.453125 0)"/>
     <use xlink:href="#DejaVuSans-Bold-4f" transform="translate(2066.28125 0)"/>
     <use xlink:href="#DejaVuSans-Bold-56" transform="translate(2100.5625 0)"/>
     <use xlink:href="#DejaVuSans-Bold-c" transform="translate(2160.078125 0)"/>
     <use xlink:href="#DejaVuSans-Bold-1d" transform="translate(2205.78125 0)"/>
    </g>
   </g>
   <g id="text_13">
    <!-- $\cdots$ -->
    <g style="fill: #666666" transform="translate(435.852167 52.836094) scale(0.1 -0.1)">
     <use xlink:href="#DejaVuSans-d79" transform="translate(0 0.6875)"/>
    </g>
   </g>
   <g id="text_14">
    <!-- scan 0 -->
    <g style="fill: #2ca02c" transform="translate(471.376275 52.316562) scale(0.08 -0.08)">
     <defs>
      <path id="DejaVuSans-56" d="M 2834 3397 
L 2834 2853 
Q 2591 2978 2328 3040 
Q 2066 3103 1784 3103 
Q 1356 3103 1142 2972 
Q 928 2841 928 2578 
Q 928 2378 1081 2264 
Q 1234 2150 1697 2047 
L 1894 2003 
Q 2506 1872 2764 1633 
Q 3022 1394 3022 966 
Q 3022 478 2636 193 
Q 2250 -91 1575 -91 
Q 1294 -91 989 -36 
Q 684 19 347 128 
L 347 722 
Q 666 556 975 473 
Q 1284 391 1588 391 
Q 1994 391 2212 530 
Q 2431 669 2431 922 
Q 2431 1156 2273 1281 
Q 2116 1406 1581 1522 
L 1381 1569 
Q 847 1681 609 1914 
Q 372 2147 372 2553 
Q 372 3047 722 3315 
Q 1072 3584 1716 3584 
Q 2034 3584 2315 3537 
Q 2597 3491 2834 3397 
z
" transform="scale(0.015625)"/>
      <path id="DejaVuSans-46" d="M 3122 3366 
L 3122 2828 
Q 2878 2963 2633 3030 
Q 2388 3097 2138 3097 
Q 1578 3097 1268 2742 
Q 959 2388 959 1747 
Q 959 1106 1268 751 
Q 1578 397 2138 397 
Q 2388 397 2633 464 
Q 2878 531 3122 666 
L 3122 134 
Q 2881 22 2623 -34 
Q 2366 -91 2075 -91 
Q 1284 -91 818 406 
Q 353 903 353 1747 
Q 353 2603 823 3093 
Q 1294 3584 2113 3584 
Q 2378 3584 2631 3529 
Q 2884 3475 3122 3366 
z
" transform="scale(0.015625)"/>
      <path id="DejaVuSans-44" d="M 2194 1759 
Q 1497 1759 1228 1600 
Q 959 1441 959 1056 
Q 959 750 1161 570 
Q 1363 391 1709 391 
Q 2188 391 2477 730 
Q 2766 1069 2766 1631 
L 2766 1759 
L 2194 1759 
z
M 3341 1997 
L 3341 0 
L 2766 0 
L 2766 531 
Q 2569 213 2275 61 
Q 1981 -91 1556 -91 
Q 1019 -91 701 211 
Q 384 513 384 1019 
Q 384 1609 779 1909 
Q 1175 2209 1959 2209 
L 2766 2209 
L 2766 2266 
Q 2766 2663 2505 2880 
Q 2244 3097 1772 3097 
Q 1472 3097 1187 3025 
Q 903 2953 641 2809 
L 641 3341 
Q 956 3463 1253 3523 
Q 1550 3584 1831 3584 
Q 2591 3584 2966 3190 
Q 3341 2797 3341 1997 
z
" transform="scale(0.015625)"/>
      <path id="DejaVuSans-51" d="M 3513 2113 
L 3513 0 
L 2938 0 
L 2938 2094 
Q 2938 2591 2744 2837 
Q 2550 3084 2163 3084 
Q 1697 3084 1428 2787 
Q 1159 2491 1159 1978 
L 1159 0 
L 581 0 
L 581 3500 
L 1159 3500 
L 1159 2956 
Q 1366 3272 1645 3428 
Q 1925 3584 2291 3584 
Q 2894 3584 3203 3211 
Q 3513 2838 3513 2113 
z
" transform="scale(0.015625)"/>
      <path id="DejaVuSans-3" transform="scale(0.015625)"/>
     </defs>
     <use xlink:href="#DejaVuSans-56"/>
     <use xlink:href="#DejaVuSans-46" transform="translate(52.09375 0)"/>
     <use xlink:href="#DejaVuSans-44" transform="translate(107.078125 0)"/>
     <use xlink:href="#DejaVuSans-51" transform="translate(168.359375 0)"/>
     <use xlink:href="#DejaVuSans-3" transform="translate(231.734375 0)"/>
     <use xlink:href="#DejaVuSans-13" transform="translate(263.515625 0)"/>
    </g>
   </g>
   <g id="text_15">
    <!-- $\vdots$ -->
    <g style="fill: #808080" transform="translate(244.244707 77.629193) scale(0.11 -0.11)">
     <defs>
      <path id="DejaVuSans-d78" d="M 2868 200 
L 3528 200 
L 3528 -594 
L 2868 -594 
L 2868 200 
z
M 2868 4575 
L 3528 4575 
L 3528 3781 
L 2868 3781 
L 2868 4575 
z
M 2868 2388 
L 3528 2388 
L 3528 1594 
L 2868 1594 
L 2868 2388 
z
" transform="scale(0.015625)"/>
     </defs>
     <use xlink:href="#DejaVuSans-d78" transform="translate(0 0.515625)"/>
    </g>
   </g>
   <g id="text_16">
    <!-- $\vdots$ -->
    <g style="fill: #808080" transform="translate(292.021572 77.629193) scale(0.11 -0.11)">
     <use xlink:href="#DejaVuSans-d78" transform="translate(0 0.515625)"/>
    </g>
   </g>
   <g id="text_17">
    <!-- $\vdots$ -->
    <g style="fill: #808080" transform="translate(339.798437 77.629193) scale(0.11 -0.11)">
     <use xlink:href="#DejaVuSans-d78" transform="translate(0 0.515625)"/>
    </g>
   </g>
   <g id="text_18">
    <!-- $\vdots$ -->
    <g style="fill: #808080" transform="translate(387.575302 77.629193) scale(0.11 -0.11)">
     <use xlink:href="#DejaVuSans-d78" transform="translate(0 0.515625)"/>
    </g>
   </g>
   <g id="text_19">
    <!-- $\vdots$ -->
    <g style="fill: #808080" transform="translate(435.352167 77.629193) scale(0.11 -0.11)">
     <use xlink:href="#DejaVuSans-d78" transform="translate(0 0.515625)"/>
    </g>
   </g>
   <g id="text_20">
    <!-- $\vdots$ -->
    <g style="fill: #666666" transform="translate(471.376275 76.849896) scale(0.08 -0.08)">
     <use xlink:href="#DejaVuSans-d78" transform="translate(0 0.515625)"/>
    </g>
   </g>
   <g id="text_21">
    <!-- $\cdots$ -->
    <g style="fill: #666666" transform="translate(435.852167 101.90276) scale(0.1 -0.1)">
     <use xlink:href="#DejaVuSans-d79" transform="translate(0 0.6875)"/>
    </g>
   </g>
   <g id="text_22">
    <!-- scan N -->
    <g style="fill: #2ca02c" transform="translate(471.376275 101.383229) scale(0.08 -0.08)">
     <defs>
      <path id="DejaVuSans-31" d="M 628 4666 
L 1478 4666 
L 3547 763 
L 3547 4666 
L 4159 4666 
L 4159 0 
L 3309 0 
L 1241 3903 
L 1241 0 
L 628 0 
L 628 4666 
z
" transform="scale(0.015625)"/>
     </defs>
     <use xlink:href="#DejaVuSans-56"/>
     <use xlink:href="#DejaVuSans-46" transform="translate(52.09375 0)"/>
     <use xlink:href="#DejaVuSans-44" transform="translate(107.078125 0)"/>
     <use xlink:href="#DejaVuSans-51" transform="translate(168.359375 0)"/>
     <use xlink:href="#DejaVuSans-3" transform="translate(231.734375 0)"/>
     <use xlink:href="#DejaVuSans-31" transform="translate(263.515625 0)"/>
    </g>
   </g>
   <g id="text_23">
    <!-- $\mathrm{data}[i][j] =$ -->
    <g transform="translate(149.366329 77.890365) scale(0.12 -0.12)">
     <defs>
      <path id="DejaVuSans-47" d="M 2906 2969 
L 2906 4863 
L 3481 4863 
L 3481 0 
L 2906 0 
L 2906 525 
Q 2725 213 2448 61 
Q 2172 -91 1784 -91 
Q 1150 -91 751 415 
Q 353 922 353 1747 
Q 353 2572 751 3078 
Q 1150 3584 1784 3584 
Q 2172 3584 2448 3432 
Q 2725 3281 2906 2969 
z
M 947 1747 
Q 947 1113 1208 752 
Q 1469 391 1925 391 
Q 2381 391 2643 752 
Q 2906 1113 2906 1747 
Q 2906 2381 2643 2742 
Q 2381 3103 1925 3103 
Q 1469 3103 1208 2742 
Q 947 2381 947 1747 
z
" transform="scale(0.015625)"/>
      <path id="DejaVuSans-57" d="M 1172 4494 
L 1172 3500 
L 2356 3500 
L 2356 3053 
L 1172 3053 
L 1172 1153 
Q 1172 725 1289 603 
Q 1406 481 1766 481 
L 2356 481 
L 2356 0 
L 1766 0 
Q 1100 0 847 248 
Q 594 497 594 1153 
L 594 3053 
L 172 3053 
L 172 3500 
L 594 3500 
L 594 4494 
L 1172 4494 
z
" transform="scale(0.015625)"/>
      <path id="DejaVuSans-3e" d="M 550 4863 
L 1875 4863 
L 1875 4416 
L 1125 4416 
L 1125 -397 
L 1875 -397 
L 1875 -844 
L 550 -844 
L 550 4863 
z
" transform="scale(0.015625)"/>
      <path id="DejaVuSans-Oblique-4c" d="M 1172 4863 
L 1747 4863 
L 1606 4134 
L 1031 4134 
L 1172 4863 
z
M 909 3500 
L 1484 3500 
L 800 0 
L 225 0 
L 909 3500 
z
" transform="scale(0.015625)"/>
      <path id="DejaVuSans-40" d="M 1947 4863 
L 1947 -844 
L 622 -844 
L 622 -397 
L 1369 -397 
L 1369 4416 
L 622 4416 
L 622 4863 
L 1947 4863 
z
" transform="scale(0.015625)"/>
      <path id="DejaVuSans-Oblique-4d" d="M 928 3500 
L 1503 3500 
L 813 -63 
L 809 -78 
Q 694 -675 544 -897 
Q 403 -1106 132 -1218 
Q -138 -1331 -506 -1331 
L -722 -1331 
L -628 -844 
L -481 -844 
Q -144 -844 -1 -703 
Q 141 -563 238 -63 
L 928 3500 
z
M 1197 4863 
L 1772 4863 
L 1631 4134 
L 1056 4134 
L 1197 4863 
z
" transform="scale(0.015625)"/>
      <path id="DejaVuSans-20" d="M 678 2906 
L 4684 2906 
L 4684 2381 
L 678 2381 
L 678 2906 
z
M 678 1631 
L 4684 1631 
L 4684 1100 
L 678 1100 
L 678 1631 
z
" transform="scale(0.015625)"/>
     </defs>
     <use xlink:href="#DejaVuSans-47" transform="translate(0 0.015625)"/>
     <use xlink:href="#DejaVuSans-44" transform="translate(63.476562 0.015625)"/>
     <use xlink:href="#DejaVuSans-57" transform="translate(124.755859 0.015625)"/>
     <use xlink:href="#DejaVuSans-44" transform="translate(163.964844 0.015625)"/>
     <use xlink:href="#DejaVuSans-3e" transform="translate(225.244141 0.015625)"/>
     <use xlink:href="#DejaVuSans-Oblique-4c" transform="translate(264.257812 0.015625)"/>
     <use xlink:href="#DejaVuSans-40" transform="translate(292.041016 0.015625)"/>
     <use xlink:href="#DejaVuSans-3e" transform="translate(331.054688 0.015625)"/>
     <use xlink:href="#DejaVuSans-Oblique-4d" transform="translate(370.068359 0.015625)"/>
     <use xlink:href="#DejaVuSans-40" transform="translate(397.851562 0.015625)"/>
     <use xlink:href="#DejaVuSans-20" transform="translate(456.347656 0.015625)"/>
    </g>
   </g>
   <g id="text_24">
    <!-- (a) A normal rainbow file: one shared m/z axis (per-array mass labels, ylabels) -->
    <g style="fill: #4c4c4c" transform="translate(137.655783 14.798437) scale(0.1 -0.1)">
     <defs>
      <path id="DejaVuSans-b" d="M 1984 4856 
Q 1566 4138 1362 3434 
Q 1159 2731 1159 2009 
Q 1159 1288 1364 580 
Q 1569 -128 1984 -844 
L 1484 -844 
Q 1016 -109 783 600 
Q 550 1309 550 2009 
Q 550 2706 781 3412 
Q 1013 4119 1484 4856 
L 1984 4856 
z
" transform="scale(0.015625)"/>
      <path id="DejaVuSans-c" d="M 513 4856 
L 1013 4856 
Q 1481 4119 1714 3412 
Q 1947 2706 1947 2009 
Q 1947 1309 1714 600 
Q 1481 -109 1013 -844 
L 513 -844 
Q 928 -128 1133 580 
Q 1338 1288 1338 2009 
Q 1338 2731 1133 3434 
Q 928 4138 513 4856 
z
" transform="scale(0.015625)"/>
      <path id="DejaVuSans-24" d="M 2188 4044 
L 1331 1722 
L 3047 1722 
L 2188 4044 
z
M 1831 4666 
L 2547 4666 
L 4325 0 
L 3669 0 
L 3244 1197 
L 1141 1197 
L 716 0 
L 50 0 
L 1831 4666 
z
" transform="scale(0.015625)"/>
      <path id="DejaVuSans-52" d="M 1959 3097 
Q 1497 3097 1228 2736 
Q 959 2375 959 1747 
Q 959 1119 1226 758 
Q 1494 397 1959 397 
Q 2419 397 2687 759 
Q 2956 1122 2956 1747 
Q 2956 2369 2687 2733 
Q 2419 3097 1959 3097 
z
M 1959 3584 
Q 2709 3584 3137 3096 
Q 3566 2609 3566 1747 
Q 3566 888 3137 398 
Q 2709 -91 1959 -91 
Q 1206 -91 779 398 
Q 353 888 353 1747 
Q 353 2609 779 3096 
Q 1206 3584 1959 3584 
z
" transform="scale(0.015625)"/>
      <path id="DejaVuSans-55" d="M 2631 2963 
Q 2534 3019 2420 3045 
Q 2306 3072 2169 3072 
Q 1681 3072 1420 2755 
Q 1159 2438 1159 1844 
L 1159 0 
L 581 0 
L 581 3500 
L 1159 3500 
L 1159 2956 
Q 1341 3275 1631 3429 
Q 1922 3584 2338 3584 
Q 2397 3584 2469 3576 
Q 2541 3569 2628 3553 
L 2631 2963 
z
" transform="scale(0.015625)"/>
      <path id="DejaVuSans-50" d="M 3328 2828 
Q 3544 3216 3844 3400 
Q 4144 3584 4550 3584 
Q 5097 3584 5394 3201 
Q 5691 2819 5691 2113 
L 5691 0 
L 5113 0 
L 5113 2094 
Q 5113 2597 4934 2840 
Q 4756 3084 4391 3084 
Q 3944 3084 3684 2787 
Q 3425 2491 3425 1978 
L 3425 0 
L 2847 0 
L 2847 2094 
Q 2847 2600 2669 2842 
Q 2491 3084 2119 3084 
Q 1678 3084 1418 2786 
Q 1159 2488 1159 1978 
L 1159 0 
L 581 0 
L 581 3500 
L 1159 3500 
L 1159 2956 
Q 1356 3278 1631 3431 
Q 1906 3584 2284 3584 
Q 2666 3584 2933 3390 
Q 3200 3197 3328 2828 
z
" transform="scale(0.015625)"/>
      <path id="DejaVuSans-4f" d="M 603 4863 
L 1178 4863 
L 1178 0 
L 603 0 
L 603 4863 
z
" transform="scale(0.015625)"/>
      <path id="DejaVuSans-4c" d="M 603 3500 
L 1178 3500 
L 1178 0 
L 603 0 
L 603 3500 
z
M 603 4863 
L 1178 4863 
L 1178 4134 
L 603 4134 
L 603 4863 
z
" transform="scale(0.015625)"/>
      <path id="DejaVuSans-45" d="M 3116 1747 
Q 3116 2381 2855 2742 
Q 2594 3103 2138 3103 
Q 1681 3103 1420 2742 
Q 1159 2381 1159 1747 
Q 1159 1113 1420 752 
Q 1681 391 2138 391 
Q 2594 391 2855 752 
Q 3116 1113 3116 1747 
z
M 1159 2969 
Q 1341 3281 1617 3432 
Q 1894 3584 2278 3584 
Q 2916 3584 3314 3078 
Q 3713 2572 3713 1747 
Q 3713 922 3314 415 
Q 2916 -91 2278 -91 
Q 1894 -91 1617 61 
Q 1341 213 1159 525 
L 1159 0 
L 581 0 
L 581 4863 
L 1159 4863 
L 1159 2969 
z
" transform="scale(0.015625)"/>
      <path id="DejaVuSans-5a" d="M 269 3500 
L 844 3500 
L 1563 769 
L 2278 3500 
L 2956 3500 
L 3675 769 
L 4391 3500 
L 4966 3500 
L 4050 0 
L 3372 0 
L 2619 2869 
L 1863 0 
L 1184 0 
L 269 3500 
z
" transform="scale(0.015625)"/>
      <path id="DejaVuSans-13af" d="M 3431 3500 
L 3431 0 
L 2853 0 
L 2853 3053 
L 1275 3053 
L 1275 0 
L 697 0 
L 697 3053 
L 147 3053 
L 147 3500 
L 697 3500 
L 697 3744 
Q 697 4316 967 4589 
Q 1238 4863 1797 4863 
L 2375 4863 
L 2375 4384 
L 1825 4384 
Q 1516 4384 1395 4259 
Q 1275 4134 1275 3809 
L 1275 3500 
L 3431 3500 
z
M 2853 4856 
L 3431 4856 
L 3431 4128 
L 2853 4128 
L 2853 4856 
z
" transform="scale(0.015625)"/>
      <path id="DejaVuSans-48" d="M 3597 1894 
L 3597 1613 
L 953 1613 
Q 991 1019 1311 708 
Q 1631 397 2203 397 
Q 2534 397 2845 478 
Q 3156 559 3463 722 
L 3463 178 
Q 3153 47 2828 -22 
Q 2503 -91 2169 -91 
Q 1331 -91 842 396 
Q 353 884 353 1716 
Q 353 2575 817 3079 
Q 1281 3584 2069 3584 
Q 2775 3584 3186 3129 
Q 3597 2675 3597 1894 
z
M 3022 2063 
Q 3016 2534 2758 2815 
Q 2500 3097 2075 3097 
Q 1594 3097 1305 2825 
Q 1016 2553 972 2059 
L 3022 2063 
z
" transform="scale(0.015625)"/>
      <path id="DejaVuSans-1d" d="M 750 794 
L 1409 794 
L 1409 0 
L 750 0 
L 750 794 
z
M 750 3309 
L 1409 3309 
L 1409 2516 
L 750 2516 
L 750 3309 
z
" transform="scale(0.015625)"/>
      <path id="DejaVuSans-4b" d="M 3513 2113 
L 3513 0 
L 2938 0 
L 2938 2094 
Q 2938 2591 2744 2837 
Q 2550 3084 2163 3084 
Q 1697 3084 1428 2787 
Q 1159 2491 1159 1978 
L 1159 0 
L 581 0 
L 581 4863 
L 1159 4863 
L 1159 2956 
Q 1366 3272 1645 3428 
Q 1925 3584 2291 3584 
Q 2894 3584 3203 3211 
Q 3513 2838 3513 2113 
z
" transform="scale(0.015625)"/>
      <path id="DejaVuSans-12" d="M 1625 4666 
L 2156 4666 
L 531 -594 
L 0 -594 
L 1625 4666 
z
" transform="scale(0.015625)"/>
      <path id="DejaVuSans-5d" d="M 353 3500 
L 3084 3500 
L 3084 2975 
L 922 459 
L 3084 459 
L 3084 0 
L 275 0 
L 275 525 
L 2438 3041 
L 353 3041 
L 353 3500 
z
" transform="scale(0.015625)"/>
      <path id="DejaVuSans-5b" d="M 3513 3500 
L 2247 1797 
L 3578 0 
L 2900 0 
L 1881 1375 
L 863 0 
L 184 0 
L 1544 1831 
L 300 3500 
L 978 3500 
L 1906 2253 
L 2834 3500 
L 3513 3500 
z
" transform="scale(0.015625)"/>
      <path id="DejaVuSans-53" d="M 1159 525 
L 1159 -1331 
L 581 -1331 
L 581 3500 
L 1159 3500 
L 1159 2969 
Q 1341 3281 1617 3432 
Q 1894 3584 2278 3584 
Q 2916 3584 3314 3078 
Q 3713 2572 3713 1747 
Q 3713 922 3314 415 
Q 2916 -91 2278 -91 
Q 1894 -91 1617 61 
Q 1341 213 1159 525 
z
M 3116 1747 
Q 3116 2381 2855 2742 
Q 2594 3103 2138 3103 
Q 1681 3103 1420 2742 
Q 1159 2381 1159 1747 
Q 1159 1113 1420 752 
Q 1681 391 2138 391 
Q 2594 391 2855 752 
Q 3116 1113 3116 1747 
z
" transform="scale(0.015625)"/>
      <path id="DejaVuSans-10" d="M 313 2009 
L 1997 2009 
L 1997 1497 
L 313 1497 
L 313 2009 
z
" transform="scale(0.015625)"/>
      <path id="DejaVuSans-5c" d="M 2059 -325 
Q 1816 -950 1584 -1140 
Q 1353 -1331 966 -1331 
L 506 -1331 
L 506 -850 
L 844 -850 
Q 1081 -850 1212 -737 
Q 1344 -625 1503 -206 
L 1606 56 
L 191 3500 
L 800 3500 
L 1894 763 
L 2988 3500 
L 3597 3500 
L 2059 -325 
z
" transform="scale(0.015625)"/>
      <path id="DejaVuSans-f" d="M 750 794 
L 1409 794 
L 1409 256 
L 897 -744 
L 494 -744 
L 750 256 
L 750 794 
z
" transform="scale(0.015625)"/>
     </defs>
     <use xlink:href="#DejaVuSans-b"/>
     <use xlink:href="#DejaVuSans-44" transform="translate(39.015625 0)"/>
     <use xlink:href="#DejaVuSans-c" transform="translate(100.296875 0)"/>
     <use xlink:href="#DejaVuSans-3" transform="translate(139.3125 0)"/>
     <use xlink:href="#DejaVuSans-24" transform="translate(171.09375 0)"/>
     <use xlink:href="#DejaVuSans-3" transform="translate(239.5 0)"/>
     <use xlink:href="#DejaVuSans-51" transform="translate(271.28125 0)"/>
     <use xlink:href="#DejaVuSans-52" transform="translate(334.65625 0)"/>
     <use xlink:href="#DejaVuSans-55" transform="translate(395.84375 0)"/>
     <use xlink:href="#DejaVuSans-50" transform="translate(435.203125 0)"/>
     <use xlink:href="#DejaVuSans-44" transform="translate(532.609375 0)"/>
     <use xlink:href="#DejaVuSans-4f" transform="translate(593.890625 0)"/>
     <use xlink:href="#DejaVuSans-3" transform="translate(621.671875 0)"/>
     <use xlink:href="#DejaVuSans-55" transform="translate(653.453125 0)"/>
     <use xlink:href="#DejaVuSans-44" transform="translate(694.5625 0)"/>
     <use xlink:href="#DejaVuSans-4c" transform="translate(755.84375 0)"/>
     <use xlink:href="#DejaVuSans-51" transform="translate(783.625 0)"/>
     <use xlink:href="#DejaVuSans-45" transform="translate(847 0)"/>
     <use xlink:href="#DejaVuSans-52" transform="translate(910.484375 0)"/>
     <use xlink:href="#DejaVuSans-5a" transform="translate(971.671875 0)"/>
     <use xlink:href="#DejaVuSans-3" transform="translate(1053.453125 0)"/>
     <use xlink:href="#DejaVuSans-13af" transform="translate(1085.234375 0)"/>
     <use xlink:href="#DejaVuSans-4f" transform="translate(1148.21875 0)"/>
     <use xlink:href="#DejaVuSans-48" transform="translate(1176 0)"/>
     <use xlink:href="#DejaVuSans-1d" transform="translate(1237.53125 0)"/>
     <use xlink:href="#DejaVuSans-3" transform="translate(1271.21875 0)"/>
     <use xlink:href="#DejaVuSans-52" transform="translate(1303 0)"/>
     <use xlink:href="#DejaVuSans-51" transform="translate(1364.1875 0)"/>
     <use xlink:href="#DejaVuSans-48" transform="translate(1427.5625 0)"/>
     <use xlink:href="#DejaVuSans-3" transform="translate(1489.09375 0)"/>
     <use xlink:href="#DejaVuSans-56" transform="translate(1520.875 0)"/>
     <use xlink:href="#DejaVuSans-4b" transform="translate(1572.96875 0)"/>
     <use xlink:href="#DejaVuSans-44" transform="translate(1636.34375 0)"/>
     <use xlink:href="#DejaVuSans-55" transform="translate(1697.625 0)"/>
     <use xlink:href="#DejaVuSans-48" transform="translate(1736.53125 0)"/>
     <use xlink:href="#DejaVuSans-47" transform="translate(1798.0625 0)"/>
     <use xlink:href="#DejaVuSans-3" transform="translate(1861.546875 0)"/>
     <use xlink:href="#DejaVuSans-50" transform="translate(1893.328125 0)"/>
     <use xlink:href="#DejaVuSans-12" transform="translate(1990.734375 0)"/>
     <use xlink:href="#DejaVuSans-5d" transform="translate(2024.421875 0)"/>
     <use xlink:href="#DejaVuSans-3" transform="translate(2076.90625 0)"/>
     <use xlink:href="#DejaVuSans-44" transform="translate(2108.6875 0)"/>
     <use xlink:href="#DejaVuSans-5b" transform="translate(2169.96875 0)"/>
     <use xlink:href="#DejaVuSans-4c" transform="translate(2229.15625 0)"/>
     <use xlink:href="#DejaVuSans-56" transform="translate(2256.9375 0)"/>
     <use xlink:href="#DejaVuSans-3" transform="translate(2309.03125 0)"/>
     <use xlink:href="#DejaVuSans-b" transform="translate(2340.8125 0)"/>
     <use xlink:href="#DejaVuSans-53" transform="translate(2379.828125 0)"/>
     <use xlink:href="#DejaVuSans-48" transform="translate(2443.3125 0)"/>
     <use xlink:href="#DejaVuSans-55" transform="translate(2504.84375 0)"/>
     <use xlink:href="#DejaVuSans-10" transform="translate(2539.5625 0)"/>
     <use xlink:href="#DejaVuSans-44" transform="translate(2575.640625 0)"/>
     <use xlink:href="#DejaVuSans-55" transform="translate(2636.921875 0)"/>
     <use xlink:href="#DejaVuSans-55" transform="translate(2676.28125 0)"/>
     <use xlink:href="#DejaVuSans-44" transform="translate(2717.390625 0)"/>
     <use xlink:href="#DejaVuSans-5c" transform="translate(2778.671875 0)"/>
     <use xlink:href="#DejaVuSans-3" transform="translate(2837.859375 0)"/>
     <use xlink:href="#DejaVuSans-50" transform="translate(2869.640625 0)"/>
     <use xlink:href="#DejaVuSans-44" transform="translate(2967.046875 0)"/>
     <use xlink:href="#DejaVuSans-56" transform="translate(3028.328125 0)"/>
     <use xlink:href="#DejaVuSans-56" transform="translate(3080.421875 0)"/>
     <use xlink:href="#DejaVuSans-3" transform="translate(3132.515625 0)"/>
     <use xlink:href="#DejaVuSans-4f" transform="translate(3164.296875 0)"/>
     <use xlink:href="#DejaVuSans-44" transform="translate(3192.078125 0)"/>
     <use xlink:href="#DejaVuSans-45" transform="translate(3253.359375 0)"/>
     <use xlink:href="#DejaVuSans-48" transform="translate(3316.84375 0)"/>
     <use xlink:href="#DejaVuSans-4f" transform="translate(3378.375 0)"/>
     <use xlink:href="#DejaVuSans-56" transform="translate(3406.15625 0)"/>
     <use xlink:href="#DejaVuSans-f" transform="translate(3458.25 0)"/>
     <use xlink:href="#DejaVuSans-3" transform="translate(3490.03125 0)"/>
     <use xlink:href="#DejaVuSans-5c" transform="translate(3521.8125 0)"/>
     <use xlink:href="#DejaVuSans-4f" transform="translate(3581 0)"/>
     <use xlink:href="#DejaVuSans-44" transform="translate(3608.78125 0)"/>
     <use xlink:href="#DejaVuSans-45" transform="translate(3670.0625 0)"/>
     <use xlink:href="#DejaVuSans-48" transform="translate(3733.546875 0)"/>
     <use xlink:href="#DejaVuSans-4f" transform="translate(3795.078125 0)"/>
     <use xlink:href="#DejaVuSans-56" transform="translate(3822.859375 0)"/>
     <use xlink:href="#DejaVuSans-c" transform="translate(3874.953125 0)"/>
    </g>
   </g>
  </g>
  <g id="axes_2">
   <g id="patch_17">
    <path d="M 225.856275 276.144437 
L 273.63314 276.144437 
L 273.63314 243.944437 
L 225.856275 243.944437 
z
" clip-path="url(#pe596036fa9)" style="fill: #1f77b4; opacity: 0.28; stroke: #808080; stroke-linejoin: miter"/>
   </g>
   <g id="patch_18">
    <path d="M 273.63314 276.144437 
L 321.410005 276.144437 
L 321.410005 243.944437 
L 273.63314 243.944437 
z
" clip-path="url(#pe596036fa9)" style="fill: #1f77b4; opacity: 0.28; stroke: #808080; stroke-linejoin: miter"/>
   </g>
   <g id="patch_19">
    <path d="M 321.410005 276.144437 
L 369.18687 276.144437 
L 369.18687 243.944437 
L 321.410005 243.944437 
z
" clip-path="url(#pe596036fa9)" style="fill: #1f77b4; opacity: 0.28; stroke: #808080; stroke-linejoin: miter"/>
   </g>
   <g id="patch_20">
    <path d="M 369.18687 276.144437 
L 416.963734 276.144437 
L 416.963734 243.944437 
L 369.18687 243.944437 
z
" clip-path="url(#pe596036fa9)" style="fill: #1f77b4; opacity: 0.28; stroke: #808080; stroke-linejoin: miter"/>
   </g>
   <g id="patch_21">
    <path d="M 416.963734 276.144437 
L 464.740599 276.144437 
L 464.740599 243.944437 
L 416.963734 243.944437 
z
" clip-path="url(#pe596036fa9)" style="fill: #1f77b4; opacity: 0.28; stroke: #808080; stroke-linejoin: miter"/>
   </g>
   <g id="patch_22">
    <path d="M 225.856275 308.344437 
L 273.63314 308.344437 
L 273.63314 276.144437 
L 225.856275 276.144437 
L 225.856275 308.344437 
z
" clip-path="url(#pe596036fa9)" style="fill: none; stroke: #808080; stroke-linejoin: miter"/>
   </g>
   <g id="patch_23">
    <path d="M 273.63314 308.344437 
L 321.410005 308.344437 
L 321.410005 276.144437 
L 273.63314 276.144437 
L 273.63314 308.344437 
z
" clip-path="url(#pe596036fa9)" style="fill: none; stroke: #808080; stroke-linejoin: miter"/>
   </g>
   <g id="patch_24">
    <path d="M 321.410005 308.344437 
L 369.18687 308.344437 
L 369.18687 276.144437 
L 321.410005 276.144437 
L 321.410005 308.344437 
z
" clip-path="url(#pe596036fa9)" style="fill: none; stroke: #808080; stroke-linejoin: miter"/>
   </g>
   <g id="patch_25">
    <path d="M 369.18687 308.344437 
L 416.963734 308.344437 
L 416.963734 276.144437 
L 369.18687 276.144437 
L 369.18687 308.344437 
z
" clip-path="url(#pe596036fa9)" style="fill: none; stroke: #808080; stroke-linejoin: miter"/>
   </g>
   <g id="patch_26">
    <path d="M 416.963734 308.344437 
L 464.740599 308.344437 
L 464.740599 276.144437 
L 416.963734 276.144437 
L 416.963734 308.344437 
z
" clip-path="url(#pe596036fa9)" style="fill: none; stroke: #808080; stroke-linejoin: miter"/>
   </g>
   <g id="patch_27">
    <path d="M 225.856275 340.544437 
L 273.63314 340.544437 
L 273.63314 308.344437 
L 225.856275 308.344437 
z
" clip-path="url(#pe596036fa9)" style="fill: #e08a00; opacity: 0.28; stroke: #808080; stroke-linejoin: miter"/>
   </g>
   <g id="patch_28">
    <path d="M 273.63314 340.544437 
L 321.410005 340.544437 
L 321.410005 308.344437 
L 273.63314 308.344437 
z
" clip-path="url(#pe596036fa9)" style="fill: #e08a00; opacity: 0.28; stroke: #808080; stroke-linejoin: miter"/>
   </g>
   <g id="patch_29">
    <path d="M 321.410005 340.544437 
L 369.18687 340.544437 
L 369.18687 308.344437 
L 321.410005 308.344437 
z
" clip-path="url(#pe596036fa9)" style="fill: #e08a00; opacity: 0.28; stroke: #808080; stroke-linejoin: miter"/>
   </g>
   <g id="patch_30">
    <path d="M 369.18687 340.544437 
L 416.963734 340.544437 
L 416.963734 308.344437 
L 369.18687 308.344437 
z
" clip-path="url(#pe596036fa9)" style="fill: #e08a00; opacity: 0.28; stroke: #808080; stroke-linejoin: miter"/>
   </g>
   <g id="patch_31">
    <path d="M 416.963734 340.544437 
L 464.740599 340.544437 
L 464.740599 308.344437 
L 416.963734 308.344437 
z
" clip-path="url(#pe596036fa9)" style="fill: #e08a00; opacity: 0.28; stroke: #808080; stroke-linejoin: miter"/>
   </g>
   <g id="patch_32">
    <path d="M 407.472091 195.644437 
Q 435.104915 195.644437 461.619705 195.644437 
" style="fill: none; stroke: #4c4c4c; stroke-linecap: round"/>
    <path d="M 458.019705 193.844437 
L 461.619705 195.644437 
L 458.019705 197.444437 
" style="fill: none; stroke: #4c4c4c; stroke-linecap: round"/>
   </g>
   <g id="text_25">
    <!-- point index j = flight time within a scan -->
    <g transform="translate(225.856275 197.98268) scale(0.09 -0.09)">
     <defs>
      <path id="DejaVuSans-4d" d="M 603 3500 
L 1178 3500 
L 1178 -63 
Q 1178 -731 923 -1031 
Q 669 -1331 103 -1331 
L -116 -1331 
L -116 -844 
L 38 -844 
Q 366 -844 484 -692 
Q 603 -541 603 -63 
L 603 3500 
z
M 603 4863 
L 1178 4863 
L 1178 4134 
L 603 4134 
L 603 4863 
z
" transform="scale(0.015625)"/>
      <path id="DejaVuSans-13b0" d="M 1831 4863 
L 3431 4863 
L 3431 0 
L 2853 0 
L 2853 4384 
L 1825 4384 
Q 1516 4384 1395 4259 
Q 1275 4134 1275 3809 
L 1275 3500 
L 2222 3500 
L 2222 3053 
L 1275 3053 
L 1275 0 
L 697 0 
L 697 3053 
L 147 3053 
L 147 3500 
L 697 3500 
L 697 3744 
Q 697 4328 969 4595 
Q 1241 4863 1831 4863 
z
" transform="scale(0.015625)"/>
      <path id="DejaVuSans-4a" d="M 2906 1791 
Q 2906 2416 2648 2759 
Q 2391 3103 1925 3103 
Q 1463 3103 1205 2759 
Q 947 2416 947 1791 
Q 947 1169 1205 825 
Q 1463 481 1925 481 
Q 2391 481 2648 825 
Q 2906 1169 2906 1791 
z
M 3481 434 
Q 3481 -459 3084 -895 
Q 2688 -1331 1869 -1331 
Q 1566 -1331 1297 -1286 
Q 1028 -1241 775 -1147 
L 775 -588 
Q 1028 -725 1275 -790 
Q 1522 -856 1778 -856 
Q 2344 -856 2625 -561 
Q 2906 -266 2906 331 
L 2906 616 
Q 2728 306 2450 153 
Q 2172 0 1784 0 
Q 1141 0 747 490 
Q 353 981 353 1791 
Q 353 2603 747 3093 
Q 1141 3584 1784 3584 
Q 2172 3584 2450 3431 
Q 2728 3278 2906 2969 
L 2906 3500 
L 3481 3500 
L 3481 434 
z
" transform="scale(0.015625)"/>
     </defs>
     <use xlink:href="#DejaVuSans-53"/>
     <use xlink:href="#DejaVuSans-52" transform="translate(63.484375 0)"/>
     <use xlink:href="#DejaVuSans-4c" transform="translate(124.671875 0)"/>
     <use xlink:href="#DejaVuSans-51" transform="translate(152.453125 0)"/>
     <use xlink:href="#DejaVuSans-57" transform="translate(215.828125 0)"/>
     <use xlink:href="#DejaVuSans-3" transform="translate(255.03125 0)"/>
     <use xlink:href="#DejaVuSans-4c" transform="translate(286.8125 0)"/>
     <use xlink:href="#DejaVuSans-51" transform="translate(314.59375 0)"/>
     <use xlink:href="#DejaVuSans-47" transform="translate(377.96875 0)"/>
     <use xlink:href="#DejaVuSans-48" transform="translate(441.453125 0)"/>
     <use xlink:href="#DejaVuSans-5b" transform="translate(501.234375 0)"/>
     <use xlink:href="#DejaVuSans-3" transform="translate(560.421875 0)"/>
     <use xlink:href="#DejaVuSans-4d" transform="translate(592.203125 0)"/>
     <use xlink:href="#DejaVuSans-3" transform="translate(619.984375 0)"/>
     <use xlink:href="#DejaVuSans-20" transform="translate(651.765625 0)"/>
     <use xlink:href="#DejaVuSans-3" transform="translate(735.5625 0)"/>
     <use xlink:href="#DejaVuSans-13b0" transform="translate(767.34375 0)"/>
     <use xlink:href="#DejaVuSans-4c" transform="translate(830.328125 0)"/>
     <use xlink:href="#DejaVuSans-4a" transform="translate(858.109375 0)"/>
     <use xlink:href="#DejaVuSans-4b" transform="translate(921.59375 0)"/>
     <use xlink:href="#DejaVuSans-57" transform="translate(984.96875 0)"/>
     <use xlink:href="#DejaVuSans-3" transform="translate(1024.171875 0)"/>
     <use xlink:href="#DejaVuSans-57" transform="translate(1055.953125 0)"/>
     <use xlink:href="#DejaVuSans-4c" transform="translate(1095.15625 0)"/>
     <use xlink:href="#DejaVuSans-50" transform="translate(1122.9375 0)"/>
     <use xlink:href="#DejaVuSans-48" transform="translate(1220.34375 0)"/>
     <use xlink:href="#DejaVuSans-3" transform="translate(1281.875 0)"/>
     <use xlink:href="#DejaVuSans-5a" transform="translate(1313.65625 0)"/>
     <use xlink:href="#DejaVuSans-4c" transform="translate(1395.4375 0)"/>
     <use xlink:href="#DejaVuSans-57" transform="translate(1423.21875 0)"/>
     <use xlink:href="#DejaVuSans-4b" transform="translate(1462.421875 0)"/>
     <use xlink:href="#DejaVuSans-4c" transform="translate(1525.796875 0)"/>
     <use xlink:href="#DejaVuSans-51" transform="translate(1553.578125 0)"/>
     <use xlink:href="#DejaVuSans-3" transform="translate(1616.953125 0)"/>
     <use xlink:href="#DejaVuSans-44" transform="translate(1648.734375 0)"/>
     <use xlink:href="#DejaVuSans-3" transform="translate(1710.015625 0)"/>
     <use xlink:href="#DejaVuSans-56" transform="translate(1741.796875 0)"/>
     <use xlink:href="#DejaVuSans-46" transform="translate(1793.890625 0)"/>
     <use xlink:href="#DejaVuSans-44" transform="translate(1848.875 0)"/>
     <use xlink:href="#DejaVuSans-51" transform="translate(1910.15625 0)"/>
    </g>
   </g>
   <g id="text_26">
    <!-- $t_0$ -->
    <g style="fill: #404040" transform="translate(245.612207 216.546211) scale(0.095 -0.095)">
     <defs>
      <path id="DejaVuSans-Oblique-57" d="M 2706 3500 
L 2619 3053 
L 1472 3053 
L 1100 1153 
Q 1081 1047 1072 975 
Q 1063 903 1063 863 
Q 1063 663 1183 572 
Q 1303 481 1569 481 
L 2150 481 
L 2053 0 
L 1503 0 
Q 991 0 739 200 
Q 488 400 488 806 
Q 488 878 497 964 
Q 506 1050 525 1153 
L 897 3053 
L 409 3053 
L 500 3500 
L 978 3500 
L 1172 4494 
L 1747 4494 
L 1556 3500 
L 2706 3500 
z
" transform="scale(0.015625)"/>
     </defs>
     <use xlink:href="#DejaVuSans-Oblique-57" transform="translate(0 0.78125)"/>
     <use xlink:href="#DejaVuSans-13" transform="translate(39.208984 -14.218701) scale(0.7)"/>
    </g>
   </g>
   <g id="text_27">
    <!-- 100.00 -->
    <g style="fill: #1f77b4" transform="translate(234.873692 238.682445) scale(0.085 -0.085)">
     <use xlink:href="#DejaVuSans-14"/>
     <use xlink:href="#DejaVuSans-13" transform="translate(63.625 0)"/>
     <use xlink:href="#DejaVuSans-13" transform="translate(127.25 0)"/>
     <use xlink:href="#DejaVuSans-11" transform="translate(190.875 0)"/>
     <use xlink:href="#DejaVuSans-13" transform="translate(222.65625 0)"/>
     <use xlink:href="#DejaVuSans-13" transform="translate(286.28125 0)"/>
    </g>
   </g>
   <g id="text_28">
    <!-- 100.05 -->
    <g style="fill: #e08a00" transform="translate(234.873692 352.798445) scale(0.085 -0.085)">
     <use xlink:href="#DejaVuSans-14"/>
     <use xlink:href="#DejaVuSans-13" transform="translate(63.625 0)"/>
     <use xlink:href="#DejaVuSans-13" transform="translate(127.25 0)"/>
     <use xlink:href="#DejaVuSans-11" transform="translate(190.875 0)"/>
     <use xlink:href="#DejaVuSans-13" transform="translate(222.65625 0)"/>
     <use xlink:href="#DejaVuSans-18" transform="translate(286.28125 0)"/>
    </g>
   </g>
   <g id="text_29">
    <!-- $t_1$ -->
    <g style="fill: #404040" transform="translate(293.389072 216.546211) scale(0.095 -0.095)">
     <use xlink:href="#DejaVuSans-Oblique-57" transform="translate(0 0.78125)"/>
     <use xlink:href="#DejaVuSans-14" transform="translate(39.208984 -14.218701) scale(0.7)"/>
    </g>
   </g>
   <g id="text_30">
    <!-- 100.02 -->
    <g style="fill: #1f77b4" transform="translate(282.650557 238.682445) scale(0.085 -0.085)">
     <use xlink:href="#DejaVuSans-14"/>
     <use xlink:href="#DejaVuSans-13" transform="translate(63.625 0)"/>
     <use xlink:href="#DejaVuSans-13" transform="translate(127.25 0)"/>
     <use xlink:href="#DejaVuSans-11" transform="translate(190.875 0)"/>
     <use xlink:href="#DejaVuSans-13" transform="translate(222.65625 0)"/>
     <use xlink:href="#DejaVuSans-15" transform="translate(286.28125 0)"/>
    </g>
   </g>
   <g id="text_31">
    <!-- 100.07 -->
    <g style="fill: #e08a00" transform="translate(282.650557 352.798445) scale(0.085 -0.085)">
     <defs>
      <path id="DejaVuSans-1a" d="M 525 4666 
L 3525 4666 
L 3525 4397 
L 1831 0 
L 1172 0 
L 2766 4134 
L 525 4134 
L 525 4666 
z
" transform="scale(0.015625)"/>
     </defs>
     <use xlink:href="#DejaVuSans-14"/>
     <use xlink:href="#DejaVuSans-13" transform="translate(63.625 0)"/>
     <use xlink:href="#DejaVuSans-13" transform="translate(127.25 0)"/>
     <use xlink:href="#DejaVuSans-11" transform="translate(190.875 0)"/>
     <use xlink:href="#DejaVuSans-13" transform="translate(222.65625 0)"/>
     <use xlink:href="#DejaVuSans-1a" transform="translate(286.28125 0)"/>
    </g>
   </g>
   <g id="text_32">
    <!-- $t_2$ -->
    <g style="fill: #404040" transform="translate(341.165937 216.546211) scale(0.095 -0.095)">
     <use xlink:href="#DejaVuSans-Oblique-57" transform="translate(0 0.78125)"/>
     <use xlink:href="#DejaVuSans-15" transform="translate(39.208984 -14.218701) scale(0.7)"/>
    </g>
   </g>
   <g id="text_33">
    <!-- 100.03 -->
    <g style="fill: #1f77b4" transform="translate(330.427421 238.682445) scale(0.085 -0.085)">
     <use xlink:href="#DejaVuSans-14"/>
     <use xlink:href="#DejaVuSans-13" transform="translate(63.625 0)"/>
     <use xlink:href="#DejaVuSans-13" transform="translate(127.25 0)"/>
     <use xlink:href="#DejaVuSans-11" transform="translate(190.875 0)"/>
     <use xlink:href="#DejaVuSans-13" transform="translate(222.65625 0)"/>
     <use xlink:href="#DejaVuSans-16" transform="translate(286.28125 0)"/>
    </g>
   </g>
   <g id="text_34">
    <!-- 100.08 -->
    <g style="fill: #e08a00" transform="translate(330.427421 352.798445) scale(0.085 -0.085)">
     <defs>
      <path id="DejaVuSans-1b" d="M 2034 2216 
Q 1584 2216 1326 1975 
Q 1069 1734 1069 1313 
Q 1069 891 1326 650 
Q 1584 409 2034 409 
Q 2484 409 2743 651 
Q 3003 894 3003 1313 
Q 3003 1734 2745 1975 
Q 2488 2216 2034 2216 
z
M 1403 2484 
Q 997 2584 770 2862 
Q 544 3141 544 3541 
Q 544 4100 942 4425 
Q 1341 4750 2034 4750 
Q 2731 4750 3128 4425 
Q 3525 4100 3525 3541 
Q 3525 3141 3298 2862 
Q 3072 2584 2669 2484 
Q 3125 2378 3379 2068 
Q 3634 1759 3634 1313 
Q 3634 634 3220 271 
Q 2806 -91 2034 -91 
Q 1263 -91 848 271 
Q 434 634 434 1313 
Q 434 1759 690 2068 
Q 947 2378 1403 2484 
z
M 1172 3481 
Q 1172 3119 1398 2916 
Q 1625 2713 2034 2713 
Q 2441 2713 2670 2916 
Q 2900 3119 2900 3481 
Q 2900 3844 2670 4047 
Q 2441 4250 2034 4250 
Q 1625 4250 1398 4047 
Q 1172 3844 1172 3481 
z
" transform="scale(0.015625)"/>
     </defs>
     <use xlink:href="#DejaVuSans-14"/>
     <use xlink:href="#DejaVuSans-13" transform="translate(63.625 0)"/>
     <use xlink:href="#DejaVuSans-13" transform="translate(127.25 0)"/>
     <use xlink:href="#DejaVuSans-11" transform="translate(190.875 0)"/>
     <use xlink:href="#DejaVuSans-13" transform="translate(222.65625 0)"/>
     <use xlink:href="#DejaVuSans-1b" transform="translate(286.28125 0)"/>
    </g>
   </g>
   <g id="text_35">
    <!-- $t_3$ -->
    <g style="fill: #404040" transform="translate(388.942802 216.546211) scale(0.095 -0.095)">
     <use xlink:href="#DejaVuSans-Oblique-57" transform="translate(0 0.78125)"/>
     <use xlink:href="#DejaVuSans-16" transform="translate(39.208984 -14.218701) scale(0.7)"/>
    </g>
   </g>
   <g id="text_36">
    <!-- 100.05 -->
    <g style="fill: #1f77b4" transform="translate(378.204286 238.682445) scale(0.085 -0.085)">
     <use xlink:href="#DejaVuSans-14"/>
     <use xlink:href="#DejaVuSans-13" transform="translate(63.625 0)"/>
     <use xlink:href="#DejaVuSans-13" transform="translate(127.25 0)"/>
     <use xlink:href="#DejaVuSans-11" transform="translate(190.875 0)"/>
     <use xlink:href="#DejaVuSans-13" transform="translate(222.65625 0)"/>
     <use xlink:href="#DejaVuSans-18" transform="translate(286.28125 0)"/>
    </g>
   </g>
   <g id="text_37">
    <!-- 100.10 -->
    <g style="fill: #e08a00" transform="translate(378.204286 352.798445) scale(0.085 -0.085)">
     <use xlink:href="#DejaVuSans-14"/>
     <use xlink:href="#DejaVuSans-13" transform="translate(63.625 0)"/>
     <use xlink:href="#DejaVuSans-13" transform="translate(127.25 0)"/>
     <use xlink:href="#DejaVuSans-11" transform="translate(190.875 0)"/>
     <use xlink:href="#DejaVuSans-14" transform="translate(222.65625 0)"/>
     <use xlink:href="#DejaVuSans-13" transform="translate(286.28125 0)"/>
    </g>
   </g>
   <g id="text_38">
    <!-- $\cdots$ -->
    <g style="fill: #404040" transform="translate(436.102167 216.546211) scale(0.095 -0.095)">
     <use xlink:href="#DejaVuSans-d79" transform="translate(0 0.6875)"/>
    </g>
   </g>
   <g id="text_39">
    <!-- $\cdots$ -->
    <g style="fill: #1f77b4" transform="translate(436.602167 238.682445) scale(0.085 -0.085)">
     <use xlink:href="#DejaVuSans-d79" transform="translate(0 0.6875)"/>
    </g>
   </g>
   <g id="text_40">
    <!-- $\cdots$ -->
    <g style="fill: #e08a00" transform="translate(436.602167 352.798445) scale(0.085 -0.085)">
     <use xlink:href="#DejaVuSans-d79" transform="translate(0 0.6875)"/>
    </g>
   </g>
   <g id="text_41">
    <!-- flight time tof[j] (shared): -->
    <g style="fill: #404040" transform="translate(112.437031 216.786445) scale(0.085 -0.085)">
     <defs>
      <path id="DejaVuSans-49" d="M 2375 4863 
L 2375 4384 
L 1825 4384 
Q 1516 4384 1395 4259 
Q 1275 4134 1275 3809 
L 1275 3500 
L 2222 3500 
L 2222 3053 
L 1275 3053 
L 1275 0 
L 697 0 
L 697 3053 
L 147 3053 
L 147 3500 
L 697 3500 
L 697 3744 
Q 697 4328 969 4595 
Q 1241 4863 1831 4863 
L 2375 4863 
z
" transform="scale(0.015625)"/>
     </defs>
     <use xlink:href="#DejaVuSans-13b0"/>
     <use xlink:href="#DejaVuSans-4c" transform="translate(62.984375 0)"/>
     <use xlink:href="#DejaVuSans-4a" transform="translate(90.765625 0)"/>
     <use xlink:href="#DejaVuSans-4b" transform="translate(154.25 0)"/>
     <use xlink:href="#DejaVuSans-57" transform="translate(217.625 0)"/>
     <use xlink:href="#DejaVuSans-3" transform="translate(256.828125 0)"/>
     <use xlink:href="#DejaVuSans-57" transform="translate(288.609375 0)"/>
     <use xlink:href="#DejaVuSans-4c" transform="translate(327.8125 0)"/>
     <use xlink:href="#DejaVuSans-50" transform="translate(355.59375 0)"/>
     <use xlink:href="#DejaVuSans-48" transform="translate(453 0)"/>
     <use xlink:href="#DejaVuSans-3" transform="translate(514.53125 0)"/>
     <use xlink:href="#DejaVuSans-57" transform="translate(546.3125 0)"/>
     <use xlink:href="#DejaVuSans-52" transform="translate(585.515625 0)"/>
     <use xlink:href="#DejaVuSans-49" transform="translate(646.703125 0)"/>
     <use xlink:href="#DejaVuSans-3e" transform="translate(681.90625 0)"/>
     <use xlink:href="#DejaVuSans-4d" transform="translate(720.921875 0)"/>
     <use xlink:href="#DejaVuSans-40" transform="translate(748.703125 0)"/>
     <use xlink:href="#DejaVuSans-3" transform="translate(787.71875 0)"/>
     <use xlink:href="#DejaVuSans-b" transform="translate(819.5 0)"/>
     <use xlink:href="#DejaVuSans-56" transform="translate(858.515625 0)"/>
     <use xlink:href="#DejaVuSans-4b" transform="translate(910.609375 0)"/>
     <use xlink:href="#DejaVuSans-44" transform="translate(973.984375 0)"/>
     <use xlink:href="#DejaVuSans-55" transform="translate(1035.265625 0)"/>
     <use xlink:href="#DejaVuSans-48" transform="translate(1074.171875 0)"/>
     <use xlink:href="#DejaVuSans-47" transform="translate(1135.703125 0)"/>
     <use xlink:href="#DejaVuSans-c" transform="translate(1199.1875 0)"/>
     <use xlink:href="#DejaVuSans-1d" transform="translate(1238.203125 0)"/>
    </g>
   </g>
   <g id="text_42">
    <!-- m/z = PER-SCAN mass_labels(0): -->
    <g style="fill: #1f77b4" transform="translate(46.657656 238.442211) scale(0.095 -0.095)">
     <defs>
      <path id="DejaVuSans-Bold-36" d="M 3834 4519 
L 3834 3531 
Q 3450 3703 3084 3790 
Q 2719 3878 2394 3878 
Q 1963 3878 1756 3759 
Q 1550 3641 1550 3391 
Q 1550 3203 1689 3098 
Q 1828 2994 2194 2919 
L 2706 2816 
Q 3484 2659 3812 2340 
Q 4141 2022 4141 1434 
Q 4141 663 3683 286 
Q 3225 -91 2284 -91 
Q 1841 -91 1394 -6 
Q 947 78 500 244 
L 500 1259 
Q 947 1022 1364 901 
Q 1781 781 2169 781 
Q 2563 781 2772 912 
Q 2981 1044 2981 1288 
Q 2981 1506 2839 1625 
Q 2697 1744 2272 1838 
L 1806 1941 
Q 1106 2091 782 2419 
Q 459 2747 459 3303 
Q 459 4000 909 4375 
Q 1359 4750 2203 4750 
Q 2588 4750 2994 4692 
Q 3400 4634 3834 4519 
z
" transform="scale(0.015625)"/>
      <path id="DejaVuSans-Bold-26" d="M 4288 256 
Q 3956 84 3597 -3 
Q 3238 -91 2847 -91 
Q 1681 -91 1000 561 
Q 319 1213 319 2328 
Q 319 3447 1000 4098 
Q 1681 4750 2847 4750 
Q 3238 4750 3597 4662 
Q 3956 4575 4288 4403 
L 4288 3438 
Q 3953 3666 3628 3772 
Q 3303 3878 2944 3878 
Q 2300 3878 1931 3465 
Q 1563 3053 1563 2328 
Q 1563 1606 1931 1193 
Q 2300 781 2944 781 
Q 3303 781 3628 887 
Q 3953 994 4288 1222 
L 4288 256 
z
" transform="scale(0.015625)"/>
      <path id="DejaVuSans-Bold-31" d="M 588 4666 
L 1931 4666 
L 3628 1466 
L 3628 4666 
L 4769 4666 
L 4769 0 
L 3425 0 
L 1728 3200 
L 1728 0 
L 588 0 
L 588 4666 
z
" transform="scale(0.015625)"/>
      <path id="DejaVuSans-Bold-42" d="M 3200 -916 
L 3200 -1509 
L 0 -1509 
L 0 -916 
L 3200 -916 
z
" transform="scale(0.015625)"/>
      <path id="DejaVuSans-Bold-13" d="M 2944 2338 
Q 2944 3213 2780 3570 
Q 2616 3928 2228 3928 
Q 1841 3928 1675 3570 
Q 1509 3213 1509 2338 
Q 1509 1453 1675 1090 
Q 1841 728 2228 728 
Q 2613 728 2778 1090 
Q 2944 1453 2944 2338 
z
M 4147 2328 
Q 4147 1169 3647 539 
Q 3147 -91 2228 -91 
Q 1306 -91 806 539 
Q 306 1169 306 2328 
Q 306 3491 806 4120 
Q 1306 4750 2228 4750 
Q 3147 4750 3647 4120 
Q 4147 3491 4147 2328 
z
" transform="scale(0.015625)"/>
     </defs>
     <use xlink:href="#DejaVuSans-Bold-50"/>
     <use xlink:href="#DejaVuSans-Bold-12" transform="translate(104.203125 0)"/>
     <use xlink:href="#DejaVuSans-Bold-5d" transform="translate(140.734375 0)"/>
     <use xlink:href="#DejaVuSans-Bold-3" transform="translate(198.9375 0)"/>
     <use xlink:href="#DejaVuSans-Bold-20" transform="translate(233.75 0)"/>
     <use xlink:href="#DejaVuSans-Bold-3" transform="translate(317.546875 0)"/>
     <use xlink:href="#DejaVuSans-Bold-33" transform="translate(352.359375 0)"/>
     <use xlink:href="#DejaVuSans-Bold-28" transform="translate(425.65625 0)"/>
     <use xlink:href="#DejaVuSans-Bold-35" transform="translate(493.96875 0)"/>
     <use xlink:href="#DejaVuSans-Bold-10" transform="translate(570.96875 0)"/>
     <use xlink:href="#DejaVuSans-Bold-36" transform="translate(612.46875 0)"/>
     <use xlink:href="#DejaVuSans-Bold-26" transform="translate(684.484375 0)"/>
     <use xlink:href="#DejaVuSans-Bold-24" transform="translate(757.875 0)"/>
     <use xlink:href="#DejaVuSans-Bold-31" transform="translate(835.265625 0)"/>
     <use xlink:href="#DejaVuSans-Bold-3" transform="translate(918.953125 0)"/>
     <use xlink:href="#DejaVuSans-Bold-50" transform="translate(953.765625 0)"/>
     <use xlink:href="#DejaVuSans-Bold-44" transform="translate(1057.96875 0)"/>
     <use xlink:href="#DejaVuSans-Bold-56" transform="translate(1125.453125 0)"/>
     <use xlink:href="#DejaVuSans-Bold-56" transform="translate(1184.96875 0)"/>
     <use xlink:href="#DejaVuSans-Bold-42" transform="translate(1244.484375 0)"/>
     <use xlink:href="#DejaVuSans-Bold-4f" transform="translate(1294.484375 0)"/>
     <use xlink:href="#DejaVuSans-Bold-44" transform="translate(1328.765625 0)"/>
     <use xlink:href="#DejaVuSans-Bold-45" transform="translate(1396.25 0)"/>
     <use xlink:href="#DejaVuSans-Bold-48" transform="translate(1467.828125 0)"/>
     <use xlink:href="#DejaVuSans-Bold-4f" transform="translate(1535.65625 0)"/>
     <use xlink:href="#DejaVuSans-Bold-56" transform="translate(1569.9375 0)"/>
     <use xlink:href="#DejaVuSans-Bold-b" transform="translate(1629.453125 0)"/>
     <use xlink:href="#DejaVuSans-Bold-13" transform="translate(1675.15625 0)"/>
     <use xlink:href="#DejaVuSans-Bold-c" transform="translate(1744.734375 0)"/>
     <use xlink:href="#DejaVuSans-Bold-1d" transform="translate(1790.4375 0)"/>
    </g>
   </g>
   <g id="text_43">
    <!-- m/z = PER-SCAN mass_labels(1200): -->
    <g style="fill: #e08a00" transform="translate(26.827891 353.558953) scale(0.095 -0.095)">
     <defs>
      <path id="DejaVuSans-Bold-14" d="M 750 831 
L 1813 831 
L 1813 3847 
L 722 3622 
L 722 4441 
L 1806 4666 
L 2950 4666 
L 2950 831 
L 4013 831 
L 4013 0 
L 750 0 
L 750 831 
z
" transform="scale(0.015625)"/>
      <path id="DejaVuSans-Bold-15" d="M 1844 884 
L 3897 884 
L 3897 0 
L 506 0 
L 506 884 
L 2209 2388 
Q 2438 2594 2547 2791 
Q 2656 2988 2656 3200 
Q 2656 3528 2436 3728 
Q 2216 3928 1850 3928 
Q 1569 3928 1234 3808 
Q 900 3688 519 3450 
L 519 4475 
Q 925 4609 1322 4679 
Q 1719 4750 2100 4750 
Q 2938 4750 3402 4381 
Q 3866 4013 3866 3353 
Q 3866 2972 3669 2642 
Q 3472 2313 2841 1759 
L 1844 884 
z
" transform="scale(0.015625)"/>
     </defs>
     <use xlink:href="#DejaVuSans-Bold-50"/>
     <use xlink:href="#DejaVuSans-Bold-12" transform="translate(104.203125 0)"/>
     <use xlink:href="#DejaVuSans-Bold-5d" transform="translate(140.734375 0)"/>
     <use xlink:href="#DejaVuSans-Bold-3" transform="translate(198.9375 0)"/>
     <use xlink:href="#DejaVuSans-Bold-20" transform="translate(233.75 0)"/>
     <use xlink:href="#DejaVuSans-Bold-3" transform="translate(317.546875 0)"/>
     <use xlink:href="#DejaVuSans-Bold-33" transform="translate(352.359375 0)"/>
     <use xlink:href="#DejaVuSans-Bold-28" transform="translate(425.65625 0)"/>
     <use xlink:href="#DejaVuSans-Bold-35" transform="translate(493.96875 0)"/>
     <use xlink:href="#DejaVuSans-Bold-10" transform="translate(570.96875 0)"/>
     <use xlink:href="#DejaVuSans-Bold-36" transform="translate(612.46875 0)"/>
     <use xlink:href="#DejaVuSans-Bold-26" transform="translate(684.484375 0)"/>
     <use xlink:href="#DejaVuSans-Bold-24" transform="translate(757.875 0)"/>
     <use xlink:href="#DejaVuSans-Bold-31" transform="translate(835.265625 0)"/>
     <use xlink:href="#DejaVuSans-Bold-3" transform="translate(918.953125 0)"/>
     <use xlink:href="#DejaVuSans-Bold-50" transform="translate(953.765625 0)"/>
     <use xlink:href="#DejaVuSans-Bold-44" transform="translate(1057.96875 0)"/>
     <use xlink:href="#DejaVuSans-Bold-56" transform="translate(1125.453125 0)"/>
     <use xlink:href="#DejaVuSans-Bold-56" transform="translate(1184.96875 0)"/>
     <use xlink:href="#DejaVuSans-Bold-42" transform="translate(1244.484375 0)"/>
     <use xlink:href="#DejaVuSans-Bold-4f" transform="translate(1294.484375 0)"/>
     <use xlink:href="#DejaVuSans-Bold-44" transform="translate(1328.765625 0)"/>
     <use xlink:href="#DejaVuSans-Bold-45" transform="translate(1396.25 0)"/>
     <use xlink:href="#DejaVuSans-Bold-48" transform="translate(1467.828125 0)"/>
     <use xlink:href="#DejaVuSans-Bold-4f" transform="translate(1535.65625 0)"/>
     <use xlink:href="#DejaVuSans-Bold-56" transform="translate(1569.9375 0)"/>
     <use xlink:href="#DejaVuSans-Bold-b" transform="translate(1629.453125 0)"/>
     <use xlink:href="#DejaVuSans-Bold-14" transform="translate(1675.15625 0)"/>
     <use xlink:href="#DejaVuSans-Bold-15" transform="translate(1744.734375 0)"/>
     <use xlink:href="#DejaVuSans-Bold-13" transform="translate(1814.3125 0)"/>
     <use xlink:href="#DejaVuSans-Bold-13" transform="translate(1883.890625 0)"/>
     <use xlink:href="#DejaVuSans-Bold-c" transform="translate(1953.46875 0)"/>
     <use xlink:href="#DejaVuSans-Bold-1d" transform="translate(1999.171875 0)"/>
    </g>
   </g>
   <g id="text_44">
    <!-- $\cdots$ -->
    <g style="fill: #666666" transform="translate(435.852167 262.642094) scale(0.1 -0.1)">
     <use xlink:href="#DejaVuSans-d79" transform="translate(0 0.6875)"/>
    </g>
   </g>
   <g id="text_45">
    <!-- scan 0 -->
    <g style="fill: #1f77b4" transform="translate(471.376275 262.122562) scale(0.08 -0.08)">
     <use xlink:href="#DejaVuSans-56"/>
     <use xlink:href="#DejaVuSans-46" transform="translate(52.09375 0)"/>
     <use xlink:href="#DejaVuSans-44" transform="translate(107.078125 0)"/>
     <use xlink:href="#DejaVuSans-51" transform="translate(168.359375 0)"/>
     <use xlink:href="#DejaVuSans-3" transform="translate(231.734375 0)"/>
     <use xlink:href="#DejaVuSans-13" transform="translate(263.515625 0)"/>
    </g>
   </g>
   <g id="text_46">
    <!-- $\vdots$ -->
    <g style="fill: #808080" transform="translate(244.244707 295.101859) scale(0.11 -0.11)">
     <use xlink:href="#DejaVuSans-d78" transform="translate(0 0.515625)"/>
    </g>
   </g>
   <g id="text_47">
    <!-- $\vdots$ -->
    <g style="fill: #808080" transform="translate(292.021572 295.101859) scale(0.11 -0.11)">
     <use xlink:href="#DejaVuSans-d78" transform="translate(0 0.515625)"/>
    </g>
   </g>
   <g id="text_48">
    <!-- $\vdots$ -->
    <g style="fill: #808080" transform="translate(339.798437 295.101859) scale(0.11 -0.11)">
     <use xlink:href="#DejaVuSans-d78" transform="translate(0 0.515625)"/>
    </g>
   </g>
   <g id="text_49">
    <!-- $\vdots$ -->
    <g style="fill: #808080" transform="translate(387.575302 295.101859) scale(0.11 -0.11)">
     <use xlink:href="#DejaVuSans-d78" transform="translate(0 0.515625)"/>
    </g>
   </g>
   <g id="text_50">
    <!-- $\vdots$ -->
    <g style="fill: #808080" transform="translate(435.352167 295.101859) scale(0.11 -0.11)">
     <use xlink:href="#DejaVuSans-d78" transform="translate(0 0.515625)"/>
    </g>
   </g>
   <g id="text_51">
    <!-- $\vdots$ -->
    <g style="fill: #666666" transform="translate(471.376275 294.322562) scale(0.08 -0.08)">
     <use xlink:href="#DejaVuSans-d78" transform="translate(0 0.515625)"/>
    </g>
   </g>
   <g id="text_52">
    <!-- $\cdots$ -->
    <g style="fill: #666666" transform="translate(435.852167 327.042094) scale(0.1 -0.1)">
     <use xlink:href="#DejaVuSans-d79" transform="translate(0 0.6875)"/>
    </g>
   </g>
   <g id="text_53">
    <!-- scan 1200 -->
    <g style="fill: #e08a00" transform="translate(471.376275 326.522562) scale(0.08 -0.08)">
     <use xlink:href="#DejaVuSans-56"/>
     <use xlink:href="#DejaVuSans-46" transform="translate(52.09375 0)"/>
     <use xlink:href="#DejaVuSans-44" transform="translate(107.078125 0)"/>
     <use xlink:href="#DejaVuSans-51" transform="translate(168.359375 0)"/>
     <use xlink:href="#DejaVuSans-3" transform="translate(231.734375 0)"/>
     <use xlink:href="#DejaVuSans-14" transform="translate(263.515625 0)"/>
     <use xlink:href="#DejaVuSans-15" transform="translate(327.140625 0)"/>
     <use xlink:href="#DejaVuSans-13" transform="translate(390.765625 0)"/>
     <use xlink:href="#DejaVuSans-13" transform="translate(454.390625 0)"/>
    </g>
   </g>
   <g id="text_54">
    <!-- $\mathrm{data}[i][j] =$ -->
    <g transform="translate(149.366329 295.363031) scale(0.12 -0.12)">
     <use xlink:href="#DejaVuSans-47" transform="translate(0 0.015625)"/>
     <use xlink:href="#DejaVuSans-44" transform="translate(63.476562 0.015625)"/>
     <use xlink:href="#DejaVuSans-57" transform="translate(124.755859 0.015625)"/>
     <use xlink:href="#DejaVuSans-44" transform="translate(163.964844 0.015625)"/>
     <use xlink:href="#DejaVuSans-3e" transform="translate(225.244141 0.015625)"/>
     <use xlink:href="#DejaVuSans-Oblique-4c" transform="translate(264.257812 0.015625)"/>
     <use xlink:href="#DejaVuSans-40" transform="translate(292.041016 0.015625)"/>
     <use xlink:href="#DejaVuSans-3e" transform="translate(331.054688 0.015625)"/>
     <use xlink:href="#DejaVuSans-Oblique-4d" transform="translate(370.068359 0.015625)"/>
     <use xlink:href="#DejaVuSans-40" transform="translate(397.851562 0.015625)"/>
     <use xlink:href="#DejaVuSans-20" transform="translate(456.347656 0.015625)"/>
    </g>
   </g>
   <g id="patch_33">
    <path d="M 528.443086 247.552099 
Q 528.443086 292.243495 528.443086 335.816857 
" style="fill: none; stroke: #666666; stroke-linecap: round"/>
    <path d="M 530.443086 331.816857 
L 528.443086 335.816857 
L 526.443086 331.816857 
" style="fill: none; stroke: #666666; stroke-linecap: round"/>
   </g>
   <g id="text_55">
    <!-- retention -->
    <g style="fill: #666666" transform="translate(533.220772 289.521781) scale(0.08 -0.08)">
     <use xlink:href="#DejaVuSans-55"/>
     <use xlink:href="#DejaVuSans-48" transform="translate(38.90625 0)"/>
     <use xlink:href="#DejaVuSans-57" transform="translate(100.4375 0)"/>
     <use xlink:href="#DejaVuSans-48" transform="translate(139.640625 0)"/>
     <use xlink:href="#DejaVuSans-51" transform="translate(201.171875 0)"/>
     <use xlink:href="#DejaVuSans-57" transform="translate(264.546875 0)"/>
     <use xlink:href="#DejaVuSans-4c" transform="translate(303.75 0)"/>
     <use xlink:href="#DejaVuSans-52" transform="translate(331.53125 0)"/>
     <use xlink:href="#DejaVuSans-51" transform="translate(392.71875 0)"/>
    </g>
    <!-- time i -->
    <g style="fill: #666666" transform="translate(533.220772 299.123969) scale(0.08 -0.08)">
     <use xlink:href="#DejaVuSans-57"/>
     <use xlink:href="#DejaVuSans-4c" transform="translate(39.203125 0)"/>
     <use xlink:href="#DejaVuSans-50" transform="translate(66.984375 0)"/>
     <use xlink:href="#DejaVuSans-48" transform="translate(164.390625 0)"/>
     <use xlink:href="#DejaVuSans-3" transform="translate(225.921875 0)"/>
     <use xlink:href="#DejaVuSans-4c" transform="translate(257.703125 0)"/>
    </g>
   </g>
   <g id="patch_34">
    <path d="M 461.621413 372.744437 
Q 345.297284 372.744437 228.973155 372.744437 
" style="fill: none; stroke: #737373; stroke-linecap: round"/>
    <path d="M 457.621413 370.744437 
L 461.621413 372.744437 
L 457.621413 374.744437 
" style="fill: none; stroke: #737373; stroke-linecap: round"/>
    <path d="M 232.973155 374.744437 
L 228.973155 372.744437 
L 232.973155 370.744437 
" style="fill: none; stroke: #737373; stroke-linecap: round"/>
   </g>
   <g id="text_56">
    <!-- k points per scan (one row) -->
    <g style="fill: #595959" transform="translate(287.16707 388.863109) scale(0.085 -0.085)">
     <defs>
      <path id="DejaVuSans-4e" d="M 581 4863 
L 1159 4863 
L 1159 1991 
L 2875 3500 
L 3609 3500 
L 1753 1863 
L 3688 0 
L 2938 0 
L 1159 1709 
L 1159 0 
L 581 0 
L 581 4863 
z
" transform="scale(0.015625)"/>
     </defs>
     <use xlink:href="#DejaVuSans-4e"/>
     <use xlink:href="#DejaVuSans-3" transform="translate(57.90625 0)"/>
     <use xlink:href="#DejaVuSans-53" transform="translate(89.6875 0)"/>
     <use xlink:href="#DejaVuSans-52" transform="translate(153.171875 0)"/>
     <use xlink:href="#DejaVuSans-4c" transform="translate(214.359375 0)"/>
     <use xlink:href="#DejaVuSans-51" transform="translate(242.140625 0)"/>
     <use xlink:href="#DejaVuSans-57" transform="translate(305.515625 0)"/>
     <use xlink:href="#DejaVuSans-56" transform="translate(344.71875 0)"/>
     <use xlink:href="#DejaVuSans-3" transform="translate(396.8125 0)"/>
     <use xlink:href="#DejaVuSans-53" transform="translate(428.59375 0)"/>
     <use xlink:href="#DejaVuSans-48" transform="translate(492.078125 0)"/>
     <use xlink:href="#DejaVuSans-55" transform="translate(553.609375 0)"/>
     <use xlink:href="#DejaVuSans-3" transform="translate(594.71875 0)"/>
     <use xlink:href="#DejaVuSans-56" transform="translate(626.5 0)"/>
     <use xlink:href="#DejaVuSans-46" transform="translate(678.59375 0)"/>
     <use xlink:href="#DejaVuSans-44" transform="translate(733.578125 0)"/>
     <use xlink:href="#DejaVuSans-51" transform="translate(794.859375 0)"/>
     <use xlink:href="#DejaVuSans-3" transform="translate(858.234375 0)"/>
     <use xlink:href="#DejaVuSans-b" transform="translate(890.015625 0)"/>
     <use xlink:href="#DejaVuSans-52" transform="translate(929.03125 0)"/>
     <use xlink:href="#DejaVuSans-51" transform="translate(990.21875 0)"/>
     <use xlink:href="#DejaVuSans-48" transform="translate(1053.59375 0)"/>
     <use xlink:href="#DejaVuSans-3" transform="translate(1115.125 0)"/>
     <use xlink:href="#DejaVuSans-55" transform="translate(1146.90625 0)"/>
     <use xlink:href="#DejaVuSans-52" transform="translate(1185.8125 0)"/>
     <use xlink:href="#DejaVuSans-5a" transform="translate(1247 0)"/>
     <use xlink:href="#DejaVuSans-c" transform="translate(1328.78125 0)"/>
    </g>
   </g>
   <g id="text_57">
    <!-- (b) An HRMS profile: per-scan mass labels mass_labels(i), no shared ylabels -->
    <g style="fill: #4c4c4c" transform="translate(144.239377 178.374437) scale(0.1 -0.1)">
     <defs>
      <path id="DejaVuSans-2b" d="M 628 4666 
L 1259 4666 
L 1259 2753 
L 3553 2753 
L 3553 4666 
L 4184 4666 
L 4184 0 
L 3553 0 
L 3553 2222 
L 1259 2222 
L 1259 0 
L 628 0 
L 628 4666 
z
" transform="scale(0.015625)"/>
      <path id="DejaVuSans-35" d="M 2841 2188 
Q 3044 2119 3236 1894 
Q 3428 1669 3622 1275 
L 4263 0 
L 3584 0 
L 2988 1197 
Q 2756 1666 2539 1819 
Q 2322 1972 1947 1972 
L 1259 1972 
L 1259 0 
L 628 0 
L 628 4666 
L 2053 4666 
Q 2853 4666 3247 4331 
Q 3641 3997 3641 3322 
Q 3641 2881 3436 2590 
Q 3231 2300 2841 2188 
z
M 1259 4147 
L 1259 2491 
L 2053 2491 
Q 2509 2491 2742 2702 
Q 2975 2913 2975 3322 
Q 2975 3731 2742 3939 
Q 2509 4147 2053 4147 
L 1259 4147 
z
" transform="scale(0.015625)"/>
      <path id="DejaVuSans-30" d="M 628 4666 
L 1569 4666 
L 2759 1491 
L 3956 4666 
L 4897 4666 
L 4897 0 
L 4281 0 
L 4281 4097 
L 3078 897 
L 2444 897 
L 1241 4097 
L 1241 0 
L 628 0 
L 628 4666 
z
" transform="scale(0.015625)"/>
      <path id="DejaVuSans-36" d="M 3425 4513 
L 3425 3897 
Q 3066 4069 2747 4153 
Q 2428 4238 2131 4238 
Q 1616 4238 1336 4038 
Q 1056 3838 1056 3469 
Q 1056 3159 1242 3001 
Q 1428 2844 1947 2747 
L 2328 2669 
Q 3034 2534 3370 2195 
Q 3706 1856 3706 1288 
Q 3706 609 3251 259 
Q 2797 -91 1919 -91 
Q 1588 -91 1214 -16 
Q 841 59 441 206 
L 441 856 
Q 825 641 1194 531 
Q 1563 422 1919 422 
Q 2459 422 2753 634 
Q 3047 847 3047 1241 
Q 3047 1584 2836 1778 
Q 2625 1972 2144 2069 
L 1759 2144 
Q 1053 2284 737 2584 
Q 422 2884 422 3419 
Q 422 4038 858 4394 
Q 1294 4750 2059 4750 
Q 2388 4750 2728 4690 
Q 3069 4631 3425 4513 
z
" transform="scale(0.015625)"/>
      <path id="DejaVuSans-42" d="M 3263 -1063 
L 3263 -1509 
L -63 -1509 
L -63 -1063 
L 3263 -1063 
z
" transform="scale(0.015625)"/>
     </defs>
     <use xlink:href="#DejaVuSans-b"/>
     <use xlink:href="#DejaVuSans-45" transform="translate(39.015625 0)"/>
     <use xlink:href="#DejaVuSans-c" transform="translate(102.5 0)"/>
     <use xlink:href="#DejaVuSans-3" transform="translate(141.515625 0)"/>
     <use xlink:href="#DejaVuSans-24" transform="translate(173.296875 0)"/>
     <use xlink:href="#DejaVuSans-51" transform="translate(241.703125 0)"/>
     <use xlink:href="#DejaVuSans-3" transform="translate(305.078125 0)"/>
     <use xlink:href="#DejaVuSans-2b" transform="translate(336.859375 0)"/>
     <use xlink:href="#DejaVuSans-35" transform="translate(412.0625 0)"/>
     <use xlink:href="#DejaVuSans-30" transform="translate(481.546875 0)"/>
     <use xlink:href="#DejaVuSans-36" transform="translate(567.828125 0)"/>
     <use xlink:href="#DejaVuSans-3" transform="translate(631.3125 0)"/>
     <use xlink:href="#DejaVuSans-53" transform="translate(663.09375 0)"/>
     <use xlink:href="#DejaVuSans-55" transform="translate(726.578125 0)"/>
     <use xlink:href="#DejaVuSans-52" transform="translate(765.484375 0)"/>
     <use xlink:href="#DejaVuSans-13af" transform="translate(826.671875 0)"/>
     <use xlink:href="#DejaVuSans-4f" transform="translate(889.65625 0)"/>
     <use xlink:href="#DejaVuSans-48" transform="translate(917.4375 0)"/>
     <use xlink:href="#DejaVuSans-1d" transform="translate(978.96875 0)"/>
     <use xlink:href="#DejaVuSans-3" transform="translate(1012.65625 0)"/>
     <use xlink:href="#DejaVuSans-53" transform="translate(1044.4375 0)"/>
     <use xlink:href="#DejaVuSans-48" transform="translate(1107.921875 0)"/>
     <use xlink:href="#DejaVuSans-55" transform="translate(1169.453125 0)"/>
     <use xlink:href="#DejaVuSans-10" transform="translate(1204.171875 0)"/>
     <use xlink:href="#DejaVuSans-56" transform="translate(1240.25 0)"/>
     <use xlink:href="#DejaVuSans-46" transform="translate(1292.34375 0)"/>
     <use xlink:href="#DejaVuSans-44" transform="translate(1347.328125 0)"/>
     <use xlink:href="#DejaVuSans-51" transform="translate(1408.609375 0)"/>
     <use xlink:href="#DejaVuSans-3" transform="translate(1471.984375 0)"/>
     <use xlink:href="#DejaVuSans-50" transform="translate(1503.765625 0)"/>
     <use xlink:href="#DejaVuSans-44" transform="translate(1601.171875 0)"/>
     <use xlink:href="#DejaVuSans-56" transform="translate(1662.453125 0)"/>
     <use xlink:href="#DejaVuSans-56" transform="translate(1714.546875 0)"/>
     <use xlink:href="#DejaVuSans-3" transform="translate(1766.640625 0)"/>
     <use xlink:href="#DejaVuSans-4f" transform="translate(1798.421875 0)"/>
     <use xlink:href="#DejaVuSans-44" transform="translate(1826.203125 0)"/>
     <use xlink:href="#DejaVuSans-45" transform="translate(1887.484375 0)"/>
     <use xlink:href="#DejaVuSans-48" transform="translate(1950.96875 0)"/>
     <use xlink:href="#DejaVuSans-4f" transform="translate(2012.5 0)"/>
     <use xlink:href="#DejaVuSans-56" transform="translate(2040.28125 0)"/>
     <use xlink:href="#DejaVuSans-3" transform="translate(2092.375 0)"/>
     <use xlink:href="#DejaVuSans-50" transform="translate(2124.15625 0)"/>
     <use xlink:href="#DejaVuSans-44" transform="translate(2221.5625 0)"/>
     <use xlink:href="#DejaVuSans-56" transform="translate(2282.84375 0)"/>
     <use xlink:href="#DejaVuSans-56" transform="translate(2334.9375 0)"/>
     <use xlink:href="#DejaVuSans-42" transform="translate(2387.03125 0)"/>
     <use xlink:href="#DejaVuSans-4f" transform="translate(2437.03125 0)"/>
     <use xlink:href="#DejaVuSans-44" transform="translate(2464.8125 0)"/>
     <use xlink:href="#DejaVuSans-45" transform="translate(2526.09375 0)"/>
     <use xlink:href="#DejaVuSans-48" transform="translate(2589.578125 0)"/>
     <use xlink:href="#DejaVuSans-4f" transform="translate(2651.109375 0)"/>
     <use xlink:href="#DejaVuSans-56" transform="translate(2678.890625 0)"/>
     <use xlink:href="#DejaVuSans-b" transform="translate(2730.984375 0)"/>
     <use xlink:href="#DejaVuSans-4c" transform="translate(2770 0)"/>
     <use xlink:href="#DejaVuSans-c" transform="translate(2797.78125 0)"/>
     <use xlink:href="#DejaVuSans-f" transform="translate(2836.796875 0)"/>
     <use xlink:href="#DejaVuSans-3" transform="translate(2868.578125 0)"/>
     <use xlink:href="#DejaVuSans-51" transform="translate(2900.359375 0)"/>
     <use xlink:href="#DejaVuSans-52" transform="translate(2963.734375 0)"/>
     <use xlink:href="#DejaVuSans-3" transform="translate(3024.921875 0)"/>
     <use xlink:href="#DejaVuSans-56" transform="translate(3056.703125 0)"/>
     <use xlink:href="#DejaVuSans-4b" transform="translate(3108.796875 0)"/>
     <use xlink:href="#DejaVuSans-44" transform="translate(3172.171875 0)"/>
     <use xlink:href="#DejaVuSans-55" transform="translate(3233.453125 0)"/>
     <use xlink:href="#DejaVuSans-48" transform="translate(3272.359375 0)"/>
     <use xlink:href="#DejaVuSans-47" transform="translate(3333.890625 0)"/>
     <use xlink:href="#DejaVuSans-3" transform="translate(3397.375 0)"/>
     <use xlink:href="#DejaVuSans-5c" transform="translate(3429.15625 0)"/>
     <use xlink:href="#DejaVuSans-4f" transform="translate(3488.34375 0)"/>
     <use xlink:href="#DejaVuSans-44" transform="translate(3516.125 0)"/>
     <use xlink:href="#DejaVuSans-45" transform="translate(3577.40625 0)"/>
     <use xlink:href="#DejaVuSans-48" transform="translate(3640.890625 0)"/>
     <use xlink:href="#DejaVuSans-4f" transform="translate(3702.421875 0)"/>
     <use xlink:href="#DejaVuSans-56" transform="translate(3730.203125 0)"/>
    </g>
   </g>
  </g>
 </g>
 <defs>
  <clipPath id="p263b16d21f">
   <rect x="87.834221" y="20.798437" width="491.04" height="128.8"/>
  </clipPath>
  <clipPath id="pe596036fa9">
   <rect x="87.834221" y="184.374437" width="491.04" height="218.96"/>
  </clipPath>
 </defs>
</svg>
