<?xml version="1.0" encoding="utf-8" standalone="no"?>
<!DOCTYPE svg PUBLIC "-//W3C//DTD SVG 1.1//EN"
  "http://www.w3.org/Graphics/SVG/1.1/DTD/svg11.dtd">
<svg xmlns:xlink="http://www.w3.org/1999/xlink" width="201.242pt" height="209.89675pt" viewBox="0 0 201.242 209.89675" xmlns="http://www.w3.org/2000/svg" version="1.1">
 <metadata>
  <rdf:RDF xmlns:dc="http://purl.org/dc/elements/1.1/" xmlns:cc="http://creativecommons.org/ns#" xmlns:rdf="http://www.w3.org/1999/02/22-rdf-syntax-ns#">
   <cc:Work>
    <dc:type rdf:resource="http://purl.org/dc/dcmitype/StillImage"/>
    <dc:date>2026-06-23T18:34:11.646207</dc:date>
    <dc:format>image/svg+xml</dc:format>
    <dc:creator>
     <cc:Agent>
      <dc:title>Matplotlib v3.11.0, https://matplotlib.org/</dc:title>
     </cc:Agent>
    </dc:creator>
   </cc:Work>
  </rdf:RDF>
 </metadata>
 <defs>
  <style type="text/css">*{stroke-linejoin: round; stroke-linecap: butt}</style>
 </defs>
 <g id="figure_1">
  <g id="patch_1">
   <path d="M 0 209.89675 
L 201.242 209.89675 
L 201.242 -0 
L 0 -0 
z
" style="fill: #ffffff"/>
  </g>
  <g id="axes_1">
   <g id="patch_2">
    <path d="M 37.692 94.58875 
L 65.412 94.58875 
L 65.412 66.86875 
L 37.692 66.86875 
L 37.692 94.58875 
z
" clip-path="url(#p0e0ade186d)" style="fill: none; stroke: #808080; stroke-linejoin: miter"/>
   </g>
   <g id="patch_3">
    <path d="M 65.412 94.58875 
L 93.132 94.58875 
L 93.132 66.86875 
L 65.412 66.86875 
L 65.412 94.58875 
z
" clip-path="url(#p0e0ade186d)" style="fill: none; stroke: #808080; stroke-linejoin: miter"/>
   </g>
   <g id="patch_4">
    <path d="M 93.132 94.58875 
L 120.852 94.58875 
L 120.852 66.86875 
L 93.132 66.86875 
L 93.132 94.58875 
z
" clip-path="url(#p0e0ade186d)" style="fill: none; stroke: #808080; stroke-linejoin: miter"/>
   </g>
   <g id="patch_5">
    <path d="M 120.852 94.58875 
L 148.572 94.58875 
L 148.572 66.86875 
L 120.852 66.86875 
L 120.852 94.58875 
z
" clip-path="url(#p0e0ade186d)" style="fill: none; stroke: #808080; stroke-linejoin: miter"/>
   </g>
   <g id="patch_6">
    <path d="M 148.572 94.58875 
L 176.292 94.58875 
L 176.292 66.86875 
L 148.572 66.86875 
L 148.572 94.58875 
z
" clip-path="url(#p0e0ade186d)" style="fill: none; stroke: #808080; stroke-linejoin: miter"/>
   </g>
   <g id="patch_7">
    <path d="M 37.692 122.30875 
L 65.412 122.30875 
L 65.412 94.58875 
L 37.692 94.58875 
L 37.692 122.30875 
z
" clip-path="url(#p0e0ade186d)" style="fill: none; stroke: #808080; stroke-linejoin: miter"/>
   </g>
   <g id="patch_8">
    <path d="M 65.412 122.30875 
L 93.132 122.30875 
L 93.132 94.58875 
L 65.412 94.58875 
L 65.412 122.30875 
z
" clip-path="url(#p0e0ade186d)" style="fill: none; stroke: #808080; stroke-linejoin: miter"/>
   </g>
   <g id="patch_9">
    <path d="M 93.132 122.30875 
L 120.852 122.30875 
L 120.852 94.58875 
L 93.132 94.58875 
L 93.132 122.30875 
z
" clip-path="url(#p0e0ade186d)" style="fill: none; stroke: #808080; stroke-linejoin: miter"/>
   </g>
   <g id="patch_10">
    <path d="M 120.852 122.30875 
L 148.572 122.30875 
L 148.572 94.58875 
L 120.852 94.58875 
L 120.852 122.30875 
z
" clip-path="url(#p0e0ade186d)" style="fill: none; stroke: #808080; stroke-linejoin: miter"/>
   </g>
   <g id="patch_11">
    <path d="M 148.572 122.30875 
L 176.292 122.30875 
L 176.292 94.58875 
L 148.572 94.58875 
L 148.572 122.30875 
z
" clip-path="url(#p0e0ade186d)" style="fill: none; stroke: #808080; stroke-linejoin: miter"/>
   </g>
   <g id="patch_12">
    <path d="M 37.692 150.02875 
L 65.412 150.02875 
L 65.412 122.30875 
L 37.692 122.30875 
L 37.692 150.02875 
z
" clip-path="url(#p0e0ade186d)" style="fill: none; stroke: #808080; stroke-linejoin: miter"/>
   </g>
   <g id="patch_13">
    <path d="M 65.412 150.02875 
L 93.132 150.02875 
L 93.132 122.30875 
L 65.412 122.30875 
L 65.412 150.02875 
z
" clip-path="url(#p0e0ade186d)" style="fill: none; stroke: #808080; stroke-linejoin: miter"/>
   </g>
   <g id="patch_14">
    <path d="M 93.132 150.02875 
L 120.852 150.02875 
L 120.852 122.30875 
L 93.132 122.30875 
L 93.132 150.02875 
z
" clip-path="url(#p0e0ade186d)" style="fill: none; stroke: #808080; stroke-linejoin: miter"/>
   </g>
   <g id="patch_15">
    <path d="M 120.852 150.02875 
L 148.572 150.02875 
L 148.572 122.30875 
L 120.852 122.30875 
L 120.852 150.02875 
z
" clip-path="url(#p0e0ade186d)" style="fill: none; stroke: #808080; stroke-linejoin: miter"/>
   </g>
   <g id="patch_16">
    <path d="M 148.572 150.02875 
L 176.292 150.02875 
L 176.292 122.30875 
L 148.572 122.30875 
L 148.572 150.02875 
z
" clip-path="url(#p0e0ade186d)" style="fill: none; stroke: #808080; stroke-linejoin: miter"/>
   </g>
   <g id="text_1">
    <!-- $I_{00}$ -->
    <g transform="translate(44.232 83.845938) scale(0.12 -0.12)">
     <defs>
      <path id="DejaVuSans-Oblique-2c" d="M 1081 4666 
L 1716 4666 
L 806 0 
L 172 0 
L 1081 4666 
z
" transform="scale(0.015625)"/>
      <path id="DejaVuSans-13" d="M 2034 4250 
Q 1547 4250 1301 3770 
Q 1056 3291 1056 2328 
Q 1056 1369 1301 889 
Q 1547 409 2034 409 
Q 2525 409 2770 889 
Q 3016 1369 3016 2328 
Q 3016 3291 2770 3770 
Q 2525 4250 2034 4250 
z
M 2034 4750 
Q 2819 4750 3233 4129 
Q 3647 3509 3647 2328 
Q 3647 1150 3233 529 
Q 2819 -91 2034 -91 
Q 1250 -91 836 529 
Q 422 1150 422 2328 
Q 422 3509 836 4129 
Q 1250 4750 2034 4750 
z
" transform="scale(0.015625)"/>
     </defs>
     <use xlink:href="#DejaVuSans-Oblique-2c" transform="translate(0 0.09375)"/>
     <use xlink:href="#DejaVuSans-13" transform="translate(29.492188 -14.906201) scale(0.7)"/>
     <use xlink:href="#DejaVuSans-13" transform="translate(74.02832 -14.906201) scale(0.7)"/>
    </g>
   </g>
   <g id="text_2">
    <!-- $I_{01}$ -->
    <g transform="translate(71.952 83.845938) scale(0.12 -0.12)">
     <defs>
      <path id="DejaVuSans-14" d="M 794 531 
L 1825 531 
L 1825 4091 
L 703 3866 
L 703 4441 
L 1819 4666 
L 2450 4666 
L 2450 531 
L 3481 531 
L 3481 0 
L 794 0 
L 794 531 
z
" transform="scale(0.015625)"/>
     </defs>
     <use xlink:href="#DejaVuSans-Oblique-2c" transform="translate(0 0.09375)"/>
     <use xlink:href="#DejaVuSans-13" transform="translate(29.492188 -14.906201) scale(0.7)"/>
     <use xlink:href="#DejaVuSans-14" transform="translate(74.02832 -14.906201) scale(0.7)"/>
    </g>
   </g>
   <g id="text_3">
    <!-- $I_{02}$ -->
    <g transform="translate(99.672 83.845938) scale(0.12 -0.12)">
     <defs>
      <path id="DejaVuSans-15" d="M 1228 531 
L 3431 531 
L 3431 0 
L 469 0 
L 469 531 
Q 828 903 1448 1529 
Q 2069 2156 2228 2338 
Q 2531 2678 2651 2914 
Q 2772 3150 2772 3378 
Q 2772 3750 2511 3984 
Q 2250 4219 1831 4219 
Q 1534 4219 1204 4116 
Q 875 4013 500 3803 
L 500 4441 
Q 881 4594 1212 4672 
Q 1544 4750 1819 4750 
Q 2544 4750 2975 4387 
Q 3406 4025 3406 3419 
Q 3406 3131 3298 2873 
Q 3191 2616 2906 2266 
Q 2828 2175 2409 1742 
Q 1991 1309 1228 531 
z
" transform="scale(0.015625)"/>
     </defs>
     <use xlink:href="#DejaVuSans-Oblique-2c" transform="translate(0 0.09375)"/>
     <use xlink:href="#DejaVuSans-13" transform="translate(29.492188 -14.906201) scale(0.7)"/>
     <use xlink:href="#DejaVuSans-15" transform="translate(74.02832 -14.906201) scale(0.7)"/>
    </g>
   </g>
   <g id="text_4">
    <!-- $I_{03}$ -->
    <g transform="translate(127.392 83.845938) scale(0.12 -0.12)">
     <defs>
      <path id="DejaVuSans-16" d="M 2597 2516 
Q 3050 2419 3304 2112 
Q 3559 1806 3559 1356 
Q 3559 666 3084 287 
Q 2609 -91 1734 -91 
Q 1441 -91 1130 -33 
Q 819 25 488 141 
L 488 750 
Q 750 597 1062 519 
Q 1375 441 1716 441 
Q 2309 441 2620 675 
Q 2931 909 2931 1356 
Q 2931 1769 2642 2001 
Q 2353 2234 1838 2234 
L 1294 2234 
L 1294 2753 
L 1863 2753 
Q 2328 2753 2575 2939 
Q 2822 3125 2822 3475 
Q 2822 3834 2567 4026 
Q 2313 4219 1838 4219 
Q 1578 4219 1281 4162 
Q 984 4106 628 3988 
L 628 4550 
Q 988 4650 1302 4700 
Q 1616 4750 1894 4750 
Q 2613 4750 3031 4423 
Q 3450 4097 3450 3541 
Q 3450 3153 3228 2886 
Q 3006 2619 2597 2516 
z
" transform="scale(0.015625)"/>
     </defs>
     <use xlink:href="#DejaVuSans-Oblique-2c" transform="translate(0 0.09375)"/>
     <use xlink:href="#DejaVuSans-13" transform="translate(29.492188 -14.906201) scale(0.7)"/>
     <use xlink:href="#DejaVuSans-16" transform="translate(74.02832 -14.906201) scale(0.7)"/>
    </g>
   </g>
   <g id="text_5">
    <!-- $\cdots$ -->
    <g transform="translate(156.432 83.845938) scale(0.12 -0.12)">
     <defs>
      <path id="DejaVuSans-d79" d="M 737 2388 
L 1397 2388 
L 1397 1594 
L 737 1594 
L 737 2388 
z
M 2868 2388 
L 3528 2388 
L 3528 1594 
L 2868 1594 
L 2868 2388 
z
M 5000 2388 
L 5660 2388 
L 5660 1594 
L 5000 1594 
L 5000 2388 
z
" transform="scale(0.015625)"/>
     </defs>
     <use xlink:href="#DejaVuSans-d79" transform="translate(0 0.6875)"/>
    </g>
   </g>
   <g id="text_6">
    <!-- $I_{10}$ -->
    <g transform="translate(44.232 111.565938) scale(0.12 -0.12)">
     <use xlink:href="#DejaVuSans-Oblique-2c" transform="translate(0 0.09375)"/>
     <use xlink:href="#DejaVuSans-14" transform="translate(29.492188 -14.906201) scale(0.7)"/>
     <use xlink:href="#DejaVuSans-13" transform="translate(74.02832 -14.906201) scale(0.7)"/>
    </g>
   </g>
   <g id="text_7">
    <!-- $I_{11}$ -->
    <g transform="translate(71.952 111.565938) scale(0.12 -0.12)">
     <use xlink:href="#DejaVuSans-Oblique-2c" transform="translate(0 0.09375)"/>
     <use xlink:href="#DejaVuSans-14" transform="translate(29.492188 -14.906201) scale(0.7)"/>
     <use xlink:href="#DejaVuSans-14" transform="translate(74.02832 -14.906201) scale(0.7)"/>
    </g>
   </g>
   <g id="text_8">
    <!-- $I_{12}$ -->
    <g transform="translate(99.672 111.565938) scale(0.12 -0.12)">
     <use xlink:href="#DejaVuSans-Oblique-2c" transform="translate(0 0.09375)"/>
     <use xlink:href="#DejaVuSans-14" transform="translate(29.492188 -14.906201) scale(0.7)"/>
     <use xlink:href="#DejaVuSans-15" transform="translate(74.02832 -14.906201) scale(0.7)"/>
    </g>
   </g>
   <g id="text_9">
    <!-- $I_{13}$ -->
    <g transform="translate(127.392 111.565938) scale(0.12 -0.12)">
     <use xlink:href="#DejaVuSans-Oblique-2c" transform="translate(0 0.09375)"/>
     <use xlink:href="#DejaVuSans-14" transform="translate(29.492188 -14.906201) scale(0.7)"/>
     <use xlink:href="#DejaVuSans-16" transform="translate(74.02832 -14.906201) scale(0.7)"/>
    </g>
   </g>
   <g id="text_10">
    <!-- $\cdots$ -->
    <g transform="translate(156.432 111.565938) scale(0.12 -0.12)">
     <use xlink:href="#DejaVuSans-d79" transform="translate(0 0.6875)"/>
    </g>
   </g>
   <g id="text_11">
    <!-- $I_{20}$ -->
    <g transform="translate(44.232 139.285938) scale(0.12 -0.12)">
     <use xlink:href="#DejaVuSans-Oblique-2c" transform="translate(0 0.09375)"/>
     <use xlink:href="#DejaVuSans-15" transform="translate(29.492188 -14.906201) scale(0.7)"/>
     <use xlink:href="#DejaVuSans-13" transform="translate(74.02832 -14.906201) scale(0.7)"/>
    </g>
   </g>
   <g id="text_12">
    <!-- $I_{21}$ -->
    <g transform="translate(71.952 139.285938) scale(0.12 -0.12)">
     <use xlink:href="#DejaVuSans-Oblique-2c" transform="translate(0 0.09375)"/>
     <use xlink:href="#DejaVuSans-15" transform="translate(29.492188 -14.906201) scale(0.7)"/>
     <use xlink:href="#DejaVuSans-14" transform="translate(74.02832 -14.906201) scale(0.7)"/>
    </g>
   </g>
   <g id="text_13">
    <!-- $I_{22}$ -->
    <g transform="translate(99.672 139.285938) scale(0.12 -0.12)">
     <use xlink:href="#DejaVuSans-Oblique-2c" transform="translate(0 0.09375)"/>
     <use xlink:href="#DejaVuSans-15" transform="translate(29.492188 -14.906201) scale(0.7)"/>
     <use xlink:href="#DejaVuSans-15" transform="translate(74.02832 -14.906201) scale(0.7)"/>
    </g>
   </g>
   <g id="text_14">
    <!-- $I_{23}$ -->
    <g transform="translate(127.392 139.285938) scale(0.12 -0.12)">
     <use xlink:href="#DejaVuSans-Oblique-2c" transform="translate(0 0.09375)"/>
     <use xlink:href="#DejaVuSans-15" transform="translate(29.492188 -14.906201) scale(0.7)"/>
     <use xlink:href="#DejaVuSans-16" transform="translate(74.02832 -14.906201) scale(0.7)"/>
    </g>
   </g>
   <g id="text_15">
    <!-- $\cdots$ -->
    <g transform="translate(156.432 139.285938) scale(0.12 -0.12)">
     <use xlink:href="#DejaVuSans-d79" transform="translate(0 0.6875)"/>
    </g>
   </g>
   <g id="patch_17">
    <path d="M 103.688211 59.93875 
Q 138.990829 59.93875 173.175412 59.93875 
" style="fill: none; stroke: #4c4c4c; stroke-linecap: round"/>
    <path d="M 169.175412 57.93875 
L 173.175412 59.93875 
L 169.175412 61.93875 
" style="fill: none; stroke: #4c4c4c; stroke-linecap: round"/>
   </g>
   <g id="text_16">
    <!-- point index j -->
    <g transform="translate(37.692 62.536797) scale(0.1 -0.1)">
     <defs>
      <path id="DejaVuSans-53" d="M 1159 525 
L 1159 -1331 
L 581 -1331 
L 581 3500 
L 1159 3500 
L 1159 2969 
Q 1341 3281 1617 3432 
Q 1894 3584 2278 3584 
Q 2916 3584 3314 3078 
Q 3713 2572 3713 1747 
Q 3713 922 3314 415 
Q 2916 -91 2278 -91 
Q 1894 -91 1617 61 
Q 1341 213 1159 525 
z
M 3116 1747 
Q 3116 2381 2855 2742 
Q 2594 3103 2138 3103 
Q 1681 3103 1420 2742 
Q 1159 2381 1159 1747 
Q 1159 1113 1420 752 
Q 1681 391 2138 391 
Q 2594 391 2855 752 
Q 3116 1113 3116 1747 
z
" transform="scale(0.015625)"/>
      <path id="DejaVuSans-52" d="M 1959 3097 
Q 1497 3097 1228 2736 
Q 959 2375 959 1747 
Q 959 1119 1226 758 
Q 1494 397 1959 397 
Q 2419 397 2687 759 
Q 2956 1122 2956 1747 
Q 2956 2369 2687 2733 
Q 2419 3097 1959 3097 
z
M 1959 3584 
Q 2709 3584 3137 3096 
Q 3566 2609 3566 1747 
Q 3566 888 3137 398 
Q 2709 -91 1959 -91 
Q 1206 -91 779 398 
Q 353 888 353 1747 
Q 353 2609 779 3096 
Q 1206 3584 1959 3584 
z
" transform="scale(0.015625)"/>
      <path id="DejaVuSans-4c" d="M 603 3500 
L 1178 3500 
L 1178 0 
L 603 0 
L 603 3500 
z
M 603 4863 
L 1178 4863 
L 1178 4134 
L 603 4134 
L 603 4863 
z
" transform="scale(0.015625)"/>
      <path id="DejaVuSans-51" d="M 3513 2113 
L 3513 0 
L 2938 0 
L 2938 2094 
Q 2938 2591 2744 2837 
Q 2550 3084 2163 3084 
Q 1697 3084 1428 2787 
Q 1159 2491 1159 1978 
L 1159 0 
L 581 0 
L 581 3500 
L 1159 3500 
L 1159 2956 
Q 1366 3272 1645 3428 
Q 1925 3584 2291 3584 
Q 2894 3584 3203 3211 
Q 3513 2838 3513 2113 
z
" transform="scale(0.015625)"/>
      <path id="DejaVuSans-57" d="M 1172 4494 
L 1172 3500 
L 2356 3500 
L 2356 3053 
L 1172 3053 
L 1172 1153 
Q 1172 725 1289 603 
Q 1406 481 1766 481 
L 2356 481 
L 2356 0 
L 1766 0 
Q 1100 0 847 248 
Q 594 497 594 1153 
L 594 3053 
L 172 3053 
L 172 3500 
L 594 3500 
L 594 4494 
L 1172 4494 
z
" transform="scale(0.015625)"/>
      <path id="DejaVuSans-3" transform="scale(0.015625)"/>
      <path id="DejaVuSans-47" d="M 2906 2969 
L 2906 4863 
L 3481 4863 
L 3481 0 
L 2906 0 
L 2906 525 
Q 2725 213 2448 61 
Q 2172 -91 1784 -91 
Q 1150 -91 751 415 
Q 353 922 353 1747 
Q 353 2572 751 3078 
Q 1150 3584 1784 3584 
Q 2172 3584 2448 3432 
Q 2725 3281 2906 2969 
z
M 947 1747 
Q 947 1113 1208 752 
Q 1469 391 1925 391 
Q 2381 391 2643 752 
Q 2906 1113 2906 1747 
Q 2906 2381 2643 2742 
Q 2381 3103 1925 3103 
Q 1469 3103 1208 2742 
Q 947 2381 947 1747 
z
" transform="scale(0.015625)"/>
      <path id="DejaVuSans-48" d="M 3597 1894 
L 3597 1613 
L 953 1613 
Q 991 1019 1311 708 
Q 1631 397 2203 397 
Q 2534 397 2845 478 
Q 3156 559 3463 722 
L 3463 178 
Q 3153 47 2828 -22 
Q 2503 -91 2169 -91 
Q 1331 -91 842 396 
Q 353 884 353 1716 
Q 353 2575 817 3079 
Q 1281 3584 2069 3584 
Q 2775 3584 3186 3129 
Q 3597 2675 3597 1894 
z
M 3022 2063 
Q 3016 2534 2758 2815 
Q 2500 3097 2075 3097 
Q 1594 3097 1305 2825 
Q 1016 2553 972 2059 
L 3022 2063 
z
" transform="scale(0.015625)"/>
      <path id="DejaVuSans-5b" d="M 3513 3500 
L 2247 1797 
L 3578 0 
L 2900 0 
L 1881 1375 
L 863 0 
L 184 0 
L 1544 1831 
L 300 3500 
L 978 3500 
L 1906 2253 
L 2834 3500 
L 3513 3500 
z
" transform="scale(0.015625)"/>
      <path id="DejaVuSans-4d" d="M 603 3500 
L 1178 3500 
L 1178 -63 
Q 1178 -731 923 -1031 
Q 669 -1331 103 -1331 
L -116 -1331 
L -116 -844 
L 38 -844 
Q 366 -844 484 -692 
Q 603 -541 603 -63 
L 603 3500 
z
M 603 4863 
L 1178 4863 
L 1178 4134 
L 603 4134 
L 603 4863 
z
" transform="scale(0.015625)"/>
     </defs>
     <use xlink:href="#DejaVuSans-53"/>
     <use xlink:href="#DejaVuSans-52" transform="translate(63.484375 0)"/>
     <use xlink:href="#DejaVuSans-4c" transform="translate(124.671875 0)"/>
     <use xlink:href="#DejaVuSans-51" transform="translate(152.453125 0)"/>
     <use xlink:href="#DejaVuSans-57" transform="translate(215.828125 0)"/>
     <use xlink:href="#DejaVuSans-3" transform="translate(255.03125 0)"/>
     <use xlink:href="#DejaVuSans-4c" transform="translate(286.8125 0)"/>
     <use xlink:href="#DejaVuSans-51" transform="translate(314.59375 0)"/>
     <use xlink:href="#DejaVuSans-47" transform="translate(377.96875 0)"/>
     <use xlink:href="#DejaVuSans-48" transform="translate(441.453125 0)"/>
     <use xlink:href="#DejaVuSans-5b" transform="translate(501.234375 0)"/>
     <use xlink:href="#DejaVuSans-3" transform="translate(560.421875 0)"/>
     <use xlink:href="#DejaVuSans-4d" transform="translate(592.203125 0)"/>
    </g>
   </g>
   <g id="patch_18">
    <path d="M 25.218 70.862147 
Q 25.218 109.447652 25.218 146.915122 
" style="fill: none; stroke: #4c4c4c; stroke-linecap: round"/>
    <path d="M 27.218 142.915122 
L 25.218 146.915122 
L 23.218 142.915122 
" style="fill: none; stroke: #4c4c4c; stroke-linecap: round"/>
   </g>
   <g id="text_17">
    <!-- scan index i -->
    <g transform="translate(27.816047 66.86875) rotate(-90) scale(0.1 -0.1)">
     <defs>
      <path id="DejaVuSans-56" d="M 2834 3397 
L 2834 2853 
Q 2591 2978 2328 3040 
Q 2066 3103 1784 3103 
Q 1356 3103 1142 2972 
Q 928 2841 928 2578 
Q 928 2378 1081 2264 
Q 1234 2150 1697 2047 
L 1894 2003 
Q 2506 1872 2764 1633 
Q 3022 1394 3022 966 
Q 3022 478 2636 193 
Q 2250 -91 1575 -91 
Q 1294 -91 989 -36 
Q 684 19 347 128 
L 347 722 
Q 666 556 975 473 
Q 1284 391 1588 391 
Q 1994 391 2212 530 
Q 2431 669 2431 922 
Q 2431 1156 2273 1281 
Q 2116 1406 1581 1522 
L 1381 1569 
Q 847 1681 609 1914 
Q 372 2147 372 2553 
Q 372 3047 722 3315 
Q 1072 3584 1716 3584 
Q 2034 3584 2315 3537 
Q 2597 3491 2834 3397 
z
" transform="scale(0.015625)"/>
      <path id="DejaVuSans-46" d="M 3122 3366 
L 3122 2828 
Q 2878 2963 2633 3030 
Q 2388 3097 2138 3097 
Q 1578 3097 1268 2742 
Q 959 2388 959 1747 
Q 959 1106 1268 751 
Q 1578 397 2138 397 
Q 2388 397 2633 464 
Q 2878 531 3122 666 
L 3122 134 
Q 2881 22 2623 -34 
Q 2366 -91 2075 -91 
Q 1284 -91 818 406 
Q 353 903 353 1747 
Q 353 2603 823 3093 
Q 1294 3584 2113 3584 
Q 2378 3584 2631 3529 
Q 2884 3475 3122 3366 
z
" transform="scale(0.015625)"/>
      <path id="DejaVuSans-44" d="M 2194 1759 
Q 1497 1759 1228 1600 
Q 959 1441 959 1056 
Q 959 750 1161 570 
Q 1363 391 1709 391 
Q 2188 391 2477 730 
Q 2766 1069 2766 1631 
L 2766 1759 
L 2194 1759 
z
M 3341 1997 
L 3341 0 
L 2766 0 
L 2766 531 
Q 2569 213 2275 61 
Q 1981 -91 1556 -91 
Q 1019 -91 701 211 
Q 384 513 384 1019 
Q 384 1609 779 1909 
Q 1175 2209 1959 2209 
L 2766 2209 
L 2766 2266 
Q 2766 2663 2505 2880 
Q 2244 3097 1772 3097 
Q 1472 3097 1187 3025 
Q 903 2953 641 2809 
L 641 3341 
Q 956 3463 1253 3523 
Q 1550 3584 1831 3584 
Q 2591 3584 2966 3190 
Q 3341 2797 3341 1997 
z
" transform="scale(0.015625)"/>
     </defs>
     <use xlink:href="#DejaVuSans-56"/>
     <use xlink:href="#DejaVuSans-46" transform="translate(52.09375 0)"/>
     <use xlink:href="#DejaVuSans-44" transform="translate(107.078125 0)"/>
     <use xlink:href="#DejaVuSans-51" transform="translate(168.359375 0)"/>
     <use xlink:href="#DejaVuSans-3" transform="translate(231.734375 0)"/>
     <use xlink:href="#DejaVuSans-4c" transform="translate(263.515625 0)"/>
     <use xlink:href="#DejaVuSans-51" transform="translate(291.296875 0)"/>
     <use xlink:href="#DejaVuSans-47" transform="translate(354.671875 0)"/>
     <use xlink:href="#DejaVuSans-48" transform="translate(418.15625 0)"/>
     <use xlink:href="#DejaVuSans-5b" transform="translate(477.9375 0)"/>
     <use xlink:href="#DejaVuSans-3" transform="translate(537.125 0)"/>
     <use xlink:href="#DejaVuSans-4c" transform="translate(568.90625 0)"/>
    </g>
   </g>
   <g id="text_18">
    <!-- each cell is one intensity, $\mathrm{data}[i][j]$ -->
    <g transform="translate(19.942 195.05075) scale(0.1 -0.1)">
     <defs>
      <path id="DejaVuSans-4b" d="M 3513 2113 
L 3513 0 
L 2938 0 
L 2938 2094 
Q 2938 2591 2744 2837 
Q 2550 3084 2163 3084 
Q 1697 3084 1428 2787 
Q 1159 2491 1159 1978 
L 1159 0 
L 581 0 
L 581 4863 
L 1159 4863 
L 1159 2956 
Q 1366 3272 1645 3428 
Q 1925 3584 2291 3584 
Q 2894 3584 3203 3211 
Q 3513 2838 3513 2113 
z
" transform="scale(0.015625)"/>
      <path id="DejaVuSans-4f" d="M 603 4863 
L 1178 4863 
L 1178 0 
L 603 0 
L 603 4863 
z
" transform="scale(0.015625)"/>
      <path id="DejaVuSans-5c" d="M 2059 -325 
Q 1816 -950 1584 -1140 
Q 1353 -1331 966 -1331 
L 506 -1331 
L 506 -850 
L 844 -850 
Q 1081 -850 1212 -737 
Q 1344 -625 1503 -206 
L 1606 56 
L 191 3500 
L 800 3500 
L 1894 763 
L 2988 3500 
L 3597 3500 
L 2059 -325 
z
" transform="scale(0.015625)"/>
      <path id="DejaVuSans-f" d="M 750 794 
L 1409 794 
L 1409 256 
L 897 -744 
L 494 -744 
L 750 256 
L 750 794 
z
" transform="scale(0.015625)"/>
      <path id="DejaVuSans-3e" d="M 550 4863 
L 1875 4863 
L 1875 4416 
L 1125 4416 
L 1125 -397 
L 1875 -397 
L 1875 -844 
L 550 -844 
L 550 4863 
z
" transform="scale(0.015625)"/>
      <path id="DejaVuSans-Oblique-4c" d="M 1172 4863 
L 1747 4863 
L 1606 4134 
L 1031 4134 
L 1172 4863 
z
M 909 3500 
L 1484 3500 
L 800 0 
L 225 0 
L 909 3500 
z
" transform="scale(0.015625)"/>
      <path id="DejaVuSans-40" d="M 1947 4863 
L 1947 -844 
L 622 -844 
L 622 -397 
L 1369 -397 
L 1369 4416 
L 622 4416 
L 622 4863 
L 1947 4863 
z
" transform="scale(0.015625)"/>
      <path id="DejaVuSans-Oblique-4d" d="M 928 3500 
L 1503 3500 
L 813 -63 
L 809 -78 
Q 694 -675 544 -897 
Q 403 -1106 132 -1218 
Q -138 -1331 -506 -1331 
L -722 -1331 
L -628 -844 
L -481 -844 
Q -144 -844 -1 -703 
Q 141 -563 238 -63 
L 928 3500 
z
M 1197 4863 
L 1772 4863 
L 1631 4134 
L 1056 4134 
L 1197 4863 
z
" transform="scale(0.015625)"/>
     </defs>
     <use xlink:href="#DejaVuSans-48" transform="translate(0 0.015625)"/>
     <use xlink:href="#DejaVuSans-44" transform="translate(61.523438 0.015625)"/>
     <use xlink:href="#DejaVuSans-46" transform="translate(122.802734 0.015625)"/>
     <use xlink:href="#DejaVuSans-4b" transform="translate(177.783203 0.015625)"/>
     <use xlink:href="#DejaVuSans-3" transform="translate(241.162109 0.015625)"/>
     <use xlink:href="#DejaVuSans-46" transform="translate(272.949219 0.015625)"/>
     <use xlink:href="#DejaVuSans-48" transform="translate(327.929688 0.015625)"/>
     <use xlink:href="#DejaVuSans-4f" transform="translate(389.453125 0.015625)"/>
     <use xlink:href="#DejaVuSans-4f" transform="translate(417.236328 0.015625)"/>
     <use xlink:href="#DejaVuSans-3" transform="translate(445.019531 0.015625)"/>
     <use xlink:href="#DejaVuSans-4c" transform="translate(476.806641 0.015625)"/>
     <use xlink:href="#DejaVuSans-56" transform="translate(504.589844 0.015625)"/>
     <use xlink:href="#DejaVuSans-3" transform="translate(556.689453 0.015625)"/>
     <use xlink:href="#DejaVuSans-52" transform="translate(588.476562 0.015625)"/>
     <use xlink:href="#DejaVuSans-51" transform="translate(649.658203 0.015625)"/>
     <use xlink:href="#DejaVuSans-48" transform="translate(713.037109 0.015625)"/>
     <use xlink:href="#DejaVuSans-3" transform="translate(774.560547 0.015625)"/>
     <use xlink:href="#DejaVuSans-4c" transform="translate(806.347656 0.015625)"/>
     <use xlink:href="#DejaVuSans-51" transform="translate(834.130859 0.015625)"/>
     <use xlink:href="#DejaVuSans-57" transform="translate(897.509766 0.015625)"/>
     <use xlink:href="#DejaVuSans-48" transform="translate(936.71875 0.015625)"/>
     <use xlink:href="#DejaVuSans-51" transform="translate(998.242188 0.015625)"/>
     <use xlink:href="#DejaVuSans-56" transform="translate(1061.621094 0.015625)"/>
     <use xlink:href="#DejaVuSans-4c" transform="translate(1113.720703 0.015625)"/>
     <use xlink:href="#DejaVuSans-57" transform="translate(1141.503906 0.015625)"/>
     <use xlink:href="#DejaVuSans-5c" transform="translate(1180.712891 0.015625)"/>
     <use xlink:href="#DejaVuSans-f" transform="translate(1239.892578 0.015625)"/>
     <use xlink:href="#DejaVuSans-3" transform="translate(1271.679688 0.015625)"/>
     <use xlink:href="#DejaVuSans-47" transform="translate(1303.466797 0.015625)"/>
     <use xlink:href="#DejaVuSans-44" transform="translate(1366.943359 0.015625)"/>
     <use xlink:href="#DejaVuSans-57" transform="translate(1428.222656 0.015625)"/>
     <use xlink:href="#DejaVuSans-44" transform="translate(1467.431641 0.015625)"/>
     <use xlink:href="#DejaVuSans-3e" transform="translate(1528.710938 0.015625)"/>
     <use xlink:href="#DejaVuSans-Oblique-4c" transform="translate(1567.724609 0.015625)"/>
     <use xlink:href="#DejaVuSans-40" transform="translate(1595.507812 0.015625)"/>
     <use xlink:href="#DejaVuSans-3e" transform="translate(1634.521484 0.015625)"/>
     <use xlink:href="#DejaVuSans-Oblique-4d" transform="translate(1673.535156 0.015625)"/>
     <use xlink:href="#DejaVuSans-40" transform="translate(1701.318359 0.015625)"/>
    </g>
   </g>
  </g>
 </g>
 <defs>
  <clipPath id="p0e0ade186d">
   <rect x="7.2" y="47.46475" width="174.636" height="155.232"/>
  </clipPath>
 </defs>
</svg>
