<?xml version="1.0" encoding="utf-8" standalone="no"?>
<!DOCTYPE svg PUBLIC "-//W3C//DTD SVG 1.1//EN"
  "http://www.w3.org/Graphics/SVG/1.1/DTD/svg11.dtd">
<svg xmlns:xlink="http://www.w3.org/1999/xlink" width="272.926165pt" height="175.176pt" viewBox="0 0 272.926165 175.176" xmlns="http://www.w3.org/2000/svg" version="1.1">
 <metadata>
  <rdf:RDF xmlns:dc="http://purl.org/dc/elements/1.1/" xmlns:cc="http://creativecommons.org/ns#" xmlns:rdf="http://www.w3.org/1999/02/22-rdf-syntax-ns#">
   <cc:Work>
    <dc:type rdf:resource="http://purl.org/dc/dcmitype/StillImage"/>
    <dc:date>2026-06-23T19:07:06.782860</dc:date>
    <dc:format>image/svg+xml</dc:format>
    <dc:creator>
     <cc:Agent>
      <dc:title>Matplotlib v3.11.0, https://matplotlib.org/</dc:title>
     </cc:Agent>
    </dc:creator>
   </cc:Work>
  </rdf:RDF>
 </metadata>
 <defs>
  <style type="text/css">*{stroke-linejoin: round; stroke-linecap: butt}</style>
 </defs>
 <g id="figure_1">
  <g id="patch_1">
   <path d="M 0 175.176 
L 272.926165 175.176 
L 272.926165 0 
L 0 0 
z
" style="fill: #ffffff"/>
  </g>
  <g id="axes_1">
   <g id="patch_2">
    <path d="M 82.825028 79.47545 
L 112.325211 79.47545 
L 112.325211 49.975266 
L 82.825028 49.975266 
L 82.825028 79.47545 
z
" clip-path="url(#p7bc721856f)" style="fill: none; stroke: #808080; stroke-linejoin: miter"/>
   </g>
   <g id="patch_3">
    <path d="M 112.325211 79.47545 
L 141.825394 79.47545 
L 141.825394 49.975266 
L 112.325211 49.975266 
L 112.325211 79.47545 
z
" clip-path="url(#p7bc721856f)" style="fill: none; stroke: #808080; stroke-linejoin: miter"/>
   </g>
   <g id="patch_4">
    <path d="M 141.825394 79.47545 
L 171.325578 79.47545 
L 171.325578 49.975266 
L 141.825394 49.975266 
L 141.825394 79.47545 
z
" clip-path="url(#p7bc721856f)" style="fill: none; stroke: #808080; stroke-linejoin: miter"/>
   </g>
   <g id="patch_5">
    <path d="M 171.325578 79.47545 
L 200.825761 79.47545 
L 200.825761 49.975266 
L 171.325578 49.975266 
L 171.325578 79.47545 
z
" clip-path="url(#p7bc721856f)" style="fill: none; stroke: #808080; stroke-linejoin: miter"/>
   </g>
   <g id="patch_6">
    <path d="M 200.825761 79.47545 
L 230.325945 79.47545 
L 230.325945 49.975266 
L 200.825761 49.975266 
L 200.825761 79.47545 
z
" clip-path="url(#p7bc721856f)" style="fill: none; stroke: #808080; stroke-linejoin: miter"/>
   </g>
   <g id="patch_7">
    <path d="M 82.825028 108.975633 
L 112.325211 108.975633 
L 112.325211 79.47545 
L 82.825028 79.47545 
L 82.825028 108.975633 
z
" clip-path="url(#p7bc721856f)" style="fill: none; stroke: #808080; stroke-linejoin: miter"/>
   </g>
   <g id="patch_8">
    <path d="M 112.325211 108.975633 
L 141.825394 108.975633 
L 141.825394 79.47545 
L 112.325211 79.47545 
L 112.325211 108.975633 
z
" clip-path="url(#p7bc721856f)" style="fill: none; stroke: #808080; stroke-linejoin: miter"/>
   </g>
   <g id="patch_9">
    <path d="M 141.825394 108.975633 
L 171.325578 108.975633 
L 171.325578 79.47545 
L 141.825394 79.47545 
L 141.825394 108.975633 
z
" clip-path="url(#p7bc721856f)" style="fill: none; stroke: #808080; stroke-linejoin: miter"/>
   </g>
   <g id="patch_10">
    <path d="M 171.325578 108.975633 
L 200.825761 108.975633 
L 200.825761 79.47545 
L 171.325578 79.47545 
L 171.325578 108.975633 
z
" clip-path="url(#p7bc721856f)" style="fill: none; stroke: #808080; stroke-linejoin: miter"/>
   </g>
   <g id="patch_11">
    <path d="M 200.825761 108.975633 
L 230.325945 108.975633 
L 230.325945 79.47545 
L 200.825761 79.47545 
L 200.825761 108.975633 
z
" clip-path="url(#p7bc721856f)" style="fill: none; stroke: #808080; stroke-linejoin: miter"/>
   </g>
   <g id="patch_12">
    <path d="M 82.825028 138.475817 
L 112.325211 138.475817 
L 112.325211 108.975633 
L 82.825028 108.975633 
L 82.825028 138.475817 
z
" clip-path="url(#p7bc721856f)" style="fill: none; stroke: #808080; stroke-linejoin: miter"/>
   </g>
   <g id="patch_13">
    <path d="M 112.325211 138.475817 
L 141.825394 138.475817 
L 141.825394 108.975633 
L 112.325211 108.975633 
L 112.325211 138.475817 
z
" clip-path="url(#p7bc721856f)" style="fill: none; stroke: #808080; stroke-linejoin: miter"/>
   </g>
   <g id="patch_14">
    <path d="M 141.825394 138.475817 
L 171.325578 138.475817 
L 171.325578 108.975633 
L 141.825394 108.975633 
L 141.825394 138.475817 
z
" clip-path="url(#p7bc721856f)" style="fill: none; stroke: #808080; stroke-linejoin: miter"/>
   </g>
   <g id="patch_15">
    <path d="M 171.325578 138.475817 
L 200.825761 138.475817 
L 200.825761 108.975633 
L 171.325578 108.975633 
L 171.325578 138.475817 
z
" clip-path="url(#p7bc721856f)" style="fill: none; stroke: #808080; stroke-linejoin: miter"/>
   </g>
   <g id="patch_16">
    <path d="M 200.825761 138.475817 
L 230.325945 138.475817 
L 230.325945 108.975633 
L 200.825761 108.975633 
L 200.825761 138.475817 
z
" clip-path="url(#p7bc721856f)" style="fill: none; stroke: #808080; stroke-linejoin: miter"/>
   </g>
   <g id="text_1">
    <!-- 100.00 -->
    <g style="fill: #1f77b4" transform="translate(83.578869 21.078198) scale(0.08 -0.08)">
     <defs>
      <path id="DejaVuSans-14" d="M 794 531 
L 1825 531 
L 1825 4091 
L 703 3866 
L 703 4441 
L 1819 4666 
L 2450 4666 
L 2450 531 
L 3481 531 
L 3481 0 
L 794 0 
L 794 531 
z
" transform="scale(0.015625)"/>
      <path id="DejaVuSans-13" d="M 2034 4250 
Q 1547 4250 1301 3770 
Q 1056 3291 1056 2328 
Q 1056 1369 1301 889 
Q 1547 409 2034 409 
Q 2525 409 2770 889 
Q 3016 1369 3016 2328 
Q 3016 3291 2770 3770 
Q 2525 4250 2034 4250 
z
M 2034 4750 
Q 2819 4750 3233 4129 
Q 3647 3509 3647 2328 
Q 3647 1150 3233 529 
Q 2819 -91 2034 -91 
Q 1250 -91 836 529 
Q 422 1150 422 2328 
Q 422 3509 836 4129 
Q 1250 4750 2034 4750 
z
" transform="scale(0.015625)"/>
      <path id="DejaVuSans-11" d="M 684 794 
L 1344 794 
L 1344 0 
L 684 0 
L 684 794 
z
" transform="scale(0.015625)"/>
     </defs>
     <use xlink:href="#DejaVuSans-14"/>
     <use xlink:href="#DejaVuSans-13" transform="translate(63.625 0)"/>
     <use xlink:href="#DejaVuSans-13" transform="translate(127.25 0)"/>
     <use xlink:href="#DejaVuSans-11" transform="translate(190.875 0)"/>
     <use xlink:href="#DejaVuSans-13" transform="translate(222.65625 0)"/>
     <use xlink:href="#DejaVuSans-13" transform="translate(286.28125 0)"/>
    </g>
   </g>
   <g id="text_2">
    <!-- 100.05 -->
    <g style="fill: #e08a00" transform="translate(83.578869 35.82829) scale(0.08 -0.08)">
     <defs>
      <path id="DejaVuSans-18" d="M 691 4666 
L 3169 4666 
L 3169 4134 
L 1269 4134 
L 1269 2991 
Q 1406 3038 1543 3061 
Q 1681 3084 1819 3084 
Q 2600 3084 3056 2656 
Q 3513 2228 3513 1497 
Q 3513 744 3044 326 
Q 2575 -91 1722 -91 
Q 1428 -91 1123 -41 
Q 819 9 494 109 
L 494 744 
Q 775 591 1075 516 
Q 1375 441 1709 441 
Q 2250 441 2565 725 
Q 2881 1009 2881 1497 
Q 2881 1984 2565 2268 
Q 2250 2553 1709 2553 
Q 1456 2553 1204 2497 
Q 953 2441 691 2322 
L 691 4666 
z
" transform="scale(0.015625)"/>
     </defs>
     <use xlink:href="#DejaVuSans-14"/>
     <use xlink:href="#DejaVuSans-13" transform="translate(63.625 0)"/>
     <use xlink:href="#DejaVuSans-13" transform="translate(127.25 0)"/>
     <use xlink:href="#DejaVuSans-11" transform="translate(190.875 0)"/>
     <use xlink:href="#DejaVuSans-13" transform="translate(222.65625 0)"/>
     <use xlink:href="#DejaVuSans-18" transform="translate(286.28125 0)"/>
    </g>
   </g>
   <g id="text_3">
    <!-- 100.02 -->
    <g style="fill: #1f77b4" transform="translate(113.079053 21.078198) scale(0.08 -0.08)">
     <defs>
      <path id="DejaVuSans-15" d="M 1228 531 
L 3431 531 
L 3431 0 
L 469 0 
L 469 531 
Q 828 903 1448 1529 
Q 2069 2156 2228 2338 
Q 2531 2678 2651 2914 
Q 2772 3150 2772 3378 
Q 2772 3750 2511 3984 
Q 2250 4219 1831 4219 
Q 1534 4219 1204 4116 
Q 875 4013 500 3803 
L 500 4441 
Q 881 4594 1212 4672 
Q 1544 4750 1819 4750 
Q 2544 4750 2975 4387 
Q 3406 4025 3406 3419 
Q 3406 3131 3298 2873 
Q 3191 2616 2906 2266 
Q 2828 2175 2409 1742 
Q 1991 1309 1228 531 
z
" transform="scale(0.015625)"/>
     </defs>
     <use xlink:href="#DejaVuSans-14"/>
     <use xlink:href="#DejaVuSans-13" transform="translate(63.625 0)"/>
     <use xlink:href="#DejaVuSans-13" transform="translate(127.25 0)"/>
     <use xlink:href="#DejaVuSans-11" transform="translate(190.875 0)"/>
     <use xlink:href="#DejaVuSans-13" transform="translate(222.65625 0)"/>
     <use xlink:href="#DejaVuSans-15" transform="translate(286.28125 0)"/>
    </g>
   </g>
   <g id="text_4">
    <!-- 100.07 -->
    <g style="fill: #e08a00" transform="translate(113.079053 35.82829) scale(0.08 -0.08)">
     <defs>
      <path id="DejaVuSans-1a" d="M 525 4666 
L 3525 4666 
L 3525 4397 
L 1831 0 
L 1172 0 
L 2766 4134 
L 525 4134 
L 525 4666 
z
" transform="scale(0.015625)"/>
     </defs>
     <use xlink:href="#DejaVuSans-14"/>
     <use xlink:href="#DejaVuSans-13" transform="translate(63.625 0)"/>
     <use xlink:href="#DejaVuSans-13" transform="translate(127.25 0)"/>
     <use xlink:href="#DejaVuSans-11" transform="translate(190.875 0)"/>
     <use xlink:href="#DejaVuSans-13" transform="translate(222.65625 0)"/>
     <use xlink:href="#DejaVuSans-1a" transform="translate(286.28125 0)"/>
    </g>
   </g>
   <g id="text_5">
    <!-- 100.03 -->
    <g style="fill: #1f77b4" transform="translate(142.579236 21.078198) scale(0.08 -0.08)">
     <defs>
      <path id="DejaVuSans-16" d="M 2597 2516 
Q 3050 2419 3304 2112 
Q 3559 1806 3559 1356 
Q 3559 666 3084 287 
Q 2609 -91 1734 -91 
Q 1441 -91 1130 -33 
Q 819 25 488 141 
L 488 750 
Q 750 597 1062 519 
Q 1375 441 1716 441 
Q 2309 441 2620 675 
Q 2931 909 2931 1356 
Q 2931 1769 2642 2001 
Q 2353 2234 1838 2234 
L 1294 2234 
L 1294 2753 
L 1863 2753 
Q 2328 2753 2575 2939 
Q 2822 3125 2822 3475 
Q 2822 3834 2567 4026 
Q 2313 4219 1838 4219 
Q 1578 4219 1281 4162 
Q 984 4106 628 3988 
L 628 4550 
Q 988 4650 1302 4700 
Q 1616 4750 1894 4750 
Q 2613 4750 3031 4423 
Q 3450 4097 3450 3541 
Q 3450 3153 3228 2886 
Q 3006 2619 2597 2516 
z
" transform="scale(0.015625)"/>
     </defs>
     <use xlink:href="#DejaVuSans-14"/>
     <use xlink:href="#DejaVuSans-13" transform="translate(63.625 0)"/>
     <use xlink:href="#DejaVuSans-13" transform="translate(127.25 0)"/>
     <use xlink:href="#DejaVuSans-11" transform="translate(190.875 0)"/>
     <use xlink:href="#DejaVuSans-13" transform="translate(222.65625 0)"/>
     <use xlink:href="#DejaVuSans-16" transform="translate(286.28125 0)"/>
    </g>
   </g>
   <g id="text_6">
    <!-- 100.08 -->
    <g style="fill: #e08a00" transform="translate(142.579236 35.82829) scale(0.08 -0.08)">
     <defs>
      <path id="DejaVuSans-1b" d="M 2034 2216 
Q 1584 2216 1326 1975 
Q 1069 1734 1069 1313 
Q 1069 891 1326 650 
Q 1584 409 2034 409 
Q 2484 409 2743 651 
Q 3003 894 3003 1313 
Q 3003 1734 2745 1975 
Q 2488 2216 2034 2216 
z
M 1403 2484 
Q 997 2584 770 2862 
Q 544 3141 544 3541 
Q 544 4100 942 4425 
Q 1341 4750 2034 4750 
Q 2731 4750 3128 4425 
Q 3525 4100 3525 3541 
Q 3525 3141 3298 2862 
Q 3072 2584 2669 2484 
Q 3125 2378 3379 2068 
Q 3634 1759 3634 1313 
Q 3634 634 3220 271 
Q 2806 -91 2034 -91 
Q 1263 -91 848 271 
Q 434 634 434 1313 
Q 434 1759 690 2068 
Q 947 2378 1403 2484 
z
M 1172 3481 
Q 1172 3119 1398 2916 
Q 1625 2713 2034 2713 
Q 2441 2713 2670 2916 
Q 2900 3119 2900 3481 
Q 2900 3844 2670 4047 
Q 2441 4250 2034 4250 
Q 1625 4250 1398 4047 
Q 1172 3844 1172 3481 
z
" transform="scale(0.015625)"/>
     </defs>
     <use xlink:href="#DejaVuSans-14"/>
     <use xlink:href="#DejaVuSans-13" transform="translate(63.625 0)"/>
     <use xlink:href="#DejaVuSans-13" transform="translate(127.25 0)"/>
     <use xlink:href="#DejaVuSans-11" transform="translate(190.875 0)"/>
     <use xlink:href="#DejaVuSans-13" transform="translate(222.65625 0)"/>
     <use xlink:href="#DejaVuSans-1b" transform="translate(286.28125 0)"/>
    </g>
   </g>
   <g id="text_7">
    <!-- 100.05 -->
    <g style="fill: #1f77b4" transform="translate(172.07942 21.078198) scale(0.08 -0.08)">
     <use xlink:href="#DejaVuSans-14"/>
     <use xlink:href="#DejaVuSans-13" transform="translate(63.625 0)"/>
     <use xlink:href="#DejaVuSans-13" transform="translate(127.25 0)"/>
     <use xlink:href="#DejaVuSans-11" transform="translate(190.875 0)"/>
     <use xlink:href="#DejaVuSans-13" transform="translate(222.65625 0)"/>
     <use xlink:href="#DejaVuSans-18" transform="translate(286.28125 0)"/>
    </g>
   </g>
   <g id="text_8">
    <!-- 100.10 -->
    <g style="fill: #e08a00" transform="translate(172.07942 35.82829) scale(0.08 -0.08)">
     <use xlink:href="#DejaVuSans-14"/>
     <use xlink:href="#DejaVuSans-13" transform="translate(63.625 0)"/>
     <use xlink:href="#DejaVuSans-13" transform="translate(127.25 0)"/>
     <use xlink:href="#DejaVuSans-11" transform="translate(190.875 0)"/>
     <use xlink:href="#DejaVuSans-14" transform="translate(222.65625 0)"/>
     <use xlink:href="#DejaVuSans-13" transform="translate(286.28125 0)"/>
    </g>
   </g>
   <g id="text_9">
    <!-- $\cdots$ -->
    <g style="fill: #1f77b4" transform="translate(211.575853 21.078198) scale(0.08 -0.08)">
     <defs>
      <path id="DejaVuSans-d79" d="M 737 2388 
L 1397 2388 
L 1397 1594 
L 737 1594 
L 737 2388 
z
M 2868 2388 
L 3528 2388 
L 3528 1594 
L 2868 1594 
L 2868 2388 
z
M 5000 2388 
L 5660 2388 
L 5660 1594 
L 5000 1594 
L 5000 2388 
z
" transform="scale(0.015625)"/>
     </defs>
     <use xlink:href="#DejaVuSans-d79" transform="translate(0 0.6875)"/>
    </g>
   </g>
   <g id="text_10">
    <!-- $\cdots$ -->
    <g style="fill: #e08a00" transform="translate(211.575853 35.82829) scale(0.08 -0.08)">
     <use xlink:href="#DejaVuSans-d79" transform="translate(0 0.6875)"/>
    </g>
   </g>
   <g id="text_11">
    <!-- m/z in scan 0: -->
    <g style="fill: #1f77b4" transform="translate(22.47 21.078511) scale(0.08 -0.08)">
     <defs>
      <path id="DejaVuSans-50" d="M 3328 2828 
Q 3544 3216 3844 3400 
Q 4144 3584 4550 3584 
Q 5097 3584 5394 3201 
Q 5691 2819 5691 2113 
L 5691 0 
L 5113 0 
L 5113 2094 
Q 5113 2597 4934 2840 
Q 4756 3084 4391 3084 
Q 3944 3084 3684 2787 
Q 3425 2491 3425 1978 
L 3425 0 
L 2847 0 
L 2847 2094 
Q 2847 2600 2669 2842 
Q 2491 3084 2119 3084 
Q 1678 3084 1418 2786 
Q 1159 2488 1159 1978 
L 1159 0 
L 581 0 
L 581 3500 
L 1159 3500 
L 1159 2956 
Q 1356 3278 1631 3431 
Q 1906 3584 2284 3584 
Q 2666 3584 2933 3390 
Q 3200 3197 3328 2828 
z
" transform="scale(0.015625)"/>
      <path id="DejaVuSans-12" d="M 1625 4666 
L 2156 4666 
L 531 -594 
L 0 -594 
L 1625 4666 
z
" transform="scale(0.015625)"/>
      <path id="DejaVuSans-5d" d="M 353 3500 
L 3084 3500 
L 3084 2975 
L 922 459 
L 3084 459 
L 3084 0 
L 275 0 
L 275 525 
L 2438 3041 
L 353 3041 
L 353 3500 
z
" transform="scale(0.015625)"/>
      <path id="DejaVuSans-3" transform="scale(0.015625)"/>
      <path id="DejaVuSans-4c" d="M 603 3500 
L 1178 3500 
L 1178 0 
L 603 0 
L 603 3500 
z
M 603 4863 
L 1178 4863 
L 1178 4134 
L 603 4134 
L 603 4863 
z
" transform="scale(0.015625)"/>
      <path id="DejaVuSans-51" d="M 3513 2113 
L 3513 0 
L 2938 0 
L 2938 2094 
Q 2938 2591 2744 2837 
Q 2550 3084 2163 3084 
Q 1697 3084 1428 2787 
Q 1159 2491 1159 1978 
L 1159 0 
L 581 0 
L 581 3500 
L 1159 3500 
L 1159 2956 
Q 1366 3272 1645 3428 
Q 1925 3584 2291 3584 
Q 2894 3584 3203 3211 
Q 3513 2838 3513 2113 
z
" transform="scale(0.015625)"/>
      <path id="DejaVuSans-56" d="M 2834 3397 
L 2834 2853 
Q 2591 2978 2328 3040 
Q 2066 3103 1784 3103 
Q 1356 3103 1142 2972 
Q 928 2841 928 2578 
Q 928 2378 1081 2264 
Q 1234 2150 1697 2047 
L 1894 2003 
Q 2506 1872 2764 1633 
Q 3022 1394 3022 966 
Q 3022 478 2636 193 
Q 2250 -91 1575 -91 
Q 1294 -91 989 -36 
Q 684 19 347 128 
L 347 722 
Q 666 556 975 473 
Q 1284 391 1588 391 
Q 1994 391 2212 530 
Q 2431 669 2431 922 
Q 2431 1156 2273 1281 
Q 2116 1406 1581 1522 
L 1381 1569 
Q 847 1681 609 1914 
Q 372 2147 372 2553 
Q 372 3047 722 3315 
Q 1072 3584 1716 3584 
Q 2034 3584 2315 3537 
Q 2597 3491 2834 3397 
z
" transform="scale(0.015625)"/>
      <path id="DejaVuSans-46" d="M 3122 3366 
L 3122 2828 
Q 2878 2963 2633 3030 
Q 2388 3097 2138 3097 
Q 1578 3097 1268 2742 
Q 959 2388 959 1747 
Q 959 1106 1268 751 
Q 1578 397 2138 397 
Q 2388 397 2633 464 
Q 2878 531 3122 666 
L 3122 134 
Q 2881 22 2623 -34 
Q 2366 -91 2075 -91 
Q 1284 -91 818 406 
Q 353 903 353 1747 
Q 353 2603 823 3093 
Q 1294 3584 2113 3584 
Q 2378 3584 2631 3529 
Q 2884 3475 3122 3366 
z
" transform="scale(0.015625)"/>
      <path id="DejaVuSans-44" d="M 2194 1759 
Q 1497 1759 1228 1600 
Q 959 1441 959 1056 
Q 959 750 1161 570 
Q 1363 391 1709 391 
Q 2188 391 2477 730 
Q 2766 1069 2766 1631 
L 2766 1759 
L 2194 1759 
z
M 3341 1997 
L 3341 0 
L 2766 0 
L 2766 531 
Q 2569 213 2275 61 
Q 1981 -91 1556 -91 
Q 1019 -91 701 211 
Q 384 513 384 1019 
Q 384 1609 779 1909 
Q 1175 2209 1959 2209 
L 2766 2209 
L 2766 2266 
Q 2766 2663 2505 2880 
Q 2244 3097 1772 3097 
Q 1472 3097 1187 3025 
Q 903 2953 641 2809 
L 641 3341 
Q 956 3463 1253 3523 
Q 1550 3584 1831 3584 
Q 2591 3584 2966 3190 
Q 3341 2797 3341 1997 
z
" transform="scale(0.015625)"/>
      <path id="DejaVuSans-1d" d="M 750 794 
L 1409 794 
L 1409 0 
L 750 0 
L 750 794 
z
M 750 3309 
L 1409 3309 
L 1409 2516 
L 750 2516 
L 750 3309 
z
" transform="scale(0.015625)"/>
     </defs>
     <use xlink:href="#DejaVuSans-50"/>
     <use xlink:href="#DejaVuSans-12" transform="translate(97.40625 0)"/>
     <use xlink:href="#DejaVuSans-5d" transform="translate(131.09375 0)"/>
     <use xlink:href="#DejaVuSans-3" transform="translate(183.578125 0)"/>
     <use xlink:href="#DejaVuSans-4c" transform="translate(215.359375 0)"/>
     <use xlink:href="#DejaVuSans-51" transform="translate(243.140625 0)"/>
     <use xlink:href="#DejaVuSans-3" transform="translate(306.515625 0)"/>
     <use xlink:href="#DejaVuSans-56" transform="translate(338.296875 0)"/>
     <use xlink:href="#DejaVuSans-46" transform="translate(390.390625 0)"/>
     <use xlink:href="#DejaVuSans-44" transform="translate(445.375 0)"/>
     <use xlink:href="#DejaVuSans-51" transform="translate(506.65625 0)"/>
     <use xlink:href="#DejaVuSans-3" transform="translate(570.03125 0)"/>
     <use xlink:href="#DejaVuSans-13" transform="translate(601.8125 0)"/>
     <use xlink:href="#DejaVuSans-1d" transform="translate(665.4375 0)"/>
    </g>
   </g>
   <g id="text_12">
    <!-- m/z in scan 1200: -->
    <g style="fill: #e08a00" transform="translate(7.2 35.828603) scale(0.08 -0.08)">
     <use xlink:href="#DejaVuSans-50"/>
     <use xlink:href="#DejaVuSans-12" transform="translate(97.40625 0)"/>
     <use xlink:href="#DejaVuSans-5d" transform="translate(131.09375 0)"/>
     <use xlink:href="#DejaVuSans-3" transform="translate(183.578125 0)"/>
     <use xlink:href="#DejaVuSans-4c" transform="translate(215.359375 0)"/>
     <use xlink:href="#DejaVuSans-51" transform="translate(243.140625 0)"/>
     <use xlink:href="#DejaVuSans-3" transform="translate(306.515625 0)"/>
     <use xlink:href="#DejaVuSans-56" transform="translate(338.296875 0)"/>
     <use xlink:href="#DejaVuSans-46" transform="translate(390.390625 0)"/>
     <use xlink:href="#DejaVuSans-44" transform="translate(445.375 0)"/>
     <use xlink:href="#DejaVuSans-51" transform="translate(506.65625 0)"/>
     <use xlink:href="#DejaVuSans-3" transform="translate(570.03125 0)"/>
     <use xlink:href="#DejaVuSans-14" transform="translate(601.8125 0)"/>
     <use xlink:href="#DejaVuSans-15" transform="translate(665.4375 0)"/>
     <use xlink:href="#DejaVuSans-13" transform="translate(729.0625 0)"/>
     <use xlink:href="#DejaVuSans-13" transform="translate(792.6875 0)"/>
     <use xlink:href="#DejaVuSans-1d" transform="translate(856.3125 0)"/>
    </g>
   </g>
   <g id="text_13">
    <!-- $I_{00}$ -->
    <g transform="translate(90.865119 67.58278) scale(0.11 -0.11)">
     <defs>
      <path id="DejaVuSans-Oblique-2c" d="M 1081 4666 
L 1716 4666 
L 806 0 
L 172 0 
L 1081 4666 
z
" transform="scale(0.015625)"/>
     </defs>
     <use xlink:href="#DejaVuSans-Oblique-2c" transform="translate(0 0.09375)"/>
     <use xlink:href="#DejaVuSans-13" transform="translate(29.492188 -14.906201) scale(0.7)"/>
     <use xlink:href="#DejaVuSans-13" transform="translate(74.02832 -14.906201) scale(0.7)"/>
    </g>
   </g>
   <g id="text_14">
    <!-- $I_{01}$ -->
    <g transform="translate(120.365303 67.58278) scale(0.11 -0.11)">
     <use xlink:href="#DejaVuSans-Oblique-2c" transform="translate(0 0.09375)"/>
     <use xlink:href="#DejaVuSans-13" transform="translate(29.492188 -14.906201) scale(0.7)"/>
     <use xlink:href="#DejaVuSans-14" transform="translate(74.02832 -14.906201) scale(0.7)"/>
    </g>
   </g>
   <g id="text_15">
    <!-- $I_{02}$ -->
    <g transform="translate(149.865486 67.58278) scale(0.11 -0.11)">
     <use xlink:href="#DejaVuSans-Oblique-2c" transform="translate(0 0.09375)"/>
     <use xlink:href="#DejaVuSans-13" transform="translate(29.492188 -14.906201) scale(0.7)"/>
     <use xlink:href="#DejaVuSans-15" transform="translate(74.02832 -14.906201) scale(0.7)"/>
    </g>
   </g>
   <g id="text_16">
    <!-- $I_{03}$ -->
    <g transform="translate(179.36567 67.58278) scale(0.11 -0.11)">
     <use xlink:href="#DejaVuSans-Oblique-2c" transform="translate(0 0.09375)"/>
     <use xlink:href="#DejaVuSans-13" transform="translate(29.492188 -14.906201) scale(0.7)"/>
     <use xlink:href="#DejaVuSans-16" transform="translate(74.02832 -14.906201) scale(0.7)"/>
    </g>
   </g>
   <g id="text_17">
    <!-- $\cdots$ -->
    <g transform="translate(210.075853 67.58278) scale(0.11 -0.11)">
     <use xlink:href="#DejaVuSans-d79" transform="translate(0 0.6875)"/>
    </g>
   </g>
   <g id="text_18">
    <!-- scan 0 -->
    <g style="fill: #666666" transform="translate(234.750972 66.803483) scale(0.08 -0.08)">
     <use xlink:href="#DejaVuSans-56"/>
     <use xlink:href="#DejaVuSans-46" transform="translate(52.09375 0)"/>
     <use xlink:href="#DejaVuSans-44" transform="translate(107.078125 0)"/>
     <use xlink:href="#DejaVuSans-51" transform="translate(168.359375 0)"/>
     <use xlink:href="#DejaVuSans-3" transform="translate(231.734375 0)"/>
     <use xlink:href="#DejaVuSans-13" transform="translate(263.515625 0)"/>
    </g>
   </g>
   <g id="text_19">
    <!-- $I_{10}$ -->
    <g transform="translate(90.865119 97.082963) scale(0.11 -0.11)">
     <use xlink:href="#DejaVuSans-Oblique-2c" transform="translate(0 0.09375)"/>
     <use xlink:href="#DejaVuSans-14" transform="translate(29.492188 -14.906201) scale(0.7)"/>
     <use xlink:href="#DejaVuSans-13" transform="translate(74.02832 -14.906201) scale(0.7)"/>
    </g>
   </g>
   <g id="text_20">
    <!-- $I_{11}$ -->
    <g transform="translate(120.365303 97.082963) scale(0.11 -0.11)">
     <use xlink:href="#DejaVuSans-Oblique-2c" transform="translate(0 0.09375)"/>
     <use xlink:href="#DejaVuSans-14" transform="translate(29.492188 -14.906201) scale(0.7)"/>
     <use xlink:href="#DejaVuSans-14" transform="translate(74.02832 -14.906201) scale(0.7)"/>
    </g>
   </g>
   <g id="text_21">
    <!-- $I_{12}$ -->
    <g transform="translate(149.865486 97.082963) scale(0.11 -0.11)">
     <use xlink:href="#DejaVuSans-Oblique-2c" transform="translate(0 0.09375)"/>
     <use xlink:href="#DejaVuSans-14" transform="translate(29.492188 -14.906201) scale(0.7)"/>
     <use xlink:href="#DejaVuSans-15" transform="translate(74.02832 -14.906201) scale(0.7)"/>
    </g>
   </g>
   <g id="text_22">
    <!-- $I_{13}$ -->
    <g transform="translate(179.36567 97.082963) scale(0.11 -0.11)">
     <use xlink:href="#DejaVuSans-Oblique-2c" transform="translate(0 0.09375)"/>
     <use xlink:href="#DejaVuSans-14" transform="translate(29.492188 -14.906201) scale(0.7)"/>
     <use xlink:href="#DejaVuSans-16" transform="translate(74.02832 -14.906201) scale(0.7)"/>
    </g>
   </g>
   <g id="text_23">
    <!-- $\cdots$ -->
    <g transform="translate(210.075853 97.082963) scale(0.11 -0.11)">
     <use xlink:href="#DejaVuSans-d79" transform="translate(0 0.6875)"/>
    </g>
   </g>
   <g id="text_24">
    <!-- scan 1 -->
    <g style="fill: #666666" transform="translate(234.750972 96.303666) scale(0.08 -0.08)">
     <use xlink:href="#DejaVuSans-56"/>
     <use xlink:href="#DejaVuSans-46" transform="translate(52.09375 0)"/>
     <use xlink:href="#DejaVuSans-44" transform="translate(107.078125 0)"/>
     <use xlink:href="#DejaVuSans-51" transform="translate(168.359375 0)"/>
     <use xlink:href="#DejaVuSans-3" transform="translate(231.734375 0)"/>
     <use xlink:href="#DejaVuSans-14" transform="translate(263.515625 0)"/>
    </g>
   </g>
   <g id="text_25">
    <!-- $I_{20}$ -->
    <g transform="translate(90.865119 126.583147) scale(0.11 -0.11)">
     <use xlink:href="#DejaVuSans-Oblique-2c" transform="translate(0 0.09375)"/>
     <use xlink:href="#DejaVuSans-15" transform="translate(29.492188 -14.906201) scale(0.7)"/>
     <use xlink:href="#DejaVuSans-13" transform="translate(74.02832 -14.906201) scale(0.7)"/>
    </g>
   </g>
   <g id="text_26">
    <!-- $I_{21}$ -->
    <g transform="translate(120.365303 126.583147) scale(0.11 -0.11)">
     <use xlink:href="#DejaVuSans-Oblique-2c" transform="translate(0 0.09375)"/>
     <use xlink:href="#DejaVuSans-15" transform="translate(29.492188 -14.906201) scale(0.7)"/>
     <use xlink:href="#DejaVuSans-14" transform="translate(74.02832 -14.906201) scale(0.7)"/>
    </g>
   </g>
   <g id="text_27">
    <!-- $I_{22}$ -->
    <g transform="translate(149.865486 126.583147) scale(0.11 -0.11)">
     <use xlink:href="#DejaVuSans-Oblique-2c" transform="translate(0 0.09375)"/>
     <use xlink:href="#DejaVuSans-15" transform="translate(29.492188 -14.906201) scale(0.7)"/>
     <use xlink:href="#DejaVuSans-15" transform="translate(74.02832 -14.906201) scale(0.7)"/>
    </g>
   </g>
   <g id="text_28">
    <!-- $I_{23}$ -->
    <g transform="translate(179.36567 126.583147) scale(0.11 -0.11)">
     <use xlink:href="#DejaVuSans-Oblique-2c" transform="translate(0 0.09375)"/>
     <use xlink:href="#DejaVuSans-15" transform="translate(29.492188 -14.906201) scale(0.7)"/>
     <use xlink:href="#DejaVuSans-16" transform="translate(74.02832 -14.906201) scale(0.7)"/>
    </g>
   </g>
   <g id="text_29">
    <!-- $\cdots$ -->
    <g transform="translate(210.075853 126.583147) scale(0.11 -0.11)">
     <use xlink:href="#DejaVuSans-d79" transform="translate(0 0.6875)"/>
    </g>
   </g>
   <g id="text_30">
    <!-- scan 2 -->
    <g style="fill: #666666" transform="translate(234.750972 125.80385) scale(0.08 -0.08)">
     <use xlink:href="#DejaVuSans-56"/>
     <use xlink:href="#DejaVuSans-46" transform="translate(52.09375 0)"/>
     <use xlink:href="#DejaVuSans-44" transform="translate(107.078125 0)"/>
     <use xlink:href="#DejaVuSans-51" transform="translate(168.359375 0)"/>
     <use xlink:href="#DejaVuSans-3" transform="translate(231.734375 0)"/>
     <use xlink:href="#DejaVuSans-15" transform="translate(263.515625 0)"/>
    </g>
   </g>
   <g id="text_31">
    <!-- $\mathrm{data}[i][j] =$ -->
    <g transform="translate(9.724991 112.094227) scale(0.12 -0.12)">
     <defs>
      <path id="DejaVuSans-47" d="M 2906 2969 
L 2906 4863 
L 3481 4863 
L 3481 0 
L 2906 0 
L 2906 525 
Q 2725 213 2448 61 
Q 2172 -91 1784 -91 
Q 1150 -91 751 415 
Q 353 922 353 1747 
Q 353 2572 751 3078 
Q 1150 3584 1784 3584 
Q 2172 3584 2448 3432 
Q 2725 3281 2906 2969 
z
M 947 1747 
Q 947 1113 1208 752 
Q 1469 391 1925 391 
Q 2381 391 2643 752 
Q 2906 1113 2906 1747 
Q 2906 2381 2643 2742 
Q 2381 3103 1925 3103 
Q 1469 3103 1208 2742 
Q 947 2381 947 1747 
z
" transform="scale(0.015625)"/>
      <path id="DejaVuSans-57" d="M 1172 4494 
L 1172 3500 
L 2356 3500 
L 2356 3053 
L 1172 3053 
L 1172 1153 
Q 1172 725 1289 603 
Q 1406 481 1766 481 
L 2356 481 
L 2356 0 
L 1766 0 
Q 1100 0 847 248 
Q 594 497 594 1153 
L 594 3053 
L 172 3053 
L 172 3500 
L 594 3500 
L 594 4494 
L 1172 4494 
z
" transform="scale(0.015625)"/>
      <path id="DejaVuSans-3e" d="M 550 4863 
L 1875 4863 
L 1875 4416 
L 1125 4416 
L 1125 -397 
L 1875 -397 
L 1875 -844 
L 550 -844 
L 550 4863 
z
" transform="scale(0.015625)"/>
      <path id="DejaVuSans-Oblique-4c" d="M 1172 4863 
L 1747 4863 
L 1606 4134 
L 1031 4134 
L 1172 4863 
z
M 909 3500 
L 1484 3500 
L 800 0 
L 225 0 
L 909 3500 
z
" transform="scale(0.015625)"/>
      <path id="DejaVuSans-40" d="M 1947 4863 
L 1947 -844 
L 622 -844 
L 622 -397 
L 1369 -397 
L 1369 4416 
L 622 4416 
L 622 4863 
L 1947 4863 
z
" transform="scale(0.015625)"/>
      <path id="DejaVuSans-Oblique-4d" d="M 928 3500 
L 1503 3500 
L 813 -63 
L 809 -78 
Q 694 -675 544 -897 
Q 403 -1106 132 -1218 
Q -138 -1331 -506 -1331 
L -722 -1331 
L -628 -844 
L -481 -844 
Q -144 -844 -1 -703 
Q 141 -563 238 -63 
L 928 3500 
z
M 1197 4863 
L 1772 4863 
L 1631 4134 
L 1056 4134 
L 1197 4863 
z
" transform="scale(0.015625)"/>
      <path id="DejaVuSans-20" d="M 678 2906 
L 4684 2906 
L 4684 2381 
L 678 2381 
L 678 2906 
z
M 678 1631 
L 4684 1631 
L 4684 1100 
L 678 1100 
L 678 1631 
z
" transform="scale(0.015625)"/>
     </defs>
     <use xlink:href="#DejaVuSans-47" transform="translate(0 0.015625)"/>
     <use xlink:href="#DejaVuSans-44" transform="translate(63.476562 0.015625)"/>
     <use xlink:href="#DejaVuSans-57" transform="translate(124.755859 0.015625)"/>
     <use xlink:href="#DejaVuSans-44" transform="translate(163.964844 0.015625)"/>
     <use xlink:href="#DejaVuSans-3e" transform="translate(225.244141 0.015625)"/>
     <use xlink:href="#DejaVuSans-Oblique-4c" transform="translate(264.257812 0.015625)"/>
     <use xlink:href="#DejaVuSans-40" transform="translate(292.041016 0.015625)"/>
     <use xlink:href="#DejaVuSans-3e" transform="translate(331.054688 0.015625)"/>
     <use xlink:href="#DejaVuSans-Oblique-4d" transform="translate(370.068359 0.015625)"/>
     <use xlink:href="#DejaVuSans-40" transform="translate(397.851562 0.015625)"/>
     <use xlink:href="#DejaVuSans-20" transform="translate(456.347656 0.015625)"/>
    </g>
   </g>
  </g>
 </g>
 <defs>
  <clipPath id="p7bc721856f">
   <rect x="23.824661" y="7.2" width="241.901505" height="160.776"/>
  </clipPath>
 </defs>
</svg>
