<?xml version="1.0" encoding="utf-8" standalone="no"?>
<!DOCTYPE svg PUBLIC "-//W3C//DTD SVG 1.1//EN"
  "http://www.w3.org/Graphics/SVG/1.1/DTD/svg11.dtd">
<svg xmlns:xlink="http://www.w3.org/1999/xlink" width="465.491875pt" height="256.072pt" viewBox="0 0 465.491875 256.072" xmlns="http://www.w3.org/2000/svg" version="1.1">
 <metadata>
  <rdf:RDF xmlns:dc="http://purl.org/dc/elements/1.1/" xmlns:cc="http://creativecommons.org/ns#" xmlns:rdf="http://www.w3.org/1999/02/22-rdf-syntax-ns#">
   <cc:Work>
    <dc:type rdf:resource="http://purl.org/dc/dcmitype/StillImage"/>
    <dc:date>2026-06-24T13:43:55.216671</dc:date>
    <dc:format>image/svg+xml</dc:format>
    <dc:creator>
     <cc:Agent>
      <dc:title>Matplotlib v3.11.0, https://matplotlib.org/</dc:title>
     </cc:Agent>
    </dc:creator>
   </cc:Work>
  </rdf:RDF>
 </metadata>
 <defs>
  <style type="text/css">*{stroke-linejoin: round; stroke-linecap: butt}</style>
 </defs>
 <g id="figure_1">
  <g id="patch_1">
   <path d="M 0 256.072 
L 465.491875 256.072 
L 465.491875 0 
L 0 0 
z
" style="fill: #ffffff"/>
  </g>
  <g id="axes_1">
   <g id="patch_2">
    <path d="M 24.695312 217.872 
L 437.615312 217.872 
L 437.615312 7.2 
L 24.695312 7.2 
z
" style="fill: #ffffff"/>
   </g>
   <g id="line2d_1">
    <path d="M 116.455312 210.297276 
L 116.455312 26.610229 
" clip-path="url(#p8c13820502)" style="fill: none; stroke: #b8b8b8; stroke-width: 0.9; stroke-linecap: square"/>
   </g>
   <g id="line2d_2">
    <path d="M 145.818513 210.297276 
L 145.818513 26.610229 
" clip-path="url(#p8c13820502)" style="fill: none; stroke: #b8b8b8; stroke-width: 0.9; stroke-linecap: square"/>
   </g>
   <g id="line2d_3">
    <path d="M 175.181712 210.297276 
L 175.181712 26.610229 
" clip-path="url(#p8c13820502)" style="fill: none; stroke: #b8b8b8; stroke-width: 0.9; stroke-linecap: square"/>
   </g>
   <g id="line2d_4">
    <path d="M 204.544912 210.297276 
L 204.544912 26.610229 
" clip-path="url(#p8c13820502)" style="fill: none; stroke: #b8b8b8; stroke-width: 0.9; stroke-linecap: square"/>
   </g>
   <g id="line2d_5">
    <path d="M 233.908112 210.297276 
L 233.908112 26.610229 
" clip-path="url(#p8c13820502)" style="fill: none; stroke: #b8b8b8; stroke-width: 0.9; stroke-linecap: square"/>
   </g>
   <g id="line2d_6">
    <path d="M 263.271313 210.297276 
L 263.271313 26.610229 
" clip-path="url(#p8c13820502)" style="fill: none; stroke: #b8b8b8; stroke-width: 0.9; stroke-linecap: square"/>
   </g>
   <g id="line2d_7">
    <path d="M 292.634512 210.297276 
L 292.634512 26.610229 
" clip-path="url(#p8c13820502)" style="fill: none; stroke: #b8b8b8; stroke-width: 0.9; stroke-linecap: square"/>
   </g>
   <g id="line2d_8">
    <path d="M 321.997712 210.297276 
L 321.997712 26.610229 
" clip-path="url(#p8c13820502)" style="fill: none; stroke: #b8b8b8; stroke-width: 0.9; stroke-linecap: square"/>
   </g>
   <g id="line2d_9">
    <path d="M 351.360913 210.297276 
L 351.360913 26.610229 
" clip-path="url(#p8c13820502)" style="fill: none; stroke: #b8b8b8; stroke-width: 0.9; stroke-linecap: square"/>
   </g>
   <g id="line2d_10">
    <path d="M 380.724113 210.297276 
L 380.724113 26.610229 
" clip-path="url(#p8c13820502)" style="fill: none; stroke: #b8b8b8; stroke-width: 0.9; stroke-linecap: square"/>
   </g>
   <g id="line2d_11">
    <path d="M 410.087312 210.297276 
L 410.087312 26.610229 
" clip-path="url(#p8c13820502)" style="fill: none; stroke: #b8b8b8; stroke-width: 0.9; stroke-linecap: square"/>
   </g>
   <g id="matplotlib.axis_1">
    <g id="xtick_1">
     <g id="line2d_12">
      <defs>
       <path id="m5091dbd984" d="M 0 0 
L 0 3.5 
" style="stroke: #000000; stroke-width: 0.8"/>
      </defs>
      <g>
       <use xlink:href="#m5091dbd984" x="24.695312" y="217.872" style="stroke: #000000; stroke-width: 0.8"/>
      </g>
     </g>
     <g id="text_1">
      <!-- 99.950 -->
      <g transform="translate(7.2 232.469656) scale(0.1 -0.1)">
       <defs>
        <path id="DejaVuSans-1c" d="M 703 97 
L 703 672 
Q 941 559 1184 500 
Q 1428 441 1663 441 
Q 2288 441 2617 861 
Q 2947 1281 2994 2138 
Q 2813 1869 2534 1725 
Q 2256 1581 1919 1581 
Q 1219 1581 811 2004 
Q 403 2428 403 3163 
Q 403 3881 828 4315 
Q 1253 4750 1959 4750 
Q 2769 4750 3195 4129 
Q 3622 3509 3622 2328 
Q 3622 1225 3098 567 
Q 2575 -91 1691 -91 
Q 1453 -91 1209 -44 
Q 966 3 703 97 
z
M 1959 2075 
Q 2384 2075 2632 2365 
Q 2881 2656 2881 3163 
Q 2881 3666 2632 3958 
Q 2384 4250 1959 4250 
Q 1534 4250 1286 3958 
Q 1038 3666 1038 3163 
Q 1038 2656 1286 2365 
Q 1534 2075 1959 2075 
z
" transform="scale(0.015625)"/>
        <path id="DejaVuSans-11" d="M 684 794 
L 1344 794 
L 1344 0 
L 684 0 
L 684 794 
z
" transform="scale(0.015625)"/>
        <path id="DejaVuSans-18" d="M 691 4666 
L 3169 4666 
L 3169 4134 
L 1269 4134 
L 1269 2991 
Q 1406 3038 1543 3061 
Q 1681 3084 1819 3084 
Q 2600 3084 3056 2656 
Q 3513 2228 3513 1497 
Q 3513 744 3044 326 
Q 2575 -91 1722 -91 
Q 1428 -91 1123 -41 
Q 819 9 494 109 
L 494 744 
Q 775 591 1075 516 
Q 1375 441 1709 441 
Q 2250 441 2565 725 
Q 2881 1009 2881 1497 
Q 2881 1984 2565 2268 
Q 2250 2553 1709 2553 
Q 1456 2553 1204 2497 
Q 953 2441 691 2322 
L 691 4666 
z
" transform="scale(0.015625)"/>
        <path id="DejaVuSans-13" d="M 2034 4250 
Q 1547 4250 1301 3770 
Q 1056 3291 1056 2328 
Q 1056 1369 1301 889 
Q 1547 409 2034 409 
Q 2525 409 2770 889 
Q 3016 1369 3016 2328 
Q 3016 3291 2770 3770 
Q 2525 4250 2034 4250 
z
M 2034 4750 
Q 2819 4750 3233 4129 
Q 3647 3509 3647 2328 
Q 3647 1150 3233 529 
Q 2819 -91 2034 -91 
Q 1250 -91 836 529 
Q 422 1150 422 2328 
Q 422 3509 836 4129 
Q 1250 4750 2034 4750 
z
" transform="scale(0.015625)"/>
       </defs>
       <use xlink:href="#DejaVuSans-1c"/>
       <use xlink:href="#DejaVuSans-1c" transform="translate(63.625 0)"/>
       <use xlink:href="#DejaVuSans-11" transform="translate(127.25 0)"/>
       <use xlink:href="#DejaVuSans-1c" transform="translate(159.03125 0)"/>
       <use xlink:href="#DejaVuSans-18" transform="translate(222.65625 0)"/>
       <use xlink:href="#DejaVuSans-13" transform="translate(286.28125 0)"/>
      </g>
     </g>
    </g>
    <g id="xtick_2">
     <g id="line2d_13">
      <g>
       <use xlink:href="#m5091dbd984" x="70.575312" y="217.872" style="stroke: #000000; stroke-width: 0.8"/>
      </g>
     </g>
     <g id="text_2">
      <!-- 99.975 -->
      <g transform="translate(53.08 232.469656) scale(0.1 -0.1)">
       <defs>
        <path id="DejaVuSans-1a" d="M 525 4666 
L 3525 4666 
L 3525 4397 
L 1831 0 
L 1172 0 
L 2766 4134 
L 525 4134 
L 525 4666 
z
" transform="scale(0.015625)"/>
       </defs>
       <use xlink:href="#DejaVuSans-1c"/>
       <use xlink:href="#DejaVuSans-1c" transform="translate(63.625 0)"/>
       <use xlink:href="#DejaVuSans-11" transform="translate(127.25 0)"/>
       <use xlink:href="#DejaVuSans-1c" transform="translate(159.03125 0)"/>
       <use xlink:href="#DejaVuSans-1a" transform="translate(222.65625 0)"/>
       <use xlink:href="#DejaVuSans-18" transform="translate(286.28125 0)"/>
      </g>
     </g>
    </g>
    <g id="xtick_3">
     <g id="line2d_14">
      <g>
       <use xlink:href="#m5091dbd984" x="116.455312" y="217.872" style="stroke: #000000; stroke-width: 0.8"/>
      </g>
     </g>
     <g id="text_3">
      <!-- 100.000 -->
      <g transform="translate(95.77875 232.469656) scale(0.1 -0.1)">
       <defs>
        <path id="DejaVuSans-14" d="M 794 531 
L 1825 531 
L 1825 4091 
L 703 3866 
L 703 4441 
L 1819 4666 
L 2450 4666 
L 2450 531 
L 3481 531 
L 3481 0 
L 794 0 
L 794 531 
z
" transform="scale(0.015625)"/>
       </defs>
       <use xlink:href="#DejaVuSans-14"/>
       <use xlink:href="#DejaVuSans-13" transform="translate(63.625 0)"/>
       <use xlink:href="#DejaVuSans-13" transform="translate(127.25 0)"/>
       <use xlink:href="#DejaVuSans-11" transform="translate(190.875 0)"/>
       <use xlink:href="#DejaVuSans-13" transform="translate(222.65625 0)"/>
       <use xlink:href="#DejaVuSans-13" transform="translate(286.28125 0)"/>
       <use xlink:href="#DejaVuSans-13" transform="translate(349.90625 0)"/>
      </g>
     </g>
    </g>
    <g id="xtick_4">
     <g id="line2d_15">
      <g>
       <use xlink:href="#m5091dbd984" x="162.335313" y="217.872" style="stroke: #000000; stroke-width: 0.8"/>
      </g>
     </g>
     <g id="text_4">
      <!-- 100.025 -->
      <g transform="translate(141.65875 232.469656) scale(0.1 -0.1)">
       <defs>
        <path id="DejaVuSans-15" d="M 1228 531 
L 3431 531 
L 3431 0 
L 469 0 
L 469 531 
Q 828 903 1448 1529 
Q 2069 2156 2228 2338 
Q 2531 2678 2651 2914 
Q 2772 3150 2772 3378 
Q 2772 3750 2511 3984 
Q 2250 4219 1831 4219 
Q 1534 4219 1204 4116 
Q 875 4013 500 3803 
L 500 4441 
Q 881 4594 1212 4672 
Q 1544 4750 1819 4750 
Q 2544 4750 2975 4387 
Q 3406 4025 3406 3419 
Q 3406 3131 3298 2873 
Q 3191 2616 2906 2266 
Q 2828 2175 2409 1742 
Q 1991 1309 1228 531 
z
" transform="scale(0.015625)"/>
       </defs>
       <use xlink:href="#DejaVuSans-14"/>
       <use xlink:href="#DejaVuSans-13" transform="translate(63.625 0)"/>
       <use xlink:href="#DejaVuSans-13" transform="translate(127.25 0)"/>
       <use xlink:href="#DejaVuSans-11" transform="translate(190.875 0)"/>
       <use xlink:href="#DejaVuSans-13" transform="translate(222.65625 0)"/>
       <use xlink:href="#DejaVuSans-15" transform="translate(286.28125 0)"/>
       <use xlink:href="#DejaVuSans-18" transform="translate(349.90625 0)"/>
      </g>
     </g>
    </g>
    <g id="xtick_5">
     <g id="line2d_16">
      <g>
       <use xlink:href="#m5091dbd984" x="208.215312" y="217.872" style="stroke: #000000; stroke-width: 0.8"/>
      </g>
     </g>
     <g id="text_5">
      <!-- 100.050 -->
      <g transform="translate(187.53875 232.469656) scale(0.1 -0.1)">
       <use xlink:href="#DejaVuSans-14"/>
       <use xlink:href="#DejaVuSans-13" transform="translate(63.625 0)"/>
       <use xlink:href="#DejaVuSans-13" transform="translate(127.25 0)"/>
       <use xlink:href="#DejaVuSans-11" transform="translate(190.875 0)"/>
       <use xlink:href="#DejaVuSans-13" transform="translate(222.65625 0)"/>
       <use xlink:href="#DejaVuSans-18" transform="translate(286.28125 0)"/>
       <use xlink:href="#DejaVuSans-13" transform="translate(349.90625 0)"/>
      </g>
     </g>
    </g>
    <g id="xtick_6">
     <g id="line2d_17">
      <g>
       <use xlink:href="#m5091dbd984" x="254.095312" y="217.872" style="stroke: #000000; stroke-width: 0.8"/>
      </g>
     </g>
     <g id="text_6">
      <!-- 100.075 -->
      <g transform="translate(233.41875 232.469656) scale(0.1 -0.1)">
       <use xlink:href="#DejaVuSans-14"/>
       <use xlink:href="#DejaVuSans-13" transform="translate(63.625 0)"/>
       <use xlink:href="#DejaVuSans-13" transform="translate(127.25 0)"/>
       <use xlink:href="#DejaVuSans-11" transform="translate(190.875 0)"/>
       <use xlink:href="#DejaVuSans-13" transform="translate(222.65625 0)"/>
       <use xlink:href="#DejaVuSans-1a" transform="translate(286.28125 0)"/>
       <use xlink:href="#DejaVuSans-18" transform="translate(349.90625 0)"/>
      </g>
     </g>
    </g>
    <g id="xtick_7">
     <g id="line2d_18">
      <g>
       <use xlink:href="#m5091dbd984" x="299.975312" y="217.872" style="stroke: #000000; stroke-width: 0.8"/>
      </g>
     </g>
     <g id="text_7">
      <!-- 100.100 -->
      <g transform="translate(279.29875 232.469656) scale(0.1 -0.1)">
       <use xlink:href="#DejaVuSans-14"/>
       <use xlink:href="#DejaVuSans-13" transform="translate(63.625 0)"/>
       <use xlink:href="#DejaVuSans-13" transform="translate(127.25 0)"/>
       <use xlink:href="#DejaVuSans-11" transform="translate(190.875 0)"/>
       <use xlink:href="#DejaVuSans-14" transform="translate(222.65625 0)"/>
       <use xlink:href="#DejaVuSans-13" transform="translate(286.28125 0)"/>
       <use xlink:href="#DejaVuSans-13" transform="translate(349.90625 0)"/>
      </g>
     </g>
    </g>
    <g id="xtick_8">
     <g id="line2d_19">
      <g>
       <use xlink:href="#m5091dbd984" x="345.855313" y="217.872" style="stroke: #000000; stroke-width: 0.8"/>
      </g>
     </g>
     <g id="text_8">
      <!-- 100.125 -->
      <g transform="translate(325.17875 232.469656) scale(0.1 -0.1)">
       <use xlink:href="#DejaVuSans-14"/>
       <use xlink:href="#DejaVuSans-13" transform="translate(63.625 0)"/>
       <use xlink:href="#DejaVuSans-13" transform="translate(127.25 0)"/>
       <use xlink:href="#DejaVuSans-11" transform="translate(190.875 0)"/>
       <use xlink:href="#DejaVuSans-14" transform="translate(222.65625 0)"/>
       <use xlink:href="#DejaVuSans-15" transform="translate(286.28125 0)"/>
       <use xlink:href="#DejaVuSans-18" transform="translate(349.90625 0)"/>
      </g>
     </g>
    </g>
    <g id="xtick_9">
     <g id="line2d_20">
      <g>
       <use xlink:href="#m5091dbd984" x="391.735313" y="217.872" style="stroke: #000000; stroke-width: 0.8"/>
      </g>
     </g>
     <g id="text_9">
      <!-- 100.150 -->
      <g transform="translate(371.05875 232.469656) scale(0.1 -0.1)">
       <use xlink:href="#DejaVuSans-14"/>
       <use xlink:href="#DejaVuSans-13" transform="translate(63.625 0)"/>
       <use xlink:href="#DejaVuSans-13" transform="translate(127.25 0)"/>
       <use xlink:href="#DejaVuSans-11" transform="translate(190.875 0)"/>
       <use xlink:href="#DejaVuSans-14" transform="translate(222.65625 0)"/>
       <use xlink:href="#DejaVuSans-18" transform="translate(286.28125 0)"/>
       <use xlink:href="#DejaVuSans-13" transform="translate(349.90625 0)"/>
      </g>
     </g>
    </g>
    <g id="xtick_10">
     <g id="line2d_21">
      <g>
       <use xlink:href="#m5091dbd984" x="437.615312" y="217.872" style="stroke: #000000; stroke-width: 0.8"/>
      </g>
     </g>
     <g id="text_10">
      <!-- 100.175 -->
      <g transform="translate(416.93875 232.469656) scale(0.1 -0.1)">
       <use xlink:href="#DejaVuSans-14"/>
       <use xlink:href="#DejaVuSans-13" transform="translate(63.625 0)"/>
       <use xlink:href="#DejaVuSans-13" transform="translate(127.25 0)"/>
       <use xlink:href="#DejaVuSans-11" transform="translate(190.875 0)"/>
       <use xlink:href="#DejaVuSans-14" transform="translate(222.65625 0)"/>
       <use xlink:href="#DejaVuSans-1a" transform="translate(286.28125 0)"/>
       <use xlink:href="#DejaVuSans-18" transform="translate(349.90625 0)"/>
      </g>
     </g>
    </g>
    <g id="text_11">
     <!-- m/z (Da) -->
     <g transform="translate(209.571719 246.469656) scale(0.1 -0.1)">
      <defs>
       <path id="DejaVuSans-50" d="M 3328 2828 
Q 3544 3216 3844 3400 
Q 4144 3584 4550 3584 
Q 5097 3584 5394 3201 
Q 5691 2819 5691 2113 
L 5691 0 
L 5113 0 
L 5113 2094 
Q 5113 2597 4934 2840 
Q 4756 3084 4391 3084 
Q 3944 3084 3684 2787 
Q 3425 2491 3425 1978 
L 3425 0 
L 2847 0 
L 2847 2094 
Q 2847 2600 2669 2842 
Q 2491 3084 2119 3084 
Q 1678 3084 1418 2786 
Q 1159 2488 1159 1978 
L 1159 0 
L 581 0 
L 581 3500 
L 1159 3500 
L 1159 2956 
Q 1356 3278 1631 3431 
Q 1906 3584 2284 3584 
Q 2666 3584 2933 3390 
Q 3200 3197 3328 2828 
z
" transform="scale(0.015625)"/>
       <path id="DejaVuSans-12" d="M 1625 4666 
L 2156 4666 
L 531 -594 
L 0 -594 
L 1625 4666 
z
" transform="scale(0.015625)"/>
       <path id="DejaVuSans-5d" d="M 353 3500 
L 3084 3500 
L 3084 2975 
L 922 459 
L 3084 459 
L 3084 0 
L 275 0 
L 275 525 
L 2438 3041 
L 353 3041 
L 353 3500 
z
" transform="scale(0.015625)"/>
       <path id="DejaVuSans-3" transform="scale(0.015625)"/>
       <path id="DejaVuSans-b" d="M 1984 4856 
Q 1566 4138 1362 3434 
Q 1159 2731 1159 2009 
Q 1159 1288 1364 580 
Q 1569 -128 1984 -844 
L 1484 -844 
Q 1016 -109 783 600 
Q 550 1309 550 2009 
Q 550 2706 781 3412 
Q 1013 4119 1484 4856 
L 1984 4856 
z
" transform="scale(0.015625)"/>
       <path id="DejaVuSans-27" d="M 1259 4147 
L 1259 519 
L 2022 519 
Q 2988 519 3436 956 
Q 3884 1394 3884 2338 
Q 3884 3275 3436 3711 
Q 2988 4147 2022 4147 
L 1259 4147 
z
M 628 4666 
L 1925 4666 
Q 3281 4666 3915 4102 
Q 4550 3538 4550 2338 
Q 4550 1131 3912 565 
Q 3275 0 1925 0 
L 628 0 
L 628 4666 
z
" transform="scale(0.015625)"/>
       <path id="DejaVuSans-44" d="M 2194 1759 
Q 1497 1759 1228 1600 
Q 959 1441 959 1056 
Q 959 750 1161 570 
Q 1363 391 1709 391 
Q 2188 391 2477 730 
Q 2766 1069 2766 1631 
L 2766 1759 
L 2194 1759 
z
M 3341 1997 
L 3341 0 
L 2766 0 
L 2766 531 
Q 2569 213 2275 61 
Q 1981 -91 1556 -91 
Q 1019 -91 701 211 
Q 384 513 384 1019 
Q 384 1609 779 1909 
Q 1175 2209 1959 2209 
L 2766 2209 
L 2766 2266 
Q 2766 2663 2505 2880 
Q 2244 3097 1772 3097 
Q 1472 3097 1187 3025 
Q 903 2953 641 2809 
L 641 3341 
Q 956 3463 1253 3523 
Q 1550 3584 1831 3584 
Q 2591 3584 2966 3190 
Q 3341 2797 3341 1997 
z
" transform="scale(0.015625)"/>
       <path id="DejaVuSans-c" d="M 513 4856 
L 1013 4856 
Q 1481 4119 1714 3412 
Q 1947 2706 1947 2009 
Q 1947 1309 1714 600 
Q 1481 -109 1013 -844 
L 513 -844 
Q 928 -128 1133 580 
Q 1338 1288 1338 2009 
Q 1338 2731 1133 3434 
Q 928 4138 513 4856 
z
" transform="scale(0.015625)"/>
      </defs>
      <use xlink:href="#DejaVuSans-50"/>
      <use xlink:href="#DejaVuSans-12" transform="translate(97.40625 0)"/>
      <use xlink:href="#DejaVuSans-5d" transform="translate(131.09375 0)"/>
      <use xlink:href="#DejaVuSans-3" transform="translate(183.578125 0)"/>
      <use xlink:href="#DejaVuSans-b" transform="translate(215.359375 0)"/>
      <use xlink:href="#DejaVuSans-27" transform="translate(254.375 0)"/>
      <use xlink:href="#DejaVuSans-44" transform="translate(331.375 0)"/>
      <use xlink:href="#DejaVuSans-c" transform="translate(392.65625 0)"/>
     </g>
    </g>
   </g>
   <g id="matplotlib.axis_2"/>
   <g id="LineCollection_1">
    <path d="M 116.455312 55.962283 
L 116.455312 29.450751 
" clip-path="url(#p8c13820502)" style="fill: none; stroke: #1f77b4; stroke-width: 1.7"/>
    <path d="M 145.818513 55.962283 
L 145.818513 29.450751 
" clip-path="url(#p8c13820502)" style="fill: none; stroke: #1f77b4; stroke-width: 1.7"/>
    <path d="M 175.181712 55.962283 
L 175.181712 29.450751 
" clip-path="url(#p8c13820502)" style="fill: none; stroke: #1f77b4; stroke-width: 1.7"/>
    <path d="M 204.544912 55.962283 
L 204.544912 29.450751 
" clip-path="url(#p8c13820502)" style="fill: none; stroke: #1f77b4; stroke-width: 1.7"/>
    <path d="M 233.908112 55.962283 
L 233.908112 29.450751 
" clip-path="url(#p8c13820502)" style="fill: none; stroke: #1f77b4; stroke-width: 1.7"/>
    <path d="M 263.271313 55.962283 
L 263.271313 29.450751 
" clip-path="url(#p8c13820502)" style="fill: none; stroke: #1f77b4; stroke-width: 1.7"/>
    <path d="M 292.634512 55.962283 
L 292.634512 29.450751 
" clip-path="url(#p8c13820502)" style="fill: none; stroke: #1f77b4; stroke-width: 1.7"/>
    <path d="M 321.997712 55.962283 
L 321.997712 29.450751 
" clip-path="url(#p8c13820502)" style="fill: none; stroke: #1f77b4; stroke-width: 1.7"/>
    <path d="M 351.360913 55.962283 
L 351.360913 29.450751 
" clip-path="url(#p8c13820502)" style="fill: none; stroke: #1f77b4; stroke-width: 1.7"/>
    <path d="M 380.724113 55.962283 
L 380.724113 29.450751 
" clip-path="url(#p8c13820502)" style="fill: none; stroke: #1f77b4; stroke-width: 1.7"/>
    <path d="M 410.087312 55.962283 
L 410.087312 29.450751 
" clip-path="url(#p8c13820502)" style="fill: none; stroke: #1f77b4; stroke-width: 1.7"/>
   </g>
   <g id="LineCollection_2">
    <path d="M 123.796112 131.709519 
L 123.796112 105.197987 
" clip-path="url(#p8c13820502)" style="fill: none; stroke: #2ca02c; stroke-width: 1.7"/>
    <path d="M 153.159312 131.709519 
L 153.159312 105.197987 
" clip-path="url(#p8c13820502)" style="fill: none; stroke: #2ca02c; stroke-width: 1.7"/>
    <path d="M 182.522512 131.709519 
L 182.522512 105.197987 
" clip-path="url(#p8c13820502)" style="fill: none; stroke: #2ca02c; stroke-width: 1.7"/>
    <path d="M 211.885712 131.709519 
L 211.885712 105.197987 
" clip-path="url(#p8c13820502)" style="fill: none; stroke: #2ca02c; stroke-width: 1.7"/>
    <path d="M 241.248912 131.709519 
L 241.248912 105.197987 
" clip-path="url(#p8c13820502)" style="fill: none; stroke: #2ca02c; stroke-width: 1.7"/>
    <path d="M 270.612113 131.709519 
L 270.612113 105.197987 
" clip-path="url(#p8c13820502)" style="fill: none; stroke: #2ca02c; stroke-width: 1.7"/>
    <path d="M 299.975312 131.709519 
L 299.975312 105.197987 
" clip-path="url(#p8c13820502)" style="fill: none; stroke: #2ca02c; stroke-width: 1.7"/>
    <path d="M 329.338512 131.709519 
L 329.338512 105.197987 
" clip-path="url(#p8c13820502)" style="fill: none; stroke: #2ca02c; stroke-width: 1.7"/>
    <path d="M 358.701713 131.709519 
L 358.701713 105.197987 
" clip-path="url(#p8c13820502)" style="fill: none; stroke: #2ca02c; stroke-width: 1.7"/>
    <path d="M 388.064912 131.709519 
L 388.064912 105.197987 
" clip-path="url(#p8c13820502)" style="fill: none; stroke: #2ca02c; stroke-width: 1.7"/>
   </g>
   <g id="LineCollection_3">
    <path d="M 131.136912 207.456755 
L 131.136912 180.945222 
" clip-path="url(#p8c13820502)" style="fill: none; stroke: #e08a00; stroke-width: 1.7"/>
    <path d="M 160.500112 207.456755 
L 160.500112 180.945222 
" clip-path="url(#p8c13820502)" style="fill: none; stroke: #e08a00; stroke-width: 1.7"/>
    <path d="M 189.863312 207.456755 
L 189.863312 180.945222 
" clip-path="url(#p8c13820502)" style="fill: none; stroke: #e08a00; stroke-width: 1.7"/>
    <path d="M 219.226512 207.456755 
L 219.226512 180.945222 
" clip-path="url(#p8c13820502)" style="fill: none; stroke: #e08a00; stroke-width: 1.7"/>
    <path d="M 248.589712 207.456755 
L 248.589712 180.945222 
" clip-path="url(#p8c13820502)" style="fill: none; stroke: #e08a00; stroke-width: 1.7"/>
    <path d="M 277.952912 207.456755 
L 277.952912 180.945222 
" clip-path="url(#p8c13820502)" style="fill: none; stroke: #e08a00; stroke-width: 1.7"/>
    <path d="M 307.316113 207.456755 
L 307.316113 180.945222 
" clip-path="url(#p8c13820502)" style="fill: none; stroke: #e08a00; stroke-width: 1.7"/>
    <path d="M 336.679312 207.456755 
L 336.679312 180.945222 
" clip-path="url(#p8c13820502)" style="fill: none; stroke: #e08a00; stroke-width: 1.7"/>
    <path d="M 366.042512 207.456755 
L 366.042512 180.945222 
" clip-path="url(#p8c13820502)" style="fill: none; stroke: #e08a00; stroke-width: 1.7"/>
    <path d="M 395.405713 207.456755 
L 395.405713 180.945222 
" clip-path="url(#p8c13820502)" style="fill: none; stroke: #e08a00; stroke-width: 1.7"/>
   </g>
   <g id="patch_3">
    <path d="M 24.695312 217.872 
L 437.615312 217.872 
" style="fill: none; stroke: #000000; stroke-width: 0.8; stroke-linejoin: miter; stroke-linecap: square"/>
   </g>
   <g id="text_12">
    <!-- scan 0 -->
    <g style="fill: #1f77b4" transform="translate(65.069712 45.044407) scale(0.09 -0.09)">
     <defs>
      <path id="DejaVuSans-56" d="M 2834 3397 
L 2834 2853 
Q 2591 2978 2328 3040 
Q 2066 3103 1784 3103 
Q 1356 3103 1142 2972 
Q 928 2841 928 2578 
Q 928 2378 1081 2264 
Q 1234 2150 1697 2047 
L 1894 2003 
Q 2506 1872 2764 1633 
Q 3022 1394 3022 966 
Q 3022 478 2636 193 
Q 2250 -91 1575 -91 
Q 1294 -91 989 -36 
Q 684 19 347 128 
L 347 722 
Q 666 556 975 473 
Q 1284 391 1588 391 
Q 1994 391 2212 530 
Q 2431 669 2431 922 
Q 2431 1156 2273 1281 
Q 2116 1406 1581 1522 
L 1381 1569 
Q 847 1681 609 1914 
Q 372 2147 372 2553 
Q 372 3047 722 3315 
Q 1072 3584 1716 3584 
Q 2034 3584 2315 3537 
Q 2597 3491 2834 3397 
z
" transform="scale(0.015625)"/>
      <path id="DejaVuSans-46" d="M 3122 3366 
L 3122 2828 
Q 2878 2963 2633 3030 
Q 2388 3097 2138 3097 
Q 1578 3097 1268 2742 
Q 959 2388 959 1747 
Q 959 1106 1268 751 
Q 1578 397 2138 397 
Q 2388 397 2633 464 
Q 2878 531 3122 666 
L 3122 134 
Q 2881 22 2623 -34 
Q 2366 -91 2075 -91 
Q 1284 -91 818 406 
Q 353 903 353 1747 
Q 353 2603 823 3093 
Q 1294 3584 2113 3584 
Q 2378 3584 2631 3529 
Q 2884 3475 3122 3366 
z
" transform="scale(0.015625)"/>
      <path id="DejaVuSans-51" d="M 3513 2113 
L 3513 0 
L 2938 0 
L 2938 2094 
Q 2938 2591 2744 2837 
Q 2550 3084 2163 3084 
Q 1697 3084 1428 2787 
Q 1159 2491 1159 1978 
L 1159 0 
L 581 0 
L 581 3500 
L 1159 3500 
L 1159 2956 
Q 1366 3272 1645 3428 
Q 1925 3584 2291 3584 
Q 2894 3584 3203 3211 
Q 3513 2838 3513 2113 
z
" transform="scale(0.015625)"/>
     </defs>
     <use xlink:href="#DejaVuSans-56"/>
     <use xlink:href="#DejaVuSans-46" transform="translate(52.09375 0)"/>
     <use xlink:href="#DejaVuSans-44" transform="translate(107.078125 0)"/>
     <use xlink:href="#DejaVuSans-51" transform="translate(168.359375 0)"/>
     <use xlink:href="#DejaVuSans-3" transform="translate(231.734375 0)"/>
     <use xlink:href="#DejaVuSans-13" transform="translate(263.515625 0)"/>
    </g>
   </g>
   <g id="text_13">
    <!-- scan 628 -->
    <g style="fill: #2ca02c" transform="translate(65.069712 120.791643) scale(0.09 -0.09)">
     <defs>
      <path id="DejaVuSans-19" d="M 2113 2584 
Q 1688 2584 1439 2293 
Q 1191 2003 1191 1497 
Q 1191 994 1439 701 
Q 1688 409 2113 409 
Q 2538 409 2786 701 
Q 3034 994 3034 1497 
Q 3034 2003 2786 2293 
Q 2538 2584 2113 2584 
z
M 3366 4563 
L 3366 3988 
Q 3128 4100 2886 4159 
Q 2644 4219 2406 4219 
Q 1781 4219 1451 3797 
Q 1122 3375 1075 2522 
Q 1259 2794 1537 2939 
Q 1816 3084 2150 3084 
Q 2853 3084 3261 2657 
Q 3669 2231 3669 1497 
Q 3669 778 3244 343 
Q 2819 -91 2113 -91 
Q 1303 -91 875 529 
Q 447 1150 447 2328 
Q 447 3434 972 4092 
Q 1497 4750 2381 4750 
Q 2619 4750 2861 4703 
Q 3103 4656 3366 4563 
z
" transform="scale(0.015625)"/>
      <path id="DejaVuSans-1b" d="M 2034 2216 
Q 1584 2216 1326 1975 
Q 1069 1734 1069 1313 
Q 1069 891 1326 650 
Q 1584 409 2034 409 
Q 2484 409 2743 651 
Q 3003 894 3003 1313 
Q 3003 1734 2745 1975 
Q 2488 2216 2034 2216 
z
M 1403 2484 
Q 997 2584 770 2862 
Q 544 3141 544 3541 
Q 544 4100 942 4425 
Q 1341 4750 2034 4750 
Q 2731 4750 3128 4425 
Q 3525 4100 3525 3541 
Q 3525 3141 3298 2862 
Q 3072 2584 2669 2484 
Q 3125 2378 3379 2068 
Q 3634 1759 3634 1313 
Q 3634 634 3220 271 
Q 2806 -91 2034 -91 
Q 1263 -91 848 271 
Q 434 634 434 1313 
Q 434 1759 690 2068 
Q 947 2378 1403 2484 
z
M 1172 3481 
Q 1172 3119 1398 2916 
Q 1625 2713 2034 2713 
Q 2441 2713 2670 2916 
Q 2900 3119 2900 3481 
Q 2900 3844 2670 4047 
Q 2441 4250 2034 4250 
Q 1625 4250 1398 4047 
Q 1172 3844 1172 3481 
z
" transform="scale(0.015625)"/>
     </defs>
     <use xlink:href="#DejaVuSans-56"/>
     <use xlink:href="#DejaVuSans-46" transform="translate(52.09375 0)"/>
     <use xlink:href="#DejaVuSans-44" transform="translate(107.078125 0)"/>
     <use xlink:href="#DejaVuSans-51" transform="translate(168.359375 0)"/>
     <use xlink:href="#DejaVuSans-3" transform="translate(231.734375 0)"/>
     <use xlink:href="#DejaVuSans-19" transform="translate(263.515625 0)"/>
     <use xlink:href="#DejaVuSans-15" transform="translate(327.140625 0)"/>
     <use xlink:href="#DejaVuSans-1b" transform="translate(390.765625 0)"/>
    </g>
   </g>
   <g id="text_14">
    <!-- scan 1255 -->
    <g style="fill: #e08a00" transform="translate(65.069712 196.538879) scale(0.09 -0.09)">
     <use xlink:href="#DejaVuSans-56"/>
     <use xlink:href="#DejaVuSans-46" transform="translate(52.09375 0)"/>
     <use xlink:href="#DejaVuSans-44" transform="translate(107.078125 0)"/>
     <use xlink:href="#DejaVuSans-51" transform="translate(168.359375 0)"/>
     <use xlink:href="#DejaVuSans-3" transform="translate(231.734375 0)"/>
     <use xlink:href="#DejaVuSans-14" transform="translate(263.515625 0)"/>
     <use xlink:href="#DejaVuSans-15" transform="translate(327.140625 0)"/>
     <use xlink:href="#DejaVuSans-18" transform="translate(390.765625 0)"/>
     <use xlink:href="#DejaVuSans-18" transform="translate(454.390625 0)"/>
    </g>
   </g>
   <g id="patch_4">
    <path d="M 119.569843 20.929187 
Q 131.134633 20.929187 142.699422 20.929187 
" style="fill: none; stroke: #666666; stroke-linecap: round"/>
    <path d="M 123.569843 22.929187 
L 119.569843 20.929187 
L 123.569843 18.929187 
" style="fill: none; stroke: #666666; stroke-linecap: round"/>
    <path d="M 138.699422 18.929187 
L 142.699422 20.929187 
L 138.699422 22.929187 
" style="fill: none; stroke: #666666; stroke-linecap: round"/>
   </g>
   <g id="text_15">
    <!-- $\Delta t$ -->
    <g style="fill: #666666" transform="translate(126.816913 18.060471) scale(0.08 -0.08)">
     <defs>
      <path id="DejaVuSans-329" d="M 2188 4044 
L 906 525 
L 3472 525 
L 2188 4044 
z
M 50 0 
L 1831 4666 
L 2547 4666 
L 4325 0 
L 50 0 
z
" transform="scale(0.015625)"/>
      <path id="DejaVuSans-Oblique-57" d="M 2706 3500 
L 2619 3053 
L 1472 3053 
L 1100 1153 
Q 1081 1047 1072 975 
Q 1063 903 1063 863 
Q 1063 663 1183 572 
Q 1303 481 1569 481 
L 2150 481 
L 2053 0 
L 1503 0 
Q 991 0 739 200 
Q 488 400 488 806 
Q 488 878 497 964 
Q 506 1050 525 1153 
L 897 3053 
L 409 3053 
L 500 3500 
L 978 3500 
L 1172 4494 
L 1747 4494 
L 1556 3500 
L 2706 3500 
z
" transform="scale(0.015625)"/>
     </defs>
     <use xlink:href="#DejaVuSans-329" transform="translate(0 0.09375)"/>
     <use xlink:href="#DejaVuSans-Oblique-57" transform="translate(68.408203 0.09375)"/>
    </g>
   </g>
   <g id="patch_5">
    <path d="M 148.933043 20.929187 
Q 160.497833 20.929187 172.062622 20.929187 
" style="fill: none; stroke: #666666; stroke-linecap: round"/>
    <path d="M 152.933043 22.929187 
L 148.933043 20.929187 
L 152.933043 18.929187 
" style="fill: none; stroke: #666666; stroke-linecap: round"/>
    <path d="M 168.062622 18.929187 
L 172.062622 20.929187 
L 168.062622 22.929187 
" style="fill: none; stroke: #666666; stroke-linecap: round"/>
   </g>
   <g id="patch_6">
    <path d="M 178.296243 20.929187 
Q 189.861033 20.929187 201.425822 20.929187 
" style="fill: none; stroke: #666666; stroke-linecap: round"/>
    <path d="M 182.296243 22.929187 
L 178.296243 20.929187 
L 182.296243 18.929187 
" style="fill: none; stroke: #666666; stroke-linecap: round"/>
    <path d="M 197.425822 18.929187 
L 201.425822 20.929187 
L 197.425822 22.929187 
" style="fill: none; stroke: #666666; stroke-linecap: round"/>
   </g>
   <g id="patch_7">
    <path d="M 126.910643 96.676422 
Q 138.475433 96.676422 150.040222 96.676422 
" style="fill: none; stroke: #666666; stroke-linecap: round"/>
    <path d="M 130.910643 98.676422 
L 126.910643 96.676422 
L 130.910643 94.676422 
" style="fill: none; stroke: #666666; stroke-linecap: round"/>
    <path d="M 146.040222 94.676422 
L 150.040222 96.676422 
L 146.040222 98.676422 
" style="fill: none; stroke: #666666; stroke-linecap: round"/>
   </g>
   <g id="text_16">
    <!-- $\Delta t$ -->
    <g style="fill: #666666" transform="translate(134.157712 93.807707) scale(0.08 -0.08)">
     <use xlink:href="#DejaVuSans-329" transform="translate(0 0.09375)"/>
     <use xlink:href="#DejaVuSans-Oblique-57" transform="translate(68.408203 0.09375)"/>
    </g>
   </g>
   <g id="patch_8">
    <path d="M 134.251443 172.423658 
Q 145.816233 172.423658 157.381022 172.423658 
" style="fill: none; stroke: #666666; stroke-linecap: round"/>
    <path d="M 138.251443 174.423658 
L 134.251443 172.423658 
L 138.251443 170.423658 
" style="fill: none; stroke: #666666; stroke-linecap: round"/>
    <path d="M 153.381022 170.423658 
L 157.381022 172.423658 
L 153.381022 174.423658 
" style="fill: none; stroke: #666666; stroke-linecap: round"/>
   </g>
   <g id="text_17">
    <!-- $\Delta t$ -->
    <g style="fill: #666666" transform="translate(141.498512 169.554943) scale(0.08 -0.08)">
     <use xlink:href="#DejaVuSans-329" transform="translate(0 0.09375)"/>
     <use xlink:href="#DejaVuSans-Oblique-57" transform="translate(68.408203 0.09375)"/>
    </g>
   </g>
   <g id="patch_9">
    <path d="M 240.691094 120.372399 
Q 230.238508 156.324633 220.285327 190.559138 
" style="fill: none; stroke: #d62728; stroke-width: 1.6; stroke-linecap: round"/>
    <path d="M 223.32251 187.276529 
L 220.285327 190.559138 
L 219.48155 186.159826 
z
" style="fill: #d62728; stroke: #d62728; stroke-width: 1.6; stroke-linecap: round"/>
   </g>
   <g id="line2d_22">
    <path d="M 263.271313 42.706517 
L 241.248912 118.453753 
L 219.226512 194.200989 
" clip-path="url(#p8c13820502)" style="fill: none; stroke: #d62728; stroke-width: 1.6; stroke-linecap: square"/>
   </g>
   <g id="PathCollection_1">
    <defs>
     <path id="md985f1ba82" d="M 0 2.44949 
C 0.649612 2.44949 1.272706 2.191396 1.732051 1.732051 
C 2.191396 1.272706 2.44949 0.649612 2.44949 0 
C 2.44949 -0.649612 2.191396 -1.272706 1.732051 -1.732051 
C 1.272706 -2.191396 0.649612 -2.44949 0 -2.44949 
C -0.649612 -2.44949 -1.272706 -2.191396 -1.732051 -1.732051 
C -2.191396 -1.272706 -2.44949 -0.649612 -2.44949 0 
C -2.44949 0.649612 -2.191396 1.272706 -1.732051 1.732051 
C -1.272706 2.191396 -0.649612 2.44949 0 2.44949 
z
" style="stroke: #d62728"/>
    </defs>
    <g clip-path="url(#p8c13820502)">
     <use xlink:href="#md985f1ba82" x="263.271313" y="42.706517" style="fill: #d62728; stroke: #d62728"/>
     <use xlink:href="#md985f1ba82" x="241.248912" y="118.453753" style="fill: #d62728; stroke: #d62728"/>
     <use xlink:href="#md985f1ba82" x="219.226512" y="194.200989" style="fill: #d62728; stroke: #d62728"/>
    </g>
   </g>
  </g>
 </g>
 <defs>
  <clipPath id="p8c13820502">
   <rect x="24.695312" y="7.2" width="412.92" height="210.672"/>
  </clipPath>
 </defs>
</svg>
