<?xml version="1.0" encoding="utf-8" standalone="no"?>
<!DOCTYPE svg PUBLIC "-//W3C//DTD SVG 1.1//EN"
  "http://www.w3.org/Graphics/SVG/1.1/DTD/svg11.dtd">
<svg xmlns:xlink="http://www.w3.org/1999/xlink" width="396.048594pt" height="224.559375pt" viewBox="0 0 396.048594 224.559375" xmlns="http://www.w3.org/2000/svg" version="1.1">
 <metadata>
  <rdf:RDF xmlns:dc="http://purl.org/dc/elements/1.1/" xmlns:cc="http://creativecommons.org/ns#" xmlns:rdf="http://www.w3.org/1999/02/22-rdf-syntax-ns#">
   <cc:Work>
    <dc:type rdf:resource="http://purl.org/dc/dcmitype/StillImage"/>
    <dc:date>2026-06-23T19:07:06.347175</dc:date>
    <dc:format>image/svg+xml</dc:format>
    <dc:creator>
     <cc:Agent>
      <dc:title>Matplotlib v3.11.0, https://matplotlib.org/</dc:title>
     </cc:Agent>
    </dc:creator>
   </cc:Work>
  </rdf:RDF>
 </metadata>
 <defs>
  <style type="text/css">*{stroke-linejoin: round; stroke-linecap: butt}</style>
 </defs>
 <g id="figure_1">
  <g id="patch_1">
   <path d="M 0 224.559375 
L 396.048594 224.559375 
L 396.048594 0 
L 0 0 
z
" style="fill: #ffffff"/>
  </g>
  <g id="axes_1">
   <g id="patch_2">
    <path d="M 65.208594 186.358594 
L 388.848594 186.358594 
L 388.848594 20.038594 
L 65.208594 20.038594 
z
" style="fill: #ffffff"/>
   </g>
   <g id="patch_3">
    <path d="M 71.681394 117.873888 
L 97.572594 117.873888 
L 97.572594 39.605653 
L 71.681394 39.605653 
z
" clip-path="url(#p2ec5098f11)" style="fill: #d9d9d9; stroke: #d9d9d9; stroke-linejoin: miter"/>
   </g>
   <g id="matplotlib.axis_1">
    <g id="xtick_1">
     <g id="line2d_1">
      <defs>
       <path id="mf7e25ca9ff" d="M 0 0 
L 0 3.5 
" style="stroke: #000000; stroke-width: 0.8"/>
      </defs>
      <g>
       <use xlink:href="#mf7e25ca9ff" x="72.508744" y="186.358594" style="stroke: #000000; stroke-width: 0.8"/>
      </g>
     </g>
     <g id="text_1">
      <!-- 0 -->
      <g transform="translate(69.327494 200.95625) scale(0.1 -0.1)">
       <defs>
        <path id="DejaVuSans-13" d="M 2034 4250 
Q 1547 4250 1301 3770 
Q 1056 3291 1056 2328 
Q 1056 1369 1301 889 
Q 1547 409 2034 409 
Q 2525 409 2770 889 
Q 3016 1369 3016 2328 
Q 3016 3291 2770 3770 
Q 2525 4250 2034 4250 
z
M 2034 4750 
Q 2819 4750 3233 4129 
Q 3647 3509 3647 2328 
Q 3647 1150 3233 529 
Q 2819 -91 2034 -91 
Q 1250 -91 836 529 
Q 422 1150 422 2328 
Q 422 3509 836 4129 
Q 1250 4750 2034 4750 
z
" transform="scale(0.015625)"/>
       </defs>
       <use xlink:href="#DejaVuSans-13"/>
      </g>
     </g>
    </g>
    <g id="xtick_2">
     <g id="line2d_2">
      <g>
       <use xlink:href="#mf7e25ca9ff" x="121.176413" y="186.358594" style="stroke: #000000; stroke-width: 0.8"/>
      </g>
     </g>
     <g id="text_2">
      <!-- 200 -->
      <g transform="translate(111.632663 200.95625) scale(0.1 -0.1)">
       <defs>
        <path id="DejaVuSans-15" d="M 1228 531 
L 3431 531 
L 3431 0 
L 469 0 
L 469 531 
Q 828 903 1448 1529 
Q 2069 2156 2228 2338 
Q 2531 2678 2651 2914 
Q 2772 3150 2772 3378 
Q 2772 3750 2511 3984 
Q 2250 4219 1831 4219 
Q 1534 4219 1204 4116 
Q 875 4013 500 3803 
L 500 4441 
Q 881 4594 1212 4672 
Q 1544 4750 1819 4750 
Q 2544 4750 2975 4387 
Q 3406 4025 3406 3419 
Q 3406 3131 3298 2873 
Q 3191 2616 2906 2266 
Q 2828 2175 2409 1742 
Q 1991 1309 1228 531 
z
" transform="scale(0.015625)"/>
       </defs>
       <use xlink:href="#DejaVuSans-15"/>
       <use xlink:href="#DejaVuSans-13" transform="translate(63.625 0)"/>
       <use xlink:href="#DejaVuSans-13" transform="translate(127.25 0)"/>
      </g>
     </g>
    </g>
    <g id="xtick_3">
     <g id="line2d_3">
      <g>
       <use xlink:href="#mf7e25ca9ff" x="169.844082" y="186.358594" style="stroke: #000000; stroke-width: 0.8"/>
      </g>
     </g>
     <g id="text_3">
      <!-- 400 -->
      <g transform="translate(160.300332 200.95625) scale(0.1 -0.1)">
       <defs>
        <path id="DejaVuSans-17" d="M 2419 4116 
L 825 1625 
L 2419 1625 
L 2419 4116 
z
M 2253 4666 
L 3047 4666 
L 3047 1625 
L 3713 1625 
L 3713 1100 
L 3047 1100 
L 3047 0 
L 2419 0 
L 2419 1100 
L 313 1100 
L 313 1709 
L 2253 4666 
z
" transform="scale(0.015625)"/>
       </defs>
       <use xlink:href="#DejaVuSans-17"/>
       <use xlink:href="#DejaVuSans-13" transform="translate(63.625 0)"/>
       <use xlink:href="#DejaVuSans-13" transform="translate(127.25 0)"/>
      </g>
     </g>
    </g>
    <g id="xtick_4">
     <g id="line2d_4">
      <g>
       <use xlink:href="#mf7e25ca9ff" x="218.511752" y="186.358594" style="stroke: #000000; stroke-width: 0.8"/>
      </g>
     </g>
     <g id="text_4">
      <!-- 600 -->
      <g transform="translate(208.968002 200.95625) scale(0.1 -0.1)">
       <defs>
        <path id="DejaVuSans-19" d="M 2113 2584 
Q 1688 2584 1439 2293 
Q 1191 2003 1191 1497 
Q 1191 994 1439 701 
Q 1688 409 2113 409 
Q 2538 409 2786 701 
Q 3034 994 3034 1497 
Q 3034 2003 2786 2293 
Q 2538 2584 2113 2584 
z
M 3366 4563 
L 3366 3988 
Q 3128 4100 2886 4159 
Q 2644 4219 2406 4219 
Q 1781 4219 1451 3797 
Q 1122 3375 1075 2522 
Q 1259 2794 1537 2939 
Q 1816 3084 2150 3084 
Q 2853 3084 3261 2657 
Q 3669 2231 3669 1497 
Q 3669 778 3244 343 
Q 2819 -91 2113 -91 
Q 1303 -91 875 529 
Q 447 1150 447 2328 
Q 447 3434 972 4092 
Q 1497 4750 2381 4750 
Q 2619 4750 2861 4703 
Q 3103 4656 3366 4563 
z
" transform="scale(0.015625)"/>
       </defs>
       <use xlink:href="#DejaVuSans-19"/>
       <use xlink:href="#DejaVuSans-13" transform="translate(63.625 0)"/>
       <use xlink:href="#DejaVuSans-13" transform="translate(127.25 0)"/>
      </g>
     </g>
    </g>
    <g id="xtick_5">
     <g id="line2d_5">
      <g>
       <use xlink:href="#mf7e25ca9ff" x="267.179421" y="186.358594" style="stroke: #000000; stroke-width: 0.8"/>
      </g>
     </g>
     <g id="text_5">
      <!-- 800 -->
      <g transform="translate(257.635671 200.95625) scale(0.1 -0.1)">
       <defs>
        <path id="DejaVuSans-1b" d="M 2034 2216 
Q 1584 2216 1326 1975 
Q 1069 1734 1069 1313 
Q 1069 891 1326 650 
Q 1584 409 2034 409 
Q 2484 409 2743 651 
Q 3003 894 3003 1313 
Q 3003 1734 2745 1975 
Q 2488 2216 2034 2216 
z
M 1403 2484 
Q 997 2584 770 2862 
Q 544 3141 544 3541 
Q 544 4100 942 4425 
Q 1341 4750 2034 4750 
Q 2731 4750 3128 4425 
Q 3525 4100 3525 3541 
Q 3525 3141 3298 2862 
Q 3072 2584 2669 2484 
Q 3125 2378 3379 2068 
Q 3634 1759 3634 1313 
Q 3634 634 3220 271 
Q 2806 -91 2034 -91 
Q 1263 -91 848 271 
Q 434 634 434 1313 
Q 434 1759 690 2068 
Q 947 2378 1403 2484 
z
M 1172 3481 
Q 1172 3119 1398 2916 
Q 1625 2713 2034 2713 
Q 2441 2713 2670 2916 
Q 2900 3119 2900 3481 
Q 2900 3844 2670 4047 
Q 2441 4250 2034 4250 
Q 1625 4250 1398 4047 
Q 1172 3844 1172 3481 
z
" transform="scale(0.015625)"/>
       </defs>
       <use xlink:href="#DejaVuSans-1b"/>
       <use xlink:href="#DejaVuSans-13" transform="translate(63.625 0)"/>
       <use xlink:href="#DejaVuSans-13" transform="translate(127.25 0)"/>
      </g>
     </g>
    </g>
    <g id="xtick_6">
     <g id="line2d_6">
      <g>
       <use xlink:href="#mf7e25ca9ff" x="315.84709" y="186.358594" style="stroke: #000000; stroke-width: 0.8"/>
      </g>
     </g>
     <g id="text_6">
      <!-- 1000 -->
      <g transform="translate(303.12209 200.95625) scale(0.1 -0.1)">
       <defs>
        <path id="DejaVuSans-14" d="M 794 531 
L 1825 531 
L 1825 4091 
L 703 3866 
L 703 4441 
L 1819 4666 
L 2450 4666 
L 2450 531 
L 3481 531 
L 3481 0 
L 794 0 
L 794 531 
z
" transform="scale(0.015625)"/>
       </defs>
       <use xlink:href="#DejaVuSans-14"/>
       <use xlink:href="#DejaVuSans-13" transform="translate(63.625 0)"/>
       <use xlink:href="#DejaVuSans-13" transform="translate(127.25 0)"/>
       <use xlink:href="#DejaVuSans-13" transform="translate(190.875 0)"/>
      </g>
     </g>
    </g>
    <g id="xtick_7">
     <g id="line2d_7">
      <g>
       <use xlink:href="#mf7e25ca9ff" x="364.514759" y="186.358594" style="stroke: #000000; stroke-width: 0.8"/>
      </g>
     </g>
     <g id="text_7">
      <!-- 1200 -->
      <g transform="translate(351.789759 200.95625) scale(0.1 -0.1)">
       <use xlink:href="#DejaVuSans-14"/>
       <use xlink:href="#DejaVuSans-15" transform="translate(63.625 0)"/>
       <use xlink:href="#DejaVuSans-13" transform="translate(127.25 0)"/>
       <use xlink:href="#DejaVuSans-13" transform="translate(190.875 0)"/>
      </g>
     </g>
    </g>
    <g id="text_8">
     <!-- scan index i (time through the run) -->
     <g transform="translate(139.396562 214.957031) scale(0.1 -0.1)">
      <defs>
       <path id="DejaVuSans-56" d="M 2834 3397 
L 2834 2853 
Q 2591 2978 2328 3040 
Q 2066 3103 1784 3103 
Q 1356 3103 1142 2972 
Q 928 2841 928 2578 
Q 928 2378 1081 2264 
Q 1234 2150 1697 2047 
L 1894 2003 
Q 2506 1872 2764 1633 
Q 3022 1394 3022 966 
Q 3022 478 2636 193 
Q 2250 -91 1575 -91 
Q 1294 -91 989 -36 
Q 684 19 347 128 
L 347 722 
Q 666 556 975 473 
Q 1284 391 1588 391 
Q 1994 391 2212 530 
Q 2431 669 2431 922 
Q 2431 1156 2273 1281 
Q 2116 1406 1581 1522 
L 1381 1569 
Q 847 1681 609 1914 
Q 372 2147 372 2553 
Q 372 3047 722 3315 
Q 1072 3584 1716 3584 
Q 2034 3584 2315 3537 
Q 2597 3491 2834 3397 
z
" transform="scale(0.015625)"/>
       <path id="DejaVuSans-46" d="M 3122 3366 
L 3122 2828 
Q 2878 2963 2633 3030 
Q 2388 3097 2138 3097 
Q 1578 3097 1268 2742 
Q 959 2388 959 1747 
Q 959 1106 1268 751 
Q 1578 397 2138 397 
Q 2388 397 2633 464 
Q 2878 531 3122 666 
L 3122 134 
Q 2881 22 2623 -34 
Q 2366 -91 2075 -91 
Q 1284 -91 818 406 
Q 353 903 353 1747 
Q 353 2603 823 3093 
Q 1294 3584 2113 3584 
Q 2378 3584 2631 3529 
Q 2884 3475 3122 3366 
z
" transform="scale(0.015625)"/>
       <path id="DejaVuSans-44" d="M 2194 1759 
Q 1497 1759 1228 1600 
Q 959 1441 959 1056 
Q 959 750 1161 570 
Q 1363 391 1709 391 
Q 2188 391 2477 730 
Q 2766 1069 2766 1631 
L 2766 1759 
L 2194 1759 
z
M 3341 1997 
L 3341 0 
L 2766 0 
L 2766 531 
Q 2569 213 2275 61 
Q 1981 -91 1556 -91 
Q 1019 -91 701 211 
Q 384 513 384 1019 
Q 384 1609 779 1909 
Q 1175 2209 1959 2209 
L 2766 2209 
L 2766 2266 
Q 2766 2663 2505 2880 
Q 2244 3097 1772 3097 
Q 1472 3097 1187 3025 
Q 903 2953 641 2809 
L 641 3341 
Q 956 3463 1253 3523 
Q 1550 3584 1831 3584 
Q 2591 3584 2966 3190 
Q 3341 2797 3341 1997 
z
" transform="scale(0.015625)"/>
       <path id="DejaVuSans-51" d="M 3513 2113 
L 3513 0 
L 2938 0 
L 2938 2094 
Q 2938 2591 2744 2837 
Q 2550 3084 2163 3084 
Q 1697 3084 1428 2787 
Q 1159 2491 1159 1978 
L 1159 0 
L 581 0 
L 581 3500 
L 1159 3500 
L 1159 2956 
Q 1366 3272 1645 3428 
Q 1925 3584 2291 3584 
Q 2894 3584 3203 3211 
Q 3513 2838 3513 2113 
z
" transform="scale(0.015625)"/>
       <path id="DejaVuSans-3" transform="scale(0.015625)"/>
       <path id="DejaVuSans-4c" d="M 603 3500 
L 1178 3500 
L 1178 0 
L 603 0 
L 603 3500 
z
M 603 4863 
L 1178 4863 
L 1178 4134 
L 603 4134 
L 603 4863 
z
" transform="scale(0.015625)"/>
       <path id="DejaVuSans-47" d="M 2906 2969 
L 2906 4863 
L 3481 4863 
L 3481 0 
L 2906 0 
L 2906 525 
Q 2725 213 2448 61 
Q 2172 -91 1784 -91 
Q 1150 -91 751 415 
Q 353 922 353 1747 
Q 353 2572 751 3078 
Q 1150 3584 1784 3584 
Q 2172 3584 2448 3432 
Q 2725 3281 2906 2969 
z
M 947 1747 
Q 947 1113 1208 752 
Q 1469 391 1925 391 
Q 2381 391 2643 752 
Q 2906 1113 2906 1747 
Q 2906 2381 2643 2742 
Q 2381 3103 1925 3103 
Q 1469 3103 1208 2742 
Q 947 2381 947 1747 
z
" transform="scale(0.015625)"/>
       <path id="DejaVuSans-48" d="M 3597 1894 
L 3597 1613 
L 953 1613 
Q 991 1019 1311 708 
Q 1631 397 2203 397 
Q 2534 397 2845 478 
Q 3156 559 3463 722 
L 3463 178 
Q 3153 47 2828 -22 
Q 2503 -91 2169 -91 
Q 1331 -91 842 396 
Q 353 884 353 1716 
Q 353 2575 817 3079 
Q 1281 3584 2069 3584 
Q 2775 3584 3186 3129 
Q 3597 2675 3597 1894 
z
M 3022 2063 
Q 3016 2534 2758 2815 
Q 2500 3097 2075 3097 
Q 1594 3097 1305 2825 
Q 1016 2553 972 2059 
L 3022 2063 
z
" transform="scale(0.015625)"/>
       <path id="DejaVuSans-5b" d="M 3513 3500 
L 2247 1797 
L 3578 0 
L 2900 0 
L 1881 1375 
L 863 0 
L 184 0 
L 1544 1831 
L 300 3500 
L 978 3500 
L 1906 2253 
L 2834 3500 
L 3513 3500 
z
" transform="scale(0.015625)"/>
       <path id="DejaVuSans-b" d="M 1984 4856 
Q 1566 4138 1362 3434 
Q 1159 2731 1159 2009 
Q 1159 1288 1364 580 
Q 1569 -128 1984 -844 
L 1484 -844 
Q 1016 -109 783 600 
Q 550 1309 550 2009 
Q 550 2706 781 3412 
Q 1013 4119 1484 4856 
L 1984 4856 
z
" transform="scale(0.015625)"/>
       <path id="DejaVuSans-57" d="M 1172 4494 
L 1172 3500 
L 2356 3500 
L 2356 3053 
L 1172 3053 
L 1172 1153 
Q 1172 725 1289 603 
Q 1406 481 1766 481 
L 2356 481 
L 2356 0 
L 1766 0 
Q 1100 0 847 248 
Q 594 497 594 1153 
L 594 3053 
L 172 3053 
L 172 3500 
L 594 3500 
L 594 4494 
L 1172 4494 
z
" transform="scale(0.015625)"/>
       <path id="DejaVuSans-50" d="M 3328 2828 
Q 3544 3216 3844 3400 
Q 4144 3584 4550 3584 
Q 5097 3584 5394 3201 
Q 5691 2819 5691 2113 
L 5691 0 
L 5113 0 
L 5113 2094 
Q 5113 2597 4934 2840 
Q 4756 3084 4391 3084 
Q 3944 3084 3684 2787 
Q 3425 2491 3425 1978 
L 3425 0 
L 2847 0 
L 2847 2094 
Q 2847 2600 2669 2842 
Q 2491 3084 2119 3084 
Q 1678 3084 1418 2786 
Q 1159 2488 1159 1978 
L 1159 0 
L 581 0 
L 581 3500 
L 1159 3500 
L 1159 2956 
Q 1356 3278 1631 3431 
Q 1906 3584 2284 3584 
Q 2666 3584 2933 3390 
Q 3200 3197 3328 2828 
z
" transform="scale(0.015625)"/>
       <path id="DejaVuSans-4b" d="M 3513 2113 
L 3513 0 
L 2938 0 
L 2938 2094 
Q 2938 2591 2744 2837 
Q 2550 3084 2163 3084 
Q 1697 3084 1428 2787 
Q 1159 2491 1159 1978 
L 1159 0 
L 581 0 
L 581 4863 
L 1159 4863 
L 1159 2956 
Q 1366 3272 1645 3428 
Q 1925 3584 2291 3584 
Q 2894 3584 3203 3211 
Q 3513 2838 3513 2113 
z
" transform="scale(0.015625)"/>
       <path id="DejaVuSans-55" d="M 2631 2963 
Q 2534 3019 2420 3045 
Q 2306 3072 2169 3072 
Q 1681 3072 1420 2755 
Q 1159 2438 1159 1844 
L 1159 0 
L 581 0 
L 581 3500 
L 1159 3500 
L 1159 2956 
Q 1341 3275 1631 3429 
Q 1922 3584 2338 3584 
Q 2397 3584 2469 3576 
Q 2541 3569 2628 3553 
L 2631 2963 
z
" transform="scale(0.015625)"/>
       <path id="DejaVuSans-52" d="M 1959 3097 
Q 1497 3097 1228 2736 
Q 959 2375 959 1747 
Q 959 1119 1226 758 
Q 1494 397 1959 397 
Q 2419 397 2687 759 
Q 2956 1122 2956 1747 
Q 2956 2369 2687 2733 
Q 2419 3097 1959 3097 
z
M 1959 3584 
Q 2709 3584 3137 3096 
Q 3566 2609 3566 1747 
Q 3566 888 3137 398 
Q 2709 -91 1959 -91 
Q 1206 -91 779 398 
Q 353 888 353 1747 
Q 353 2609 779 3096 
Q 1206 3584 1959 3584 
z
" transform="scale(0.015625)"/>
       <path id="DejaVuSans-58" d="M 544 1381 
L 544 3500 
L 1119 3500 
L 1119 1403 
Q 1119 906 1312 657 
Q 1506 409 1894 409 
Q 2359 409 2629 706 
Q 2900 1003 2900 1516 
L 2900 3500 
L 3475 3500 
L 3475 0 
L 2900 0 
L 2900 538 
Q 2691 219 2414 64 
Q 2138 -91 1772 -91 
Q 1169 -91 856 284 
Q 544 659 544 1381 
z
M 1991 3584 
L 1991 3584 
z
" transform="scale(0.015625)"/>
       <path id="DejaVuSans-4a" d="M 2906 1791 
Q 2906 2416 2648 2759 
Q 2391 3103 1925 3103 
Q 1463 3103 1205 2759 
Q 947 2416 947 1791 
Q 947 1169 1205 825 
Q 1463 481 1925 481 
Q 2391 481 2648 825 
Q 2906 1169 2906 1791 
z
M 3481 434 
Q 3481 -459 3084 -895 
Q 2688 -1331 1869 -1331 
Q 1566 -1331 1297 -1286 
Q 1028 -1241 775 -1147 
L 775 -588 
Q 1028 -725 1275 -790 
Q 1522 -856 1778 -856 
Q 2344 -856 2625 -561 
Q 2906 -266 2906 331 
L 2906 616 
Q 2728 306 2450 153 
Q 2172 0 1784 0 
Q 1141 0 747 490 
Q 353 981 353 1791 
Q 353 2603 747 3093 
Q 1141 3584 1784 3584 
Q 2172 3584 2450 3431 
Q 2728 3278 2906 2969 
L 2906 3500 
L 3481 3500 
L 3481 434 
z
" transform="scale(0.015625)"/>
       <path id="DejaVuSans-c" d="M 513 4856 
L 1013 4856 
Q 1481 4119 1714 3412 
Q 1947 2706 1947 2009 
Q 1947 1309 1714 600 
Q 1481 -109 1013 -844 
L 513 -844 
Q 928 -128 1133 580 
Q 1338 1288 1338 2009 
Q 1338 2731 1133 3434 
Q 928 4138 513 4856 
z
" transform="scale(0.015625)"/>
      </defs>
      <use xlink:href="#DejaVuSans-56"/>
      <use xlink:href="#DejaVuSans-46" transform="translate(52.09375 0)"/>
      <use xlink:href="#DejaVuSans-44" transform="translate(107.078125 0)"/>
      <use xlink:href="#DejaVuSans-51" transform="translate(168.359375 0)"/>
      <use xlink:href="#DejaVuSans-3" transform="translate(231.734375 0)"/>
      <use xlink:href="#DejaVuSans-4c" transform="translate(263.515625 0)"/>
      <use xlink:href="#DejaVuSans-51" transform="translate(291.296875 0)"/>
      <use xlink:href="#DejaVuSans-47" transform="translate(354.671875 0)"/>
      <use xlink:href="#DejaVuSans-48" transform="translate(418.15625 0)"/>
      <use xlink:href="#DejaVuSans-5b" transform="translate(477.9375 0)"/>
      <use xlink:href="#DejaVuSans-3" transform="translate(537.125 0)"/>
      <use xlink:href="#DejaVuSans-4c" transform="translate(568.90625 0)"/>
      <use xlink:href="#DejaVuSans-3" transform="translate(596.6875 0)"/>
      <use xlink:href="#DejaVuSans-b" transform="translate(628.46875 0)"/>
      <use xlink:href="#DejaVuSans-57" transform="translate(667.484375 0)"/>
      <use xlink:href="#DejaVuSans-4c" transform="translate(706.6875 0)"/>
      <use xlink:href="#DejaVuSans-50" transform="translate(734.46875 0)"/>
      <use xlink:href="#DejaVuSans-48" transform="translate(831.875 0)"/>
      <use xlink:href="#DejaVuSans-3" transform="translate(893.40625 0)"/>
      <use xlink:href="#DejaVuSans-57" transform="translate(925.1875 0)"/>
      <use xlink:href="#DejaVuSans-4b" transform="translate(964.390625 0)"/>
      <use xlink:href="#DejaVuSans-55" transform="translate(1027.765625 0)"/>
      <use xlink:href="#DejaVuSans-52" transform="translate(1066.671875 0)"/>
      <use xlink:href="#DejaVuSans-58" transform="translate(1127.859375 0)"/>
      <use xlink:href="#DejaVuSans-4a" transform="translate(1191.234375 0)"/>
      <use xlink:href="#DejaVuSans-4b" transform="translate(1254.71875 0)"/>
      <use xlink:href="#DejaVuSans-3" transform="translate(1318.09375 0)"/>
      <use xlink:href="#DejaVuSans-57" transform="translate(1349.875 0)"/>
      <use xlink:href="#DejaVuSans-4b" transform="translate(1389.078125 0)"/>
      <use xlink:href="#DejaVuSans-48" transform="translate(1452.453125 0)"/>
      <use xlink:href="#DejaVuSans-3" transform="translate(1513.984375 0)"/>
      <use xlink:href="#DejaVuSans-55" transform="translate(1545.765625 0)"/>
      <use xlink:href="#DejaVuSans-58" transform="translate(1586.875 0)"/>
      <use xlink:href="#DejaVuSans-51" transform="translate(1650.25 0)"/>
      <use xlink:href="#DejaVuSans-c" transform="translate(1713.625 0)"/>
     </g>
    </g>
   </g>
   <g id="matplotlib.axis_2">
    <g id="ytick_1">
     <g id="line2d_8">
      <defs>
       <path id="m00d031ee71" d="M 0 0 
L -3.5 0 
" style="stroke: #000000; stroke-width: 0.8"/>
      </defs>
      <g>
       <use xlink:href="#m00d031ee71" x="65.208594" y="186.358594" style="stroke: #000000; stroke-width: 0.8"/>
      </g>
     </g>
     <g id="text_9">
      <!-- −0.030 -->
      <g transform="translate(21.200781 190.157422) scale(0.1 -0.1)">
       <defs>
        <path id="DejaVuSans-c9c" d="M 678 2272 
L 4684 2272 
L 4684 1741 
L 678 1741 
L 678 2272 
z
" transform="scale(0.015625)"/>
        <path id="DejaVuSans-11" d="M 684 794 
L 1344 794 
L 1344 0 
L 684 0 
L 684 794 
z
" transform="scale(0.015625)"/>
        <path id="DejaVuSans-16" d="M 2597 2516 
Q 3050 2419 3304 2112 
Q 3559 1806 3559 1356 
Q 3559 666 3084 287 
Q 2609 -91 1734 -91 
Q 1441 -91 1130 -33 
Q 819 25 488 141 
L 488 750 
Q 750 597 1062 519 
Q 1375 441 1716 441 
Q 2309 441 2620 675 
Q 2931 909 2931 1356 
Q 2931 1769 2642 2001 
Q 2353 2234 1838 2234 
L 1294 2234 
L 1294 2753 
L 1863 2753 
Q 2328 2753 2575 2939 
Q 2822 3125 2822 3475 
Q 2822 3834 2567 4026 
Q 2313 4219 1838 4219 
Q 1578 4219 1281 4162 
Q 984 4106 628 3988 
L 628 4550 
Q 988 4650 1302 4700 
Q 1616 4750 1894 4750 
Q 2613 4750 3031 4423 
Q 3450 4097 3450 3541 
Q 3450 3153 3228 2886 
Q 3006 2619 2597 2516 
z
" transform="scale(0.015625)"/>
       </defs>
       <use xlink:href="#DejaVuSans-c9c"/>
       <use xlink:href="#DejaVuSans-13" transform="translate(83.796875 0)"/>
       <use xlink:href="#DejaVuSans-11" transform="translate(147.421875 0)"/>
       <use xlink:href="#DejaVuSans-13" transform="translate(179.203125 0)"/>
       <use xlink:href="#DejaVuSans-16" transform="translate(242.828125 0)"/>
       <use xlink:href="#DejaVuSans-13" transform="translate(306.453125 0)"/>
      </g>
     </g>
    </g>
    <g id="ytick_2">
     <g id="line2d_9">
      <g>
       <use xlink:href="#m00d031ee71" x="65.208594" y="161.89977" style="stroke: #000000; stroke-width: 0.8"/>
      </g>
     </g>
     <g id="text_10">
      <!-- −0.025 -->
      <g transform="translate(21.200781 165.698598) scale(0.1 -0.1)">
       <defs>
        <path id="DejaVuSans-18" d="M 691 4666 
L 3169 4666 
L 3169 4134 
L 1269 4134 
L 1269 2991 
Q 1406 3038 1543 3061 
Q 1681 3084 1819 3084 
Q 2600 3084 3056 2656 
Q 3513 2228 3513 1497 
Q 3513 744 3044 326 
Q 2575 -91 1722 -91 
Q 1428 -91 1123 -41 
Q 819 9 494 109 
L 494 744 
Q 775 591 1075 516 
Q 1375 441 1709 441 
Q 2250 441 2565 725 
Q 2881 1009 2881 1497 
Q 2881 1984 2565 2268 
Q 2250 2553 1709 2553 
Q 1456 2553 1204 2497 
Q 953 2441 691 2322 
L 691 4666 
z
" transform="scale(0.015625)"/>
       </defs>
       <use xlink:href="#DejaVuSans-c9c"/>
       <use xlink:href="#DejaVuSans-13" transform="translate(83.796875 0)"/>
       <use xlink:href="#DejaVuSans-11" transform="translate(147.421875 0)"/>
       <use xlink:href="#DejaVuSans-13" transform="translate(179.203125 0)"/>
       <use xlink:href="#DejaVuSans-15" transform="translate(242.828125 0)"/>
       <use xlink:href="#DejaVuSans-18" transform="translate(306.453125 0)"/>
      </g>
     </g>
    </g>
    <g id="ytick_3">
     <g id="line2d_10">
      <g>
       <use xlink:href="#m00d031ee71" x="65.208594" y="137.440947" style="stroke: #000000; stroke-width: 0.8"/>
      </g>
     </g>
     <g id="text_11">
      <!-- −0.020 -->
      <g transform="translate(21.200781 141.239775) scale(0.1 -0.1)">
       <use xlink:href="#DejaVuSans-c9c"/>
       <use xlink:href="#DejaVuSans-13" transform="translate(83.796875 0)"/>
       <use xlink:href="#DejaVuSans-11" transform="translate(147.421875 0)"/>
       <use xlink:href="#DejaVuSans-13" transform="translate(179.203125 0)"/>
       <use xlink:href="#DejaVuSans-15" transform="translate(242.828125 0)"/>
       <use xlink:href="#DejaVuSans-13" transform="translate(306.453125 0)"/>
      </g>
     </g>
    </g>
    <g id="ytick_4">
     <g id="line2d_11">
      <g>
       <use xlink:href="#m00d031ee71" x="65.208594" y="112.982123" style="stroke: #000000; stroke-width: 0.8"/>
      </g>
     </g>
     <g id="text_12">
      <!-- −0.015 -->
      <g transform="translate(21.200781 116.780951) scale(0.1 -0.1)">
       <use xlink:href="#DejaVuSans-c9c"/>
       <use xlink:href="#DejaVuSans-13" transform="translate(83.796875 0)"/>
       <use xlink:href="#DejaVuSans-11" transform="translate(147.421875 0)"/>
       <use xlink:href="#DejaVuSans-13" transform="translate(179.203125 0)"/>
       <use xlink:href="#DejaVuSans-14" transform="translate(242.828125 0)"/>
       <use xlink:href="#DejaVuSans-18" transform="translate(306.453125 0)"/>
      </g>
     </g>
    </g>
    <g id="ytick_5">
     <g id="line2d_12">
      <g>
       <use xlink:href="#m00d031ee71" x="65.208594" y="88.5233" style="stroke: #000000; stroke-width: 0.8"/>
      </g>
     </g>
     <g id="text_13">
      <!-- −0.010 -->
      <g transform="translate(21.200781 92.322128) scale(0.1 -0.1)">
       <use xlink:href="#DejaVuSans-c9c"/>
       <use xlink:href="#DejaVuSans-13" transform="translate(83.796875 0)"/>
       <use xlink:href="#DejaVuSans-11" transform="translate(147.421875 0)"/>
       <use xlink:href="#DejaVuSans-13" transform="translate(179.203125 0)"/>
       <use xlink:href="#DejaVuSans-14" transform="translate(242.828125 0)"/>
       <use xlink:href="#DejaVuSans-13" transform="translate(306.453125 0)"/>
      </g>
     </g>
    </g>
    <g id="ytick_6">
     <g id="line2d_13">
      <g>
       <use xlink:href="#m00d031ee71" x="65.208594" y="64.064476" style="stroke: #000000; stroke-width: 0.8"/>
      </g>
     </g>
     <g id="text_14">
      <!-- −0.005 -->
      <g transform="translate(21.200781 67.863304) scale(0.1 -0.1)">
       <use xlink:href="#DejaVuSans-c9c"/>
       <use xlink:href="#DejaVuSans-13" transform="translate(83.796875 0)"/>
       <use xlink:href="#DejaVuSans-11" transform="translate(147.421875 0)"/>
       <use xlink:href="#DejaVuSans-13" transform="translate(179.203125 0)"/>
       <use xlink:href="#DejaVuSans-13" transform="translate(242.828125 0)"/>
       <use xlink:href="#DejaVuSans-18" transform="translate(306.453125 0)"/>
      </g>
     </g>
    </g>
    <g id="ytick_7">
     <g id="line2d_14">
      <g>
       <use xlink:href="#m00d031ee71" x="65.208594" y="39.605653" style="stroke: #000000; stroke-width: 0.8"/>
      </g>
     </g>
     <g id="text_15">
      <!-- 0.000 -->
      <g transform="translate(29.580469 43.404481) scale(0.1 -0.1)">
       <use xlink:href="#DejaVuSans-13"/>
       <use xlink:href="#DejaVuSans-11" transform="translate(63.625 0)"/>
       <use xlink:href="#DejaVuSans-13" transform="translate(95.40625 0)"/>
       <use xlink:href="#DejaVuSans-13" transform="translate(159.03125 0)"/>
       <use xlink:href="#DejaVuSans-13" transform="translate(222.65625 0)"/>
      </g>
     </g>
    </g>
    <g id="text_16">
     <!-- change in assigned m/z (Da) -->
     <g transform="translate(14.798438 174.765) rotate(-90) scale(0.1 -0.1)">
      <defs>
       <path id="DejaVuSans-12" d="M 1625 4666 
L 2156 4666 
L 531 -594 
L 0 -594 
L 1625 4666 
z
" transform="scale(0.015625)"/>
       <path id="DejaVuSans-5d" d="M 353 3500 
L 3084 3500 
L 3084 2975 
L 922 459 
L 3084 459 
L 3084 0 
L 275 0 
L 275 525 
L 2438 3041 
L 353 3041 
L 353 3500 
z
" transform="scale(0.015625)"/>
       <path id="DejaVuSans-27" d="M 1259 4147 
L 1259 519 
L 2022 519 
Q 2988 519 3436 956 
Q 3884 1394 3884 2338 
Q 3884 3275 3436 3711 
Q 2988 4147 2022 4147 
L 1259 4147 
z
M 628 4666 
L 1925 4666 
Q 3281 4666 3915 4102 
Q 4550 3538 4550 2338 
Q 4550 1131 3912 565 
Q 3275 0 1925 0 
L 628 0 
L 628 4666 
z
" transform="scale(0.015625)"/>
      </defs>
      <use xlink:href="#DejaVuSans-46"/>
      <use xlink:href="#DejaVuSans-4b" transform="translate(54.984375 0)"/>
      <use xlink:href="#DejaVuSans-44" transform="translate(118.359375 0)"/>
      <use xlink:href="#DejaVuSans-51" transform="translate(179.640625 0)"/>
      <use xlink:href="#DejaVuSans-4a" transform="translate(243.015625 0)"/>
      <use xlink:href="#DejaVuSans-48" transform="translate(306.5 0)"/>
      <use xlink:href="#DejaVuSans-3" transform="translate(368.03125 0)"/>
      <use xlink:href="#DejaVuSans-4c" transform="translate(399.8125 0)"/>
      <use xlink:href="#DejaVuSans-51" transform="translate(427.59375 0)"/>
      <use xlink:href="#DejaVuSans-3" transform="translate(490.96875 0)"/>
      <use xlink:href="#DejaVuSans-44" transform="translate(522.75 0)"/>
      <use xlink:href="#DejaVuSans-56" transform="translate(584.03125 0)"/>
      <use xlink:href="#DejaVuSans-56" transform="translate(636.125 0)"/>
      <use xlink:href="#DejaVuSans-4c" transform="translate(688.21875 0)"/>
      <use xlink:href="#DejaVuSans-4a" transform="translate(716 0)"/>
      <use xlink:href="#DejaVuSans-51" transform="translate(779.484375 0)"/>
      <use xlink:href="#DejaVuSans-48" transform="translate(842.859375 0)"/>
      <use xlink:href="#DejaVuSans-47" transform="translate(904.390625 0)"/>
      <use xlink:href="#DejaVuSans-3" transform="translate(967.875 0)"/>
      <use xlink:href="#DejaVuSans-50" transform="translate(999.65625 0)"/>
      <use xlink:href="#DejaVuSans-12" transform="translate(1097.0625 0)"/>
      <use xlink:href="#DejaVuSans-5d" transform="translate(1130.75 0)"/>
      <use xlink:href="#DejaVuSans-3" transform="translate(1183.234375 0)"/>
      <use xlink:href="#DejaVuSans-b" transform="translate(1215.015625 0)"/>
      <use xlink:href="#DejaVuSans-27" transform="translate(1254.03125 0)"/>
      <use xlink:href="#DejaVuSans-44" transform="translate(1331.03125 0)"/>
      <use xlink:href="#DejaVuSans-c" transform="translate(1392.3125 0)"/>
     </g>
    </g>
   </g>
   <g id="line2d_15">
    <path d="M 72.508744 39.605653 
L 377.898368 157.008006 
L 377.898368 157.008006 
" clip-path="url(#p2ec5098f11)" style="fill: none; stroke: #1f77b4; stroke-width: 2; stroke-linecap: square"/>
   </g>
   <g id="line2d_16">
    <path d="M 65.208594 39.605653 
L 388.848594 39.605653 
" clip-path="url(#p2ec5098f11)" style="fill: none; stroke: #bfbfbf; stroke-width: 0.8; stroke-linecap: square"/>
   </g>
   <g id="patch_4">
    <path d="M 65.208594 186.358594 
L 65.208594 20.038594 
" style="fill: none; stroke: #000000; stroke-width: 0.8; stroke-linejoin: miter; stroke-linecap: square"/>
   </g>
   <g id="patch_5">
    <path d="M 65.208594 186.358594 
L 388.848594 186.358594 
" style="fill: none; stroke: #000000; stroke-width: 0.8; stroke-linejoin: miter; stroke-linecap: square"/>
   </g>
   <g id="patch_6">
    <path d="M 377.898368 42.726492 
Q 377.898368 98.309825 377.898368 153.893159 
" style="fill: none; stroke: #d62728; stroke-linecap: round"/>
    <path d="M 375.898368 46.726492 
L 377.898368 42.726492 
L 379.898368 46.726492 
" style="fill: none; stroke: #d62728; stroke-linecap: round"/>
    <path d="M 379.898368 149.893159 
L 377.898368 153.893159 
L 375.898368 149.893159 
" style="fill: none; stroke: #d62728; stroke-linecap: round"/>
   </g>
   <g id="text_17">
    <!-- drift -->
    <g style="fill: #d62728" transform="translate(354.578789 95.244192) scale(0.09 -0.09)">
     <defs>
      <path id="DejaVuSans-49" d="M 2375 4863 
L 2375 4384 
L 1825 4384 
Q 1516 4384 1395 4259 
Q 1275 4134 1275 3809 
L 1275 3500 
L 2222 3500 
L 2222 3053 
L 1275 3053 
L 1275 0 
L 697 0 
L 697 3053 
L 147 3053 
L 147 3500 
L 697 3500 
L 697 3744 
Q 697 4328 969 4595 
Q 1241 4863 1831 4863 
L 2375 4863 
z
" transform="scale(0.015625)"/>
     </defs>
     <use xlink:href="#DejaVuSans-47"/>
     <use xlink:href="#DejaVuSans-55" transform="translate(63.484375 0)"/>
     <use xlink:href="#DejaVuSans-4c" transform="translate(104.59375 0)"/>
     <use xlink:href="#DejaVuSans-49" transform="translate(132.375 0)"/>
     <use xlink:href="#DejaVuSans-57" transform="translate(165.828125 0)"/>
    </g>
    <!-- ~0.024 Da -->
    <g style="fill: #d62728" transform="translate(324.418945 106.04595) scale(0.09 -0.09)">
     <defs>
      <path id="DejaVuSans-61" d="M 4684 2553 
L 4684 1997 
Q 4356 1750 4076 1644 
Q 3797 1538 3494 1538 
Q 3150 1538 2694 1722 
Q 2659 1734 2644 1741 
Q 2622 1750 2575 1766 
Q 2091 1959 1797 1959 
Q 1522 1959 1253 1839 
Q 984 1719 678 1459 
L 678 2016 
Q 1006 2263 1286 2370 
Q 1566 2478 1869 2478 
Q 2213 2478 2672 2291 
Q 2703 2278 2719 2272 
Q 2744 2263 2788 2247 
Q 3272 2053 3566 2053 
Q 3834 2053 4098 2172 
Q 4363 2291 4684 2553 
z
" transform="scale(0.015625)"/>
     </defs>
     <use xlink:href="#DejaVuSans-61"/>
     <use xlink:href="#DejaVuSans-13" transform="translate(83.796875 0)"/>
     <use xlink:href="#DejaVuSans-11" transform="translate(147.421875 0)"/>
     <use xlink:href="#DejaVuSans-13" transform="translate(179.203125 0)"/>
     <use xlink:href="#DejaVuSans-15" transform="translate(242.828125 0)"/>
     <use xlink:href="#DejaVuSans-17" transform="translate(306.453125 0)"/>
     <use xlink:href="#DejaVuSans-3" transform="translate(370.078125 0)"/>
     <use xlink:href="#DejaVuSans-27" transform="translate(401.859375 0)"/>
     <use xlink:href="#DejaVuSans-44" transform="translate(478.859375 0)"/>
    </g>
   </g>
   <g id="patch_7">
    <path d="M 83.45897 42.725297 
Q 83.45897 78.74209 83.45897 114.758882 
" style="fill: none; stroke: #666666; stroke-linecap: round"/>
    <path d="M 81.45897 46.725297 
L 83.45897 42.725297 
L 85.45897 46.725297 
" style="fill: none; stroke: #666666; stroke-linecap: round"/>
    <path d="M 85.45897 110.758882 
L 83.45897 114.758882 
L 81.45897 110.758882 
" style="fill: none; stroke: #666666; stroke-linecap: round"/>
   </g>
   <g id="text_18">
    <!-- gap between adjacent -->
    <g style="fill: #4c4c4c" transform="translate(93.192504 71.216333) scale(0.08 -0.08)">
     <defs>
      <path id="DejaVuSans-53" d="M 1159 525 
L 1159 -1331 
L 581 -1331 
L 581 3500 
L 1159 3500 
L 1159 2969 
Q 1341 3281 1617 3432 
Q 1894 3584 2278 3584 
Q 2916 3584 3314 3078 
Q 3713 2572 3713 1747 
Q 3713 922 3314 415 
Q 2916 -91 2278 -91 
Q 1894 -91 1617 61 
Q 1341 213 1159 525 
z
M 3116 1747 
Q 3116 2381 2855 2742 
Q 2594 3103 2138 3103 
Q 1681 3103 1420 2742 
Q 1159 2381 1159 1747 
Q 1159 1113 1420 752 
Q 1681 391 2138 391 
Q 2594 391 2855 752 
Q 3116 1113 3116 1747 
z
" transform="scale(0.015625)"/>
      <path id="DejaVuSans-45" d="M 3116 1747 
Q 3116 2381 2855 2742 
Q 2594 3103 2138 3103 
Q 1681 3103 1420 2742 
Q 1159 2381 1159 1747 
Q 1159 1113 1420 752 
Q 1681 391 2138 391 
Q 2594 391 2855 752 
Q 3116 1113 3116 1747 
z
M 1159 2969 
Q 1341 3281 1617 3432 
Q 1894 3584 2278 3584 
Q 2916 3584 3314 3078 
Q 3713 2572 3713 1747 
Q 3713 922 3314 415 
Q 2916 -91 2278 -91 
Q 1894 -91 1617 61 
Q 1341 213 1159 525 
L 1159 0 
L 581 0 
L 581 4863 
L 1159 4863 
L 1159 2969 
z
" transform="scale(0.015625)"/>
      <path id="DejaVuSans-5a" d="M 269 3500 
L 844 3500 
L 1563 769 
L 2278 3500 
L 2956 3500 
L 3675 769 
L 4391 3500 
L 4966 3500 
L 4050 0 
L 3372 0 
L 2619 2869 
L 1863 0 
L 1184 0 
L 269 3500 
z
" transform="scale(0.015625)"/>
      <path id="DejaVuSans-4d" d="M 603 3500 
L 1178 3500 
L 1178 -63 
Q 1178 -731 923 -1031 
Q 669 -1331 103 -1331 
L -116 -1331 
L -116 -844 
L 38 -844 
Q 366 -844 484 -692 
Q 603 -541 603 -63 
L 603 3500 
z
M 603 4863 
L 1178 4863 
L 1178 4134 
L 603 4134 
L 603 4863 
z
" transform="scale(0.015625)"/>
     </defs>
     <use xlink:href="#DejaVuSans-4a"/>
     <use xlink:href="#DejaVuSans-44" transform="translate(63.484375 0)"/>
     <use xlink:href="#DejaVuSans-53" transform="translate(124.765625 0)"/>
     <use xlink:href="#DejaVuSans-3" transform="translate(188.25 0)"/>
     <use xlink:href="#DejaVuSans-45" transform="translate(220.03125 0)"/>
     <use xlink:href="#DejaVuSans-48" transform="translate(283.515625 0)"/>
     <use xlink:href="#DejaVuSans-57" transform="translate(345.046875 0)"/>
     <use xlink:href="#DejaVuSans-5a" transform="translate(384.25 0)"/>
     <use xlink:href="#DejaVuSans-48" transform="translate(466.03125 0)"/>
     <use xlink:href="#DejaVuSans-48" transform="translate(527.5625 0)"/>
     <use xlink:href="#DejaVuSans-51" transform="translate(589.09375 0)"/>
     <use xlink:href="#DejaVuSans-3" transform="translate(652.46875 0)"/>
     <use xlink:href="#DejaVuSans-44" transform="translate(684.25 0)"/>
     <use xlink:href="#DejaVuSans-47" transform="translate(745.53125 0)"/>
     <use xlink:href="#DejaVuSans-4d" transform="translate(809.015625 0)"/>
     <use xlink:href="#DejaVuSans-44" transform="translate(836.796875 0)"/>
     <use xlink:href="#DejaVuSans-46" transform="translate(898.078125 0)"/>
     <use xlink:href="#DejaVuSans-48" transform="translate(953.0625 0)"/>
     <use xlink:href="#DejaVuSans-51" transform="translate(1014.59375 0)"/>
     <use xlink:href="#DejaVuSans-57" transform="translate(1077.96875 0)"/>
    </g>
    <!-- points in one scan -->
    <g style="fill: #4c4c4c" transform="translate(93.192504 80.81852) scale(0.08 -0.08)">
     <use xlink:href="#DejaVuSans-53"/>
     <use xlink:href="#DejaVuSans-52" transform="translate(63.484375 0)"/>
     <use xlink:href="#DejaVuSans-4c" transform="translate(124.671875 0)"/>
     <use xlink:href="#DejaVuSans-51" transform="translate(152.453125 0)"/>
     <use xlink:href="#DejaVuSans-57" transform="translate(215.828125 0)"/>
     <use xlink:href="#DejaVuSans-56" transform="translate(255.03125 0)"/>
     <use xlink:href="#DejaVuSans-3" transform="translate(307.125 0)"/>
     <use xlink:href="#DejaVuSans-4c" transform="translate(338.90625 0)"/>
     <use xlink:href="#DejaVuSans-51" transform="translate(366.6875 0)"/>
     <use xlink:href="#DejaVuSans-3" transform="translate(430.0625 0)"/>
     <use xlink:href="#DejaVuSans-52" transform="translate(461.84375 0)"/>
     <use xlink:href="#DejaVuSans-51" transform="translate(523.03125 0)"/>
     <use xlink:href="#DejaVuSans-48" transform="translate(586.40625 0)"/>
     <use xlink:href="#DejaVuSans-3" transform="translate(647.9375 0)"/>
     <use xlink:href="#DejaVuSans-56" transform="translate(679.71875 0)"/>
     <use xlink:href="#DejaVuSans-46" transform="translate(731.8125 0)"/>
     <use xlink:href="#DejaVuSans-44" transform="translate(786.796875 0)"/>
     <use xlink:href="#DejaVuSans-51" transform="translate(848.078125 0)"/>
    </g>
    <!-- ~0.016 Da -->
    <g style="fill: #4c4c4c" transform="translate(93.192504 90.420083) scale(0.08 -0.08)">
     <use xlink:href="#DejaVuSans-61"/>
     <use xlink:href="#DejaVuSans-13" transform="translate(83.796875 0)"/>
     <use xlink:href="#DejaVuSans-11" transform="translate(147.421875 0)"/>
     <use xlink:href="#DejaVuSans-13" transform="translate(179.203125 0)"/>
     <use xlink:href="#DejaVuSans-14" transform="translate(242.828125 0)"/>
     <use xlink:href="#DejaVuSans-19" transform="translate(306.453125 0)"/>
     <use xlink:href="#DejaVuSans-3" transform="translate(370.078125 0)"/>
     <use xlink:href="#DejaVuSans-27" transform="translate(401.859375 0)"/>
     <use xlink:href="#DejaVuSans-44" transform="translate(478.859375 0)"/>
    </g>
   </g>
   <g id="text_19">
    <!-- the m/z assigned to one fixed flight time, vs. time (starts at ~1556.36) -->
    <g transform="translate(67.317969 14.038594) scale(0.09 -0.09)">
     <defs>
      <path id="DejaVuSans-13af" d="M 3431 3500 
L 3431 0 
L 2853 0 
L 2853 3053 
L 1275 3053 
L 1275 0 
L 697 0 
L 697 3053 
L 147 3053 
L 147 3500 
L 697 3500 
L 697 3744 
Q 697 4316 967 4589 
Q 1238 4863 1797 4863 
L 2375 4863 
L 2375 4384 
L 1825 4384 
Q 1516 4384 1395 4259 
Q 1275 4134 1275 3809 
L 1275 3500 
L 3431 3500 
z
M 2853 4856 
L 3431 4856 
L 3431 4128 
L 2853 4128 
L 2853 4856 
z
" transform="scale(0.015625)"/>
      <path id="DejaVuSans-13b0" d="M 1831 4863 
L 3431 4863 
L 3431 0 
L 2853 0 
L 2853 4384 
L 1825 4384 
Q 1516 4384 1395 4259 
Q 1275 4134 1275 3809 
L 1275 3500 
L 2222 3500 
L 2222 3053 
L 1275 3053 
L 1275 0 
L 697 0 
L 697 3053 
L 147 3053 
L 147 3500 
L 697 3500 
L 697 3744 
Q 697 4328 969 4595 
Q 1241 4863 1831 4863 
z
" transform="scale(0.015625)"/>
      <path id="DejaVuSans-f" d="M 750 794 
L 1409 794 
L 1409 256 
L 897 -744 
L 494 -744 
L 750 256 
L 750 794 
z
" transform="scale(0.015625)"/>
      <path id="DejaVuSans-59" d="M 191 3500 
L 800 3500 
L 1894 563 
L 2988 3500 
L 3597 3500 
L 2284 0 
L 1503 0 
L 191 3500 
z
" transform="scale(0.015625)"/>
     </defs>
     <use xlink:href="#DejaVuSans-57"/>
     <use xlink:href="#DejaVuSans-4b" transform="translate(39.203125 0)"/>
     <use xlink:href="#DejaVuSans-48" transform="translate(102.578125 0)"/>
     <use xlink:href="#DejaVuSans-3" transform="translate(164.109375 0)"/>
     <use xlink:href="#DejaVuSans-50" transform="translate(195.890625 0)"/>
     <use xlink:href="#DejaVuSans-12" transform="translate(293.296875 0)"/>
     <use xlink:href="#DejaVuSans-5d" transform="translate(326.984375 0)"/>
     <use xlink:href="#DejaVuSans-3" transform="translate(379.46875 0)"/>
     <use xlink:href="#DejaVuSans-44" transform="translate(411.25 0)"/>
     <use xlink:href="#DejaVuSans-56" transform="translate(472.53125 0)"/>
     <use xlink:href="#DejaVuSans-56" transform="translate(524.625 0)"/>
     <use xlink:href="#DejaVuSans-4c" transform="translate(576.71875 0)"/>
     <use xlink:href="#DejaVuSans-4a" transform="translate(604.5 0)"/>
     <use xlink:href="#DejaVuSans-51" transform="translate(667.984375 0)"/>
     <use xlink:href="#DejaVuSans-48" transform="translate(731.359375 0)"/>
     <use xlink:href="#DejaVuSans-47" transform="translate(792.890625 0)"/>
     <use xlink:href="#DejaVuSans-3" transform="translate(856.375 0)"/>
     <use xlink:href="#DejaVuSans-57" transform="translate(888.15625 0)"/>
     <use xlink:href="#DejaVuSans-52" transform="translate(927.359375 0)"/>
     <use xlink:href="#DejaVuSans-3" transform="translate(988.546875 0)"/>
     <use xlink:href="#DejaVuSans-52" transform="translate(1020.328125 0)"/>
     <use xlink:href="#DejaVuSans-51" transform="translate(1081.515625 0)"/>
     <use xlink:href="#DejaVuSans-48" transform="translate(1144.890625 0)"/>
     <use xlink:href="#DejaVuSans-3" transform="translate(1206.421875 0)"/>
     <use xlink:href="#DejaVuSans-13af" transform="translate(1238.203125 0)"/>
     <use xlink:href="#DejaVuSans-5b" transform="translate(1301.1875 0)"/>
     <use xlink:href="#DejaVuSans-48" transform="translate(1357.296875 0)"/>
     <use xlink:href="#DejaVuSans-47" transform="translate(1418.828125 0)"/>
     <use xlink:href="#DejaVuSans-3" transform="translate(1482.3125 0)"/>
     <use xlink:href="#DejaVuSans-13b0" transform="translate(1514.09375 0)"/>
     <use xlink:href="#DejaVuSans-4c" transform="translate(1577.078125 0)"/>
     <use xlink:href="#DejaVuSans-4a" transform="translate(1604.859375 0)"/>
     <use xlink:href="#DejaVuSans-4b" transform="translate(1668.34375 0)"/>
     <use xlink:href="#DejaVuSans-57" transform="translate(1731.71875 0)"/>
     <use xlink:href="#DejaVuSans-3" transform="translate(1770.921875 0)"/>
     <use xlink:href="#DejaVuSans-57" transform="translate(1802.703125 0)"/>
     <use xlink:href="#DejaVuSans-4c" transform="translate(1841.90625 0)"/>
     <use xlink:href="#DejaVuSans-50" transform="translate(1869.6875 0)"/>
     <use xlink:href="#DejaVuSans-48" transform="translate(1967.09375 0)"/>
     <use xlink:href="#DejaVuSans-f" transform="translate(2028.625 0)"/>
     <use xlink:href="#DejaVuSans-3" transform="translate(2060.40625 0)"/>
     <use xlink:href="#DejaVuSans-59" transform="translate(2092.1875 0)"/>
     <use xlink:href="#DejaVuSans-56" transform="translate(2151.375 0)"/>
     <use xlink:href="#DejaVuSans-11" transform="translate(2203.46875 0)"/>
     <use xlink:href="#DejaVuSans-3" transform="translate(2235.25 0)"/>
     <use xlink:href="#DejaVuSans-57" transform="translate(2267.03125 0)"/>
     <use xlink:href="#DejaVuSans-4c" transform="translate(2306.234375 0)"/>
     <use xlink:href="#DejaVuSans-50" transform="translate(2334.015625 0)"/>
     <use xlink:href="#DejaVuSans-48" transform="translate(2431.421875 0)"/>
     <use xlink:href="#DejaVuSans-3" transform="translate(2492.953125 0)"/>
     <use xlink:href="#DejaVuSans-b" transform="translate(2524.734375 0)"/>
     <use xlink:href="#DejaVuSans-56" transform="translate(2563.75 0)"/>
     <use xlink:href="#DejaVuSans-57" transform="translate(2615.84375 0)"/>
     <use xlink:href="#DejaVuSans-44" transform="translate(2655.046875 0)"/>
     <use xlink:href="#DejaVuSans-55" transform="translate(2716.328125 0)"/>
     <use xlink:href="#DejaVuSans-57" transform="translate(2757.4375 0)"/>
     <use xlink:href="#DejaVuSans-56" transform="translate(2796.640625 0)"/>
     <use xlink:href="#DejaVuSans-3" transform="translate(2848.734375 0)"/>
     <use xlink:href="#DejaVuSans-44" transform="translate(2880.515625 0)"/>
     <use xlink:href="#DejaVuSans-57" transform="translate(2941.796875 0)"/>
     <use xlink:href="#DejaVuSans-3" transform="translate(2981 0)"/>
     <use xlink:href="#DejaVuSans-61" transform="translate(3012.78125 0)"/>
     <use xlink:href="#DejaVuSans-14" transform="translate(3096.578125 0)"/>
     <use xlink:href="#DejaVuSans-18" transform="translate(3160.203125 0)"/>
     <use xlink:href="#DejaVuSans-18" transform="translate(3223.828125 0)"/>
     <use xlink:href="#DejaVuSans-19" transform="translate(3287.453125 0)"/>
     <use xlink:href="#DejaVuSans-11" transform="translate(3351.078125 0)"/>
     <use xlink:href="#DejaVuSans-16" transform="translate(3382.859375 0)"/>
     <use xlink:href="#DejaVuSans-19" transform="translate(3446.484375 0)"/>
     <use xlink:href="#DejaVuSans-c" transform="translate(3510.109375 0)"/>
    </g>
   </g>
  </g>
 </g>
 <defs>
  <clipPath id="p2ec5098f11">
   <rect x="65.208594" y="20.038594" width="323.64" height="166.32"/>
  </clipPath>
 </defs>
</svg>
