<?xml version="1.0" encoding="utf-8" standalone="no"?>
<!DOCTYPE svg PUBLIC "-//W3C//DTD SVG 1.1//EN"
  "http://www.w3.org/Graphics/SVG/1.1/DTD/svg11.dtd">
<svg xmlns:xlink="http://www.w3.org/1999/xlink" width="401.41125pt" height="281.180598pt" viewBox="0 0 401.41125 281.180598" xmlns="http://www.w3.org/2000/svg" version="1.1">
 <metadata>
  <rdf:RDF xmlns:dc="http://purl.org/dc/elements/1.1/" xmlns:cc="http://creativecommons.org/ns#" xmlns:rdf="http://www.w3.org/1999/02/22-rdf-syntax-ns#">
   <cc:Work>
    <dc:type rdf:resource="http://purl.org/dc/dcmitype/StillImage"/>
    <dc:date>2026-06-23T19:07:06.887748</dc:date>
    <dc:format>image/svg+xml</dc:format>
    <dc:creator>
     <cc:Agent>
      <dc:title>Matplotlib v3.11.0, https://matplotlib.org/</dc:title>
     </cc:Agent>
    </dc:creator>
   </cc:Work>
  </rdf:RDF>
 </metadata>
 <defs>
  <style type="text/css">*{stroke-linejoin: round; stroke-linecap: butt}</style>
 </defs>
 <g id="figure_1">
  <g id="patch_1">
   <path d="M 0 281.180598 
L 401.41125 281.180598 
L 401.41125 0 
L 0 0 
z
" style="fill: #ffffff"/>
  </g>
  <g id="axes_1">
   <g id="patch_2">
    <path d="M 25.93125 114.404551 
L 394.21125 114.404551 
L 394.21125 20.038594 
L 25.93125 20.038594 
z
" style="fill: #ffffff"/>
   </g>
   <g id="patch_3">
    <path d="M 42.67125 114.404551 
L 70.57125 114.404551 
L 70.57125 20.038594 
L 42.67125 20.038594 
z
" clip-path="url(#p9175bee881)" style="fill: #f0f0f0; stroke: #f0f0f0; stroke-linejoin: miter"/>
   </g>
   <g id="patch_4">
    <path d="M 98.47125 114.404551 
L 126.37125 114.404551 
L 126.37125 20.038594 
L 98.47125 20.038594 
z
" clip-path="url(#p9175bee881)" style="fill: #f0f0f0; stroke: #f0f0f0; stroke-linejoin: miter"/>
   </g>
   <g id="patch_5">
    <path d="M 154.27125 114.404551 
L 182.17125 114.404551 
L 182.17125 20.038594 
L 154.27125 20.038594 
z
" clip-path="url(#p9175bee881)" style="fill: #f0f0f0; stroke: #f0f0f0; stroke-linejoin: miter"/>
   </g>
   <g id="patch_6">
    <path d="M 210.07125 114.404551 
L 237.97125 114.404551 
L 237.97125 20.038594 
L 210.07125 20.038594 
z
" clip-path="url(#p9175bee881)" style="fill: #f0f0f0; stroke: #f0f0f0; stroke-linejoin: miter"/>
   </g>
   <g id="patch_7">
    <path d="M 265.87125 114.404551 
L 293.77125 114.404551 
L 293.77125 20.038594 
L 265.87125 20.038594 
z
" clip-path="url(#p9175bee881)" style="fill: #f0f0f0; stroke: #f0f0f0; stroke-linejoin: miter"/>
   </g>
   <g id="patch_8">
    <path d="M 321.67125 114.404551 
L 349.57125 114.404551 
L 349.57125 20.038594 
L 321.67125 20.038594 
z
" clip-path="url(#p9175bee881)" style="fill: #f0f0f0; stroke: #f0f0f0; stroke-linejoin: miter"/>
   </g>
   <g id="line2d_1">
    <path d="M 42.67125 114.404551 
L 42.67125 20.038594 
" clip-path="url(#p9175bee881)" style="fill: none; stroke: #d1d1d1; stroke-width: 0.7; stroke-linecap: square"/>
   </g>
   <g id="line2d_2">
    <path d="M 70.57125 114.404551 
L 70.57125 20.038594 
" clip-path="url(#p9175bee881)" style="fill: none; stroke: #d1d1d1; stroke-width: 0.7; stroke-linecap: square"/>
   </g>
   <g id="line2d_3">
    <path d="M 98.47125 114.404551 
L 98.47125 20.038594 
" clip-path="url(#p9175bee881)" style="fill: none; stroke: #d1d1d1; stroke-width: 0.7; stroke-linecap: square"/>
   </g>
   <g id="line2d_4">
    <path d="M 126.37125 114.404551 
L 126.37125 20.038594 
" clip-path="url(#p9175bee881)" style="fill: none; stroke: #d1d1d1; stroke-width: 0.7; stroke-linecap: square"/>
   </g>
   <g id="line2d_5">
    <path d="M 154.27125 114.404551 
L 154.27125 20.038594 
" clip-path="url(#p9175bee881)" style="fill: none; stroke: #d1d1d1; stroke-width: 0.7; stroke-linecap: square"/>
   </g>
   <g id="line2d_6">
    <path d="M 182.17125 114.404551 
L 182.17125 20.038594 
" clip-path="url(#p9175bee881)" style="fill: none; stroke: #d1d1d1; stroke-width: 0.7; stroke-linecap: square"/>
   </g>
   <g id="line2d_7">
    <path d="M 210.07125 114.404551 
L 210.07125 20.038594 
" clip-path="url(#p9175bee881)" style="fill: none; stroke: #d1d1d1; stroke-width: 0.7; stroke-linecap: square"/>
   </g>
   <g id="line2d_8">
    <path d="M 237.97125 114.404551 
L 237.97125 20.038594 
" clip-path="url(#p9175bee881)" style="fill: none; stroke: #d1d1d1; stroke-width: 0.7; stroke-linecap: square"/>
   </g>
   <g id="line2d_9">
    <path d="M 265.87125 114.404551 
L 265.87125 20.038594 
" clip-path="url(#p9175bee881)" style="fill: none; stroke: #d1d1d1; stroke-width: 0.7; stroke-linecap: square"/>
   </g>
   <g id="line2d_10">
    <path d="M 293.77125 114.404551 
L 293.77125 20.038594 
" clip-path="url(#p9175bee881)" style="fill: none; stroke: #d1d1d1; stroke-width: 0.7; stroke-linecap: square"/>
   </g>
   <g id="line2d_11">
    <path d="M 321.67125 114.404551 
L 321.67125 20.038594 
" clip-path="url(#p9175bee881)" style="fill: none; stroke: #d1d1d1; stroke-width: 0.7; stroke-linecap: square"/>
   </g>
   <g id="line2d_12">
    <path d="M 349.57125 114.404551 
L 349.57125 20.038594 
" clip-path="url(#p9175bee881)" style="fill: none; stroke: #d1d1d1; stroke-width: 0.7; stroke-linecap: square"/>
   </g>
   <g id="line2d_13">
    <path d="M 377.47125 114.404551 
L 377.47125 20.038594 
" clip-path="url(#p9175bee881)" style="fill: none; stroke: #d1d1d1; stroke-width: 0.7; stroke-linecap: square"/>
   </g>
   <g id="matplotlib.axis_1">
    <g id="xtick_1">
     <g id="line2d_14">
      <defs>
       <path id="m4098f3e435" d="M 0 0 
L 0 3.5 
" style="stroke: #000000; stroke-width: 0.8"/>
      </defs>
      <g>
       <use xlink:href="#m4098f3e435" x="56.62125" y="114.404551" style="stroke: #000000; stroke-width: 0.8"/>
      </g>
     </g>
    </g>
    <g id="xtick_2">
     <g id="line2d_15">
      <g>
       <use xlink:href="#m4098f3e435" x="84.52125" y="114.404551" style="stroke: #000000; stroke-width: 0.8"/>
      </g>
     </g>
    </g>
    <g id="xtick_3">
     <g id="line2d_16">
      <g>
       <use xlink:href="#m4098f3e435" x="112.42125" y="114.404551" style="stroke: #000000; stroke-width: 0.8"/>
      </g>
     </g>
    </g>
    <g id="xtick_4">
     <g id="line2d_17">
      <g>
       <use xlink:href="#m4098f3e435" x="140.32125" y="114.404551" style="stroke: #000000; stroke-width: 0.8"/>
      </g>
     </g>
    </g>
    <g id="xtick_5">
     <g id="line2d_18">
      <g>
       <use xlink:href="#m4098f3e435" x="168.22125" y="114.404551" style="stroke: #000000; stroke-width: 0.8"/>
      </g>
     </g>
    </g>
    <g id="xtick_6">
     <g id="line2d_19">
      <g>
       <use xlink:href="#m4098f3e435" x="196.12125" y="114.404551" style="stroke: #000000; stroke-width: 0.8"/>
      </g>
     </g>
    </g>
    <g id="xtick_7">
     <g id="line2d_20">
      <g>
       <use xlink:href="#m4098f3e435" x="224.02125" y="114.404551" style="stroke: #000000; stroke-width: 0.8"/>
      </g>
     </g>
    </g>
    <g id="xtick_8">
     <g id="line2d_21">
      <g>
       <use xlink:href="#m4098f3e435" x="251.92125" y="114.404551" style="stroke: #000000; stroke-width: 0.8"/>
      </g>
     </g>
    </g>
    <g id="xtick_9">
     <g id="line2d_22">
      <g>
       <use xlink:href="#m4098f3e435" x="279.82125" y="114.404551" style="stroke: #000000; stroke-width: 0.8"/>
      </g>
     </g>
    </g>
    <g id="xtick_10">
     <g id="line2d_23">
      <g>
       <use xlink:href="#m4098f3e435" x="307.72125" y="114.404551" style="stroke: #000000; stroke-width: 0.8"/>
      </g>
     </g>
    </g>
    <g id="xtick_11">
     <g id="line2d_24">
      <g>
       <use xlink:href="#m4098f3e435" x="335.62125" y="114.404551" style="stroke: #000000; stroke-width: 0.8"/>
      </g>
     </g>
    </g>
    <g id="xtick_12">
     <g id="line2d_25">
      <g>
       <use xlink:href="#m4098f3e435" x="363.52125" y="114.404551" style="stroke: #000000; stroke-width: 0.8"/>
      </g>
     </g>
    </g>
   </g>
   <g id="matplotlib.axis_2"/>
   <g id="patch_9">
    <path d="M 25.93125 114.404551 
L 394.21125 114.404551 
" style="fill: none; stroke: #000000; stroke-width: 0.8; stroke-linejoin: miter; stroke-linecap: square"/>
   </g>
   <g id="PathCollection_1">
    <defs>
     <path id="m356a8613b2" d="M 0 2.54951 
C 0.676138 2.54951 1.324674 2.280877 1.802776 1.802776 
C 2.280877 1.324674 2.54951 0.676138 2.54951 0 
C 2.54951 -0.676138 2.280877 -1.324674 1.802776 -1.802776 
C 1.324674 -2.280877 0.676138 -2.54951 0 -2.54951 
C -0.676138 -2.54951 -1.324674 -2.280877 -1.802776 -1.802776 
C -2.280877 -1.324674 -2.54951 -0.676138 -2.54951 0 
C -2.54951 0.676138 -2.280877 1.324674 -1.802776 1.802776 
C -1.324674 2.280877 -0.676138 2.54951 0 2.54951 
z
" style="stroke: #1f77b4"/>
    </defs>
    <g clip-path="url(#p9175bee881)">
     <use xlink:href="#m356a8613b2" x="67.78125" y="49.074273" style="fill: #1f77b4; stroke: #1f77b4"/>
     <use xlink:href="#m356a8613b2" x="112.42125" y="49.074273" style="fill: #1f77b4; stroke: #1f77b4"/>
     <use xlink:href="#m356a8613b2" x="157.06125" y="49.074273" style="fill: #1f77b4; stroke: #1f77b4"/>
     <use xlink:href="#m356a8613b2" x="201.70125" y="49.074273" style="fill: #1f77b4; stroke: #1f77b4"/>
     <use xlink:href="#m356a8613b2" x="246.34125" y="49.074273" style="fill: #1f77b4; stroke: #1f77b4"/>
     <use xlink:href="#m356a8613b2" x="290.98125" y="49.074273" style="fill: #1f77b4; stroke: #1f77b4"/>
     <use xlink:href="#m356a8613b2" x="335.62125" y="49.074273" style="fill: #1f77b4; stroke: #1f77b4"/>
    </g>
   </g>
   <g id="PathCollection_2">
    <defs>
     <path id="mb16d9d465d" d="M 0 2.54951 
C 0.676138 2.54951 1.324674 2.280877 1.802776 1.802776 
C 2.280877 1.324674 2.54951 0.676138 2.54951 0 
C 2.54951 -0.676138 2.280877 -1.324674 1.802776 -1.802776 
C 1.324674 -2.280877 0.676138 -2.54951 0 -2.54951 
C -0.676138 -2.54951 -1.324674 -2.280877 -1.802776 -1.802776 
C -2.280877 -1.324674 -2.54951 -0.676138 -2.54951 0 
C -2.54951 0.676138 -2.280877 1.324674 -1.802776 1.802776 
C -1.324674 2.280877 -0.676138 2.54951 0 2.54951 
z
" style="stroke: #e08a00"/>
    </defs>
    <g clip-path="url(#p9175bee881)">
     <use xlink:href="#mb16d9d465d" x="84.52125" y="85.368872" style="fill: #e08a00; stroke: #e08a00"/>
     <use xlink:href="#mb16d9d465d" x="129.16125" y="85.368872" style="fill: #e08a00; stroke: #e08a00"/>
     <use xlink:href="#mb16d9d465d" x="173.80125" y="85.368872" style="fill: #e08a00; stroke: #e08a00"/>
     <use xlink:href="#mb16d9d465d" x="218.44125" y="85.368872" style="fill: #e08a00; stroke: #e08a00"/>
     <use xlink:href="#mb16d9d465d" x="263.08125" y="85.368872" style="fill: #e08a00; stroke: #e08a00"/>
     <use xlink:href="#mb16d9d465d" x="307.72125" y="85.368872" style="fill: #e08a00; stroke: #e08a00"/>
     <use xlink:href="#mb16d9d465d" x="352.36125" y="85.368872" style="fill: #e08a00; stroke: #e08a00"/>
    </g>
   </g>
   <g id="text_1">
    <!-- scan A -->
    <g style="fill: #1f77b4" transform="translate(7.218281 51.412164) scale(0.09 -0.09)">
     <defs>
      <path id="DejaVuSans-56" d="M 2834 3397 
L 2834 2853 
Q 2591 2978 2328 3040 
Q 2066 3103 1784 3103 
Q 1356 3103 1142 2972 
Q 928 2841 928 2578 
Q 928 2378 1081 2264 
Q 1234 2150 1697 2047 
L 1894 2003 
Q 2506 1872 2764 1633 
Q 3022 1394 3022 966 
Q 3022 478 2636 193 
Q 2250 -91 1575 -91 
Q 1294 -91 989 -36 
Q 684 19 347 128 
L 347 722 
Q 666 556 975 473 
Q 1284 391 1588 391 
Q 1994 391 2212 530 
Q 2431 669 2431 922 
Q 2431 1156 2273 1281 
Q 2116 1406 1581 1522 
L 1381 1569 
Q 847 1681 609 1914 
Q 372 2147 372 2553 
Q 372 3047 722 3315 
Q 1072 3584 1716 3584 
Q 2034 3584 2315 3537 
Q 2597 3491 2834 3397 
z
" transform="scale(0.015625)"/>
      <path id="DejaVuSans-46" d="M 3122 3366 
L 3122 2828 
Q 2878 2963 2633 3030 
Q 2388 3097 2138 3097 
Q 1578 3097 1268 2742 
Q 959 2388 959 1747 
Q 959 1106 1268 751 
Q 1578 397 2138 397 
Q 2388 397 2633 464 
Q 2878 531 3122 666 
L 3122 134 
Q 2881 22 2623 -34 
Q 2366 -91 2075 -91 
Q 1284 -91 818 406 
Q 353 903 353 1747 
Q 353 2603 823 3093 
Q 1294 3584 2113 3584 
Q 2378 3584 2631 3529 
Q 2884 3475 3122 3366 
z
" transform="scale(0.015625)"/>
      <path id="DejaVuSans-44" d="M 2194 1759 
Q 1497 1759 1228 1600 
Q 959 1441 959 1056 
Q 959 750 1161 570 
Q 1363 391 1709 391 
Q 2188 391 2477 730 
Q 2766 1069 2766 1631 
L 2766 1759 
L 2194 1759 
z
M 3341 1997 
L 3341 0 
L 2766 0 
L 2766 531 
Q 2569 213 2275 61 
Q 1981 -91 1556 -91 
Q 1019 -91 701 211 
Q 384 513 384 1019 
Q 384 1609 779 1909 
Q 1175 2209 1959 2209 
L 2766 2209 
L 2766 2266 
Q 2766 2663 2505 2880 
Q 2244 3097 1772 3097 
Q 1472 3097 1187 3025 
Q 903 2953 641 2809 
L 641 3341 
Q 956 3463 1253 3523 
Q 1550 3584 1831 3584 
Q 2591 3584 2966 3190 
Q 3341 2797 3341 1997 
z
" transform="scale(0.015625)"/>
      <path id="DejaVuSans-51" d="M 3513 2113 
L 3513 0 
L 2938 0 
L 2938 2094 
Q 2938 2591 2744 2837 
Q 2550 3084 2163 3084 
Q 1697 3084 1428 2787 
Q 1159 2491 1159 1978 
L 1159 0 
L 581 0 
L 581 3500 
L 1159 3500 
L 1159 2956 
Q 1366 3272 1645 3428 
Q 1925 3584 2291 3584 
Q 2894 3584 3203 3211 
Q 3513 2838 3513 2113 
z
" transform="scale(0.015625)"/>
      <path id="DejaVuSans-3" transform="scale(0.015625)"/>
      <path id="DejaVuSans-24" d="M 2188 4044 
L 1331 1722 
L 3047 1722 
L 2188 4044 
z
M 1831 4666 
L 2547 4666 
L 4325 0 
L 3669 0 
L 3244 1197 
L 1141 1197 
L 716 0 
L 50 0 
L 1831 4666 
z
" transform="scale(0.015625)"/>
     </defs>
     <use xlink:href="#DejaVuSans-56"/>
     <use xlink:href="#DejaVuSans-46" transform="translate(52.09375 0)"/>
     <use xlink:href="#DejaVuSans-44" transform="translate(107.078125 0)"/>
     <use xlink:href="#DejaVuSans-51" transform="translate(168.359375 0)"/>
     <use xlink:href="#DejaVuSans-3" transform="translate(231.734375 0)"/>
     <use xlink:href="#DejaVuSans-24" transform="translate(263.515625 0)"/>
    </g>
   </g>
   <g id="text_2">
    <!-- scan B -->
    <g style="fill: #e08a00" transform="translate(7.2 87.706763) scale(0.09 -0.09)">
     <defs>
      <path id="DejaVuSans-25" d="M 1259 2228 
L 1259 519 
L 2272 519 
Q 2781 519 3026 730 
Q 3272 941 3272 1375 
Q 3272 1813 3026 2020 
Q 2781 2228 2272 2228 
L 1259 2228 
z
M 1259 4147 
L 1259 2741 
L 2194 2741 
Q 2656 2741 2882 2914 
Q 3109 3088 3109 3444 
Q 3109 3797 2882 3972 
Q 2656 4147 2194 4147 
L 1259 4147 
z
M 628 4666 
L 2241 4666 
Q 2963 4666 3353 4366 
Q 3744 4066 3744 3513 
Q 3744 3084 3544 2831 
Q 3344 2578 2956 2516 
Q 3422 2416 3680 2098 
Q 3938 1781 3938 1306 
Q 3938 681 3513 340 
Q 3088 0 2303 0 
L 628 0 
L 628 4666 
z
" transform="scale(0.015625)"/>
     </defs>
     <use xlink:href="#DejaVuSans-56"/>
     <use xlink:href="#DejaVuSans-46" transform="translate(52.09375 0)"/>
     <use xlink:href="#DejaVuSans-44" transform="translate(107.078125 0)"/>
     <use xlink:href="#DejaVuSans-51" transform="translate(168.359375 0)"/>
     <use xlink:href="#DejaVuSans-3" transform="translate(231.734375 0)"/>
     <use xlink:href="#DejaVuSans-25" transform="translate(263.515625 0)"/>
    </g>
   </g>
   <g id="text_3">
    <!-- the two scans sample at slightly different m/z (drift) -->
    <g transform="translate(93.050859 14.038594) scale(0.09 -0.09)">
     <defs>
      <path id="DejaVuSans-57" d="M 1172 4494 
L 1172 3500 
L 2356 3500 
L 2356 3053 
L 1172 3053 
L 1172 1153 
Q 1172 725 1289 603 
Q 1406 481 1766 481 
L 2356 481 
L 2356 0 
L 1766 0 
Q 1100 0 847 248 
Q 594 497 594 1153 
L 594 3053 
L 172 3053 
L 172 3500 
L 594 3500 
L 594 4494 
L 1172 4494 
z
" transform="scale(0.015625)"/>
      <path id="DejaVuSans-4b" d="M 3513 2113 
L 3513 0 
L 2938 0 
L 2938 2094 
Q 2938 2591 2744 2837 
Q 2550 3084 2163 3084 
Q 1697 3084 1428 2787 
Q 1159 2491 1159 1978 
L 1159 0 
L 581 0 
L 581 4863 
L 1159 4863 
L 1159 2956 
Q 1366 3272 1645 3428 
Q 1925 3584 2291 3584 
Q 2894 3584 3203 3211 
Q 3513 2838 3513 2113 
z
" transform="scale(0.015625)"/>
      <path id="DejaVuSans-48" d="M 3597 1894 
L 3597 1613 
L 953 1613 
Q 991 1019 1311 708 
Q 1631 397 2203 397 
Q 2534 397 2845 478 
Q 3156 559 3463 722 
L 3463 178 
Q 3153 47 2828 -22 
Q 2503 -91 2169 -91 
Q 1331 -91 842 396 
Q 353 884 353 1716 
Q 353 2575 817 3079 
Q 1281 3584 2069 3584 
Q 2775 3584 3186 3129 
Q 3597 2675 3597 1894 
z
M 3022 2063 
Q 3016 2534 2758 2815 
Q 2500 3097 2075 3097 
Q 1594 3097 1305 2825 
Q 1016 2553 972 2059 
L 3022 2063 
z
" transform="scale(0.015625)"/>
      <path id="DejaVuSans-5a" d="M 269 3500 
L 844 3500 
L 1563 769 
L 2278 3500 
L 2956 3500 
L 3675 769 
L 4391 3500 
L 4966 3500 
L 4050 0 
L 3372 0 
L 2619 2869 
L 1863 0 
L 1184 0 
L 269 3500 
z
" transform="scale(0.015625)"/>
      <path id="DejaVuSans-52" d="M 1959 3097 
Q 1497 3097 1228 2736 
Q 959 2375 959 1747 
Q 959 1119 1226 758 
Q 1494 397 1959 397 
Q 2419 397 2687 759 
Q 2956 1122 2956 1747 
Q 2956 2369 2687 2733 
Q 2419 3097 1959 3097 
z
M 1959 3584 
Q 2709 3584 3137 3096 
Q 3566 2609 3566 1747 
Q 3566 888 3137 398 
Q 2709 -91 1959 -91 
Q 1206 -91 779 398 
Q 353 888 353 1747 
Q 353 2609 779 3096 
Q 1206 3584 1959 3584 
z
" transform="scale(0.015625)"/>
      <path id="DejaVuSans-50" d="M 3328 2828 
Q 3544 3216 3844 3400 
Q 4144 3584 4550 3584 
Q 5097 3584 5394 3201 
Q 5691 2819 5691 2113 
L 5691 0 
L 5113 0 
L 5113 2094 
Q 5113 2597 4934 2840 
Q 4756 3084 4391 3084 
Q 3944 3084 3684 2787 
Q 3425 2491 3425 1978 
L 3425 0 
L 2847 0 
L 2847 2094 
Q 2847 2600 2669 2842 
Q 2491 3084 2119 3084 
Q 1678 3084 1418 2786 
Q 1159 2488 1159 1978 
L 1159 0 
L 581 0 
L 581 3500 
L 1159 3500 
L 1159 2956 
Q 1356 3278 1631 3431 
Q 1906 3584 2284 3584 
Q 2666 3584 2933 3390 
Q 3200 3197 3328 2828 
z
" transform="scale(0.015625)"/>
      <path id="DejaVuSans-53" d="M 1159 525 
L 1159 -1331 
L 581 -1331 
L 581 3500 
L 1159 3500 
L 1159 2969 
Q 1341 3281 1617 3432 
Q 1894 3584 2278 3584 
Q 2916 3584 3314 3078 
Q 3713 2572 3713 1747 
Q 3713 922 3314 415 
Q 2916 -91 2278 -91 
Q 1894 -91 1617 61 
Q 1341 213 1159 525 
z
M 3116 1747 
Q 3116 2381 2855 2742 
Q 2594 3103 2138 3103 
Q 1681 3103 1420 2742 
Q 1159 2381 1159 1747 
Q 1159 1113 1420 752 
Q 1681 391 2138 391 
Q 2594 391 2855 752 
Q 3116 1113 3116 1747 
z
" transform="scale(0.015625)"/>
      <path id="DejaVuSans-4f" d="M 603 4863 
L 1178 4863 
L 1178 0 
L 603 0 
L 603 4863 
z
" transform="scale(0.015625)"/>
      <path id="DejaVuSans-4c" d="M 603 3500 
L 1178 3500 
L 1178 0 
L 603 0 
L 603 3500 
z
M 603 4863 
L 1178 4863 
L 1178 4134 
L 603 4134 
L 603 4863 
z
" transform="scale(0.015625)"/>
      <path id="DejaVuSans-4a" d="M 2906 1791 
Q 2906 2416 2648 2759 
Q 2391 3103 1925 3103 
Q 1463 3103 1205 2759 
Q 947 2416 947 1791 
Q 947 1169 1205 825 
Q 1463 481 1925 481 
Q 2391 481 2648 825 
Q 2906 1169 2906 1791 
z
M 3481 434 
Q 3481 -459 3084 -895 
Q 2688 -1331 1869 -1331 
Q 1566 -1331 1297 -1286 
Q 1028 -1241 775 -1147 
L 775 -588 
Q 1028 -725 1275 -790 
Q 1522 -856 1778 -856 
Q 2344 -856 2625 -561 
Q 2906 -266 2906 331 
L 2906 616 
Q 2728 306 2450 153 
Q 2172 0 1784 0 
Q 1141 0 747 490 
Q 353 981 353 1791 
Q 353 2603 747 3093 
Q 1141 3584 1784 3584 
Q 2172 3584 2450 3431 
Q 2728 3278 2906 2969 
L 2906 3500 
L 3481 3500 
L 3481 434 
z
" transform="scale(0.015625)"/>
      <path id="DejaVuSans-5c" d="M 2059 -325 
Q 1816 -950 1584 -1140 
Q 1353 -1331 966 -1331 
L 506 -1331 
L 506 -850 
L 844 -850 
Q 1081 -850 1212 -737 
Q 1344 -625 1503 -206 
L 1606 56 
L 191 3500 
L 800 3500 
L 1894 763 
L 2988 3500 
L 3597 3500 
L 2059 -325 
z
" transform="scale(0.015625)"/>
      <path id="DejaVuSans-47" d="M 2906 2969 
L 2906 4863 
L 3481 4863 
L 3481 0 
L 2906 0 
L 2906 525 
Q 2725 213 2448 61 
Q 2172 -91 1784 -91 
Q 1150 -91 751 415 
Q 353 922 353 1747 
Q 353 2572 751 3078 
Q 1150 3584 1784 3584 
Q 2172 3584 2448 3432 
Q 2725 3281 2906 2969 
z
M 947 1747 
Q 947 1113 1208 752 
Q 1469 391 1925 391 
Q 2381 391 2643 752 
Q 2906 1113 2906 1747 
Q 2906 2381 2643 2742 
Q 2381 3103 1925 3103 
Q 1469 3103 1208 2742 
Q 947 2381 947 1747 
z
" transform="scale(0.015625)"/>
      <path id="DejaVuSans-13ae" d="M 4531 4863 
L 4531 4384 
L 3981 4384 
Q 3672 4384 3551 4259 
Q 3431 4134 3431 3809 
L 3431 3500 
L 4378 3500 
L 4378 3053 
L 3431 3053 
L 3431 0 
L 2853 0 
L 2853 3053 
L 1275 3053 
L 1275 0 
L 697 0 
L 697 3053 
L 147 3053 
L 147 3500 
L 697 3500 
L 697 3744 
Q 697 4328 969 4595 
Q 1241 4863 1831 4863 
L 2375 4863 
L 2375 4384 
L 1825 4384 
Q 1516 4384 1394 4259 
Q 1275 4134 1275 3809 
L 1275 3500 
L 2853 3500 
L 2853 3744 
Q 2853 4328 3125 4595 
Q 3397 4863 3988 4863 
L 4531 4863 
z
" transform="scale(0.015625)"/>
      <path id="DejaVuSans-55" d="M 2631 2963 
Q 2534 3019 2420 3045 
Q 2306 3072 2169 3072 
Q 1681 3072 1420 2755 
Q 1159 2438 1159 1844 
L 1159 0 
L 581 0 
L 581 3500 
L 1159 3500 
L 1159 2956 
Q 1341 3275 1631 3429 
Q 1922 3584 2338 3584 
Q 2397 3584 2469 3576 
Q 2541 3569 2628 3553 
L 2631 2963 
z
" transform="scale(0.015625)"/>
      <path id="DejaVuSans-12" d="M 1625 4666 
L 2156 4666 
L 531 -594 
L 0 -594 
L 1625 4666 
z
" transform="scale(0.015625)"/>
      <path id="DejaVuSans-5d" d="M 353 3500 
L 3084 3500 
L 3084 2975 
L 922 459 
L 3084 459 
L 3084 0 
L 275 0 
L 275 525 
L 2438 3041 
L 353 3041 
L 353 3500 
z
" transform="scale(0.015625)"/>
      <path id="DejaVuSans-b" d="M 1984 4856 
Q 1566 4138 1362 3434 
Q 1159 2731 1159 2009 
Q 1159 1288 1364 580 
Q 1569 -128 1984 -844 
L 1484 -844 
Q 1016 -109 783 600 
Q 550 1309 550 2009 
Q 550 2706 781 3412 
Q 1013 4119 1484 4856 
L 1984 4856 
z
" transform="scale(0.015625)"/>
      <path id="DejaVuSans-49" d="M 2375 4863 
L 2375 4384 
L 1825 4384 
Q 1516 4384 1395 4259 
Q 1275 4134 1275 3809 
L 1275 3500 
L 2222 3500 
L 2222 3053 
L 1275 3053 
L 1275 0 
L 697 0 
L 697 3053 
L 147 3053 
L 147 3500 
L 697 3500 
L 697 3744 
Q 697 4328 969 4595 
Q 1241 4863 1831 4863 
L 2375 4863 
z
" transform="scale(0.015625)"/>
      <path id="DejaVuSans-c" d="M 513 4856 
L 1013 4856 
Q 1481 4119 1714 3412 
Q 1947 2706 1947 2009 
Q 1947 1309 1714 600 
Q 1481 -109 1013 -844 
L 513 -844 
Q 928 -128 1133 580 
Q 1338 1288 1338 2009 
Q 1338 2731 1133 3434 
Q 928 4138 513 4856 
z
" transform="scale(0.015625)"/>
     </defs>
     <use xlink:href="#DejaVuSans-57"/>
     <use xlink:href="#DejaVuSans-4b" transform="translate(39.203125 0)"/>
     <use xlink:href="#DejaVuSans-48" transform="translate(102.578125 0)"/>
     <use xlink:href="#DejaVuSans-3" transform="translate(164.109375 0)"/>
     <use xlink:href="#DejaVuSans-57" transform="translate(195.890625 0)"/>
     <use xlink:href="#DejaVuSans-5a" transform="translate(235.09375 0)"/>
     <use xlink:href="#DejaVuSans-52" transform="translate(316.875 0)"/>
     <use xlink:href="#DejaVuSans-3" transform="translate(378.0625 0)"/>
     <use xlink:href="#DejaVuSans-56" transform="translate(409.84375 0)"/>
     <use xlink:href="#DejaVuSans-46" transform="translate(461.9375 0)"/>
     <use xlink:href="#DejaVuSans-44" transform="translate(516.921875 0)"/>
     <use xlink:href="#DejaVuSans-51" transform="translate(578.203125 0)"/>
     <use xlink:href="#DejaVuSans-56" transform="translate(641.578125 0)"/>
     <use xlink:href="#DejaVuSans-3" transform="translate(693.671875 0)"/>
     <use xlink:href="#DejaVuSans-56" transform="translate(725.453125 0)"/>
     <use xlink:href="#DejaVuSans-44" transform="translate(777.546875 0)"/>
     <use xlink:href="#DejaVuSans-50" transform="translate(838.828125 0)"/>
     <use xlink:href="#DejaVuSans-53" transform="translate(936.234375 0)"/>
     <use xlink:href="#DejaVuSans-4f" transform="translate(999.71875 0)"/>
     <use xlink:href="#DejaVuSans-48" transform="translate(1027.5 0)"/>
     <use xlink:href="#DejaVuSans-3" transform="translate(1089.03125 0)"/>
     <use xlink:href="#DejaVuSans-44" transform="translate(1120.8125 0)"/>
     <use xlink:href="#DejaVuSans-57" transform="translate(1182.09375 0)"/>
     <use xlink:href="#DejaVuSans-3" transform="translate(1221.296875 0)"/>
     <use xlink:href="#DejaVuSans-56" transform="translate(1253.078125 0)"/>
     <use xlink:href="#DejaVuSans-4f" transform="translate(1305.171875 0)"/>
     <use xlink:href="#DejaVuSans-4c" transform="translate(1332.953125 0)"/>
     <use xlink:href="#DejaVuSans-4a" transform="translate(1360.734375 0)"/>
     <use xlink:href="#DejaVuSans-4b" transform="translate(1424.21875 0)"/>
     <use xlink:href="#DejaVuSans-57" transform="translate(1487.59375 0)"/>
     <use xlink:href="#DejaVuSans-4f" transform="translate(1526.796875 0)"/>
     <use xlink:href="#DejaVuSans-5c" transform="translate(1554.578125 0)"/>
     <use xlink:href="#DejaVuSans-3" transform="translate(1613.765625 0)"/>
     <use xlink:href="#DejaVuSans-47" transform="translate(1645.546875 0)"/>
     <use xlink:href="#DejaVuSans-4c" transform="translate(1709.03125 0)"/>
     <use xlink:href="#DejaVuSans-13ae" transform="translate(1736.8125 0)"/>
     <use xlink:href="#DejaVuSans-48" transform="translate(1805.703125 0)"/>
     <use xlink:href="#DejaVuSans-55" transform="translate(1867.234375 0)"/>
     <use xlink:href="#DejaVuSans-48" transform="translate(1906.140625 0)"/>
     <use xlink:href="#DejaVuSans-51" transform="translate(1967.671875 0)"/>
     <use xlink:href="#DejaVuSans-57" transform="translate(2031.046875 0)"/>
     <use xlink:href="#DejaVuSans-3" transform="translate(2070.25 0)"/>
     <use xlink:href="#DejaVuSans-50" transform="translate(2102.03125 0)"/>
     <use xlink:href="#DejaVuSans-12" transform="translate(2199.4375 0)"/>
     <use xlink:href="#DejaVuSans-5d" transform="translate(2233.125 0)"/>
     <use xlink:href="#DejaVuSans-3" transform="translate(2285.609375 0)"/>
     <use xlink:href="#DejaVuSans-b" transform="translate(2317.390625 0)"/>
     <use xlink:href="#DejaVuSans-47" transform="translate(2356.40625 0)"/>
     <use xlink:href="#DejaVuSans-55" transform="translate(2419.890625 0)"/>
     <use xlink:href="#DejaVuSans-4c" transform="translate(2461 0)"/>
     <use xlink:href="#DejaVuSans-49" transform="translate(2488.78125 0)"/>
     <use xlink:href="#DejaVuSans-57" transform="translate(2522.234375 0)"/>
     <use xlink:href="#DejaVuSans-c" transform="translate(2561.4375 0)"/>
    </g>
   </g>
  </g>
  <g id="axes_2">
   <g id="patch_10">
    <path d="M 25.93125 230.710594 
L 394.21125 230.710594 
L 394.21125 145.781232 
L 25.93125 145.781232 
z
" style="fill: #ffffff"/>
   </g>
   <g id="patch_11">
    <path d="M 42.67125 230.710594 
L 70.57125 230.710594 
L 70.57125 145.781232 
L 42.67125 145.781232 
z
" clip-path="url(#pfd3616ad40)" style="fill: #f0f0f0; stroke: #f0f0f0; stroke-linejoin: miter"/>
   </g>
   <g id="patch_12">
    <path d="M 98.47125 230.710594 
L 126.37125 230.710594 
L 126.37125 145.781232 
L 98.47125 145.781232 
z
" clip-path="url(#pfd3616ad40)" style="fill: #f0f0f0; stroke: #f0f0f0; stroke-linejoin: miter"/>
   </g>
   <g id="patch_13">
    <path d="M 154.27125 230.710594 
L 182.17125 230.710594 
L 182.17125 145.781232 
L 154.27125 145.781232 
z
" clip-path="url(#pfd3616ad40)" style="fill: #f0f0f0; stroke: #f0f0f0; stroke-linejoin: miter"/>
   </g>
   <g id="patch_14">
    <path d="M 210.07125 230.710594 
L 237.97125 230.710594 
L 237.97125 145.781232 
L 210.07125 145.781232 
z
" clip-path="url(#pfd3616ad40)" style="fill: #f0f0f0; stroke: #f0f0f0; stroke-linejoin: miter"/>
   </g>
   <g id="patch_15">
    <path d="M 265.87125 230.710594 
L 293.77125 230.710594 
L 293.77125 145.781232 
L 265.87125 145.781232 
z
" clip-path="url(#pfd3616ad40)" style="fill: #f0f0f0; stroke: #f0f0f0; stroke-linejoin: miter"/>
   </g>
   <g id="patch_16">
    <path d="M 321.67125 230.710594 
L 349.57125 230.710594 
L 349.57125 145.781232 
L 321.67125 145.781232 
z
" clip-path="url(#pfd3616ad40)" style="fill: #f0f0f0; stroke: #f0f0f0; stroke-linejoin: miter"/>
   </g>
   <g id="line2d_26">
    <path d="M 42.67125 230.710594 
L 42.67125 145.781232 
" clip-path="url(#pfd3616ad40)" style="fill: none; stroke: #d1d1d1; stroke-width: 0.7; stroke-linecap: square"/>
   </g>
   <g id="line2d_27">
    <path d="M 70.57125 230.710594 
L 70.57125 145.781232 
" clip-path="url(#pfd3616ad40)" style="fill: none; stroke: #d1d1d1; stroke-width: 0.7; stroke-linecap: square"/>
   </g>
   <g id="line2d_28">
    <path d="M 98.47125 230.710594 
L 98.47125 145.781232 
" clip-path="url(#pfd3616ad40)" style="fill: none; stroke: #d1d1d1; stroke-width: 0.7; stroke-linecap: square"/>
   </g>
   <g id="line2d_29">
    <path d="M 126.37125 230.710594 
L 126.37125 145.781232 
" clip-path="url(#pfd3616ad40)" style="fill: none; stroke: #d1d1d1; stroke-width: 0.7; stroke-linecap: square"/>
   </g>
   <g id="line2d_30">
    <path d="M 154.27125 230.710594 
L 154.27125 145.781232 
" clip-path="url(#pfd3616ad40)" style="fill: none; stroke: #d1d1d1; stroke-width: 0.7; stroke-linecap: square"/>
   </g>
   <g id="line2d_31">
    <path d="M 182.17125 230.710594 
L 182.17125 145.781232 
" clip-path="url(#pfd3616ad40)" style="fill: none; stroke: #d1d1d1; stroke-width: 0.7; stroke-linecap: square"/>
   </g>
   <g id="line2d_32">
    <path d="M 210.07125 230.710594 
L 210.07125 145.781232 
" clip-path="url(#pfd3616ad40)" style="fill: none; stroke: #d1d1d1; stroke-width: 0.7; stroke-linecap: square"/>
   </g>
   <g id="line2d_33">
    <path d="M 237.97125 230.710594 
L 237.97125 145.781232 
" clip-path="url(#pfd3616ad40)" style="fill: none; stroke: #d1d1d1; stroke-width: 0.7; stroke-linecap: square"/>
   </g>
   <g id="line2d_34">
    <path d="M 265.87125 230.710594 
L 265.87125 145.781232 
" clip-path="url(#pfd3616ad40)" style="fill: none; stroke: #d1d1d1; stroke-width: 0.7; stroke-linecap: square"/>
   </g>
   <g id="line2d_35">
    <path d="M 293.77125 230.710594 
L 293.77125 145.781232 
" clip-path="url(#pfd3616ad40)" style="fill: none; stroke: #d1d1d1; stroke-width: 0.7; stroke-linecap: square"/>
   </g>
   <g id="line2d_36">
    <path d="M 321.67125 230.710594 
L 321.67125 145.781232 
" clip-path="url(#pfd3616ad40)" style="fill: none; stroke: #d1d1d1; stroke-width: 0.7; stroke-linecap: square"/>
   </g>
   <g id="line2d_37">
    <path d="M 349.57125 230.710594 
L 349.57125 145.781232 
" clip-path="url(#pfd3616ad40)" style="fill: none; stroke: #d1d1d1; stroke-width: 0.7; stroke-linecap: square"/>
   </g>
   <g id="line2d_38">
    <path d="M 377.47125 230.710594 
L 377.47125 145.781232 
" clip-path="url(#pfd3616ad40)" style="fill: none; stroke: #d1d1d1; stroke-width: 0.7; stroke-linecap: square"/>
   </g>
   <g id="matplotlib.axis_3">
    <g id="xtick_13">
     <g id="line2d_39">
      <g>
       <use xlink:href="#m4098f3e435" x="56.62125" y="230.710594" style="stroke: #000000; stroke-width: 0.8"/>
      </g>
     </g>
     <g id="text_4">
      <!-- 100.00 -->
      <g transform="translate(49.247286 258.790717) rotate(-45) scale(0.07 -0.07)">
       <defs>
        <path id="DejaVuSans-14" d="M 794 531 
L 1825 531 
L 1825 4091 
L 703 3866 
L 703 4441 
L 1819 4666 
L 2450 4666 
L 2450 531 
L 3481 531 
L 3481 0 
L 794 0 
L 794 531 
z
" transform="scale(0.015625)"/>
        <path id="DejaVuSans-13" d="M 2034 4250 
Q 1547 4250 1301 3770 
Q 1056 3291 1056 2328 
Q 1056 1369 1301 889 
Q 1547 409 2034 409 
Q 2525 409 2770 889 
Q 3016 1369 3016 2328 
Q 3016 3291 2770 3770 
Q 2525 4250 2034 4250 
z
M 2034 4750 
Q 2819 4750 3233 4129 
Q 3647 3509 3647 2328 
Q 3647 1150 3233 529 
Q 2819 -91 2034 -91 
Q 1250 -91 836 529 
Q 422 1150 422 2328 
Q 422 3509 836 4129 
Q 1250 4750 2034 4750 
z
" transform="scale(0.015625)"/>
        <path id="DejaVuSans-11" d="M 684 794 
L 1344 794 
L 1344 0 
L 684 0 
L 684 794 
z
" transform="scale(0.015625)"/>
       </defs>
       <use xlink:href="#DejaVuSans-14"/>
       <use xlink:href="#DejaVuSans-13" transform="translate(63.625 0)"/>
       <use xlink:href="#DejaVuSans-13" transform="translate(127.25 0)"/>
       <use xlink:href="#DejaVuSans-11" transform="translate(190.875 0)"/>
       <use xlink:href="#DejaVuSans-13" transform="translate(222.65625 0)"/>
       <use xlink:href="#DejaVuSans-13" transform="translate(286.28125 0)"/>
      </g>
     </g>
    </g>
    <g id="xtick_14">
     <g id="line2d_40">
      <g>
       <use xlink:href="#m4098f3e435" x="84.52125" y="230.710594" style="stroke: #000000; stroke-width: 0.8"/>
      </g>
     </g>
     <g id="text_5">
      <!-- 100.01 -->
      <g transform="translate(77.147286 258.790717) rotate(-45) scale(0.07 -0.07)">
       <use xlink:href="#DejaVuSans-14"/>
       <use xlink:href="#DejaVuSans-13" transform="translate(63.625 0)"/>
       <use xlink:href="#DejaVuSans-13" transform="translate(127.25 0)"/>
       <use xlink:href="#DejaVuSans-11" transform="translate(190.875 0)"/>
       <use xlink:href="#DejaVuSans-13" transform="translate(222.65625 0)"/>
       <use xlink:href="#DejaVuSans-14" transform="translate(286.28125 0)"/>
      </g>
     </g>
    </g>
    <g id="xtick_15">
     <g id="line2d_41">
      <g>
       <use xlink:href="#m4098f3e435" x="112.42125" y="230.710594" style="stroke: #000000; stroke-width: 0.8"/>
      </g>
     </g>
     <g id="text_6">
      <!-- 100.02 -->
      <g transform="translate(105.047286 258.790717) rotate(-45) scale(0.07 -0.07)">
       <defs>
        <path id="DejaVuSans-15" d="M 1228 531 
L 3431 531 
L 3431 0 
L 469 0 
L 469 531 
Q 828 903 1448 1529 
Q 2069 2156 2228 2338 
Q 2531 2678 2651 2914 
Q 2772 3150 2772 3378 
Q 2772 3750 2511 3984 
Q 2250 4219 1831 4219 
Q 1534 4219 1204 4116 
Q 875 4013 500 3803 
L 500 4441 
Q 881 4594 1212 4672 
Q 1544 4750 1819 4750 
Q 2544 4750 2975 4387 
Q 3406 4025 3406 3419 
Q 3406 3131 3298 2873 
Q 3191 2616 2906 2266 
Q 2828 2175 2409 1742 
Q 1991 1309 1228 531 
z
" transform="scale(0.015625)"/>
       </defs>
       <use xlink:href="#DejaVuSans-14"/>
       <use xlink:href="#DejaVuSans-13" transform="translate(63.625 0)"/>
       <use xlink:href="#DejaVuSans-13" transform="translate(127.25 0)"/>
       <use xlink:href="#DejaVuSans-11" transform="translate(190.875 0)"/>
       <use xlink:href="#DejaVuSans-13" transform="translate(222.65625 0)"/>
       <use xlink:href="#DejaVuSans-15" transform="translate(286.28125 0)"/>
      </g>
     </g>
    </g>
    <g id="xtick_16">
     <g id="line2d_42">
      <g>
       <use xlink:href="#m4098f3e435" x="140.32125" y="230.710594" style="stroke: #000000; stroke-width: 0.8"/>
      </g>
     </g>
     <g id="text_7">
      <!-- 100.03 -->
      <g transform="translate(132.947286 258.790717) rotate(-45) scale(0.07 -0.07)">
       <defs>
        <path id="DejaVuSans-16" d="M 2597 2516 
Q 3050 2419 3304 2112 
Q 3559 1806 3559 1356 
Q 3559 666 3084 287 
Q 2609 -91 1734 -91 
Q 1441 -91 1130 -33 
Q 819 25 488 141 
L 488 750 
Q 750 597 1062 519 
Q 1375 441 1716 441 
Q 2309 441 2620 675 
Q 2931 909 2931 1356 
Q 2931 1769 2642 2001 
Q 2353 2234 1838 2234 
L 1294 2234 
L 1294 2753 
L 1863 2753 
Q 2328 2753 2575 2939 
Q 2822 3125 2822 3475 
Q 2822 3834 2567 4026 
Q 2313 4219 1838 4219 
Q 1578 4219 1281 4162 
Q 984 4106 628 3988 
L 628 4550 
Q 988 4650 1302 4700 
Q 1616 4750 1894 4750 
Q 2613 4750 3031 4423 
Q 3450 4097 3450 3541 
Q 3450 3153 3228 2886 
Q 3006 2619 2597 2516 
z
" transform="scale(0.015625)"/>
       </defs>
       <use xlink:href="#DejaVuSans-14"/>
       <use xlink:href="#DejaVuSans-13" transform="translate(63.625 0)"/>
       <use xlink:href="#DejaVuSans-13" transform="translate(127.25 0)"/>
       <use xlink:href="#DejaVuSans-11" transform="translate(190.875 0)"/>
       <use xlink:href="#DejaVuSans-13" transform="translate(222.65625 0)"/>
       <use xlink:href="#DejaVuSans-16" transform="translate(286.28125 0)"/>
      </g>
     </g>
    </g>
    <g id="xtick_17">
     <g id="line2d_43">
      <g>
       <use xlink:href="#m4098f3e435" x="168.22125" y="230.710594" style="stroke: #000000; stroke-width: 0.8"/>
      </g>
     </g>
     <g id="text_8">
      <!-- 100.04 -->
      <g transform="translate(160.847286 258.790717) rotate(-45) scale(0.07 -0.07)">
       <defs>
        <path id="DejaVuSans-17" d="M 2419 4116 
L 825 1625 
L 2419 1625 
L 2419 4116 
z
M 2253 4666 
L 3047 4666 
L 3047 1625 
L 3713 1625 
L 3713 1100 
L 3047 1100 
L 3047 0 
L 2419 0 
L 2419 1100 
L 313 1100 
L 313 1709 
L 2253 4666 
z
" transform="scale(0.015625)"/>
       </defs>
       <use xlink:href="#DejaVuSans-14"/>
       <use xlink:href="#DejaVuSans-13" transform="translate(63.625 0)"/>
       <use xlink:href="#DejaVuSans-13" transform="translate(127.25 0)"/>
       <use xlink:href="#DejaVuSans-11" transform="translate(190.875 0)"/>
       <use xlink:href="#DejaVuSans-13" transform="translate(222.65625 0)"/>
       <use xlink:href="#DejaVuSans-17" transform="translate(286.28125 0)"/>
      </g>
     </g>
    </g>
    <g id="xtick_18">
     <g id="line2d_44">
      <g>
       <use xlink:href="#m4098f3e435" x="196.12125" y="230.710594" style="stroke: #000000; stroke-width: 0.8"/>
      </g>
     </g>
     <g id="text_9">
      <!-- 100.05 -->
      <g transform="translate(188.747286 258.790717) rotate(-45) scale(0.07 -0.07)">
       <defs>
        <path id="DejaVuSans-18" d="M 691 4666 
L 3169 4666 
L 3169 4134 
L 1269 4134 
L 1269 2991 
Q 1406 3038 1543 3061 
Q 1681 3084 1819 3084 
Q 2600 3084 3056 2656 
Q 3513 2228 3513 1497 
Q 3513 744 3044 326 
Q 2575 -91 1722 -91 
Q 1428 -91 1123 -41 
Q 819 9 494 109 
L 494 744 
Q 775 591 1075 516 
Q 1375 441 1709 441 
Q 2250 441 2565 725 
Q 2881 1009 2881 1497 
Q 2881 1984 2565 2268 
Q 2250 2553 1709 2553 
Q 1456 2553 1204 2497 
Q 953 2441 691 2322 
L 691 4666 
z
" transform="scale(0.015625)"/>
       </defs>
       <use xlink:href="#DejaVuSans-14"/>
       <use xlink:href="#DejaVuSans-13" transform="translate(63.625 0)"/>
       <use xlink:href="#DejaVuSans-13" transform="translate(127.25 0)"/>
       <use xlink:href="#DejaVuSans-11" transform="translate(190.875 0)"/>
       <use xlink:href="#DejaVuSans-13" transform="translate(222.65625 0)"/>
       <use xlink:href="#DejaVuSans-18" transform="translate(286.28125 0)"/>
      </g>
     </g>
    </g>
    <g id="xtick_19">
     <g id="line2d_45">
      <g>
       <use xlink:href="#m4098f3e435" x="224.02125" y="230.710594" style="stroke: #000000; stroke-width: 0.8"/>
      </g>
     </g>
     <g id="text_10">
      <!-- 100.06 -->
      <g transform="translate(216.647286 258.790717) rotate(-45) scale(0.07 -0.07)">
       <defs>
        <path id="DejaVuSans-19" d="M 2113 2584 
Q 1688 2584 1439 2293 
Q 1191 2003 1191 1497 
Q 1191 994 1439 701 
Q 1688 409 2113 409 
Q 2538 409 2786 701 
Q 3034 994 3034 1497 
Q 3034 2003 2786 2293 
Q 2538 2584 2113 2584 
z
M 3366 4563 
L 3366 3988 
Q 3128 4100 2886 4159 
Q 2644 4219 2406 4219 
Q 1781 4219 1451 3797 
Q 1122 3375 1075 2522 
Q 1259 2794 1537 2939 
Q 1816 3084 2150 3084 
Q 2853 3084 3261 2657 
Q 3669 2231 3669 1497 
Q 3669 778 3244 343 
Q 2819 -91 2113 -91 
Q 1303 -91 875 529 
Q 447 1150 447 2328 
Q 447 3434 972 4092 
Q 1497 4750 2381 4750 
Q 2619 4750 2861 4703 
Q 3103 4656 3366 4563 
z
" transform="scale(0.015625)"/>
       </defs>
       <use xlink:href="#DejaVuSans-14"/>
       <use xlink:href="#DejaVuSans-13" transform="translate(63.625 0)"/>
       <use xlink:href="#DejaVuSans-13" transform="translate(127.25 0)"/>
       <use xlink:href="#DejaVuSans-11" transform="translate(190.875 0)"/>
       <use xlink:href="#DejaVuSans-13" transform="translate(222.65625 0)"/>
       <use xlink:href="#DejaVuSans-19" transform="translate(286.28125 0)"/>
      </g>
     </g>
    </g>
    <g id="xtick_20">
     <g id="line2d_46">
      <g>
       <use xlink:href="#m4098f3e435" x="251.92125" y="230.710594" style="stroke: #000000; stroke-width: 0.8"/>
      </g>
     </g>
     <g id="text_11">
      <!-- 100.07 -->
      <g transform="translate(244.547286 258.790717) rotate(-45) scale(0.07 -0.07)">
       <defs>
        <path id="DejaVuSans-1a" d="M 525 4666 
L 3525 4666 
L 3525 4397 
L 1831 0 
L 1172 0 
L 2766 4134 
L 525 4134 
L 525 4666 
z
" transform="scale(0.015625)"/>
       </defs>
       <use xlink:href="#DejaVuSans-14"/>
       <use xlink:href="#DejaVuSans-13" transform="translate(63.625 0)"/>
       <use xlink:href="#DejaVuSans-13" transform="translate(127.25 0)"/>
       <use xlink:href="#DejaVuSans-11" transform="translate(190.875 0)"/>
       <use xlink:href="#DejaVuSans-13" transform="translate(222.65625 0)"/>
       <use xlink:href="#DejaVuSans-1a" transform="translate(286.28125 0)"/>
      </g>
     </g>
    </g>
    <g id="xtick_21">
     <g id="line2d_47">
      <g>
       <use xlink:href="#m4098f3e435" x="279.82125" y="230.710594" style="stroke: #000000; stroke-width: 0.8"/>
      </g>
     </g>
     <g id="text_12">
      <!-- 100.08 -->
      <g transform="translate(272.447286 258.790717) rotate(-45) scale(0.07 -0.07)">
       <defs>
        <path id="DejaVuSans-1b" d="M 2034 2216 
Q 1584 2216 1326 1975 
Q 1069 1734 1069 1313 
Q 1069 891 1326 650 
Q 1584 409 2034 409 
Q 2484 409 2743 651 
Q 3003 894 3003 1313 
Q 3003 1734 2745 1975 
Q 2488 2216 2034 2216 
z
M 1403 2484 
Q 997 2584 770 2862 
Q 544 3141 544 3541 
Q 544 4100 942 4425 
Q 1341 4750 2034 4750 
Q 2731 4750 3128 4425 
Q 3525 4100 3525 3541 
Q 3525 3141 3298 2862 
Q 3072 2584 2669 2484 
Q 3125 2378 3379 2068 
Q 3634 1759 3634 1313 
Q 3634 634 3220 271 
Q 2806 -91 2034 -91 
Q 1263 -91 848 271 
Q 434 634 434 1313 
Q 434 1759 690 2068 
Q 947 2378 1403 2484 
z
M 1172 3481 
Q 1172 3119 1398 2916 
Q 1625 2713 2034 2713 
Q 2441 2713 2670 2916 
Q 2900 3119 2900 3481 
Q 2900 3844 2670 4047 
Q 2441 4250 2034 4250 
Q 1625 4250 1398 4047 
Q 1172 3844 1172 3481 
z
" transform="scale(0.015625)"/>
       </defs>
       <use xlink:href="#DejaVuSans-14"/>
       <use xlink:href="#DejaVuSans-13" transform="translate(63.625 0)"/>
       <use xlink:href="#DejaVuSans-13" transform="translate(127.25 0)"/>
       <use xlink:href="#DejaVuSans-11" transform="translate(190.875 0)"/>
       <use xlink:href="#DejaVuSans-13" transform="translate(222.65625 0)"/>
       <use xlink:href="#DejaVuSans-1b" transform="translate(286.28125 0)"/>
      </g>
     </g>
    </g>
    <g id="xtick_22">
     <g id="line2d_48">
      <g>
       <use xlink:href="#m4098f3e435" x="307.72125" y="230.710594" style="stroke: #000000; stroke-width: 0.8"/>
      </g>
     </g>
     <g id="text_13">
      <!-- 100.09 -->
      <g transform="translate(300.347286 258.790717) rotate(-45) scale(0.07 -0.07)">
       <defs>
        <path id="DejaVuSans-1c" d="M 703 97 
L 703 672 
Q 941 559 1184 500 
Q 1428 441 1663 441 
Q 2288 441 2617 861 
Q 2947 1281 2994 2138 
Q 2813 1869 2534 1725 
Q 2256 1581 1919 1581 
Q 1219 1581 811 2004 
Q 403 2428 403 3163 
Q 403 3881 828 4315 
Q 1253 4750 1959 4750 
Q 2769 4750 3195 4129 
Q 3622 3509 3622 2328 
Q 3622 1225 3098 567 
Q 2575 -91 1691 -91 
Q 1453 -91 1209 -44 
Q 966 3 703 97 
z
M 1959 2075 
Q 2384 2075 2632 2365 
Q 2881 2656 2881 3163 
Q 2881 3666 2632 3958 
Q 2384 4250 1959 4250 
Q 1534 4250 1286 3958 
Q 1038 3666 1038 3163 
Q 1038 2656 1286 2365 
Q 1534 2075 1959 2075 
z
" transform="scale(0.015625)"/>
       </defs>
       <use xlink:href="#DejaVuSans-14"/>
       <use xlink:href="#DejaVuSans-13" transform="translate(63.625 0)"/>
       <use xlink:href="#DejaVuSans-13" transform="translate(127.25 0)"/>
       <use xlink:href="#DejaVuSans-11" transform="translate(190.875 0)"/>
       <use xlink:href="#DejaVuSans-13" transform="translate(222.65625 0)"/>
       <use xlink:href="#DejaVuSans-1c" transform="translate(286.28125 0)"/>
      </g>
     </g>
    </g>
    <g id="xtick_23">
     <g id="line2d_49">
      <g>
       <use xlink:href="#m4098f3e435" x="335.62125" y="230.710594" style="stroke: #000000; stroke-width: 0.8"/>
      </g>
     </g>
     <g id="text_14">
      <!-- 100.10 -->
      <g transform="translate(328.247286 258.790717) rotate(-45) scale(0.07 -0.07)">
       <use xlink:href="#DejaVuSans-14"/>
       <use xlink:href="#DejaVuSans-13" transform="translate(63.625 0)"/>
       <use xlink:href="#DejaVuSans-13" transform="translate(127.25 0)"/>
       <use xlink:href="#DejaVuSans-11" transform="translate(190.875 0)"/>
       <use xlink:href="#DejaVuSans-14" transform="translate(222.65625 0)"/>
       <use xlink:href="#DejaVuSans-13" transform="translate(286.28125 0)"/>
      </g>
     </g>
    </g>
    <g id="xtick_24">
     <g id="line2d_50">
      <g>
       <use xlink:href="#m4098f3e435" x="363.52125" y="230.710594" style="stroke: #000000; stroke-width: 0.8"/>
      </g>
     </g>
     <g id="text_15">
      <!-- 100.11 -->
      <g transform="translate(356.147286 258.790717) rotate(-45) scale(0.07 -0.07)">
       <use xlink:href="#DejaVuSans-14"/>
       <use xlink:href="#DejaVuSans-13" transform="translate(63.625 0)"/>
       <use xlink:href="#DejaVuSans-13" transform="translate(127.25 0)"/>
       <use xlink:href="#DejaVuSans-11" transform="translate(190.875 0)"/>
       <use xlink:href="#DejaVuSans-14" transform="translate(222.65625 0)"/>
       <use xlink:href="#DejaVuSans-14" transform="translate(286.28125 0)"/>
      </g>
     </g>
    </g>
    <g id="text_16">
     <!-- shared m/z grid (bins, 0.01 Da) -->
     <g transform="translate(132.24625 271.578254) scale(0.1 -0.1)">
      <defs>
       <path id="DejaVuSans-45" d="M 3116 1747 
Q 3116 2381 2855 2742 
Q 2594 3103 2138 3103 
Q 1681 3103 1420 2742 
Q 1159 2381 1159 1747 
Q 1159 1113 1420 752 
Q 1681 391 2138 391 
Q 2594 391 2855 752 
Q 3116 1113 3116 1747 
z
M 1159 2969 
Q 1341 3281 1617 3432 
Q 1894 3584 2278 3584 
Q 2916 3584 3314 3078 
Q 3713 2572 3713 1747 
Q 3713 922 3314 415 
Q 2916 -91 2278 -91 
Q 1894 -91 1617 61 
Q 1341 213 1159 525 
L 1159 0 
L 581 0 
L 581 4863 
L 1159 4863 
L 1159 2969 
z
" transform="scale(0.015625)"/>
       <path id="DejaVuSans-f" d="M 750 794 
L 1409 794 
L 1409 256 
L 897 -744 
L 494 -744 
L 750 256 
L 750 794 
z
" transform="scale(0.015625)"/>
       <path id="DejaVuSans-27" d="M 1259 4147 
L 1259 519 
L 2022 519 
Q 2988 519 3436 956 
Q 3884 1394 3884 2338 
Q 3884 3275 3436 3711 
Q 2988 4147 2022 4147 
L 1259 4147 
z
M 628 4666 
L 1925 4666 
Q 3281 4666 3915 4102 
Q 4550 3538 4550 2338 
Q 4550 1131 3912 565 
Q 3275 0 1925 0 
L 628 0 
L 628 4666 
z
" transform="scale(0.015625)"/>
      </defs>
      <use xlink:href="#DejaVuSans-56"/>
      <use xlink:href="#DejaVuSans-4b" transform="translate(52.09375 0)"/>
      <use xlink:href="#DejaVuSans-44" transform="translate(115.46875 0)"/>
      <use xlink:href="#DejaVuSans-55" transform="translate(176.75 0)"/>
      <use xlink:href="#DejaVuSans-48" transform="translate(215.65625 0)"/>
      <use xlink:href="#DejaVuSans-47" transform="translate(277.1875 0)"/>
      <use xlink:href="#DejaVuSans-3" transform="translate(340.671875 0)"/>
      <use xlink:href="#DejaVuSans-50" transform="translate(372.453125 0)"/>
      <use xlink:href="#DejaVuSans-12" transform="translate(469.859375 0)"/>
      <use xlink:href="#DejaVuSans-5d" transform="translate(503.546875 0)"/>
      <use xlink:href="#DejaVuSans-3" transform="translate(556.03125 0)"/>
      <use xlink:href="#DejaVuSans-4a" transform="translate(587.8125 0)"/>
      <use xlink:href="#DejaVuSans-55" transform="translate(651.296875 0)"/>
      <use xlink:href="#DejaVuSans-4c" transform="translate(692.40625 0)"/>
      <use xlink:href="#DejaVuSans-47" transform="translate(720.1875 0)"/>
      <use xlink:href="#DejaVuSans-3" transform="translate(783.671875 0)"/>
      <use xlink:href="#DejaVuSans-b" transform="translate(815.453125 0)"/>
      <use xlink:href="#DejaVuSans-45" transform="translate(854.46875 0)"/>
      <use xlink:href="#DejaVuSans-4c" transform="translate(917.953125 0)"/>
      <use xlink:href="#DejaVuSans-51" transform="translate(945.734375 0)"/>
      <use xlink:href="#DejaVuSans-56" transform="translate(1009.109375 0)"/>
      <use xlink:href="#DejaVuSans-f" transform="translate(1061.203125 0)"/>
      <use xlink:href="#DejaVuSans-3" transform="translate(1092.984375 0)"/>
      <use xlink:href="#DejaVuSans-13" transform="translate(1124.765625 0)"/>
      <use xlink:href="#DejaVuSans-11" transform="translate(1188.390625 0)"/>
      <use xlink:href="#DejaVuSans-13" transform="translate(1220.171875 0)"/>
      <use xlink:href="#DejaVuSans-14" transform="translate(1283.796875 0)"/>
      <use xlink:href="#DejaVuSans-3" transform="translate(1347.421875 0)"/>
      <use xlink:href="#DejaVuSans-27" transform="translate(1379.203125 0)"/>
      <use xlink:href="#DejaVuSans-44" transform="translate(1456.203125 0)"/>
      <use xlink:href="#DejaVuSans-c" transform="translate(1517.484375 0)"/>
     </g>
    </g>
   </g>
   <g id="matplotlib.axis_4"/>
   <g id="patch_17">
    <path d="M 25.93125 230.710594 
L 394.21125 230.710594 
" style="fill: none; stroke: #000000; stroke-width: 0.8; stroke-linejoin: miter; stroke-linecap: square"/>
   </g>
   <g id="PathCollection_3">
    <defs>
     <path id="m9441948d7c" d="M 0 2.738613 
C 0.726289 2.738613 1.422928 2.450055 1.936492 1.936492 
C 2.450055 1.422928 2.738613 0.726289 2.738613 0 
C 2.738613 -0.726289 2.450055 -1.422928 1.936492 -1.936492 
C 1.422928 -2.450055 0.726289 -2.738613 0 -2.738613 
C -0.726289 -2.738613 -1.422928 -2.450055 -1.936492 -1.936492 
C -2.450055 -1.422928 -2.738613 -0.726289 -2.738613 0 
C -2.738613 0.726289 -2.450055 1.422928 -1.936492 1.936492 
C -1.422928 2.450055 -0.726289 2.738613 0 2.738613 
z
" style="stroke: #1f77b4"/>
    </defs>
    <g clip-path="url(#pfd3616ad40)">
     <use xlink:href="#m9441948d7c" x="56.62125" y="171.913343" style="fill: #1f77b4; stroke: #1f77b4"/>
    </g>
   </g>
   <g id="PathCollection_4">
    <defs>
     <path id="m9df771d295" d="M 0 2.915476 
C 0.773193 2.915476 1.514823 2.608283 2.061553 2.061553 
C 2.608283 1.514823 2.915476 0.773193 2.915476 0 
C 2.915476 -0.773193 2.608283 -1.514823 2.061553 -2.061553 
C 1.514823 -2.608283 0.773193 -2.915476 0 -2.915476 
C -0.773193 -2.915476 -1.514823 -2.608283 -2.061553 -2.061553 
C -2.608283 -1.514823 -2.915476 -0.773193 -2.915476 0 
C -2.915476 0.773193 -2.608283 1.514823 -2.061553 2.061553 
C -1.514823 2.608283 -0.773193 2.915476 0 2.915476 
z
" style="stroke: #d62728; stroke-width: 1.4"/>
    </defs>
    <g clip-path="url(#pfd3616ad40)">
     <use xlink:href="#m9df771d295" x="84.52125" y="171.913343" style="fill: #ffffff; stroke: #d62728; stroke-width: 1.4"/>
    </g>
   </g>
   <g id="PathCollection_5">
    <g clip-path="url(#pfd3616ad40)">
     <use xlink:href="#m9441948d7c" x="112.42125" y="171.913343" style="fill: #1f77b4; stroke: #1f77b4"/>
    </g>
   </g>
   <g id="PathCollection_6">
    <g clip-path="url(#pfd3616ad40)">
     <use xlink:href="#m9df771d295" x="140.32125" y="171.913343" style="fill: #ffffff; stroke: #d62728; stroke-width: 1.4"/>
    </g>
   </g>
   <g id="PathCollection_7">
    <g clip-path="url(#pfd3616ad40)">
     <use xlink:href="#m9441948d7c" x="168.22125" y="171.913343" style="fill: #1f77b4; stroke: #1f77b4"/>
    </g>
   </g>
   <g id="PathCollection_8">
    <g clip-path="url(#pfd3616ad40)">
     <use xlink:href="#m9441948d7c" x="196.12125" y="171.913343" style="fill: #1f77b4; stroke: #1f77b4"/>
    </g>
   </g>
   <g id="PathCollection_9">
    <g clip-path="url(#pfd3616ad40)">
     <use xlink:href="#m9df771d295" x="224.02125" y="171.913343" style="fill: #ffffff; stroke: #d62728; stroke-width: 1.4"/>
    </g>
   </g>
   <g id="PathCollection_10">
    <g clip-path="url(#pfd3616ad40)">
     <use xlink:href="#m9441948d7c" x="251.92125" y="171.913343" style="fill: #1f77b4; stroke: #1f77b4"/>
    </g>
   </g>
   <g id="PathCollection_11">
    <g clip-path="url(#pfd3616ad40)">
     <use xlink:href="#m9441948d7c" x="279.82125" y="171.913343" style="fill: #1f77b4; stroke: #1f77b4"/>
    </g>
   </g>
   <g id="PathCollection_12">
    <g clip-path="url(#pfd3616ad40)">
     <use xlink:href="#m9df771d295" x="307.72125" y="171.913343" style="fill: #ffffff; stroke: #d62728; stroke-width: 1.4"/>
    </g>
   </g>
   <g id="PathCollection_13">
    <g clip-path="url(#pfd3616ad40)">
     <use xlink:href="#m9441948d7c" x="335.62125" y="171.913343" style="fill: #1f77b4; stroke: #1f77b4"/>
    </g>
   </g>
   <g id="PathCollection_14">
    <g clip-path="url(#pfd3616ad40)">
     <use xlink:href="#m9df771d295" x="363.52125" y="171.913343" style="fill: #ffffff; stroke: #d62728; stroke-width: 1.4"/>
    </g>
   </g>
   <g id="text_17">
    <!-- scan A -->
    <g style="fill: #1f77b4" transform="translate(7.218281 174.251234) scale(0.09 -0.09)">
     <use xlink:href="#DejaVuSans-56"/>
     <use xlink:href="#DejaVuSans-46" transform="translate(52.09375 0)"/>
     <use xlink:href="#DejaVuSans-44" transform="translate(107.078125 0)"/>
     <use xlink:href="#DejaVuSans-51" transform="translate(168.359375 0)"/>
     <use xlink:href="#DejaVuSans-3" transform="translate(231.734375 0)"/>
     <use xlink:href="#DejaVuSans-24" transform="translate(263.515625 0)"/>
    </g>
   </g>
   <g id="PathCollection_15">
    <g clip-path="url(#pfd3616ad40)">
     <use xlink:href="#m9df771d295" x="56.62125" y="204.578482" style="fill: #ffffff; stroke: #d62728; stroke-width: 1.4"/>
    </g>
   </g>
   <g id="PathCollection_16">
    <defs>
     <path id="m7dbb790faa" d="M 0 2.738613 
C 0.726289 2.738613 1.422928 2.450055 1.936492 1.936492 
C 2.450055 1.422928 2.738613 0.726289 2.738613 0 
C 2.738613 -0.726289 2.450055 -1.422928 1.936492 -1.936492 
C 1.422928 -2.450055 0.726289 -2.738613 0 -2.738613 
C -0.726289 -2.738613 -1.422928 -2.450055 -1.936492 -1.936492 
C -2.450055 -1.422928 -2.738613 -0.726289 -2.738613 0 
C -2.738613 0.726289 -2.450055 1.422928 -1.936492 1.936492 
C -1.422928 2.450055 -0.726289 2.738613 0 2.738613 
z
" style="stroke: #e08a00"/>
    </defs>
    <g clip-path="url(#pfd3616ad40)">
     <use xlink:href="#m7dbb790faa" x="84.52125" y="204.578482" style="fill: #e08a00; stroke: #e08a00"/>
    </g>
   </g>
   <g id="PathCollection_17">
    <g clip-path="url(#pfd3616ad40)">
     <use xlink:href="#m9df771d295" x="112.42125" y="204.578482" style="fill: #ffffff; stroke: #d62728; stroke-width: 1.4"/>
    </g>
   </g>
   <g id="PathCollection_18">
    <g clip-path="url(#pfd3616ad40)">
     <use xlink:href="#m7dbb790faa" x="140.32125" y="204.578482" style="fill: #e08a00; stroke: #e08a00"/>
    </g>
   </g>
   <g id="PathCollection_19">
    <g clip-path="url(#pfd3616ad40)">
     <use xlink:href="#m7dbb790faa" x="168.22125" y="204.578482" style="fill: #e08a00; stroke: #e08a00"/>
    </g>
   </g>
   <g id="PathCollection_20">
    <g clip-path="url(#pfd3616ad40)">
     <use xlink:href="#m9df771d295" x="196.12125" y="204.578482" style="fill: #ffffff; stroke: #d62728; stroke-width: 1.4"/>
    </g>
   </g>
   <g id="PathCollection_21">
    <g clip-path="url(#pfd3616ad40)">
     <use xlink:href="#m7dbb790faa" x="224.02125" y="204.578482" style="fill: #e08a00; stroke: #e08a00"/>
    </g>
   </g>
   <g id="PathCollection_22">
    <g clip-path="url(#pfd3616ad40)">
     <use xlink:href="#m7dbb790faa" x="251.92125" y="204.578482" style="fill: #e08a00; stroke: #e08a00"/>
    </g>
   </g>
   <g id="PathCollection_23">
    <g clip-path="url(#pfd3616ad40)">
     <use xlink:href="#m9df771d295" x="279.82125" y="204.578482" style="fill: #ffffff; stroke: #d62728; stroke-width: 1.4"/>
    </g>
   </g>
   <g id="PathCollection_24">
    <g clip-path="url(#pfd3616ad40)">
     <use xlink:href="#m7dbb790faa" x="307.72125" y="204.578482" style="fill: #e08a00; stroke: #e08a00"/>
    </g>
   </g>
   <g id="PathCollection_25">
    <g clip-path="url(#pfd3616ad40)">
     <use xlink:href="#m9df771d295" x="335.62125" y="204.578482" style="fill: #ffffff; stroke: #d62728; stroke-width: 1.4"/>
    </g>
   </g>
   <g id="PathCollection_26">
    <g clip-path="url(#pfd3616ad40)">
     <use xlink:href="#m7dbb790faa" x="363.52125" y="204.578482" style="fill: #e08a00; stroke: #e08a00"/>
    </g>
   </g>
   <g id="text_18">
    <!-- scan B -->
    <g style="fill: #e08a00" transform="translate(7.2 206.916373) scale(0.09 -0.09)">
     <use xlink:href="#DejaVuSans-56"/>
     <use xlink:href="#DejaVuSans-46" transform="translate(52.09375 0)"/>
     <use xlink:href="#DejaVuSans-44" transform="translate(107.078125 0)"/>
     <use xlink:href="#DejaVuSans-51" transform="translate(168.359375 0)"/>
     <use xlink:href="#DejaVuSans-3" transform="translate(231.734375 0)"/>
     <use xlink:href="#DejaVuSans-25" transform="translate(263.515625 0)"/>
    </g>
   </g>
   <g id="text_19">
    <!-- each scan reads 0 (red) in the bins only the other scan filled -->
    <g transform="translate(74.32875 139.781232) scale(0.09 -0.09)">
     <defs>
      <path id="DejaVuSans-13af" d="M 3431 3500 
L 3431 0 
L 2853 0 
L 2853 3053 
L 1275 3053 
L 1275 0 
L 697 0 
L 697 3053 
L 147 3053 
L 147 3500 
L 697 3500 
L 697 3744 
Q 697 4316 967 4589 
Q 1238 4863 1797 4863 
L 2375 4863 
L 2375 4384 
L 1825 4384 
Q 1516 4384 1395 4259 
Q 1275 4134 1275 3809 
L 1275 3500 
L 3431 3500 
z
M 2853 4856 
L 3431 4856 
L 3431 4128 
L 2853 4128 
L 2853 4856 
z
" transform="scale(0.015625)"/>
     </defs>
     <use xlink:href="#DejaVuSans-48"/>
     <use xlink:href="#DejaVuSans-44" transform="translate(61.53125 0)"/>
     <use xlink:href="#DejaVuSans-46" transform="translate(122.8125 0)"/>
     <use xlink:href="#DejaVuSans-4b" transform="translate(177.796875 0)"/>
     <use xlink:href="#DejaVuSans-3" transform="translate(241.171875 0)"/>
     <use xlink:href="#DejaVuSans-56" transform="translate(272.953125 0)"/>
     <use xlink:href="#DejaVuSans-46" transform="translate(325.046875 0)"/>
     <use xlink:href="#DejaVuSans-44" transform="translate(380.03125 0)"/>
     <use xlink:href="#DejaVuSans-51" transform="translate(441.3125 0)"/>
     <use xlink:href="#DejaVuSans-3" transform="translate(504.6875 0)"/>
     <use xlink:href="#DejaVuSans-55" transform="translate(536.46875 0)"/>
     <use xlink:href="#DejaVuSans-48" transform="translate(575.375 0)"/>
     <use xlink:href="#DejaVuSans-44" transform="translate(636.90625 0)"/>
     <use xlink:href="#DejaVuSans-47" transform="translate(698.1875 0)"/>
     <use xlink:href="#DejaVuSans-56" transform="translate(761.671875 0)"/>
     <use xlink:href="#DejaVuSans-3" transform="translate(813.765625 0)"/>
     <use xlink:href="#DejaVuSans-13" transform="translate(845.546875 0)"/>
     <use xlink:href="#DejaVuSans-3" transform="translate(909.171875 0)"/>
     <use xlink:href="#DejaVuSans-b" transform="translate(940.953125 0)"/>
     <use xlink:href="#DejaVuSans-55" transform="translate(979.96875 0)"/>
     <use xlink:href="#DejaVuSans-48" transform="translate(1018.875 0)"/>
     <use xlink:href="#DejaVuSans-47" transform="translate(1080.40625 0)"/>
     <use xlink:href="#DejaVuSans-c" transform="translate(1143.890625 0)"/>
     <use xlink:href="#DejaVuSans-3" transform="translate(1182.90625 0)"/>
     <use xlink:href="#DejaVuSans-4c" transform="translate(1214.6875 0)"/>
     <use xlink:href="#DejaVuSans-51" transform="translate(1242.46875 0)"/>
     <use xlink:href="#DejaVuSans-3" transform="translate(1305.84375 0)"/>
     <use xlink:href="#DejaVuSans-57" transform="translate(1337.625 0)"/>
     <use xlink:href="#DejaVuSans-4b" transform="translate(1376.828125 0)"/>
     <use xlink:href="#DejaVuSans-48" transform="translate(1440.203125 0)"/>
     <use xlink:href="#DejaVuSans-3" transform="translate(1501.734375 0)"/>
     <use xlink:href="#DejaVuSans-45" transform="translate(1533.515625 0)"/>
     <use xlink:href="#DejaVuSans-4c" transform="translate(1597 0)"/>
     <use xlink:href="#DejaVuSans-51" transform="translate(1624.78125 0)"/>
     <use xlink:href="#DejaVuSans-56" transform="translate(1688.15625 0)"/>
     <use xlink:href="#DejaVuSans-3" transform="translate(1740.25 0)"/>
     <use xlink:href="#DejaVuSans-52" transform="translate(1772.03125 0)"/>
     <use xlink:href="#DejaVuSans-51" transform="translate(1833.21875 0)"/>
     <use xlink:href="#DejaVuSans-4f" transform="translate(1896.59375 0)"/>
     <use xlink:href="#DejaVuSans-5c" transform="translate(1924.375 0)"/>
     <use xlink:href="#DejaVuSans-3" transform="translate(1983.5625 0)"/>
     <use xlink:href="#DejaVuSans-57" transform="translate(2015.34375 0)"/>
     <use xlink:href="#DejaVuSans-4b" transform="translate(2054.546875 0)"/>
     <use xlink:href="#DejaVuSans-48" transform="translate(2117.921875 0)"/>
     <use xlink:href="#DejaVuSans-3" transform="translate(2179.453125 0)"/>
     <use xlink:href="#DejaVuSans-52" transform="translate(2211.234375 0)"/>
     <use xlink:href="#DejaVuSans-57" transform="translate(2272.421875 0)"/>
     <use xlink:href="#DejaVuSans-4b" transform="translate(2311.625 0)"/>
     <use xlink:href="#DejaVuSans-48" transform="translate(2375 0)"/>
     <use xlink:href="#DejaVuSans-55" transform="translate(2436.53125 0)"/>
     <use xlink:href="#DejaVuSans-3" transform="translate(2477.640625 0)"/>
     <use xlink:href="#DejaVuSans-56" transform="translate(2509.421875 0)"/>
     <use xlink:href="#DejaVuSans-46" transform="translate(2561.515625 0)"/>
     <use xlink:href="#DejaVuSans-44" transform="translate(2616.5 0)"/>
     <use xlink:href="#DejaVuSans-51" transform="translate(2677.78125 0)"/>
     <use xlink:href="#DejaVuSans-3" transform="translate(2741.15625 0)"/>
     <use xlink:href="#DejaVuSans-13af" transform="translate(2772.9375 0)"/>
     <use xlink:href="#DejaVuSans-4f" transform="translate(2835.921875 0)"/>
     <use xlink:href="#DejaVuSans-4f" transform="translate(2863.703125 0)"/>
     <use xlink:href="#DejaVuSans-48" transform="translate(2891.484375 0)"/>
     <use xlink:href="#DejaVuSans-47" transform="translate(2953.015625 0)"/>
    </g>
   </g>
   <g id="text_20">
    <!-- 0 -->
    <g style="fill: #d62728" transform="translate(81.97625 173.991468) scale(0.08 -0.08)">
     <use xlink:href="#DejaVuSans-13"/>
    </g>
   </g>
   <g id="text_21">
    <!-- 0 -->
    <g style="fill: #d62728" transform="translate(137.77625 173.991468) scale(0.08 -0.08)">
     <use xlink:href="#DejaVuSans-13"/>
    </g>
   </g>
   <g id="text_22">
    <!-- 0 -->
    <g style="fill: #d62728" transform="translate(221.47625 173.991468) scale(0.08 -0.08)">
     <use xlink:href="#DejaVuSans-13"/>
    </g>
   </g>
   <g id="text_23">
    <!-- 0 -->
    <g style="fill: #d62728" transform="translate(305.17625 173.991468) scale(0.08 -0.08)">
     <use xlink:href="#DejaVuSans-13"/>
    </g>
   </g>
   <g id="text_24">
    <!-- 0 -->
    <g style="fill: #d62728" transform="translate(360.97625 173.991468) scale(0.08 -0.08)">
     <use xlink:href="#DejaVuSans-13"/>
    </g>
   </g>
   <g id="text_25">
    <!-- 0 -->
    <g style="fill: #d62728" transform="translate(54.07625 206.656607) scale(0.08 -0.08)">
     <use xlink:href="#DejaVuSans-13"/>
    </g>
   </g>
   <g id="text_26">
    <!-- 0 -->
    <g style="fill: #d62728" transform="translate(109.87625 206.656607) scale(0.08 -0.08)">
     <use xlink:href="#DejaVuSans-13"/>
    </g>
   </g>
   <g id="text_27">
    <!-- 0 -->
    <g style="fill: #d62728" transform="translate(193.57625 206.656607) scale(0.08 -0.08)">
     <use xlink:href="#DejaVuSans-13"/>
    </g>
   </g>
   <g id="text_28">
    <!-- 0 -->
    <g style="fill: #d62728" transform="translate(277.27625 206.656607) scale(0.08 -0.08)">
     <use xlink:href="#DejaVuSans-13"/>
    </g>
   </g>
   <g id="text_29">
    <!-- 0 -->
    <g style="fill: #d62728" transform="translate(333.07625 206.656607) scale(0.08 -0.08)">
     <use xlink:href="#DejaVuSans-13"/>
    </g>
   </g>
  </g>
 </g>
 <defs>
  <clipPath id="p9175bee881">
   <rect x="25.93125" y="20.038594" width="368.28" height="94.365957"/>
  </clipPath>
  <clipPath id="pfd3616ad40">
   <rect x="25.93125" y="145.781232" width="368.28" height="84.929362"/>
  </clipPath>
 </defs>
</svg>
