<?xml version="1.0" encoding="utf-8" standalone="no"?>
<!DOCTYPE svg PUBLIC "-//W3C//DTD SVG 1.1//EN"
  "http://www.w3.org/Graphics/SVG/1.1/DTD/svg11.dtd">
<svg xmlns:xlink="http://www.w3.org/1999/xlink" width="415.269453pt" height="306.537916pt" viewBox="0 0 415.269453 306.537916" xmlns="http://www.w3.org/2000/svg" version="1.1">
 <metadata>
  <rdf:RDF xmlns:dc="http://purl.org/dc/elements/1.1/" xmlns:cc="http://creativecommons.org/ns#" xmlns:rdf="http://www.w3.org/1999/02/22-rdf-syntax-ns#">
   <cc:Work>
    <dc:type rdf:resource="http://purl.org/dc/dcmitype/StillImage"/>
    <dc:date>2026-06-23T18:47:37.256160</dc:date>
    <dc:format>image/svg+xml</dc:format>
    <dc:creator>
     <cc:Agent>
      <dc:title>Matplotlib v3.11.0, https://matplotlib.org/</dc:title>
     </cc:Agent>
    </dc:creator>
   </cc:Work>
  </rdf:RDF>
 </metadata>
 <defs>
  <style type="text/css">*{stroke-linejoin: round; stroke-linecap: butt}</style>
 </defs>
 <g id="figure_1">
  <g id="patch_1">
   <path d="M 0 306.537916 
L 415.269453 306.537916 
L 415.269453 0 
L 0 0 
z
" style="fill: #ffffff"/>
  </g>
  <g id="axes_1">
   <g id="patch_2">
    <path d="M 47.288281 119.122849 
L 404.408281 119.122849 
L 404.408281 20.038594 
L 47.288281 20.038594 
z
" style="fill: #ffffff"/>
   </g>
   <g id="patch_3">
    <path d="M 63.521009 119.122849 
L 93.035058 119.122849 
L 93.035058 20.038594 
L 63.521009 20.038594 
z
" clip-path="url(#pee030bc31f)" style="fill: #f0f0f0; stroke: #f0f0f0; stroke-linejoin: miter"/>
   </g>
   <g id="patch_4">
    <path d="M 122.549108 119.122849 
L 152.063157 119.122849 
L 152.063157 20.038594 
L 122.549108 20.038594 
z
" clip-path="url(#pee030bc31f)" style="fill: #f0f0f0; stroke: #f0f0f0; stroke-linejoin: miter"/>
   </g>
   <g id="patch_5">
    <path d="M 181.577207 119.122849 
L 211.091256 119.122849 
L 211.091256 20.038594 
L 181.577207 20.038594 
z
" clip-path="url(#pee030bc31f)" style="fill: #f0f0f0; stroke: #f0f0f0; stroke-linejoin: miter"/>
   </g>
   <g id="patch_6">
    <path d="M 240.605306 119.122849 
L 270.119356 119.122849 
L 270.119356 20.038594 
L 240.605306 20.038594 
z
" clip-path="url(#pee030bc31f)" style="fill: #f0f0f0; stroke: #f0f0f0; stroke-linejoin: miter"/>
   </g>
   <g id="patch_7">
    <path d="M 299.633405 119.122849 
L 329.147455 119.122849 
L 329.147455 20.038594 
L 299.633405 20.038594 
z
" clip-path="url(#pee030bc31f)" style="fill: #f0f0f0; stroke: #f0f0f0; stroke-linejoin: miter"/>
   </g>
   <g id="patch_8">
    <path d="M 358.661504 119.122849 
L 388.175554 119.122849 
L 388.175554 20.038594 
L 358.661504 20.038594 
z
" clip-path="url(#pee030bc31f)" style="fill: #f0f0f0; stroke: #f0f0f0; stroke-linejoin: miter"/>
   </g>
   <g id="line2d_1">
    <path d="M 63.521009 119.122849 
L 63.521009 20.038594 
" clip-path="url(#pee030bc31f)" style="fill: none; stroke: #cccccc; stroke-width: 0.7; stroke-linecap: square"/>
   </g>
   <g id="line2d_2">
    <path d="M 93.035058 119.122849 
L 93.035058 20.038594 
" clip-path="url(#pee030bc31f)" style="fill: none; stroke: #cccccc; stroke-width: 0.7; stroke-linecap: square"/>
   </g>
   <g id="line2d_3">
    <path d="M 122.549108 119.122849 
L 122.549108 20.038594 
" clip-path="url(#pee030bc31f)" style="fill: none; stroke: #cccccc; stroke-width: 0.7; stroke-linecap: square"/>
   </g>
   <g id="line2d_4">
    <path d="M 152.063157 119.122849 
L 152.063157 20.038594 
" clip-path="url(#pee030bc31f)" style="fill: none; stroke: #cccccc; stroke-width: 0.7; stroke-linecap: square"/>
   </g>
   <g id="line2d_5">
    <path d="M 181.577207 119.122849 
L 181.577207 20.038594 
" clip-path="url(#pee030bc31f)" style="fill: none; stroke: #cccccc; stroke-width: 0.7; stroke-linecap: square"/>
   </g>
   <g id="line2d_6">
    <path d="M 211.091256 119.122849 
L 211.091256 20.038594 
" clip-path="url(#pee030bc31f)" style="fill: none; stroke: #cccccc; stroke-width: 0.7; stroke-linecap: square"/>
   </g>
   <g id="line2d_7">
    <path d="M 240.605306 119.122849 
L 240.605306 20.038594 
" clip-path="url(#pee030bc31f)" style="fill: none; stroke: #cccccc; stroke-width: 0.7; stroke-linecap: square"/>
   </g>
   <g id="line2d_8">
    <path d="M 270.119356 119.122849 
L 270.119356 20.038594 
" clip-path="url(#pee030bc31f)" style="fill: none; stroke: #cccccc; stroke-width: 0.7; stroke-linecap: square"/>
   </g>
   <g id="line2d_9">
    <path d="M 299.633405 119.122849 
L 299.633405 20.038594 
" clip-path="url(#pee030bc31f)" style="fill: none; stroke: #cccccc; stroke-width: 0.7; stroke-linecap: square"/>
   </g>
   <g id="line2d_10">
    <path d="M 329.147455 119.122849 
L 329.147455 20.038594 
" clip-path="url(#pee030bc31f)" style="fill: none; stroke: #cccccc; stroke-width: 0.7; stroke-linecap: square"/>
   </g>
   <g id="line2d_11">
    <path d="M 358.661504 119.122849 
L 358.661504 20.038594 
" clip-path="url(#pee030bc31f)" style="fill: none; stroke: #cccccc; stroke-width: 0.7; stroke-linecap: square"/>
   </g>
   <g id="line2d_12">
    <path d="M 388.175554 119.122849 
L 388.175554 20.038594 
" clip-path="url(#pee030bc31f)" style="fill: none; stroke: #cccccc; stroke-width: 0.7; stroke-linecap: square"/>
   </g>
   <g id="matplotlib.axis_1">
    <g id="xtick_1">
     <g id="line2d_13">
      <defs>
       <path id="m5b9d6b6d79" d="M 0 0 
L 0 3.5 
" style="stroke: #000000; stroke-width: 0.8"/>
      </defs>
      <g>
       <use xlink:href="#m5b9d6b6d79" x="78.278033" y="119.122849" style="stroke: #000000; stroke-width: 0.8"/>
      </g>
     </g>
    </g>
    <g id="xtick_2">
     <g id="line2d_14">
      <g>
       <use xlink:href="#m5b9d6b6d79" x="107.792083" y="119.122849" style="stroke: #000000; stroke-width: 0.8"/>
      </g>
     </g>
    </g>
    <g id="xtick_3">
     <g id="line2d_15">
      <g>
       <use xlink:href="#m5b9d6b6d79" x="137.306132" y="119.122849" style="stroke: #000000; stroke-width: 0.8"/>
      </g>
     </g>
    </g>
    <g id="xtick_4">
     <g id="line2d_16">
      <g>
       <use xlink:href="#m5b9d6b6d79" x="166.820182" y="119.122849" style="stroke: #000000; stroke-width: 0.8"/>
      </g>
     </g>
    </g>
    <g id="xtick_5">
     <g id="line2d_17">
      <g>
       <use xlink:href="#m5b9d6b6d79" x="196.334232" y="119.122849" style="stroke: #000000; stroke-width: 0.8"/>
      </g>
     </g>
    </g>
    <g id="xtick_6">
     <g id="line2d_18">
      <g>
       <use xlink:href="#m5b9d6b6d79" x="225.848281" y="119.122849" style="stroke: #000000; stroke-width: 0.8"/>
      </g>
     </g>
    </g>
    <g id="xtick_7">
     <g id="line2d_19">
      <g>
       <use xlink:href="#m5b9d6b6d79" x="255.362331" y="119.122849" style="stroke: #000000; stroke-width: 0.8"/>
      </g>
     </g>
    </g>
    <g id="xtick_8">
     <g id="line2d_20">
      <g>
       <use xlink:href="#m5b9d6b6d79" x="284.87638" y="119.122849" style="stroke: #000000; stroke-width: 0.8"/>
      </g>
     </g>
    </g>
    <g id="xtick_9">
     <g id="line2d_21">
      <g>
       <use xlink:href="#m5b9d6b6d79" x="314.39043" y="119.122849" style="stroke: #000000; stroke-width: 0.8"/>
      </g>
     </g>
    </g>
    <g id="xtick_10">
     <g id="line2d_22">
      <g>
       <use xlink:href="#m5b9d6b6d79" x="343.90448" y="119.122849" style="stroke: #000000; stroke-width: 0.8"/>
      </g>
     </g>
    </g>
    <g id="xtick_11">
     <g id="line2d_23">
      <g>
       <use xlink:href="#m5b9d6b6d79" x="373.418529" y="119.122849" style="stroke: #000000; stroke-width: 0.8"/>
      </g>
     </g>
    </g>
   </g>
   <g id="matplotlib.axis_2">
    <g id="ytick_1">
     <g id="line2d_24">
      <defs>
       <path id="m47daab938b" d="M 0 0 
L -3.5 0 
" style="stroke: #000000; stroke-width: 0.8"/>
      </defs>
      <g>
       <use xlink:href="#m47daab938b" x="47.288281" y="119.122849" style="stroke: #000000; stroke-width: 0.8"/>
      </g>
     </g>
     <g id="text_1">
      <!-- 0 -->
      <g transform="translate(33.925781 122.921677) scale(0.1 -0.1)">
       <defs>
        <path id="DejaVuSans-13" d="M 2034 4250 
Q 1547 4250 1301 3770 
Q 1056 3291 1056 2328 
Q 1056 1369 1301 889 
Q 1547 409 2034 409 
Q 2525 409 2770 889 
Q 3016 1369 3016 2328 
Q 3016 3291 2770 3770 
Q 2525 4250 2034 4250 
z
M 2034 4750 
Q 2819 4750 3233 4129 
Q 3647 3509 3647 2328 
Q 3647 1150 3233 529 
Q 2819 -91 2034 -91 
Q 1250 -91 836 529 
Q 422 1150 422 2328 
Q 422 3509 836 4129 
Q 1250 4750 2034 4750 
z
" transform="scale(0.015625)"/>
       </defs>
       <use xlink:href="#DejaVuSans-13"/>
      </g>
     </g>
    </g>
    <g id="ytick_2">
     <g id="line2d_25">
      <g>
       <use xlink:href="#m47daab938b" x="47.288281" y="74.084551" style="stroke: #000000; stroke-width: 0.8"/>
      </g>
     </g>
     <g id="text_2">
      <!-- 50 -->
      <g transform="translate(27.563281 77.883379) scale(0.1 -0.1)">
       <defs>
        <path id="DejaVuSans-18" d="M 691 4666 
L 3169 4666 
L 3169 4134 
L 1269 4134 
L 1269 2991 
Q 1406 3038 1543 3061 
Q 1681 3084 1819 3084 
Q 2600 3084 3056 2656 
Q 3513 2228 3513 1497 
Q 3513 744 3044 326 
Q 2575 -91 1722 -91 
Q 1428 -91 1123 -41 
Q 819 9 494 109 
L 494 744 
Q 775 591 1075 516 
Q 1375 441 1709 441 
Q 2250 441 2565 725 
Q 2881 1009 2881 1497 
Q 2881 1984 2565 2268 
Q 2250 2553 1709 2553 
Q 1456 2553 1204 2497 
Q 953 2441 691 2322 
L 691 4666 
z
" transform="scale(0.015625)"/>
       </defs>
       <use xlink:href="#DejaVuSans-18"/>
       <use xlink:href="#DejaVuSans-13" transform="translate(63.625 0)"/>
      </g>
     </g>
    </g>
    <g id="ytick_3">
     <g id="line2d_26">
      <g>
       <use xlink:href="#m47daab938b" x="47.288281" y="29.046253" style="stroke: #000000; stroke-width: 0.8"/>
      </g>
     </g>
     <g id="text_3">
      <!-- 100 -->
      <g transform="translate(21.200781 32.845081) scale(0.1 -0.1)">
       <defs>
        <path id="DejaVuSans-14" d="M 794 531 
L 1825 531 
L 1825 4091 
L 703 3866 
L 703 4441 
L 1819 4666 
L 2450 4666 
L 2450 531 
L 3481 531 
L 3481 0 
L 794 0 
L 794 531 
z
" transform="scale(0.015625)"/>
       </defs>
       <use xlink:href="#DejaVuSans-14"/>
       <use xlink:href="#DejaVuSans-13" transform="translate(63.625 0)"/>
       <use xlink:href="#DejaVuSans-13" transform="translate(127.25 0)"/>
      </g>
     </g>
    </g>
    <g id="text_4">
     <!-- intensity -->
     <g transform="translate(14.798438 91.257284) rotate(-90) scale(0.1 -0.1)">
      <defs>
       <path id="DejaVuSans-4c" d="M 603 3500 
L 1178 3500 
L 1178 0 
L 603 0 
L 603 3500 
z
M 603 4863 
L 1178 4863 
L 1178 4134 
L 603 4134 
L 603 4863 
z
" transform="scale(0.015625)"/>
       <path id="DejaVuSans-51" d="M 3513 2113 
L 3513 0 
L 2938 0 
L 2938 2094 
Q 2938 2591 2744 2837 
Q 2550 3084 2163 3084 
Q 1697 3084 1428 2787 
Q 1159 2491 1159 1978 
L 1159 0 
L 581 0 
L 581 3500 
L 1159 3500 
L 1159 2956 
Q 1366 3272 1645 3428 
Q 1925 3584 2291 3584 
Q 2894 3584 3203 3211 
Q 3513 2838 3513 2113 
z
" transform="scale(0.015625)"/>
       <path id="DejaVuSans-57" d="M 1172 4494 
L 1172 3500 
L 2356 3500 
L 2356 3053 
L 1172 3053 
L 1172 1153 
Q 1172 725 1289 603 
Q 1406 481 1766 481 
L 2356 481 
L 2356 0 
L 1766 0 
Q 1100 0 847 248 
Q 594 497 594 1153 
L 594 3053 
L 172 3053 
L 172 3500 
L 594 3500 
L 594 4494 
L 1172 4494 
z
" transform="scale(0.015625)"/>
       <path id="DejaVuSans-48" d="M 3597 1894 
L 3597 1613 
L 953 1613 
Q 991 1019 1311 708 
Q 1631 397 2203 397 
Q 2534 397 2845 478 
Q 3156 559 3463 722 
L 3463 178 
Q 3153 47 2828 -22 
Q 2503 -91 2169 -91 
Q 1331 -91 842 396 
Q 353 884 353 1716 
Q 353 2575 817 3079 
Q 1281 3584 2069 3584 
Q 2775 3584 3186 3129 
Q 3597 2675 3597 1894 
z
M 3022 2063 
Q 3016 2534 2758 2815 
Q 2500 3097 2075 3097 
Q 1594 3097 1305 2825 
Q 1016 2553 972 2059 
L 3022 2063 
z
" transform="scale(0.015625)"/>
       <path id="DejaVuSans-56" d="M 2834 3397 
L 2834 2853 
Q 2591 2978 2328 3040 
Q 2066 3103 1784 3103 
Q 1356 3103 1142 2972 
Q 928 2841 928 2578 
Q 928 2378 1081 2264 
Q 1234 2150 1697 2047 
L 1894 2003 
Q 2506 1872 2764 1633 
Q 3022 1394 3022 966 
Q 3022 478 2636 193 
Q 2250 -91 1575 -91 
Q 1294 -91 989 -36 
Q 684 19 347 128 
L 347 722 
Q 666 556 975 473 
Q 1284 391 1588 391 
Q 1994 391 2212 530 
Q 2431 669 2431 922 
Q 2431 1156 2273 1281 
Q 2116 1406 1581 1522 
L 1381 1569 
Q 847 1681 609 1914 
Q 372 2147 372 2553 
Q 372 3047 722 3315 
Q 1072 3584 1716 3584 
Q 2034 3584 2315 3537 
Q 2597 3491 2834 3397 
z
" transform="scale(0.015625)"/>
       <path id="DejaVuSans-5c" d="M 2059 -325 
Q 1816 -950 1584 -1140 
Q 1353 -1331 966 -1331 
L 506 -1331 
L 506 -850 
L 844 -850 
Q 1081 -850 1212 -737 
Q 1344 -625 1503 -206 
L 1606 56 
L 191 3500 
L 800 3500 
L 1894 763 
L 2988 3500 
L 3597 3500 
L 2059 -325 
z
" transform="scale(0.015625)"/>
      </defs>
      <use xlink:href="#DejaVuSans-4c"/>
      <use xlink:href="#DejaVuSans-51" transform="translate(27.78125 0)"/>
      <use xlink:href="#DejaVuSans-57" transform="translate(91.15625 0)"/>
      <use xlink:href="#DejaVuSans-48" transform="translate(130.359375 0)"/>
      <use xlink:href="#DejaVuSans-51" transform="translate(191.890625 0)"/>
      <use xlink:href="#DejaVuSans-56" transform="translate(255.265625 0)"/>
      <use xlink:href="#DejaVuSans-4c" transform="translate(307.359375 0)"/>
      <use xlink:href="#DejaVuSans-57" transform="translate(335.140625 0)"/>
      <use xlink:href="#DejaVuSans-5c" transform="translate(374.34375 0)"/>
     </g>
    </g>
   </g>
   <g id="patch_9">
    <path d="M 47.288281 119.122849 
L 47.288281 20.038594 
" style="fill: none; stroke: #000000; stroke-width: 0.8; stroke-linejoin: miter; stroke-linecap: square"/>
   </g>
   <g id="patch_10">
    <path d="M 47.288281 119.122849 
L 404.408281 119.122849 
" style="fill: none; stroke: #000000; stroke-width: 0.8; stroke-linejoin: miter; stroke-linecap: square"/>
   </g>
   <g id="LineCollection_1">
    <path d="M 90.083653 119.122849 
L 90.083653 51.064732 
" clip-path="url(#pee030bc31f)" style="fill: none; stroke: #1f77b4; stroke-width: 1.6"/>
    <path d="M 137.306132 119.122849 
L 137.306132 40.004933 
" clip-path="url(#pee030bc31f)" style="fill: none; stroke: #1f77b4; stroke-width: 1.6"/>
    <path d="M 184.528612 119.122849 
L 184.528612 31.671435 
" clip-path="url(#pee030bc31f)" style="fill: none; stroke: #1f77b4; stroke-width: 1.6"/>
    <path d="M 231.751091 119.122849 
L 231.751091 29.10127 
" clip-path="url(#pee030bc31f)" style="fill: none; stroke: #1f77b4; stroke-width: 1.6"/>
    <path d="M 278.973571 119.122849 
L 278.973571 33.310286 
" clip-path="url(#pee030bc31f)" style="fill: none; stroke: #1f77b4; stroke-width: 1.6"/>
    <path d="M 326.19605 119.122849 
L 326.19605 42.653363 
" clip-path="url(#pee030bc31f)" style="fill: none; stroke: #1f77b4; stroke-width: 1.6"/>
    <path d="M 373.418529 119.122849 
L 373.418529 53.849431 
" clip-path="url(#pee030bc31f)" style="fill: none; stroke: #1f77b4; stroke-width: 1.6"/>
   </g>
   <g id="patch_11">
    <path d="M 88.086267 112.817487 
Q 84.180693 112.817487 81.393154 112.817487 
" style="fill: none; stroke: #737373; stroke-linecap: round"/>
    <path d="M 85.393154 114.817487 
L 81.393154 112.817487 
L 85.393154 110.817487 
" style="fill: none; stroke: #737373; stroke-linecap: round"/>
   </g>
   <g id="patch_12">
    <path d="M 186.525998 112.817487 
Q 190.431572 112.817487 193.219111 112.817487 
" style="fill: none; stroke: #737373; stroke-linecap: round"/>
    <path d="M 189.219111 110.817487 
L 193.219111 112.817487 
L 189.219111 114.817487 
" style="fill: none; stroke: #737373; stroke-linecap: round"/>
   </g>
   <g id="patch_13">
    <path d="M 229.753705 112.817487 
Q 228.802139 112.817487 228.968608 112.817487 
" style="fill: none; stroke: #737373; stroke-linecap: round"/>
    <path d="M 232.968608 114.817487 
L 228.968608 112.817487 
L 232.968608 110.817487 
" style="fill: none; stroke: #737373; stroke-linecap: round"/>
   </g>
   <g id="patch_14">
    <path d="M 280.970957 112.817487 
Q 281.922522 112.817487 281.756054 112.817487 
" style="fill: none; stroke: #737373; stroke-linecap: round"/>
    <path d="M 277.756054 110.817487 
L 281.756054 112.817487 
L 277.756054 114.817487 
" style="fill: none; stroke: #737373; stroke-linecap: round"/>
   </g>
   <g id="patch_15">
    <path d="M 324.198663 112.817487 
Q 320.29309 112.817487 317.505551 112.817487 
" style="fill: none; stroke: #737373; stroke-linecap: round"/>
    <path d="M 321.505551 114.817487 
L 317.505551 112.817487 
L 321.505551 110.817487 
" style="fill: none; stroke: #737373; stroke-linecap: round"/>
   </g>
   <g id="text_5">
    <!-- measured points (~0.016 Da apart); arrows = rounding to the nearest grid value -->
    <g transform="translate(43.627109 14.038594) scale(0.09 -0.09)">
     <defs>
      <path id="DejaVuSans-50" d="M 3328 2828 
Q 3544 3216 3844 3400 
Q 4144 3584 4550 3584 
Q 5097 3584 5394 3201 
Q 5691 2819 5691 2113 
L 5691 0 
L 5113 0 
L 5113 2094 
Q 5113 2597 4934 2840 
Q 4756 3084 4391 3084 
Q 3944 3084 3684 2787 
Q 3425 2491 3425 1978 
L 3425 0 
L 2847 0 
L 2847 2094 
Q 2847 2600 2669 2842 
Q 2491 3084 2119 3084 
Q 1678 3084 1418 2786 
Q 1159 2488 1159 1978 
L 1159 0 
L 581 0 
L 581 3500 
L 1159 3500 
L 1159 2956 
Q 1356 3278 1631 3431 
Q 1906 3584 2284 3584 
Q 2666 3584 2933 3390 
Q 3200 3197 3328 2828 
z
" transform="scale(0.015625)"/>
      <path id="DejaVuSans-44" d="M 2194 1759 
Q 1497 1759 1228 1600 
Q 959 1441 959 1056 
Q 959 750 1161 570 
Q 1363 391 1709 391 
Q 2188 391 2477 730 
Q 2766 1069 2766 1631 
L 2766 1759 
L 2194 1759 
z
M 3341 1997 
L 3341 0 
L 2766 0 
L 2766 531 
Q 2569 213 2275 61 
Q 1981 -91 1556 -91 
Q 1019 -91 701 211 
Q 384 513 384 1019 
Q 384 1609 779 1909 
Q 1175 2209 1959 2209 
L 2766 2209 
L 2766 2266 
Q 2766 2663 2505 2880 
Q 2244 3097 1772 3097 
Q 1472 3097 1187 3025 
Q 903 2953 641 2809 
L 641 3341 
Q 956 3463 1253 3523 
Q 1550 3584 1831 3584 
Q 2591 3584 2966 3190 
Q 3341 2797 3341 1997 
z
" transform="scale(0.015625)"/>
      <path id="DejaVuSans-58" d="M 544 1381 
L 544 3500 
L 1119 3500 
L 1119 1403 
Q 1119 906 1312 657 
Q 1506 409 1894 409 
Q 2359 409 2629 706 
Q 2900 1003 2900 1516 
L 2900 3500 
L 3475 3500 
L 3475 0 
L 2900 0 
L 2900 538 
Q 2691 219 2414 64 
Q 2138 -91 1772 -91 
Q 1169 -91 856 284 
Q 544 659 544 1381 
z
M 1991 3584 
L 1991 3584 
z
" transform="scale(0.015625)"/>
      <path id="DejaVuSans-55" d="M 2631 2963 
Q 2534 3019 2420 3045 
Q 2306 3072 2169 3072 
Q 1681 3072 1420 2755 
Q 1159 2438 1159 1844 
L 1159 0 
L 581 0 
L 581 3500 
L 1159 3500 
L 1159 2956 
Q 1341 3275 1631 3429 
Q 1922 3584 2338 3584 
Q 2397 3584 2469 3576 
Q 2541 3569 2628 3553 
L 2631 2963 
z
" transform="scale(0.015625)"/>
      <path id="DejaVuSans-47" d="M 2906 2969 
L 2906 4863 
L 3481 4863 
L 3481 0 
L 2906 0 
L 2906 525 
Q 2725 213 2448 61 
Q 2172 -91 1784 -91 
Q 1150 -91 751 415 
Q 353 922 353 1747 
Q 353 2572 751 3078 
Q 1150 3584 1784 3584 
Q 2172 3584 2448 3432 
Q 2725 3281 2906 2969 
z
M 947 1747 
Q 947 1113 1208 752 
Q 1469 391 1925 391 
Q 2381 391 2643 752 
Q 2906 1113 2906 1747 
Q 2906 2381 2643 2742 
Q 2381 3103 1925 3103 
Q 1469 3103 1208 2742 
Q 947 2381 947 1747 
z
" transform="scale(0.015625)"/>
      <path id="DejaVuSans-3" transform="scale(0.015625)"/>
      <path id="DejaVuSans-53" d="M 1159 525 
L 1159 -1331 
L 581 -1331 
L 581 3500 
L 1159 3500 
L 1159 2969 
Q 1341 3281 1617 3432 
Q 1894 3584 2278 3584 
Q 2916 3584 3314 3078 
Q 3713 2572 3713 1747 
Q 3713 922 3314 415 
Q 2916 -91 2278 -91 
Q 1894 -91 1617 61 
Q 1341 213 1159 525 
z
M 3116 1747 
Q 3116 2381 2855 2742 
Q 2594 3103 2138 3103 
Q 1681 3103 1420 2742 
Q 1159 2381 1159 1747 
Q 1159 1113 1420 752 
Q 1681 391 2138 391 
Q 2594 391 2855 752 
Q 3116 1113 3116 1747 
z
" transform="scale(0.015625)"/>
      <path id="DejaVuSans-52" d="M 1959 3097 
Q 1497 3097 1228 2736 
Q 959 2375 959 1747 
Q 959 1119 1226 758 
Q 1494 397 1959 397 
Q 2419 397 2687 759 
Q 2956 1122 2956 1747 
Q 2956 2369 2687 2733 
Q 2419 3097 1959 3097 
z
M 1959 3584 
Q 2709 3584 3137 3096 
Q 3566 2609 3566 1747 
Q 3566 888 3137 398 
Q 2709 -91 1959 -91 
Q 1206 -91 779 398 
Q 353 888 353 1747 
Q 353 2609 779 3096 
Q 1206 3584 1959 3584 
z
" transform="scale(0.015625)"/>
      <path id="DejaVuSans-b" d="M 1984 4856 
Q 1566 4138 1362 3434 
Q 1159 2731 1159 2009 
Q 1159 1288 1364 580 
Q 1569 -128 1984 -844 
L 1484 -844 
Q 1016 -109 783 600 
Q 550 1309 550 2009 
Q 550 2706 781 3412 
Q 1013 4119 1484 4856 
L 1984 4856 
z
" transform="scale(0.015625)"/>
      <path id="DejaVuSans-61" d="M 4684 2553 
L 4684 1997 
Q 4356 1750 4076 1644 
Q 3797 1538 3494 1538 
Q 3150 1538 2694 1722 
Q 2659 1734 2644 1741 
Q 2622 1750 2575 1766 
Q 2091 1959 1797 1959 
Q 1522 1959 1253 1839 
Q 984 1719 678 1459 
L 678 2016 
Q 1006 2263 1286 2370 
Q 1566 2478 1869 2478 
Q 2213 2478 2672 2291 
Q 2703 2278 2719 2272 
Q 2744 2263 2788 2247 
Q 3272 2053 3566 2053 
Q 3834 2053 4098 2172 
Q 4363 2291 4684 2553 
z
" transform="scale(0.015625)"/>
      <path id="DejaVuSans-11" d="M 684 794 
L 1344 794 
L 1344 0 
L 684 0 
L 684 794 
z
" transform="scale(0.015625)"/>
      <path id="DejaVuSans-19" d="M 2113 2584 
Q 1688 2584 1439 2293 
Q 1191 2003 1191 1497 
Q 1191 994 1439 701 
Q 1688 409 2113 409 
Q 2538 409 2786 701 
Q 3034 994 3034 1497 
Q 3034 2003 2786 2293 
Q 2538 2584 2113 2584 
z
M 3366 4563 
L 3366 3988 
Q 3128 4100 2886 4159 
Q 2644 4219 2406 4219 
Q 1781 4219 1451 3797 
Q 1122 3375 1075 2522 
Q 1259 2794 1537 2939 
Q 1816 3084 2150 3084 
Q 2853 3084 3261 2657 
Q 3669 2231 3669 1497 
Q 3669 778 3244 343 
Q 2819 -91 2113 -91 
Q 1303 -91 875 529 
Q 447 1150 447 2328 
Q 447 3434 972 4092 
Q 1497 4750 2381 4750 
Q 2619 4750 2861 4703 
Q 3103 4656 3366 4563 
z
" transform="scale(0.015625)"/>
      <path id="DejaVuSans-27" d="M 1259 4147 
L 1259 519 
L 2022 519 
Q 2988 519 3436 956 
Q 3884 1394 3884 2338 
Q 3884 3275 3436 3711 
Q 2988 4147 2022 4147 
L 1259 4147 
z
M 628 4666 
L 1925 4666 
Q 3281 4666 3915 4102 
Q 4550 3538 4550 2338 
Q 4550 1131 3912 565 
Q 3275 0 1925 0 
L 628 0 
L 628 4666 
z
" transform="scale(0.015625)"/>
      <path id="DejaVuSans-c" d="M 513 4856 
L 1013 4856 
Q 1481 4119 1714 3412 
Q 1947 2706 1947 2009 
Q 1947 1309 1714 600 
Q 1481 -109 1013 -844 
L 513 -844 
Q 928 -128 1133 580 
Q 1338 1288 1338 2009 
Q 1338 2731 1133 3434 
Q 928 4138 513 4856 
z
" transform="scale(0.015625)"/>
      <path id="DejaVuSans-1e" d="M 750 3309 
L 1409 3309 
L 1409 2516 
L 750 2516 
L 750 3309 
z
M 750 794 
L 1409 794 
L 1409 256 
L 897 -744 
L 494 -744 
L 750 256 
L 750 794 
z
" transform="scale(0.015625)"/>
      <path id="DejaVuSans-5a" d="M 269 3500 
L 844 3500 
L 1563 769 
L 2278 3500 
L 2956 3500 
L 3675 769 
L 4391 3500 
L 4966 3500 
L 4050 0 
L 3372 0 
L 2619 2869 
L 1863 0 
L 1184 0 
L 269 3500 
z
" transform="scale(0.015625)"/>
      <path id="DejaVuSans-20" d="M 678 2906 
L 4684 2906 
L 4684 2381 
L 678 2381 
L 678 2906 
z
M 678 1631 
L 4684 1631 
L 4684 1100 
L 678 1100 
L 678 1631 
z
" transform="scale(0.015625)"/>
      <path id="DejaVuSans-4a" d="M 2906 1791 
Q 2906 2416 2648 2759 
Q 2391 3103 1925 3103 
Q 1463 3103 1205 2759 
Q 947 2416 947 1791 
Q 947 1169 1205 825 
Q 1463 481 1925 481 
Q 2391 481 2648 825 
Q 2906 1169 2906 1791 
z
M 3481 434 
Q 3481 -459 3084 -895 
Q 2688 -1331 1869 -1331 
Q 1566 -1331 1297 -1286 
Q 1028 -1241 775 -1147 
L 775 -588 
Q 1028 -725 1275 -790 
Q 1522 -856 1778 -856 
Q 2344 -856 2625 -561 
Q 2906 -266 2906 331 
L 2906 616 
Q 2728 306 2450 153 
Q 2172 0 1784 0 
Q 1141 0 747 490 
Q 353 981 353 1791 
Q 353 2603 747 3093 
Q 1141 3584 1784 3584 
Q 2172 3584 2450 3431 
Q 2728 3278 2906 2969 
L 2906 3500 
L 3481 3500 
L 3481 434 
z
" transform="scale(0.015625)"/>
      <path id="DejaVuSans-4b" d="M 3513 2113 
L 3513 0 
L 2938 0 
L 2938 2094 
Q 2938 2591 2744 2837 
Q 2550 3084 2163 3084 
Q 1697 3084 1428 2787 
Q 1159 2491 1159 1978 
L 1159 0 
L 581 0 
L 581 4863 
L 1159 4863 
L 1159 2956 
Q 1366 3272 1645 3428 
Q 1925 3584 2291 3584 
Q 2894 3584 3203 3211 
Q 3513 2838 3513 2113 
z
" transform="scale(0.015625)"/>
      <path id="DejaVuSans-59" d="M 191 3500 
L 800 3500 
L 1894 563 
L 2988 3500 
L 3597 3500 
L 2284 0 
L 1503 0 
L 191 3500 
z
" transform="scale(0.015625)"/>
      <path id="DejaVuSans-4f" d="M 603 4863 
L 1178 4863 
L 1178 0 
L 603 0 
L 603 4863 
z
" transform="scale(0.015625)"/>
     </defs>
     <use xlink:href="#DejaVuSans-50"/>
     <use xlink:href="#DejaVuSans-48" transform="translate(97.40625 0)"/>
     <use xlink:href="#DejaVuSans-44" transform="translate(158.9375 0)"/>
     <use xlink:href="#DejaVuSans-56" transform="translate(220.21875 0)"/>
     <use xlink:href="#DejaVuSans-58" transform="translate(272.3125 0)"/>
     <use xlink:href="#DejaVuSans-55" transform="translate(335.6875 0)"/>
     <use xlink:href="#DejaVuSans-48" transform="translate(374.59375 0)"/>
     <use xlink:href="#DejaVuSans-47" transform="translate(436.125 0)"/>
     <use xlink:href="#DejaVuSans-3" transform="translate(499.609375 0)"/>
     <use xlink:href="#DejaVuSans-53" transform="translate(531.390625 0)"/>
     <use xlink:href="#DejaVuSans-52" transform="translate(594.875 0)"/>
     <use xlink:href="#DejaVuSans-4c" transform="translate(656.0625 0)"/>
     <use xlink:href="#DejaVuSans-51" transform="translate(683.84375 0)"/>
     <use xlink:href="#DejaVuSans-57" transform="translate(747.21875 0)"/>
     <use xlink:href="#DejaVuSans-56" transform="translate(786.421875 0)"/>
     <use xlink:href="#DejaVuSans-3" transform="translate(838.515625 0)"/>
     <use xlink:href="#DejaVuSans-b" transform="translate(870.296875 0)"/>
     <use xlink:href="#DejaVuSans-61" transform="translate(909.3125 0)"/>
     <use xlink:href="#DejaVuSans-13" transform="translate(993.109375 0)"/>
     <use xlink:href="#DejaVuSans-11" transform="translate(1056.734375 0)"/>
     <use xlink:href="#DejaVuSans-13" transform="translate(1088.515625 0)"/>
     <use xlink:href="#DejaVuSans-14" transform="translate(1152.140625 0)"/>
     <use xlink:href="#DejaVuSans-19" transform="translate(1215.765625 0)"/>
     <use xlink:href="#DejaVuSans-3" transform="translate(1279.390625 0)"/>
     <use xlink:href="#DejaVuSans-27" transform="translate(1311.171875 0)"/>
     <use xlink:href="#DejaVuSans-44" transform="translate(1388.171875 0)"/>
     <use xlink:href="#DejaVuSans-3" transform="translate(1449.453125 0)"/>
     <use xlink:href="#DejaVuSans-44" transform="translate(1481.234375 0)"/>
     <use xlink:href="#DejaVuSans-53" transform="translate(1542.515625 0)"/>
     <use xlink:href="#DejaVuSans-44" transform="translate(1606 0)"/>
     <use xlink:href="#DejaVuSans-55" transform="translate(1667.28125 0)"/>
     <use xlink:href="#DejaVuSans-57" transform="translate(1708.390625 0)"/>
     <use xlink:href="#DejaVuSans-c" transform="translate(1747.59375 0)"/>
     <use xlink:href="#DejaVuSans-1e" transform="translate(1786.609375 0)"/>
     <use xlink:href="#DejaVuSans-3" transform="translate(1820.296875 0)"/>
     <use xlink:href="#DejaVuSans-44" transform="translate(1852.078125 0)"/>
     <use xlink:href="#DejaVuSans-55" transform="translate(1913.359375 0)"/>
     <use xlink:href="#DejaVuSans-55" transform="translate(1952.71875 0)"/>
     <use xlink:href="#DejaVuSans-52" transform="translate(1991.625 0)"/>
     <use xlink:href="#DejaVuSans-5a" transform="translate(2052.8125 0)"/>
     <use xlink:href="#DejaVuSans-56" transform="translate(2134.59375 0)"/>
     <use xlink:href="#DejaVuSans-3" transform="translate(2186.6875 0)"/>
     <use xlink:href="#DejaVuSans-20" transform="translate(2218.46875 0)"/>
     <use xlink:href="#DejaVuSans-3" transform="translate(2302.265625 0)"/>
     <use xlink:href="#DejaVuSans-55" transform="translate(2334.046875 0)"/>
     <use xlink:href="#DejaVuSans-52" transform="translate(2372.953125 0)"/>
     <use xlink:href="#DejaVuSans-58" transform="translate(2434.140625 0)"/>
     <use xlink:href="#DejaVuSans-51" transform="translate(2497.515625 0)"/>
     <use xlink:href="#DejaVuSans-47" transform="translate(2560.890625 0)"/>
     <use xlink:href="#DejaVuSans-4c" transform="translate(2624.375 0)"/>
     <use xlink:href="#DejaVuSans-51" transform="translate(2652.15625 0)"/>
     <use xlink:href="#DejaVuSans-4a" transform="translate(2715.53125 0)"/>
     <use xlink:href="#DejaVuSans-3" transform="translate(2779.015625 0)"/>
     <use xlink:href="#DejaVuSans-57" transform="translate(2810.796875 0)"/>
     <use xlink:href="#DejaVuSans-52" transform="translate(2850 0)"/>
     <use xlink:href="#DejaVuSans-3" transform="translate(2911.1875 0)"/>
     <use xlink:href="#DejaVuSans-57" transform="translate(2942.96875 0)"/>
     <use xlink:href="#DejaVuSans-4b" transform="translate(2982.171875 0)"/>
     <use xlink:href="#DejaVuSans-48" transform="translate(3045.546875 0)"/>
     <use xlink:href="#DejaVuSans-3" transform="translate(3107.078125 0)"/>
     <use xlink:href="#DejaVuSans-51" transform="translate(3138.859375 0)"/>
     <use xlink:href="#DejaVuSans-48" transform="translate(3202.234375 0)"/>
     <use xlink:href="#DejaVuSans-44" transform="translate(3263.765625 0)"/>
     <use xlink:href="#DejaVuSans-55" transform="translate(3325.046875 0)"/>
     <use xlink:href="#DejaVuSans-48" transform="translate(3363.953125 0)"/>
     <use xlink:href="#DejaVuSans-56" transform="translate(3425.484375 0)"/>
     <use xlink:href="#DejaVuSans-57" transform="translate(3477.578125 0)"/>
     <use xlink:href="#DejaVuSans-3" transform="translate(3516.78125 0)"/>
     <use xlink:href="#DejaVuSans-4a" transform="translate(3548.5625 0)"/>
     <use xlink:href="#DejaVuSans-55" transform="translate(3612.046875 0)"/>
     <use xlink:href="#DejaVuSans-4c" transform="translate(3653.15625 0)"/>
     <use xlink:href="#DejaVuSans-47" transform="translate(3680.9375 0)"/>
     <use xlink:href="#DejaVuSans-3" transform="translate(3744.421875 0)"/>
     <use xlink:href="#DejaVuSans-59" transform="translate(3776.203125 0)"/>
     <use xlink:href="#DejaVuSans-44" transform="translate(3835.390625 0)"/>
     <use xlink:href="#DejaVuSans-4f" transform="translate(3896.671875 0)"/>
     <use xlink:href="#DejaVuSans-58" transform="translate(3924.453125 0)"/>
     <use xlink:href="#DejaVuSans-48" transform="translate(3987.828125 0)"/>
    </g>
   </g>
   <g id="PathCollection_1">
    <defs>
     <path id="m1de841d3cd" d="M 0 2.645751 
C 0.701661 2.645751 1.374679 2.366978 1.870829 1.870829 
C 2.366978 1.374679 2.645751 0.701661 2.645751 0 
C 2.645751 -0.701661 2.366978 -1.374679 1.870829 -1.870829 
C 1.374679 -2.366978 0.701661 -2.645751 0 -2.645751 
C -0.701661 -2.645751 -1.374679 -2.366978 -1.870829 -1.870829 
C -2.366978 -1.374679 -2.645751 -0.701661 -2.645751 0 
C -2.645751 0.701661 -2.366978 1.374679 -1.870829 1.870829 
C -1.374679 2.366978 -0.701661 2.645751 0 2.645751 
z
" style="stroke: #1f77b4"/>
    </defs>
    <g clip-path="url(#pee030bc31f)">
     <use xlink:href="#m1de841d3cd" x="90.083653" y="51.064732" style="fill: #1f77b4; stroke: #1f77b4"/>
     <use xlink:href="#m1de841d3cd" x="137.306132" y="40.004933" style="fill: #1f77b4; stroke: #1f77b4"/>
     <use xlink:href="#m1de841d3cd" x="184.528612" y="31.671435" style="fill: #1f77b4; stroke: #1f77b4"/>
     <use xlink:href="#m1de841d3cd" x="231.751091" y="29.10127" style="fill: #1f77b4; stroke: #1f77b4"/>
     <use xlink:href="#m1de841d3cd" x="278.973571" y="33.310286" style="fill: #1f77b4; stroke: #1f77b4"/>
     <use xlink:href="#m1de841d3cd" x="326.19605" y="42.653363" style="fill: #1f77b4; stroke: #1f77b4"/>
     <use xlink:href="#m1de841d3cd" x="373.418529" y="53.849431" style="fill: #1f77b4; stroke: #1f77b4"/>
    </g>
   </g>
  </g>
  <g id="axes_2">
   <g id="patch_16">
    <path d="M 47.288281 252.886594 
L 404.408281 252.886594 
L 404.408281 153.802338 
L 47.288281 153.802338 
z
" style="fill: #ffffff"/>
   </g>
   <g id="patch_17">
    <path d="M 63.521009 252.886594 
L 93.035058 252.886594 
L 93.035058 153.802338 
L 63.521009 153.802338 
z
" clip-path="url(#p6a7c55b2ff)" style="fill: #f0f0f0; stroke: #f0f0f0; stroke-linejoin: miter"/>
   </g>
   <g id="patch_18">
    <path d="M 122.549108 252.886594 
L 152.063157 252.886594 
L 152.063157 153.802338 
L 122.549108 153.802338 
z
" clip-path="url(#p6a7c55b2ff)" style="fill: #f0f0f0; stroke: #f0f0f0; stroke-linejoin: miter"/>
   </g>
   <g id="patch_19">
    <path d="M 181.577207 252.886594 
L 211.091256 252.886594 
L 211.091256 153.802338 
L 181.577207 153.802338 
z
" clip-path="url(#p6a7c55b2ff)" style="fill: #f0f0f0; stroke: #f0f0f0; stroke-linejoin: miter"/>
   </g>
   <g id="patch_20">
    <path d="M 240.605306 252.886594 
L 270.119356 252.886594 
L 270.119356 153.802338 
L 240.605306 153.802338 
z
" clip-path="url(#p6a7c55b2ff)" style="fill: #f0f0f0; stroke: #f0f0f0; stroke-linejoin: miter"/>
   </g>
   <g id="patch_21">
    <path d="M 299.633405 252.886594 
L 329.147455 252.886594 
L 329.147455 153.802338 
L 299.633405 153.802338 
z
" clip-path="url(#p6a7c55b2ff)" style="fill: #f0f0f0; stroke: #f0f0f0; stroke-linejoin: miter"/>
   </g>
   <g id="patch_22">
    <path d="M 358.661504 252.886594 
L 388.175554 252.886594 
L 388.175554 153.802338 
L 358.661504 153.802338 
z
" clip-path="url(#p6a7c55b2ff)" style="fill: #f0f0f0; stroke: #f0f0f0; stroke-linejoin: miter"/>
   </g>
   <g id="line2d_27">
    <path d="M 63.521009 252.886594 
L 63.521009 153.802338 
" clip-path="url(#p6a7c55b2ff)" style="fill: none; stroke: #cccccc; stroke-width: 0.7; stroke-linecap: square"/>
   </g>
   <g id="line2d_28">
    <path d="M 93.035058 252.886594 
L 93.035058 153.802338 
" clip-path="url(#p6a7c55b2ff)" style="fill: none; stroke: #cccccc; stroke-width: 0.7; stroke-linecap: square"/>
   </g>
   <g id="line2d_29">
    <path d="M 122.549108 252.886594 
L 122.549108 153.802338 
" clip-path="url(#p6a7c55b2ff)" style="fill: none; stroke: #cccccc; stroke-width: 0.7; stroke-linecap: square"/>
   </g>
   <g id="line2d_30">
    <path d="M 152.063157 252.886594 
L 152.063157 153.802338 
" clip-path="url(#p6a7c55b2ff)" style="fill: none; stroke: #cccccc; stroke-width: 0.7; stroke-linecap: square"/>
   </g>
   <g id="line2d_31">
    <path d="M 181.577207 252.886594 
L 181.577207 153.802338 
" clip-path="url(#p6a7c55b2ff)" style="fill: none; stroke: #cccccc; stroke-width: 0.7; stroke-linecap: square"/>
   </g>
   <g id="line2d_32">
    <path d="M 211.091256 252.886594 
L 211.091256 153.802338 
" clip-path="url(#p6a7c55b2ff)" style="fill: none; stroke: #cccccc; stroke-width: 0.7; stroke-linecap: square"/>
   </g>
   <g id="line2d_33">
    <path d="M 240.605306 252.886594 
L 240.605306 153.802338 
" clip-path="url(#p6a7c55b2ff)" style="fill: none; stroke: #cccccc; stroke-width: 0.7; stroke-linecap: square"/>
   </g>
   <g id="line2d_34">
    <path d="M 270.119356 252.886594 
L 270.119356 153.802338 
" clip-path="url(#p6a7c55b2ff)" style="fill: none; stroke: #cccccc; stroke-width: 0.7; stroke-linecap: square"/>
   </g>
   <g id="line2d_35">
    <path d="M 299.633405 252.886594 
L 299.633405 153.802338 
" clip-path="url(#p6a7c55b2ff)" style="fill: none; stroke: #cccccc; stroke-width: 0.7; stroke-linecap: square"/>
   </g>
   <g id="line2d_36">
    <path d="M 329.147455 252.886594 
L 329.147455 153.802338 
" clip-path="url(#p6a7c55b2ff)" style="fill: none; stroke: #cccccc; stroke-width: 0.7; stroke-linecap: square"/>
   </g>
   <g id="line2d_37">
    <path d="M 358.661504 252.886594 
L 358.661504 153.802338 
" clip-path="url(#p6a7c55b2ff)" style="fill: none; stroke: #cccccc; stroke-width: 0.7; stroke-linecap: square"/>
   </g>
   <g id="line2d_38">
    <path d="M 388.175554 252.886594 
L 388.175554 153.802338 
" clip-path="url(#p6a7c55b2ff)" style="fill: none; stroke: #cccccc; stroke-width: 0.7; stroke-linecap: square"/>
   </g>
   <g id="matplotlib.axis_3">
    <g id="xtick_12">
     <g id="line2d_39">
      <g>
       <use xlink:href="#m5b9d6b6d79" x="78.278033" y="252.886594" style="stroke: #000000; stroke-width: 0.8"/>
      </g>
     </g>
     <g id="text_6">
      <!-- 800.00 -->
      <g transform="translate(69.850646 283.978164) rotate(-45) scale(0.08 -0.08)">
       <defs>
        <path id="DejaVuSans-1b" d="M 2034 2216 
Q 1584 2216 1326 1975 
Q 1069 1734 1069 1313 
Q 1069 891 1326 650 
Q 1584 409 2034 409 
Q 2484 409 2743 651 
Q 3003 894 3003 1313 
Q 3003 1734 2745 1975 
Q 2488 2216 2034 2216 
z
M 1403 2484 
Q 997 2584 770 2862 
Q 544 3141 544 3541 
Q 544 4100 942 4425 
Q 1341 4750 2034 4750 
Q 2731 4750 3128 4425 
Q 3525 4100 3525 3541 
Q 3525 3141 3298 2862 
Q 3072 2584 2669 2484 
Q 3125 2378 3379 2068 
Q 3634 1759 3634 1313 
Q 3634 634 3220 271 
Q 2806 -91 2034 -91 
Q 1263 -91 848 271 
Q 434 634 434 1313 
Q 434 1759 690 2068 
Q 947 2378 1403 2484 
z
M 1172 3481 
Q 1172 3119 1398 2916 
Q 1625 2713 2034 2713 
Q 2441 2713 2670 2916 
Q 2900 3119 2900 3481 
Q 2900 3844 2670 4047 
Q 2441 4250 2034 4250 
Q 1625 4250 1398 4047 
Q 1172 3844 1172 3481 
z
" transform="scale(0.015625)"/>
       </defs>
       <use xlink:href="#DejaVuSans-1b"/>
       <use xlink:href="#DejaVuSans-13" transform="translate(63.625 0)"/>
       <use xlink:href="#DejaVuSans-13" transform="translate(127.25 0)"/>
       <use xlink:href="#DejaVuSans-11" transform="translate(190.875 0)"/>
       <use xlink:href="#DejaVuSans-13" transform="translate(222.65625 0)"/>
       <use xlink:href="#DejaVuSans-13" transform="translate(286.28125 0)"/>
      </g>
     </g>
    </g>
    <g id="xtick_13">
     <g id="line2d_40">
      <g>
       <use xlink:href="#m5b9d6b6d79" x="107.792083" y="252.886594" style="stroke: #000000; stroke-width: 0.8"/>
      </g>
     </g>
     <g id="text_7">
      <!-- 800.01 -->
      <g transform="translate(99.364696 283.978164) rotate(-45) scale(0.08 -0.08)">
       <use xlink:href="#DejaVuSans-1b"/>
       <use xlink:href="#DejaVuSans-13" transform="translate(63.625 0)"/>
       <use xlink:href="#DejaVuSans-13" transform="translate(127.25 0)"/>
       <use xlink:href="#DejaVuSans-11" transform="translate(190.875 0)"/>
       <use xlink:href="#DejaVuSans-13" transform="translate(222.65625 0)"/>
       <use xlink:href="#DejaVuSans-14" transform="translate(286.28125 0)"/>
      </g>
     </g>
    </g>
    <g id="xtick_14">
     <g id="line2d_41">
      <g>
       <use xlink:href="#m5b9d6b6d79" x="137.306132" y="252.886594" style="stroke: #000000; stroke-width: 0.8"/>
      </g>
     </g>
     <g id="text_8">
      <!-- 800.02 -->
      <g transform="translate(128.878745 283.978164) rotate(-45) scale(0.08 -0.08)">
       <defs>
        <path id="DejaVuSans-15" d="M 1228 531 
L 3431 531 
L 3431 0 
L 469 0 
L 469 531 
Q 828 903 1448 1529 
Q 2069 2156 2228 2338 
Q 2531 2678 2651 2914 
Q 2772 3150 2772 3378 
Q 2772 3750 2511 3984 
Q 2250 4219 1831 4219 
Q 1534 4219 1204 4116 
Q 875 4013 500 3803 
L 500 4441 
Q 881 4594 1212 4672 
Q 1544 4750 1819 4750 
Q 2544 4750 2975 4387 
Q 3406 4025 3406 3419 
Q 3406 3131 3298 2873 
Q 3191 2616 2906 2266 
Q 2828 2175 2409 1742 
Q 1991 1309 1228 531 
z
" transform="scale(0.015625)"/>
       </defs>
       <use xlink:href="#DejaVuSans-1b"/>
       <use xlink:href="#DejaVuSans-13" transform="translate(63.625 0)"/>
       <use xlink:href="#DejaVuSans-13" transform="translate(127.25 0)"/>
       <use xlink:href="#DejaVuSans-11" transform="translate(190.875 0)"/>
       <use xlink:href="#DejaVuSans-13" transform="translate(222.65625 0)"/>
       <use xlink:href="#DejaVuSans-15" transform="translate(286.28125 0)"/>
      </g>
     </g>
    </g>
    <g id="xtick_15">
     <g id="line2d_42">
      <g>
       <use xlink:href="#m5b9d6b6d79" x="166.820182" y="252.886594" style="stroke: #000000; stroke-width: 0.8"/>
      </g>
     </g>
     <g id="text_9">
      <!-- 800.03 -->
      <g transform="translate(158.392795 283.978164) rotate(-45) scale(0.08 -0.08)">
       <defs>
        <path id="DejaVuSans-16" d="M 2597 2516 
Q 3050 2419 3304 2112 
Q 3559 1806 3559 1356 
Q 3559 666 3084 287 
Q 2609 -91 1734 -91 
Q 1441 -91 1130 -33 
Q 819 25 488 141 
L 488 750 
Q 750 597 1062 519 
Q 1375 441 1716 441 
Q 2309 441 2620 675 
Q 2931 909 2931 1356 
Q 2931 1769 2642 2001 
Q 2353 2234 1838 2234 
L 1294 2234 
L 1294 2753 
L 1863 2753 
Q 2328 2753 2575 2939 
Q 2822 3125 2822 3475 
Q 2822 3834 2567 4026 
Q 2313 4219 1838 4219 
Q 1578 4219 1281 4162 
Q 984 4106 628 3988 
L 628 4550 
Q 988 4650 1302 4700 
Q 1616 4750 1894 4750 
Q 2613 4750 3031 4423 
Q 3450 4097 3450 3541 
Q 3450 3153 3228 2886 
Q 3006 2619 2597 2516 
z
" transform="scale(0.015625)"/>
       </defs>
       <use xlink:href="#DejaVuSans-1b"/>
       <use xlink:href="#DejaVuSans-13" transform="translate(63.625 0)"/>
       <use xlink:href="#DejaVuSans-13" transform="translate(127.25 0)"/>
       <use xlink:href="#DejaVuSans-11" transform="translate(190.875 0)"/>
       <use xlink:href="#DejaVuSans-13" transform="translate(222.65625 0)"/>
       <use xlink:href="#DejaVuSans-16" transform="translate(286.28125 0)"/>
      </g>
     </g>
    </g>
    <g id="xtick_16">
     <g id="line2d_43">
      <g>
       <use xlink:href="#m5b9d6b6d79" x="196.334232" y="252.886594" style="stroke: #000000; stroke-width: 0.8"/>
      </g>
     </g>
     <g id="text_10">
      <!-- 800.04 -->
      <g transform="translate(187.906845 283.978164) rotate(-45) scale(0.08 -0.08)">
       <defs>
        <path id="DejaVuSans-17" d="M 2419 4116 
L 825 1625 
L 2419 1625 
L 2419 4116 
z
M 2253 4666 
L 3047 4666 
L 3047 1625 
L 3713 1625 
L 3713 1100 
L 3047 1100 
L 3047 0 
L 2419 0 
L 2419 1100 
L 313 1100 
L 313 1709 
L 2253 4666 
z
" transform="scale(0.015625)"/>
       </defs>
       <use xlink:href="#DejaVuSans-1b"/>
       <use xlink:href="#DejaVuSans-13" transform="translate(63.625 0)"/>
       <use xlink:href="#DejaVuSans-13" transform="translate(127.25 0)"/>
       <use xlink:href="#DejaVuSans-11" transform="translate(190.875 0)"/>
       <use xlink:href="#DejaVuSans-13" transform="translate(222.65625 0)"/>
       <use xlink:href="#DejaVuSans-17" transform="translate(286.28125 0)"/>
      </g>
     </g>
    </g>
    <g id="xtick_17">
     <g id="line2d_44">
      <g>
       <use xlink:href="#m5b9d6b6d79" x="225.848281" y="252.886594" style="stroke: #000000; stroke-width: 0.8"/>
      </g>
     </g>
     <g id="text_11">
      <!-- 800.05 -->
      <g transform="translate(217.420894 283.978164) rotate(-45) scale(0.08 -0.08)">
       <use xlink:href="#DejaVuSans-1b"/>
       <use xlink:href="#DejaVuSans-13" transform="translate(63.625 0)"/>
       <use xlink:href="#DejaVuSans-13" transform="translate(127.25 0)"/>
       <use xlink:href="#DejaVuSans-11" transform="translate(190.875 0)"/>
       <use xlink:href="#DejaVuSans-13" transform="translate(222.65625 0)"/>
       <use xlink:href="#DejaVuSans-18" transform="translate(286.28125 0)"/>
      </g>
     </g>
    </g>
    <g id="xtick_18">
     <g id="line2d_45">
      <g>
       <use xlink:href="#m5b9d6b6d79" x="255.362331" y="252.886594" style="stroke: #000000; stroke-width: 0.8"/>
      </g>
     </g>
     <g id="text_12">
      <!-- 800.06 -->
      <g transform="translate(246.934944 283.978164) rotate(-45) scale(0.08 -0.08)">
       <use xlink:href="#DejaVuSans-1b"/>
       <use xlink:href="#DejaVuSans-13" transform="translate(63.625 0)"/>
       <use xlink:href="#DejaVuSans-13" transform="translate(127.25 0)"/>
       <use xlink:href="#DejaVuSans-11" transform="translate(190.875 0)"/>
       <use xlink:href="#DejaVuSans-13" transform="translate(222.65625 0)"/>
       <use xlink:href="#DejaVuSans-19" transform="translate(286.28125 0)"/>
      </g>
     </g>
    </g>
    <g id="xtick_19">
     <g id="line2d_46">
      <g>
       <use xlink:href="#m5b9d6b6d79" x="284.87638" y="252.886594" style="stroke: #000000; stroke-width: 0.8"/>
      </g>
     </g>
     <g id="text_13">
      <!-- 800.07 -->
      <g transform="translate(276.448993 283.978164) rotate(-45) scale(0.08 -0.08)">
       <defs>
        <path id="DejaVuSans-1a" d="M 525 4666 
L 3525 4666 
L 3525 4397 
L 1831 0 
L 1172 0 
L 2766 4134 
L 525 4134 
L 525 4666 
z
" transform="scale(0.015625)"/>
       </defs>
       <use xlink:href="#DejaVuSans-1b"/>
       <use xlink:href="#DejaVuSans-13" transform="translate(63.625 0)"/>
       <use xlink:href="#DejaVuSans-13" transform="translate(127.25 0)"/>
       <use xlink:href="#DejaVuSans-11" transform="translate(190.875 0)"/>
       <use xlink:href="#DejaVuSans-13" transform="translate(222.65625 0)"/>
       <use xlink:href="#DejaVuSans-1a" transform="translate(286.28125 0)"/>
      </g>
     </g>
    </g>
    <g id="xtick_20">
     <g id="line2d_47">
      <g>
       <use xlink:href="#m5b9d6b6d79" x="314.39043" y="252.886594" style="stroke: #000000; stroke-width: 0.8"/>
      </g>
     </g>
     <g id="text_14">
      <!-- 800.08 -->
      <g transform="translate(305.963043 283.978164) rotate(-45) scale(0.08 -0.08)">
       <use xlink:href="#DejaVuSans-1b"/>
       <use xlink:href="#DejaVuSans-13" transform="translate(63.625 0)"/>
       <use xlink:href="#DejaVuSans-13" transform="translate(127.25 0)"/>
       <use xlink:href="#DejaVuSans-11" transform="translate(190.875 0)"/>
       <use xlink:href="#DejaVuSans-13" transform="translate(222.65625 0)"/>
       <use xlink:href="#DejaVuSans-1b" transform="translate(286.28125 0)"/>
      </g>
     </g>
    </g>
    <g id="xtick_21">
     <g id="line2d_48">
      <g>
       <use xlink:href="#m5b9d6b6d79" x="343.90448" y="252.886594" style="stroke: #000000; stroke-width: 0.8"/>
      </g>
     </g>
     <g id="text_15">
      <!-- 800.09 -->
      <g transform="translate(335.477093 283.978164) rotate(-45) scale(0.08 -0.08)">
       <defs>
        <path id="DejaVuSans-1c" d="M 703 97 
L 703 672 
Q 941 559 1184 500 
Q 1428 441 1663 441 
Q 2288 441 2617 861 
Q 2947 1281 2994 2138 
Q 2813 1869 2534 1725 
Q 2256 1581 1919 1581 
Q 1219 1581 811 2004 
Q 403 2428 403 3163 
Q 403 3881 828 4315 
Q 1253 4750 1959 4750 
Q 2769 4750 3195 4129 
Q 3622 3509 3622 2328 
Q 3622 1225 3098 567 
Q 2575 -91 1691 -91 
Q 1453 -91 1209 -44 
Q 966 3 703 97 
z
M 1959 2075 
Q 2384 2075 2632 2365 
Q 2881 2656 2881 3163 
Q 2881 3666 2632 3958 
Q 2384 4250 1959 4250 
Q 1534 4250 1286 3958 
Q 1038 3666 1038 3163 
Q 1038 2656 1286 2365 
Q 1534 2075 1959 2075 
z
" transform="scale(0.015625)"/>
       </defs>
       <use xlink:href="#DejaVuSans-1b"/>
       <use xlink:href="#DejaVuSans-13" transform="translate(63.625 0)"/>
       <use xlink:href="#DejaVuSans-13" transform="translate(127.25 0)"/>
       <use xlink:href="#DejaVuSans-11" transform="translate(190.875 0)"/>
       <use xlink:href="#DejaVuSans-13" transform="translate(222.65625 0)"/>
       <use xlink:href="#DejaVuSans-1c" transform="translate(286.28125 0)"/>
      </g>
     </g>
    </g>
    <g id="xtick_22">
     <g id="line2d_49">
      <g>
       <use xlink:href="#m5b9d6b6d79" x="373.418529" y="252.886594" style="stroke: #000000; stroke-width: 0.8"/>
      </g>
     </g>
     <g id="text_16">
      <!-- 800.10 -->
      <g transform="translate(364.991142 283.978164) rotate(-45) scale(0.08 -0.08)">
       <use xlink:href="#DejaVuSans-1b"/>
       <use xlink:href="#DejaVuSans-13" transform="translate(63.625 0)"/>
       <use xlink:href="#DejaVuSans-13" transform="translate(127.25 0)"/>
       <use xlink:href="#DejaVuSans-11" transform="translate(190.875 0)"/>
       <use xlink:href="#DejaVuSans-14" transform="translate(222.65625 0)"/>
       <use xlink:href="#DejaVuSans-13" transform="translate(286.28125 0)"/>
      </g>
     </g>
    </g>
    <g id="text_17">
     <!-- m/z (Da), labelled at bin centres -->
     <g transform="translate(145.249063 296.935572) scale(0.1 -0.1)">
      <defs>
       <path id="DejaVuSans-12" d="M 1625 4666 
L 2156 4666 
L 531 -594 
L 0 -594 
L 1625 4666 
z
" transform="scale(0.015625)"/>
       <path id="DejaVuSans-5d" d="M 353 3500 
L 3084 3500 
L 3084 2975 
L 922 459 
L 3084 459 
L 3084 0 
L 275 0 
L 275 525 
L 2438 3041 
L 353 3041 
L 353 3500 
z
" transform="scale(0.015625)"/>
       <path id="DejaVuSans-f" d="M 750 794 
L 1409 794 
L 1409 256 
L 897 -744 
L 494 -744 
L 750 256 
L 750 794 
z
" transform="scale(0.015625)"/>
       <path id="DejaVuSans-45" d="M 3116 1747 
Q 3116 2381 2855 2742 
Q 2594 3103 2138 3103 
Q 1681 3103 1420 2742 
Q 1159 2381 1159 1747 
Q 1159 1113 1420 752 
Q 1681 391 2138 391 
Q 2594 391 2855 752 
Q 3116 1113 3116 1747 
z
M 1159 2969 
Q 1341 3281 1617 3432 
Q 1894 3584 2278 3584 
Q 2916 3584 3314 3078 
Q 3713 2572 3713 1747 
Q 3713 922 3314 415 
Q 2916 -91 2278 -91 
Q 1894 -91 1617 61 
Q 1341 213 1159 525 
L 1159 0 
L 581 0 
L 581 4863 
L 1159 4863 
L 1159 2969 
z
" transform="scale(0.015625)"/>
       <path id="DejaVuSans-46" d="M 3122 3366 
L 3122 2828 
Q 2878 2963 2633 3030 
Q 2388 3097 2138 3097 
Q 1578 3097 1268 2742 
Q 959 2388 959 1747 
Q 959 1106 1268 751 
Q 1578 397 2138 397 
Q 2388 397 2633 464 
Q 2878 531 3122 666 
L 3122 134 
Q 2881 22 2623 -34 
Q 2366 -91 2075 -91 
Q 1284 -91 818 406 
Q 353 903 353 1747 
Q 353 2603 823 3093 
Q 1294 3584 2113 3584 
Q 2378 3584 2631 3529 
Q 2884 3475 3122 3366 
z
" transform="scale(0.015625)"/>
      </defs>
      <use xlink:href="#DejaVuSans-50"/>
      <use xlink:href="#DejaVuSans-12" transform="translate(97.40625 0)"/>
      <use xlink:href="#DejaVuSans-5d" transform="translate(131.09375 0)"/>
      <use xlink:href="#DejaVuSans-3" transform="translate(183.578125 0)"/>
      <use xlink:href="#DejaVuSans-b" transform="translate(215.359375 0)"/>
      <use xlink:href="#DejaVuSans-27" transform="translate(254.375 0)"/>
      <use xlink:href="#DejaVuSans-44" transform="translate(331.375 0)"/>
      <use xlink:href="#DejaVuSans-c" transform="translate(392.65625 0)"/>
      <use xlink:href="#DejaVuSans-f" transform="translate(431.671875 0)"/>
      <use xlink:href="#DejaVuSans-3" transform="translate(463.453125 0)"/>
      <use xlink:href="#DejaVuSans-4f" transform="translate(495.234375 0)"/>
      <use xlink:href="#DejaVuSans-44" transform="translate(523.015625 0)"/>
      <use xlink:href="#DejaVuSans-45" transform="translate(584.296875 0)"/>
      <use xlink:href="#DejaVuSans-48" transform="translate(647.78125 0)"/>
      <use xlink:href="#DejaVuSans-4f" transform="translate(709.3125 0)"/>
      <use xlink:href="#DejaVuSans-4f" transform="translate(737.09375 0)"/>
      <use xlink:href="#DejaVuSans-48" transform="translate(764.875 0)"/>
      <use xlink:href="#DejaVuSans-47" transform="translate(826.40625 0)"/>
      <use xlink:href="#DejaVuSans-3" transform="translate(889.890625 0)"/>
      <use xlink:href="#DejaVuSans-44" transform="translate(921.671875 0)"/>
      <use xlink:href="#DejaVuSans-57" transform="translate(982.953125 0)"/>
      <use xlink:href="#DejaVuSans-3" transform="translate(1022.15625 0)"/>
      <use xlink:href="#DejaVuSans-45" transform="translate(1053.9375 0)"/>
      <use xlink:href="#DejaVuSans-4c" transform="translate(1117.421875 0)"/>
      <use xlink:href="#DejaVuSans-51" transform="translate(1145.203125 0)"/>
      <use xlink:href="#DejaVuSans-3" transform="translate(1208.578125 0)"/>
      <use xlink:href="#DejaVuSans-46" transform="translate(1240.359375 0)"/>
      <use xlink:href="#DejaVuSans-48" transform="translate(1295.34375 0)"/>
      <use xlink:href="#DejaVuSans-51" transform="translate(1356.875 0)"/>
      <use xlink:href="#DejaVuSans-57" transform="translate(1420.25 0)"/>
      <use xlink:href="#DejaVuSans-55" transform="translate(1459.453125 0)"/>
      <use xlink:href="#DejaVuSans-48" transform="translate(1498.359375 0)"/>
      <use xlink:href="#DejaVuSans-56" transform="translate(1559.890625 0)"/>
     </g>
    </g>
   </g>
   <g id="matplotlib.axis_4">
    <g id="ytick_4">
     <g id="line2d_50">
      <g>
       <use xlink:href="#m47daab938b" x="47.288281" y="252.886594" style="stroke: #000000; stroke-width: 0.8"/>
      </g>
     </g>
     <g id="text_18">
      <!-- 0 -->
      <g transform="translate(33.925781 256.685422) scale(0.1 -0.1)">
       <use xlink:href="#DejaVuSans-13"/>
      </g>
     </g>
    </g>
    <g id="ytick_5">
     <g id="line2d_51">
      <g>
       <use xlink:href="#m47daab938b" x="47.288281" y="207.848296" style="stroke: #000000; stroke-width: 0.8"/>
      </g>
     </g>
     <g id="text_19">
      <!-- 50 -->
      <g transform="translate(27.563281 211.647124) scale(0.1 -0.1)">
       <use xlink:href="#DejaVuSans-18"/>
       <use xlink:href="#DejaVuSans-13" transform="translate(63.625 0)"/>
      </g>
     </g>
    </g>
    <g id="ytick_6">
     <g id="line2d_52">
      <g>
       <use xlink:href="#m47daab938b" x="47.288281" y="162.809998" style="stroke: #000000; stroke-width: 0.8"/>
      </g>
     </g>
     <g id="text_20">
      <!-- 100 -->
      <g transform="translate(21.200781 166.608826) scale(0.1 -0.1)">
       <use xlink:href="#DejaVuSans-14"/>
       <use xlink:href="#DejaVuSans-13" transform="translate(63.625 0)"/>
       <use xlink:href="#DejaVuSans-13" transform="translate(127.25 0)"/>
      </g>
     </g>
    </g>
    <g id="text_21">
     <!-- intensity -->
     <g transform="translate(14.798438 225.021029) rotate(-90) scale(0.1 -0.1)">
      <use xlink:href="#DejaVuSans-4c"/>
      <use xlink:href="#DejaVuSans-51" transform="translate(27.78125 0)"/>
      <use xlink:href="#DejaVuSans-57" transform="translate(91.15625 0)"/>
      <use xlink:href="#DejaVuSans-48" transform="translate(130.359375 0)"/>
      <use xlink:href="#DejaVuSans-51" transform="translate(191.890625 0)"/>
      <use xlink:href="#DejaVuSans-56" transform="translate(255.265625 0)"/>
      <use xlink:href="#DejaVuSans-4c" transform="translate(307.359375 0)"/>
      <use xlink:href="#DejaVuSans-57" transform="translate(335.140625 0)"/>
      <use xlink:href="#DejaVuSans-5c" transform="translate(374.34375 0)"/>
     </g>
    </g>
   </g>
   <g id="patch_23">
    <path d="M 47.288281 252.886594 
L 47.288281 153.802338 
" style="fill: none; stroke: #000000; stroke-width: 0.8; stroke-linejoin: miter; stroke-linecap: square"/>
   </g>
   <g id="patch_24">
    <path d="M 47.288281 252.886594 
L 404.408281 252.886594 
" style="fill: none; stroke: #000000; stroke-width: 0.8; stroke-linejoin: miter; stroke-linecap: square"/>
   </g>
   <g id="patch_25">
    <path d="M 67.210265 252.886594 
L 89.345802 252.886594 
L 89.345802 184.828477 
L 67.210265 184.828477 
z
" clip-path="url(#p6a7c55b2ff)" style="fill: #1f77b4"/>
   </g>
   <g id="text_22">
    <!-- 0 -->
    <g style="fill: #d62728" transform="translate(104.928958 245.886594) scale(0.09 -0.09)">
     <use xlink:href="#DejaVuSans-13"/>
    </g>
   </g>
   <g id="patch_26">
    <path d="M 126.238364 252.886594 
L 148.373901 252.886594 
L 148.373901 173.768678 
L 126.238364 173.768678 
z
" clip-path="url(#p6a7c55b2ff)" style="fill: #1f77b4"/>
   </g>
   <g id="text_23">
    <!-- 0 -->
    <g style="fill: #d62728" transform="translate(163.957057 245.886594) scale(0.09 -0.09)">
     <use xlink:href="#DejaVuSans-13"/>
    </g>
   </g>
   <g id="patch_27">
    <path d="M 185.266463 252.886594 
L 207.402 252.886594 
L 207.402 165.43518 
L 185.266463 165.43518 
z
" clip-path="url(#p6a7c55b2ff)" style="fill: #1f77b4"/>
   </g>
   <g id="patch_28">
    <path d="M 214.780513 252.886594 
L 236.91605 252.886594 
L 236.91605 162.865014 
L 214.780513 162.865014 
z
" clip-path="url(#p6a7c55b2ff)" style="fill: #1f77b4"/>
   </g>
   <g id="text_24">
    <!-- 0 -->
    <g style="fill: #d62728" transform="translate(252.499206 245.886594) scale(0.09 -0.09)">
     <use xlink:href="#DejaVuSans-13"/>
    </g>
   </g>
   <g id="patch_29">
    <path d="M 273.808612 252.886594 
L 295.944149 252.886594 
L 295.944149 167.07403 
L 273.808612 167.07403 
z
" clip-path="url(#p6a7c55b2ff)" style="fill: #1f77b4"/>
   </g>
   <g id="patch_30">
    <path d="M 303.322661 252.886594 
L 325.458199 252.886594 
L 325.458199 176.417107 
L 303.322661 176.417107 
z
" clip-path="url(#p6a7c55b2ff)" style="fill: #1f77b4"/>
   </g>
   <g id="text_25">
    <!-- 0 -->
    <g style="fill: #d62728" transform="translate(341.041355 245.886594) scale(0.09 -0.09)">
     <use xlink:href="#DejaVuSans-13"/>
    </g>
   </g>
   <g id="patch_31">
    <path d="M 362.350761 252.886594 
L 384.486298 252.886594 
L 384.486298 187.613176 
L 362.350761 187.613176 
z
" clip-path="url(#p6a7c55b2ff)" style="fill: #1f77b4"/>
   </g>
   <g id="text_26">
    <!-- after binning onto the 0.01 Da grid: empty bins become 0 (red) -->
    <g transform="translate(83.125156 147.802338) scale(0.09 -0.09)">
     <defs>
      <path id="DejaVuSans-49" d="M 2375 4863 
L 2375 4384 
L 1825 4384 
Q 1516 4384 1395 4259 
Q 1275 4134 1275 3809 
L 1275 3500 
L 2222 3500 
L 2222 3053 
L 1275 3053 
L 1275 0 
L 697 0 
L 697 3053 
L 147 3053 
L 147 3500 
L 697 3500 
L 697 3744 
Q 697 4328 969 4595 
Q 1241 4863 1831 4863 
L 2375 4863 
z
" transform="scale(0.015625)"/>
      <path id="DejaVuSans-1d" d="M 750 794 
L 1409 794 
L 1409 0 
L 750 0 
L 750 794 
z
M 750 3309 
L 1409 3309 
L 1409 2516 
L 750 2516 
L 750 3309 
z
" transform="scale(0.015625)"/>
     </defs>
     <use xlink:href="#DejaVuSans-44"/>
     <use xlink:href="#DejaVuSans-49" transform="translate(61.28125 0)"/>
     <use xlink:href="#DejaVuSans-57" transform="translate(94.734375 0)"/>
     <use xlink:href="#DejaVuSans-48" transform="translate(133.9375 0)"/>
     <use xlink:href="#DejaVuSans-55" transform="translate(195.46875 0)"/>
     <use xlink:href="#DejaVuSans-3" transform="translate(236.578125 0)"/>
     <use xlink:href="#DejaVuSans-45" transform="translate(268.359375 0)"/>
     <use xlink:href="#DejaVuSans-4c" transform="translate(331.84375 0)"/>
     <use xlink:href="#DejaVuSans-51" transform="translate(359.625 0)"/>
     <use xlink:href="#DejaVuSans-51" transform="translate(423 0)"/>
     <use xlink:href="#DejaVuSans-4c" transform="translate(486.375 0)"/>
     <use xlink:href="#DejaVuSans-51" transform="translate(514.15625 0)"/>
     <use xlink:href="#DejaVuSans-4a" transform="translate(577.53125 0)"/>
     <use xlink:href="#DejaVuSans-3" transform="translate(641.015625 0)"/>
     <use xlink:href="#DejaVuSans-52" transform="translate(672.796875 0)"/>
     <use xlink:href="#DejaVuSans-51" transform="translate(733.984375 0)"/>
     <use xlink:href="#DejaVuSans-57" transform="translate(797.359375 0)"/>
     <use xlink:href="#DejaVuSans-52" transform="translate(836.5625 0)"/>
     <use xlink:href="#DejaVuSans-3" transform="translate(897.75 0)"/>
     <use xlink:href="#DejaVuSans-57" transform="translate(929.53125 0)"/>
     <use xlink:href="#DejaVuSans-4b" transform="translate(968.734375 0)"/>
     <use xlink:href="#DejaVuSans-48" transform="translate(1032.109375 0)"/>
     <use xlink:href="#DejaVuSans-3" transform="translate(1093.640625 0)"/>
     <use xlink:href="#DejaVuSans-13" transform="translate(1125.421875 0)"/>
     <use xlink:href="#DejaVuSans-11" transform="translate(1189.046875 0)"/>
     <use xlink:href="#DejaVuSans-13" transform="translate(1220.828125 0)"/>
     <use xlink:href="#DejaVuSans-14" transform="translate(1284.453125 0)"/>
     <use xlink:href="#DejaVuSans-3" transform="translate(1348.078125 0)"/>
     <use xlink:href="#DejaVuSans-27" transform="translate(1379.859375 0)"/>
     <use xlink:href="#DejaVuSans-44" transform="translate(1456.859375 0)"/>
     <use xlink:href="#DejaVuSans-3" transform="translate(1518.140625 0)"/>
     <use xlink:href="#DejaVuSans-4a" transform="translate(1549.921875 0)"/>
     <use xlink:href="#DejaVuSans-55" transform="translate(1613.40625 0)"/>
     <use xlink:href="#DejaVuSans-4c" transform="translate(1654.515625 0)"/>
     <use xlink:href="#DejaVuSans-47" transform="translate(1682.296875 0)"/>
     <use xlink:href="#DejaVuSans-1d" transform="translate(1745.78125 0)"/>
     <use xlink:href="#DejaVuSans-3" transform="translate(1779.46875 0)"/>
     <use xlink:href="#DejaVuSans-48" transform="translate(1811.25 0)"/>
     <use xlink:href="#DejaVuSans-50" transform="translate(1872.78125 0)"/>
     <use xlink:href="#DejaVuSans-53" transform="translate(1970.1875 0)"/>
     <use xlink:href="#DejaVuSans-57" transform="translate(2033.671875 0)"/>
     <use xlink:href="#DejaVuSans-5c" transform="translate(2072.875 0)"/>
     <use xlink:href="#DejaVuSans-3" transform="translate(2132.0625 0)"/>
     <use xlink:href="#DejaVuSans-45" transform="translate(2163.84375 0)"/>
     <use xlink:href="#DejaVuSans-4c" transform="translate(2227.328125 0)"/>
     <use xlink:href="#DejaVuSans-51" transform="translate(2255.109375 0)"/>
     <use xlink:href="#DejaVuSans-56" transform="translate(2318.484375 0)"/>
     <use xlink:href="#DejaVuSans-3" transform="translate(2370.578125 0)"/>
     <use xlink:href="#DejaVuSans-45" transform="translate(2402.359375 0)"/>
     <use xlink:href="#DejaVuSans-48" transform="translate(2465.84375 0)"/>
     <use xlink:href="#DejaVuSans-46" transform="translate(2527.375 0)"/>
     <use xlink:href="#DejaVuSans-52" transform="translate(2582.359375 0)"/>
     <use xlink:href="#DejaVuSans-50" transform="translate(2643.546875 0)"/>
     <use xlink:href="#DejaVuSans-48" transform="translate(2740.953125 0)"/>
     <use xlink:href="#DejaVuSans-3" transform="translate(2802.484375 0)"/>
     <use xlink:href="#DejaVuSans-13" transform="translate(2834.265625 0)"/>
     <use xlink:href="#DejaVuSans-3" transform="translate(2897.890625 0)"/>
     <use xlink:href="#DejaVuSans-b" transform="translate(2929.671875 0)"/>
     <use xlink:href="#DejaVuSans-55" transform="translate(2968.6875 0)"/>
     <use xlink:href="#DejaVuSans-48" transform="translate(3007.59375 0)"/>
     <use xlink:href="#DejaVuSans-47" transform="translate(3069.125 0)"/>
     <use xlink:href="#DejaVuSans-c" transform="translate(3132.609375 0)"/>
    </g>
   </g>
   <g id="PathCollection_2">
    <defs>
     <path id="mf390b9f108" d="M 0 3.162278 
C 0.838646 3.162278 1.643056 2.82908 2.236068 2.236068 
C 2.82908 1.643056 3.162278 0.838646 3.162278 0 
C 3.162278 -0.838646 2.82908 -1.643056 2.236068 -2.236068 
C 1.643056 -2.82908 0.838646 -3.162278 0 -3.162278 
C -0.838646 -3.162278 -1.643056 -2.82908 -2.236068 -2.236068 
C -2.82908 -1.643056 -3.162278 -0.838646 -3.162278 0 
C -3.162278 0.838646 -2.82908 1.643056 -2.236068 2.236068 
C -1.643056 2.82908 -0.838646 3.162278 0 3.162278 
z
" style="stroke: #d62728; stroke-width: 1.5"/>
    </defs>
    <g clip-path="url(#p6a7c55b2ff)">
     <use xlink:href="#mf390b9f108" x="107.792083" y="252.886594" style="fill: #ffffff; stroke: #d62728; stroke-width: 1.5"/>
    </g>
   </g>
   <g id="PathCollection_3">
    <g clip-path="url(#p6a7c55b2ff)">
     <use xlink:href="#mf390b9f108" x="166.820182" y="252.886594" style="fill: #ffffff; stroke: #d62728; stroke-width: 1.5"/>
    </g>
   </g>
   <g id="PathCollection_4">
    <g clip-path="url(#p6a7c55b2ff)">
     <use xlink:href="#mf390b9f108" x="255.362331" y="252.886594" style="fill: #ffffff; stroke: #d62728; stroke-width: 1.5"/>
    </g>
   </g>
   <g id="PathCollection_5">
    <g clip-path="url(#p6a7c55b2ff)">
     <use xlink:href="#mf390b9f108" x="343.90448" y="252.886594" style="fill: #ffffff; stroke: #d62728; stroke-width: 1.5"/>
    </g>
   </g>
  </g>
 </g>
 <defs>
  <clipPath id="pee030bc31f">
   <rect x="47.288281" y="20.038594" width="357.12" height="99.084255"/>
  </clipPath>
  <clipPath id="p6a7c55b2ff">
   <rect x="47.288281" y="153.802338" width="357.12" height="99.084255"/>
  </clipPath>
 </defs>
</svg>
