<?xml version="1.0" encoding="utf-8" standalone="no"?>
<!DOCTYPE svg PUBLIC "-//W3C//DTD SVG 1.1//EN"
  "http://www.w3.org/Graphics/SVG/1.1/DTD/svg11.dtd">
<svg xmlns:xlink="http://www.w3.org/1999/xlink" width="613.587375pt" height="222.192pt" viewBox="0 0 613.587375 222.192" xmlns="http://www.w3.org/2000/svg" version="1.1">
 <metadata>
  <rdf:RDF xmlns:dc="http://purl.org/dc/elements/1.1/" xmlns:cc="http://creativecommons.org/ns#" xmlns:rdf="http://www.w3.org/1999/02/22-rdf-syntax-ns#">
   <cc:Work>
    <dc:type rdf:resource="http://purl.org/dc/dcmitype/StillImage"/>
    <dc:date>2026-06-18T18:09:07.718983</dc:date>
    <dc:format>image/svg+xml</dc:format>
    <dc:creator>
     <cc:Agent>
      <dc:title>Matplotlib v3.10.9, https://matplotlib.org/</dc:title>
     </cc:Agent>
    </dc:creator>
   </cc:Work>
  </rdf:RDF>
 </metadata>
 <defs>
  <style type="text/css">*{stroke-linejoin: round; stroke-linecap: butt}</style>
 </defs>
 <g id="figure_1">
  <g id="patch_1">
   <path d="M 0 222.192 
L 613.587375 222.192 
L 613.587375 0 
L 0 0 
L 0 222.192 
z
" style="fill: none"/>
  </g>
  <g id="axes_1">
   <g id="patch_2">
    <path d="M 25.7184 84.086769 
L 79.5456 84.086769 
Q 81.36 84.086769 81.36 82.466215 
L 81.36 62.749477 
Q 81.36 61.128923 79.5456 61.128923 
L 25.7184 61.128923 
Q 23.904 61.128923 23.904 62.749477 
L 23.904 82.466215 
Q 23.904 84.086769 25.7184 84.086769 
z
" clip-path="url(#pa48182b095)" style="fill: #ffe1b0; stroke: #d08a2e; stroke-width: 1.3; stroke-linejoin: miter"/>
   </g>
   <g id="patch_3">
    <path d="M 128.5344 84.086769 
L 191.4336 84.086769 
Q 193.248 84.086769 193.248 82.466215 
L 193.248 62.749477 
Q 193.248 61.128923 191.4336 61.128923 
L 128.5344 61.128923 
Q 126.72 61.128923 126.72 62.749477 
L 126.72 82.466215 
Q 126.72 84.086769 128.5344 84.086769 
z
" clip-path="url(#pa48182b095)" style="fill: #fbeeee; stroke: #b5651d; stroke-width: 1.3; stroke-linejoin: miter"/>
   </g>
   <g id="patch_4">
    <path d="M 243.4464 84.086769 
L 279.1296 84.086769 
Q 280.944 84.086769 280.944 82.466215 
L 280.944 62.749477 
Q 280.944 61.128923 279.1296 61.128923 
L 243.4464 61.128923 
Q 241.632 61.128923 241.632 62.749477 
L 241.632 82.466215 
Q 241.632 84.086769 243.4464 84.086769 
z
" clip-path="url(#pa48182b095)" style="fill: #eef1f7; stroke: #6b7a99; stroke-width: 1.3; stroke-linejoin: miter"/>
   </g>
   <g id="patch_5">
    <path d="M 84.86942 72.742892 
Q 104.036647 72.742892 121.415019 72.742892 
" clip-path="url(#pa48182b095)" style="fill: none; stroke: #b5651d; stroke-width: 1.6; stroke-linecap: round"/>
    <path d="M 116.215019 70.142892 
L 121.415019 72.742892 
L 116.215019 75.342892 
z
" clip-path="url(#pa48182b095)" style="fill: #b5651d; stroke: #b5651d; stroke-width: 1.6; stroke-linecap: round"/>
   </g>
   <g id="patch_6">
    <path d="M 196.761665 72.742892 
Q 217.441823 72.742892 236.333127 72.742892 
" clip-path="url(#pa48182b095)" style="fill: none; stroke: #b5651d; stroke-width: 1.6; stroke-linecap: round"/>
    <path d="M 231.133127 70.142892 
L 236.333127 72.742892 
L 231.133127 75.342892 
z
" clip-path="url(#pa48182b095)" style="fill: #b5651d; stroke: #b5651d; stroke-width: 1.6; stroke-linecap: round"/>
   </g>
   <g id="patch_7">
    <path d="M 25.7184 162.413538 
L 79.5456 162.413538 
Q 81.36 162.413538 81.36 160.792985 
L 81.36 141.076246 
Q 81.36 139.455692 79.5456 139.455692 
L 25.7184 139.455692 
Q 23.904 139.455692 23.904 141.076246 
L 23.904 160.792985 
Q 23.904 162.413538 25.7184 162.413538 
z
" clip-path="url(#pa48182b095)" style="fill: #ffe1b0; stroke: #d08a2e; stroke-width: 1.3; stroke-linejoin: miter"/>
   </g>
   <g id="patch_8">
    <path d="M 128.5344 162.413538 
L 159.6816 162.413538 
Q 161.496 162.413538 161.496 160.792985 
L 161.496 141.076246 
Q 161.496 139.455692 159.6816 139.455692 
L 128.5344 139.455692 
Q 126.72 139.455692 126.72 141.076246 
L 126.72 160.792985 
Q 126.72 162.413538 128.5344 162.413538 
z
" clip-path="url(#pa48182b095)" style="fill: #eef1f7; stroke: #6b7a99; stroke-width: 1.3; stroke-linejoin: miter"/>
   </g>
   <g id="patch_9">
    <path d="M 166.3344 162.413538 
L 197.4816 162.413538 
Q 199.296 162.413538 199.296 160.792985 
L 199.296 141.076246 
Q 199.296 139.455692 197.4816 139.455692 
L 166.3344 139.455692 
Q 164.52 139.455692 164.52 141.076246 
L 164.52 160.792985 
Q 164.52 162.413538 166.3344 162.413538 
z
" clip-path="url(#pa48182b095)" style="fill: #eef1f7; stroke: #6b7a99; stroke-width: 1.3; stroke-linejoin: miter"/>
   </g>
   <g id="patch_10">
    <path d="M 204.1344 162.413538 
L 235.2816 162.413538 
Q 237.096 162.413538 237.096 160.792985 
L 237.096 141.076246 
Q 237.096 139.455692 235.2816 139.455692 
L 204.1344 139.455692 
Q 202.32 139.455692 202.32 141.076246 
L 202.32 160.792985 
Q 202.32 162.413538 204.1344 162.413538 
z
" clip-path="url(#pa48182b095)" style="fill: #ffe1b0; stroke: #d08a2e; stroke-width: 1.3; stroke-linejoin: miter"/>
   </g>
   <g id="patch_11">
    <path d="M 241.9344 162.413538 
L 273.0816 162.413538 
Q 274.896 162.413538 274.896 160.792985 
L 274.896 141.076246 
Q 274.896 139.455692 273.0816 139.455692 
L 241.9344 139.455692 
Q 240.12 139.455692 240.12 141.076246 
L 240.12 160.792985 
Q 240.12 162.413538 241.9344 162.413538 
z
" clip-path="url(#pa48182b095)" style="fill: #eef1f7; stroke: #6b7a99; stroke-width: 1.3; stroke-linejoin: miter"/>
   </g>
   <g id="patch_12">
    <path d="M 358.3584 162.413538 
L 394.0416 162.413538 
Q 395.856 162.413538 395.856 160.792985 
L 395.856 141.076246 
Q 395.856 139.455692 394.0416 139.455692 
L 358.3584 139.455692 
Q 356.544 139.455692 356.544 141.076246 
L 356.544 160.792985 
Q 356.544 162.413538 358.3584 162.413538 
z
" clip-path="url(#pa48182b095)" style="fill: #eef1f7; stroke: #6b7a99; stroke-width: 1.3; stroke-linejoin: miter"/>
   </g>
   <g id="patch_13">
    <path d="M 84.86942 151.069662 
Q 104.036647 151.069662 121.415019 151.069662 
" clip-path="url(#pa48182b095)" style="fill: none; stroke: #3f7d4f; stroke-width: 1.6; stroke-linecap: round"/>
    <path d="M 116.215019 148.469662 
L 121.415019 151.069662 
L 116.215019 153.669662 
z
" clip-path="url(#pa48182b095)" style="fill: #3f7d4f; stroke: #3f7d4f; stroke-width: 1.6; stroke-linecap: round"/>
   </g>
   <g id="patch_14">
    <path d="M 279.920281 151.069662 
Q 316.474437 151.069662 351.239739 151.069662 
" clip-path="url(#pa48182b095)" style="fill: none; stroke: #3f7d4f; stroke-width: 1.6; stroke-linecap: round"/>
    <path d="M 346.039739 148.469662 
L 351.239739 151.069662 
L 346.039739 153.669662 
z
" clip-path="url(#pa48182b095)" style="fill: #3f7d4f; stroke: #3f7d4f; stroke-width: 1.6; stroke-linecap: round"/>
   </g>
   <g id="text_1">
    <!-- Agilent .ms intensities span a wide range, so each is stored as  value x 8 ** head  (head = a 2-bit exponent, 0..3) -->
    <g style="fill: #2f3338" transform="translate(11.808 16.563692) scale(0.105 -0.105)">
     <defs>
      <path id="DejaVuSans-41" d="M 2188 4044 
L 1331 1722 
L 3047 1722 
L 2188 4044 
z
M 1831 4666 
L 2547 4666 
L 4325 0 
L 3669 0 
L 3244 1197 
L 1141 1197 
L 716 0 
L 50 0 
L 1831 4666 
z
" transform="scale(0.015625)"/>
      <path id="DejaVuSans-67" d="M 2906 1791 
Q 2906 2416 2648 2759 
Q 2391 3103 1925 3103 
Q 1463 3103 1205 2759 
Q 947 2416 947 1791 
Q 947 1169 1205 825 
Q 1463 481 1925 481 
Q 2391 481 2648 825 
Q 2906 1169 2906 1791 
z
M 3481 434 
Q 3481 -459 3084 -895 
Q 2688 -1331 1869 -1331 
Q 1566 -1331 1297 -1286 
Q 1028 -1241 775 -1147 
L 775 -588 
Q 1028 -725 1275 -790 
Q 1522 -856 1778 -856 
Q 2344 -856 2625 -561 
Q 2906 -266 2906 331 
L 2906 616 
Q 2728 306 2450 153 
Q 2172 0 1784 0 
Q 1141 0 747 490 
Q 353 981 353 1791 
Q 353 2603 747 3093 
Q 1141 3584 1784 3584 
Q 2172 3584 2450 3431 
Q 2728 3278 2906 2969 
L 2906 3500 
L 3481 3500 
L 3481 434 
z
" transform="scale(0.015625)"/>
      <path id="DejaVuSans-69" d="M 603 3500 
L 1178 3500 
L 1178 0 
L 603 0 
L 603 3500 
z
M 603 4863 
L 1178 4863 
L 1178 4134 
L 603 4134 
L 603 4863 
z
" transform="scale(0.015625)"/>
      <path id="DejaVuSans-6c" d="M 603 4863 
L 1178 4863 
L 1178 0 
L 603 0 
L 603 4863 
z
" transform="scale(0.015625)"/>
      <path id="DejaVuSans-65" d="M 3597 1894 
L 3597 1613 
L 953 1613 
Q 991 1019 1311 708 
Q 1631 397 2203 397 
Q 2534 397 2845 478 
Q 3156 559 3463 722 
L 3463 178 
Q 3153 47 2828 -22 
Q 2503 -91 2169 -91 
Q 1331 -91 842 396 
Q 353 884 353 1716 
Q 353 2575 817 3079 
Q 1281 3584 2069 3584 
Q 2775 3584 3186 3129 
Q 3597 2675 3597 1894 
z
M 3022 2063 
Q 3016 2534 2758 2815 
Q 2500 3097 2075 3097 
Q 1594 3097 1305 2825 
Q 1016 2553 972 2059 
L 3022 2063 
z
" transform="scale(0.015625)"/>
      <path id="DejaVuSans-6e" d="M 3513 2113 
L 3513 0 
L 2938 0 
L 2938 2094 
Q 2938 2591 2744 2837 
Q 2550 3084 2163 3084 
Q 1697 3084 1428 2787 
Q 1159 2491 1159 1978 
L 1159 0 
L 581 0 
L 581 3500 
L 1159 3500 
L 1159 2956 
Q 1366 3272 1645 3428 
Q 1925 3584 2291 3584 
Q 2894 3584 3203 3211 
Q 3513 2838 3513 2113 
z
" transform="scale(0.015625)"/>
      <path id="DejaVuSans-74" d="M 1172 4494 
L 1172 3500 
L 2356 3500 
L 2356 3053 
L 1172 3053 
L 1172 1153 
Q 1172 725 1289 603 
Q 1406 481 1766 481 
L 2356 481 
L 2356 0 
L 1766 0 
Q 1100 0 847 248 
Q 594 497 594 1153 
L 594 3053 
L 172 3053 
L 172 3500 
L 594 3500 
L 594 4494 
L 1172 4494 
z
" transform="scale(0.015625)"/>
      <path id="DejaVuSans-20" transform="scale(0.015625)"/>
      <path id="DejaVuSans-2e" d="M 684 794 
L 1344 794 
L 1344 0 
L 684 0 
L 684 794 
z
" transform="scale(0.015625)"/>
      <path id="DejaVuSans-6d" d="M 3328 2828 
Q 3544 3216 3844 3400 
Q 4144 3584 4550 3584 
Q 5097 3584 5394 3201 
Q 5691 2819 5691 2113 
L 5691 0 
L 5113 0 
L 5113 2094 
Q 5113 2597 4934 2840 
Q 4756 3084 4391 3084 
Q 3944 3084 3684 2787 
Q 3425 2491 3425 1978 
L 3425 0 
L 2847 0 
L 2847 2094 
Q 2847 2600 2669 2842 
Q 2491 3084 2119 3084 
Q 1678 3084 1418 2786 
Q 1159 2488 1159 1978 
L 1159 0 
L 581 0 
L 581 3500 
L 1159 3500 
L 1159 2956 
Q 1356 3278 1631 3431 
Q 1906 3584 2284 3584 
Q 2666 3584 2933 3390 
Q 3200 3197 3328 2828 
z
" transform="scale(0.015625)"/>
      <path id="DejaVuSans-73" d="M 2834 3397 
L 2834 2853 
Q 2591 2978 2328 3040 
Q 2066 3103 1784 3103 
Q 1356 3103 1142 2972 
Q 928 2841 928 2578 
Q 928 2378 1081 2264 
Q 1234 2150 1697 2047 
L 1894 2003 
Q 2506 1872 2764 1633 
Q 3022 1394 3022 966 
Q 3022 478 2636 193 
Q 2250 -91 1575 -91 
Q 1294 -91 989 -36 
Q 684 19 347 128 
L 347 722 
Q 666 556 975 473 
Q 1284 391 1588 391 
Q 1994 391 2212 530 
Q 2431 669 2431 922 
Q 2431 1156 2273 1281 
Q 2116 1406 1581 1522 
L 1381 1569 
Q 847 1681 609 1914 
Q 372 2147 372 2553 
Q 372 3047 722 3315 
Q 1072 3584 1716 3584 
Q 2034 3584 2315 3537 
Q 2597 3491 2834 3397 
z
" transform="scale(0.015625)"/>
      <path id="DejaVuSans-70" d="M 1159 525 
L 1159 -1331 
L 581 -1331 
L 581 3500 
L 1159 3500 
L 1159 2969 
Q 1341 3281 1617 3432 
Q 1894 3584 2278 3584 
Q 2916 3584 3314 3078 
Q 3713 2572 3713 1747 
Q 3713 922 3314 415 
Q 2916 -91 2278 -91 
Q 1894 -91 1617 61 
Q 1341 213 1159 525 
z
M 3116 1747 
Q 3116 2381 2855 2742 
Q 2594 3103 2138 3103 
Q 1681 3103 1420 2742 
Q 1159 2381 1159 1747 
Q 1159 1113 1420 752 
Q 1681 391 2138 391 
Q 2594 391 2855 752 
Q 3116 1113 3116 1747 
z
" transform="scale(0.015625)"/>
      <path id="DejaVuSans-61" d="M 2194 1759 
Q 1497 1759 1228 1600 
Q 959 1441 959 1056 
Q 959 750 1161 570 
Q 1363 391 1709 391 
Q 2188 391 2477 730 
Q 2766 1069 2766 1631 
L 2766 1759 
L 2194 1759 
z
M 3341 1997 
L 3341 0 
L 2766 0 
L 2766 531 
Q 2569 213 2275 61 
Q 1981 -91 1556 -91 
Q 1019 -91 701 211 
Q 384 513 384 1019 
Q 384 1609 779 1909 
Q 1175 2209 1959 2209 
L 2766 2209 
L 2766 2266 
Q 2766 2663 2505 2880 
Q 2244 3097 1772 3097 
Q 1472 3097 1187 3025 
Q 903 2953 641 2809 
L 641 3341 
Q 956 3463 1253 3523 
Q 1550 3584 1831 3584 
Q 2591 3584 2966 3190 
Q 3341 2797 3341 1997 
z
" transform="scale(0.015625)"/>
      <path id="DejaVuSans-77" d="M 269 3500 
L 844 3500 
L 1563 769 
L 2278 3500 
L 2956 3500 
L 3675 769 
L 4391 3500 
L 4966 3500 
L 4050 0 
L 3372 0 
L 2619 2869 
L 1863 0 
L 1184 0 
L 269 3500 
z
" transform="scale(0.015625)"/>
      <path id="DejaVuSans-64" d="M 2906 2969 
L 2906 4863 
L 3481 4863 
L 3481 0 
L 2906 0 
L 2906 525 
Q 2725 213 2448 61 
Q 2172 -91 1784 -91 
Q 1150 -91 751 415 
Q 353 922 353 1747 
Q 353 2572 751 3078 
Q 1150 3584 1784 3584 
Q 2172 3584 2448 3432 
Q 2725 3281 2906 2969 
z
M 947 1747 
Q 947 1113 1208 752 
Q 1469 391 1925 391 
Q 2381 391 2643 752 
Q 2906 1113 2906 1747 
Q 2906 2381 2643 2742 
Q 2381 3103 1925 3103 
Q 1469 3103 1208 2742 
Q 947 2381 947 1747 
z
" transform="scale(0.015625)"/>
      <path id="DejaVuSans-72" d="M 2631 2963 
Q 2534 3019 2420 3045 
Q 2306 3072 2169 3072 
Q 1681 3072 1420 2755 
Q 1159 2438 1159 1844 
L 1159 0 
L 581 0 
L 581 3500 
L 1159 3500 
L 1159 2956 
Q 1341 3275 1631 3429 
Q 1922 3584 2338 3584 
Q 2397 3584 2469 3576 
Q 2541 3569 2628 3553 
L 2631 2963 
z
" transform="scale(0.015625)"/>
      <path id="DejaVuSans-2c" d="M 750 794 
L 1409 794 
L 1409 256 
L 897 -744 
L 494 -744 
L 750 256 
L 750 794 
z
" transform="scale(0.015625)"/>
      <path id="DejaVuSans-6f" d="M 1959 3097 
Q 1497 3097 1228 2736 
Q 959 2375 959 1747 
Q 959 1119 1226 758 
Q 1494 397 1959 397 
Q 2419 397 2687 759 
Q 2956 1122 2956 1747 
Q 2956 2369 2687 2733 
Q 2419 3097 1959 3097 
z
M 1959 3584 
Q 2709 3584 3137 3096 
Q 3566 2609 3566 1747 
Q 3566 888 3137 398 
Q 2709 -91 1959 -91 
Q 1206 -91 779 398 
Q 353 888 353 1747 
Q 353 2609 779 3096 
Q 1206 3584 1959 3584 
z
" transform="scale(0.015625)"/>
      <path id="DejaVuSans-63" d="M 3122 3366 
L 3122 2828 
Q 2878 2963 2633 3030 
Q 2388 3097 2138 3097 
Q 1578 3097 1268 2742 
Q 959 2388 959 1747 
Q 959 1106 1268 751 
Q 1578 397 2138 397 
Q 2388 397 2633 464 
Q 2878 531 3122 666 
L 3122 134 
Q 2881 22 2623 -34 
Q 2366 -91 2075 -91 
Q 1284 -91 818 406 
Q 353 903 353 1747 
Q 353 2603 823 3093 
Q 1294 3584 2113 3584 
Q 2378 3584 2631 3529 
Q 2884 3475 3122 3366 
z
" transform="scale(0.015625)"/>
      <path id="DejaVuSans-68" d="M 3513 2113 
L 3513 0 
L 2938 0 
L 2938 2094 
Q 2938 2591 2744 2837 
Q 2550 3084 2163 3084 
Q 1697 3084 1428 2787 
Q 1159 2491 1159 1978 
L 1159 0 
L 581 0 
L 581 4863 
L 1159 4863 
L 1159 2956 
Q 1366 3272 1645 3428 
Q 1925 3584 2291 3584 
Q 2894 3584 3203 3211 
Q 3513 2838 3513 2113 
z
" transform="scale(0.015625)"/>
      <path id="DejaVuSans-76" d="M 191 3500 
L 800 3500 
L 1894 563 
L 2988 3500 
L 3597 3500 
L 2284 0 
L 1503 0 
L 191 3500 
z
" transform="scale(0.015625)"/>
      <path id="DejaVuSans-75" d="M 544 1381 
L 544 3500 
L 1119 3500 
L 1119 1403 
Q 1119 906 1312 657 
Q 1506 409 1894 409 
Q 2359 409 2629 706 
Q 2900 1003 2900 1516 
L 2900 3500 
L 3475 3500 
L 3475 0 
L 2900 0 
L 2900 538 
Q 2691 219 2414 64 
Q 2138 -91 1772 -91 
Q 1169 -91 856 284 
Q 544 659 544 1381 
z
M 1991 3584 
L 1991 3584 
z
" transform="scale(0.015625)"/>
      <path id="DejaVuSans-78" d="M 3513 3500 
L 2247 1797 
L 3578 0 
L 2900 0 
L 1881 1375 
L 863 0 
L 184 0 
L 1544 1831 
L 300 3500 
L 978 3500 
L 1906 2253 
L 2834 3500 
L 3513 3500 
z
" transform="scale(0.015625)"/>
      <path id="DejaVuSans-38" d="M 2034 2216 
Q 1584 2216 1326 1975 
Q 1069 1734 1069 1313 
Q 1069 891 1326 650 
Q 1584 409 2034 409 
Q 2484 409 2743 651 
Q 3003 894 3003 1313 
Q 3003 1734 2745 1975 
Q 2488 2216 2034 2216 
z
M 1403 2484 
Q 997 2584 770 2862 
Q 544 3141 544 3541 
Q 544 4100 942 4425 
Q 1341 4750 2034 4750 
Q 2731 4750 3128 4425 
Q 3525 4100 3525 3541 
Q 3525 3141 3298 2862 
Q 3072 2584 2669 2484 
Q 3125 2378 3379 2068 
Q 3634 1759 3634 1313 
Q 3634 634 3220 271 
Q 2806 -91 2034 -91 
Q 1263 -91 848 271 
Q 434 634 434 1313 
Q 434 1759 690 2068 
Q 947 2378 1403 2484 
z
M 1172 3481 
Q 1172 3119 1398 2916 
Q 1625 2713 2034 2713 
Q 2441 2713 2670 2916 
Q 2900 3119 2900 3481 
Q 2900 3844 2670 4047 
Q 2441 4250 2034 4250 
Q 1625 4250 1398 4047 
Q 1172 3844 1172 3481 
z
" transform="scale(0.015625)"/>
      <path id="DejaVuSans-2a" d="M 3009 3897 
L 1888 3291 
L 3009 2681 
L 2828 2375 
L 1778 3009 
L 1778 1831 
L 1422 1831 
L 1422 3009 
L 372 2375 
L 191 2681 
L 1313 3291 
L 191 3897 
L 372 4206 
L 1422 3572 
L 1422 4750 
L 1778 4750 
L 1778 3572 
L 2828 4206 
L 3009 3897 
z
" transform="scale(0.015625)"/>
      <path id="DejaVuSans-28" d="M 1984 4856 
Q 1566 4138 1362 3434 
Q 1159 2731 1159 2009 
Q 1159 1288 1364 580 
Q 1569 -128 1984 -844 
L 1484 -844 
Q 1016 -109 783 600 
Q 550 1309 550 2009 
Q 550 2706 781 3412 
Q 1013 4119 1484 4856 
L 1984 4856 
z
" transform="scale(0.015625)"/>
      <path id="DejaVuSans-3d" d="M 678 2906 
L 4684 2906 
L 4684 2381 
L 678 2381 
L 678 2906 
z
M 678 1631 
L 4684 1631 
L 4684 1100 
L 678 1100 
L 678 1631 
z
" transform="scale(0.015625)"/>
      <path id="DejaVuSans-32" d="M 1228 531 
L 3431 531 
L 3431 0 
L 469 0 
L 469 531 
Q 828 903 1448 1529 
Q 2069 2156 2228 2338 
Q 2531 2678 2651 2914 
Q 2772 3150 2772 3378 
Q 2772 3750 2511 3984 
Q 2250 4219 1831 4219 
Q 1534 4219 1204 4116 
Q 875 4013 500 3803 
L 500 4441 
Q 881 4594 1212 4672 
Q 1544 4750 1819 4750 
Q 2544 4750 2975 4387 
Q 3406 4025 3406 3419 
Q 3406 3131 3298 2873 
Q 3191 2616 2906 2266 
Q 2828 2175 2409 1742 
Q 1991 1309 1228 531 
z
" transform="scale(0.015625)"/>
      <path id="DejaVuSans-2d" d="M 313 2009 
L 1997 2009 
L 1997 1497 
L 313 1497 
L 313 2009 
z
" transform="scale(0.015625)"/>
      <path id="DejaVuSans-62" d="M 3116 1747 
Q 3116 2381 2855 2742 
Q 2594 3103 2138 3103 
Q 1681 3103 1420 2742 
Q 1159 2381 1159 1747 
Q 1159 1113 1420 752 
Q 1681 391 2138 391 
Q 2594 391 2855 752 
Q 3116 1113 3116 1747 
z
M 1159 2969 
Q 1341 3281 1617 3432 
Q 1894 3584 2278 3584 
Q 2916 3584 3314 3078 
Q 3713 2572 3713 1747 
Q 3713 922 3314 415 
Q 2916 -91 2278 -91 
Q 1894 -91 1617 61 
Q 1341 213 1159 525 
L 1159 0 
L 581 0 
L 581 4863 
L 1159 4863 
L 1159 2969 
z
" transform="scale(0.015625)"/>
      <path id="DejaVuSans-30" d="M 2034 4250 
Q 1547 4250 1301 3770 
Q 1056 3291 1056 2328 
Q 1056 1369 1301 889 
Q 1547 409 2034 409 
Q 2525 409 2770 889 
Q 3016 1369 3016 2328 
Q 3016 3291 2770 3770 
Q 2525 4250 2034 4250 
z
M 2034 4750 
Q 2819 4750 3233 4129 
Q 3647 3509 3647 2328 
Q 3647 1150 3233 529 
Q 2819 -91 2034 -91 
Q 1250 -91 836 529 
Q 422 1150 422 2328 
Q 422 3509 836 4129 
Q 1250 4750 2034 4750 
z
" transform="scale(0.015625)"/>
      <path id="DejaVuSans-33" d="M 2597 2516 
Q 3050 2419 3304 2112 
Q 3559 1806 3559 1356 
Q 3559 666 3084 287 
Q 2609 -91 1734 -91 
Q 1441 -91 1130 -33 
Q 819 25 488 141 
L 488 750 
Q 750 597 1062 519 
Q 1375 441 1716 441 
Q 2309 441 2620 675 
Q 2931 909 2931 1356 
Q 2931 1769 2642 2001 
Q 2353 2234 1838 2234 
L 1294 2234 
L 1294 2753 
L 1863 2753 
Q 2328 2753 2575 2939 
Q 2822 3125 2822 3475 
Q 2822 3834 2567 4026 
Q 2313 4219 1838 4219 
Q 1578 4219 1281 4162 
Q 984 4106 628 3988 
L 628 4550 
Q 988 4650 1302 4700 
Q 1616 4750 1894 4750 
Q 2613 4750 3031 4423 
Q 3450 4097 3450 3541 
Q 3450 3153 3228 2886 
Q 3006 2619 2597 2516 
z
" transform="scale(0.015625)"/>
      <path id="DejaVuSans-29" d="M 513 4856 
L 1013 4856 
Q 1481 4119 1714 3412 
Q 1947 2706 1947 2009 
Q 1947 1309 1714 600 
Q 1481 -109 1013 -844 
L 513 -844 
Q 928 -128 1133 580 
Q 1338 1288 1338 2009 
Q 1338 2731 1133 3434 
Q 928 4138 513 4856 
z
" transform="scale(0.015625)"/>
     </defs>
     <use xlink:href="#DejaVuSans-41"/>
     <use xlink:href="#DejaVuSans-67" transform="translate(68.408203 0)"/>
     <use xlink:href="#DejaVuSans-69" transform="translate(131.884766 0)"/>
     <use xlink:href="#DejaVuSans-6c" transform="translate(159.667969 0)"/>
     <use xlink:href="#DejaVuSans-65" transform="translate(187.451172 0)"/>
     <use xlink:href="#DejaVuSans-6e" transform="translate(248.974609 0)"/>
     <use xlink:href="#DejaVuSans-74" transform="translate(312.353516 0)"/>
     <use xlink:href="#DejaVuSans-20" transform="translate(351.5625 0)"/>
     <use xlink:href="#DejaVuSans-2e" transform="translate(383.349609 0)"/>
     <use xlink:href="#DejaVuSans-6d" transform="translate(415.136719 0)"/>
     <use xlink:href="#DejaVuSans-73" transform="translate(512.548828 0)"/>
     <use xlink:href="#DejaVuSans-20" transform="translate(564.648438 0)"/>
     <use xlink:href="#DejaVuSans-69" transform="translate(596.435547 0)"/>
     <use xlink:href="#DejaVuSans-6e" transform="translate(624.21875 0)"/>
     <use xlink:href="#DejaVuSans-74" transform="translate(687.597656 0)"/>
     <use xlink:href="#DejaVuSans-65" transform="translate(726.806641 0)"/>
     <use xlink:href="#DejaVuSans-6e" transform="translate(788.330078 0)"/>
     <use xlink:href="#DejaVuSans-73" transform="translate(851.708984 0)"/>
     <use xlink:href="#DejaVuSans-69" transform="translate(903.808594 0)"/>
     <use xlink:href="#DejaVuSans-74" transform="translate(931.591797 0)"/>
     <use xlink:href="#DejaVuSans-69" transform="translate(970.800781 0)"/>
     <use xlink:href="#DejaVuSans-65" transform="translate(998.583984 0)"/>
     <use xlink:href="#DejaVuSans-73" transform="translate(1060.107422 0)"/>
     <use xlink:href="#DejaVuSans-20" transform="translate(1112.207031 0)"/>
     <use xlink:href="#DejaVuSans-73" transform="translate(1143.994141 0)"/>
     <use xlink:href="#DejaVuSans-70" transform="translate(1196.09375 0)"/>
     <use xlink:href="#DejaVuSans-61" transform="translate(1259.570312 0)"/>
     <use xlink:href="#DejaVuSans-6e" transform="translate(1320.849609 0)"/>
     <use xlink:href="#DejaVuSans-20" transform="translate(1384.228516 0)"/>
     <use xlink:href="#DejaVuSans-61" transform="translate(1416.015625 0)"/>
     <use xlink:href="#DejaVuSans-20" transform="translate(1477.294922 0)"/>
     <use xlink:href="#DejaVuSans-77" transform="translate(1509.082031 0)"/>
     <use xlink:href="#DejaVuSans-69" transform="translate(1590.869141 0)"/>
     <use xlink:href="#DejaVuSans-64" transform="translate(1618.652344 0)"/>
     <use xlink:href="#DejaVuSans-65" transform="translate(1682.128906 0)"/>
     <use xlink:href="#DejaVuSans-20" transform="translate(1743.652344 0)"/>
     <use xlink:href="#DejaVuSans-72" transform="translate(1775.439453 0)"/>
     <use xlink:href="#DejaVuSans-61" transform="translate(1816.552734 0)"/>
     <use xlink:href="#DejaVuSans-6e" transform="translate(1877.832031 0)"/>
     <use xlink:href="#DejaVuSans-67" transform="translate(1941.210938 0)"/>
     <use xlink:href="#DejaVuSans-65" transform="translate(2004.6875 0)"/>
     <use xlink:href="#DejaVuSans-2c" transform="translate(2066.210938 0)"/>
     <use xlink:href="#DejaVuSans-20" transform="translate(2097.998047 0)"/>
     <use xlink:href="#DejaVuSans-73" transform="translate(2129.785156 0)"/>
     <use xlink:href="#DejaVuSans-6f" transform="translate(2181.884766 0)"/>
     <use xlink:href="#DejaVuSans-20" transform="translate(2243.066406 0)"/>
     <use xlink:href="#DejaVuSans-65" transform="translate(2274.853516 0)"/>
     <use xlink:href="#DejaVuSans-61" transform="translate(2336.376953 0)"/>
     <use xlink:href="#DejaVuSans-63" transform="translate(2397.65625 0)"/>
     <use xlink:href="#DejaVuSans-68" transform="translate(2452.636719 0)"/>
     <use xlink:href="#DejaVuSans-20" transform="translate(2516.015625 0)"/>
     <use xlink:href="#DejaVuSans-69" transform="translate(2547.802734 0)"/>
     <use xlink:href="#DejaVuSans-73" transform="translate(2575.585938 0)"/>
     <use xlink:href="#DejaVuSans-20" transform="translate(2627.685547 0)"/>
     <use xlink:href="#DejaVuSans-73" transform="translate(2659.472656 0)"/>
     <use xlink:href="#DejaVuSans-74" transform="translate(2711.572266 0)"/>
     <use xlink:href="#DejaVuSans-6f" transform="translate(2750.78125 0)"/>
     <use xlink:href="#DejaVuSans-72" transform="translate(2811.962891 0)"/>
     <use xlink:href="#DejaVuSans-65" transform="translate(2850.826172 0)"/>
     <use xlink:href="#DejaVuSans-64" transform="translate(2912.349609 0)"/>
     <use xlink:href="#DejaVuSans-20" transform="translate(2975.826172 0)"/>
     <use xlink:href="#DejaVuSans-61" transform="translate(3007.613281 0)"/>
     <use xlink:href="#DejaVuSans-73" transform="translate(3068.892578 0)"/>
     <use xlink:href="#DejaVuSans-20" transform="translate(3120.992188 0)"/>
     <use xlink:href="#DejaVuSans-20" transform="translate(3152.779297 0)"/>
     <use xlink:href="#DejaVuSans-76" transform="translate(3184.566406 0)"/>
     <use xlink:href="#DejaVuSans-61" transform="translate(3243.746094 0)"/>
     <use xlink:href="#DejaVuSans-6c" transform="translate(3305.025391 0)"/>
     <use xlink:href="#DejaVuSans-75" transform="translate(3332.808594 0)"/>
     <use xlink:href="#DejaVuSans-65" transform="translate(3396.1875 0)"/>
     <use xlink:href="#DejaVuSans-20" transform="translate(3457.710938 0)"/>
     <use xlink:href="#DejaVuSans-78" transform="translate(3489.498047 0)"/>
     <use xlink:href="#DejaVuSans-20" transform="translate(3548.677734 0)"/>
     <use xlink:href="#DejaVuSans-38" transform="translate(3580.464844 0)"/>
     <use xlink:href="#DejaVuSans-20" transform="translate(3644.087891 0)"/>
     <use xlink:href="#DejaVuSans-2a" transform="translate(3675.875 0)"/>
     <use xlink:href="#DejaVuSans-2a" transform="translate(3725.875 0)"/>
     <use xlink:href="#DejaVuSans-20" transform="translate(3775.875 0)"/>
     <use xlink:href="#DejaVuSans-68" transform="translate(3807.662109 0)"/>
     <use xlink:href="#DejaVuSans-65" transform="translate(3871.041016 0)"/>
     <use xlink:href="#DejaVuSans-61" transform="translate(3932.564453 0)"/>
     <use xlink:href="#DejaVuSans-64" transform="translate(3993.84375 0)"/>
     <use xlink:href="#DejaVuSans-20" transform="translate(4057.320312 0)"/>
     <use xlink:href="#DejaVuSans-20" transform="translate(4089.107422 0)"/>
     <use xlink:href="#DejaVuSans-28" transform="translate(4120.894531 0)"/>
     <use xlink:href="#DejaVuSans-68" transform="translate(4159.908203 0)"/>
     <use xlink:href="#DejaVuSans-65" transform="translate(4223.287109 0)"/>
     <use xlink:href="#DejaVuSans-61" transform="translate(4284.810547 0)"/>
     <use xlink:href="#DejaVuSans-64" transform="translate(4346.089844 0)"/>
     <use xlink:href="#DejaVuSans-20" transform="translate(4409.566406 0)"/>
     <use xlink:href="#DejaVuSans-3d" transform="translate(4441.353516 0)"/>
     <use xlink:href="#DejaVuSans-20" transform="translate(4525.142578 0)"/>
     <use xlink:href="#DejaVuSans-61" transform="translate(4556.929688 0)"/>
     <use xlink:href="#DejaVuSans-20" transform="translate(4618.208984 0)"/>
     <use xlink:href="#DejaVuSans-32" transform="translate(4649.996094 0)"/>
     <use xlink:href="#DejaVuSans-2d" transform="translate(4713.619141 0)"/>
     <use xlink:href="#DejaVuSans-62" transform="translate(4749.703125 0)"/>
     <use xlink:href="#DejaVuSans-69" transform="translate(4813.179688 0)"/>
     <use xlink:href="#DejaVuSans-74" transform="translate(4840.962891 0)"/>
     <use xlink:href="#DejaVuSans-20" transform="translate(4880.171875 0)"/>
     <use xlink:href="#DejaVuSans-65" transform="translate(4911.958984 0)"/>
     <use xlink:href="#DejaVuSans-78" transform="translate(4971.732422 0)"/>
     <use xlink:href="#DejaVuSans-70" transform="translate(5030.912109 0)"/>
     <use xlink:href="#DejaVuSans-6f" transform="translate(5094.388672 0)"/>
     <use xlink:href="#DejaVuSans-6e" transform="translate(5155.570312 0)"/>
     <use xlink:href="#DejaVuSans-65" transform="translate(5218.949219 0)"/>
     <use xlink:href="#DejaVuSans-6e" transform="translate(5280.472656 0)"/>
     <use xlink:href="#DejaVuSans-74" transform="translate(5343.851562 0)"/>
     <use xlink:href="#DejaVuSans-2c" transform="translate(5383.060547 0)"/>
     <use xlink:href="#DejaVuSans-20" transform="translate(5414.847656 0)"/>
     <use xlink:href="#DejaVuSans-30" transform="translate(5446.634766 0)"/>
     <use xlink:href="#DejaVuSans-2e" transform="translate(5510.257812 0)"/>
     <use xlink:href="#DejaVuSans-2e" transform="translate(5542.044922 0)"/>
     <use xlink:href="#DejaVuSans-33" transform="translate(5573.832031 0)"/>
     <use xlink:href="#DejaVuSans-29" transform="translate(5637.455078 0)"/>
    </g>
   </g>
   <g id="text_2">
    <!-- SLOW: evaluate the function for every value -->
    <g style="fill: #b5651d" transform="translate(17.856 49.538221) scale(0.12 -0.12)">
     <defs>
      <path id="DejaVuSans-Bold-53" d="M 3834 4519 
L 3834 3531 
Q 3450 3703 3084 3790 
Q 2719 3878 2394 3878 
Q 1963 3878 1756 3759 
Q 1550 3641 1550 3391 
Q 1550 3203 1689 3098 
Q 1828 2994 2194 2919 
L 2706 2816 
Q 3484 2659 3812 2340 
Q 4141 2022 4141 1434 
Q 4141 663 3683 286 
Q 3225 -91 2284 -91 
Q 1841 -91 1394 -6 
Q 947 78 500 244 
L 500 1259 
Q 947 1022 1364 901 
Q 1781 781 2169 781 
Q 2563 781 2772 912 
Q 2981 1044 2981 1288 
Q 2981 1506 2839 1625 
Q 2697 1744 2272 1838 
L 1806 1941 
Q 1106 2091 782 2419 
Q 459 2747 459 3303 
Q 459 4000 909 4375 
Q 1359 4750 2203 4750 
Q 2588 4750 2994 4692 
Q 3400 4634 3834 4519 
z
" transform="scale(0.015625)"/>
      <path id="DejaVuSans-Bold-4c" d="M 588 4666 
L 1791 4666 
L 1791 909 
L 3903 909 
L 3903 0 
L 588 0 
L 588 4666 
z
" transform="scale(0.015625)"/>
      <path id="DejaVuSans-Bold-4f" d="M 2719 3878 
Q 2169 3878 1866 3472 
Q 1563 3066 1563 2328 
Q 1563 1594 1866 1187 
Q 2169 781 2719 781 
Q 3272 781 3575 1187 
Q 3878 1594 3878 2328 
Q 3878 3066 3575 3472 
Q 3272 3878 2719 3878 
z
M 2719 4750 
Q 3844 4750 4481 4106 
Q 5119 3463 5119 2328 
Q 5119 1197 4481 553 
Q 3844 -91 2719 -91 
Q 1597 -91 958 553 
Q 319 1197 319 2328 
Q 319 3463 958 4106 
Q 1597 4750 2719 4750 
z
" transform="scale(0.015625)"/>
      <path id="DejaVuSans-Bold-57" d="M 191 4666 
L 1344 4666 
L 2150 1275 
L 2950 4666 
L 4109 4666 
L 4909 1275 
L 5716 4666 
L 6859 4666 
L 5759 0 
L 4372 0 
L 3525 3547 
L 2688 0 
L 1300 0 
L 191 4666 
z
" transform="scale(0.015625)"/>
      <path id="DejaVuSans-Bold-3a" d="M 716 3500 
L 1844 3500 
L 1844 2291 
L 716 2291 
L 716 3500 
z
M 716 1209 
L 1844 1209 
L 1844 0 
L 716 0 
L 716 1209 
z
" transform="scale(0.015625)"/>
      <path id="DejaVuSans-Bold-20" transform="scale(0.015625)"/>
      <path id="DejaVuSans-Bold-65" d="M 4031 1759 
L 4031 1441 
L 1416 1441 
Q 1456 1047 1700 850 
Q 1944 653 2381 653 
Q 2734 653 3104 758 
Q 3475 863 3866 1075 
L 3866 213 
Q 3469 63 3072 -14 
Q 2675 -91 2278 -91 
Q 1328 -91 801 392 
Q 275 875 275 1747 
Q 275 2603 792 3093 
Q 1309 3584 2216 3584 
Q 3041 3584 3536 3087 
Q 4031 2591 4031 1759 
z
M 2881 2131 
Q 2881 2450 2695 2645 
Q 2509 2841 2209 2841 
Q 1884 2841 1681 2658 
Q 1478 2475 1428 2131 
L 2881 2131 
z
" transform="scale(0.015625)"/>
      <path id="DejaVuSans-Bold-76" d="M 97 3500 
L 1216 3500 
L 2088 1081 
L 2956 3500 
L 4078 3500 
L 2700 0 
L 1472 0 
L 97 3500 
z
" transform="scale(0.015625)"/>
      <path id="DejaVuSans-Bold-61" d="M 2106 1575 
Q 1756 1575 1579 1456 
Q 1403 1338 1403 1106 
Q 1403 894 1545 773 
Q 1688 653 1941 653 
Q 2256 653 2472 879 
Q 2688 1106 2688 1447 
L 2688 1575 
L 2106 1575 
z
M 3816 1997 
L 3816 0 
L 2688 0 
L 2688 519 
Q 2463 200 2181 54 
Q 1900 -91 1497 -91 
Q 953 -91 614 226 
Q 275 544 275 1050 
Q 275 1666 698 1953 
Q 1122 2241 2028 2241 
L 2688 2241 
L 2688 2328 
Q 2688 2594 2478 2717 
Q 2269 2841 1825 2841 
Q 1466 2841 1156 2769 
Q 847 2697 581 2553 
L 581 3406 
Q 941 3494 1303 3539 
Q 1666 3584 2028 3584 
Q 2975 3584 3395 3211 
Q 3816 2838 3816 1997 
z
" transform="scale(0.015625)"/>
      <path id="DejaVuSans-Bold-6c" d="M 538 4863 
L 1656 4863 
L 1656 0 
L 538 0 
L 538 4863 
z
" transform="scale(0.015625)"/>
      <path id="DejaVuSans-Bold-75" d="M 500 1363 
L 500 3500 
L 1625 3500 
L 1625 3150 
Q 1625 2866 1622 2436 
Q 1619 2006 1619 1863 
Q 1619 1441 1641 1255 
Q 1663 1069 1716 984 
Q 1784 875 1895 815 
Q 2006 756 2150 756 
Q 2500 756 2700 1025 
Q 2900 1294 2900 1772 
L 2900 3500 
L 4019 3500 
L 4019 0 
L 2900 0 
L 2900 506 
Q 2647 200 2364 54 
Q 2081 -91 1741 -91 
Q 1134 -91 817 281 
Q 500 653 500 1363 
z
" transform="scale(0.015625)"/>
      <path id="DejaVuSans-Bold-74" d="M 1759 4494 
L 1759 3500 
L 2913 3500 
L 2913 2700 
L 1759 2700 
L 1759 1216 
Q 1759 972 1856 886 
Q 1953 800 2241 800 
L 2816 800 
L 2816 0 
L 1856 0 
Q 1194 0 917 276 
Q 641 553 641 1216 
L 641 2700 
L 84 2700 
L 84 3500 
L 641 3500 
L 641 4494 
L 1759 4494 
z
" transform="scale(0.015625)"/>
      <path id="DejaVuSans-Bold-68" d="M 4056 2131 
L 4056 0 
L 2931 0 
L 2931 347 
L 2931 1625 
Q 2931 2084 2911 2256 
Q 2891 2428 2841 2509 
Q 2775 2619 2662 2680 
Q 2550 2741 2406 2741 
Q 2056 2741 1856 2470 
Q 1656 2200 1656 1722 
L 1656 0 
L 538 0 
L 538 4863 
L 1656 4863 
L 1656 2988 
Q 1909 3294 2193 3439 
Q 2478 3584 2822 3584 
Q 3428 3584 3742 3212 
Q 4056 2841 4056 2131 
z
" transform="scale(0.015625)"/>
      <path id="DejaVuSans-Bold-66" d="M 2841 4863 
L 2841 4128 
L 2222 4128 
Q 1984 4128 1890 4042 
Q 1797 3956 1797 3744 
L 1797 3500 
L 2753 3500 
L 2753 2700 
L 1797 2700 
L 1797 0 
L 678 0 
L 678 2700 
L 122 2700 
L 122 3500 
L 678 3500 
L 678 3744 
Q 678 4316 997 4589 
Q 1316 4863 1984 4863 
L 2841 4863 
z
" transform="scale(0.015625)"/>
      <path id="DejaVuSans-Bold-6e" d="M 4056 2131 
L 4056 0 
L 2931 0 
L 2931 347 
L 2931 1631 
Q 2931 2084 2911 2256 
Q 2891 2428 2841 2509 
Q 2775 2619 2662 2680 
Q 2550 2741 2406 2741 
Q 2056 2741 1856 2470 
Q 1656 2200 1656 1722 
L 1656 0 
L 538 0 
L 538 3500 
L 1656 3500 
L 1656 2988 
Q 1909 3294 2193 3439 
Q 2478 3584 2822 3584 
Q 3428 3584 3742 3212 
Q 4056 2841 4056 2131 
z
" transform="scale(0.015625)"/>
      <path id="DejaVuSans-Bold-63" d="M 3366 3391 
L 3366 2478 
Q 3138 2634 2908 2709 
Q 2678 2784 2431 2784 
Q 1963 2784 1702 2511 
Q 1441 2238 1441 1747 
Q 1441 1256 1702 982 
Q 1963 709 2431 709 
Q 2694 709 2930 787 
Q 3166 866 3366 1019 
L 3366 103 
Q 3103 6 2833 -42 
Q 2563 -91 2291 -91 
Q 1344 -91 809 395 
Q 275 881 275 1747 
Q 275 2613 809 3098 
Q 1344 3584 2291 3584 
Q 2566 3584 2833 3536 
Q 3100 3488 3366 3391 
z
" transform="scale(0.015625)"/>
      <path id="DejaVuSans-Bold-69" d="M 538 3500 
L 1656 3500 
L 1656 0 
L 538 0 
L 538 3500 
z
M 538 4863 
L 1656 4863 
L 1656 3950 
L 538 3950 
L 538 4863 
z
" transform="scale(0.015625)"/>
      <path id="DejaVuSans-Bold-6f" d="M 2203 2784 
Q 1831 2784 1636 2517 
Q 1441 2250 1441 1747 
Q 1441 1244 1636 976 
Q 1831 709 2203 709 
Q 2569 709 2762 976 
Q 2956 1244 2956 1747 
Q 2956 2250 2762 2517 
Q 2569 2784 2203 2784 
z
M 2203 3584 
Q 3106 3584 3614 3096 
Q 4122 2609 4122 1747 
Q 4122 884 3614 396 
Q 3106 -91 2203 -91 
Q 1297 -91 786 396 
Q 275 884 275 1747 
Q 275 2609 786 3096 
Q 1297 3584 2203 3584 
z
" transform="scale(0.015625)"/>
      <path id="DejaVuSans-Bold-72" d="M 3138 2547 
Q 2991 2616 2845 2648 
Q 2700 2681 2553 2681 
Q 2122 2681 1889 2404 
Q 1656 2128 1656 1613 
L 1656 0 
L 538 0 
L 538 3500 
L 1656 3500 
L 1656 2925 
Q 1872 3269 2151 3426 
Q 2431 3584 2822 3584 
Q 2878 3584 2943 3579 
Q 3009 3575 3134 3559 
L 3138 2547 
z
" transform="scale(0.015625)"/>
      <path id="DejaVuSans-Bold-79" d="M 78 3500 
L 1197 3500 
L 2138 1125 
L 2938 3500 
L 4056 3500 
L 2584 -331 
Q 2363 -916 2067 -1148 
Q 1772 -1381 1288 -1381 
L 641 -1381 
L 641 -647 
L 991 -647 
Q 1275 -647 1404 -556 
Q 1534 -466 1606 -231 
L 1638 -134 
L 78 3500 
z
" transform="scale(0.015625)"/>
     </defs>
     <use xlink:href="#DejaVuSans-Bold-53"/>
     <use xlink:href="#DejaVuSans-Bold-4c" transform="translate(72.021484 0)"/>
     <use xlink:href="#DejaVuSans-Bold-4f" transform="translate(132.117188 0)"/>
     <use xlink:href="#DejaVuSans-Bold-57" transform="translate(217.126953 0)"/>
     <use xlink:href="#DejaVuSans-Bold-3a" transform="translate(324.304688 0)"/>
     <use xlink:href="#DejaVuSans-Bold-20" transform="translate(364.294922 0)"/>
     <use xlink:href="#DejaVuSans-Bold-65" transform="translate(399.109375 0)"/>
     <use xlink:href="#DejaVuSans-Bold-76" transform="translate(466.931641 0)"/>
     <use xlink:href="#DejaVuSans-Bold-61" transform="translate(532.117188 0)"/>
     <use xlink:href="#DejaVuSans-Bold-6c" transform="translate(599.597656 0)"/>
     <use xlink:href="#DejaVuSans-Bold-75" transform="translate(633.875 0)"/>
     <use xlink:href="#DejaVuSans-Bold-61" transform="translate(705.066406 0)"/>
     <use xlink:href="#DejaVuSans-Bold-74" transform="translate(772.546875 0)"/>
     <use xlink:href="#DejaVuSans-Bold-65" transform="translate(820.349609 0)"/>
     <use xlink:href="#DejaVuSans-Bold-20" transform="translate(888.171875 0)"/>
     <use xlink:href="#DejaVuSans-Bold-74" transform="translate(922.986328 0)"/>
     <use xlink:href="#DejaVuSans-Bold-68" transform="translate(970.789062 0)"/>
     <use xlink:href="#DejaVuSans-Bold-65" transform="translate(1041.980469 0)"/>
     <use xlink:href="#DejaVuSans-Bold-20" transform="translate(1109.802734 0)"/>
     <use xlink:href="#DejaVuSans-Bold-66" transform="translate(1144.617188 0)"/>
     <use xlink:href="#DejaVuSans-Bold-75" transform="translate(1188.123047 0)"/>
     <use xlink:href="#DejaVuSans-Bold-6e" transform="translate(1259.314453 0)"/>
     <use xlink:href="#DejaVuSans-Bold-63" transform="translate(1330.505859 0)"/>
     <use xlink:href="#DejaVuSans-Bold-74" transform="translate(1389.783203 0)"/>
     <use xlink:href="#DejaVuSans-Bold-69" transform="translate(1437.585938 0)"/>
     <use xlink:href="#DejaVuSans-Bold-6f" transform="translate(1471.863281 0)"/>
     <use xlink:href="#DejaVuSans-Bold-6e" transform="translate(1540.564453 0)"/>
     <use xlink:href="#DejaVuSans-Bold-20" transform="translate(1611.755859 0)"/>
     <use xlink:href="#DejaVuSans-Bold-66" transform="translate(1646.570312 0)"/>
     <use xlink:href="#DejaVuSans-Bold-6f" transform="translate(1690.076172 0)"/>
     <use xlink:href="#DejaVuSans-Bold-72" transform="translate(1758.777344 0)"/>
     <use xlink:href="#DejaVuSans-Bold-20" transform="translate(1808.09375 0)"/>
     <use xlink:href="#DejaVuSans-Bold-65" transform="translate(1842.908203 0)"/>
     <use xlink:href="#DejaVuSans-Bold-76" transform="translate(1910.730469 0)"/>
     <use xlink:href="#DejaVuSans-Bold-65" transform="translate(1975.916016 0)"/>
     <use xlink:href="#DejaVuSans-Bold-72" transform="translate(2043.738281 0)"/>
     <use xlink:href="#DejaVuSans-Bold-79" transform="translate(2093.054688 0)"/>
     <use xlink:href="#DejaVuSans-Bold-20" transform="translate(2158.240234 0)"/>
     <use xlink:href="#DejaVuSans-Bold-76" transform="translate(2193.054688 0)"/>
     <use xlink:href="#DejaVuSans-Bold-61" transform="translate(2258.240234 0)"/>
     <use xlink:href="#DejaVuSans-Bold-6c" transform="translate(2325.720703 0)"/>
     <use xlink:href="#DejaVuSans-Bold-75" transform="translate(2359.998047 0)"/>
     <use xlink:href="#DejaVuSans-Bold-65" transform="translate(2431.189453 0)"/>
    </g>
   </g>
   <g id="text_3">
    <!-- head = 2 -->
    <g style="fill: #2f3338" transform="translate(28.379819 75.278921) scale(0.0968 -0.0968)">
     <defs>
      <path id="DejaVuSans-Bold-64" d="M 2919 2988 
L 2919 4863 
L 4044 4863 
L 4044 0 
L 2919 0 
L 2919 506 
Q 2688 197 2409 53 
Q 2131 -91 1766 -91 
Q 1119 -91 703 423 
Q 288 938 288 1747 
Q 288 2556 703 3070 
Q 1119 3584 1766 3584 
Q 2128 3584 2408 3439 
Q 2688 3294 2919 2988 
z
M 2181 722 
Q 2541 722 2730 984 
Q 2919 1247 2919 1747 
Q 2919 2247 2730 2509 
Q 2541 2772 2181 2772 
Q 1825 2772 1636 2509 
Q 1447 2247 1447 1747 
Q 1447 1247 1636 984 
Q 1825 722 2181 722 
z
" transform="scale(0.015625)"/>
      <path id="DejaVuSans-Bold-3d" d="M 678 3084 
L 4684 3084 
L 4684 2350 
L 678 2350 
L 678 3084 
z
M 678 1663 
L 4684 1663 
L 4684 922 
L 678 922 
L 678 1663 
z
" transform="scale(0.015625)"/>
      <path id="DejaVuSans-Bold-32" d="M 1844 884 
L 3897 884 
L 3897 0 
L 506 0 
L 506 884 
L 2209 2388 
Q 2438 2594 2547 2791 
Q 2656 2988 2656 3200 
Q 2656 3528 2436 3728 
Q 2216 3928 1850 3928 
Q 1569 3928 1234 3808 
Q 900 3688 519 3450 
L 519 4475 
Q 925 4609 1322 4679 
Q 1719 4750 2100 4750 
Q 2938 4750 3402 4381 
Q 3866 4013 3866 3353 
Q 3866 2972 3669 2642 
Q 3472 2313 2841 1759 
L 1844 884 
z
" transform="scale(0.015625)"/>
     </defs>
     <use xlink:href="#DejaVuSans-Bold-68"/>
     <use xlink:href="#DejaVuSans-Bold-65" transform="translate(71.191406 0)"/>
     <use xlink:href="#DejaVuSans-Bold-61" transform="translate(139.013672 0)"/>
     <use xlink:href="#DejaVuSans-Bold-64" transform="translate(206.494141 0)"/>
     <use xlink:href="#DejaVuSans-Bold-20" transform="translate(278.076172 0)"/>
     <use xlink:href="#DejaVuSans-Bold-3d" transform="translate(312.890625 0)"/>
     <use xlink:href="#DejaVuSans-Bold-20" transform="translate(396.679688 0)"/>
     <use xlink:href="#DejaVuSans-Bold-32" transform="translate(431.494141 0)"/>
    </g>
   </g>
   <g id="text_4">
    <!-- 8 ** head -->
    <g style="fill: #2f3338" transform="translate(131.375475 75.521746) scale(0.1056 -0.1056)">
     <defs>
      <path id="DejaVuSansMono-Bold-38" d="M 1925 2081 
Q 1616 2081 1425 1886 
Q 1234 1691 1234 1369 
Q 1234 1047 1425 850 
Q 1616 653 1925 653 
Q 2234 653 2426 853 
Q 2619 1053 2619 1369 
Q 2619 1691 2428 1886 
Q 2238 2081 1925 2081 
z
M 1241 2472 
Q 888 2594 703 2855 
Q 519 3116 519 3494 
Q 519 4075 897 4412 
Q 1275 4750 1925 4750 
Q 2578 4750 2956 4412 
Q 3334 4075 3334 3494 
Q 3334 3119 3153 2858 
Q 2972 2597 2625 2472 
Q 3013 2353 3231 2047 
Q 3450 1741 3450 1313 
Q 3450 641 3053 275 
Q 2656 -91 1925 -91 
Q 1197 -91 800 275 
Q 403 641 403 1313 
Q 403 1744 625 2050 
Q 847 2356 1241 2472 
z
M 1338 3419 
Q 1338 3144 1495 2983 
Q 1653 2822 1925 2822 
Q 2200 2822 2358 2983 
Q 2516 3144 2516 3419 
Q 2516 3691 2358 3848 
Q 2200 4006 1925 4006 
Q 1656 4006 1497 3847 
Q 1338 3688 1338 3419 
z
" transform="scale(0.015625)"/>
      <path id="DejaVuSansMono-Bold-20" transform="scale(0.015625)"/>
      <path id="DejaVuSansMono-Bold-2a" d="M 3463 3803 
L 2431 3263 
L 3463 2719 
L 3225 2278 
L 2188 2853 
L 2188 1778 
L 1650 1778 
L 1650 2853 
L 616 2278 
L 378 2719 
L 1416 3263 
L 378 3803 
L 616 4244 
L 1650 3675 
L 1650 4750 
L 2188 4750 
L 2188 3675 
L 3225 4244 
L 3463 3803 
z
" transform="scale(0.015625)"/>
      <path id="DejaVuSansMono-Bold-68" d="M 3347 2272 
L 3347 0 
L 2438 0 
L 2438 2131 
Q 2438 2509 2330 2671 
Q 2222 2834 1978 2834 
Q 1728 2834 1587 2614 
Q 1447 2394 1447 2003 
L 1447 0 
L 538 0 
L 538 4863 
L 1447 4863 
L 1447 2975 
Q 1544 3266 1778 3425 
Q 2013 3584 2344 3584 
Q 2841 3584 3094 3254 
Q 3347 2925 3347 2272 
z
" transform="scale(0.015625)"/>
      <path id="DejaVuSansMono-Bold-65" d="M 3444 172 
Q 3125 41 2794 -25 
Q 2463 -91 2094 -91 
Q 1216 -91 752 379 
Q 288 850 288 1734 
Q 288 2591 734 3087 
Q 1181 3584 1953 3584 
Q 2731 3584 3161 3123 
Q 3591 2663 3591 1825 
L 3591 1453 
L 1219 1453 
Q 1222 1041 1462 837 
Q 1703 634 2181 634 
Q 2497 634 2803 725 
Q 3109 816 3444 1013 
L 3444 172 
z
M 2669 2141 
Q 2663 2503 2483 2689 
Q 2303 2875 1953 2875 
Q 1638 2875 1450 2683 
Q 1263 2491 1228 2138 
L 2669 2141 
z
" transform="scale(0.015625)"/>
      <path id="DejaVuSansMono-Bold-61" d="M 2188 1644 
Q 1675 1644 1472 1512 
Q 1269 1381 1269 1063 
Q 1269 825 1409 684 
Q 1550 544 1791 544 
Q 2153 544 2353 817 
Q 2553 1091 2553 1581 
L 2553 1644 
L 2188 1644 
z
M 3463 1997 
L 3463 0 
L 2553 0 
L 2553 391 
Q 2388 159 2128 34 
Q 1869 -91 1556 -91 
Q 959 -91 626 225 
Q 294 541 294 1106 
Q 294 1719 691 2011 
Q 1088 2303 1919 2303 
L 2553 2303 
L 2553 2456 
Q 2553 2678 2392 2792 
Q 2231 2906 1919 2906 
Q 1591 2906 1283 2823 
Q 975 2741 641 2559 
L 641 3341 
Q 944 3466 1256 3525 
Q 1569 3584 1919 3584 
Q 2772 3584 3117 3237 
Q 3463 2891 3463 1997 
z
" transform="scale(0.015625)"/>
      <path id="DejaVuSansMono-Bold-64" d="M 2472 3003 
L 2472 4863 
L 3384 4863 
L 3384 0 
L 2472 0 
L 2472 519 
Q 2325 216 2092 62 
Q 1859 -91 1544 -91 
Q 944 -91 612 390 
Q 281 872 281 1747 
Q 281 2634 617 3109 
Q 953 3584 1575 3584 
Q 1856 3584 2079 3439 
Q 2303 3294 2472 3003 
z
M 1197 1741 
Q 1197 1234 1365 946 
Q 1534 659 1831 659 
Q 2128 659 2300 946 
Q 2472 1234 2472 1741 
Q 2472 2247 2300 2534 
Q 2128 2822 1831 2822 
Q 1534 2822 1365 2534 
Q 1197 2247 1197 1741 
z
" transform="scale(0.015625)"/>
     </defs>
     <use xlink:href="#DejaVuSansMono-Bold-38"/>
     <use xlink:href="#DejaVuSansMono-Bold-20" transform="translate(60.205078 0)"/>
     <use xlink:href="#DejaVuSansMono-Bold-2a" transform="translate(120.410156 0)"/>
     <use xlink:href="#DejaVuSansMono-Bold-2a" transform="translate(180.615234 0)"/>
     <use xlink:href="#DejaVuSansMono-Bold-20" transform="translate(240.820312 0)"/>
     <use xlink:href="#DejaVuSansMono-Bold-68" transform="translate(301.025391 0)"/>
     <use xlink:href="#DejaVuSansMono-Bold-65" transform="translate(361.230469 0)"/>
     <use xlink:href="#DejaVuSansMono-Bold-61" transform="translate(421.435547 0)"/>
     <use xlink:href="#DejaVuSansMono-Bold-64" transform="translate(481.640625 0)"/>
    </g>
   </g>
   <g id="text_5">
    <!-- 64 -->
    <g style="fill: #2f3338" transform="translate(253.94055 75.521746) scale(0.1056 -0.1056)">
     <defs>
      <path id="DejaVuSans-Bold-36" d="M 2316 2303 
Q 2000 2303 1842 2098 
Q 1684 1894 1684 1484 
Q 1684 1075 1842 870 
Q 2000 666 2316 666 
Q 2634 666 2792 870 
Q 2950 1075 2950 1484 
Q 2950 1894 2792 2098 
Q 2634 2303 2316 2303 
z
M 3803 4544 
L 3803 3681 
Q 3506 3822 3243 3889 
Q 2981 3956 2731 3956 
Q 2194 3956 1894 3657 
Q 1594 3359 1544 2772 
Q 1750 2925 1990 3001 
Q 2231 3078 2516 3078 
Q 3231 3078 3670 2659 
Q 4109 2241 4109 1563 
Q 4109 813 3618 361 
Q 3128 -91 2303 -91 
Q 1394 -91 895 523 
Q 397 1138 397 2266 
Q 397 3422 980 4083 
Q 1563 4744 2578 4744 
Q 2900 4744 3203 4694 
Q 3506 4644 3803 4544 
z
" transform="scale(0.015625)"/>
      <path id="DejaVuSans-Bold-34" d="M 2356 3675 
L 1038 1722 
L 2356 1722 
L 2356 3675 
z
M 2156 4666 
L 3494 4666 
L 3494 1722 
L 4159 1722 
L 4159 850 
L 3494 850 
L 3494 0 
L 2356 0 
L 2356 850 
L 288 850 
L 288 1881 
L 2156 4666 
z
" transform="scale(0.015625)"/>
     </defs>
     <use xlink:href="#DejaVuSans-Bold-36"/>
     <use xlink:href="#DejaVuSans-Bold-34" transform="translate(69.580078 0)"/>
    </g>
   </g>
   <g id="text_6">
    <!-- done N times -->
    <g style="fill: #888888" transform="translate(314.208 75.502267) scale(0.1 -0.1)">
     <defs>
      <path id="DejaVuSans-4e" d="M 628 4666 
L 1478 4666 
L 3547 763 
L 3547 4666 
L 4159 4666 
L 4159 0 
L 3309 0 
L 1241 3903 
L 1241 0 
L 628 0 
L 628 4666 
z
" transform="scale(0.015625)"/>
     </defs>
     <use xlink:href="#DejaVuSans-64"/>
     <use xlink:href="#DejaVuSans-6f" transform="translate(63.476562 0)"/>
     <use xlink:href="#DejaVuSans-6e" transform="translate(124.658203 0)"/>
     <use xlink:href="#DejaVuSans-65" transform="translate(188.037109 0)"/>
     <use xlink:href="#DejaVuSans-20" transform="translate(249.560547 0)"/>
     <use xlink:href="#DejaVuSans-4e" transform="translate(281.347656 0)"/>
     <use xlink:href="#DejaVuSans-20" transform="translate(356.152344 0)"/>
     <use xlink:href="#DejaVuSans-74" transform="translate(387.939453 0)"/>
     <use xlink:href="#DejaVuSans-69" transform="translate(427.148438 0)"/>
     <use xlink:href="#DejaVuSans-6d" transform="translate(454.931641 0)"/>
     <use xlink:href="#DejaVuSans-65" transform="translate(552.34375 0)"/>
     <use xlink:href="#DejaVuSans-73" transform="translate(613.867188 0)"/>
    </g>
   </g>
   <g id="text_7">
    <!-- FAST: precompute the 4 results once, then index -->
    <g style="fill: #3f7d4f" transform="translate(17.856 127.911865) scale(0.12 -0.12)">
     <defs>
      <path id="DejaVuSans-Bold-46" d="M 588 4666 
L 3834 4666 
L 3834 3756 
L 1791 3756 
L 1791 2888 
L 3713 2888 
L 3713 1978 
L 1791 1978 
L 1791 0 
L 588 0 
L 588 4666 
z
" transform="scale(0.015625)"/>
      <path id="DejaVuSans-Bold-41" d="M 3419 850 
L 1538 850 
L 1241 0 
L 31 0 
L 1759 4666 
L 3194 4666 
L 4922 0 
L 3713 0 
L 3419 850 
z
M 1838 1716 
L 3116 1716 
L 2478 3572 
L 1838 1716 
z
" transform="scale(0.015625)"/>
      <path id="DejaVuSans-Bold-54" d="M 31 4666 
L 4331 4666 
L 4331 3756 
L 2784 3756 
L 2784 0 
L 1581 0 
L 1581 3756 
L 31 3756 
L 31 4666 
z
" transform="scale(0.015625)"/>
      <path id="DejaVuSans-Bold-70" d="M 1656 506 
L 1656 -1331 
L 538 -1331 
L 538 3500 
L 1656 3500 
L 1656 2988 
Q 1888 3294 2169 3439 
Q 2450 3584 2816 3584 
Q 3463 3584 3878 3070 
Q 4294 2556 4294 1747 
Q 4294 938 3878 423 
Q 3463 -91 2816 -91 
Q 2450 -91 2169 54 
Q 1888 200 1656 506 
z
M 2400 2772 
Q 2041 2772 1848 2508 
Q 1656 2244 1656 1747 
Q 1656 1250 1848 986 
Q 2041 722 2400 722 
Q 2759 722 2948 984 
Q 3138 1247 3138 1747 
Q 3138 2247 2948 2509 
Q 2759 2772 2400 2772 
z
" transform="scale(0.015625)"/>
      <path id="DejaVuSans-Bold-6d" d="M 3781 2919 
Q 3994 3244 4286 3414 
Q 4578 3584 4928 3584 
Q 5531 3584 5847 3212 
Q 6163 2841 6163 2131 
L 6163 0 
L 5038 0 
L 5038 1825 
Q 5041 1866 5042 1909 
Q 5044 1953 5044 2034 
Q 5044 2406 4934 2573 
Q 4825 2741 4581 2741 
Q 4263 2741 4089 2478 
Q 3916 2216 3909 1719 
L 3909 0 
L 2784 0 
L 2784 1825 
Q 2784 2406 2684 2573 
Q 2584 2741 2328 2741 
Q 2006 2741 1831 2477 
Q 1656 2213 1656 1722 
L 1656 0 
L 531 0 
L 531 3500 
L 1656 3500 
L 1656 2988 
Q 1863 3284 2130 3434 
Q 2397 3584 2719 3584 
Q 3081 3584 3359 3409 
Q 3638 3234 3781 2919 
z
" transform="scale(0.015625)"/>
      <path id="DejaVuSans-Bold-73" d="M 3272 3391 
L 3272 2541 
Q 2913 2691 2578 2766 
Q 2244 2841 1947 2841 
Q 1628 2841 1473 2761 
Q 1319 2681 1319 2516 
Q 1319 2381 1436 2309 
Q 1553 2238 1856 2203 
L 2053 2175 
Q 2913 2066 3209 1816 
Q 3506 1566 3506 1031 
Q 3506 472 3093 190 
Q 2681 -91 1863 -91 
Q 1516 -91 1145 -36 
Q 775 19 384 128 
L 384 978 
Q 719 816 1070 734 
Q 1422 653 1784 653 
Q 2113 653 2278 743 
Q 2444 834 2444 1013 
Q 2444 1163 2330 1236 
Q 2216 1309 1875 1350 
L 1678 1375 
Q 931 1469 631 1722 
Q 331 1975 331 2491 
Q 331 3047 712 3315 
Q 1094 3584 1881 3584 
Q 2191 3584 2531 3537 
Q 2872 3491 3272 3391 
z
" transform="scale(0.015625)"/>
      <path id="DejaVuSans-Bold-2c" d="M 653 1209 
L 1778 1209 
L 1778 256 
L 1006 -909 
L 341 -909 
L 653 256 
L 653 1209 
z
" transform="scale(0.015625)"/>
      <path id="DejaVuSans-Bold-78" d="M 1422 1791 
L 159 3500 
L 1344 3500 
L 2059 2463 
L 2784 3500 
L 3969 3500 
L 2706 1797 
L 4031 0 
L 2847 0 
L 2059 1106 
L 1281 0 
L 97 0 
L 1422 1791 
z
" transform="scale(0.015625)"/>
     </defs>
     <use xlink:href="#DejaVuSans-Bold-46"/>
     <use xlink:href="#DejaVuSans-Bold-41" transform="translate(56.810547 0)"/>
     <use xlink:href="#DejaVuSans-Bold-53" transform="translate(134.203125 0)"/>
     <use xlink:href="#DejaVuSans-Bold-54" transform="translate(206.224609 0)"/>
     <use xlink:href="#DejaVuSans-Bold-3a" transform="translate(268.9375 0)"/>
     <use xlink:href="#DejaVuSans-Bold-20" transform="translate(308.927734 0)"/>
     <use xlink:href="#DejaVuSans-Bold-70" transform="translate(343.742188 0)"/>
     <use xlink:href="#DejaVuSans-Bold-72" transform="translate(415.324219 0)"/>
     <use xlink:href="#DejaVuSans-Bold-65" transform="translate(464.640625 0)"/>
     <use xlink:href="#DejaVuSans-Bold-63" transform="translate(532.462891 0)"/>
     <use xlink:href="#DejaVuSans-Bold-6f" transform="translate(591.740234 0)"/>
     <use xlink:href="#DejaVuSans-Bold-6d" transform="translate(660.441406 0)"/>
     <use xlink:href="#DejaVuSans-Bold-70" transform="translate(764.640625 0)"/>
     <use xlink:href="#DejaVuSans-Bold-75" transform="translate(836.222656 0)"/>
     <use xlink:href="#DejaVuSans-Bold-74" transform="translate(907.414062 0)"/>
     <use xlink:href="#DejaVuSans-Bold-65" transform="translate(955.216797 0)"/>
     <use xlink:href="#DejaVuSans-Bold-20" transform="translate(1023.039062 0)"/>
     <use xlink:href="#DejaVuSans-Bold-74" transform="translate(1057.853516 0)"/>
     <use xlink:href="#DejaVuSans-Bold-68" transform="translate(1105.65625 0)"/>
     <use xlink:href="#DejaVuSans-Bold-65" transform="translate(1176.847656 0)"/>
     <use xlink:href="#DejaVuSans-Bold-20" transform="translate(1244.669922 0)"/>
     <use xlink:href="#DejaVuSans-Bold-34" transform="translate(1279.484375 0)"/>
     <use xlink:href="#DejaVuSans-Bold-20" transform="translate(1349.064453 0)"/>
     <use xlink:href="#DejaVuSans-Bold-72" transform="translate(1383.878906 0)"/>
     <use xlink:href="#DejaVuSans-Bold-65" transform="translate(1433.195312 0)"/>
     <use xlink:href="#DejaVuSans-Bold-73" transform="translate(1501.017578 0)"/>
     <use xlink:href="#DejaVuSans-Bold-75" transform="translate(1560.539062 0)"/>
     <use xlink:href="#DejaVuSans-Bold-6c" transform="translate(1631.730469 0)"/>
     <use xlink:href="#DejaVuSans-Bold-74" transform="translate(1666.007812 0)"/>
     <use xlink:href="#DejaVuSans-Bold-73" transform="translate(1713.810547 0)"/>
     <use xlink:href="#DejaVuSans-Bold-20" transform="translate(1773.332031 0)"/>
     <use xlink:href="#DejaVuSans-Bold-6f" transform="translate(1808.146484 0)"/>
     <use xlink:href="#DejaVuSans-Bold-6e" transform="translate(1876.847656 0)"/>
     <use xlink:href="#DejaVuSans-Bold-63" transform="translate(1948.039062 0)"/>
     <use xlink:href="#DejaVuSans-Bold-65" transform="translate(2007.316406 0)"/>
     <use xlink:href="#DejaVuSans-Bold-2c" transform="translate(2075.138672 0)"/>
     <use xlink:href="#DejaVuSans-Bold-20" transform="translate(2113.126953 0)"/>
     <use xlink:href="#DejaVuSans-Bold-74" transform="translate(2147.941406 0)"/>
     <use xlink:href="#DejaVuSans-Bold-68" transform="translate(2195.744141 0)"/>
     <use xlink:href="#DejaVuSans-Bold-65" transform="translate(2266.935547 0)"/>
     <use xlink:href="#DejaVuSans-Bold-6e" transform="translate(2334.757812 0)"/>
     <use xlink:href="#DejaVuSans-Bold-20" transform="translate(2405.949219 0)"/>
     <use xlink:href="#DejaVuSans-Bold-69" transform="translate(2440.763672 0)"/>
     <use xlink:href="#DejaVuSans-Bold-6e" transform="translate(2475.041016 0)"/>
     <use xlink:href="#DejaVuSans-Bold-64" transform="translate(2546.232422 0)"/>
     <use xlink:href="#DejaVuSans-Bold-65" transform="translate(2617.814453 0)"/>
     <use xlink:href="#DejaVuSans-Bold-78" transform="translate(2685.636719 0)"/>
    </g>
   </g>
   <g id="text_8">
    <!-- head = 2 -->
    <g style="fill: #2f3338" transform="translate(28.379819 153.60569) scale(0.0968 -0.0968)">
     <use xlink:href="#DejaVuSans-Bold-68"/>
     <use xlink:href="#DejaVuSans-Bold-65" transform="translate(71.191406 0)"/>
     <use xlink:href="#DejaVuSans-Bold-61" transform="translate(139.013672 0)"/>
     <use xlink:href="#DejaVuSans-Bold-64" transform="translate(206.494141 0)"/>
     <use xlink:href="#DejaVuSans-Bold-20" transform="translate(278.076172 0)"/>
     <use xlink:href="#DejaVuSans-Bold-3d" transform="translate(312.890625 0)"/>
     <use xlink:href="#DejaVuSans-Bold-20" transform="translate(396.679688 0)"/>
     <use xlink:href="#DejaVuSans-Bold-32" transform="translate(431.494141 0)"/>
    </g>
   </g>
   <g id="text_9">
    <!-- 1 -->
    <g style="fill: #2f3338" transform="translate(140.434275 153.848515) scale(0.1056 -0.1056)">
     <defs>
      <path id="DejaVuSans-Bold-31" d="M 750 831 
L 1813 831 
L 1813 3847 
L 722 3622 
L 722 4441 
L 1806 4666 
L 2950 4666 
L 2950 831 
L 4013 831 
L 4013 0 
L 750 0 
L 750 831 
z
" transform="scale(0.015625)"/>
     </defs>
     <use xlink:href="#DejaVuSans-Bold-31"/>
    </g>
   </g>
   <g id="text_10">
    <!-- 0 -->
    <g style="fill: #888888" transform="translate(141.244875 171.596677) scale(0.09 -0.09)">
     <use xlink:href="#DejaVuSans-30"/>
    </g>
   </g>
   <g id="text_11">
    <!-- 8 -->
    <g style="fill: #2f3338" transform="translate(178.234275 153.848515) scale(0.1056 -0.1056)">
     <defs>
      <path id="DejaVuSans-Bold-38" d="M 2228 2088 
Q 1891 2088 1709 1903 
Q 1528 1719 1528 1375 
Q 1528 1031 1709 848 
Q 1891 666 2228 666 
Q 2563 666 2741 848 
Q 2919 1031 2919 1375 
Q 2919 1722 2741 1905 
Q 2563 2088 2228 2088 
z
M 1350 2484 
Q 925 2613 709 2878 
Q 494 3144 494 3541 
Q 494 4131 934 4440 
Q 1375 4750 2228 4750 
Q 3075 4750 3515 4442 
Q 3956 4134 3956 3541 
Q 3956 3144 3739 2878 
Q 3522 2613 3097 2484 
Q 3572 2353 3814 2058 
Q 4056 1763 4056 1313 
Q 4056 619 3595 264 
Q 3134 -91 2228 -91 
Q 1319 -91 855 264 
Q 391 619 391 1313 
Q 391 1763 633 2058 
Q 875 2353 1350 2484 
z
M 1631 3419 
Q 1631 3141 1786 2991 
Q 1941 2841 2228 2841 
Q 2509 2841 2662 2991 
Q 2816 3141 2816 3419 
Q 2816 3697 2662 3845 
Q 2509 3994 2228 3994 
Q 1941 3994 1786 3844 
Q 1631 3694 1631 3419 
z
" transform="scale(0.015625)"/>
     </defs>
     <use xlink:href="#DejaVuSans-Bold-38"/>
    </g>
   </g>
   <g id="text_12">
    <!-- 1 -->
    <g style="fill: #888888" transform="translate(179.044875 171.596677) scale(0.09 -0.09)">
     <defs>
      <path id="DejaVuSans-31" d="M 794 531 
L 1825 531 
L 1825 4091 
L 703 3866 
L 703 4441 
L 1819 4666 
L 2450 4666 
L 2450 531 
L 3481 531 
L 3481 0 
L 794 0 
L 794 531 
z
" transform="scale(0.015625)"/>
     </defs>
     <use xlink:href="#DejaVuSans-31"/>
    </g>
   </g>
   <g id="text_13">
    <!-- 64 -->
    <g style="fill: #2f3338" transform="translate(212.36055 153.848515) scale(0.1056 -0.1056)">
     <use xlink:href="#DejaVuSans-Bold-36"/>
     <use xlink:href="#DejaVuSans-Bold-34" transform="translate(69.580078 0)"/>
    </g>
   </g>
   <g id="text_14">
    <!-- 2 -->
    <g style="fill: #888888" transform="translate(216.844875 171.596677) scale(0.09 -0.09)">
     <use xlink:href="#DejaVuSans-32"/>
    </g>
   </g>
   <g id="text_15">
    <!-- 512 -->
    <g style="fill: #2f3338" transform="translate(246.486825 153.848515) scale(0.1056 -0.1056)">
     <defs>
      <path id="DejaVuSans-Bold-35" d="M 678 4666 
L 3669 4666 
L 3669 3781 
L 1638 3781 
L 1638 3059 
Q 1775 3097 1914 3117 
Q 2053 3138 2203 3138 
Q 3056 3138 3531 2711 
Q 4006 2284 4006 1522 
Q 4006 766 3489 337 
Q 2972 -91 2053 -91 
Q 1656 -91 1267 -14 
Q 878 63 494 219 
L 494 1166 
Q 875 947 1217 837 
Q 1559 728 1863 728 
Q 2300 728 2551 942 
Q 2803 1156 2803 1522 
Q 2803 1891 2551 2103 
Q 2300 2316 1863 2316 
Q 1603 2316 1309 2248 
Q 1016 2181 678 2041 
L 678 4666 
z
" transform="scale(0.015625)"/>
     </defs>
     <use xlink:href="#DejaVuSans-Bold-35"/>
     <use xlink:href="#DejaVuSans-Bold-31" transform="translate(69.580078 0)"/>
     <use xlink:href="#DejaVuSans-Bold-32" transform="translate(139.160156 0)"/>
    </g>
   </g>
   <g id="text_16">
    <!-- 3 -->
    <g style="fill: #888888" transform="translate(254.644875 171.596677) scale(0.09 -0.09)">
     <use xlink:href="#DejaVuSans-33"/>
    </g>
   </g>
   <g id="text_17">
    <!-- 64 -->
    <g style="fill: #2f3338" transform="translate(368.85255 153.848515) scale(0.1056 -0.1056)">
     <use xlink:href="#DejaVuSans-Bold-36"/>
     <use xlink:href="#DejaVuSans-Bold-34" transform="translate(69.580078 0)"/>
    </g>
   </g>
   <g id="text_18">
    <!-- table[2] = 64    (one read, no exponentiation) -->
    <g style="fill: #3f7d4f" transform="translate(108.694688 188.072308) scale(0.095 -0.095)">
     <defs>
      <path id="DejaVuSans-5b" d="M 550 4863 
L 1875 4863 
L 1875 4416 
L 1125 4416 
L 1125 -397 
L 1875 -397 
L 1875 -844 
L 550 -844 
L 550 4863 
z
" transform="scale(0.015625)"/>
      <path id="DejaVuSans-5d" d="M 1947 4863 
L 1947 -844 
L 622 -844 
L 622 -397 
L 1369 -397 
L 1369 4416 
L 622 4416 
L 622 4863 
L 1947 4863 
z
" transform="scale(0.015625)"/>
      <path id="DejaVuSans-36" d="M 2113 2584 
Q 1688 2584 1439 2293 
Q 1191 2003 1191 1497 
Q 1191 994 1439 701 
Q 1688 409 2113 409 
Q 2538 409 2786 701 
Q 3034 994 3034 1497 
Q 3034 2003 2786 2293 
Q 2538 2584 2113 2584 
z
M 3366 4563 
L 3366 3988 
Q 3128 4100 2886 4159 
Q 2644 4219 2406 4219 
Q 1781 4219 1451 3797 
Q 1122 3375 1075 2522 
Q 1259 2794 1537 2939 
Q 1816 3084 2150 3084 
Q 2853 3084 3261 2657 
Q 3669 2231 3669 1497 
Q 3669 778 3244 343 
Q 2819 -91 2113 -91 
Q 1303 -91 875 529 
Q 447 1150 447 2328 
Q 447 3434 972 4092 
Q 1497 4750 2381 4750 
Q 2619 4750 2861 4703 
Q 3103 4656 3366 4563 
z
" transform="scale(0.015625)"/>
      <path id="DejaVuSans-34" d="M 2419 4116 
L 825 1625 
L 2419 1625 
L 2419 4116 
z
M 2253 4666 
L 3047 4666 
L 3047 1625 
L 3713 1625 
L 3713 1100 
L 3047 1100 
L 3047 0 
L 2419 0 
L 2419 1100 
L 313 1100 
L 313 1709 
L 2253 4666 
z
" transform="scale(0.015625)"/>
     </defs>
     <use xlink:href="#DejaVuSans-74"/>
     <use xlink:href="#DejaVuSans-61" transform="translate(39.208984 0)"/>
     <use xlink:href="#DejaVuSans-62" transform="translate(100.488281 0)"/>
     <use xlink:href="#DejaVuSans-6c" transform="translate(163.964844 0)"/>
     <use xlink:href="#DejaVuSans-65" transform="translate(191.748047 0)"/>
     <use xlink:href="#DejaVuSans-5b" transform="translate(253.271484 0)"/>
     <use xlink:href="#DejaVuSans-32" transform="translate(292.285156 0)"/>
     <use xlink:href="#DejaVuSans-5d" transform="translate(355.908203 0)"/>
     <use xlink:href="#DejaVuSans-20" transform="translate(394.921875 0)"/>
     <use xlink:href="#DejaVuSans-3d" transform="translate(426.708984 0)"/>
     <use xlink:href="#DejaVuSans-20" transform="translate(510.498047 0)"/>
     <use xlink:href="#DejaVuSans-36" transform="translate(542.285156 0)"/>
     <use xlink:href="#DejaVuSans-34" transform="translate(605.908203 0)"/>
     <use xlink:href="#DejaVuSans-20" transform="translate(669.53125 0)"/>
     <use xlink:href="#DejaVuSans-20" transform="translate(701.318359 0)"/>
     <use xlink:href="#DejaVuSans-20" transform="translate(733.105469 0)"/>
     <use xlink:href="#DejaVuSans-20" transform="translate(764.892578 0)"/>
     <use xlink:href="#DejaVuSans-28" transform="translate(796.679688 0)"/>
     <use xlink:href="#DejaVuSans-6f" transform="translate(835.693359 0)"/>
     <use xlink:href="#DejaVuSans-6e" transform="translate(896.875 0)"/>
     <use xlink:href="#DejaVuSans-65" transform="translate(960.253906 0)"/>
     <use xlink:href="#DejaVuSans-20" transform="translate(1021.777344 0)"/>
     <use xlink:href="#DejaVuSans-72" transform="translate(1053.564453 0)"/>
     <use xlink:href="#DejaVuSans-65" transform="translate(1092.427734 0)"/>
     <use xlink:href="#DejaVuSans-61" transform="translate(1153.951172 0)"/>
     <use xlink:href="#DejaVuSans-64" transform="translate(1215.230469 0)"/>
     <use xlink:href="#DejaVuSans-2c" transform="translate(1278.707031 0)"/>
     <use xlink:href="#DejaVuSans-20" transform="translate(1310.494141 0)"/>
     <use xlink:href="#DejaVuSans-6e" transform="translate(1342.28125 0)"/>
     <use xlink:href="#DejaVuSans-6f" transform="translate(1405.660156 0)"/>
     <use xlink:href="#DejaVuSans-20" transform="translate(1466.841797 0)"/>
     <use xlink:href="#DejaVuSans-65" transform="translate(1498.628906 0)"/>
     <use xlink:href="#DejaVuSans-78" transform="translate(1558.402344 0)"/>
     <use xlink:href="#DejaVuSans-70" transform="translate(1617.582031 0)"/>
     <use xlink:href="#DejaVuSans-6f" transform="translate(1681.058594 0)"/>
     <use xlink:href="#DejaVuSans-6e" transform="translate(1742.240234 0)"/>
     <use xlink:href="#DejaVuSans-65" transform="translate(1805.619141 0)"/>
     <use xlink:href="#DejaVuSans-6e" transform="translate(1867.142578 0)"/>
     <use xlink:href="#DejaVuSans-74" transform="translate(1930.521484 0)"/>
     <use xlink:href="#DejaVuSans-69" transform="translate(1969.730469 0)"/>
     <use xlink:href="#DejaVuSans-61" transform="translate(1997.513672 0)"/>
     <use xlink:href="#DejaVuSans-74" transform="translate(2058.792969 0)"/>
     <use xlink:href="#DejaVuSans-69" transform="translate(2098.001953 0)"/>
     <use xlink:href="#DejaVuSans-6f" transform="translate(2125.785156 0)"/>
     <use xlink:href="#DejaVuSans-6e" transform="translate(2186.966797 0)"/>
     <use xlink:href="#DejaVuSans-29" transform="translate(2250.345703 0)"/>
    </g>
   </g>
  </g>
 </g>
 <defs>
  <clipPath id="pa48182b095">
   <rect x="5.76" y="5.76" width="468.72" height="210.672"/>
  </clipPath>
 </defs>
</svg>
