<?xml version="1.0" encoding="utf-8" standalone="no"?>
<!DOCTYPE svg PUBLIC "-//W3C//DTD SVG 1.1//EN"
  "http://www.w3.org/Graphics/SVG/1.1/DTD/svg11.dtd">
<svg xmlns:xlink="http://www.w3.org/1999/xlink" width="480.24pt" height="283.176pt" viewBox="0 0 480.24 283.176" xmlns="http://www.w3.org/2000/svg" version="1.1">
 <metadata>
  <rdf:RDF xmlns:dc="http://purl.org/dc/elements/1.1/" xmlns:cc="http://creativecommons.org/ns#" xmlns:rdf="http://www.w3.org/1999/02/22-rdf-syntax-ns#">
   <cc:Work>
    <dc:type rdf:resource="http://purl.org/dc/dcmitype/StillImage"/>
    <dc:date>2026-06-18T18:09:07.677069</dc:date>
    <dc:format>image/svg+xml</dc:format>
    <dc:creator>
     <cc:Agent>
      <dc:title>Matplotlib v3.10.9, https://matplotlib.org/</dc:title>
     </cc:Agent>
    </dc:creator>
   </cc:Work>
  </rdf:RDF>
 </metadata>
 <defs>
  <style type="text/css">*{stroke-linejoin: round; stroke-linecap: butt}</style>
 </defs>
 <g id="figure_1">
  <g id="patch_1">
   <path d="M 0 283.176 
L 480.24 283.176 
L 480.24 0 
L 0 0 
L 0 283.176 
z
" style="fill: none"/>
  </g>
  <g id="axes_1">
   <g id="patch_2">
    <path d="M 57.63168 47.34 
L 97.62912 47.34 
Q 99.504 47.34 99.504 45.6768 
L 99.504 27.3816 
Q 99.504 25.7184 97.62912 25.7184 
L 57.63168 25.7184 
Q 55.7568 25.7184 55.7568 27.3816 
L 55.7568 45.6768 
Q 55.7568 47.34 57.63168 47.34 
z
" clip-path="url(#p673443696b)" style="fill: #ffd9b0; stroke: #9aa6bb; stroke-width: 1.3; stroke-linejoin: miter"/>
   </g>
   <g id="patch_3">
    <path d="M 106.06608 47.34 
L 146.06352 47.34 
Q 147.9384 47.34 147.9384 45.6768 
L 147.9384 27.3816 
Q 147.9384 25.7184 146.06352 25.7184 
L 106.06608 25.7184 
Q 104.1912 25.7184 104.1912 27.3816 
L 104.1912 45.6768 
Q 104.1912 47.34 106.06608 47.34 
z
" clip-path="url(#p673443696b)" style="fill: #cfdcf5; stroke: #9aa6bb; stroke-width: 1.3; stroke-linejoin: miter"/>
   </g>
   <g id="patch_4">
    <path d="M 154.50048 47.34 
L 194.49792 47.34 
Q 196.3728 47.34 196.3728 45.6768 
L 196.3728 27.3816 
Q 196.3728 25.7184 194.49792 25.7184 
L 154.50048 25.7184 
Q 152.6256 25.7184 152.6256 27.3816 
L 152.6256 45.6768 
Q 152.6256 47.34 154.50048 47.34 
z
" clip-path="url(#p673443696b)" style="fill: #dcecdc; stroke: #9aa6bb; stroke-width: 1.3; stroke-linejoin: miter"/>
   </g>
   <g id="patch_5">
    <path d="M 202.93488 47.34 
L 242.93232 47.34 
Q 244.8072 47.34 244.8072 45.6768 
L 244.8072 27.3816 
Q 244.8072 25.7184 242.93232 25.7184 
L 202.93488 25.7184 
Q 201.06 25.7184 201.06 27.3816 
L 201.06 45.6768 
Q 201.06 47.34 202.93488 47.34 
z
" clip-path="url(#p673443696b)" style="fill: #cfdcf5; stroke: #9aa6bb; stroke-width: 1.3; stroke-linejoin: miter"/>
   </g>
   <g id="patch_6">
    <path d="M 251.36928 47.34 
L 291.36672 47.34 
Q 293.2416 47.34 293.2416 45.6768 
L 293.2416 27.3816 
Q 293.2416 25.7184 291.36672 25.7184 
L 251.36928 25.7184 
Q 249.4944 25.7184 249.4944 27.3816 
L 249.4944 45.6768 
Q 249.4944 47.34 251.36928 47.34 
z
" clip-path="url(#p673443696b)" style="fill: #ffd9b0; stroke: #9aa6bb; stroke-width: 1.3; stroke-linejoin: miter"/>
   </g>
   <g id="patch_7">
    <path d="M 23.25888 131.886 
L 175.74912 131.886 
Q 177.624 131.886 177.624 130.2228 
L 177.624 105.8292 
Q 177.624 104.166 175.74912 104.166 
L 23.25888 104.166 
Q 21.384 104.166 21.384 105.8292 
L 21.384 130.2228 
Q 21.384 131.886 23.25888 131.886 
z
" clip-path="url(#p673443696b)" style="fill: #fbeeee; stroke: #b5651d; stroke-width: 1.3; stroke-linejoin: miter"/>
   </g>
   <g id="patch_8">
    <path d="M 260.74368 131.886 
L 456.98112 131.886 
Q 458.856 131.886 458.856 130.2228 
L 458.856 105.8292 
Q 458.856 104.166 456.98112 104.166 
L 260.74368 104.166 
Q 258.8688 104.166 258.8688 105.8292 
L 258.8688 130.2228 
Q 258.8688 131.886 260.74368 131.886 
z
" clip-path="url(#p673443696b)" style="fill: #eef6ef; stroke: #3f7d4f; stroke-width: 1.3; stroke-linejoin: miter"/>
   </g>
   <g id="patch_9">
    <path d="M 134.717505 50.543856 
Q 146.376866 75.754873 157.285345 99.34226 
" clip-path="url(#p673443696b)" style="fill: none; stroke: #b5651d; stroke-width: 1.6; stroke-linecap: round"/>
    <path d="M 157.462472 93.531182 
L 157.285345 99.34226 
L 152.742759 95.713912 
z
" clip-path="url(#p673443696b)" style="fill: #b5651d; stroke: #b5651d; stroke-width: 1.6; stroke-linecap: round"/>
   </g>
   <g id="patch_10">
    <path d="M 216.603706 50.07537 
Q 244.808033 75.753758 271.689604 100.227855 
" clip-path="url(#p673443696b)" style="fill: none; stroke: #3f7d4f; stroke-width: 1.6; stroke-linecap: round"/>
    <path d="M 269.594872 94.804563 
L 271.689604 100.227855 
L 266.094131 98.649665 
z
" clip-path="url(#p673443696b)" style="fill: #3f7d4f; stroke: #3f7d4f; stroke-width: 1.6; stroke-linecap: round"/>
   </g>
   <g id="patch_11">
    <path d="M 110.75328 202.572 
L 188.24832 202.572 
Q 190.1232 202.572 190.1232 200.9088 
L 190.1232 176.5152 
Q 190.1232 174.852 188.24832 174.852 
L 110.75328 174.852 
Q 108.8784 174.852 108.8784 176.5152 
L 108.8784 200.9088 
Q 108.8784 202.572 110.75328 202.572 
z
" clip-path="url(#p673443696b)" style="fill: #ffd9b0; stroke: #7a8aa8; stroke-width: 1.3; stroke-linejoin: miter"/>
   </g>
   <g id="patch_12">
    <path d="M 198.24768 202.572 
L 275.74272 202.572 
Q 277.6176 202.572 277.6176 200.9088 
L 277.6176 176.5152 
Q 277.6176 174.852 275.74272 174.852 
L 198.24768 174.852 
Q 196.3728 174.852 196.3728 176.5152 
L 196.3728 200.9088 
Q 196.3728 202.572 198.24768 202.572 
z
" clip-path="url(#p673443696b)" style="fill: #dcecdc; stroke: #7a8aa8; stroke-width: 1.3; stroke-linejoin: miter"/>
   </g>
   <g id="patch_13">
    <path d="M 285.74208 202.572 
L 363.23712 202.572 
Q 365.112 202.572 365.112 200.9088 
L 365.112 176.5152 
Q 365.112 174.852 363.23712 174.852 
L 285.74208 174.852 
Q 283.8672 174.852 283.8672 176.5152 
L 283.8672 200.9088 
Q 283.8672 202.572 285.74208 202.572 
z
" clip-path="url(#p673443696b)" style="fill: #cfdcf5; stroke: #7a8aa8; stroke-width: 1.3; stroke-linejoin: miter"/>
   </g>
   <g id="patch_14">
    <path d="M 94.878213 134.432386 
Q 121.374368 153.366691 146.415093 171.260936 
" clip-path="url(#p673443696b)" style="fill: none; stroke: #b5651d; stroke-width: 1.6; stroke-linecap: round"/>
    <path d="M 143.695987 166.122215 
L 146.415093 171.260936 
L 140.672652 170.352988 
z
" clip-path="url(#p673443696b)" style="fill: #b5651d; stroke: #b5651d; stroke-width: 1.6; stroke-linecap: round"/>
   </g>
   <g id="patch_15">
    <path d="M 354.145638 134.476544 
Q 329.178107 153.368011 305.637099 171.180112 
" clip-path="url(#p673443696b)" style="fill: none; stroke: #3f7d4f; stroke-width: 1.6; stroke-linecap: round"/>
    <path d="M 311.352641 170.115886 
L 305.637099 171.180112 
L 308.215043 165.969142 
z
" clip-path="url(#p673443696b)" style="fill: #3f7d4f; stroke: #3f7d4f; stroke-width: 1.6; stroke-linecap: round"/>
   </g>
   <g id="text_1">
    <!-- one scan: (m/z, value) pairs, with m/z 100 and 102 repeated -->
    <g style="fill: #2f3338" transform="translate(12.0096 16.848) scale(0.11 -0.11)">
     <defs>
      <path id="DejaVuSans-6f" d="M 1959 3097 
Q 1497 3097 1228 2736 
Q 959 2375 959 1747 
Q 959 1119 1226 758 
Q 1494 397 1959 397 
Q 2419 397 2687 759 
Q 2956 1122 2956 1747 
Q 2956 2369 2687 2733 
Q 2419 3097 1959 3097 
z
M 1959 3584 
Q 2709 3584 3137 3096 
Q 3566 2609 3566 1747 
Q 3566 888 3137 398 
Q 2709 -91 1959 -91 
Q 1206 -91 779 398 
Q 353 888 353 1747 
Q 353 2609 779 3096 
Q 1206 3584 1959 3584 
z
" transform="scale(0.015625)"/>
      <path id="DejaVuSans-6e" d="M 3513 2113 
L 3513 0 
L 2938 0 
L 2938 2094 
Q 2938 2591 2744 2837 
Q 2550 3084 2163 3084 
Q 1697 3084 1428 2787 
Q 1159 2491 1159 1978 
L 1159 0 
L 581 0 
L 581 3500 
L 1159 3500 
L 1159 2956 
Q 1366 3272 1645 3428 
Q 1925 3584 2291 3584 
Q 2894 3584 3203 3211 
Q 3513 2838 3513 2113 
z
" transform="scale(0.015625)"/>
      <path id="DejaVuSans-65" d="M 3597 1894 
L 3597 1613 
L 953 1613 
Q 991 1019 1311 708 
Q 1631 397 2203 397 
Q 2534 397 2845 478 
Q 3156 559 3463 722 
L 3463 178 
Q 3153 47 2828 -22 
Q 2503 -91 2169 -91 
Q 1331 -91 842 396 
Q 353 884 353 1716 
Q 353 2575 817 3079 
Q 1281 3584 2069 3584 
Q 2775 3584 3186 3129 
Q 3597 2675 3597 1894 
z
M 3022 2063 
Q 3016 2534 2758 2815 
Q 2500 3097 2075 3097 
Q 1594 3097 1305 2825 
Q 1016 2553 972 2059 
L 3022 2063 
z
" transform="scale(0.015625)"/>
      <path id="DejaVuSans-20" transform="scale(0.015625)"/>
      <path id="DejaVuSans-73" d="M 2834 3397 
L 2834 2853 
Q 2591 2978 2328 3040 
Q 2066 3103 1784 3103 
Q 1356 3103 1142 2972 
Q 928 2841 928 2578 
Q 928 2378 1081 2264 
Q 1234 2150 1697 2047 
L 1894 2003 
Q 2506 1872 2764 1633 
Q 3022 1394 3022 966 
Q 3022 478 2636 193 
Q 2250 -91 1575 -91 
Q 1294 -91 989 -36 
Q 684 19 347 128 
L 347 722 
Q 666 556 975 473 
Q 1284 391 1588 391 
Q 1994 391 2212 530 
Q 2431 669 2431 922 
Q 2431 1156 2273 1281 
Q 2116 1406 1581 1522 
L 1381 1569 
Q 847 1681 609 1914 
Q 372 2147 372 2553 
Q 372 3047 722 3315 
Q 1072 3584 1716 3584 
Q 2034 3584 2315 3537 
Q 2597 3491 2834 3397 
z
" transform="scale(0.015625)"/>
      <path id="DejaVuSans-63" d="M 3122 3366 
L 3122 2828 
Q 2878 2963 2633 3030 
Q 2388 3097 2138 3097 
Q 1578 3097 1268 2742 
Q 959 2388 959 1747 
Q 959 1106 1268 751 
Q 1578 397 2138 397 
Q 2388 397 2633 464 
Q 2878 531 3122 666 
L 3122 134 
Q 2881 22 2623 -34 
Q 2366 -91 2075 -91 
Q 1284 -91 818 406 
Q 353 903 353 1747 
Q 353 2603 823 3093 
Q 1294 3584 2113 3584 
Q 2378 3584 2631 3529 
Q 2884 3475 3122 3366 
z
" transform="scale(0.015625)"/>
      <path id="DejaVuSans-61" d="M 2194 1759 
Q 1497 1759 1228 1600 
Q 959 1441 959 1056 
Q 959 750 1161 570 
Q 1363 391 1709 391 
Q 2188 391 2477 730 
Q 2766 1069 2766 1631 
L 2766 1759 
L 2194 1759 
z
M 3341 1997 
L 3341 0 
L 2766 0 
L 2766 531 
Q 2569 213 2275 61 
Q 1981 -91 1556 -91 
Q 1019 -91 701 211 
Q 384 513 384 1019 
Q 384 1609 779 1909 
Q 1175 2209 1959 2209 
L 2766 2209 
L 2766 2266 
Q 2766 2663 2505 2880 
Q 2244 3097 1772 3097 
Q 1472 3097 1187 3025 
Q 903 2953 641 2809 
L 641 3341 
Q 956 3463 1253 3523 
Q 1550 3584 1831 3584 
Q 2591 3584 2966 3190 
Q 3341 2797 3341 1997 
z
" transform="scale(0.015625)"/>
      <path id="DejaVuSans-3a" d="M 750 794 
L 1409 794 
L 1409 0 
L 750 0 
L 750 794 
z
M 750 3309 
L 1409 3309 
L 1409 2516 
L 750 2516 
L 750 3309 
z
" transform="scale(0.015625)"/>
      <path id="DejaVuSans-28" d="M 1984 4856 
Q 1566 4138 1362 3434 
Q 1159 2731 1159 2009 
Q 1159 1288 1364 580 
Q 1569 -128 1984 -844 
L 1484 -844 
Q 1016 -109 783 600 
Q 550 1309 550 2009 
Q 550 2706 781 3412 
Q 1013 4119 1484 4856 
L 1984 4856 
z
" transform="scale(0.015625)"/>
      <path id="DejaVuSans-6d" d="M 3328 2828 
Q 3544 3216 3844 3400 
Q 4144 3584 4550 3584 
Q 5097 3584 5394 3201 
Q 5691 2819 5691 2113 
L 5691 0 
L 5113 0 
L 5113 2094 
Q 5113 2597 4934 2840 
Q 4756 3084 4391 3084 
Q 3944 3084 3684 2787 
Q 3425 2491 3425 1978 
L 3425 0 
L 2847 0 
L 2847 2094 
Q 2847 2600 2669 2842 
Q 2491 3084 2119 3084 
Q 1678 3084 1418 2786 
Q 1159 2488 1159 1978 
L 1159 0 
L 581 0 
L 581 3500 
L 1159 3500 
L 1159 2956 
Q 1356 3278 1631 3431 
Q 1906 3584 2284 3584 
Q 2666 3584 2933 3390 
Q 3200 3197 3328 2828 
z
" transform="scale(0.015625)"/>
      <path id="DejaVuSans-2f" d="M 1625 4666 
L 2156 4666 
L 531 -594 
L 0 -594 
L 1625 4666 
z
" transform="scale(0.015625)"/>
      <path id="DejaVuSans-7a" d="M 353 3500 
L 3084 3500 
L 3084 2975 
L 922 459 
L 3084 459 
L 3084 0 
L 275 0 
L 275 525 
L 2438 3041 
L 353 3041 
L 353 3500 
z
" transform="scale(0.015625)"/>
      <path id="DejaVuSans-2c" d="M 750 794 
L 1409 794 
L 1409 256 
L 897 -744 
L 494 -744 
L 750 256 
L 750 794 
z
" transform="scale(0.015625)"/>
      <path id="DejaVuSans-76" d="M 191 3500 
L 800 3500 
L 1894 563 
L 2988 3500 
L 3597 3500 
L 2284 0 
L 1503 0 
L 191 3500 
z
" transform="scale(0.015625)"/>
      <path id="DejaVuSans-6c" d="M 603 4863 
L 1178 4863 
L 1178 0 
L 603 0 
L 603 4863 
z
" transform="scale(0.015625)"/>
      <path id="DejaVuSans-75" d="M 544 1381 
L 544 3500 
L 1119 3500 
L 1119 1403 
Q 1119 906 1312 657 
Q 1506 409 1894 409 
Q 2359 409 2629 706 
Q 2900 1003 2900 1516 
L 2900 3500 
L 3475 3500 
L 3475 0 
L 2900 0 
L 2900 538 
Q 2691 219 2414 64 
Q 2138 -91 1772 -91 
Q 1169 -91 856 284 
Q 544 659 544 1381 
z
M 1991 3584 
L 1991 3584 
z
" transform="scale(0.015625)"/>
      <path id="DejaVuSans-29" d="M 513 4856 
L 1013 4856 
Q 1481 4119 1714 3412 
Q 1947 2706 1947 2009 
Q 1947 1309 1714 600 
Q 1481 -109 1013 -844 
L 513 -844 
Q 928 -128 1133 580 
Q 1338 1288 1338 2009 
Q 1338 2731 1133 3434 
Q 928 4138 513 4856 
z
" transform="scale(0.015625)"/>
      <path id="DejaVuSans-70" d="M 1159 525 
L 1159 -1331 
L 581 -1331 
L 581 3500 
L 1159 3500 
L 1159 2969 
Q 1341 3281 1617 3432 
Q 1894 3584 2278 3584 
Q 2916 3584 3314 3078 
Q 3713 2572 3713 1747 
Q 3713 922 3314 415 
Q 2916 -91 2278 -91 
Q 1894 -91 1617 61 
Q 1341 213 1159 525 
z
M 3116 1747 
Q 3116 2381 2855 2742 
Q 2594 3103 2138 3103 
Q 1681 3103 1420 2742 
Q 1159 2381 1159 1747 
Q 1159 1113 1420 752 
Q 1681 391 2138 391 
Q 2594 391 2855 752 
Q 3116 1113 3116 1747 
z
" transform="scale(0.015625)"/>
      <path id="DejaVuSans-69" d="M 603 3500 
L 1178 3500 
L 1178 0 
L 603 0 
L 603 3500 
z
M 603 4863 
L 1178 4863 
L 1178 4134 
L 603 4134 
L 603 4863 
z
" transform="scale(0.015625)"/>
      <path id="DejaVuSans-72" d="M 2631 2963 
Q 2534 3019 2420 3045 
Q 2306 3072 2169 3072 
Q 1681 3072 1420 2755 
Q 1159 2438 1159 1844 
L 1159 0 
L 581 0 
L 581 3500 
L 1159 3500 
L 1159 2956 
Q 1341 3275 1631 3429 
Q 1922 3584 2338 3584 
Q 2397 3584 2469 3576 
Q 2541 3569 2628 3553 
L 2631 2963 
z
" transform="scale(0.015625)"/>
      <path id="DejaVuSans-77" d="M 269 3500 
L 844 3500 
L 1563 769 
L 2278 3500 
L 2956 3500 
L 3675 769 
L 4391 3500 
L 4966 3500 
L 4050 0 
L 3372 0 
L 2619 2869 
L 1863 0 
L 1184 0 
L 269 3500 
z
" transform="scale(0.015625)"/>
      <path id="DejaVuSans-74" d="M 1172 4494 
L 1172 3500 
L 2356 3500 
L 2356 3053 
L 1172 3053 
L 1172 1153 
Q 1172 725 1289 603 
Q 1406 481 1766 481 
L 2356 481 
L 2356 0 
L 1766 0 
Q 1100 0 847 248 
Q 594 497 594 1153 
L 594 3053 
L 172 3053 
L 172 3500 
L 594 3500 
L 594 4494 
L 1172 4494 
z
" transform="scale(0.015625)"/>
      <path id="DejaVuSans-68" d="M 3513 2113 
L 3513 0 
L 2938 0 
L 2938 2094 
Q 2938 2591 2744 2837 
Q 2550 3084 2163 3084 
Q 1697 3084 1428 2787 
Q 1159 2491 1159 1978 
L 1159 0 
L 581 0 
L 581 4863 
L 1159 4863 
L 1159 2956 
Q 1366 3272 1645 3428 
Q 1925 3584 2291 3584 
Q 2894 3584 3203 3211 
Q 3513 2838 3513 2113 
z
" transform="scale(0.015625)"/>
      <path id="DejaVuSans-31" d="M 794 531 
L 1825 531 
L 1825 4091 
L 703 3866 
L 703 4441 
L 1819 4666 
L 2450 4666 
L 2450 531 
L 3481 531 
L 3481 0 
L 794 0 
L 794 531 
z
" transform="scale(0.015625)"/>
      <path id="DejaVuSans-30" d="M 2034 4250 
Q 1547 4250 1301 3770 
Q 1056 3291 1056 2328 
Q 1056 1369 1301 889 
Q 1547 409 2034 409 
Q 2525 409 2770 889 
Q 3016 1369 3016 2328 
Q 3016 3291 2770 3770 
Q 2525 4250 2034 4250 
z
M 2034 4750 
Q 2819 4750 3233 4129 
Q 3647 3509 3647 2328 
Q 3647 1150 3233 529 
Q 2819 -91 2034 -91 
Q 1250 -91 836 529 
Q 422 1150 422 2328 
Q 422 3509 836 4129 
Q 1250 4750 2034 4750 
z
" transform="scale(0.015625)"/>
      <path id="DejaVuSans-64" d="M 2906 2969 
L 2906 4863 
L 3481 4863 
L 3481 0 
L 2906 0 
L 2906 525 
Q 2725 213 2448 61 
Q 2172 -91 1784 -91 
Q 1150 -91 751 415 
Q 353 922 353 1747 
Q 353 2572 751 3078 
Q 1150 3584 1784 3584 
Q 2172 3584 2448 3432 
Q 2725 3281 2906 2969 
z
M 947 1747 
Q 947 1113 1208 752 
Q 1469 391 1925 391 
Q 2381 391 2643 752 
Q 2906 1113 2906 1747 
Q 2906 2381 2643 2742 
Q 2381 3103 1925 3103 
Q 1469 3103 1208 2742 
Q 947 2381 947 1747 
z
" transform="scale(0.015625)"/>
      <path id="DejaVuSans-32" d="M 1228 531 
L 3431 531 
L 3431 0 
L 469 0 
L 469 531 
Q 828 903 1448 1529 
Q 2069 2156 2228 2338 
Q 2531 2678 2651 2914 
Q 2772 3150 2772 3378 
Q 2772 3750 2511 3984 
Q 2250 4219 1831 4219 
Q 1534 4219 1204 4116 
Q 875 4013 500 3803 
L 500 4441 
Q 881 4594 1212 4672 
Q 1544 4750 1819 4750 
Q 2544 4750 2975 4387 
Q 3406 4025 3406 3419 
Q 3406 3131 3298 2873 
Q 3191 2616 2906 2266 
Q 2828 2175 2409 1742 
Q 1991 1309 1228 531 
z
" transform="scale(0.015625)"/>
     </defs>
     <use xlink:href="#DejaVuSans-6f"/>
     <use xlink:href="#DejaVuSans-6e" transform="translate(61.181641 0)"/>
     <use xlink:href="#DejaVuSans-65" transform="translate(124.560547 0)"/>
     <use xlink:href="#DejaVuSans-20" transform="translate(186.083984 0)"/>
     <use xlink:href="#DejaVuSans-73" transform="translate(217.871094 0)"/>
     <use xlink:href="#DejaVuSans-63" transform="translate(269.970703 0)"/>
     <use xlink:href="#DejaVuSans-61" transform="translate(324.951172 0)"/>
     <use xlink:href="#DejaVuSans-6e" transform="translate(386.230469 0)"/>
     <use xlink:href="#DejaVuSans-3a" transform="translate(449.609375 0)"/>
     <use xlink:href="#DejaVuSans-20" transform="translate(483.300781 0)"/>
     <use xlink:href="#DejaVuSans-28" transform="translate(515.087891 0)"/>
     <use xlink:href="#DejaVuSans-6d" transform="translate(554.101562 0)"/>
     <use xlink:href="#DejaVuSans-2f" transform="translate(651.513672 0)"/>
     <use xlink:href="#DejaVuSans-7a" transform="translate(685.205078 0)"/>
     <use xlink:href="#DejaVuSans-2c" transform="translate(737.695312 0)"/>
     <use xlink:href="#DejaVuSans-20" transform="translate(769.482422 0)"/>
     <use xlink:href="#DejaVuSans-76" transform="translate(801.269531 0)"/>
     <use xlink:href="#DejaVuSans-61" transform="translate(860.449219 0)"/>
     <use xlink:href="#DejaVuSans-6c" transform="translate(921.728516 0)"/>
     <use xlink:href="#DejaVuSans-75" transform="translate(949.511719 0)"/>
     <use xlink:href="#DejaVuSans-65" transform="translate(1012.890625 0)"/>
     <use xlink:href="#DejaVuSans-29" transform="translate(1074.414062 0)"/>
     <use xlink:href="#DejaVuSans-20" transform="translate(1113.427734 0)"/>
     <use xlink:href="#DejaVuSans-70" transform="translate(1145.214844 0)"/>
     <use xlink:href="#DejaVuSans-61" transform="translate(1208.691406 0)"/>
     <use xlink:href="#DejaVuSans-69" transform="translate(1269.970703 0)"/>
     <use xlink:href="#DejaVuSans-72" transform="translate(1297.753906 0)"/>
     <use xlink:href="#DejaVuSans-73" transform="translate(1338.867188 0)"/>
     <use xlink:href="#DejaVuSans-2c" transform="translate(1390.966797 0)"/>
     <use xlink:href="#DejaVuSans-20" transform="translate(1422.753906 0)"/>
     <use xlink:href="#DejaVuSans-77" transform="translate(1454.541016 0)"/>
     <use xlink:href="#DejaVuSans-69" transform="translate(1536.328125 0)"/>
     <use xlink:href="#DejaVuSans-74" transform="translate(1564.111328 0)"/>
     <use xlink:href="#DejaVuSans-68" transform="translate(1603.320312 0)"/>
     <use xlink:href="#DejaVuSans-20" transform="translate(1666.699219 0)"/>
     <use xlink:href="#DejaVuSans-6d" transform="translate(1698.486328 0)"/>
     <use xlink:href="#DejaVuSans-2f" transform="translate(1795.898438 0)"/>
     <use xlink:href="#DejaVuSans-7a" transform="translate(1829.589844 0)"/>
     <use xlink:href="#DejaVuSans-20" transform="translate(1882.080078 0)"/>
     <use xlink:href="#DejaVuSans-31" transform="translate(1913.867188 0)"/>
     <use xlink:href="#DejaVuSans-30" transform="translate(1977.490234 0)"/>
     <use xlink:href="#DejaVuSans-30" transform="translate(2041.113281 0)"/>
     <use xlink:href="#DejaVuSans-20" transform="translate(2104.736328 0)"/>
     <use xlink:href="#DejaVuSans-61" transform="translate(2136.523438 0)"/>
     <use xlink:href="#DejaVuSans-6e" transform="translate(2197.802734 0)"/>
     <use xlink:href="#DejaVuSans-64" transform="translate(2261.181641 0)"/>
     <use xlink:href="#DejaVuSans-20" transform="translate(2324.658203 0)"/>
     <use xlink:href="#DejaVuSans-31" transform="translate(2356.445312 0)"/>
     <use xlink:href="#DejaVuSans-30" transform="translate(2420.068359 0)"/>
     <use xlink:href="#DejaVuSans-32" transform="translate(2483.691406 0)"/>
     <use xlink:href="#DejaVuSans-20" transform="translate(2547.314453 0)"/>
     <use xlink:href="#DejaVuSans-72" transform="translate(2579.101562 0)"/>
     <use xlink:href="#DejaVuSans-65" transform="translate(2617.964844 0)"/>
     <use xlink:href="#DejaVuSans-70" transform="translate(2679.488281 0)"/>
     <use xlink:href="#DejaVuSans-65" transform="translate(2742.964844 0)"/>
     <use xlink:href="#DejaVuSans-61" transform="translate(2804.488281 0)"/>
     <use xlink:href="#DejaVuSans-74" transform="translate(2865.767578 0)"/>
     <use xlink:href="#DejaVuSans-65" transform="translate(2904.976562 0)"/>
     <use xlink:href="#DejaVuSans-64" transform="translate(2966.5 0)"/>
    </g>
   </g>
   <g id="text_2">
    <!-- 100: 3 -->
    <g style="fill: #2f3338" transform="translate(62.143913 39.200275) scale(0.0968 -0.0968)">
     <defs>
      <path id="DejaVuSans-33" d="M 2597 2516 
Q 3050 2419 3304 2112 
Q 3559 1806 3559 1356 
Q 3559 666 3084 287 
Q 2609 -91 1734 -91 
Q 1441 -91 1130 -33 
Q 819 25 488 141 
L 488 750 
Q 750 597 1062 519 
Q 1375 441 1716 441 
Q 2309 441 2620 675 
Q 2931 909 2931 1356 
Q 2931 1769 2642 2001 
Q 2353 2234 1838 2234 
L 1294 2234 
L 1294 2753 
L 1863 2753 
Q 2328 2753 2575 2939 
Q 2822 3125 2822 3475 
Q 2822 3834 2567 4026 
Q 2313 4219 1838 4219 
Q 1578 4219 1281 4162 
Q 984 4106 628 3988 
L 628 4550 
Q 988 4650 1302 4700 
Q 1616 4750 1894 4750 
Q 2613 4750 3031 4423 
Q 3450 4097 3450 3541 
Q 3450 3153 3228 2886 
Q 3006 2619 2597 2516 
z
" transform="scale(0.015625)"/>
     </defs>
     <use xlink:href="#DejaVuSans-31"/>
     <use xlink:href="#DejaVuSans-30" transform="translate(63.623047 0)"/>
     <use xlink:href="#DejaVuSans-30" transform="translate(127.246094 0)"/>
     <use xlink:href="#DejaVuSans-3a" transform="translate(190.869141 0)"/>
     <use xlink:href="#DejaVuSans-20" transform="translate(224.560547 0)"/>
     <use xlink:href="#DejaVuSans-33" transform="translate(256.347656 0)"/>
    </g>
   </g>
   <g id="text_3">
    <!-- 102: 5 -->
    <g style="fill: #2f3338" transform="translate(110.578313 39.200275) scale(0.0968 -0.0968)">
     <defs>
      <path id="DejaVuSans-35" d="M 691 4666 
L 3169 4666 
L 3169 4134 
L 1269 4134 
L 1269 2991 
Q 1406 3038 1543 3061 
Q 1681 3084 1819 3084 
Q 2600 3084 3056 2656 
Q 3513 2228 3513 1497 
Q 3513 744 3044 326 
Q 2575 -91 1722 -91 
Q 1428 -91 1123 -41 
Q 819 9 494 109 
L 494 744 
Q 775 591 1075 516 
Q 1375 441 1709 441 
Q 2250 441 2565 725 
Q 2881 1009 2881 1497 
Q 2881 1984 2565 2268 
Q 2250 2553 1709 2553 
Q 1456 2553 1204 2497 
Q 953 2441 691 2322 
L 691 4666 
z
" transform="scale(0.015625)"/>
     </defs>
     <use xlink:href="#DejaVuSans-31"/>
     <use xlink:href="#DejaVuSans-30" transform="translate(63.623047 0)"/>
     <use xlink:href="#DejaVuSans-32" transform="translate(127.246094 0)"/>
     <use xlink:href="#DejaVuSans-3a" transform="translate(190.869141 0)"/>
     <use xlink:href="#DejaVuSans-20" transform="translate(224.560547 0)"/>
     <use xlink:href="#DejaVuSans-35" transform="translate(256.347656 0)"/>
    </g>
   </g>
   <g id="text_4">
    <!-- 101: 9 -->
    <g style="fill: #2f3338" transform="translate(159.012713 39.200275) scale(0.0968 -0.0968)">
     <defs>
      <path id="DejaVuSans-39" d="M 703 97 
L 703 672 
Q 941 559 1184 500 
Q 1428 441 1663 441 
Q 2288 441 2617 861 
Q 2947 1281 2994 2138 
Q 2813 1869 2534 1725 
Q 2256 1581 1919 1581 
Q 1219 1581 811 2004 
Q 403 2428 403 3163 
Q 403 3881 828 4315 
Q 1253 4750 1959 4750 
Q 2769 4750 3195 4129 
Q 3622 3509 3622 2328 
Q 3622 1225 3098 567 
Q 2575 -91 1691 -91 
Q 1453 -91 1209 -44 
Q 966 3 703 97 
z
M 1959 2075 
Q 2384 2075 2632 2365 
Q 2881 2656 2881 3163 
Q 2881 3666 2632 3958 
Q 2384 4250 1959 4250 
Q 1534 4250 1286 3958 
Q 1038 3666 1038 3163 
Q 1038 2656 1286 2365 
Q 1534 2075 1959 2075 
z
" transform="scale(0.015625)"/>
     </defs>
     <use xlink:href="#DejaVuSans-31"/>
     <use xlink:href="#DejaVuSans-30" transform="translate(63.623047 0)"/>
     <use xlink:href="#DejaVuSans-31" transform="translate(127.246094 0)"/>
     <use xlink:href="#DejaVuSans-3a" transform="translate(190.869141 0)"/>
     <use xlink:href="#DejaVuSans-20" transform="translate(224.560547 0)"/>
     <use xlink:href="#DejaVuSans-39" transform="translate(256.347656 0)"/>
    </g>
   </g>
   <g id="text_5">
    <!-- 102: 7 -->
    <g style="fill: #2f3338" transform="translate(207.447113 39.200275) scale(0.0968 -0.0968)">
     <defs>
      <path id="DejaVuSans-37" d="M 525 4666 
L 3525 4666 
L 3525 4397 
L 1831 0 
L 1172 0 
L 2766 4134 
L 525 4134 
L 525 4666 
z
" transform="scale(0.015625)"/>
     </defs>
     <use xlink:href="#DejaVuSans-31"/>
     <use xlink:href="#DejaVuSans-30" transform="translate(63.623047 0)"/>
     <use xlink:href="#DejaVuSans-32" transform="translate(127.246094 0)"/>
     <use xlink:href="#DejaVuSans-3a" transform="translate(190.869141 0)"/>
     <use xlink:href="#DejaVuSans-20" transform="translate(224.560547 0)"/>
     <use xlink:href="#DejaVuSans-37" transform="translate(256.347656 0)"/>
    </g>
   </g>
   <g id="text_6">
    <!-- 100: 4 -->
    <g style="fill: #2f3338" transform="translate(255.881512 39.200275) scale(0.0968 -0.0968)">
     <defs>
      <path id="DejaVuSans-34" d="M 2419 4116 
L 825 1625 
L 2419 1625 
L 2419 4116 
z
M 2253 4666 
L 3047 4666 
L 3047 1625 
L 3713 1625 
L 3713 1100 
L 3047 1100 
L 3047 0 
L 2419 0 
L 2419 1100 
L 313 1100 
L 313 1709 
L 2253 4666 
z
" transform="scale(0.015625)"/>
     </defs>
     <use xlink:href="#DejaVuSans-31"/>
     <use xlink:href="#DejaVuSans-30" transform="translate(63.623047 0)"/>
     <use xlink:href="#DejaVuSans-30" transform="translate(127.246094 0)"/>
     <use xlink:href="#DejaVuSans-3a" transform="translate(190.869141 0)"/>
     <use xlink:href="#DejaVuSans-20" transform="translate(224.560547 0)"/>
     <use xlink:href="#DejaVuSans-34" transform="translate(256.347656 0)"/>
    </g>
   </g>
   <g id="text_7">
    <!-- np.unique + searchsorted -->
    <g style="fill: #2f3338" transform="translate(39.459881 115.402273) scale(0.0924 -0.0924)">
     <defs>
      <path id="DejaVuSans-2e" d="M 684 794 
L 1344 794 
L 1344 0 
L 684 0 
L 684 794 
z
" transform="scale(0.015625)"/>
      <path id="DejaVuSans-71" d="M 947 1747 
Q 947 1113 1208 752 
Q 1469 391 1925 391 
Q 2381 391 2643 752 
Q 2906 1113 2906 1747 
Q 2906 2381 2643 2742 
Q 2381 3103 1925 3103 
Q 1469 3103 1208 2742 
Q 947 2381 947 1747 
z
M 2906 525 
Q 2725 213 2448 61 
Q 2172 -91 1784 -91 
Q 1150 -91 751 415 
Q 353 922 353 1747 
Q 353 2572 751 3078 
Q 1150 3584 1784 3584 
Q 2172 3584 2448 3432 
Q 2725 3281 2906 2969 
L 2906 3500 
L 3481 3500 
L 3481 -1331 
L 2906 -1331 
L 2906 525 
z
" transform="scale(0.015625)"/>
      <path id="DejaVuSans-2b" d="M 2944 4013 
L 2944 2272 
L 4684 2272 
L 4684 1741 
L 2944 1741 
L 2944 0 
L 2419 0 
L 2419 1741 
L 678 1741 
L 678 2272 
L 2419 2272 
L 2419 4013 
L 2944 4013 
z
" transform="scale(0.015625)"/>
     </defs>
     <use xlink:href="#DejaVuSans-6e"/>
     <use xlink:href="#DejaVuSans-70" transform="translate(63.378906 0)"/>
     <use xlink:href="#DejaVuSans-2e" transform="translate(126.855469 0)"/>
     <use xlink:href="#DejaVuSans-75" transform="translate(158.642578 0)"/>
     <use xlink:href="#DejaVuSans-6e" transform="translate(222.021484 0)"/>
     <use xlink:href="#DejaVuSans-69" transform="translate(285.400391 0)"/>
     <use xlink:href="#DejaVuSans-71" transform="translate(313.183594 0)"/>
     <use xlink:href="#DejaVuSans-75" transform="translate(376.660156 0)"/>
     <use xlink:href="#DejaVuSans-65" transform="translate(440.039062 0)"/>
     <use xlink:href="#DejaVuSans-20" transform="translate(501.5625 0)"/>
     <use xlink:href="#DejaVuSans-2b" transform="translate(533.349609 0)"/>
     <use xlink:href="#DejaVuSans-20" transform="translate(617.138672 0)"/>
     <use xlink:href="#DejaVuSans-73" transform="translate(648.925781 0)"/>
     <use xlink:href="#DejaVuSans-65" transform="translate(701.025391 0)"/>
     <use xlink:href="#DejaVuSans-61" transform="translate(762.548828 0)"/>
     <use xlink:href="#DejaVuSans-72" transform="translate(823.828125 0)"/>
     <use xlink:href="#DejaVuSans-63" transform="translate(862.691406 0)"/>
     <use xlink:href="#DejaVuSans-68" transform="translate(917.671875 0)"/>
     <use xlink:href="#DejaVuSans-73" transform="translate(981.050781 0)"/>
     <use xlink:href="#DejaVuSans-6f" transform="translate(1033.150391 0)"/>
     <use xlink:href="#DejaVuSans-72" transform="translate(1094.332031 0)"/>
     <use xlink:href="#DejaVuSans-74" transform="translate(1135.445312 0)"/>
     <use xlink:href="#DejaVuSans-65" transform="translate(1174.654297 0)"/>
     <use xlink:href="#DejaVuSans-64" transform="translate(1236.177734 0)"/>
    </g>
    <!-- sorts all N points -->
    <g style="fill: #2f3338" transform="translate(60.704663 125.749052) scale(0.0924 -0.0924)">
     <defs>
      <path id="DejaVuSans-4e" d="M 628 4666 
L 1478 4666 
L 3547 763 
L 3547 4666 
L 4159 4666 
L 4159 0 
L 3309 0 
L 1241 3903 
L 1241 0 
L 628 0 
L 628 4666 
z
" transform="scale(0.015625)"/>
     </defs>
     <use xlink:href="#DejaVuSans-73"/>
     <use xlink:href="#DejaVuSans-6f" transform="translate(52.099609 0)"/>
     <use xlink:href="#DejaVuSans-72" transform="translate(113.28125 0)"/>
     <use xlink:href="#DejaVuSans-74" transform="translate(154.394531 0)"/>
     <use xlink:href="#DejaVuSans-73" transform="translate(193.603516 0)"/>
     <use xlink:href="#DejaVuSans-20" transform="translate(245.703125 0)"/>
     <use xlink:href="#DejaVuSans-61" transform="translate(277.490234 0)"/>
     <use xlink:href="#DejaVuSans-6c" transform="translate(338.769531 0)"/>
     <use xlink:href="#DejaVuSans-6c" transform="translate(366.552734 0)"/>
     <use xlink:href="#DejaVuSans-20" transform="translate(394.335938 0)"/>
     <use xlink:href="#DejaVuSans-4e" transform="translate(426.123047 0)"/>
     <use xlink:href="#DejaVuSans-20" transform="translate(500.927734 0)"/>
     <use xlink:href="#DejaVuSans-70" transform="translate(532.714844 0)"/>
     <use xlink:href="#DejaVuSans-6f" transform="translate(596.191406 0)"/>
     <use xlink:href="#DejaVuSans-69" transform="translate(657.373047 0)"/>
     <use xlink:href="#DejaVuSans-6e" transform="translate(685.15625 0)"/>
     <use xlink:href="#DejaVuSans-74" transform="translate(748.535156 0)"/>
     <use xlink:href="#DejaVuSans-73" transform="translate(787.744141 0)"/>
    </g>
   </g>
   <g id="text_8">
    <!-- histogram the integer bins, then rank -->
    <g style="fill: #2f3338" transform="translate(272.116125 115.402273) scale(0.0924 -0.0924)">
     <defs>
      <path id="DejaVuSans-67" d="M 2906 1791 
Q 2906 2416 2648 2759 
Q 2391 3103 1925 3103 
Q 1463 3103 1205 2759 
Q 947 2416 947 1791 
Q 947 1169 1205 825 
Q 1463 481 1925 481 
Q 2391 481 2648 825 
Q 2906 1169 2906 1791 
z
M 3481 434 
Q 3481 -459 3084 -895 
Q 2688 -1331 1869 -1331 
Q 1566 -1331 1297 -1286 
Q 1028 -1241 775 -1147 
L 775 -588 
Q 1028 -725 1275 -790 
Q 1522 -856 1778 -856 
Q 2344 -856 2625 -561 
Q 2906 -266 2906 331 
L 2906 616 
Q 2728 306 2450 153 
Q 2172 0 1784 0 
Q 1141 0 747 490 
Q 353 981 353 1791 
Q 353 2603 747 3093 
Q 1141 3584 1784 3584 
Q 2172 3584 2450 3431 
Q 2728 3278 2906 2969 
L 2906 3500 
L 3481 3500 
L 3481 434 
z
" transform="scale(0.015625)"/>
      <path id="DejaVuSans-62" d="M 3116 1747 
Q 3116 2381 2855 2742 
Q 2594 3103 2138 3103 
Q 1681 3103 1420 2742 
Q 1159 2381 1159 1747 
Q 1159 1113 1420 752 
Q 1681 391 2138 391 
Q 2594 391 2855 752 
Q 3116 1113 3116 1747 
z
M 1159 2969 
Q 1341 3281 1617 3432 
Q 1894 3584 2278 3584 
Q 2916 3584 3314 3078 
Q 3713 2572 3713 1747 
Q 3713 922 3314 415 
Q 2916 -91 2278 -91 
Q 1894 -91 1617 61 
Q 1341 213 1159 525 
L 1159 0 
L 581 0 
L 581 4863 
L 1159 4863 
L 1159 2969 
z
" transform="scale(0.015625)"/>
      <path id="DejaVuSans-6b" d="M 581 4863 
L 1159 4863 
L 1159 1991 
L 2875 3500 
L 3609 3500 
L 1753 1863 
L 3688 0 
L 2938 0 
L 1159 1709 
L 1159 0 
L 581 0 
L 581 4863 
z
" transform="scale(0.015625)"/>
     </defs>
     <use xlink:href="#DejaVuSans-68"/>
     <use xlink:href="#DejaVuSans-69" transform="translate(63.378906 0)"/>
     <use xlink:href="#DejaVuSans-73" transform="translate(91.162109 0)"/>
     <use xlink:href="#DejaVuSans-74" transform="translate(143.261719 0)"/>
     <use xlink:href="#DejaVuSans-6f" transform="translate(182.470703 0)"/>
     <use xlink:href="#DejaVuSans-67" transform="translate(243.652344 0)"/>
     <use xlink:href="#DejaVuSans-72" transform="translate(307.128906 0)"/>
     <use xlink:href="#DejaVuSans-61" transform="translate(348.242188 0)"/>
     <use xlink:href="#DejaVuSans-6d" transform="translate(409.521484 0)"/>
     <use xlink:href="#DejaVuSans-20" transform="translate(506.933594 0)"/>
     <use xlink:href="#DejaVuSans-74" transform="translate(538.720703 0)"/>
     <use xlink:href="#DejaVuSans-68" transform="translate(577.929688 0)"/>
     <use xlink:href="#DejaVuSans-65" transform="translate(641.308594 0)"/>
     <use xlink:href="#DejaVuSans-20" transform="translate(702.832031 0)"/>
     <use xlink:href="#DejaVuSans-69" transform="translate(734.619141 0)"/>
     <use xlink:href="#DejaVuSans-6e" transform="translate(762.402344 0)"/>
     <use xlink:href="#DejaVuSans-74" transform="translate(825.78125 0)"/>
     <use xlink:href="#DejaVuSans-65" transform="translate(864.990234 0)"/>
     <use xlink:href="#DejaVuSans-67" transform="translate(926.513672 0)"/>
     <use xlink:href="#DejaVuSans-65" transform="translate(989.990234 0)"/>
     <use xlink:href="#DejaVuSans-72" transform="translate(1051.513672 0)"/>
     <use xlink:href="#DejaVuSans-20" transform="translate(1092.626953 0)"/>
     <use xlink:href="#DejaVuSans-62" transform="translate(1124.414062 0)"/>
     <use xlink:href="#DejaVuSans-69" transform="translate(1187.890625 0)"/>
     <use xlink:href="#DejaVuSans-6e" transform="translate(1215.673828 0)"/>
     <use xlink:href="#DejaVuSans-73" transform="translate(1279.052734 0)"/>
     <use xlink:href="#DejaVuSans-2c" transform="translate(1331.152344 0)"/>
     <use xlink:href="#DejaVuSans-20" transform="translate(1362.939453 0)"/>
     <use xlink:href="#DejaVuSans-74" transform="translate(1394.726562 0)"/>
     <use xlink:href="#DejaVuSans-68" transform="translate(1433.935547 0)"/>
     <use xlink:href="#DejaVuSans-65" transform="translate(1497.314453 0)"/>
     <use xlink:href="#DejaVuSans-6e" transform="translate(1558.837891 0)"/>
     <use xlink:href="#DejaVuSans-20" transform="translate(1622.216797 0)"/>
     <use xlink:href="#DejaVuSans-72" transform="translate(1654.003906 0)"/>
     <use xlink:href="#DejaVuSans-61" transform="translate(1695.117188 0)"/>
     <use xlink:href="#DejaVuSans-6e" transform="translate(1756.396484 0)"/>
     <use xlink:href="#DejaVuSans-6b" transform="translate(1819.775391 0)"/>
    </g>
    <!-- one pass, no sort -->
    <g style="fill: #2f3338" transform="translate(319.115241 125.749052) scale(0.0924 -0.0924)">
     <use xlink:href="#DejaVuSans-6f"/>
     <use xlink:href="#DejaVuSans-6e" transform="translate(61.181641 0)"/>
     <use xlink:href="#DejaVuSans-65" transform="translate(124.560547 0)"/>
     <use xlink:href="#DejaVuSans-20" transform="translate(186.083984 0)"/>
     <use xlink:href="#DejaVuSans-70" transform="translate(217.871094 0)"/>
     <use xlink:href="#DejaVuSans-61" transform="translate(281.347656 0)"/>
     <use xlink:href="#DejaVuSans-73" transform="translate(342.626953 0)"/>
     <use xlink:href="#DejaVuSans-73" transform="translate(394.726562 0)"/>
     <use xlink:href="#DejaVuSans-2c" transform="translate(446.826172 0)"/>
     <use xlink:href="#DejaVuSans-20" transform="translate(478.613281 0)"/>
     <use xlink:href="#DejaVuSans-6e" transform="translate(510.400391 0)"/>
     <use xlink:href="#DejaVuSans-6f" transform="translate(573.779297 0)"/>
     <use xlink:href="#DejaVuSans-20" transform="translate(634.960938 0)"/>
     <use xlink:href="#DejaVuSans-73" transform="translate(666.748047 0)"/>
     <use xlink:href="#DejaVuSans-6f" transform="translate(718.847656 0)"/>
     <use xlink:href="#DejaVuSans-72" transform="translate(780.029297 0)"/>
     <use xlink:href="#DejaVuSans-74" transform="translate(821.142578 0)"/>
    </g>
   </g>
   <g id="text_9">
    <!-- SLOW: sort -->
    <g style="fill: #b5651d" transform="translate(62.038688 94.464) scale(0.12 -0.12)">
     <defs>
      <path id="DejaVuSans-Bold-53" d="M 3834 4519 
L 3834 3531 
Q 3450 3703 3084 3790 
Q 2719 3878 2394 3878 
Q 1963 3878 1756 3759 
Q 1550 3641 1550 3391 
Q 1550 3203 1689 3098 
Q 1828 2994 2194 2919 
L 2706 2816 
Q 3484 2659 3812 2340 
Q 4141 2022 4141 1434 
Q 4141 663 3683 286 
Q 3225 -91 2284 -91 
Q 1841 -91 1394 -6 
Q 947 78 500 244 
L 500 1259 
Q 947 1022 1364 901 
Q 1781 781 2169 781 
Q 2563 781 2772 912 
Q 2981 1044 2981 1288 
Q 2981 1506 2839 1625 
Q 2697 1744 2272 1838 
L 1806 1941 
Q 1106 2091 782 2419 
Q 459 2747 459 3303 
Q 459 4000 909 4375 
Q 1359 4750 2203 4750 
Q 2588 4750 2994 4692 
Q 3400 4634 3834 4519 
z
" transform="scale(0.015625)"/>
      <path id="DejaVuSans-Bold-4c" d="M 588 4666 
L 1791 4666 
L 1791 909 
L 3903 909 
L 3903 0 
L 588 0 
L 588 4666 
z
" transform="scale(0.015625)"/>
      <path id="DejaVuSans-Bold-4f" d="M 2719 3878 
Q 2169 3878 1866 3472 
Q 1563 3066 1563 2328 
Q 1563 1594 1866 1187 
Q 2169 781 2719 781 
Q 3272 781 3575 1187 
Q 3878 1594 3878 2328 
Q 3878 3066 3575 3472 
Q 3272 3878 2719 3878 
z
M 2719 4750 
Q 3844 4750 4481 4106 
Q 5119 3463 5119 2328 
Q 5119 1197 4481 553 
Q 3844 -91 2719 -91 
Q 1597 -91 958 553 
Q 319 1197 319 2328 
Q 319 3463 958 4106 
Q 1597 4750 2719 4750 
z
" transform="scale(0.015625)"/>
      <path id="DejaVuSans-Bold-57" d="M 191 4666 
L 1344 4666 
L 2150 1275 
L 2950 4666 
L 4109 4666 
L 4909 1275 
L 5716 4666 
L 6859 4666 
L 5759 0 
L 4372 0 
L 3525 3547 
L 2688 0 
L 1300 0 
L 191 4666 
z
" transform="scale(0.015625)"/>
      <path id="DejaVuSans-Bold-3a" d="M 716 3500 
L 1844 3500 
L 1844 2291 
L 716 2291 
L 716 3500 
z
M 716 1209 
L 1844 1209 
L 1844 0 
L 716 0 
L 716 1209 
z
" transform="scale(0.015625)"/>
      <path id="DejaVuSans-Bold-20" transform="scale(0.015625)"/>
      <path id="DejaVuSans-Bold-73" d="M 3272 3391 
L 3272 2541 
Q 2913 2691 2578 2766 
Q 2244 2841 1947 2841 
Q 1628 2841 1473 2761 
Q 1319 2681 1319 2516 
Q 1319 2381 1436 2309 
Q 1553 2238 1856 2203 
L 2053 2175 
Q 2913 2066 3209 1816 
Q 3506 1566 3506 1031 
Q 3506 472 3093 190 
Q 2681 -91 1863 -91 
Q 1516 -91 1145 -36 
Q 775 19 384 128 
L 384 978 
Q 719 816 1070 734 
Q 1422 653 1784 653 
Q 2113 653 2278 743 
Q 2444 834 2444 1013 
Q 2444 1163 2330 1236 
Q 2216 1309 1875 1350 
L 1678 1375 
Q 931 1469 631 1722 
Q 331 1975 331 2491 
Q 331 3047 712 3315 
Q 1094 3584 1881 3584 
Q 2191 3584 2531 3537 
Q 2872 3491 3272 3391 
z
" transform="scale(0.015625)"/>
      <path id="DejaVuSans-Bold-6f" d="M 2203 2784 
Q 1831 2784 1636 2517 
Q 1441 2250 1441 1747 
Q 1441 1244 1636 976 
Q 1831 709 2203 709 
Q 2569 709 2762 976 
Q 2956 1244 2956 1747 
Q 2956 2250 2762 2517 
Q 2569 2784 2203 2784 
z
M 2203 3584 
Q 3106 3584 3614 3096 
Q 4122 2609 4122 1747 
Q 4122 884 3614 396 
Q 3106 -91 2203 -91 
Q 1297 -91 786 396 
Q 275 884 275 1747 
Q 275 2609 786 3096 
Q 1297 3584 2203 3584 
z
" transform="scale(0.015625)"/>
      <path id="DejaVuSans-Bold-72" d="M 3138 2547 
Q 2991 2616 2845 2648 
Q 2700 2681 2553 2681 
Q 2122 2681 1889 2404 
Q 1656 2128 1656 1613 
L 1656 0 
L 538 0 
L 538 3500 
L 1656 3500 
L 1656 2925 
Q 1872 3269 2151 3426 
Q 2431 3584 2822 3584 
Q 2878 3584 2943 3579 
Q 3009 3575 3134 3559 
L 3138 2547 
z
" transform="scale(0.015625)"/>
      <path id="DejaVuSans-Bold-74" d="M 1759 4494 
L 1759 3500 
L 2913 3500 
L 2913 2700 
L 1759 2700 
L 1759 1216 
Q 1759 972 1856 886 
Q 1953 800 2241 800 
L 2816 800 
L 2816 0 
L 1856 0 
Q 1194 0 917 276 
Q 641 553 641 1216 
L 641 2700 
L 84 2700 
L 84 3500 
L 641 3500 
L 641 4494 
L 1759 4494 
z
" transform="scale(0.015625)"/>
     </defs>
     <use xlink:href="#DejaVuSans-Bold-53"/>
     <use xlink:href="#DejaVuSans-Bold-4c" transform="translate(72.021484 0)"/>
     <use xlink:href="#DejaVuSans-Bold-4f" transform="translate(132.117188 0)"/>
     <use xlink:href="#DejaVuSans-Bold-57" transform="translate(217.126953 0)"/>
     <use xlink:href="#DejaVuSans-Bold-3a" transform="translate(324.304688 0)"/>
     <use xlink:href="#DejaVuSans-Bold-20" transform="translate(364.294922 0)"/>
     <use xlink:href="#DejaVuSans-Bold-73" transform="translate(399.109375 0)"/>
     <use xlink:href="#DejaVuSans-Bold-6f" transform="translate(458.630859 0)"/>
     <use xlink:href="#DejaVuSans-Bold-72" transform="translate(527.332031 0)"/>
     <use xlink:href="#DejaVuSans-Bold-74" transform="translate(576.648438 0)"/>
    </g>
   </g>
   <g id="text_10">
    <!-- FAST: histogram -->
    <g style="fill: #3f7d4f" transform="translate(303.794588 94.464) scale(0.12 -0.12)">
     <defs>
      <path id="DejaVuSans-Bold-46" d="M 588 4666 
L 3834 4666 
L 3834 3756 
L 1791 3756 
L 1791 2888 
L 3713 2888 
L 3713 1978 
L 1791 1978 
L 1791 0 
L 588 0 
L 588 4666 
z
" transform="scale(0.015625)"/>
      <path id="DejaVuSans-Bold-41" d="M 3419 850 
L 1538 850 
L 1241 0 
L 31 0 
L 1759 4666 
L 3194 4666 
L 4922 0 
L 3713 0 
L 3419 850 
z
M 1838 1716 
L 3116 1716 
L 2478 3572 
L 1838 1716 
z
" transform="scale(0.015625)"/>
      <path id="DejaVuSans-Bold-54" d="M 31 4666 
L 4331 4666 
L 4331 3756 
L 2784 3756 
L 2784 0 
L 1581 0 
L 1581 3756 
L 31 3756 
L 31 4666 
z
" transform="scale(0.015625)"/>
      <path id="DejaVuSans-Bold-68" d="M 4056 2131 
L 4056 0 
L 2931 0 
L 2931 347 
L 2931 1625 
Q 2931 2084 2911 2256 
Q 2891 2428 2841 2509 
Q 2775 2619 2662 2680 
Q 2550 2741 2406 2741 
Q 2056 2741 1856 2470 
Q 1656 2200 1656 1722 
L 1656 0 
L 538 0 
L 538 4863 
L 1656 4863 
L 1656 2988 
Q 1909 3294 2193 3439 
Q 2478 3584 2822 3584 
Q 3428 3584 3742 3212 
Q 4056 2841 4056 2131 
z
" transform="scale(0.015625)"/>
      <path id="DejaVuSans-Bold-69" d="M 538 3500 
L 1656 3500 
L 1656 0 
L 538 0 
L 538 3500 
z
M 538 4863 
L 1656 4863 
L 1656 3950 
L 538 3950 
L 538 4863 
z
" transform="scale(0.015625)"/>
      <path id="DejaVuSans-Bold-67" d="M 2919 594 
Q 2688 288 2409 144 
Q 2131 0 1766 0 
Q 1125 0 706 504 
Q 288 1009 288 1791 
Q 288 2575 706 3076 
Q 1125 3578 1766 3578 
Q 2131 3578 2409 3434 
Q 2688 3291 2919 2981 
L 2919 3500 
L 4044 3500 
L 4044 353 
Q 4044 -491 3511 -936 
Q 2978 -1381 1966 -1381 
Q 1638 -1381 1331 -1331 
Q 1025 -1281 716 -1178 
L 716 -306 
Q 1009 -475 1290 -558 
Q 1572 -641 1856 -641 
Q 2406 -641 2662 -400 
Q 2919 -159 2919 353 
L 2919 594 
z
M 2181 2772 
Q 1834 2772 1640 2515 
Q 1447 2259 1447 1791 
Q 1447 1309 1634 1061 
Q 1822 813 2181 813 
Q 2531 813 2725 1069 
Q 2919 1325 2919 1791 
Q 2919 2259 2725 2515 
Q 2531 2772 2181 2772 
z
" transform="scale(0.015625)"/>
      <path id="DejaVuSans-Bold-61" d="M 2106 1575 
Q 1756 1575 1579 1456 
Q 1403 1338 1403 1106 
Q 1403 894 1545 773 
Q 1688 653 1941 653 
Q 2256 653 2472 879 
Q 2688 1106 2688 1447 
L 2688 1575 
L 2106 1575 
z
M 3816 1997 
L 3816 0 
L 2688 0 
L 2688 519 
Q 2463 200 2181 54 
Q 1900 -91 1497 -91 
Q 953 -91 614 226 
Q 275 544 275 1050 
Q 275 1666 698 1953 
Q 1122 2241 2028 2241 
L 2688 2241 
L 2688 2328 
Q 2688 2594 2478 2717 
Q 2269 2841 1825 2841 
Q 1466 2841 1156 2769 
Q 847 2697 581 2553 
L 581 3406 
Q 941 3494 1303 3539 
Q 1666 3584 2028 3584 
Q 2975 3584 3395 3211 
Q 3816 2838 3816 1997 
z
" transform="scale(0.015625)"/>
      <path id="DejaVuSans-Bold-6d" d="M 3781 2919 
Q 3994 3244 4286 3414 
Q 4578 3584 4928 3584 
Q 5531 3584 5847 3212 
Q 6163 2841 6163 2131 
L 6163 0 
L 5038 0 
L 5038 1825 
Q 5041 1866 5042 1909 
Q 5044 1953 5044 2034 
Q 5044 2406 4934 2573 
Q 4825 2741 4581 2741 
Q 4263 2741 4089 2478 
Q 3916 2216 3909 1719 
L 3909 0 
L 2784 0 
L 2784 1825 
Q 2784 2406 2684 2573 
Q 2584 2741 2328 2741 
Q 2006 2741 1831 2477 
Q 1656 2213 1656 1722 
L 1656 0 
L 531 0 
L 531 3500 
L 1656 3500 
L 1656 2988 
Q 1863 3284 2130 3434 
Q 2397 3584 2719 3584 
Q 3081 3584 3359 3409 
Q 3638 3234 3781 2919 
z
" transform="scale(0.015625)"/>
     </defs>
     <use xlink:href="#DejaVuSans-Bold-46"/>
     <use xlink:href="#DejaVuSans-Bold-41" transform="translate(56.810547 0)"/>
     <use xlink:href="#DejaVuSans-Bold-53" transform="translate(134.203125 0)"/>
     <use xlink:href="#DejaVuSans-Bold-54" transform="translate(206.224609 0)"/>
     <use xlink:href="#DejaVuSans-Bold-3a" transform="translate(268.9375 0)"/>
     <use xlink:href="#DejaVuSans-Bold-20" transform="translate(308.927734 0)"/>
     <use xlink:href="#DejaVuSans-Bold-68" transform="translate(343.742188 0)"/>
     <use xlink:href="#DejaVuSans-Bold-69" transform="translate(414.933594 0)"/>
     <use xlink:href="#DejaVuSans-Bold-73" transform="translate(449.210938 0)"/>
     <use xlink:href="#DejaVuSans-Bold-74" transform="translate(508.732422 0)"/>
     <use xlink:href="#DejaVuSans-Bold-6f" transform="translate(556.535156 0)"/>
     <use xlink:href="#DejaVuSans-Bold-67" transform="translate(625.236328 0)"/>
     <use xlink:href="#DejaVuSans-Bold-72" transform="translate(696.818359 0)"/>
     <use xlink:href="#DejaVuSans-Bold-61" transform="translate(746.134766 0)"/>
     <use xlink:href="#DejaVuSans-Bold-6d" transform="translate(813.615234 0)"/>
    </g>
   </g>
   <g id="text_11">
    <!-- m/z 100 -->
    <g style="fill: #2f3338" transform="translate(128.084556 185.963334) scale(0.0968 -0.0968)">
     <defs>
      <path id="DejaVuSans-Bold-2f" d="M 1644 4666 
L 2338 4666 
L 691 -594 
L 0 -594 
L 1644 4666 
z
" transform="scale(0.015625)"/>
      <path id="DejaVuSans-Bold-7a" d="M 366 3500 
L 3419 3500 
L 3419 2719 
L 1575 800 
L 3419 800 
L 3419 0 
L 288 0 
L 288 781 
L 2131 2700 
L 366 2700 
L 366 3500 
z
" transform="scale(0.015625)"/>
      <path id="DejaVuSans-Bold-31" d="M 750 831 
L 1813 831 
L 1813 3847 
L 722 3622 
L 722 4441 
L 1806 4666 
L 2950 4666 
L 2950 831 
L 4013 831 
L 4013 0 
L 750 0 
L 750 831 
z
" transform="scale(0.015625)"/>
      <path id="DejaVuSans-Bold-30" d="M 2944 2338 
Q 2944 3213 2780 3570 
Q 2616 3928 2228 3928 
Q 1841 3928 1675 3570 
Q 1509 3213 1509 2338 
Q 1509 1453 1675 1090 
Q 1841 728 2228 728 
Q 2613 728 2778 1090 
Q 2944 1453 2944 2338 
z
M 4147 2328 
Q 4147 1169 3647 539 
Q 3147 -91 2228 -91 
Q 1306 -91 806 539 
Q 306 1169 306 2328 
Q 306 3491 806 4120 
Q 1306 4750 2228 4750 
Q 3147 4750 3647 4120 
Q 4147 3491 4147 2328 
z
" transform="scale(0.015625)"/>
     </defs>
     <use xlink:href="#DejaVuSans-Bold-6d"/>
     <use xlink:href="#DejaVuSans-Bold-2f" transform="translate(104.199219 0)"/>
     <use xlink:href="#DejaVuSans-Bold-7a" transform="translate(140.722656 0)"/>
     <use xlink:href="#DejaVuSans-Bold-20" transform="translate(198.925781 0)"/>
     <use xlink:href="#DejaVuSans-Bold-31" transform="translate(233.740234 0)"/>
     <use xlink:href="#DejaVuSans-Bold-30" transform="translate(303.320312 0)"/>
     <use xlink:href="#DejaVuSans-Bold-30" transform="translate(372.900391 0)"/>
    </g>
    <!-- 7 -->
    <g style="fill: #2f3338" transform="translate(146.133219 196.802816) scale(0.0968 -0.0968)">
     <defs>
      <path id="DejaVuSans-Bold-37" d="M 428 4666 
L 3944 4666 
L 3944 3988 
L 2125 0 
L 953 0 
L 2675 3781 
L 428 3781 
L 428 4666 
z
" transform="scale(0.015625)"/>
     </defs>
     <use xlink:href="#DejaVuSans-Bold-37"/>
    </g>
   </g>
   <g id="text_12">
    <!-- 3 + 4 -->
    <g style="fill: #888888" transform="translate(136.456855 212.274) scale(0.095 -0.095)">
     <use xlink:href="#DejaVuSans-33"/>
     <use xlink:href="#DejaVuSans-20" transform="translate(63.623047 0)"/>
     <use xlink:href="#DejaVuSans-2b" transform="translate(95.410156 0)"/>
     <use xlink:href="#DejaVuSans-20" transform="translate(179.199219 0)"/>
     <use xlink:href="#DejaVuSans-34" transform="translate(210.986328 0)"/>
    </g>
   </g>
   <g id="text_13">
    <!-- m/z 101 -->
    <g style="fill: #2f3338" transform="translate(215.578956 185.963334) scale(0.0968 -0.0968)">
     <use xlink:href="#DejaVuSans-Bold-6d"/>
     <use xlink:href="#DejaVuSans-Bold-2f" transform="translate(104.199219 0)"/>
     <use xlink:href="#DejaVuSans-Bold-7a" transform="translate(140.722656 0)"/>
     <use xlink:href="#DejaVuSans-Bold-20" transform="translate(198.925781 0)"/>
     <use xlink:href="#DejaVuSans-Bold-31" transform="translate(233.740234 0)"/>
     <use xlink:href="#DejaVuSans-Bold-30" transform="translate(303.320312 0)"/>
     <use xlink:href="#DejaVuSans-Bold-31" transform="translate(372.900391 0)"/>
    </g>
    <!-- 9 -->
    <g style="fill: #2f3338" transform="translate(233.627619 196.802816) scale(0.0968 -0.0968)">
     <defs>
      <path id="DejaVuSans-Bold-39" d="M 641 103 
L 641 966 
Q 928 831 1190 764 
Q 1453 697 1709 697 
Q 2247 697 2547 995 
Q 2847 1294 2900 1881 
Q 2688 1725 2447 1647 
Q 2206 1569 1925 1569 
Q 1209 1569 770 1986 
Q 331 2403 331 3084 
Q 331 3838 820 4291 
Q 1309 4744 2131 4744 
Q 3044 4744 3544 4128 
Q 4044 3513 4044 2388 
Q 4044 1231 3459 570 
Q 2875 -91 1856 -91 
Q 1528 -91 1228 -42 
Q 928 6 641 103 
z
M 2125 2350 
Q 2441 2350 2600 2554 
Q 2759 2759 2759 3169 
Q 2759 3575 2600 3781 
Q 2441 3988 2125 3988 
Q 1809 3988 1650 3781 
Q 1491 3575 1491 3169 
Q 1491 2759 1650 2554 
Q 1809 2350 2125 2350 
z
" transform="scale(0.015625)"/>
     </defs>
     <use xlink:href="#DejaVuSans-Bold-39"/>
    </g>
   </g>
   <g id="text_14">
    <!-- 9 -->
    <g style="fill: #888888" transform="translate(233.973013 212.274) scale(0.095 -0.095)">
     <use xlink:href="#DejaVuSans-39"/>
    </g>
   </g>
   <g id="text_15">
    <!-- m/z 102 -->
    <g style="fill: #2f3338" transform="translate(303.073356 185.963334) scale(0.0968 -0.0968)">
     <defs>
      <path id="DejaVuSans-Bold-32" d="M 1844 884 
L 3897 884 
L 3897 0 
L 506 0 
L 506 884 
L 2209 2388 
Q 2438 2594 2547 2791 
Q 2656 2988 2656 3200 
Q 2656 3528 2436 3728 
Q 2216 3928 1850 3928 
Q 1569 3928 1234 3808 
Q 900 3688 519 3450 
L 519 4475 
Q 925 4609 1322 4679 
Q 1719 4750 2100 4750 
Q 2938 4750 3402 4381 
Q 3866 4013 3866 3353 
Q 3866 2972 3669 2642 
Q 3472 2313 2841 1759 
L 1844 884 
z
" transform="scale(0.015625)"/>
     </defs>
     <use xlink:href="#DejaVuSans-Bold-6d"/>
     <use xlink:href="#DejaVuSans-Bold-2f" transform="translate(104.199219 0)"/>
     <use xlink:href="#DejaVuSans-Bold-7a" transform="translate(140.722656 0)"/>
     <use xlink:href="#DejaVuSans-Bold-20" transform="translate(198.925781 0)"/>
     <use xlink:href="#DejaVuSans-Bold-31" transform="translate(233.740234 0)"/>
     <use xlink:href="#DejaVuSans-Bold-30" transform="translate(303.320312 0)"/>
     <use xlink:href="#DejaVuSans-Bold-32" transform="translate(372.900391 0)"/>
    </g>
    <!-- 12 -->
    <g style="fill: #2f3338" transform="translate(317.754437 196.802816) scale(0.0968 -0.0968)">
     <use xlink:href="#DejaVuSans-Bold-31"/>
     <use xlink:href="#DejaVuSans-Bold-32" transform="translate(69.580078 0)"/>
    </g>
   </g>
   <g id="text_16">
    <!-- 5 + 7 -->
    <g style="fill: #888888" transform="translate(311.445655 212.274) scale(0.095 -0.095)">
     <use xlink:href="#DejaVuSans-35"/>
     <use xlink:href="#DejaVuSans-20" transform="translate(63.623047 0)"/>
     <use xlink:href="#DejaVuSans-2b" transform="translate(95.410156 0)"/>
     <use xlink:href="#DejaVuSans-20" transform="translate(179.199219 0)"/>
     <use xlink:href="#DejaVuSans-37" transform="translate(210.986328 0)"/>
    </g>
   </g>
   <g id="text_17">
    <!-- one row of the (time x m/z) matrix for this scan -->
    <g style="fill: #2f3338" transform="translate(95.674884 233.064) scale(0.11 -0.11)">
     <defs>
      <path id="DejaVuSans-66" d="M 2375 4863 
L 2375 4384 
L 1825 4384 
Q 1516 4384 1395 4259 
Q 1275 4134 1275 3809 
L 1275 3500 
L 2222 3500 
L 2222 3053 
L 1275 3053 
L 1275 0 
L 697 0 
L 697 3053 
L 147 3053 
L 147 3500 
L 697 3500 
L 697 3744 
Q 697 4328 969 4595 
Q 1241 4863 1831 4863 
L 2375 4863 
z
" transform="scale(0.015625)"/>
      <path id="DejaVuSans-78" d="M 3513 3500 
L 2247 1797 
L 3578 0 
L 2900 0 
L 1881 1375 
L 863 0 
L 184 0 
L 1544 1831 
L 300 3500 
L 978 3500 
L 1906 2253 
L 2834 3500 
L 3513 3500 
z
" transform="scale(0.015625)"/>
     </defs>
     <use xlink:href="#DejaVuSans-6f"/>
     <use xlink:href="#DejaVuSans-6e" transform="translate(61.181641 0)"/>
     <use xlink:href="#DejaVuSans-65" transform="translate(124.560547 0)"/>
     <use xlink:href="#DejaVuSans-20" transform="translate(186.083984 0)"/>
     <use xlink:href="#DejaVuSans-72" transform="translate(217.871094 0)"/>
     <use xlink:href="#DejaVuSans-6f" transform="translate(256.734375 0)"/>
     <use xlink:href="#DejaVuSans-77" transform="translate(317.916016 0)"/>
     <use xlink:href="#DejaVuSans-20" transform="translate(399.703125 0)"/>
     <use xlink:href="#DejaVuSans-6f" transform="translate(431.490234 0)"/>
     <use xlink:href="#DejaVuSans-66" transform="translate(492.671875 0)"/>
     <use xlink:href="#DejaVuSans-20" transform="translate(527.876953 0)"/>
     <use xlink:href="#DejaVuSans-74" transform="translate(559.664062 0)"/>
     <use xlink:href="#DejaVuSans-68" transform="translate(598.873047 0)"/>
     <use xlink:href="#DejaVuSans-65" transform="translate(662.251953 0)"/>
     <use xlink:href="#DejaVuSans-20" transform="translate(723.775391 0)"/>
     <use xlink:href="#DejaVuSans-28" transform="translate(755.5625 0)"/>
     <use xlink:href="#DejaVuSans-74" transform="translate(794.576172 0)"/>
     <use xlink:href="#DejaVuSans-69" transform="translate(833.785156 0)"/>
     <use xlink:href="#DejaVuSans-6d" transform="translate(861.568359 0)"/>
     <use xlink:href="#DejaVuSans-65" transform="translate(958.980469 0)"/>
     <use xlink:href="#DejaVuSans-20" transform="translate(1020.503906 0)"/>
     <use xlink:href="#DejaVuSans-78" transform="translate(1052.291016 0)"/>
     <use xlink:href="#DejaVuSans-20" transform="translate(1111.470703 0)"/>
     <use xlink:href="#DejaVuSans-6d" transform="translate(1143.257812 0)"/>
     <use xlink:href="#DejaVuSans-2f" transform="translate(1240.669922 0)"/>
     <use xlink:href="#DejaVuSans-7a" transform="translate(1274.361328 0)"/>
     <use xlink:href="#DejaVuSans-29" transform="translate(1326.851562 0)"/>
     <use xlink:href="#DejaVuSans-20" transform="translate(1365.865234 0)"/>
     <use xlink:href="#DejaVuSans-6d" transform="translate(1397.652344 0)"/>
     <use xlink:href="#DejaVuSans-61" transform="translate(1495.064453 0)"/>
     <use xlink:href="#DejaVuSans-74" transform="translate(1556.34375 0)"/>
     <use xlink:href="#DejaVuSans-72" transform="translate(1595.552734 0)"/>
     <use xlink:href="#DejaVuSans-69" transform="translate(1636.666016 0)"/>
     <use xlink:href="#DejaVuSans-78" transform="translate(1664.449219 0)"/>
     <use xlink:href="#DejaVuSans-20" transform="translate(1723.628906 0)"/>
     <use xlink:href="#DejaVuSans-66" transform="translate(1755.416016 0)"/>
     <use xlink:href="#DejaVuSans-6f" transform="translate(1790.621094 0)"/>
     <use xlink:href="#DejaVuSans-72" transform="translate(1851.802734 0)"/>
     <use xlink:href="#DejaVuSans-20" transform="translate(1892.916016 0)"/>
     <use xlink:href="#DejaVuSans-74" transform="translate(1924.703125 0)"/>
     <use xlink:href="#DejaVuSans-68" transform="translate(1963.912109 0)"/>
     <use xlink:href="#DejaVuSans-69" transform="translate(2027.291016 0)"/>
     <use xlink:href="#DejaVuSans-73" transform="translate(2055.074219 0)"/>
     <use xlink:href="#DejaVuSans-20" transform="translate(2107.173828 0)"/>
     <use xlink:href="#DejaVuSans-73" transform="translate(2138.960938 0)"/>
     <use xlink:href="#DejaVuSans-63" transform="translate(2191.060547 0)"/>
     <use xlink:href="#DejaVuSans-61" transform="translate(2246.041016 0)"/>
     <use xlink:href="#DejaVuSans-6e" transform="translate(2307.320312 0)"/>
    </g>
   </g>
  </g>
 </g>
 <defs>
  <clipPath id="p673443696b">
   <rect x="5.76" y="5.76" width="468.72" height="271.656"/>
  </clipPath>
 </defs>
</svg>
