<?xml version="1.0" encoding="utf-8" standalone="no"?>
<!DOCTYPE svg PUBLIC "-//W3C//DTD SVG 1.1//EN"
  "http://www.w3.org/Graphics/SVG/1.1/DTD/svg11.dtd">
<svg xmlns:xlink="http://www.w3.org/1999/xlink" width="561.192245pt" height="172.296pt" viewBox="0 0 561.192245 172.296" xmlns="http://www.w3.org/2000/svg" version="1.1">
 <metadata>
  <rdf:RDF xmlns:dc="http://purl.org/dc/elements/1.1/" xmlns:cc="http://creativecommons.org/ns#" xmlns:rdf="http://www.w3.org/1999/02/22-rdf-syntax-ns#">
   <cc:Work>
    <dc:type rdf:resource="http://purl.org/dc/dcmitype/StillImage"/>
    <dc:date>2026-06-18T18:09:07.757396</dc:date>
    <dc:format>image/svg+xml</dc:format>
    <dc:creator>
     <cc:Agent>
      <dc:title>Matplotlib v3.10.9, https://matplotlib.org/</dc:title>
     </cc:Agent>
    </dc:creator>
   </cc:Work>
  </rdf:RDF>
 </metadata>
 <defs>
  <style type="text/css">*{stroke-linejoin: round; stroke-linecap: butt}</style>
 </defs>
 <g id="figure_1">
  <g id="patch_1">
   <path d="M 0 172.296 
L 561.192245 172.296 
L 561.192245 0 
L 0 0 
L 0 172.296 
z
" style="fill: none"/>
  </g>
  <g id="axes_1">
   <g id="patch_2">
    <path d="M 15.394041 146.439 
L 57.676776 146.439 
Q 59.282449 146.439 59.282449 144.7164 
L 59.282449 121.7484 
Q 59.282449 120.0258 57.676776 120.0258 
L 15.394041 120.0258 
Q 13.788367 120.0258 13.788367 121.7484 
L 13.788367 144.7164 
Q 13.788367 146.439 15.394041 146.439 
z
" clip-path="url(#pdf937ab914)" style="fill: #f1f1f1; stroke: #bbbbbb; stroke-width: 1.3; stroke-linejoin: miter"/>
   </g>
   <g id="patch_3">
    <path d="M 99.691898 146.439 
L 141.974633 146.439 
Q 143.580306 146.439 143.580306 144.7164 
L 143.580306 121.7484 
Q 143.580306 120.0258 141.974633 120.0258 
L 99.691898 120.0258 
Q 98.086224 120.0258 98.086224 121.7484 
L 98.086224 144.7164 
Q 98.086224 146.439 99.691898 146.439 
z
" clip-path="url(#pdf937ab914)" style="fill: #eef6ee; stroke: #5f9a6f; stroke-width: 1.3; stroke-linejoin: miter"/>
   </g>
   <g id="patch_4">
    <path d="M 183.989755 146.439 
L 226.27249 146.439 
Q 227.878163 146.439 227.878163 144.7164 
L 227.878163 121.7484 
Q 227.878163 120.0258 226.27249 120.0258 
L 183.989755 120.0258 
Q 182.384082 120.0258 182.384082 121.7484 
L 182.384082 144.7164 
Q 182.384082 146.439 183.989755 146.439 
z
" clip-path="url(#pdf937ab914)" style="fill: #eef6ee; stroke: #5f9a6f; stroke-width: 1.3; stroke-linejoin: miter"/>
   </g>
   <g id="patch_5">
    <path d="M 268.287612 146.439 
L 310.570347 146.439 
Q 312.17602 146.439 312.17602 144.7164 
L 312.17602 121.7484 
Q 312.17602 120.0258 310.570347 120.0258 
L 268.287612 120.0258 
Q 266.681939 120.0258 266.681939 121.7484 
L 266.681939 144.7164 
Q 266.681939 146.439 268.287612 146.439 
z
" clip-path="url(#pdf937ab914)" style="fill: #ffe1b0; stroke: #d08a2e; stroke-width: 1.3; stroke-linejoin: miter"/>
   </g>
   <g id="patch_6">
    <path d="M 352.585469 146.439 
L 394.868204 146.439 
Q 396.473878 146.439 396.473878 144.7164 
L 396.473878 121.7484 
Q 396.473878 120.0258 394.868204 120.0258 
L 352.585469 120.0258 
Q 350.979796 120.0258 350.979796 121.7484 
L 350.979796 144.7164 
Q 350.979796 146.439 352.585469 146.439 
z
" clip-path="url(#pdf937ab914)" style="fill: #eef6ee; stroke: #5f9a6f; stroke-width: 1.3; stroke-linejoin: miter"/>
   </g>
   <g id="patch_7">
    <path d="M 436.883327 146.439 
L 479.166061 146.439 
Q 480.771735 146.439 480.771735 144.7164 
L 480.771735 121.7484 
Q 480.771735 120.0258 479.166061 120.0258 
L 436.883327 120.0258 
Q 435.277653 120.0258 435.277653 121.7484 
L 435.277653 144.7164 
Q 435.277653 146.439 436.883327 146.439 
z
" clip-path="url(#pdf937ab914)" style="fill: #eef6ee; stroke: #5f9a6f; stroke-width: 1.3; stroke-linejoin: miter"/>
   </g>
   <g id="patch_8">
    <path d="M 61.286111 133.2324 
Q 78.686653 133.2324 94.186537 133.2324 
" clip-path="url(#pdf937ab914)" style="fill: none; stroke: #b9c0cc; stroke-width: 1.7; stroke-linecap: round"/>
    <path d="M 88.986537 130.6324 
L 94.186537 133.2324 
L 88.986537 135.8324 
z
" clip-path="url(#pdf937ab914)" style="fill: #b9c0cc; stroke: #b9c0cc; stroke-width: 1.7; stroke-linecap: round"/>
   </g>
   <g id="patch_9">
    <path d="M 145.583968 133.2324 
Q 162.98451 133.2324 178.484394 133.2324 
" clip-path="url(#pdf937ab914)" style="fill: none; stroke: #b9c0cc; stroke-width: 1.7; stroke-linecap: round"/>
    <path d="M 173.284394 130.6324 
L 178.484394 133.2324 
L 173.284394 135.8324 
z
" clip-path="url(#pdf937ab914)" style="fill: #b9c0cc; stroke: #b9c0cc; stroke-width: 1.7; stroke-linecap: round"/>
   </g>
   <g id="patch_10">
    <path d="M 229.881825 133.2324 
Q 247.282367 133.2324 262.782251 133.2324 
" clip-path="url(#pdf937ab914)" style="fill: none; stroke: #b9c0cc; stroke-width: 1.7; stroke-linecap: round"/>
    <path d="M 257.582251 130.6324 
L 262.782251 133.2324 
L 257.582251 135.8324 
z
" clip-path="url(#pdf937ab914)" style="fill: #b9c0cc; stroke: #b9c0cc; stroke-width: 1.7; stroke-linecap: round"/>
   </g>
   <g id="patch_11">
    <path d="M 314.179682 133.2324 
Q 331.580224 133.2324 347.080109 133.2324 
" clip-path="url(#pdf937ab914)" style="fill: none; stroke: #b9c0cc; stroke-width: 1.7; stroke-linecap: round"/>
    <path d="M 341.880109 130.6324 
L 347.080109 133.2324 
L 341.880109 135.8324 
z
" clip-path="url(#pdf937ab914)" style="fill: #b9c0cc; stroke: #b9c0cc; stroke-width: 1.7; stroke-linecap: round"/>
   </g>
   <g id="patch_12">
    <path d="M 398.477539 133.2324 
Q 415.878081 133.2324 431.377966 133.2324 
" clip-path="url(#pdf937ab914)" style="fill: none; stroke: #b9c0cc; stroke-width: 1.7; stroke-linecap: round"/>
    <path d="M 426.177966 130.6324 
L 431.377966 133.2324 
L 426.177966 135.8324 
z
" clip-path="url(#pdf937ab914)" style="fill: #b9c0cc; stroke: #b9c0cc; stroke-width: 1.7; stroke-linecap: round"/>
   </g>
   <g id="patch_13">
    <path d="M 99.691898 83.277 
L 141.974633 83.277 
Q 143.580306 83.277 143.580306 81.5544 
L 143.580306 58.5864 
Q 143.580306 56.8638 141.974633 56.8638 
L 99.691898 56.8638 
Q 98.086224 56.8638 98.086224 58.5864 
L 98.086224 81.5544 
Q 98.086224 83.277 99.691898 83.277 
z
" clip-path="url(#pdf937ab914)" style="fill: #eef1f7; stroke: #6b7a99; stroke-width: 1.3; stroke-linejoin: miter"/>
   </g>
   <g id="patch_14">
    <path d="M 120.833265 85.273242 
Q 120.833265 101.65047 120.833265 116.238843 
" clip-path="url(#pdf937ab914)" style="fill: none; stroke: #9aa3b0; stroke-width: 1.6; stroke-linecap: round"/>
    <path d="M 123.433265 111.038843 
L 120.833265 116.238843 
L 118.233265 111.038843 
z
" clip-path="url(#pdf937ab914)" style="fill: #9aa3b0; stroke: #9aa3b0; stroke-width: 1.6; stroke-linecap: round"/>
   </g>
   <g id="patch_15">
    <path d="M 183.989755 83.277 
L 226.27249 83.277 
Q 227.878163 83.277 227.878163 81.5544 
L 227.878163 58.5864 
Q 227.878163 56.8638 226.27249 56.8638 
L 183.989755 56.8638 
Q 182.384082 56.8638 182.384082 58.5864 
L 182.384082 81.5544 
Q 182.384082 83.277 183.989755 83.277 
z
" clip-path="url(#pdf937ab914)" style="fill: #eef1f7; stroke: #6b7a99; stroke-width: 1.3; stroke-linejoin: miter"/>
   </g>
   <g id="patch_16">
    <path d="M 205.131122 85.273242 
Q 205.131122 101.65047 205.131122 116.238843 
" clip-path="url(#pdf937ab914)" style="fill: none; stroke: #9aa3b0; stroke-width: 1.6; stroke-linecap: round"/>
    <path d="M 207.731122 111.038843 
L 205.131122 116.238843 
L 202.531122 111.038843 
z
" clip-path="url(#pdf937ab914)" style="fill: #9aa3b0; stroke: #9aa3b0; stroke-width: 1.6; stroke-linecap: round"/>
   </g>
   <g id="patch_17">
    <path d="M 268.287612 83.277 
L 310.570347 83.277 
Q 312.17602 83.277 312.17602 81.5544 
L 312.17602 58.5864 
Q 312.17602 56.8638 310.570347 56.8638 
L 268.287612 56.8638 
Q 266.681939 56.8638 266.681939 58.5864 
L 266.681939 81.5544 
Q 266.681939 83.277 268.287612 83.277 
z
" clip-path="url(#pdf937ab914)" style="fill: #ffe1b0; stroke: #d08a2e; stroke-width: 1.3; stroke-linejoin: miter"/>
   </g>
   <g id="patch_18">
    <path d="M 289.42898 85.273242 
Q 289.42898 101.65047 289.42898 116.238843 
" clip-path="url(#pdf937ab914)" style="fill: none; stroke: #d08a2e; stroke-width: 1.6; stroke-linecap: round"/>
    <path d="M 292.02898 111.038843 
L 289.42898 116.238843 
L 286.82898 111.038843 
z
" clip-path="url(#pdf937ab914)" style="fill: #d08a2e; stroke: #d08a2e; stroke-width: 1.6; stroke-linecap: round"/>
   </g>
   <g id="patch_19">
    <path d="M 352.585469 83.277 
L 394.868204 83.277 
Q 396.473878 83.277 396.473878 81.5544 
L 396.473878 58.5864 
Q 396.473878 56.8638 394.868204 56.8638 
L 352.585469 56.8638 
Q 350.979796 56.8638 350.979796 58.5864 
L 350.979796 81.5544 
Q 350.979796 83.277 352.585469 83.277 
z
" clip-path="url(#pdf937ab914)" style="fill: #eef1f7; stroke: #6b7a99; stroke-width: 1.3; stroke-linejoin: miter"/>
   </g>
   <g id="patch_20">
    <path d="M 373.726837 85.273242 
Q 373.726837 101.65047 373.726837 116.238843 
" clip-path="url(#pdf937ab914)" style="fill: none; stroke: #9aa3b0; stroke-width: 1.6; stroke-linecap: round"/>
    <path d="M 376.326837 111.038843 
L 373.726837 116.238843 
L 371.126837 111.038843 
z
" clip-path="url(#pdf937ab914)" style="fill: #9aa3b0; stroke: #9aa3b0; stroke-width: 1.6; stroke-linecap: round"/>
   </g>
   <g id="patch_21">
    <path d="M 436.883327 83.277 
L 479.166061 83.277 
Q 480.771735 83.277 480.771735 81.5544 
L 480.771735 58.5864 
Q 480.771735 56.8638 479.166061 56.8638 
L 436.883327 56.8638 
Q 435.277653 56.8638 435.277653 58.5864 
L 435.277653 81.5544 
Q 435.277653 83.277 436.883327 83.277 
z
" clip-path="url(#pdf937ab914)" style="fill: #eef1f7; stroke: #6b7a99; stroke-width: 1.3; stroke-linejoin: miter"/>
   </g>
   <g id="patch_22">
    <path d="M 458.024694 85.273242 
Q 458.024694 101.65047 458.024694 116.238843 
" clip-path="url(#pdf937ab914)" style="fill: none; stroke: #9aa3b0; stroke-width: 1.6; stroke-linecap: round"/>
    <path d="M 460.624694 111.038843 
L 458.024694 116.238843 
L 455.424694 111.038843 
z
" clip-path="url(#pdf937ab914)" style="fill: #9aa3b0; stroke: #9aa3b0; stroke-width: 1.6; stroke-linecap: round"/>
   </g>
   <g id="text_1">
    <!-- each entry is a delta added to a running total, except a sentinel that resets it to an absolute value -->
    <g style="fill: #2f3338" transform="translate(11.112245 17.244) scale(0.11 -0.11)">
     <defs>
      <path id="DejaVuSans-65" d="M 3597 1894 
L 3597 1613 
L 953 1613 
Q 991 1019 1311 708 
Q 1631 397 2203 397 
Q 2534 397 2845 478 
Q 3156 559 3463 722 
L 3463 178 
Q 3153 47 2828 -22 
Q 2503 -91 2169 -91 
Q 1331 -91 842 396 
Q 353 884 353 1716 
Q 353 2575 817 3079 
Q 1281 3584 2069 3584 
Q 2775 3584 3186 3129 
Q 3597 2675 3597 1894 
z
M 3022 2063 
Q 3016 2534 2758 2815 
Q 2500 3097 2075 3097 
Q 1594 3097 1305 2825 
Q 1016 2553 972 2059 
L 3022 2063 
z
" transform="scale(0.015625)"/>
      <path id="DejaVuSans-61" d="M 2194 1759 
Q 1497 1759 1228 1600 
Q 959 1441 959 1056 
Q 959 750 1161 570 
Q 1363 391 1709 391 
Q 2188 391 2477 730 
Q 2766 1069 2766 1631 
L 2766 1759 
L 2194 1759 
z
M 3341 1997 
L 3341 0 
L 2766 0 
L 2766 531 
Q 2569 213 2275 61 
Q 1981 -91 1556 -91 
Q 1019 -91 701 211 
Q 384 513 384 1019 
Q 384 1609 779 1909 
Q 1175 2209 1959 2209 
L 2766 2209 
L 2766 2266 
Q 2766 2663 2505 2880 
Q 2244 3097 1772 3097 
Q 1472 3097 1187 3025 
Q 903 2953 641 2809 
L 641 3341 
Q 956 3463 1253 3523 
Q 1550 3584 1831 3584 
Q 2591 3584 2966 3190 
Q 3341 2797 3341 1997 
z
" transform="scale(0.015625)"/>
      <path id="DejaVuSans-63" d="M 3122 3366 
L 3122 2828 
Q 2878 2963 2633 3030 
Q 2388 3097 2138 3097 
Q 1578 3097 1268 2742 
Q 959 2388 959 1747 
Q 959 1106 1268 751 
Q 1578 397 2138 397 
Q 2388 397 2633 464 
Q 2878 531 3122 666 
L 3122 134 
Q 2881 22 2623 -34 
Q 2366 -91 2075 -91 
Q 1284 -91 818 406 
Q 353 903 353 1747 
Q 353 2603 823 3093 
Q 1294 3584 2113 3584 
Q 2378 3584 2631 3529 
Q 2884 3475 3122 3366 
z
" transform="scale(0.015625)"/>
      <path id="DejaVuSans-68" d="M 3513 2113 
L 3513 0 
L 2938 0 
L 2938 2094 
Q 2938 2591 2744 2837 
Q 2550 3084 2163 3084 
Q 1697 3084 1428 2787 
Q 1159 2491 1159 1978 
L 1159 0 
L 581 0 
L 581 4863 
L 1159 4863 
L 1159 2956 
Q 1366 3272 1645 3428 
Q 1925 3584 2291 3584 
Q 2894 3584 3203 3211 
Q 3513 2838 3513 2113 
z
" transform="scale(0.015625)"/>
      <path id="DejaVuSans-20" transform="scale(0.015625)"/>
      <path id="DejaVuSans-6e" d="M 3513 2113 
L 3513 0 
L 2938 0 
L 2938 2094 
Q 2938 2591 2744 2837 
Q 2550 3084 2163 3084 
Q 1697 3084 1428 2787 
Q 1159 2491 1159 1978 
L 1159 0 
L 581 0 
L 581 3500 
L 1159 3500 
L 1159 2956 
Q 1366 3272 1645 3428 
Q 1925 3584 2291 3584 
Q 2894 3584 3203 3211 
Q 3513 2838 3513 2113 
z
" transform="scale(0.015625)"/>
      <path id="DejaVuSans-74" d="M 1172 4494 
L 1172 3500 
L 2356 3500 
L 2356 3053 
L 1172 3053 
L 1172 1153 
Q 1172 725 1289 603 
Q 1406 481 1766 481 
L 2356 481 
L 2356 0 
L 1766 0 
Q 1100 0 847 248 
Q 594 497 594 1153 
L 594 3053 
L 172 3053 
L 172 3500 
L 594 3500 
L 594 4494 
L 1172 4494 
z
" transform="scale(0.015625)"/>
      <path id="DejaVuSans-72" d="M 2631 2963 
Q 2534 3019 2420 3045 
Q 2306 3072 2169 3072 
Q 1681 3072 1420 2755 
Q 1159 2438 1159 1844 
L 1159 0 
L 581 0 
L 581 3500 
L 1159 3500 
L 1159 2956 
Q 1341 3275 1631 3429 
Q 1922 3584 2338 3584 
Q 2397 3584 2469 3576 
Q 2541 3569 2628 3553 
L 2631 2963 
z
" transform="scale(0.015625)"/>
      <path id="DejaVuSans-79" d="M 2059 -325 
Q 1816 -950 1584 -1140 
Q 1353 -1331 966 -1331 
L 506 -1331 
L 506 -850 
L 844 -850 
Q 1081 -850 1212 -737 
Q 1344 -625 1503 -206 
L 1606 56 
L 191 3500 
L 800 3500 
L 1894 763 
L 2988 3500 
L 3597 3500 
L 2059 -325 
z
" transform="scale(0.015625)"/>
      <path id="DejaVuSans-69" d="M 603 3500 
L 1178 3500 
L 1178 0 
L 603 0 
L 603 3500 
z
M 603 4863 
L 1178 4863 
L 1178 4134 
L 603 4134 
L 603 4863 
z
" transform="scale(0.015625)"/>
      <path id="DejaVuSans-73" d="M 2834 3397 
L 2834 2853 
Q 2591 2978 2328 3040 
Q 2066 3103 1784 3103 
Q 1356 3103 1142 2972 
Q 928 2841 928 2578 
Q 928 2378 1081 2264 
Q 1234 2150 1697 2047 
L 1894 2003 
Q 2506 1872 2764 1633 
Q 3022 1394 3022 966 
Q 3022 478 2636 193 
Q 2250 -91 1575 -91 
Q 1294 -91 989 -36 
Q 684 19 347 128 
L 347 722 
Q 666 556 975 473 
Q 1284 391 1588 391 
Q 1994 391 2212 530 
Q 2431 669 2431 922 
Q 2431 1156 2273 1281 
Q 2116 1406 1581 1522 
L 1381 1569 
Q 847 1681 609 1914 
Q 372 2147 372 2553 
Q 372 3047 722 3315 
Q 1072 3584 1716 3584 
Q 2034 3584 2315 3537 
Q 2597 3491 2834 3397 
z
" transform="scale(0.015625)"/>
      <path id="DejaVuSans-64" d="M 2906 2969 
L 2906 4863 
L 3481 4863 
L 3481 0 
L 2906 0 
L 2906 525 
Q 2725 213 2448 61 
Q 2172 -91 1784 -91 
Q 1150 -91 751 415 
Q 353 922 353 1747 
Q 353 2572 751 3078 
Q 1150 3584 1784 3584 
Q 2172 3584 2448 3432 
Q 2725 3281 2906 2969 
z
M 947 1747 
Q 947 1113 1208 752 
Q 1469 391 1925 391 
Q 2381 391 2643 752 
Q 2906 1113 2906 1747 
Q 2906 2381 2643 2742 
Q 2381 3103 1925 3103 
Q 1469 3103 1208 2742 
Q 947 2381 947 1747 
z
" transform="scale(0.015625)"/>
      <path id="DejaVuSans-6c" d="M 603 4863 
L 1178 4863 
L 1178 0 
L 603 0 
L 603 4863 
z
" transform="scale(0.015625)"/>
      <path id="DejaVuSans-6f" d="M 1959 3097 
Q 1497 3097 1228 2736 
Q 959 2375 959 1747 
Q 959 1119 1226 758 
Q 1494 397 1959 397 
Q 2419 397 2687 759 
Q 2956 1122 2956 1747 
Q 2956 2369 2687 2733 
Q 2419 3097 1959 3097 
z
M 1959 3584 
Q 2709 3584 3137 3096 
Q 3566 2609 3566 1747 
Q 3566 888 3137 398 
Q 2709 -91 1959 -91 
Q 1206 -91 779 398 
Q 353 888 353 1747 
Q 353 2609 779 3096 
Q 1206 3584 1959 3584 
z
" transform="scale(0.015625)"/>
      <path id="DejaVuSans-75" d="M 544 1381 
L 544 3500 
L 1119 3500 
L 1119 1403 
Q 1119 906 1312 657 
Q 1506 409 1894 409 
Q 2359 409 2629 706 
Q 2900 1003 2900 1516 
L 2900 3500 
L 3475 3500 
L 3475 0 
L 2900 0 
L 2900 538 
Q 2691 219 2414 64 
Q 2138 -91 1772 -91 
Q 1169 -91 856 284 
Q 544 659 544 1381 
z
M 1991 3584 
L 1991 3584 
z
" transform="scale(0.015625)"/>
      <path id="DejaVuSans-67" d="M 2906 1791 
Q 2906 2416 2648 2759 
Q 2391 3103 1925 3103 
Q 1463 3103 1205 2759 
Q 947 2416 947 1791 
Q 947 1169 1205 825 
Q 1463 481 1925 481 
Q 2391 481 2648 825 
Q 2906 1169 2906 1791 
z
M 3481 434 
Q 3481 -459 3084 -895 
Q 2688 -1331 1869 -1331 
Q 1566 -1331 1297 -1286 
Q 1028 -1241 775 -1147 
L 775 -588 
Q 1028 -725 1275 -790 
Q 1522 -856 1778 -856 
Q 2344 -856 2625 -561 
Q 2906 -266 2906 331 
L 2906 616 
Q 2728 306 2450 153 
Q 2172 0 1784 0 
Q 1141 0 747 490 
Q 353 981 353 1791 
Q 353 2603 747 3093 
Q 1141 3584 1784 3584 
Q 2172 3584 2450 3431 
Q 2728 3278 2906 2969 
L 2906 3500 
L 3481 3500 
L 3481 434 
z
" transform="scale(0.015625)"/>
      <path id="DejaVuSans-2c" d="M 750 794 
L 1409 794 
L 1409 256 
L 897 -744 
L 494 -744 
L 750 256 
L 750 794 
z
" transform="scale(0.015625)"/>
      <path id="DejaVuSans-78" d="M 3513 3500 
L 2247 1797 
L 3578 0 
L 2900 0 
L 1881 1375 
L 863 0 
L 184 0 
L 1544 1831 
L 300 3500 
L 978 3500 
L 1906 2253 
L 2834 3500 
L 3513 3500 
z
" transform="scale(0.015625)"/>
      <path id="DejaVuSans-70" d="M 1159 525 
L 1159 -1331 
L 581 -1331 
L 581 3500 
L 1159 3500 
L 1159 2969 
Q 1341 3281 1617 3432 
Q 1894 3584 2278 3584 
Q 2916 3584 3314 3078 
Q 3713 2572 3713 1747 
Q 3713 922 3314 415 
Q 2916 -91 2278 -91 
Q 1894 -91 1617 61 
Q 1341 213 1159 525 
z
M 3116 1747 
Q 3116 2381 2855 2742 
Q 2594 3103 2138 3103 
Q 1681 3103 1420 2742 
Q 1159 2381 1159 1747 
Q 1159 1113 1420 752 
Q 1681 391 2138 391 
Q 2594 391 2855 752 
Q 3116 1113 3116 1747 
z
" transform="scale(0.015625)"/>
      <path id="DejaVuSans-62" d="M 3116 1747 
Q 3116 2381 2855 2742 
Q 2594 3103 2138 3103 
Q 1681 3103 1420 2742 
Q 1159 2381 1159 1747 
Q 1159 1113 1420 752 
Q 1681 391 2138 391 
Q 2594 391 2855 752 
Q 3116 1113 3116 1747 
z
M 1159 2969 
Q 1341 3281 1617 3432 
Q 1894 3584 2278 3584 
Q 2916 3584 3314 3078 
Q 3713 2572 3713 1747 
Q 3713 922 3314 415 
Q 2916 -91 2278 -91 
Q 1894 -91 1617 61 
Q 1341 213 1159 525 
L 1159 0 
L 581 0 
L 581 4863 
L 1159 4863 
L 1159 2969 
z
" transform="scale(0.015625)"/>
      <path id="DejaVuSans-76" d="M 191 3500 
L 800 3500 
L 1894 563 
L 2988 3500 
L 3597 3500 
L 2284 0 
L 1503 0 
L 191 3500 
z
" transform="scale(0.015625)"/>
     </defs>
     <use xlink:href="#DejaVuSans-65"/>
     <use xlink:href="#DejaVuSans-61" transform="translate(61.523438 0)"/>
     <use xlink:href="#DejaVuSans-63" transform="translate(122.802734 0)"/>
     <use xlink:href="#DejaVuSans-68" transform="translate(177.783203 0)"/>
     <use xlink:href="#DejaVuSans-20" transform="translate(241.162109 0)"/>
     <use xlink:href="#DejaVuSans-65" transform="translate(272.949219 0)"/>
     <use xlink:href="#DejaVuSans-6e" transform="translate(334.472656 0)"/>
     <use xlink:href="#DejaVuSans-74" transform="translate(397.851562 0)"/>
     <use xlink:href="#DejaVuSans-72" transform="translate(437.060547 0)"/>
     <use xlink:href="#DejaVuSans-79" transform="translate(478.173828 0)"/>
     <use xlink:href="#DejaVuSans-20" transform="translate(537.353516 0)"/>
     <use xlink:href="#DejaVuSans-69" transform="translate(569.140625 0)"/>
     <use xlink:href="#DejaVuSans-73" transform="translate(596.923828 0)"/>
     <use xlink:href="#DejaVuSans-20" transform="translate(649.023438 0)"/>
     <use xlink:href="#DejaVuSans-61" transform="translate(680.810547 0)"/>
     <use xlink:href="#DejaVuSans-20" transform="translate(742.089844 0)"/>
     <use xlink:href="#DejaVuSans-64" transform="translate(773.876953 0)"/>
     <use xlink:href="#DejaVuSans-65" transform="translate(837.353516 0)"/>
     <use xlink:href="#DejaVuSans-6c" transform="translate(898.876953 0)"/>
     <use xlink:href="#DejaVuSans-74" transform="translate(926.660156 0)"/>
     <use xlink:href="#DejaVuSans-61" transform="translate(965.869141 0)"/>
     <use xlink:href="#DejaVuSans-20" transform="translate(1027.148438 0)"/>
     <use xlink:href="#DejaVuSans-61" transform="translate(1058.935547 0)"/>
     <use xlink:href="#DejaVuSans-64" transform="translate(1120.214844 0)"/>
     <use xlink:href="#DejaVuSans-64" transform="translate(1183.691406 0)"/>
     <use xlink:href="#DejaVuSans-65" transform="translate(1247.167969 0)"/>
     <use xlink:href="#DejaVuSans-64" transform="translate(1308.691406 0)"/>
     <use xlink:href="#DejaVuSans-20" transform="translate(1372.167969 0)"/>
     <use xlink:href="#DejaVuSans-74" transform="translate(1403.955078 0)"/>
     <use xlink:href="#DejaVuSans-6f" transform="translate(1443.164062 0)"/>
     <use xlink:href="#DejaVuSans-20" transform="translate(1504.345703 0)"/>
     <use xlink:href="#DejaVuSans-61" transform="translate(1536.132812 0)"/>
     <use xlink:href="#DejaVuSans-20" transform="translate(1597.412109 0)"/>
     <use xlink:href="#DejaVuSans-72" transform="translate(1629.199219 0)"/>
     <use xlink:href="#DejaVuSans-75" transform="translate(1670.3125 0)"/>
     <use xlink:href="#DejaVuSans-6e" transform="translate(1733.691406 0)"/>
     <use xlink:href="#DejaVuSans-6e" transform="translate(1797.070312 0)"/>
     <use xlink:href="#DejaVuSans-69" transform="translate(1860.449219 0)"/>
     <use xlink:href="#DejaVuSans-6e" transform="translate(1888.232422 0)"/>
     <use xlink:href="#DejaVuSans-67" transform="translate(1951.611328 0)"/>
     <use xlink:href="#DejaVuSans-20" transform="translate(2015.087891 0)"/>
     <use xlink:href="#DejaVuSans-74" transform="translate(2046.875 0)"/>
     <use xlink:href="#DejaVuSans-6f" transform="translate(2086.083984 0)"/>
     <use xlink:href="#DejaVuSans-74" transform="translate(2147.265625 0)"/>
     <use xlink:href="#DejaVuSans-61" transform="translate(2186.474609 0)"/>
     <use xlink:href="#DejaVuSans-6c" transform="translate(2247.753906 0)"/>
     <use xlink:href="#DejaVuSans-2c" transform="translate(2275.537109 0)"/>
     <use xlink:href="#DejaVuSans-20" transform="translate(2307.324219 0)"/>
     <use xlink:href="#DejaVuSans-65" transform="translate(2339.111328 0)"/>
     <use xlink:href="#DejaVuSans-78" transform="translate(2398.884766 0)"/>
     <use xlink:href="#DejaVuSans-63" transform="translate(2456.314453 0)"/>
     <use xlink:href="#DejaVuSans-65" transform="translate(2511.294922 0)"/>
     <use xlink:href="#DejaVuSans-70" transform="translate(2572.818359 0)"/>
     <use xlink:href="#DejaVuSans-74" transform="translate(2636.294922 0)"/>
     <use xlink:href="#DejaVuSans-20" transform="translate(2675.503906 0)"/>
     <use xlink:href="#DejaVuSans-61" transform="translate(2707.291016 0)"/>
     <use xlink:href="#DejaVuSans-20" transform="translate(2768.570312 0)"/>
     <use xlink:href="#DejaVuSans-73" transform="translate(2800.357422 0)"/>
     <use xlink:href="#DejaVuSans-65" transform="translate(2852.457031 0)"/>
     <use xlink:href="#DejaVuSans-6e" transform="translate(2913.980469 0)"/>
     <use xlink:href="#DejaVuSans-74" transform="translate(2977.359375 0)"/>
     <use xlink:href="#DejaVuSans-69" transform="translate(3016.568359 0)"/>
     <use xlink:href="#DejaVuSans-6e" transform="translate(3044.351562 0)"/>
     <use xlink:href="#DejaVuSans-65" transform="translate(3107.730469 0)"/>
     <use xlink:href="#DejaVuSans-6c" transform="translate(3169.253906 0)"/>
     <use xlink:href="#DejaVuSans-20" transform="translate(3197.037109 0)"/>
     <use xlink:href="#DejaVuSans-74" transform="translate(3228.824219 0)"/>
     <use xlink:href="#DejaVuSans-68" transform="translate(3268.033203 0)"/>
     <use xlink:href="#DejaVuSans-61" transform="translate(3331.412109 0)"/>
     <use xlink:href="#DejaVuSans-74" transform="translate(3392.691406 0)"/>
     <use xlink:href="#DejaVuSans-20" transform="translate(3431.900391 0)"/>
     <use xlink:href="#DejaVuSans-72" transform="translate(3463.6875 0)"/>
     <use xlink:href="#DejaVuSans-65" transform="translate(3502.550781 0)"/>
     <use xlink:href="#DejaVuSans-73" transform="translate(3564.074219 0)"/>
     <use xlink:href="#DejaVuSans-65" transform="translate(3616.173828 0)"/>
     <use xlink:href="#DejaVuSans-74" transform="translate(3677.697266 0)"/>
     <use xlink:href="#DejaVuSans-73" transform="translate(3716.90625 0)"/>
     <use xlink:href="#DejaVuSans-20" transform="translate(3769.005859 0)"/>
     <use xlink:href="#DejaVuSans-69" transform="translate(3800.792969 0)"/>
     <use xlink:href="#DejaVuSans-74" transform="translate(3828.576172 0)"/>
     <use xlink:href="#DejaVuSans-20" transform="translate(3867.785156 0)"/>
     <use xlink:href="#DejaVuSans-74" transform="translate(3899.572266 0)"/>
     <use xlink:href="#DejaVuSans-6f" transform="translate(3938.78125 0)"/>
     <use xlink:href="#DejaVuSans-20" transform="translate(3999.962891 0)"/>
     <use xlink:href="#DejaVuSans-61" transform="translate(4031.75 0)"/>
     <use xlink:href="#DejaVuSans-6e" transform="translate(4093.029297 0)"/>
     <use xlink:href="#DejaVuSans-20" transform="translate(4156.408203 0)"/>
     <use xlink:href="#DejaVuSans-61" transform="translate(4188.195312 0)"/>
     <use xlink:href="#DejaVuSans-62" transform="translate(4249.474609 0)"/>
     <use xlink:href="#DejaVuSans-73" transform="translate(4312.951172 0)"/>
     <use xlink:href="#DejaVuSans-6f" transform="translate(4365.050781 0)"/>
     <use xlink:href="#DejaVuSans-6c" transform="translate(4426.232422 0)"/>
     <use xlink:href="#DejaVuSans-75" transform="translate(4454.015625 0)"/>
     <use xlink:href="#DejaVuSans-74" transform="translate(4517.394531 0)"/>
     <use xlink:href="#DejaVuSans-65" transform="translate(4556.603516 0)"/>
     <use xlink:href="#DejaVuSans-20" transform="translate(4618.126953 0)"/>
     <use xlink:href="#DejaVuSans-76" transform="translate(4649.914062 0)"/>
     <use xlink:href="#DejaVuSans-61" transform="translate(4709.09375 0)"/>
     <use xlink:href="#DejaVuSans-6c" transform="translate(4770.373047 0)"/>
     <use xlink:href="#DejaVuSans-75" transform="translate(4798.15625 0)"/>
     <use xlink:href="#DejaVuSans-65" transform="translate(4861.535156 0)"/>
    </g>
   </g>
   <g id="text_2">
    <!-- SEQUENTIAL: every step needs the previous total, so it cannot be vectorized (hence the compiled loop) -->
    <g style="fill: #b5651d" transform="translate(11.112245 37.341) scale(0.105 -0.105)">
     <defs>
      <path id="DejaVuSans-53" d="M 3425 4513 
L 3425 3897 
Q 3066 4069 2747 4153 
Q 2428 4238 2131 4238 
Q 1616 4238 1336 4038 
Q 1056 3838 1056 3469 
Q 1056 3159 1242 3001 
Q 1428 2844 1947 2747 
L 2328 2669 
Q 3034 2534 3370 2195 
Q 3706 1856 3706 1288 
Q 3706 609 3251 259 
Q 2797 -91 1919 -91 
Q 1588 -91 1214 -16 
Q 841 59 441 206 
L 441 856 
Q 825 641 1194 531 
Q 1563 422 1919 422 
Q 2459 422 2753 634 
Q 3047 847 3047 1241 
Q 3047 1584 2836 1778 
Q 2625 1972 2144 2069 
L 1759 2144 
Q 1053 2284 737 2584 
Q 422 2884 422 3419 
Q 422 4038 858 4394 
Q 1294 4750 2059 4750 
Q 2388 4750 2728 4690 
Q 3069 4631 3425 4513 
z
" transform="scale(0.015625)"/>
      <path id="DejaVuSans-45" d="M 628 4666 
L 3578 4666 
L 3578 4134 
L 1259 4134 
L 1259 2753 
L 3481 2753 
L 3481 2222 
L 1259 2222 
L 1259 531 
L 3634 531 
L 3634 0 
L 628 0 
L 628 4666 
z
" transform="scale(0.015625)"/>
      <path id="DejaVuSans-51" d="M 2522 4238 
Q 1834 4238 1429 3725 
Q 1025 3213 1025 2328 
Q 1025 1447 1429 934 
Q 1834 422 2522 422 
Q 3209 422 3611 934 
Q 4013 1447 4013 2328 
Q 4013 3213 3611 3725 
Q 3209 4238 2522 4238 
z
M 3406 84 
L 4238 -825 
L 3475 -825 
L 2784 -78 
Q 2681 -84 2626 -87 
Q 2572 -91 2522 -91 
Q 1538 -91 948 567 
Q 359 1225 359 2328 
Q 359 3434 948 4092 
Q 1538 4750 2522 4750 
Q 3503 4750 4090 4092 
Q 4678 3434 4678 2328 
Q 4678 1516 4351 937 
Q 4025 359 3406 84 
z
" transform="scale(0.015625)"/>
      <path id="DejaVuSans-55" d="M 556 4666 
L 1191 4666 
L 1191 1831 
Q 1191 1081 1462 751 
Q 1734 422 2344 422 
Q 2950 422 3222 751 
Q 3494 1081 3494 1831 
L 3494 4666 
L 4128 4666 
L 4128 1753 
Q 4128 841 3676 375 
Q 3225 -91 2344 -91 
Q 1459 -91 1007 375 
Q 556 841 556 1753 
L 556 4666 
z
" transform="scale(0.015625)"/>
      <path id="DejaVuSans-4e" d="M 628 4666 
L 1478 4666 
L 3547 763 
L 3547 4666 
L 4159 4666 
L 4159 0 
L 3309 0 
L 1241 3903 
L 1241 0 
L 628 0 
L 628 4666 
z
" transform="scale(0.015625)"/>
      <path id="DejaVuSans-54" d="M -19 4666 
L 3928 4666 
L 3928 4134 
L 2272 4134 
L 2272 0 
L 1638 0 
L 1638 4134 
L -19 4134 
L -19 4666 
z
" transform="scale(0.015625)"/>
      <path id="DejaVuSans-49" d="M 628 4666 
L 1259 4666 
L 1259 0 
L 628 0 
L 628 4666 
z
" transform="scale(0.015625)"/>
      <path id="DejaVuSans-41" d="M 2188 4044 
L 1331 1722 
L 3047 1722 
L 2188 4044 
z
M 1831 4666 
L 2547 4666 
L 4325 0 
L 3669 0 
L 3244 1197 
L 1141 1197 
L 716 0 
L 50 0 
L 1831 4666 
z
" transform="scale(0.015625)"/>
      <path id="DejaVuSans-4c" d="M 628 4666 
L 1259 4666 
L 1259 531 
L 3531 531 
L 3531 0 
L 628 0 
L 628 4666 
z
" transform="scale(0.015625)"/>
      <path id="DejaVuSans-3a" d="M 750 794 
L 1409 794 
L 1409 0 
L 750 0 
L 750 794 
z
M 750 3309 
L 1409 3309 
L 1409 2516 
L 750 2516 
L 750 3309 
z
" transform="scale(0.015625)"/>
      <path id="DejaVuSans-7a" d="M 353 3500 
L 3084 3500 
L 3084 2975 
L 922 459 
L 3084 459 
L 3084 0 
L 275 0 
L 275 525 
L 2438 3041 
L 353 3041 
L 353 3500 
z
" transform="scale(0.015625)"/>
      <path id="DejaVuSans-28" d="M 1984 4856 
Q 1566 4138 1362 3434 
Q 1159 2731 1159 2009 
Q 1159 1288 1364 580 
Q 1569 -128 1984 -844 
L 1484 -844 
Q 1016 -109 783 600 
Q 550 1309 550 2009 
Q 550 2706 781 3412 
Q 1013 4119 1484 4856 
L 1984 4856 
z
" transform="scale(0.015625)"/>
      <path id="DejaVuSans-6d" d="M 3328 2828 
Q 3544 3216 3844 3400 
Q 4144 3584 4550 3584 
Q 5097 3584 5394 3201 
Q 5691 2819 5691 2113 
L 5691 0 
L 5113 0 
L 5113 2094 
Q 5113 2597 4934 2840 
Q 4756 3084 4391 3084 
Q 3944 3084 3684 2787 
Q 3425 2491 3425 1978 
L 3425 0 
L 2847 0 
L 2847 2094 
Q 2847 2600 2669 2842 
Q 2491 3084 2119 3084 
Q 1678 3084 1418 2786 
Q 1159 2488 1159 1978 
L 1159 0 
L 581 0 
L 581 3500 
L 1159 3500 
L 1159 2956 
Q 1356 3278 1631 3431 
Q 1906 3584 2284 3584 
Q 2666 3584 2933 3390 
Q 3200 3197 3328 2828 
z
" transform="scale(0.015625)"/>
      <path id="DejaVuSans-29" d="M 513 4856 
L 1013 4856 
Q 1481 4119 1714 3412 
Q 1947 2706 1947 2009 
Q 1947 1309 1714 600 
Q 1481 -109 1013 -844 
L 513 -844 
Q 928 -128 1133 580 
Q 1338 1288 1338 2009 
Q 1338 2731 1133 3434 
Q 928 4138 513 4856 
z
" transform="scale(0.015625)"/>
     </defs>
     <use xlink:href="#DejaVuSans-53"/>
     <use xlink:href="#DejaVuSans-45" transform="translate(63.476562 0)"/>
     <use xlink:href="#DejaVuSans-51" transform="translate(126.660156 0)"/>
     <use xlink:href="#DejaVuSans-55" transform="translate(205.371094 0)"/>
     <use xlink:href="#DejaVuSans-45" transform="translate(278.564453 0)"/>
     <use xlink:href="#DejaVuSans-4e" transform="translate(341.748047 0)"/>
     <use xlink:href="#DejaVuSans-54" transform="translate(416.552734 0)"/>
     <use xlink:href="#DejaVuSans-49" transform="translate(477.636719 0)"/>
     <use xlink:href="#DejaVuSans-41" transform="translate(507.128906 0)"/>
     <use xlink:href="#DejaVuSans-4c" transform="translate(575.537109 0)"/>
     <use xlink:href="#DejaVuSans-3a" transform="translate(631.25 0)"/>
     <use xlink:href="#DejaVuSans-20" transform="translate(664.941406 0)"/>
     <use xlink:href="#DejaVuSans-65" transform="translate(696.728516 0)"/>
     <use xlink:href="#DejaVuSans-76" transform="translate(758.251953 0)"/>
     <use xlink:href="#DejaVuSans-65" transform="translate(817.431641 0)"/>
     <use xlink:href="#DejaVuSans-72" transform="translate(878.955078 0)"/>
     <use xlink:href="#DejaVuSans-79" transform="translate(920.068359 0)"/>
     <use xlink:href="#DejaVuSans-20" transform="translate(979.248047 0)"/>
     <use xlink:href="#DejaVuSans-73" transform="translate(1011.035156 0)"/>
     <use xlink:href="#DejaVuSans-74" transform="translate(1063.134766 0)"/>
     <use xlink:href="#DejaVuSans-65" transform="translate(1102.34375 0)"/>
     <use xlink:href="#DejaVuSans-70" transform="translate(1163.867188 0)"/>
     <use xlink:href="#DejaVuSans-20" transform="translate(1227.34375 0)"/>
     <use xlink:href="#DejaVuSans-6e" transform="translate(1259.130859 0)"/>
     <use xlink:href="#DejaVuSans-65" transform="translate(1322.509766 0)"/>
     <use xlink:href="#DejaVuSans-65" transform="translate(1384.033203 0)"/>
     <use xlink:href="#DejaVuSans-64" transform="translate(1445.556641 0)"/>
     <use xlink:href="#DejaVuSans-73" transform="translate(1509.033203 0)"/>
     <use xlink:href="#DejaVuSans-20" transform="translate(1561.132812 0)"/>
     <use xlink:href="#DejaVuSans-74" transform="translate(1592.919922 0)"/>
     <use xlink:href="#DejaVuSans-68" transform="translate(1632.128906 0)"/>
     <use xlink:href="#DejaVuSans-65" transform="translate(1695.507812 0)"/>
     <use xlink:href="#DejaVuSans-20" transform="translate(1757.03125 0)"/>
     <use xlink:href="#DejaVuSans-70" transform="translate(1788.818359 0)"/>
     <use xlink:href="#DejaVuSans-72" transform="translate(1852.294922 0)"/>
     <use xlink:href="#DejaVuSans-65" transform="translate(1891.158203 0)"/>
     <use xlink:href="#DejaVuSans-76" transform="translate(1952.681641 0)"/>
     <use xlink:href="#DejaVuSans-69" transform="translate(2011.861328 0)"/>
     <use xlink:href="#DejaVuSans-6f" transform="translate(2039.644531 0)"/>
     <use xlink:href="#DejaVuSans-75" transform="translate(2100.826172 0)"/>
     <use xlink:href="#DejaVuSans-73" transform="translate(2164.205078 0)"/>
     <use xlink:href="#DejaVuSans-20" transform="translate(2216.304688 0)"/>
     <use xlink:href="#DejaVuSans-74" transform="translate(2248.091797 0)"/>
     <use xlink:href="#DejaVuSans-6f" transform="translate(2287.300781 0)"/>
     <use xlink:href="#DejaVuSans-74" transform="translate(2348.482422 0)"/>
     <use xlink:href="#DejaVuSans-61" transform="translate(2387.691406 0)"/>
     <use xlink:href="#DejaVuSans-6c" transform="translate(2448.970703 0)"/>
     <use xlink:href="#DejaVuSans-2c" transform="translate(2476.753906 0)"/>
     <use xlink:href="#DejaVuSans-20" transform="translate(2508.541016 0)"/>
     <use xlink:href="#DejaVuSans-73" transform="translate(2540.328125 0)"/>
     <use xlink:href="#DejaVuSans-6f" transform="translate(2592.427734 0)"/>
     <use xlink:href="#DejaVuSans-20" transform="translate(2653.609375 0)"/>
     <use xlink:href="#DejaVuSans-69" transform="translate(2685.396484 0)"/>
     <use xlink:href="#DejaVuSans-74" transform="translate(2713.179688 0)"/>
     <use xlink:href="#DejaVuSans-20" transform="translate(2752.388672 0)"/>
     <use xlink:href="#DejaVuSans-63" transform="translate(2784.175781 0)"/>
     <use xlink:href="#DejaVuSans-61" transform="translate(2839.15625 0)"/>
     <use xlink:href="#DejaVuSans-6e" transform="translate(2900.435547 0)"/>
     <use xlink:href="#DejaVuSans-6e" transform="translate(2963.814453 0)"/>
     <use xlink:href="#DejaVuSans-6f" transform="translate(3027.193359 0)"/>
     <use xlink:href="#DejaVuSans-74" transform="translate(3088.375 0)"/>
     <use xlink:href="#DejaVuSans-20" transform="translate(3127.583984 0)"/>
     <use xlink:href="#DejaVuSans-62" transform="translate(3159.371094 0)"/>
     <use xlink:href="#DejaVuSans-65" transform="translate(3222.847656 0)"/>
     <use xlink:href="#DejaVuSans-20" transform="translate(3284.371094 0)"/>
     <use xlink:href="#DejaVuSans-76" transform="translate(3316.158203 0)"/>
     <use xlink:href="#DejaVuSans-65" transform="translate(3375.337891 0)"/>
     <use xlink:href="#DejaVuSans-63" transform="translate(3436.861328 0)"/>
     <use xlink:href="#DejaVuSans-74" transform="translate(3491.841797 0)"/>
     <use xlink:href="#DejaVuSans-6f" transform="translate(3531.050781 0)"/>
     <use xlink:href="#DejaVuSans-72" transform="translate(3592.232422 0)"/>
     <use xlink:href="#DejaVuSans-69" transform="translate(3633.345703 0)"/>
     <use xlink:href="#DejaVuSans-7a" transform="translate(3661.128906 0)"/>
     <use xlink:href="#DejaVuSans-65" transform="translate(3713.619141 0)"/>
     <use xlink:href="#DejaVuSans-64" transform="translate(3775.142578 0)"/>
     <use xlink:href="#DejaVuSans-20" transform="translate(3838.619141 0)"/>
     <use xlink:href="#DejaVuSans-28" transform="translate(3870.40625 0)"/>
     <use xlink:href="#DejaVuSans-68" transform="translate(3909.419922 0)"/>
     <use xlink:href="#DejaVuSans-65" transform="translate(3972.798828 0)"/>
     <use xlink:href="#DejaVuSans-6e" transform="translate(4034.322266 0)"/>
     <use xlink:href="#DejaVuSans-63" transform="translate(4097.701172 0)"/>
     <use xlink:href="#DejaVuSans-65" transform="translate(4152.681641 0)"/>
     <use xlink:href="#DejaVuSans-20" transform="translate(4214.205078 0)"/>
     <use xlink:href="#DejaVuSans-74" transform="translate(4245.992188 0)"/>
     <use xlink:href="#DejaVuSans-68" transform="translate(4285.201172 0)"/>
     <use xlink:href="#DejaVuSans-65" transform="translate(4348.580078 0)"/>
     <use xlink:href="#DejaVuSans-20" transform="translate(4410.103516 0)"/>
     <use xlink:href="#DejaVuSans-63" transform="translate(4441.890625 0)"/>
     <use xlink:href="#DejaVuSans-6f" transform="translate(4496.871094 0)"/>
     <use xlink:href="#DejaVuSans-6d" transform="translate(4558.052734 0)"/>
     <use xlink:href="#DejaVuSans-70" transform="translate(4655.464844 0)"/>
     <use xlink:href="#DejaVuSans-69" transform="translate(4718.941406 0)"/>
     <use xlink:href="#DejaVuSans-6c" transform="translate(4746.724609 0)"/>
     <use xlink:href="#DejaVuSans-65" transform="translate(4774.507812 0)"/>
     <use xlink:href="#DejaVuSans-64" transform="translate(4836.03125 0)"/>
     <use xlink:href="#DejaVuSans-20" transform="translate(4899.507812 0)"/>
     <use xlink:href="#DejaVuSans-6c" transform="translate(4931.294922 0)"/>
     <use xlink:href="#DejaVuSans-6f" transform="translate(4959.078125 0)"/>
     <use xlink:href="#DejaVuSans-6f" transform="translate(5020.259766 0)"/>
     <use xlink:href="#DejaVuSans-70" transform="translate(5081.441406 0)"/>
     <use xlink:href="#DejaVuSans-29" transform="translate(5144.917969 0)"/>
    </g>
   </g>
   <g id="text_3">
    <!-- acc -->
    <g style="fill: #2f3338" transform="translate(28.349346 130.733613) scale(0.088 -0.088)">
     <defs>
      <path id="DejaVuSans-Bold-61" d="M 2106 1575 
Q 1756 1575 1579 1456 
Q 1403 1338 1403 1106 
Q 1403 894 1545 773 
Q 1688 653 1941 653 
Q 2256 653 2472 879 
Q 2688 1106 2688 1447 
L 2688 1575 
L 2106 1575 
z
M 3816 1997 
L 3816 0 
L 2688 0 
L 2688 519 
Q 2463 200 2181 54 
Q 1900 -91 1497 -91 
Q 953 -91 614 226 
Q 275 544 275 1050 
Q 275 1666 698 1953 
Q 1122 2241 2028 2241 
L 2688 2241 
L 2688 2328 
Q 2688 2594 2478 2717 
Q 2269 2841 1825 2841 
Q 1466 2841 1156 2769 
Q 847 2697 581 2553 
L 581 3406 
Q 941 3494 1303 3539 
Q 1666 3584 2028 3584 
Q 2975 3584 3395 3211 
Q 3816 2838 3816 1997 
z
" transform="scale(0.015625)"/>
      <path id="DejaVuSans-Bold-63" d="M 3366 3391 
L 3366 2478 
Q 3138 2634 2908 2709 
Q 2678 2784 2431 2784 
Q 1963 2784 1702 2511 
Q 1441 2238 1441 1747 
Q 1441 1256 1702 982 
Q 1963 709 2431 709 
Q 2694 709 2930 787 
Q 3166 866 3366 1019 
L 3366 103 
Q 3103 6 2833 -42 
Q 2563 -91 2291 -91 
Q 1344 -91 809 395 
Q 275 881 275 1747 
Q 275 2613 809 3098 
Q 1344 3584 2291 3584 
Q 2566 3584 2833 3536 
Q 3100 3488 3366 3391 
z
" transform="scale(0.015625)"/>
     </defs>
     <use xlink:href="#DejaVuSans-Bold-61"/>
     <use xlink:href="#DejaVuSans-Bold-63" transform="translate(67.480469 0)"/>
     <use xlink:href="#DejaVuSans-Bold-63" transform="translate(126.757812 0)"/>
    </g>
    <!-- 0 -->
    <g style="fill: #2f3338" transform="translate(33.473971 140.587688) scale(0.088 -0.088)">
     <defs>
      <path id="DejaVuSans-Bold-30" d="M 2944 2338 
Q 2944 3213 2780 3570 
Q 2616 3928 2228 3928 
Q 1841 3928 1675 3570 
Q 1509 3213 1509 2338 
Q 1509 1453 1675 1090 
Q 1841 728 2228 728 
Q 2613 728 2778 1090 
Q 2944 1453 2944 2338 
z
M 4147 2328 
Q 4147 1169 3647 539 
Q 3147 -91 2228 -91 
Q 1306 -91 806 539 
Q 306 1169 306 2328 
Q 306 3491 806 4120 
Q 1306 4750 2228 4750 
Q 3147 4750 3647 4120 
Q 4147 3491 4147 2328 
z
" transform="scale(0.015625)"/>
     </defs>
     <use xlink:href="#DejaVuSans-Bold-30"/>
    </g>
   </g>
   <g id="text_4">
    <!-- acc -->
    <g style="fill: #2f3338" transform="translate(112.647203 130.733613) scale(0.088 -0.088)">
     <use xlink:href="#DejaVuSans-Bold-61"/>
     <use xlink:href="#DejaVuSans-Bold-63" transform="translate(67.480469 0)"/>
     <use xlink:href="#DejaVuSans-Bold-63" transform="translate(126.757812 0)"/>
    </g>
    <!-- 5 -->
    <g style="fill: #2f3338" transform="translate(117.771828 140.587688) scale(0.088 -0.088)">
     <defs>
      <path id="DejaVuSans-Bold-35" d="M 678 4666 
L 3669 4666 
L 3669 3781 
L 1638 3781 
L 1638 3059 
Q 1775 3097 1914 3117 
Q 2053 3138 2203 3138 
Q 3056 3138 3531 2711 
Q 4006 2284 4006 1522 
Q 4006 766 3489 337 
Q 2972 -91 2053 -91 
Q 1656 -91 1267 -14 
Q 878 63 494 219 
L 494 1166 
Q 875 947 1217 837 
Q 1559 728 1863 728 
Q 2300 728 2551 942 
Q 2803 1156 2803 1522 
Q 2803 1891 2551 2103 
Q 2300 2316 1863 2316 
Q 1603 2316 1309 2248 
Q 1016 2181 678 2041 
L 678 4666 
z
" transform="scale(0.015625)"/>
     </defs>
     <use xlink:href="#DejaVuSans-Bold-35"/>
    </g>
   </g>
   <g id="text_5">
    <!-- acc -->
    <g style="fill: #2f3338" transform="translate(196.94506 130.733613) scale(0.088 -0.088)">
     <use xlink:href="#DejaVuSans-Bold-61"/>
     <use xlink:href="#DejaVuSans-Bold-63" transform="translate(67.480469 0)"/>
     <use xlink:href="#DejaVuSans-Bold-63" transform="translate(126.757812 0)"/>
    </g>
    <!-- 15 -->
    <g style="fill: #2f3338" transform="translate(199.008247 140.587688) scale(0.088 -0.088)">
     <defs>
      <path id="DejaVuSans-Bold-31" d="M 750 831 
L 1813 831 
L 1813 3847 
L 722 3622 
L 722 4441 
L 1806 4666 
L 2950 4666 
L 2950 831 
L 4013 831 
L 4013 0 
L 750 0 
L 750 831 
z
" transform="scale(0.015625)"/>
     </defs>
     <use xlink:href="#DejaVuSans-Bold-31"/>
     <use xlink:href="#DejaVuSans-Bold-35" transform="translate(69.580078 0)"/>
    </g>
   </g>
   <g id="text_6">
    <!-- acc -->
    <g style="fill: #2f3338" transform="translate(281.242917 130.733613) scale(0.088 -0.088)">
     <use xlink:href="#DejaVuSans-Bold-61"/>
     <use xlink:href="#DejaVuSans-Bold-63" transform="translate(67.480469 0)"/>
     <use xlink:href="#DejaVuSans-Bold-63" transform="translate(126.757812 0)"/>
    </g>
    <!-- 1000 -->
    <g style="fill: #2f3338" transform="translate(277.18323 140.587688) scale(0.088 -0.088)">
     <use xlink:href="#DejaVuSans-Bold-31"/>
     <use xlink:href="#DejaVuSans-Bold-30" transform="translate(69.580078 0)"/>
     <use xlink:href="#DejaVuSans-Bold-30" transform="translate(139.160156 0)"/>
     <use xlink:href="#DejaVuSans-Bold-30" transform="translate(208.740234 0)"/>
    </g>
   </g>
   <g id="text_7">
    <!-- acc -->
    <g style="fill: #2f3338" transform="translate(365.540774 130.733613) scale(0.088 -0.088)">
     <use xlink:href="#DejaVuSans-Bold-61"/>
     <use xlink:href="#DejaVuSans-Bold-63" transform="translate(67.480469 0)"/>
     <use xlink:href="#DejaVuSans-Bold-63" transform="translate(126.757812 0)"/>
    </g>
    <!-- 996 -->
    <g style="fill: #2f3338" transform="translate(364.542524 140.587688) scale(0.088 -0.088)">
     <defs>
      <path id="DejaVuSans-Bold-39" d="M 641 103 
L 641 966 
Q 928 831 1190 764 
Q 1453 697 1709 697 
Q 2247 697 2547 995 
Q 2847 1294 2900 1881 
Q 2688 1725 2447 1647 
Q 2206 1569 1925 1569 
Q 1209 1569 770 1986 
Q 331 2403 331 3084 
Q 331 3838 820 4291 
Q 1309 4744 2131 4744 
Q 3044 4744 3544 4128 
Q 4044 3513 4044 2388 
Q 4044 1231 3459 570 
Q 2875 -91 1856 -91 
Q 1528 -91 1228 -42 
Q 928 6 641 103 
z
M 2125 2350 
Q 2441 2350 2600 2554 
Q 2759 2759 2759 3169 
Q 2759 3575 2600 3781 
Q 2441 3988 2125 3988 
Q 1809 3988 1650 3781 
Q 1491 3575 1491 3169 
Q 1491 2759 1650 2554 
Q 1809 2350 2125 2350 
z
" transform="scale(0.015625)"/>
      <path id="DejaVuSans-Bold-36" d="M 2316 2303 
Q 2000 2303 1842 2098 
Q 1684 1894 1684 1484 
Q 1684 1075 1842 870 
Q 2000 666 2316 666 
Q 2634 666 2792 870 
Q 2950 1075 2950 1484 
Q 2950 1894 2792 2098 
Q 2634 2303 2316 2303 
z
M 3803 4544 
L 3803 3681 
Q 3506 3822 3243 3889 
Q 2981 3956 2731 3956 
Q 2194 3956 1894 3657 
Q 1594 3359 1544 2772 
Q 1750 2925 1990 3001 
Q 2231 3078 2516 3078 
Q 3231 3078 3670 2659 
Q 4109 2241 4109 1563 
Q 4109 813 3618 361 
Q 3128 -91 2303 -91 
Q 1394 -91 895 523 
Q 397 1138 397 2266 
Q 397 3422 980 4083 
Q 1563 4744 2578 4744 
Q 2900 4744 3203 4694 
Q 3506 4644 3803 4544 
z
" transform="scale(0.015625)"/>
     </defs>
     <use xlink:href="#DejaVuSans-Bold-39"/>
     <use xlink:href="#DejaVuSans-Bold-39" transform="translate(69.580078 0)"/>
     <use xlink:href="#DejaVuSans-Bold-36" transform="translate(139.160156 0)"/>
    </g>
   </g>
   <g id="text_8">
    <!-- acc -->
    <g style="fill: #2f3338" transform="translate(449.838631 130.733613) scale(0.088 -0.088)">
     <use xlink:href="#DejaVuSans-Bold-61"/>
     <use xlink:href="#DejaVuSans-Bold-63" transform="translate(67.480469 0)"/>
     <use xlink:href="#DejaVuSans-Bold-63" transform="translate(126.757812 0)"/>
    </g>
    <!-- 998 -->
    <g style="fill: #2f3338" transform="translate(448.840381 140.587688) scale(0.088 -0.088)">
     <defs>
      <path id="DejaVuSans-Bold-38" d="M 2228 2088 
Q 1891 2088 1709 1903 
Q 1528 1719 1528 1375 
Q 1528 1031 1709 848 
Q 1891 666 2228 666 
Q 2563 666 2741 848 
Q 2919 1031 2919 1375 
Q 2919 1722 2741 1905 
Q 2563 2088 2228 2088 
z
M 1350 2484 
Q 925 2613 709 2878 
Q 494 3144 494 3541 
Q 494 4131 934 4440 
Q 1375 4750 2228 4750 
Q 3075 4750 3515 4442 
Q 3956 4134 3956 3541 
Q 3956 3144 3739 2878 
Q 3522 2613 3097 2484 
Q 3572 2353 3814 2058 
Q 4056 1763 4056 1313 
Q 4056 619 3595 264 
Q 3134 -91 2228 -91 
Q 1319 -91 855 264 
Q 391 619 391 1313 
Q 391 1763 633 2058 
Q 875 2353 1350 2484 
z
M 1631 3419 
Q 1631 3141 1786 2991 
Q 1941 2841 2228 2841 
Q 2509 2841 2662 2991 
Q 2816 3141 2816 3419 
Q 2816 3697 2662 3845 
Q 2509 3994 2228 3994 
Q 1941 3994 1786 3844 
Q 1631 3694 1631 3419 
z
" transform="scale(0.015625)"/>
     </defs>
     <use xlink:href="#DejaVuSans-Bold-39"/>
     <use xlink:href="#DejaVuSans-Bold-39" transform="translate(69.580078 0)"/>
     <use xlink:href="#DejaVuSans-Bold-38" transform="translate(139.160156 0)"/>
    </g>
   </g>
   <g id="text_9">
    <!-- +5 -->
    <g style="fill: #2f3338" transform="translate(113.698047 72.741475) scale(0.0968 -0.0968)">
     <defs>
      <path id="DejaVuSans-2b" d="M 2944 4013 
L 2944 2272 
L 4684 2272 
L 4684 1741 
L 2944 1741 
L 2944 0 
L 2419 0 
L 2419 1741 
L 678 1741 
L 678 2272 
L 2419 2272 
L 2419 4013 
L 2944 4013 
z
" transform="scale(0.015625)"/>
      <path id="DejaVuSans-35" d="M 691 4666 
L 3169 4666 
L 3169 4134 
L 1269 4134 
L 1269 2991 
Q 1406 3038 1543 3061 
Q 1681 3084 1819 3084 
Q 2600 3084 3056 2656 
Q 3513 2228 3513 1497 
Q 3513 744 3044 326 
Q 2575 -91 1722 -91 
Q 1428 -91 1123 -41 
Q 819 9 494 109 
L 494 744 
Q 775 591 1075 516 
Q 1375 441 1709 441 
Q 2250 441 2565 725 
Q 2881 1009 2881 1497 
Q 2881 1984 2565 2268 
Q 2250 2553 1709 2553 
Q 1456 2553 1204 2497 
Q 953 2441 691 2322 
L 691 4666 
z
" transform="scale(0.015625)"/>
     </defs>
     <use xlink:href="#DejaVuSans-2b"/>
     <use xlink:href="#DejaVuSans-35" transform="translate(83.789062 0)"/>
    </g>
   </g>
   <g id="text_10">
    <!-- +10 -->
    <g style="fill: #2f3338" transform="translate(194.916454 72.741475) scale(0.0968 -0.0968)">
     <defs>
      <path id="DejaVuSans-31" d="M 794 531 
L 1825 531 
L 1825 4091 
L 703 3866 
L 703 4441 
L 1819 4666 
L 2450 4666 
L 2450 531 
L 3481 531 
L 3481 0 
L 794 0 
L 794 531 
z
" transform="scale(0.015625)"/>
      <path id="DejaVuSans-30" d="M 2034 4250 
Q 1547 4250 1301 3770 
Q 1056 3291 1056 2328 
Q 1056 1369 1301 889 
Q 1547 409 2034 409 
Q 2525 409 2770 889 
Q 3016 1369 3016 2328 
Q 3016 3291 2770 3770 
Q 2525 4250 2034 4250 
z
M 2034 4750 
Q 2819 4750 3233 4129 
Q 3647 3509 3647 2328 
Q 3647 1150 3233 529 
Q 2819 -91 2034 -91 
Q 1250 -91 836 529 
Q 422 1150 422 2328 
Q 422 3509 836 4129 
Q 1250 4750 2034 4750 
z
" transform="scale(0.015625)"/>
     </defs>
     <use xlink:href="#DejaVuSans-2b"/>
     <use xlink:href="#DejaVuSans-31" transform="translate(83.789062 0)"/>
     <use xlink:href="#DejaVuSans-30" transform="translate(147.412109 0)"/>
    </g>
   </g>
   <g id="text_11">
    <!-- reset -->
    <g style="fill: #2f3338" transform="translate(275.282567 67.321734) scale(0.0968 -0.0968)">
     <defs>
      <path id="DejaVuSans-Bold-72" d="M 3138 2547 
Q 2991 2616 2845 2648 
Q 2700 2681 2553 2681 
Q 2122 2681 1889 2404 
Q 1656 2128 1656 1613 
L 1656 0 
L 538 0 
L 538 3500 
L 1656 3500 
L 1656 2925 
Q 1872 3269 2151 3426 
Q 2431 3584 2822 3584 
Q 2878 3584 2943 3579 
Q 3009 3575 3134 3559 
L 3138 2547 
z
" transform="scale(0.015625)"/>
      <path id="DejaVuSans-Bold-65" d="M 4031 1759 
L 4031 1441 
L 1416 1441 
Q 1456 1047 1700 850 
Q 1944 653 2381 653 
Q 2734 653 3104 758 
Q 3475 863 3866 1075 
L 3866 213 
Q 3469 63 3072 -14 
Q 2675 -91 2278 -91 
Q 1328 -91 801 392 
Q 275 875 275 1747 
Q 275 2603 792 3093 
Q 1309 3584 2216 3584 
Q 3041 3584 3536 3087 
Q 4031 2591 4031 1759 
z
M 2881 2131 
Q 2881 2450 2695 2645 
Q 2509 2841 2209 2841 
Q 1884 2841 1681 2658 
Q 1478 2475 1428 2131 
L 2881 2131 
z
" transform="scale(0.015625)"/>
      <path id="DejaVuSans-Bold-73" d="M 3272 3391 
L 3272 2541 
Q 2913 2691 2578 2766 
Q 2244 2841 1947 2841 
Q 1628 2841 1473 2761 
Q 1319 2681 1319 2516 
Q 1319 2381 1436 2309 
Q 1553 2238 1856 2203 
L 2053 2175 
Q 2913 2066 3209 1816 
Q 3506 1566 3506 1031 
Q 3506 472 3093 190 
Q 2681 -91 1863 -91 
Q 1516 -91 1145 -36 
Q 775 19 384 128 
L 384 978 
Q 719 816 1070 734 
Q 1422 653 1784 653 
Q 2113 653 2278 743 
Q 2444 834 2444 1013 
Q 2444 1163 2330 1236 
Q 2216 1309 1875 1350 
L 1678 1375 
Q 931 1469 631 1722 
Q 331 1975 331 2491 
Q 331 3047 712 3315 
Q 1094 3584 1881 3584 
Q 2191 3584 2531 3537 
Q 2872 3491 3272 3391 
z
" transform="scale(0.015625)"/>
      <path id="DejaVuSans-Bold-74" d="M 1759 4494 
L 1759 3500 
L 2913 3500 
L 2913 2700 
L 1759 2700 
L 1759 1216 
Q 1759 972 1856 886 
Q 1953 800 2241 800 
L 2816 800 
L 2816 0 
L 1856 0 
Q 1194 0 917 276 
Q 641 553 641 1216 
L 641 2700 
L 84 2700 
L 84 3500 
L 641 3500 
L 641 4494 
L 1759 4494 
z
" transform="scale(0.015625)"/>
     </defs>
     <use xlink:href="#DejaVuSans-Bold-72"/>
     <use xlink:href="#DejaVuSans-Bold-65" transform="translate(49.316406 0)"/>
     <use xlink:href="#DejaVuSans-Bold-73" transform="translate(117.138672 0)"/>
     <use xlink:href="#DejaVuSans-Bold-65" transform="translate(176.660156 0)"/>
     <use xlink:href="#DejaVuSans-Bold-74" transform="translate(244.482422 0)"/>
    </g>
    <!-- 1000 -->
    <g style="fill: #2f3338" transform="translate(275.958655 78.161216) scale(0.0968 -0.0968)">
     <use xlink:href="#DejaVuSans-Bold-31"/>
     <use xlink:href="#DejaVuSans-Bold-30" transform="translate(69.580078 0)"/>
     <use xlink:href="#DejaVuSans-Bold-30" transform="translate(139.160156 0)"/>
     <use xlink:href="#DejaVuSans-Bold-30" transform="translate(208.740234 0)"/>
    </g>
   </g>
   <g id="text_12">
    <!-- -4 -->
    <g style="fill: #2f3338" transform="translate(368.901205 72.741475) scale(0.0968 -0.0968)">
     <defs>
      <path id="DejaVuSans-2d" d="M 313 2009 
L 1997 2009 
L 1997 1497 
L 313 1497 
L 313 2009 
z
" transform="scale(0.015625)"/>
      <path id="DejaVuSans-34" d="M 2419 4116 
L 825 1625 
L 2419 1625 
L 2419 4116 
z
M 2253 4666 
L 3047 4666 
L 3047 1625 
L 3713 1625 
L 3713 1100 
L 3047 1100 
L 3047 0 
L 2419 0 
L 2419 1100 
L 313 1100 
L 313 1709 
L 2253 4666 
z
" transform="scale(0.015625)"/>
     </defs>
     <use xlink:href="#DejaVuSans-2d"/>
     <use xlink:href="#DejaVuSans-34" transform="translate(36.083984 0)"/>
    </g>
   </g>
   <g id="text_13">
    <!-- +2 -->
    <g style="fill: #2f3338" transform="translate(450.889475 72.741475) scale(0.0968 -0.0968)">
     <defs>
      <path id="DejaVuSans-32" d="M 1228 531 
L 3431 531 
L 3431 0 
L 469 0 
L 469 531 
Q 828 903 1448 1529 
Q 2069 2156 2228 2338 
Q 2531 2678 2651 2914 
Q 2772 3150 2772 3378 
Q 2772 3750 2511 3984 
Q 2250 4219 1831 4219 
Q 1534 4219 1204 4116 
Q 875 4013 500 3803 
L 500 4441 
Q 881 4594 1212 4672 
Q 1544 4750 1819 4750 
Q 2544 4750 2975 4387 
Q 3406 4025 3406 3419 
Q 3406 3131 3298 2873 
Q 3191 2616 2906 2266 
Q 2828 2175 2409 1742 
Q 1991 1309 1228 531 
z
" transform="scale(0.015625)"/>
     </defs>
     <use xlink:href="#DejaVuSans-2b"/>
     <use xlink:href="#DejaVuSans-32" transform="translate(83.789062 0)"/>
    </g>
   </g>
  </g>
 </g>
 <defs>
  <clipPath id="pdf937ab914">
   <rect x="5.76" y="5.76" width="524.52" height="160.776"/>
  </clipPath>
 </defs>
</svg>
