<?xml version="1.0" encoding="utf-8" standalone="no"?>
<!DOCTYPE svg PUBLIC "-//W3C//DTD SVG 1.1//EN"
  "http://www.w3.org/Graphics/SVG/1.1/DTD/svg11.dtd">
<svg xmlns:xlink="http://www.w3.org/1999/xlink" width="506.202634pt" height="244.368pt" viewBox="0 0 506.202634 244.368" xmlns="http://www.w3.org/2000/svg" version="1.1">
 <metadata>
  <rdf:RDF xmlns:dc="http://purl.org/dc/elements/1.1/" xmlns:cc="http://creativecommons.org/ns#" xmlns:rdf="http://www.w3.org/1999/02/22-rdf-syntax-ns#">
   <cc:Work>
    <dc:type rdf:resource="http://purl.org/dc/dcmitype/StillImage"/>
    <dc:date>2026-06-18T18:09:07.625889</dc:date>
    <dc:format>image/svg+xml</dc:format>
    <dc:creator>
     <cc:Agent>
      <dc:title>Matplotlib v3.10.9, https://matplotlib.org/</dc:title>
     </cc:Agent>
    </dc:creator>
   </cc:Work>
  </rdf:RDF>
 </metadata>
 <defs>
  <style type="text/css">*{stroke-linejoin: round; stroke-linecap: butt}</style>
 </defs>
 <g id="figure_1">
  <g id="patch_1">
   <path d="M 0 244.368 
L 506.202634 244.368 
L 506.202634 0 
L 0 0 
L 0 244.368 
z
" style="fill: none"/>
  </g>
  <g id="axes_1">
   <g id="patch_2">
    <path d="M 21.200188 84.278512 
L 43.478174 84.278512 
Q 45.13248 84.278512 45.13248 82.653991 
L 45.13248 64.78426 
Q 45.13248 63.15974 43.478174 63.15974 
L 21.200188 63.15974 
Q 19.545882 63.15974 19.545882 64.78426 
L 19.545882 82.653991 
Q 19.545882 84.278512 21.200188 84.278512 
z
" clip-path="url(#pd5b36b95f1)" style="fill: #f4f4f4; stroke: #cccccc; stroke-width: 1.3; stroke-linejoin: miter"/>
   </g>
   <g id="patch_3">
    <path d="M 46.786786 84.278512 
L 72.263096 84.278512 
Q 73.917402 84.278512 73.917402 82.653991 
L 73.917402 64.78426 
Q 73.917402 63.15974 72.263096 63.15974 
L 46.786786 63.15974 
Q 45.13248 63.15974 45.13248 64.78426 
L 45.13248 82.653991 
Q 45.13248 84.278512 46.786786 84.278512 
z
" clip-path="url(#pd5b36b95f1)" style="fill: #ffe1b0; stroke: #d08a2e; stroke-width: 1.3; stroke-linejoin: miter"/>
   </g>
   <g id="patch_4">
    <path d="M 75.571708 84.278512 
L 97.849694 84.278512 
Q 99.504 84.278512 99.504 82.653991 
L 99.504 64.78426 
Q 99.504 63.15974 97.849694 63.15974 
L 75.571708 63.15974 
Q 73.917402 63.15974 73.917402 64.78426 
L 73.917402 82.653991 
Q 73.917402 84.278512 75.571708 84.278512 
z
" clip-path="url(#pd5b36b95f1)" style="fill: #f4f4f4; stroke: #cccccc; stroke-width: 1.3; stroke-linejoin: miter"/>
   </g>
   <g id="patch_5">
    <path d="M 47.393365 122.184 
L 71.656518 122.184 
Q 73.310824 122.184 73.310824 120.559479 
L 73.310824 105.938791 
Q 73.310824 104.31427 71.656518 104.31427 
L 47.393365 104.31427 
Q 45.739059 104.31427 45.739059 105.938791 
L 45.739059 120.559479 
Q 45.739059 122.184 47.393365 122.184 
z
" clip-path="url(#pd5b36b95f1)" style="fill: #ffe1b0; stroke: #d08a2e; stroke-width: 1.3; stroke-linejoin: miter"/>
   </g>
   <g id="patch_6">
    <path d="M 59.524941 86.820263 
Q 59.524941 94.026115 59.524941 99.443113 
" clip-path="url(#pd5b36b95f1)" style="fill: none; stroke: #b5651d; stroke-width: 1.6; stroke-linecap: round"/>
    <path d="M 62.124941 94.243113 
L 59.524941 99.443113 
L 56.924941 94.243113 
z
" clip-path="url(#pd5b36b95f1)" style="fill: #b5651d; stroke: #b5651d; stroke-width: 1.6; stroke-linecap: round"/>
   </g>
   <g id="patch_7">
    <path d="M 112.187012 84.278512 
L 134.464998 84.278512 
Q 136.119304 84.278512 136.119304 82.653991 
L 136.119304 64.78426 
Q 136.119304 63.15974 134.464998 63.15974 
L 112.187012 63.15974 
Q 110.532706 63.15974 110.532706 64.78426 
L 110.532706 82.653991 
Q 110.532706 84.278512 112.187012 84.278512 
z
" clip-path="url(#pd5b36b95f1)" style="fill: #f4f4f4; stroke: #cccccc; stroke-width: 1.3; stroke-linejoin: miter"/>
   </g>
   <g id="patch_8">
    <path d="M 137.773609 84.278512 
L 163.24992 84.278512 
Q 164.904226 84.278512 164.904226 82.653991 
L 164.904226 64.78426 
Q 164.904226 63.15974 163.24992 63.15974 
L 137.773609 63.15974 
Q 136.119304 63.15974 136.119304 64.78426 
L 136.119304 82.653991 
Q 136.119304 84.278512 137.773609 84.278512 
z
" clip-path="url(#pd5b36b95f1)" style="fill: #ffe1b0; stroke: #d08a2e; stroke-width: 1.3; stroke-linejoin: miter"/>
   </g>
   <g id="patch_9">
    <path d="M 166.558532 84.278512 
L 188.836518 84.278512 
Q 190.490824 84.278512 190.490824 82.653991 
L 190.490824 64.78426 
Q 190.490824 63.15974 188.836518 63.15974 
L 166.558532 63.15974 
Q 164.904226 63.15974 164.904226 64.78426 
L 164.904226 82.653991 
Q 164.904226 84.278512 166.558532 84.278512 
z
" clip-path="url(#pd5b36b95f1)" style="fill: #f4f4f4; stroke: #cccccc; stroke-width: 1.3; stroke-linejoin: miter"/>
   </g>
   <g id="patch_10">
    <path d="M 138.380188 122.184 
L 162.643341 122.184 
Q 164.297647 122.184 164.297647 120.559479 
L 164.297647 105.938791 
Q 164.297647 104.31427 162.643341 104.31427 
L 138.380188 104.31427 
Q 136.725882 104.31427 136.725882 105.938791 
L 136.725882 120.559479 
Q 136.725882 122.184 138.380188 122.184 
z
" clip-path="url(#pd5b36b95f1)" style="fill: #ffe1b0; stroke: #d08a2e; stroke-width: 1.3; stroke-linejoin: miter"/>
   </g>
   <g id="patch_11">
    <path d="M 150.511765 86.820263 
Q 150.511765 94.026115 150.511765 99.443113 
" clip-path="url(#pd5b36b95f1)" style="fill: none; stroke: #b5651d; stroke-width: 1.6; stroke-linecap: round"/>
    <path d="M 153.111765 94.243113 
L 150.511765 99.443113 
L 147.911765 94.243113 
z
" clip-path="url(#pd5b36b95f1)" style="fill: #b5651d; stroke: #b5651d; stroke-width: 1.6; stroke-linecap: round"/>
   </g>
   <g id="patch_12">
    <path d="M 203.173835 84.278512 
L 225.451821 84.278512 
Q 227.106127 84.278512 227.106127 82.653991 
L 227.106127 64.78426 
Q 227.106127 63.15974 225.451821 63.15974 
L 203.173835 63.15974 
Q 201.519529 63.15974 201.519529 64.78426 
L 201.519529 82.653991 
Q 201.519529 84.278512 203.173835 84.278512 
z
" clip-path="url(#pd5b36b95f1)" style="fill: #f4f4f4; stroke: #cccccc; stroke-width: 1.3; stroke-linejoin: miter"/>
   </g>
   <g id="patch_13">
    <path d="M 228.760433 84.278512 
L 254.236744 84.278512 
Q 255.891049 84.278512 255.891049 82.653991 
L 255.891049 64.78426 
Q 255.891049 63.15974 254.236744 63.15974 
L 228.760433 63.15974 
Q 227.106127 63.15974 227.106127 64.78426 
L 227.106127 82.653991 
Q 227.106127 84.278512 228.760433 84.278512 
z
" clip-path="url(#pd5b36b95f1)" style="fill: #ffe1b0; stroke: #d08a2e; stroke-width: 1.3; stroke-linejoin: miter"/>
   </g>
   <g id="patch_14">
    <path d="M 257.545355 84.278512 
L 279.823341 84.278512 
Q 281.477647 84.278512 281.477647 82.653991 
L 281.477647 64.78426 
Q 281.477647 63.15974 279.823341 63.15974 
L 257.545355 63.15974 
Q 255.891049 63.15974 255.891049 64.78426 
L 255.891049 82.653991 
Q 255.891049 84.278512 257.545355 84.278512 
z
" clip-path="url(#pd5b36b95f1)" style="fill: #f4f4f4; stroke: #cccccc; stroke-width: 1.3; stroke-linejoin: miter"/>
   </g>
   <g id="patch_15">
    <path d="M 229.367012 122.184 
L 253.630165 122.184 
Q 255.284471 122.184 255.284471 120.559479 
L 255.284471 105.938791 
Q 255.284471 104.31427 253.630165 104.31427 
L 229.367012 104.31427 
Q 227.712706 104.31427 227.712706 105.938791 
L 227.712706 120.559479 
Q 227.712706 122.184 229.367012 122.184 
z
" clip-path="url(#pd5b36b95f1)" style="fill: #ffe1b0; stroke: #d08a2e; stroke-width: 1.3; stroke-linejoin: miter"/>
   </g>
   <g id="patch_16">
    <path d="M 241.498588 86.820263 
Q 241.498588 94.026115 241.498588 99.443113 
" clip-path="url(#pd5b36b95f1)" style="fill: none; stroke: #b5651d; stroke-width: 1.6; stroke-linecap: round"/>
    <path d="M 244.098588 94.243113 
L 241.498588 99.443113 
L 238.898588 94.243113 
z
" clip-path="url(#pd5b36b95f1)" style="fill: #b5651d; stroke: #b5651d; stroke-width: 1.6; stroke-linecap: round"/>
   </g>
   <g id="patch_17">
    <path d="M 21.200188 187.164837 
L 43.478174 187.164837 
Q 45.13248 187.164837 45.13248 185.540316 
L 45.13248 167.670586 
Q 45.13248 166.046065 43.478174 166.046065 
L 21.200188 166.046065 
Q 19.545882 166.046065 19.545882 167.670586 
L 19.545882 185.540316 
Q 19.545882 187.164837 21.200188 187.164837 
z
" clip-path="url(#pd5b36b95f1)" style="fill: #f4f4f4; stroke: #cccccc; stroke-width: 1.3; stroke-linejoin: miter"/>
   </g>
   <g id="patch_18">
    <path d="M 46.786786 187.164837 
L 72.263096 187.164837 
Q 73.917402 187.164837 73.917402 185.540316 
L 73.917402 167.670586 
Q 73.917402 166.046065 72.263096 166.046065 
L 46.786786 166.046065 
Q 45.13248 166.046065 45.13248 167.670586 
L 45.13248 185.540316 
Q 45.13248 187.164837 46.786786 187.164837 
z
" clip-path="url(#pd5b36b95f1)" style="fill: #ffe1b0; stroke: #d08a2e; stroke-width: 1.3; stroke-linejoin: miter"/>
   </g>
   <g id="patch_19">
    <path d="M 75.571708 187.164837 
L 97.849694 187.164837 
Q 99.504 187.164837 99.504 185.540316 
L 99.504 167.670586 
Q 99.504 166.046065 97.849694 166.046065 
L 75.571708 166.046065 
Q 73.917402 166.046065 73.917402 167.670586 
L 73.917402 185.540316 
Q 73.917402 187.164837 75.571708 187.164837 
z
" clip-path="url(#pd5b36b95f1)" style="fill: #f4f4f4; stroke: #cccccc; stroke-width: 1.3; stroke-linejoin: miter"/>
   </g>
   <g id="patch_20">
    <path d="M 112.187012 187.164837 
L 134.464998 187.164837 
Q 136.119304 187.164837 136.119304 185.540316 
L 136.119304 167.670586 
Q 136.119304 166.046065 134.464998 166.046065 
L 112.187012 166.046065 
Q 110.532706 166.046065 110.532706 167.670586 
L 110.532706 185.540316 
Q 110.532706 187.164837 112.187012 187.164837 
z
" clip-path="url(#pd5b36b95f1)" style="fill: #f4f4f4; stroke: #cccccc; stroke-width: 1.3; stroke-linejoin: miter"/>
   </g>
   <g id="patch_21">
    <path d="M 137.773609 187.164837 
L 163.24992 187.164837 
Q 164.904226 187.164837 164.904226 185.540316 
L 164.904226 167.670586 
Q 164.904226 166.046065 163.24992 166.046065 
L 137.773609 166.046065 
Q 136.119304 166.046065 136.119304 167.670586 
L 136.119304 185.540316 
Q 136.119304 187.164837 137.773609 187.164837 
z
" clip-path="url(#pd5b36b95f1)" style="fill: #ffe1b0; stroke: #d08a2e; stroke-width: 1.3; stroke-linejoin: miter"/>
   </g>
   <g id="patch_22">
    <path d="M 166.558532 187.164837 
L 188.836518 187.164837 
Q 190.490824 187.164837 190.490824 185.540316 
L 190.490824 167.670586 
Q 190.490824 166.046065 188.836518 166.046065 
L 166.558532 166.046065 
Q 164.904226 166.046065 164.904226 167.670586 
L 164.904226 185.540316 
Q 164.904226 187.164837 166.558532 187.164837 
z
" clip-path="url(#pd5b36b95f1)" style="fill: #f4f4f4; stroke: #cccccc; stroke-width: 1.3; stroke-linejoin: miter"/>
   </g>
   <g id="patch_23">
    <path d="M 203.173835 187.164837 
L 225.451821 187.164837 
Q 227.106127 187.164837 227.106127 185.540316 
L 227.106127 167.670586 
Q 227.106127 166.046065 225.451821 166.046065 
L 203.173835 166.046065 
Q 201.519529 166.046065 201.519529 167.670586 
L 201.519529 185.540316 
Q 201.519529 187.164837 203.173835 187.164837 
z
" clip-path="url(#pd5b36b95f1)" style="fill: #f4f4f4; stroke: #cccccc; stroke-width: 1.3; stroke-linejoin: miter"/>
   </g>
   <g id="patch_24">
    <path d="M 228.760433 187.164837 
L 254.236744 187.164837 
Q 255.891049 187.164837 255.891049 185.540316 
L 255.891049 167.670586 
Q 255.891049 166.046065 254.236744 166.046065 
L 228.760433 166.046065 
Q 227.106127 166.046065 227.106127 167.670586 
L 227.106127 185.540316 
Q 227.106127 187.164837 228.760433 187.164837 
z
" clip-path="url(#pd5b36b95f1)" style="fill: #ffe1b0; stroke: #d08a2e; stroke-width: 1.3; stroke-linejoin: miter"/>
   </g>
   <g id="patch_25">
    <path d="M 257.545355 187.164837 
L 279.823341 187.164837 
Q 281.477647 187.164837 281.477647 185.540316 
L 281.477647 167.670586 
Q 281.477647 166.046065 279.823341 166.046065 
L 257.545355 166.046065 
Q 255.891049 166.046065 255.891049 167.670586 
L 255.891049 185.540316 
Q 255.891049 187.164837 257.545355 187.164837 
z
" clip-path="url(#pd5b36b95f1)" style="fill: #f4f4f4; stroke: #cccccc; stroke-width: 1.3; stroke-linejoin: miter"/>
   </g>
   <g id="patch_26">
    <path d="M 310.703718 185.81107 
L 345.995576 185.81107 
Q 347.649882 185.81107 347.649882 184.186549 
L 347.649882 169.024353 
Q 347.649882 167.399833 345.995576 167.399833 
L 310.703718 167.399833 
Q 309.049412 167.399833 309.049412 169.024353 
L 309.049412 184.186549 
Q 309.049412 185.81107 310.703718 185.81107 
z
" clip-path="url(#pd5b36b95f1)" style="fill: #ffe1b0; stroke: #d08a2e; stroke-width: 1.3; stroke-linejoin: miter"/>
   </g>
   <g id="patch_27">
    <path d="M 352.061365 185.81107 
L 387.353224 185.81107 
Q 389.007529 185.81107 389.007529 184.186549 
L 389.007529 169.024353 
Q 389.007529 167.399833 387.353224 167.399833 
L 352.061365 167.399833 
Q 350.407059 167.399833 350.407059 169.024353 
L 350.407059 184.186549 
Q 350.407059 185.81107 352.061365 185.81107 
z
" clip-path="url(#pd5b36b95f1)" style="fill: #ffe1b0; stroke: #d08a2e; stroke-width: 1.3; stroke-linejoin: miter"/>
   </g>
   <g id="patch_28">
    <path d="M 393.419012 185.81107 
L 428.710871 185.81107 
Q 430.365176 185.81107 430.365176 184.186549 
L 430.365176 169.024353 
Q 430.365176 167.399833 428.710871 167.399833 
L 393.419012 167.399833 
Q 391.764706 167.399833 391.764706 169.024353 
L 391.764706 184.186549 
Q 391.764706 185.81107 393.419012 185.81107 
z
" clip-path="url(#pd5b36b95f1)" style="fill: #ffe1b0; stroke: #d08a2e; stroke-width: 1.3; stroke-linejoin: miter"/>
   </g>
   <g id="patch_29">
    <path d="M 288.994588 176.876205 
Q 296.644658 176.876205 301.835054 176.876205 
" clip-path="url(#pd5b36b95f1)" style="fill: none; stroke: #3f7d4f; stroke-width: 2.2; stroke-linecap: round"/>
    <path d="M 296.635054 174.276205 
L 301.835054 176.876205 
L 296.635054 179.476205 
z
" clip-path="url(#pd5b36b95f1)" style="fill: #3f7d4f; stroke: #3f7d4f; stroke-width: 2.2; stroke-linecap: round"/>
   </g>
   <g id="text_1">
    <!-- a record holds several fields ("..." = other bytes); we want one field (the time) from each -->
    <g style="fill: #2f3338" transform="translate(11.274353 16.59014) scale(0.11 -0.11)">
     <defs>
      <path id="DejaVuSans-61" d="M 2194 1759 
Q 1497 1759 1228 1600 
Q 959 1441 959 1056 
Q 959 750 1161 570 
Q 1363 391 1709 391 
Q 2188 391 2477 730 
Q 2766 1069 2766 1631 
L 2766 1759 
L 2194 1759 
z
M 3341 1997 
L 3341 0 
L 2766 0 
L 2766 531 
Q 2569 213 2275 61 
Q 1981 -91 1556 -91 
Q 1019 -91 701 211 
Q 384 513 384 1019 
Q 384 1609 779 1909 
Q 1175 2209 1959 2209 
L 2766 2209 
L 2766 2266 
Q 2766 2663 2505 2880 
Q 2244 3097 1772 3097 
Q 1472 3097 1187 3025 
Q 903 2953 641 2809 
L 641 3341 
Q 956 3463 1253 3523 
Q 1550 3584 1831 3584 
Q 2591 3584 2966 3190 
Q 3341 2797 3341 1997 
z
" transform="scale(0.015625)"/>
      <path id="DejaVuSans-20" transform="scale(0.015625)"/>
      <path id="DejaVuSans-72" d="M 2631 2963 
Q 2534 3019 2420 3045 
Q 2306 3072 2169 3072 
Q 1681 3072 1420 2755 
Q 1159 2438 1159 1844 
L 1159 0 
L 581 0 
L 581 3500 
L 1159 3500 
L 1159 2956 
Q 1341 3275 1631 3429 
Q 1922 3584 2338 3584 
Q 2397 3584 2469 3576 
Q 2541 3569 2628 3553 
L 2631 2963 
z
" transform="scale(0.015625)"/>
      <path id="DejaVuSans-65" d="M 3597 1894 
L 3597 1613 
L 953 1613 
Q 991 1019 1311 708 
Q 1631 397 2203 397 
Q 2534 397 2845 478 
Q 3156 559 3463 722 
L 3463 178 
Q 3153 47 2828 -22 
Q 2503 -91 2169 -91 
Q 1331 -91 842 396 
Q 353 884 353 1716 
Q 353 2575 817 3079 
Q 1281 3584 2069 3584 
Q 2775 3584 3186 3129 
Q 3597 2675 3597 1894 
z
M 3022 2063 
Q 3016 2534 2758 2815 
Q 2500 3097 2075 3097 
Q 1594 3097 1305 2825 
Q 1016 2553 972 2059 
L 3022 2063 
z
" transform="scale(0.015625)"/>
      <path id="DejaVuSans-63" d="M 3122 3366 
L 3122 2828 
Q 2878 2963 2633 3030 
Q 2388 3097 2138 3097 
Q 1578 3097 1268 2742 
Q 959 2388 959 1747 
Q 959 1106 1268 751 
Q 1578 397 2138 397 
Q 2388 397 2633 464 
Q 2878 531 3122 666 
L 3122 134 
Q 2881 22 2623 -34 
Q 2366 -91 2075 -91 
Q 1284 -91 818 406 
Q 353 903 353 1747 
Q 353 2603 823 3093 
Q 1294 3584 2113 3584 
Q 2378 3584 2631 3529 
Q 2884 3475 3122 3366 
z
" transform="scale(0.015625)"/>
      <path id="DejaVuSans-6f" d="M 1959 3097 
Q 1497 3097 1228 2736 
Q 959 2375 959 1747 
Q 959 1119 1226 758 
Q 1494 397 1959 397 
Q 2419 397 2687 759 
Q 2956 1122 2956 1747 
Q 2956 2369 2687 2733 
Q 2419 3097 1959 3097 
z
M 1959 3584 
Q 2709 3584 3137 3096 
Q 3566 2609 3566 1747 
Q 3566 888 3137 398 
Q 2709 -91 1959 -91 
Q 1206 -91 779 398 
Q 353 888 353 1747 
Q 353 2609 779 3096 
Q 1206 3584 1959 3584 
z
" transform="scale(0.015625)"/>
      <path id="DejaVuSans-64" d="M 2906 2969 
L 2906 4863 
L 3481 4863 
L 3481 0 
L 2906 0 
L 2906 525 
Q 2725 213 2448 61 
Q 2172 -91 1784 -91 
Q 1150 -91 751 415 
Q 353 922 353 1747 
Q 353 2572 751 3078 
Q 1150 3584 1784 3584 
Q 2172 3584 2448 3432 
Q 2725 3281 2906 2969 
z
M 947 1747 
Q 947 1113 1208 752 
Q 1469 391 1925 391 
Q 2381 391 2643 752 
Q 2906 1113 2906 1747 
Q 2906 2381 2643 2742 
Q 2381 3103 1925 3103 
Q 1469 3103 1208 2742 
Q 947 2381 947 1747 
z
" transform="scale(0.015625)"/>
      <path id="DejaVuSans-68" d="M 3513 2113 
L 3513 0 
L 2938 0 
L 2938 2094 
Q 2938 2591 2744 2837 
Q 2550 3084 2163 3084 
Q 1697 3084 1428 2787 
Q 1159 2491 1159 1978 
L 1159 0 
L 581 0 
L 581 4863 
L 1159 4863 
L 1159 2956 
Q 1366 3272 1645 3428 
Q 1925 3584 2291 3584 
Q 2894 3584 3203 3211 
Q 3513 2838 3513 2113 
z
" transform="scale(0.015625)"/>
      <path id="DejaVuSans-6c" d="M 603 4863 
L 1178 4863 
L 1178 0 
L 603 0 
L 603 4863 
z
" transform="scale(0.015625)"/>
      <path id="DejaVuSans-73" d="M 2834 3397 
L 2834 2853 
Q 2591 2978 2328 3040 
Q 2066 3103 1784 3103 
Q 1356 3103 1142 2972 
Q 928 2841 928 2578 
Q 928 2378 1081 2264 
Q 1234 2150 1697 2047 
L 1894 2003 
Q 2506 1872 2764 1633 
Q 3022 1394 3022 966 
Q 3022 478 2636 193 
Q 2250 -91 1575 -91 
Q 1294 -91 989 -36 
Q 684 19 347 128 
L 347 722 
Q 666 556 975 473 
Q 1284 391 1588 391 
Q 1994 391 2212 530 
Q 2431 669 2431 922 
Q 2431 1156 2273 1281 
Q 2116 1406 1581 1522 
L 1381 1569 
Q 847 1681 609 1914 
Q 372 2147 372 2553 
Q 372 3047 722 3315 
Q 1072 3584 1716 3584 
Q 2034 3584 2315 3537 
Q 2597 3491 2834 3397 
z
" transform="scale(0.015625)"/>
      <path id="DejaVuSans-76" d="M 191 3500 
L 800 3500 
L 1894 563 
L 2988 3500 
L 3597 3500 
L 2284 0 
L 1503 0 
L 191 3500 
z
" transform="scale(0.015625)"/>
      <path id="DejaVuSans-66" d="M 2375 4863 
L 2375 4384 
L 1825 4384 
Q 1516 4384 1395 4259 
Q 1275 4134 1275 3809 
L 1275 3500 
L 2222 3500 
L 2222 3053 
L 1275 3053 
L 1275 0 
L 697 0 
L 697 3053 
L 147 3053 
L 147 3500 
L 697 3500 
L 697 3744 
Q 697 4328 969 4595 
Q 1241 4863 1831 4863 
L 2375 4863 
z
" transform="scale(0.015625)"/>
      <path id="DejaVuSans-69" d="M 603 3500 
L 1178 3500 
L 1178 0 
L 603 0 
L 603 3500 
z
M 603 4863 
L 1178 4863 
L 1178 4134 
L 603 4134 
L 603 4863 
z
" transform="scale(0.015625)"/>
      <path id="DejaVuSans-28" d="M 1984 4856 
Q 1566 4138 1362 3434 
Q 1159 2731 1159 2009 
Q 1159 1288 1364 580 
Q 1569 -128 1984 -844 
L 1484 -844 
Q 1016 -109 783 600 
Q 550 1309 550 2009 
Q 550 2706 781 3412 
Q 1013 4119 1484 4856 
L 1984 4856 
z
" transform="scale(0.015625)"/>
      <path id="DejaVuSans-22" d="M 1147 4666 
L 1147 2931 
L 616 2931 
L 616 4666 
L 1147 4666 
z
M 2328 4666 
L 2328 2931 
L 1797 2931 
L 1797 4666 
L 2328 4666 
z
" transform="scale(0.015625)"/>
      <path id="DejaVuSans-2e" d="M 684 794 
L 1344 794 
L 1344 0 
L 684 0 
L 684 794 
z
" transform="scale(0.015625)"/>
      <path id="DejaVuSans-3d" d="M 678 2906 
L 4684 2906 
L 4684 2381 
L 678 2381 
L 678 2906 
z
M 678 1631 
L 4684 1631 
L 4684 1100 
L 678 1100 
L 678 1631 
z
" transform="scale(0.015625)"/>
      <path id="DejaVuSans-74" d="M 1172 4494 
L 1172 3500 
L 2356 3500 
L 2356 3053 
L 1172 3053 
L 1172 1153 
Q 1172 725 1289 603 
Q 1406 481 1766 481 
L 2356 481 
L 2356 0 
L 1766 0 
Q 1100 0 847 248 
Q 594 497 594 1153 
L 594 3053 
L 172 3053 
L 172 3500 
L 594 3500 
L 594 4494 
L 1172 4494 
z
" transform="scale(0.015625)"/>
      <path id="DejaVuSans-62" d="M 3116 1747 
Q 3116 2381 2855 2742 
Q 2594 3103 2138 3103 
Q 1681 3103 1420 2742 
Q 1159 2381 1159 1747 
Q 1159 1113 1420 752 
Q 1681 391 2138 391 
Q 2594 391 2855 752 
Q 3116 1113 3116 1747 
z
M 1159 2969 
Q 1341 3281 1617 3432 
Q 1894 3584 2278 3584 
Q 2916 3584 3314 3078 
Q 3713 2572 3713 1747 
Q 3713 922 3314 415 
Q 2916 -91 2278 -91 
Q 1894 -91 1617 61 
Q 1341 213 1159 525 
L 1159 0 
L 581 0 
L 581 4863 
L 1159 4863 
L 1159 2969 
z
" transform="scale(0.015625)"/>
      <path id="DejaVuSans-79" d="M 2059 -325 
Q 1816 -950 1584 -1140 
Q 1353 -1331 966 -1331 
L 506 -1331 
L 506 -850 
L 844 -850 
Q 1081 -850 1212 -737 
Q 1344 -625 1503 -206 
L 1606 56 
L 191 3500 
L 800 3500 
L 1894 763 
L 2988 3500 
L 3597 3500 
L 2059 -325 
z
" transform="scale(0.015625)"/>
      <path id="DejaVuSans-29" d="M 513 4856 
L 1013 4856 
Q 1481 4119 1714 3412 
Q 1947 2706 1947 2009 
Q 1947 1309 1714 600 
Q 1481 -109 1013 -844 
L 513 -844 
Q 928 -128 1133 580 
Q 1338 1288 1338 2009 
Q 1338 2731 1133 3434 
Q 928 4138 513 4856 
z
" transform="scale(0.015625)"/>
      <path id="DejaVuSans-3b" d="M 750 3309 
L 1409 3309 
L 1409 2516 
L 750 2516 
L 750 3309 
z
M 750 794 
L 1409 794 
L 1409 256 
L 897 -744 
L 494 -744 
L 750 256 
L 750 794 
z
" transform="scale(0.015625)"/>
      <path id="DejaVuSans-77" d="M 269 3500 
L 844 3500 
L 1563 769 
L 2278 3500 
L 2956 3500 
L 3675 769 
L 4391 3500 
L 4966 3500 
L 4050 0 
L 3372 0 
L 2619 2869 
L 1863 0 
L 1184 0 
L 269 3500 
z
" transform="scale(0.015625)"/>
      <path id="DejaVuSans-6e" d="M 3513 2113 
L 3513 0 
L 2938 0 
L 2938 2094 
Q 2938 2591 2744 2837 
Q 2550 3084 2163 3084 
Q 1697 3084 1428 2787 
Q 1159 2491 1159 1978 
L 1159 0 
L 581 0 
L 581 3500 
L 1159 3500 
L 1159 2956 
Q 1366 3272 1645 3428 
Q 1925 3584 2291 3584 
Q 2894 3584 3203 3211 
Q 3513 2838 3513 2113 
z
" transform="scale(0.015625)"/>
      <path id="DejaVuSans-6d" d="M 3328 2828 
Q 3544 3216 3844 3400 
Q 4144 3584 4550 3584 
Q 5097 3584 5394 3201 
Q 5691 2819 5691 2113 
L 5691 0 
L 5113 0 
L 5113 2094 
Q 5113 2597 4934 2840 
Q 4756 3084 4391 3084 
Q 3944 3084 3684 2787 
Q 3425 2491 3425 1978 
L 3425 0 
L 2847 0 
L 2847 2094 
Q 2847 2600 2669 2842 
Q 2491 3084 2119 3084 
Q 1678 3084 1418 2786 
Q 1159 2488 1159 1978 
L 1159 0 
L 581 0 
L 581 3500 
L 1159 3500 
L 1159 2956 
Q 1356 3278 1631 3431 
Q 1906 3584 2284 3584 
Q 2666 3584 2933 3390 
Q 3200 3197 3328 2828 
z
" transform="scale(0.015625)"/>
     </defs>
     <use xlink:href="#DejaVuSans-61"/>
     <use xlink:href="#DejaVuSans-20" transform="translate(61.279297 0)"/>
     <use xlink:href="#DejaVuSans-72" transform="translate(93.066406 0)"/>
     <use xlink:href="#DejaVuSans-65" transform="translate(131.929688 0)"/>
     <use xlink:href="#DejaVuSans-63" transform="translate(193.453125 0)"/>
     <use xlink:href="#DejaVuSans-6f" transform="translate(248.433594 0)"/>
     <use xlink:href="#DejaVuSans-72" transform="translate(309.615234 0)"/>
     <use xlink:href="#DejaVuSans-64" transform="translate(348.978516 0)"/>
     <use xlink:href="#DejaVuSans-20" transform="translate(412.455078 0)"/>
     <use xlink:href="#DejaVuSans-68" transform="translate(444.242188 0)"/>
     <use xlink:href="#DejaVuSans-6f" transform="translate(507.621094 0)"/>
     <use xlink:href="#DejaVuSans-6c" transform="translate(568.802734 0)"/>
     <use xlink:href="#DejaVuSans-64" transform="translate(596.585938 0)"/>
     <use xlink:href="#DejaVuSans-73" transform="translate(660.0625 0)"/>
     <use xlink:href="#DejaVuSans-20" transform="translate(712.162109 0)"/>
     <use xlink:href="#DejaVuSans-73" transform="translate(743.949219 0)"/>
     <use xlink:href="#DejaVuSans-65" transform="translate(796.048828 0)"/>
     <use xlink:href="#DejaVuSans-76" transform="translate(857.572266 0)"/>
     <use xlink:href="#DejaVuSans-65" transform="translate(916.751953 0)"/>
     <use xlink:href="#DejaVuSans-72" transform="translate(978.275391 0)"/>
     <use xlink:href="#DejaVuSans-61" transform="translate(1019.388672 0)"/>
     <use xlink:href="#DejaVuSans-6c" transform="translate(1080.667969 0)"/>
     <use xlink:href="#DejaVuSans-20" transform="translate(1108.451172 0)"/>
     <use xlink:href="#DejaVuSans-66" transform="translate(1140.238281 0)"/>
     <use xlink:href="#DejaVuSans-69" transform="translate(1175.443359 0)"/>
     <use xlink:href="#DejaVuSans-65" transform="translate(1203.226562 0)"/>
     <use xlink:href="#DejaVuSans-6c" transform="translate(1264.75 0)"/>
     <use xlink:href="#DejaVuSans-64" transform="translate(1292.533203 0)"/>
     <use xlink:href="#DejaVuSans-73" transform="translate(1356.009766 0)"/>
     <use xlink:href="#DejaVuSans-20" transform="translate(1408.109375 0)"/>
     <use xlink:href="#DejaVuSans-28" transform="translate(1439.896484 0)"/>
     <use xlink:href="#DejaVuSans-22" transform="translate(1478.910156 0)"/>
     <use xlink:href="#DejaVuSans-2e" transform="translate(1524.90625 0)"/>
     <use xlink:href="#DejaVuSans-2e" transform="translate(1556.693359 0)"/>
     <use xlink:href="#DejaVuSans-2e" transform="translate(1588.480469 0)"/>
     <use xlink:href="#DejaVuSans-22" transform="translate(1620.267578 0)"/>
     <use xlink:href="#DejaVuSans-20" transform="translate(1666.263672 0)"/>
     <use xlink:href="#DejaVuSans-3d" transform="translate(1698.050781 0)"/>
     <use xlink:href="#DejaVuSans-20" transform="translate(1781.839844 0)"/>
     <use xlink:href="#DejaVuSans-6f" transform="translate(1813.626953 0)"/>
     <use xlink:href="#DejaVuSans-74" transform="translate(1874.808594 0)"/>
     <use xlink:href="#DejaVuSans-68" transform="translate(1914.017578 0)"/>
     <use xlink:href="#DejaVuSans-65" transform="translate(1977.396484 0)"/>
     <use xlink:href="#DejaVuSans-72" transform="translate(2038.919922 0)"/>
     <use xlink:href="#DejaVuSans-20" transform="translate(2080.033203 0)"/>
     <use xlink:href="#DejaVuSans-62" transform="translate(2111.820312 0)"/>
     <use xlink:href="#DejaVuSans-79" transform="translate(2175.296875 0)"/>
     <use xlink:href="#DejaVuSans-74" transform="translate(2234.476562 0)"/>
     <use xlink:href="#DejaVuSans-65" transform="translate(2273.685547 0)"/>
     <use xlink:href="#DejaVuSans-73" transform="translate(2335.208984 0)"/>
     <use xlink:href="#DejaVuSans-29" transform="translate(2387.308594 0)"/>
     <use xlink:href="#DejaVuSans-3b" transform="translate(2426.322266 0)"/>
     <use xlink:href="#DejaVuSans-20" transform="translate(2460.013672 0)"/>
     <use xlink:href="#DejaVuSans-77" transform="translate(2491.800781 0)"/>
     <use xlink:href="#DejaVuSans-65" transform="translate(2573.587891 0)"/>
     <use xlink:href="#DejaVuSans-20" transform="translate(2635.111328 0)"/>
     <use xlink:href="#DejaVuSans-77" transform="translate(2666.898438 0)"/>
     <use xlink:href="#DejaVuSans-61" transform="translate(2748.685547 0)"/>
     <use xlink:href="#DejaVuSans-6e" transform="translate(2809.964844 0)"/>
     <use xlink:href="#DejaVuSans-74" transform="translate(2873.34375 0)"/>
     <use xlink:href="#DejaVuSans-20" transform="translate(2912.552734 0)"/>
     <use xlink:href="#DejaVuSans-6f" transform="translate(2944.339844 0)"/>
     <use xlink:href="#DejaVuSans-6e" transform="translate(3005.521484 0)"/>
     <use xlink:href="#DejaVuSans-65" transform="translate(3068.900391 0)"/>
     <use xlink:href="#DejaVuSans-20" transform="translate(3130.423828 0)"/>
     <use xlink:href="#DejaVuSans-66" transform="translate(3162.210938 0)"/>
     <use xlink:href="#DejaVuSans-69" transform="translate(3197.416016 0)"/>
     <use xlink:href="#DejaVuSans-65" transform="translate(3225.199219 0)"/>
     <use xlink:href="#DejaVuSans-6c" transform="translate(3286.722656 0)"/>
     <use xlink:href="#DejaVuSans-64" transform="translate(3314.505859 0)"/>
     <use xlink:href="#DejaVuSans-20" transform="translate(3377.982422 0)"/>
     <use xlink:href="#DejaVuSans-28" transform="translate(3409.769531 0)"/>
     <use xlink:href="#DejaVuSans-74" transform="translate(3448.783203 0)"/>
     <use xlink:href="#DejaVuSans-68" transform="translate(3487.992188 0)"/>
     <use xlink:href="#DejaVuSans-65" transform="translate(3551.371094 0)"/>
     <use xlink:href="#DejaVuSans-20" transform="translate(3612.894531 0)"/>
     <use xlink:href="#DejaVuSans-74" transform="translate(3644.681641 0)"/>
     <use xlink:href="#DejaVuSans-69" transform="translate(3683.890625 0)"/>
     <use xlink:href="#DejaVuSans-6d" transform="translate(3711.673828 0)"/>
     <use xlink:href="#DejaVuSans-65" transform="translate(3809.085938 0)"/>
     <use xlink:href="#DejaVuSans-29" transform="translate(3870.609375 0)"/>
     <use xlink:href="#DejaVuSans-20" transform="translate(3909.623047 0)"/>
     <use xlink:href="#DejaVuSans-66" transform="translate(3941.410156 0)"/>
     <use xlink:href="#DejaVuSans-72" transform="translate(3976.615234 0)"/>
     <use xlink:href="#DejaVuSans-6f" transform="translate(4015.478516 0)"/>
     <use xlink:href="#DejaVuSans-6d" transform="translate(4076.660156 0)"/>
     <use xlink:href="#DejaVuSans-20" transform="translate(4174.072266 0)"/>
     <use xlink:href="#DejaVuSans-65" transform="translate(4205.859375 0)"/>
     <use xlink:href="#DejaVuSans-61" transform="translate(4267.382812 0)"/>
     <use xlink:href="#DejaVuSans-63" transform="translate(4328.662109 0)"/>
     <use xlink:href="#DejaVuSans-68" transform="translate(4383.642578 0)"/>
    </g>
   </g>
   <g id="text_2">
    <!-- SLOW: Python loop, one record at a time -->
    <g style="fill: #b5651d" transform="translate(14.031529 46.929863) scale(0.12 -0.12)">
     <defs>
      <path id="DejaVuSans-Bold-53" d="M 3834 4519 
L 3834 3531 
Q 3450 3703 3084 3790 
Q 2719 3878 2394 3878 
Q 1963 3878 1756 3759 
Q 1550 3641 1550 3391 
Q 1550 3203 1689 3098 
Q 1828 2994 2194 2919 
L 2706 2816 
Q 3484 2659 3812 2340 
Q 4141 2022 4141 1434 
Q 4141 663 3683 286 
Q 3225 -91 2284 -91 
Q 1841 -91 1394 -6 
Q 947 78 500 244 
L 500 1259 
Q 947 1022 1364 901 
Q 1781 781 2169 781 
Q 2563 781 2772 912 
Q 2981 1044 2981 1288 
Q 2981 1506 2839 1625 
Q 2697 1744 2272 1838 
L 1806 1941 
Q 1106 2091 782 2419 
Q 459 2747 459 3303 
Q 459 4000 909 4375 
Q 1359 4750 2203 4750 
Q 2588 4750 2994 4692 
Q 3400 4634 3834 4519 
z
" transform="scale(0.015625)"/>
      <path id="DejaVuSans-Bold-4c" d="M 588 4666 
L 1791 4666 
L 1791 909 
L 3903 909 
L 3903 0 
L 588 0 
L 588 4666 
z
" transform="scale(0.015625)"/>
      <path id="DejaVuSans-Bold-4f" d="M 2719 3878 
Q 2169 3878 1866 3472 
Q 1563 3066 1563 2328 
Q 1563 1594 1866 1187 
Q 2169 781 2719 781 
Q 3272 781 3575 1187 
Q 3878 1594 3878 2328 
Q 3878 3066 3575 3472 
Q 3272 3878 2719 3878 
z
M 2719 4750 
Q 3844 4750 4481 4106 
Q 5119 3463 5119 2328 
Q 5119 1197 4481 553 
Q 3844 -91 2719 -91 
Q 1597 -91 958 553 
Q 319 1197 319 2328 
Q 319 3463 958 4106 
Q 1597 4750 2719 4750 
z
" transform="scale(0.015625)"/>
      <path id="DejaVuSans-Bold-57" d="M 191 4666 
L 1344 4666 
L 2150 1275 
L 2950 4666 
L 4109 4666 
L 4909 1275 
L 5716 4666 
L 6859 4666 
L 5759 0 
L 4372 0 
L 3525 3547 
L 2688 0 
L 1300 0 
L 191 4666 
z
" transform="scale(0.015625)"/>
      <path id="DejaVuSans-Bold-3a" d="M 716 3500 
L 1844 3500 
L 1844 2291 
L 716 2291 
L 716 3500 
z
M 716 1209 
L 1844 1209 
L 1844 0 
L 716 0 
L 716 1209 
z
" transform="scale(0.015625)"/>
      <path id="DejaVuSans-Bold-20" transform="scale(0.015625)"/>
      <path id="DejaVuSans-Bold-50" d="M 588 4666 
L 2584 4666 
Q 3475 4666 3951 4270 
Q 4428 3875 4428 3144 
Q 4428 2409 3951 2014 
Q 3475 1619 2584 1619 
L 1791 1619 
L 1791 0 
L 588 0 
L 588 4666 
z
M 1791 3794 
L 1791 2491 
L 2456 2491 
Q 2806 2491 2997 2661 
Q 3188 2831 3188 3144 
Q 3188 3456 2997 3625 
Q 2806 3794 2456 3794 
L 1791 3794 
z
" transform="scale(0.015625)"/>
      <path id="DejaVuSans-Bold-79" d="M 78 3500 
L 1197 3500 
L 2138 1125 
L 2938 3500 
L 4056 3500 
L 2584 -331 
Q 2363 -916 2067 -1148 
Q 1772 -1381 1288 -1381 
L 641 -1381 
L 641 -647 
L 991 -647 
Q 1275 -647 1404 -556 
Q 1534 -466 1606 -231 
L 1638 -134 
L 78 3500 
z
" transform="scale(0.015625)"/>
      <path id="DejaVuSans-Bold-74" d="M 1759 4494 
L 1759 3500 
L 2913 3500 
L 2913 2700 
L 1759 2700 
L 1759 1216 
Q 1759 972 1856 886 
Q 1953 800 2241 800 
L 2816 800 
L 2816 0 
L 1856 0 
Q 1194 0 917 276 
Q 641 553 641 1216 
L 641 2700 
L 84 2700 
L 84 3500 
L 641 3500 
L 641 4494 
L 1759 4494 
z
" transform="scale(0.015625)"/>
      <path id="DejaVuSans-Bold-68" d="M 4056 2131 
L 4056 0 
L 2931 0 
L 2931 347 
L 2931 1625 
Q 2931 2084 2911 2256 
Q 2891 2428 2841 2509 
Q 2775 2619 2662 2680 
Q 2550 2741 2406 2741 
Q 2056 2741 1856 2470 
Q 1656 2200 1656 1722 
L 1656 0 
L 538 0 
L 538 4863 
L 1656 4863 
L 1656 2988 
Q 1909 3294 2193 3439 
Q 2478 3584 2822 3584 
Q 3428 3584 3742 3212 
Q 4056 2841 4056 2131 
z
" transform="scale(0.015625)"/>
      <path id="DejaVuSans-Bold-6f" d="M 2203 2784 
Q 1831 2784 1636 2517 
Q 1441 2250 1441 1747 
Q 1441 1244 1636 976 
Q 1831 709 2203 709 
Q 2569 709 2762 976 
Q 2956 1244 2956 1747 
Q 2956 2250 2762 2517 
Q 2569 2784 2203 2784 
z
M 2203 3584 
Q 3106 3584 3614 3096 
Q 4122 2609 4122 1747 
Q 4122 884 3614 396 
Q 3106 -91 2203 -91 
Q 1297 -91 786 396 
Q 275 884 275 1747 
Q 275 2609 786 3096 
Q 1297 3584 2203 3584 
z
" transform="scale(0.015625)"/>
      <path id="DejaVuSans-Bold-6e" d="M 4056 2131 
L 4056 0 
L 2931 0 
L 2931 347 
L 2931 1631 
Q 2931 2084 2911 2256 
Q 2891 2428 2841 2509 
Q 2775 2619 2662 2680 
Q 2550 2741 2406 2741 
Q 2056 2741 1856 2470 
Q 1656 2200 1656 1722 
L 1656 0 
L 538 0 
L 538 3500 
L 1656 3500 
L 1656 2988 
Q 1909 3294 2193 3439 
Q 2478 3584 2822 3584 
Q 3428 3584 3742 3212 
Q 4056 2841 4056 2131 
z
" transform="scale(0.015625)"/>
      <path id="DejaVuSans-Bold-6c" d="M 538 4863 
L 1656 4863 
L 1656 0 
L 538 0 
L 538 4863 
z
" transform="scale(0.015625)"/>
      <path id="DejaVuSans-Bold-70" d="M 1656 506 
L 1656 -1331 
L 538 -1331 
L 538 3500 
L 1656 3500 
L 1656 2988 
Q 1888 3294 2169 3439 
Q 2450 3584 2816 3584 
Q 3463 3584 3878 3070 
Q 4294 2556 4294 1747 
Q 4294 938 3878 423 
Q 3463 -91 2816 -91 
Q 2450 -91 2169 54 
Q 1888 200 1656 506 
z
M 2400 2772 
Q 2041 2772 1848 2508 
Q 1656 2244 1656 1747 
Q 1656 1250 1848 986 
Q 2041 722 2400 722 
Q 2759 722 2948 984 
Q 3138 1247 3138 1747 
Q 3138 2247 2948 2509 
Q 2759 2772 2400 2772 
z
" transform="scale(0.015625)"/>
      <path id="DejaVuSans-Bold-2c" d="M 653 1209 
L 1778 1209 
L 1778 256 
L 1006 -909 
L 341 -909 
L 653 256 
L 653 1209 
z
" transform="scale(0.015625)"/>
      <path id="DejaVuSans-Bold-65" d="M 4031 1759 
L 4031 1441 
L 1416 1441 
Q 1456 1047 1700 850 
Q 1944 653 2381 653 
Q 2734 653 3104 758 
Q 3475 863 3866 1075 
L 3866 213 
Q 3469 63 3072 -14 
Q 2675 -91 2278 -91 
Q 1328 -91 801 392 
Q 275 875 275 1747 
Q 275 2603 792 3093 
Q 1309 3584 2216 3584 
Q 3041 3584 3536 3087 
Q 4031 2591 4031 1759 
z
M 2881 2131 
Q 2881 2450 2695 2645 
Q 2509 2841 2209 2841 
Q 1884 2841 1681 2658 
Q 1478 2475 1428 2131 
L 2881 2131 
z
" transform="scale(0.015625)"/>
      <path id="DejaVuSans-Bold-72" d="M 3138 2547 
Q 2991 2616 2845 2648 
Q 2700 2681 2553 2681 
Q 2122 2681 1889 2404 
Q 1656 2128 1656 1613 
L 1656 0 
L 538 0 
L 538 3500 
L 1656 3500 
L 1656 2925 
Q 1872 3269 2151 3426 
Q 2431 3584 2822 3584 
Q 2878 3584 2943 3579 
Q 3009 3575 3134 3559 
L 3138 2547 
z
" transform="scale(0.015625)"/>
      <path id="DejaVuSans-Bold-63" d="M 3366 3391 
L 3366 2478 
Q 3138 2634 2908 2709 
Q 2678 2784 2431 2784 
Q 1963 2784 1702 2511 
Q 1441 2238 1441 1747 
Q 1441 1256 1702 982 
Q 1963 709 2431 709 
Q 2694 709 2930 787 
Q 3166 866 3366 1019 
L 3366 103 
Q 3103 6 2833 -42 
Q 2563 -91 2291 -91 
Q 1344 -91 809 395 
Q 275 881 275 1747 
Q 275 2613 809 3098 
Q 1344 3584 2291 3584 
Q 2566 3584 2833 3536 
Q 3100 3488 3366 3391 
z
" transform="scale(0.015625)"/>
      <path id="DejaVuSans-Bold-64" d="M 2919 2988 
L 2919 4863 
L 4044 4863 
L 4044 0 
L 2919 0 
L 2919 506 
Q 2688 197 2409 53 
Q 2131 -91 1766 -91 
Q 1119 -91 703 423 
Q 288 938 288 1747 
Q 288 2556 703 3070 
Q 1119 3584 1766 3584 
Q 2128 3584 2408 3439 
Q 2688 3294 2919 2988 
z
M 2181 722 
Q 2541 722 2730 984 
Q 2919 1247 2919 1747 
Q 2919 2247 2730 2509 
Q 2541 2772 2181 2772 
Q 1825 2772 1636 2509 
Q 1447 2247 1447 1747 
Q 1447 1247 1636 984 
Q 1825 722 2181 722 
z
" transform="scale(0.015625)"/>
      <path id="DejaVuSans-Bold-61" d="M 2106 1575 
Q 1756 1575 1579 1456 
Q 1403 1338 1403 1106 
Q 1403 894 1545 773 
Q 1688 653 1941 653 
Q 2256 653 2472 879 
Q 2688 1106 2688 1447 
L 2688 1575 
L 2106 1575 
z
M 3816 1997 
L 3816 0 
L 2688 0 
L 2688 519 
Q 2463 200 2181 54 
Q 1900 -91 1497 -91 
Q 953 -91 614 226 
Q 275 544 275 1050 
Q 275 1666 698 1953 
Q 1122 2241 2028 2241 
L 2688 2241 
L 2688 2328 
Q 2688 2594 2478 2717 
Q 2269 2841 1825 2841 
Q 1466 2841 1156 2769 
Q 847 2697 581 2553 
L 581 3406 
Q 941 3494 1303 3539 
Q 1666 3584 2028 3584 
Q 2975 3584 3395 3211 
Q 3816 2838 3816 1997 
z
" transform="scale(0.015625)"/>
      <path id="DejaVuSans-Bold-69" d="M 538 3500 
L 1656 3500 
L 1656 0 
L 538 0 
L 538 3500 
z
M 538 4863 
L 1656 4863 
L 1656 3950 
L 538 3950 
L 538 4863 
z
" transform="scale(0.015625)"/>
      <path id="DejaVuSans-Bold-6d" d="M 3781 2919 
Q 3994 3244 4286 3414 
Q 4578 3584 4928 3584 
Q 5531 3584 5847 3212 
Q 6163 2841 6163 2131 
L 6163 0 
L 5038 0 
L 5038 1825 
Q 5041 1866 5042 1909 
Q 5044 1953 5044 2034 
Q 5044 2406 4934 2573 
Q 4825 2741 4581 2741 
Q 4263 2741 4089 2478 
Q 3916 2216 3909 1719 
L 3909 0 
L 2784 0 
L 2784 1825 
Q 2784 2406 2684 2573 
Q 2584 2741 2328 2741 
Q 2006 2741 1831 2477 
Q 1656 2213 1656 1722 
L 1656 0 
L 531 0 
L 531 3500 
L 1656 3500 
L 1656 2988 
Q 1863 3284 2130 3434 
Q 2397 3584 2719 3584 
Q 3081 3584 3359 3409 
Q 3638 3234 3781 2919 
z
" transform="scale(0.015625)"/>
     </defs>
     <use xlink:href="#DejaVuSans-Bold-53"/>
     <use xlink:href="#DejaVuSans-Bold-4c" transform="translate(72.021484 0)"/>
     <use xlink:href="#DejaVuSans-Bold-4f" transform="translate(132.117188 0)"/>
     <use xlink:href="#DejaVuSans-Bold-57" transform="translate(217.126953 0)"/>
     <use xlink:href="#DejaVuSans-Bold-3a" transform="translate(324.304688 0)"/>
     <use xlink:href="#DejaVuSans-Bold-20" transform="translate(364.294922 0)"/>
     <use xlink:href="#DejaVuSans-Bold-50" transform="translate(399.109375 0)"/>
     <use xlink:href="#DejaVuSans-Bold-79" transform="translate(474.275391 0)"/>
     <use xlink:href="#DejaVuSans-Bold-74" transform="translate(539.460938 0)"/>
     <use xlink:href="#DejaVuSans-Bold-68" transform="translate(587.263672 0)"/>
     <use xlink:href="#DejaVuSans-Bold-6f" transform="translate(658.455078 0)"/>
     <use xlink:href="#DejaVuSans-Bold-6e" transform="translate(727.15625 0)"/>
     <use xlink:href="#DejaVuSans-Bold-20" transform="translate(798.347656 0)"/>
     <use xlink:href="#DejaVuSans-Bold-6c" transform="translate(833.162109 0)"/>
     <use xlink:href="#DejaVuSans-Bold-6f" transform="translate(867.439453 0)"/>
     <use xlink:href="#DejaVuSans-Bold-6f" transform="translate(936.140625 0)"/>
     <use xlink:href="#DejaVuSans-Bold-70" transform="translate(1004.841797 0)"/>
     <use xlink:href="#DejaVuSans-Bold-2c" transform="translate(1076.423828 0)"/>
     <use xlink:href="#DejaVuSans-Bold-20" transform="translate(1114.412109 0)"/>
     <use xlink:href="#DejaVuSans-Bold-6f" transform="translate(1149.226562 0)"/>
     <use xlink:href="#DejaVuSans-Bold-6e" transform="translate(1217.927734 0)"/>
     <use xlink:href="#DejaVuSans-Bold-65" transform="translate(1289.119141 0)"/>
     <use xlink:href="#DejaVuSans-Bold-20" transform="translate(1356.941406 0)"/>
     <use xlink:href="#DejaVuSans-Bold-72" transform="translate(1391.755859 0)"/>
     <use xlink:href="#DejaVuSans-Bold-65" transform="translate(1441.072266 0)"/>
     <use xlink:href="#DejaVuSans-Bold-63" transform="translate(1508.894531 0)"/>
     <use xlink:href="#DejaVuSans-Bold-6f" transform="translate(1568.171875 0)"/>
     <use xlink:href="#DejaVuSans-Bold-72" transform="translate(1636.873047 0)"/>
     <use xlink:href="#DejaVuSans-Bold-64" transform="translate(1686.189453 0)"/>
     <use xlink:href="#DejaVuSans-Bold-20" transform="translate(1757.771484 0)"/>
     <use xlink:href="#DejaVuSans-Bold-61" transform="translate(1792.585938 0)"/>
     <use xlink:href="#DejaVuSans-Bold-74" transform="translate(1860.066406 0)"/>
     <use xlink:href="#DejaVuSans-Bold-20" transform="translate(1907.869141 0)"/>
     <use xlink:href="#DejaVuSans-Bold-61" transform="translate(1942.683594 0)"/>
     <use xlink:href="#DejaVuSans-Bold-20" transform="translate(2010.164062 0)"/>
     <use xlink:href="#DejaVuSans-Bold-74" transform="translate(2044.978516 0)"/>
     <use xlink:href="#DejaVuSans-Bold-69" transform="translate(2092.78125 0)"/>
     <use xlink:href="#DejaVuSans-Bold-6d" transform="translate(2127.058594 0)"/>
     <use xlink:href="#DejaVuSans-Bold-65" transform="translate(2231.257812 0)"/>
    </g>
   </g>
   <g id="text_3">
    <!-- ... -->
    <g style="fill: #aaaaaa" transform="translate(27.305031 76.633026) scale(0.1056 -0.1056)">
     <use xlink:href="#DejaVuSans-2e"/>
     <use xlink:href="#DejaVuSans-2e" transform="translate(31.787109 0)"/>
     <use xlink:href="#DejaVuSans-2e" transform="translate(63.574219 0)"/>
    </g>
   </g>
   <g id="text_4">
    <!-- time0 -->
    <g style="fill: #2f3338" transform="translate(45.282691 76.147376) scale(0.088 -0.088)">
     <defs>
      <path id="DejaVuSans-Bold-30" d="M 2944 2338 
Q 2944 3213 2780 3570 
Q 2616 3928 2228 3928 
Q 1841 3928 1675 3570 
Q 1509 3213 1509 2338 
Q 1509 1453 1675 1090 
Q 1841 728 2228 728 
Q 2613 728 2778 1090 
Q 2944 1453 2944 2338 
z
M 4147 2328 
Q 4147 1169 3647 539 
Q 3147 -91 2228 -91 
Q 1306 -91 806 539 
Q 306 1169 306 2328 
Q 306 3491 806 4120 
Q 1306 4750 2228 4750 
Q 3147 4750 3647 4120 
Q 4147 3491 4147 2328 
z
" transform="scale(0.015625)"/>
     </defs>
     <use xlink:href="#DejaVuSans-Bold-74"/>
     <use xlink:href="#DejaVuSans-Bold-69" transform="translate(47.802734 0)"/>
     <use xlink:href="#DejaVuSans-Bold-6d" transform="translate(82.080078 0)"/>
     <use xlink:href="#DejaVuSans-Bold-65" transform="translate(186.279297 0)"/>
     <use xlink:href="#DejaVuSans-Bold-30" transform="translate(254.101562 0)"/>
    </g>
   </g>
   <g id="text_5">
    <!-- ... -->
    <g style="fill: #aaaaaa" transform="translate(81.676551 76.633026) scale(0.1056 -0.1056)">
     <use xlink:href="#DejaVuSans-2e"/>
     <use xlink:href="#DejaVuSans-2e" transform="translate(31.787109 0)"/>
     <use xlink:href="#DejaVuSans-2e" transform="translate(63.574219 0)"/>
    </g>
   </g>
   <g id="text_6">
    <!-- time0 -->
    <g style="fill: #2f3338" transform="translate(45.282691 115.677385) scale(0.088 -0.088)">
     <use xlink:href="#DejaVuSans-Bold-74"/>
     <use xlink:href="#DejaVuSans-Bold-69" transform="translate(47.802734 0)"/>
     <use xlink:href="#DejaVuSans-Bold-6d" transform="translate(82.080078 0)"/>
     <use xlink:href="#DejaVuSans-Bold-65" transform="translate(186.279297 0)"/>
     <use xlink:href="#DejaVuSans-Bold-30" transform="translate(254.101562 0)"/>
    </g>
   </g>
   <g id="text_7">
    <!-- step 1 -->
    <g style="fill: #b5651d" transform="translate(67.796471 96.912613) scale(0.085 -0.085)">
     <defs>
      <path id="DejaVuSans-70" d="M 1159 525 
L 1159 -1331 
L 581 -1331 
L 581 3500 
L 1159 3500 
L 1159 2969 
Q 1341 3281 1617 3432 
Q 1894 3584 2278 3584 
Q 2916 3584 3314 3078 
Q 3713 2572 3713 1747 
Q 3713 922 3314 415 
Q 2916 -91 2278 -91 
Q 1894 -91 1617 61 
Q 1341 213 1159 525 
z
M 3116 1747 
Q 3116 2381 2855 2742 
Q 2594 3103 2138 3103 
Q 1681 3103 1420 2742 
Q 1159 2381 1159 1747 
Q 1159 1113 1420 752 
Q 1681 391 2138 391 
Q 2594 391 2855 752 
Q 3116 1113 3116 1747 
z
" transform="scale(0.015625)"/>
      <path id="DejaVuSans-31" d="M 794 531 
L 1825 531 
L 1825 4091 
L 703 3866 
L 703 4441 
L 1819 4666 
L 2450 4666 
L 2450 531 
L 3481 531 
L 3481 0 
L 794 0 
L 794 531 
z
" transform="scale(0.015625)"/>
     </defs>
     <use xlink:href="#DejaVuSans-73"/>
     <use xlink:href="#DejaVuSans-74" transform="translate(52.099609 0)"/>
     <use xlink:href="#DejaVuSans-65" transform="translate(91.308594 0)"/>
     <use xlink:href="#DejaVuSans-70" transform="translate(152.832031 0)"/>
     <use xlink:href="#DejaVuSans-20" transform="translate(216.308594 0)"/>
     <use xlink:href="#DejaVuSans-31" transform="translate(248.095703 0)"/>
    </g>
   </g>
   <g id="text_8">
    <!-- ... -->
    <g style="fill: #aaaaaa" transform="translate(118.291855 76.633026) scale(0.1056 -0.1056)">
     <use xlink:href="#DejaVuSans-2e"/>
     <use xlink:href="#DejaVuSans-2e" transform="translate(31.787109 0)"/>
     <use xlink:href="#DejaVuSans-2e" transform="translate(63.574219 0)"/>
    </g>
   </g>
   <g id="text_9">
    <!-- time1 -->
    <g style="fill: #2f3338" transform="translate(136.269515 76.147376) scale(0.088 -0.088)">
     <defs>
      <path id="DejaVuSans-Bold-31" d="M 750 831 
L 1813 831 
L 1813 3847 
L 722 3622 
L 722 4441 
L 1806 4666 
L 2950 4666 
L 2950 831 
L 4013 831 
L 4013 0 
L 750 0 
L 750 831 
z
" transform="scale(0.015625)"/>
     </defs>
     <use xlink:href="#DejaVuSans-Bold-74"/>
     <use xlink:href="#DejaVuSans-Bold-69" transform="translate(47.802734 0)"/>
     <use xlink:href="#DejaVuSans-Bold-6d" transform="translate(82.080078 0)"/>
     <use xlink:href="#DejaVuSans-Bold-65" transform="translate(186.279297 0)"/>
     <use xlink:href="#DejaVuSans-Bold-31" transform="translate(254.101562 0)"/>
    </g>
   </g>
   <g id="text_10">
    <!-- ... -->
    <g style="fill: #aaaaaa" transform="translate(172.663375 76.633026) scale(0.1056 -0.1056)">
     <use xlink:href="#DejaVuSans-2e"/>
     <use xlink:href="#DejaVuSans-2e" transform="translate(31.787109 0)"/>
     <use xlink:href="#DejaVuSans-2e" transform="translate(63.574219 0)"/>
    </g>
   </g>
   <g id="text_11">
    <!-- time1 -->
    <g style="fill: #2f3338" transform="translate(136.269515 115.677385) scale(0.088 -0.088)">
     <use xlink:href="#DejaVuSans-Bold-74"/>
     <use xlink:href="#DejaVuSans-Bold-69" transform="translate(47.802734 0)"/>
     <use xlink:href="#DejaVuSans-Bold-6d" transform="translate(82.080078 0)"/>
     <use xlink:href="#DejaVuSans-Bold-65" transform="translate(186.279297 0)"/>
     <use xlink:href="#DejaVuSans-Bold-31" transform="translate(254.101562 0)"/>
    </g>
   </g>
   <g id="text_12">
    <!-- step 2 -->
    <g style="fill: #b5651d" transform="translate(158.783294 96.912613) scale(0.085 -0.085)">
     <defs>
      <path id="DejaVuSans-32" d="M 1228 531 
L 3431 531 
L 3431 0 
L 469 0 
L 469 531 
Q 828 903 1448 1529 
Q 2069 2156 2228 2338 
Q 2531 2678 2651 2914 
Q 2772 3150 2772 3378 
Q 2772 3750 2511 3984 
Q 2250 4219 1831 4219 
Q 1534 4219 1204 4116 
Q 875 4013 500 3803 
L 500 4441 
Q 881 4594 1212 4672 
Q 1544 4750 1819 4750 
Q 2544 4750 2975 4387 
Q 3406 4025 3406 3419 
Q 3406 3131 3298 2873 
Q 3191 2616 2906 2266 
Q 2828 2175 2409 1742 
Q 1991 1309 1228 531 
z
" transform="scale(0.015625)"/>
     </defs>
     <use xlink:href="#DejaVuSans-73"/>
     <use xlink:href="#DejaVuSans-74" transform="translate(52.099609 0)"/>
     <use xlink:href="#DejaVuSans-65" transform="translate(91.308594 0)"/>
     <use xlink:href="#DejaVuSans-70" transform="translate(152.832031 0)"/>
     <use xlink:href="#DejaVuSans-20" transform="translate(216.308594 0)"/>
     <use xlink:href="#DejaVuSans-32" transform="translate(248.095703 0)"/>
    </g>
   </g>
   <g id="text_13">
    <!-- ... -->
    <g style="fill: #aaaaaa" transform="translate(209.278678 76.633026) scale(0.1056 -0.1056)">
     <use xlink:href="#DejaVuSans-2e"/>
     <use xlink:href="#DejaVuSans-2e" transform="translate(31.787109 0)"/>
     <use xlink:href="#DejaVuSans-2e" transform="translate(63.574219 0)"/>
    </g>
   </g>
   <g id="text_14">
    <!-- time2 -->
    <g style="fill: #2f3338" transform="translate(227.256338 76.147376) scale(0.088 -0.088)">
     <defs>
      <path id="DejaVuSans-Bold-32" d="M 1844 884 
L 3897 884 
L 3897 0 
L 506 0 
L 506 884 
L 2209 2388 
Q 2438 2594 2547 2791 
Q 2656 2988 2656 3200 
Q 2656 3528 2436 3728 
Q 2216 3928 1850 3928 
Q 1569 3928 1234 3808 
Q 900 3688 519 3450 
L 519 4475 
Q 925 4609 1322 4679 
Q 1719 4750 2100 4750 
Q 2938 4750 3402 4381 
Q 3866 4013 3866 3353 
Q 3866 2972 3669 2642 
Q 3472 2313 2841 1759 
L 1844 884 
z
" transform="scale(0.015625)"/>
     </defs>
     <use xlink:href="#DejaVuSans-Bold-74"/>
     <use xlink:href="#DejaVuSans-Bold-69" transform="translate(47.802734 0)"/>
     <use xlink:href="#DejaVuSans-Bold-6d" transform="translate(82.080078 0)"/>
     <use xlink:href="#DejaVuSans-Bold-65" transform="translate(186.279297 0)"/>
     <use xlink:href="#DejaVuSans-Bold-32" transform="translate(254.101562 0)"/>
    </g>
   </g>
   <g id="text_15">
    <!-- ... -->
    <g style="fill: #aaaaaa" transform="translate(263.650198 76.633026) scale(0.1056 -0.1056)">
     <use xlink:href="#DejaVuSans-2e"/>
     <use xlink:href="#DejaVuSans-2e" transform="translate(31.787109 0)"/>
     <use xlink:href="#DejaVuSans-2e" transform="translate(63.574219 0)"/>
    </g>
   </g>
   <g id="text_16">
    <!-- time2 -->
    <g style="fill: #2f3338" transform="translate(227.256338 115.677385) scale(0.088 -0.088)">
     <use xlink:href="#DejaVuSans-Bold-74"/>
     <use xlink:href="#DejaVuSans-Bold-69" transform="translate(47.802734 0)"/>
     <use xlink:href="#DejaVuSans-Bold-6d" transform="translate(82.080078 0)"/>
     <use xlink:href="#DejaVuSans-Bold-65" transform="translate(186.279297 0)"/>
     <use xlink:href="#DejaVuSans-Bold-32" transform="translate(254.101562 0)"/>
    </g>
   </g>
   <g id="text_17">
    <!-- step 3 -->
    <g style="fill: #b5651d" transform="translate(249.770118 96.912613) scale(0.085 -0.085)">
     <defs>
      <path id="DejaVuSans-33" d="M 2597 2516 
Q 3050 2419 3304 2112 
Q 3559 1806 3559 1356 
Q 3559 666 3084 287 
Q 2609 -91 1734 -91 
Q 1441 -91 1130 -33 
Q 819 25 488 141 
L 488 750 
Q 750 597 1062 519 
Q 1375 441 1716 441 
Q 2309 441 2620 675 
Q 2931 909 2931 1356 
Q 2931 1769 2642 2001 
Q 2353 2234 1838 2234 
L 1294 2234 
L 1294 2753 
L 1863 2753 
Q 2328 2753 2575 2939 
Q 2822 3125 2822 3475 
Q 2822 3834 2567 4026 
Q 2313 4219 1838 4219 
Q 1578 4219 1281 4162 
Q 984 4106 628 3988 
L 628 4550 
Q 988 4650 1302 4700 
Q 1616 4750 1894 4750 
Q 2613 4750 3031 4423 
Q 3450 4097 3450 3541 
Q 3450 3153 3228 2886 
Q 3006 2619 2597 2516 
z
" transform="scale(0.015625)"/>
     </defs>
     <use xlink:href="#DejaVuSans-73"/>
     <use xlink:href="#DejaVuSans-74" transform="translate(52.099609 0)"/>
     <use xlink:href="#DejaVuSans-65" transform="translate(91.308594 0)"/>
     <use xlink:href="#DejaVuSans-70" transform="translate(152.832031 0)"/>
     <use xlink:href="#DejaVuSans-20" transform="translate(216.308594 0)"/>
     <use xlink:href="#DejaVuSans-33" transform="translate(248.095703 0)"/>
    </g>
   </g>
   <g id="text_18">
    <!-- append one at a time -->
    <g style="fill: #888888" transform="translate(314.563765 116.279263) scale(0.1 -0.1)">
     <use xlink:href="#DejaVuSans-61"/>
     <use xlink:href="#DejaVuSans-70" transform="translate(61.279297 0)"/>
     <use xlink:href="#DejaVuSans-70" transform="translate(124.755859 0)"/>
     <use xlink:href="#DejaVuSans-65" transform="translate(188.232422 0)"/>
     <use xlink:href="#DejaVuSans-6e" transform="translate(249.755859 0)"/>
     <use xlink:href="#DejaVuSans-64" transform="translate(313.134766 0)"/>
     <use xlink:href="#DejaVuSans-20" transform="translate(376.611328 0)"/>
     <use xlink:href="#DejaVuSans-6f" transform="translate(408.398438 0)"/>
     <use xlink:href="#DejaVuSans-6e" transform="translate(469.580078 0)"/>
     <use xlink:href="#DejaVuSans-65" transform="translate(532.958984 0)"/>
     <use xlink:href="#DejaVuSans-20" transform="translate(594.482422 0)"/>
     <use xlink:href="#DejaVuSans-61" transform="translate(626.269531 0)"/>
     <use xlink:href="#DejaVuSans-74" transform="translate(687.548828 0)"/>
     <use xlink:href="#DejaVuSans-20" transform="translate(726.757812 0)"/>
     <use xlink:href="#DejaVuSans-61" transform="translate(758.544922 0)"/>
     <use xlink:href="#DejaVuSans-20" transform="translate(819.824219 0)"/>
     <use xlink:href="#DejaVuSans-74" transform="translate(851.611328 0)"/>
     <use xlink:href="#DejaVuSans-69" transform="translate(890.820312 0)"/>
     <use xlink:href="#DejaVuSans-6d" transform="translate(918.603516 0)"/>
     <use xlink:href="#DejaVuSans-65" transform="translate(1016.015625 0)"/>
    </g>
   </g>
   <g id="text_19">
    <!-- FAST: one strided NumPy view over the whole buffer -->
    <g style="fill: #3f7d4f" transform="translate(14.031529 149.816189) scale(0.12 -0.12)">
     <defs>
      <path id="DejaVuSans-Bold-46" d="M 588 4666 
L 3834 4666 
L 3834 3756 
L 1791 3756 
L 1791 2888 
L 3713 2888 
L 3713 1978 
L 1791 1978 
L 1791 0 
L 588 0 
L 588 4666 
z
" transform="scale(0.015625)"/>
      <path id="DejaVuSans-Bold-41" d="M 3419 850 
L 1538 850 
L 1241 0 
L 31 0 
L 1759 4666 
L 3194 4666 
L 4922 0 
L 3713 0 
L 3419 850 
z
M 1838 1716 
L 3116 1716 
L 2478 3572 
L 1838 1716 
z
" transform="scale(0.015625)"/>
      <path id="DejaVuSans-Bold-54" d="M 31 4666 
L 4331 4666 
L 4331 3756 
L 2784 3756 
L 2784 0 
L 1581 0 
L 1581 3756 
L 31 3756 
L 31 4666 
z
" transform="scale(0.015625)"/>
      <path id="DejaVuSans-Bold-73" d="M 3272 3391 
L 3272 2541 
Q 2913 2691 2578 2766 
Q 2244 2841 1947 2841 
Q 1628 2841 1473 2761 
Q 1319 2681 1319 2516 
Q 1319 2381 1436 2309 
Q 1553 2238 1856 2203 
L 2053 2175 
Q 2913 2066 3209 1816 
Q 3506 1566 3506 1031 
Q 3506 472 3093 190 
Q 2681 -91 1863 -91 
Q 1516 -91 1145 -36 
Q 775 19 384 128 
L 384 978 
Q 719 816 1070 734 
Q 1422 653 1784 653 
Q 2113 653 2278 743 
Q 2444 834 2444 1013 
Q 2444 1163 2330 1236 
Q 2216 1309 1875 1350 
L 1678 1375 
Q 931 1469 631 1722 
Q 331 1975 331 2491 
Q 331 3047 712 3315 
Q 1094 3584 1881 3584 
Q 2191 3584 2531 3537 
Q 2872 3491 3272 3391 
z
" transform="scale(0.015625)"/>
      <path id="DejaVuSans-Bold-4e" d="M 588 4666 
L 1931 4666 
L 3628 1466 
L 3628 4666 
L 4769 4666 
L 4769 0 
L 3425 0 
L 1728 3200 
L 1728 0 
L 588 0 
L 588 4666 
z
" transform="scale(0.015625)"/>
      <path id="DejaVuSans-Bold-75" d="M 500 1363 
L 500 3500 
L 1625 3500 
L 1625 3150 
Q 1625 2866 1622 2436 
Q 1619 2006 1619 1863 
Q 1619 1441 1641 1255 
Q 1663 1069 1716 984 
Q 1784 875 1895 815 
Q 2006 756 2150 756 
Q 2500 756 2700 1025 
Q 2900 1294 2900 1772 
L 2900 3500 
L 4019 3500 
L 4019 0 
L 2900 0 
L 2900 506 
Q 2647 200 2364 54 
Q 2081 -91 1741 -91 
Q 1134 -91 817 281 
Q 500 653 500 1363 
z
" transform="scale(0.015625)"/>
      <path id="DejaVuSans-Bold-76" d="M 97 3500 
L 1216 3500 
L 2088 1081 
L 2956 3500 
L 4078 3500 
L 2700 0 
L 1472 0 
L 97 3500 
z
" transform="scale(0.015625)"/>
      <path id="DejaVuSans-Bold-77" d="M 225 3500 
L 1313 3500 
L 1900 1088 
L 2491 3500 
L 3425 3500 
L 4013 1113 
L 4603 3500 
L 5691 3500 
L 4769 0 
L 3547 0 
L 2956 2406 
L 2369 0 
L 1147 0 
L 225 3500 
z
" transform="scale(0.015625)"/>
      <path id="DejaVuSans-Bold-62" d="M 2400 722 
Q 2759 722 2948 984 
Q 3138 1247 3138 1747 
Q 3138 2247 2948 2509 
Q 2759 2772 2400 2772 
Q 2041 2772 1848 2508 
Q 1656 2244 1656 1747 
Q 1656 1250 1848 986 
Q 2041 722 2400 722 
z
M 1656 2988 
Q 1888 3294 2169 3439 
Q 2450 3584 2816 3584 
Q 3463 3584 3878 3070 
Q 4294 2556 4294 1747 
Q 4294 938 3878 423 
Q 3463 -91 2816 -91 
Q 2450 -91 2169 54 
Q 1888 200 1656 506 
L 1656 0 
L 538 0 
L 538 4863 
L 1656 4863 
L 1656 2988 
z
" transform="scale(0.015625)"/>
      <path id="DejaVuSans-Bold-66" d="M 2841 4863 
L 2841 4128 
L 2222 4128 
Q 1984 4128 1890 4042 
Q 1797 3956 1797 3744 
L 1797 3500 
L 2753 3500 
L 2753 2700 
L 1797 2700 
L 1797 0 
L 678 0 
L 678 2700 
L 122 2700 
L 122 3500 
L 678 3500 
L 678 3744 
Q 678 4316 997 4589 
Q 1316 4863 1984 4863 
L 2841 4863 
z
" transform="scale(0.015625)"/>
     </defs>
     <use xlink:href="#DejaVuSans-Bold-46"/>
     <use xlink:href="#DejaVuSans-Bold-41" transform="translate(56.810547 0)"/>
     <use xlink:href="#DejaVuSans-Bold-53" transform="translate(134.203125 0)"/>
     <use xlink:href="#DejaVuSans-Bold-54" transform="translate(206.224609 0)"/>
     <use xlink:href="#DejaVuSans-Bold-3a" transform="translate(268.9375 0)"/>
     <use xlink:href="#DejaVuSans-Bold-20" transform="translate(308.927734 0)"/>
     <use xlink:href="#DejaVuSans-Bold-6f" transform="translate(343.742188 0)"/>
     <use xlink:href="#DejaVuSans-Bold-6e" transform="translate(412.443359 0)"/>
     <use xlink:href="#DejaVuSans-Bold-65" transform="translate(483.634766 0)"/>
     <use xlink:href="#DejaVuSans-Bold-20" transform="translate(551.457031 0)"/>
     <use xlink:href="#DejaVuSans-Bold-73" transform="translate(586.271484 0)"/>
     <use xlink:href="#DejaVuSans-Bold-74" transform="translate(645.792969 0)"/>
     <use xlink:href="#DejaVuSans-Bold-72" transform="translate(693.595703 0)"/>
     <use xlink:href="#DejaVuSans-Bold-69" transform="translate(742.912109 0)"/>
     <use xlink:href="#DejaVuSans-Bold-64" transform="translate(777.189453 0)"/>
     <use xlink:href="#DejaVuSans-Bold-65" transform="translate(848.771484 0)"/>
     <use xlink:href="#DejaVuSans-Bold-64" transform="translate(916.59375 0)"/>
     <use xlink:href="#DejaVuSans-Bold-20" transform="translate(988.175781 0)"/>
     <use xlink:href="#DejaVuSans-Bold-4e" transform="translate(1022.990234 0)"/>
     <use xlink:href="#DejaVuSans-Bold-75" transform="translate(1106.681641 0)"/>
     <use xlink:href="#DejaVuSans-Bold-6d" transform="translate(1177.873047 0)"/>
     <use xlink:href="#DejaVuSans-Bold-50" transform="translate(1282.072266 0)"/>
     <use xlink:href="#DejaVuSans-Bold-79" transform="translate(1357.238281 0)"/>
     <use xlink:href="#DejaVuSans-Bold-20" transform="translate(1422.423828 0)"/>
     <use xlink:href="#DejaVuSans-Bold-76" transform="translate(1457.238281 0)"/>
     <use xlink:href="#DejaVuSans-Bold-69" transform="translate(1522.423828 0)"/>
     <use xlink:href="#DejaVuSans-Bold-65" transform="translate(1556.701172 0)"/>
     <use xlink:href="#DejaVuSans-Bold-77" transform="translate(1624.523438 0)"/>
     <use xlink:href="#DejaVuSans-Bold-20" transform="translate(1716.90625 0)"/>
     <use xlink:href="#DejaVuSans-Bold-6f" transform="translate(1751.720703 0)"/>
     <use xlink:href="#DejaVuSans-Bold-76" transform="translate(1820.421875 0)"/>
     <use xlink:href="#DejaVuSans-Bold-65" transform="translate(1885.607422 0)"/>
     <use xlink:href="#DejaVuSans-Bold-72" transform="translate(1953.429688 0)"/>
     <use xlink:href="#DejaVuSans-Bold-20" transform="translate(2002.746094 0)"/>
     <use xlink:href="#DejaVuSans-Bold-74" transform="translate(2037.560547 0)"/>
     <use xlink:href="#DejaVuSans-Bold-68" transform="translate(2085.363281 0)"/>
     <use xlink:href="#DejaVuSans-Bold-65" transform="translate(2156.554688 0)"/>
     <use xlink:href="#DejaVuSans-Bold-20" transform="translate(2224.376953 0)"/>
     <use xlink:href="#DejaVuSans-Bold-77" transform="translate(2259.191406 0)"/>
     <use xlink:href="#DejaVuSans-Bold-68" transform="translate(2351.574219 0)"/>
     <use xlink:href="#DejaVuSans-Bold-6f" transform="translate(2422.765625 0)"/>
     <use xlink:href="#DejaVuSans-Bold-6c" transform="translate(2491.466797 0)"/>
     <use xlink:href="#DejaVuSans-Bold-65" transform="translate(2525.744141 0)"/>
     <use xlink:href="#DejaVuSans-Bold-20" transform="translate(2593.566406 0)"/>
     <use xlink:href="#DejaVuSans-Bold-62" transform="translate(2628.380859 0)"/>
     <use xlink:href="#DejaVuSans-Bold-75" transform="translate(2699.962891 0)"/>
     <use xlink:href="#DejaVuSans-Bold-66" transform="translate(2771.154297 0)"/>
     <use xlink:href="#DejaVuSans-Bold-66" transform="translate(2814.660156 0)"/>
     <use xlink:href="#DejaVuSans-Bold-65" transform="translate(2858.166016 0)"/>
     <use xlink:href="#DejaVuSans-Bold-72" transform="translate(2925.988281 0)"/>
    </g>
   </g>
   <g id="text_20">
    <!-- ... -->
    <g style="fill: #aaaaaa" transform="translate(27.305031 179.519351) scale(0.1056 -0.1056)">
     <use xlink:href="#DejaVuSans-2e"/>
     <use xlink:href="#DejaVuSans-2e" transform="translate(31.787109 0)"/>
     <use xlink:href="#DejaVuSans-2e" transform="translate(63.574219 0)"/>
    </g>
   </g>
   <g id="text_21">
    <!-- time0 -->
    <g style="fill: #2f3338" transform="translate(45.282691 179.033701) scale(0.088 -0.088)">
     <use xlink:href="#DejaVuSans-Bold-74"/>
     <use xlink:href="#DejaVuSans-Bold-69" transform="translate(47.802734 0)"/>
     <use xlink:href="#DejaVuSans-Bold-6d" transform="translate(82.080078 0)"/>
     <use xlink:href="#DejaVuSans-Bold-65" transform="translate(186.279297 0)"/>
     <use xlink:href="#DejaVuSans-Bold-30" transform="translate(254.101562 0)"/>
    </g>
   </g>
   <g id="text_22">
    <!-- ... -->
    <g style="fill: #aaaaaa" transform="translate(81.676551 179.519351) scale(0.1056 -0.1056)">
     <use xlink:href="#DejaVuSans-2e"/>
     <use xlink:href="#DejaVuSans-2e" transform="translate(31.787109 0)"/>
     <use xlink:href="#DejaVuSans-2e" transform="translate(63.574219 0)"/>
    </g>
   </g>
   <g id="text_23">
    <!-- ... -->
    <g style="fill: #aaaaaa" transform="translate(118.291855 179.519351) scale(0.1056 -0.1056)">
     <use xlink:href="#DejaVuSans-2e"/>
     <use xlink:href="#DejaVuSans-2e" transform="translate(31.787109 0)"/>
     <use xlink:href="#DejaVuSans-2e" transform="translate(63.574219 0)"/>
    </g>
   </g>
   <g id="text_24">
    <!-- time1 -->
    <g style="fill: #2f3338" transform="translate(136.269515 179.033701) scale(0.088 -0.088)">
     <use xlink:href="#DejaVuSans-Bold-74"/>
     <use xlink:href="#DejaVuSans-Bold-69" transform="translate(47.802734 0)"/>
     <use xlink:href="#DejaVuSans-Bold-6d" transform="translate(82.080078 0)"/>
     <use xlink:href="#DejaVuSans-Bold-65" transform="translate(186.279297 0)"/>
     <use xlink:href="#DejaVuSans-Bold-31" transform="translate(254.101562 0)"/>
    </g>
   </g>
   <g id="text_25">
    <!-- ... -->
    <g style="fill: #aaaaaa" transform="translate(172.663375 179.519351) scale(0.1056 -0.1056)">
     <use xlink:href="#DejaVuSans-2e"/>
     <use xlink:href="#DejaVuSans-2e" transform="translate(31.787109 0)"/>
     <use xlink:href="#DejaVuSans-2e" transform="translate(63.574219 0)"/>
    </g>
   </g>
   <g id="text_26">
    <!-- ... -->
    <g style="fill: #aaaaaa" transform="translate(209.278678 179.519351) scale(0.1056 -0.1056)">
     <use xlink:href="#DejaVuSans-2e"/>
     <use xlink:href="#DejaVuSans-2e" transform="translate(31.787109 0)"/>
     <use xlink:href="#DejaVuSans-2e" transform="translate(63.574219 0)"/>
    </g>
   </g>
   <g id="text_27">
    <!-- time2 -->
    <g style="fill: #2f3338" transform="translate(227.256338 179.033701) scale(0.088 -0.088)">
     <use xlink:href="#DejaVuSans-Bold-74"/>
     <use xlink:href="#DejaVuSans-Bold-69" transform="translate(47.802734 0)"/>
     <use xlink:href="#DejaVuSans-Bold-6d" transform="translate(82.080078 0)"/>
     <use xlink:href="#DejaVuSans-Bold-65" transform="translate(186.279297 0)"/>
     <use xlink:href="#DejaVuSans-Bold-32" transform="translate(254.101562 0)"/>
    </g>
   </g>
   <g id="text_28">
    <!-- ... -->
    <g style="fill: #aaaaaa" transform="translate(263.650198 179.519351) scale(0.1056 -0.1056)">
     <use xlink:href="#DejaVuSans-2e"/>
     <use xlink:href="#DejaVuSans-2e" transform="translate(31.787109 0)"/>
     <use xlink:href="#DejaVuSans-2e" transform="translate(63.574219 0)"/>
    </g>
   </g>
   <g id="text_29">
    <!-- time0 -->
    <g style="fill: #2f3338" transform="translate(314.107397 179.033701) scale(0.088 -0.088)">
     <use xlink:href="#DejaVuSans-Bold-74"/>
     <use xlink:href="#DejaVuSans-Bold-69" transform="translate(47.802734 0)"/>
     <use xlink:href="#DejaVuSans-Bold-6d" transform="translate(82.080078 0)"/>
     <use xlink:href="#DejaVuSans-Bold-65" transform="translate(186.279297 0)"/>
     <use xlink:href="#DejaVuSans-Bold-30" transform="translate(254.101562 0)"/>
    </g>
   </g>
   <g id="text_30">
    <!-- time1 -->
    <g style="fill: #2f3338" transform="translate(355.465044 179.033701) scale(0.088 -0.088)">
     <use xlink:href="#DejaVuSans-Bold-74"/>
     <use xlink:href="#DejaVuSans-Bold-69" transform="translate(47.802734 0)"/>
     <use xlink:href="#DejaVuSans-Bold-6d" transform="translate(82.080078 0)"/>
     <use xlink:href="#DejaVuSans-Bold-65" transform="translate(186.279297 0)"/>
     <use xlink:href="#DejaVuSans-Bold-31" transform="translate(254.101562 0)"/>
    </g>
   </g>
   <g id="text_31">
    <!-- time2 -->
    <g style="fill: #2f3338" transform="translate(396.822691 179.033701) scale(0.088 -0.088)">
     <use xlink:href="#DejaVuSans-Bold-74"/>
     <use xlink:href="#DejaVuSans-Bold-69" transform="translate(47.802734 0)"/>
     <use xlink:href="#DejaVuSans-Bold-6d" transform="translate(82.080078 0)"/>
     <use xlink:href="#DejaVuSans-Bold-65" transform="translate(186.279297 0)"/>
     <use xlink:href="#DejaVuSans-Bold-32" transform="translate(254.101562 0)"/>
    </g>
   </g>
   <g id="text_32">
    <!-- np.ndarray(n, '&lt;u4', buf, offset=4, strides=22) -->
    <g style="fill: #3f7d4f" transform="translate(13.170186 208.825116) scale(0.1 -0.1)">
     <defs>
      <path id="DejaVuSansMono-6e" d="M 3284 2169 
L 3284 0 
L 2706 0 
L 2706 2169 
Q 2706 2641 2540 2862 
Q 2375 3084 2022 3084 
Q 1619 3084 1401 2798 
Q 1184 2513 1184 1978 
L 1184 0 
L 609 0 
L 609 3500 
L 1184 3500 
L 1184 2975 
Q 1338 3275 1600 3429 
Q 1863 3584 2222 3584 
Q 2756 3584 3020 3232 
Q 3284 2881 3284 2169 
z
" transform="scale(0.015625)"/>
      <path id="DejaVuSansMono-70" d="M 1172 441 
L 1172 -1331 
L 594 -1331 
L 594 3500 
L 1172 3500 
L 1172 3053 
Q 1316 3313 1555 3448 
Q 1794 3584 2106 3584 
Q 2741 3584 3102 3093 
Q 3463 2603 3463 1734 
Q 3463 881 3100 395 
Q 2738 -91 2106 -91 
Q 1788 -91 1548 45 
Q 1309 181 1172 441 
z
M 2859 1747 
Q 2859 2416 2648 2756 
Q 2438 3097 2022 3097 
Q 1603 3097 1387 2755 
Q 1172 2413 1172 1747 
Q 1172 1084 1387 740 
Q 1603 397 2022 397 
Q 2438 397 2648 737 
Q 2859 1078 2859 1747 
z
" transform="scale(0.015625)"/>
      <path id="DejaVuSansMono-2e" d="M 1528 953 
L 2316 953 
L 2316 0 
L 1528 0 
L 1528 953 
z
" transform="scale(0.015625)"/>
      <path id="DejaVuSansMono-64" d="M 2681 3053 
L 2681 4863 
L 3256 4863 
L 3256 0 
L 2681 0 
L 2681 441 
Q 2538 181 2298 45 
Q 2059 -91 1747 -91 
Q 1113 -91 748 401 
Q 384 894 384 1759 
Q 384 2613 750 3098 
Q 1116 3584 1747 3584 
Q 2063 3584 2303 3448 
Q 2544 3313 2681 3053 
z
M 991 1747 
Q 991 1078 1203 737 
Q 1416 397 1831 397 
Q 2247 397 2464 740 
Q 2681 1084 2681 1747 
Q 2681 2413 2464 2755 
Q 2247 3097 1831 3097 
Q 1416 3097 1203 2756 
Q 991 2416 991 1747 
z
" transform="scale(0.015625)"/>
      <path id="DejaVuSansMono-61" d="M 2194 1759 
L 2003 1759 
Q 1500 1759 1245 1582 
Q 991 1406 991 1056 
Q 991 741 1181 566 
Q 1372 391 1709 391 
Q 2184 391 2456 720 
Q 2728 1050 2731 1631 
L 2731 1759 
L 2194 1759 
z
M 3309 1997 
L 3309 0 
L 2731 0 
L 2731 519 
Q 2547 206 2267 57 
Q 1988 -91 1588 -91 
Q 1053 -91 734 211 
Q 416 513 416 1019 
Q 416 1603 808 1906 
Q 1200 2209 1959 2209 
L 2731 2209 
L 2731 2300 
Q 2728 2719 2518 2908 
Q 2309 3097 1850 3097 
Q 1556 3097 1256 3012 
Q 956 2928 672 2766 
L 672 3341 
Q 991 3463 1283 3523 
Q 1575 3584 1850 3584 
Q 2284 3584 2592 3456 
Q 2900 3328 3091 3072 
Q 3209 2916 3259 2686 
Q 3309 2456 3309 1997 
z
" transform="scale(0.015625)"/>
      <path id="DejaVuSansMono-72" d="M 3609 2778 
Q 3425 2922 3234 2987 
Q 3044 3053 2816 3053 
Q 2278 3053 1993 2715 
Q 1709 2378 1709 1741 
L 1709 0 
L 1131 0 
L 1131 3500 
L 1709 3500 
L 1709 2816 
Q 1853 3188 2151 3386 
Q 2450 3584 2859 3584 
Q 3072 3584 3256 3531 
Q 3441 3478 3609 3366 
L 3609 2778 
z
" transform="scale(0.015625)"/>
      <path id="DejaVuSansMono-79" d="M 2681 1125 
Q 2538 759 2316 163 
Q 2006 -663 1900 -844 
Q 1756 -1088 1540 -1209 
Q 1325 -1331 1038 -1331 
L 575 -1331 
L 575 -850 
L 916 -850 
Q 1169 -850 1312 -703 
Q 1456 -556 1678 56 
L 325 3500 
L 934 3500 
L 1972 763 
L 2994 3500 
L 3603 3500 
L 2681 1125 
z
" transform="scale(0.015625)"/>
      <path id="DejaVuSansMono-28" d="M 2766 4856 
Q 2350 4144 2145 3436 
Q 1941 2728 1941 2009 
Q 1941 1294 2145 584 
Q 2350 -125 2766 -844 
L 2266 -844 
Q 1794 -100 1562 604 
Q 1331 1309 1331 2009 
Q 1331 2706 1562 3412 
Q 1794 4119 2266 4856 
L 2766 4856 
z
" transform="scale(0.015625)"/>
      <path id="DejaVuSansMono-2c" d="M 1569 947 
L 2356 947 
L 2356 300 
L 1741 -897 
L 1259 -897 
L 1569 300 
L 1569 947 
z
" transform="scale(0.015625)"/>
      <path id="DejaVuSansMono-20" transform="scale(0.015625)"/>
      <path id="DejaVuSansMono-27" d="M 2194 4666 
L 2194 2931 
L 1650 2931 
L 1650 4666 
L 2194 4666 
z
" transform="scale(0.015625)"/>
      <path id="DejaVuSansMono-3c" d="M 3578 3003 
L 922 2003 
L 3578 1013 
L 3578 441 
L 275 1747 
L 275 2266 
L 3578 3572 
L 3578 3003 
z
" transform="scale(0.015625)"/>
      <path id="DejaVuSansMono-75" d="M 609 1325 
L 609 3494 
L 1184 3494 
L 1184 1325 
Q 1184 853 1351 631 
Q 1519 409 1869 409 
Q 2275 409 2490 695 
Q 2706 981 2706 1516 
L 2706 3494 
L 3284 3494 
L 3284 0 
L 2706 0 
L 2706 525 
Q 2553 222 2289 65 
Q 2025 -91 1672 -91 
Q 1134 -91 871 261 
Q 609 613 609 1325 
z
" transform="scale(0.015625)"/>
      <path id="DejaVuSansMono-34" d="M 2297 4091 
L 825 1625 
L 2297 1625 
L 2297 4091 
z
M 2194 4666 
L 2925 4666 
L 2925 1625 
L 3547 1625 
L 3547 1113 
L 2925 1113 
L 2925 0 
L 2297 0 
L 2297 1113 
L 319 1113 
L 319 1709 
L 2194 4666 
z
" transform="scale(0.015625)"/>
      <path id="DejaVuSansMono-62" d="M 2869 1747 
Q 2869 2416 2656 2756 
Q 2444 3097 2028 3097 
Q 1609 3097 1393 2755 
Q 1178 2413 1178 1747 
Q 1178 1084 1393 740 
Q 1609 397 2028 397 
Q 2444 397 2656 737 
Q 2869 1078 2869 1747 
z
M 1178 3053 
Q 1316 3309 1558 3446 
Q 1800 3584 2119 3584 
Q 2750 3584 3112 3098 
Q 3475 2613 3475 1759 
Q 3475 894 3111 401 
Q 2747 -91 2113 -91 
Q 1800 -91 1561 45 
Q 1322 181 1178 441 
L 1178 0 
L 603 0 
L 603 4863 
L 1178 4863 
L 1178 3053 
z
" transform="scale(0.015625)"/>
      <path id="DejaVuSansMono-66" d="M 3322 4863 
L 3322 4384 
L 2669 4384 
Q 2359 4384 2239 4257 
Q 2119 4131 2119 3809 
L 2119 3500 
L 3322 3500 
L 3322 3053 
L 2119 3053 
L 2119 0 
L 1544 0 
L 1544 3053 
L 609 3053 
L 609 3500 
L 1544 3500 
L 1544 3744 
Q 1544 4319 1808 4591 
Q 2072 4863 2631 4863 
L 3322 4863 
z
" transform="scale(0.015625)"/>
      <path id="DejaVuSansMono-6f" d="M 1925 3097 
Q 1488 3097 1263 2756 
Q 1038 2416 1038 1747 
Q 1038 1081 1263 739 
Q 1488 397 1925 397 
Q 2366 397 2591 739 
Q 2816 1081 2816 1747 
Q 2816 2416 2591 2756 
Q 2366 3097 1925 3097 
z
M 1925 3584 
Q 2653 3584 3039 3112 
Q 3425 2641 3425 1747 
Q 3425 850 3040 379 
Q 2656 -91 1925 -91 
Q 1197 -91 812 379 
Q 428 850 428 1747 
Q 428 2641 812 3112 
Q 1197 3584 1925 3584 
z
" transform="scale(0.015625)"/>
      <path id="DejaVuSansMono-73" d="M 3041 3378 
L 3041 2816 
Q 2794 2959 2544 3031 
Q 2294 3103 2034 3103 
Q 1644 3103 1451 2976 
Q 1259 2850 1259 2591 
Q 1259 2356 1403 2240 
Q 1547 2125 2119 2016 
L 2350 1972 
Q 2778 1891 2998 1647 
Q 3219 1403 3219 1013 
Q 3219 494 2850 201 
Q 2481 -91 1825 -91 
Q 1566 -91 1281 -36 
Q 997 19 666 128 
L 666 722 
Q 988 556 1281 473 
Q 1575 391 1838 391 
Q 2219 391 2428 545 
Q 2638 700 2638 978 
Q 2638 1378 1872 1531 
L 1847 1538 
L 1631 1581 
Q 1134 1678 906 1908 
Q 678 2138 678 2534 
Q 678 3038 1018 3311 
Q 1359 3584 1991 3584 
Q 2272 3584 2531 3532 
Q 2791 3481 3041 3378 
z
" transform="scale(0.015625)"/>
      <path id="DejaVuSansMono-65" d="M 3475 1894 
L 3475 1613 
L 984 1613 
L 984 1594 
Q 984 1022 1282 709 
Q 1581 397 2125 397 
Q 2400 397 2700 484 
Q 3000 572 3341 750 
L 3341 178 
Q 3013 44 2708 -23 
Q 2403 -91 2119 -91 
Q 1303 -91 843 398 
Q 384 888 384 1747 
Q 384 2584 834 3084 
Q 1284 3584 2034 3584 
Q 2703 3584 3089 3131 
Q 3475 2678 3475 1894 
z
M 2900 2063 
Q 2888 2569 2661 2833 
Q 2434 3097 2009 3097 
Q 1594 3097 1325 2822 
Q 1056 2547 1006 2059 
L 2900 2063 
z
" transform="scale(0.015625)"/>
      <path id="DejaVuSansMono-74" d="M 1919 4494 
L 1919 3500 
L 3225 3500 
L 3225 3053 
L 1919 3053 
L 1919 1153 
Q 1919 766 2066 612 
Q 2213 459 2578 459 
L 3225 459 
L 3225 0 
L 2522 0 
Q 1875 0 1609 259 
Q 1344 519 1344 1153 
L 1344 3053 
L 409 3053 
L 409 3500 
L 1344 3500 
L 1344 4494 
L 1919 4494 
z
" transform="scale(0.015625)"/>
      <path id="DejaVuSansMono-3d" d="M 275 1638 
L 3578 1638 
L 3578 1100 
L 275 1100 
L 275 1638 
z
M 275 2906 
L 3578 2906 
L 3578 2375 
L 275 2375 
L 275 2906 
z
" transform="scale(0.015625)"/>
      <path id="DejaVuSansMono-69" d="M 800 3500 
L 2272 3500 
L 2272 447 
L 3413 447 
L 3413 0 
L 556 0 
L 556 447 
L 1697 447 
L 1697 3053 
L 800 3053 
L 800 3500 
z
M 1697 4863 
L 2272 4863 
L 2272 4134 
L 1697 4134 
L 1697 4863 
z
" transform="scale(0.015625)"/>
      <path id="DejaVuSansMono-32" d="M 1166 531 
L 3309 531 
L 3309 0 
L 475 0 
L 475 531 
Q 1059 1147 1496 1619 
Q 1934 2091 2100 2284 
Q 2413 2666 2522 2902 
Q 2631 3138 2631 3384 
Q 2631 3775 2401 3997 
Q 2172 4219 1772 4219 
Q 1488 4219 1175 4116 
Q 863 4013 513 3803 
L 513 4441 
Q 834 4594 1145 4672 
Q 1456 4750 1759 4750 
Q 2444 4750 2861 4386 
Q 3278 4022 3278 3431 
Q 3278 3131 3139 2831 
Q 3000 2531 2688 2169 
Q 2513 1966 2180 1606 
Q 1847 1247 1166 531 
z
" transform="scale(0.015625)"/>
      <path id="DejaVuSansMono-29" d="M 1088 4856 
L 1588 4856 
Q 2059 4119 2290 3412 
Q 2522 2706 2522 2009 
Q 2522 1306 2290 600 
Q 2059 -106 1588 -844 
L 1088 -844 
Q 1503 -119 1708 590 
Q 1913 1300 1913 2009 
Q 1913 2722 1708 3431 
Q 1503 4141 1088 4856 
z
" transform="scale(0.015625)"/>
     </defs>
     <use xlink:href="#DejaVuSansMono-6e"/>
     <use xlink:href="#DejaVuSansMono-70" transform="translate(60.205078 0)"/>
     <use xlink:href="#DejaVuSansMono-2e" transform="translate(120.410156 0)"/>
     <use xlink:href="#DejaVuSansMono-6e" transform="translate(180.615234 0)"/>
     <use xlink:href="#DejaVuSansMono-64" transform="translate(240.820312 0)"/>
     <use xlink:href="#DejaVuSansMono-61" transform="translate(301.025391 0)"/>
     <use xlink:href="#DejaVuSansMono-72" transform="translate(361.230469 0)"/>
     <use xlink:href="#DejaVuSansMono-72" transform="translate(421.435547 0)"/>
     <use xlink:href="#DejaVuSansMono-61" transform="translate(481.640625 0)"/>
     <use xlink:href="#DejaVuSansMono-79" transform="translate(541.845703 0)"/>
     <use xlink:href="#DejaVuSansMono-28" transform="translate(602.050781 0)"/>
     <use xlink:href="#DejaVuSansMono-6e" transform="translate(662.255859 0)"/>
     <use xlink:href="#DejaVuSansMono-2c" transform="translate(722.460938 0)"/>
     <use xlink:href="#DejaVuSansMono-20" transform="translate(782.666016 0)"/>
     <use xlink:href="#DejaVuSansMono-27" transform="translate(842.871094 0)"/>
     <use xlink:href="#DejaVuSansMono-3c" transform="translate(903.076172 0)"/>
     <use xlink:href="#DejaVuSansMono-75" transform="translate(963.28125 0)"/>
     <use xlink:href="#DejaVuSansMono-34" transform="translate(1023.486328 0)"/>
     <use xlink:href="#DejaVuSansMono-27" transform="translate(1083.691406 0)"/>
     <use xlink:href="#DejaVuSansMono-2c" transform="translate(1143.896484 0)"/>
     <use xlink:href="#DejaVuSansMono-20" transform="translate(1204.101562 0)"/>
     <use xlink:href="#DejaVuSansMono-62" transform="translate(1264.306641 0)"/>
     <use xlink:href="#DejaVuSansMono-75" transform="translate(1324.511719 0)"/>
     <use xlink:href="#DejaVuSansMono-66" transform="translate(1384.716797 0)"/>
     <use xlink:href="#DejaVuSansMono-2c" transform="translate(1444.921875 0)"/>
     <use xlink:href="#DejaVuSansMono-20" transform="translate(1505.126953 0)"/>
     <use xlink:href="#DejaVuSansMono-6f" transform="translate(1565.332031 0)"/>
     <use xlink:href="#DejaVuSansMono-66" transform="translate(1625.537109 0)"/>
     <use xlink:href="#DejaVuSansMono-66" transform="translate(1685.742188 0)"/>
     <use xlink:href="#DejaVuSansMono-73" transform="translate(1745.947266 0)"/>
     <use xlink:href="#DejaVuSansMono-65" transform="translate(1806.152344 0)"/>
     <use xlink:href="#DejaVuSansMono-74" transform="translate(1866.357422 0)"/>
     <use xlink:href="#DejaVuSansMono-3d" transform="translate(1926.5625 0)"/>
     <use xlink:href="#DejaVuSansMono-34" transform="translate(1986.767578 0)"/>
     <use xlink:href="#DejaVuSansMono-2c" transform="translate(2046.972656 0)"/>
     <use xlink:href="#DejaVuSansMono-20" transform="translate(2107.177734 0)"/>
     <use xlink:href="#DejaVuSansMono-73" transform="translate(2167.382812 0)"/>
     <use xlink:href="#DejaVuSansMono-74" transform="translate(2227.587891 0)"/>
     <use xlink:href="#DejaVuSansMono-72" transform="translate(2287.792969 0)"/>
     <use xlink:href="#DejaVuSansMono-69" transform="translate(2347.998047 0)"/>
     <use xlink:href="#DejaVuSansMono-64" transform="translate(2408.203125 0)"/>
     <use xlink:href="#DejaVuSansMono-65" transform="translate(2468.408203 0)"/>
     <use xlink:href="#DejaVuSansMono-73" transform="translate(2528.613281 0)"/>
     <use xlink:href="#DejaVuSansMono-3d" transform="translate(2588.818359 0)"/>
     <use xlink:href="#DejaVuSansMono-32" transform="translate(2649.023438 0)"/>
     <use xlink:href="#DejaVuSansMono-32" transform="translate(2709.228516 0)"/>
     <use xlink:href="#DejaVuSansMono-29" transform="translate(2769.433594 0)"/>
    </g>
   </g>
  </g>
 </g>
 <defs>
  <clipPath id="pd5b36b95f1">
   <rect x="5.76" y="5.76" width="468.72" height="232.848"/>
  </clipPath>
 </defs>
</svg>
